<svg width="64" height="26" viewBox="0 0 64 26" fill="none" xmlns="http://www.w3.org/2000/svg">
<g clip-path="url(#clip0_3121_171272)">
<path d="M33.5631 5.14394C35.083 3.69161 36.4661 2.79179 36.9677 2.52342C38.6396 1.63939 40.4027 0.818505 42.2266 0.408062C44.0505 -0.00238152 45.9959 -0.0655266 47.8654 0.0765499C50.5861 0.265985 53.1851 1.18159 55.465 2.776C56.8329 3.72318 58.1248 4.85979 59.2343 6.10691C60.6326 7.68554 61.6966 9.50096 62.4869 11.5374C63.718 14.7104 64.0676 17.9624 63.9156 21.3091C63.8548 22.5562 63.566 23.8033 63.3837 25.0347C63.3229 25.4925 63.0797 25.6503 62.6541 25.6345C62.0461 25.6187 61.4382 25.6345 60.967 25.6345C61.1342 23.4087 61.3774 21.2302 61.4686 19.0517C61.5598 16.9363 61.1038 14.8683 60.3894 12.895C59.0975 9.34309 56.9089 6.54892 53.7019 4.68614C49.6437 2.30241 45.388 1.95512 40.9347 3.39167C39.7491 3.77054 38.7004 4.40199 37.6517 5.01765C35.6606 6.21741 34.0951 7.89076 32.8944 9.9114C32.4232 10.7007 32.104 11.5847 31.6936 12.4056C31.6024 12.5951 31.4049 12.8476 31.2377 12.8634C30.5841 12.9108 29.9306 12.9108 29.277 12.8634C29.1858 12.8634 29.0186 12.3898 29.0794 12.2162C29.4594 11.2532 29.8242 10.2745 30.3409 9.39045C31.5872 7.27509 31.8304 7.00673 32.5448 6.20163C32.9856 5.68068 33.3351 5.34917 33.5631 5.14394Z" fill="#4749F3"/>
<path d="M13.668 25.6217C13.668 22.8591 13.668 20.1438 13.668 17.3339C13.0904 17.3023 12.5737 17.2707 11.9961 17.2392C11.9961 16.4814 11.9961 15.7395 11.9961 14.9186C12.5129 14.887 13.0144 14.8712 13.6072 14.8397C13.6832 12.6769 13.8808 10.5458 16.267 9.70911C17.6501 9.23552 18.9876 9.39339 20.3708 10.088C20.0668 10.8142 19.7932 11.4772 19.4892 12.2033C18.6533 12.0613 17.6805 11.5245 17.1182 12.4401C16.723 13.0558 16.7078 13.9398 16.4798 14.8239C18.1669 14.8239 19.6108 14.8239 21.1307 14.8239C21.1307 12.7717 21.3283 10.7984 23.441 9.85119C24.9001 9.20395 26.344 9.3776 27.8487 10.088C27.5447 10.8299 27.2559 11.5087 26.9823 12.1876C24.5049 11.8403 23.7905 12.5349 24.2769 14.887C25.0825 14.887 25.9032 14.887 26.7696 14.887C26.7696 15.7079 26.7696 16.4341 26.7696 17.2392C25.9336 17.2392 25.1129 17.2392 24.1857 17.2392C24.1857 20.0649 24.1857 22.8117 24.1857 25.6059C23.137 25.6059 22.1946 25.6059 21.1611 25.6059C21.1611 22.8433 21.1611 20.0965 21.1611 17.3023C19.6412 17.3023 18.1973 17.3023 16.6774 17.3023C16.6774 20.0649 16.6774 22.8117 16.6774 25.6059C15.6287 25.6217 14.6711 25.6217 13.668 25.6217Z" fill="black"/>
<path d="M51.9834 25.6527C50.9346 25.6527 49.9923 25.6527 48.9739 25.6527C48.9739 24.8476 48.9739 24.0741 48.9739 23.2848C48.9739 21.8956 48.9891 20.4906 48.9739 19.1014C48.9587 18.0753 48.4724 17.3807 47.682 17.2071C46.9221 17.0334 46.1317 17.4912 45.7669 18.4226C45.5694 18.9278 45.463 19.4803 45.4478 20.017C45.4022 21.5957 45.4326 23.1743 45.4326 24.7529C45.4326 25.0371 45.4326 25.3212 45.4326 25.637C44.399 25.637 43.4415 25.637 42.4688 25.637C42.4688 22.0535 42.4688 18.5173 42.4688 14.9339C43.4111 14.9339 44.3078 14.9339 45.2654 14.9339C45.2958 15.3443 45.311 15.7074 45.3566 16.2599C46.2229 15.0917 47.2413 14.5392 48.5484 14.5708C49.8707 14.6023 50.889 15.1391 51.7858 16.5283C51.953 16.2283 52.0442 15.96 52.2265 15.7705C53.2601 14.7129 54.5216 14.3656 55.9351 14.6497C57.4246 14.9496 58.443 16.1178 58.5038 17.8385C58.5798 20.4117 58.519 22.9849 58.519 25.6212C57.5462 25.6212 56.5887 25.6212 55.5247 25.6212C55.5247 25.3686 55.5247 25.0844 55.5247 24.8161C55.5247 22.9533 55.5399 21.0747 55.5247 19.2119C55.5095 18.0595 55.0384 17.3649 54.1872 17.2071C53.3513 17.0492 52.5153 17.6333 52.2114 18.6752C52.0594 19.1962 52.0138 19.7645 51.9986 20.3012C51.9682 22.0535 51.9834 23.8215 51.9834 25.6527Z" fill="black"/>
<path d="M2.30029 18.2639C2.01151 17.6325 1.70753 16.9852 1.41875 16.338C3.12104 14.6489 6.63202 14.049 8.66869 15.0593C9.71742 15.5803 10.4926 16.4485 10.523 17.6483C10.6142 20.2846 10.5534 22.9367 10.5534 25.6203C9.70222 25.6203 8.82068 25.6203 7.87834 25.6203C7.84794 25.1941 7.83274 24.7837 7.80235 24.2785C7.60476 24.4679 7.45277 24.5942 7.31598 24.7205C6.03926 25.9834 4.53455 26.2676 2.89306 25.7151C1.76833 25.3362 1.14517 24.4837 1.00837 23.284C0.871583 22.1316 1.16037 21.0265 2.1787 20.4898C3.28823 19.9057 4.53455 19.59 5.72008 19.1953C6.06965 19.069 6.51043 19.148 6.82961 18.9743C7.16399 18.8007 7.65035 18.4218 7.63516 18.1376C7.61996 17.7745 7.25518 17.1747 6.936 17.1115C6.25204 16.9537 5.46169 16.9063 4.77774 17.0799C3.95699 17.3325 3.18184 17.8377 2.30029 18.2639ZM7.58956 20.6477C6.54082 20.9634 5.56809 21.2002 4.64094 21.5633C4.04818 21.8001 3.88099 22.3841 4.03298 23.0156C4.18497 23.6628 4.73214 23.726 5.24891 23.7102C6.57122 23.6786 7.61996 22.4157 7.58956 20.6477Z" fill="black"/>
<path d="M40.7357 17.6046C38.5015 16.8311 37.088 17.9361 37.0272 20.383C37.012 21.2513 37.0272 22.1195 37.0272 22.9878C37.0272 23.856 37.0272 24.7242 37.0272 25.6398C36.0392 25.6398 35.0969 25.6398 34.0938 25.6398C34.0938 22.0879 34.0938 18.5518 34.0938 14.9525C34.9905 14.9525 35.8568 14.9525 36.7992 14.9525C36.7992 15.3788 36.7992 15.7892 36.7992 16.3259C36.9816 16.1839 37.088 16.1365 37.1488 16.0418C37.9999 14.6842 39.2462 14.4474 40.6749 14.6052C41.1613 14.6684 41.3285 14.8894 41.2069 15.3946C41.0245 16.1207 40.8877 16.8311 40.7357 17.6046Z" fill="black"/>
<path d="M28.625 14.9336C29.5977 14.9336 30.5097 14.9336 31.4976 14.9336C31.4976 18.5171 31.4976 22.0374 31.4976 25.6209C30.5401 25.6209 29.6129 25.6209 28.625 25.6209C28.625 22.1006 28.625 18.5644 28.625 14.9336Z" fill="black"/>
<path d="M7.58795 20.6484C7.61835 22.4165 6.58482 23.6636 5.2473 23.711C4.73054 23.7268 4.19857 23.6478 4.03138 23.0164C3.87939 22.4007 4.03138 21.8008 4.63934 21.564C5.56648 21.201 6.53922 20.9642 7.58795 20.6484Z" fill="white"/>
</g>
<defs>
<clipPath id="clip0_3121_171272">
<rect width="63" height="26" fill="white" transform="translate(0.960938)"/>
</clipPath>
</defs>
</svg>
