<svg width="24" height="24" viewBox="0 0 24 24" fill="none" xmlns="http://www.w3.org/2000/svg">
<path d="M11.9958 2.02734C6.48605 2.02734 2.02344 6.48996 2.02344 11.9997C2.02344 17.5094 6.48605 21.972 11.9958 21.972C17.5055 21.972 21.9681 17.5094 21.9681 11.9997C21.9681 6.48996 17.5055 2.02734 11.9958 2.02734ZM11.9958 20.6507C7.23398 20.6507 3.34477 16.7615 3.34477 11.9997C3.34477 7.23788 7.23398 3.34868 11.9958 3.34868C16.7576 3.34868 20.6468 7.23788 20.6468 11.9997C20.6468 16.7615 16.7576 20.6507 11.9958 20.6507Z" fill="#DB8080"/>
<path d="M10.3476 12.9484L8.00412 10.5799L6.10938 12.4747L10.3476 16.7129L17.8767 9.1838L15.982 7.28906L10.3476 12.9484Z" fill="#DB8080"/>
</svg>
