<svg width="24" height="20" viewBox="0 0 24 20" fill="none" xmlns="http://www.w3.org/2000/svg">
<path d="M23.2544 3.23368L20.4387 0.339343C20.344 0.242133 20.2156 0.1875 20.0816 0.1875C19.9477 0.1875 19.8192 0.242133 19.7246 0.339343L7.83223 12.5369C7.73763 12.6341 7.60918 12.6887 7.47522 12.6887C7.34126 12.6887 7.21281 12.6341 7.11821 12.5369L4.30244 9.64257C4.20783 9.54536 4.07938 9.49073 3.94542 9.49073C3.81146 9.49073 3.68301 9.54536 3.58841 9.64257L0.77264 12.5369C0.575787 12.7387 0.575787 13.0659 0.77264 13.2677L7.11821 19.7727C7.21281 19.87 7.34126 19.9246 7.47522 19.9246C7.60918 19.9246 7.73763 19.87 7.83223 19.7727L23.2544 3.95726C23.4466 3.75629 23.4466 3.43465 23.2544 3.23368Z" fill="#343249"/>
</svg>
