<svg width="72" height="72" viewBox="0 0 72 72" fill="none" xmlns="http://www.w3.org/2000/svg">
<rect width="72" height="72" rx="36" fill="#DB8080"/>
<g clip-path="url(#clip0_3404_5771)">
<path d="M54.0016 31.0177C54.0016 38.8484 54.0016 46.679 54.0016 54.5096C42.0078 54.5096 30.0141 54.5096 18.0016 54.5096C18.0016 54.3841 18.0016 54.3165 18.0016 54.2489C18.0016 46.6017 18.0016 38.9546 17.9922 31.3074C17.9922 31.0853 18.0767 30.9598 18.2364 30.8343C19.5982 29.8108 20.9507 28.768 22.3126 27.7445C22.5286 27.5804 22.6037 27.4162 22.6037 27.1459C22.6037 24.0464 22.6037 20.9567 22.6037 17.8573C22.6037 17.7414 22.5849 17.6159 22.5755 17.5C31.5262 17.5 40.4769 17.5 49.437 17.5C49.4276 17.5676 49.4088 17.6448 49.4088 17.7124C49.4088 20.8891 49.3994 24.0658 49.4182 27.2424C49.4182 27.3969 49.5403 27.5997 49.6718 27.6962C51.1088 28.8163 52.5552 29.9073 54.0016 31.0177ZM24.7357 19.7111C24.7263 19.8463 24.7169 19.9428 24.7169 20.0297C24.7169 24.761 24.7169 29.5018 24.7263 34.233C24.7263 34.3875 24.8203 34.5903 24.9424 34.6772C28.5489 37.4387 32.1649 40.1905 35.7715 42.9423C35.9593 43.0871 36.072 43.0775 36.2505 42.9326C39.8383 40.1905 43.4354 37.4483 47.0326 34.7158C47.2205 34.571 47.2956 34.4261 47.2956 34.1751C47.2862 29.4728 47.2862 24.7803 47.2862 20.078C47.2862 19.9525 47.2768 19.827 47.2674 19.6918C39.7443 19.7111 32.2588 19.7111 24.7357 19.7111ZM21.9651 52.3082C31.3572 52.3082 40.6742 52.3082 50.0569 52.3082C46.5255 49.2184 43.041 46.1672 39.5659 43.1161C39.4814 43.174 39.4344 43.203 39.3874 43.2416C38.3449 44.0334 37.293 44.8251 36.2599 45.6265C36.0814 45.7714 35.9499 45.781 35.7715 45.6265C35.5085 45.4045 35.2267 45.2113 34.9544 44.9989C34.1279 44.3713 33.3013 43.7437 32.4654 43.1064C28.9622 46.1769 25.4871 49.2184 21.9651 52.3082ZM20.143 33.7309C20.143 39.5339 20.143 45.2693 20.143 51.0433C23.6838 47.9439 27.1777 44.8734 30.7185 41.7836C27.1777 39.0897 23.6744 36.4248 20.143 33.7309ZM41.294 41.7836C44.8349 44.8831 48.3381 47.9535 51.8696 51.0433C51.8696 45.2403 51.8696 39.5146 51.8696 33.7213C48.3381 36.4248 44.8349 39.0801 41.294 41.7836ZM51.1746 31.5584C50.5735 31.1046 50.0193 30.6798 49.437 30.2356C49.437 31.1529 49.437 31.9929 49.437 32.8812C50.0381 32.4274 50.5829 32.0123 51.1746 31.5584ZM20.838 31.5584C21.4203 32.0026 21.9744 32.4274 22.5755 32.8812C22.5755 31.9736 22.5755 31.1336 22.5755 30.2356C21.9744 30.6991 21.4203 31.1143 20.838 31.5584Z" fill="white"/>
<path d="M41.6298 36.7432C37.8729 36.7432 34.1536 36.7432 30.3968 36.7432C30.3968 33.5955 30.3968 30.4671 30.3968 27.2905C29.8239 27.2905 29.2979 27.2905 28.7344 27.2905C28.7344 26.5953 28.7344 25.9387 28.7344 25.2435C30.115 25.2435 31.4957 25.2435 32.9796 25.2435C32.8199 25.1276 32.7542 25.0794 32.6791 25.0311C32.0216 24.5773 31.7211 23.94 31.815 23.1482C31.9089 22.3275 32.3691 21.7385 33.1393 21.4971C33.8906 21.2558 34.5857 21.4199 35.121 22.0379C35.431 22.3855 35.6845 22.7717 35.9851 23.1579C36.2293 22.8296 36.4641 22.511 36.7083 22.1923C37.2436 21.4971 37.9387 21.2461 38.7652 21.4778C39.5541 21.6999 40.0237 22.2599 40.1458 23.0807C40.2679 23.9497 39.9392 24.6255 39.2066 25.0987C39.169 25.118 39.1408 25.1566 39.0375 25.2242C40.4839 25.2242 41.8552 25.2242 43.2452 25.2242C43.2452 25.9097 43.2452 26.5663 43.2452 27.2712C42.7099 27.2712 42.1745 27.2712 41.611 27.2712C41.6298 30.4478 41.6298 33.5762 41.6298 36.7432ZM39.5729 29.9361C39.5729 29.0671 39.5729 28.1884 39.5729 27.3098C38.7088 27.3098 37.8635 27.3098 37.0088 27.3098C37.0088 28.1981 37.0088 29.0574 37.0088 29.9361C37.8635 29.9361 38.7088 29.9361 39.5729 29.9361ZM34.9707 34.6866C34.9707 33.779 34.9707 32.91 34.9707 32.041C34.1067 32.041 33.2614 32.041 32.4349 32.041C32.4349 32.939 32.4349 33.808 32.4349 34.6866C33.2896 34.6866 34.1161 34.6866 34.9707 34.6866ZM39.5823 34.6866C39.5823 33.7983 39.5823 32.9293 39.5823 32.0506C38.7088 32.0506 37.8635 32.0506 37.0182 32.0506C37.0182 32.9486 37.0182 33.8176 37.0182 34.6866C37.8917 34.6866 38.7276 34.6866 39.5823 34.6866ZM32.4161 29.9264C33.2896 29.9264 34.1255 29.9264 34.9614 29.9264C34.9614 29.0285 34.9614 28.1691 34.9614 27.3001C34.0973 27.3001 33.2614 27.3001 32.4161 27.3001C32.4161 28.1884 32.4161 29.0478 32.4161 29.9264Z" fill="white"/>
</g>
<defs>
<clipPath id="clip0_3404_5771">
<rect width="36" height="37" fill="white" transform="translate(18 17.5)"/>
</clipPath>
</defs>
</svg>
