<svg width="73" height="72" viewBox="0 0 73 72" fill="none" xmlns="http://www.w3.org/2000/svg">
<rect x="0.0117188" width="72" height="72" rx="36" fill="#DB8080"/>
<g clip-path="url(#clip0_3404_5745)">
<path d="M38.3591 16C38.7244 16 39.0898 16 39.4551 16C39.6848 16.073 39.9248 16.1357 40.1545 16.2087C42.2109 16.9079 43.3173 19.0368 42.7745 21.3222C42.3674 23.065 41.3445 24.4529 40.1232 25.7052C40.0292 25.7991 39.9457 25.9035 39.7891 26.06C40.0397 26.06 40.1754 26.06 40.3111 26.06C43.0146 26.06 45.7286 26.0496 48.4322 26.0704C48.9228 26.0704 49.4238 26.1122 49.904 26.2165C52.785 26.8636 54.7474 29.3368 54.7474 32.311C54.7578 37.5914 54.7474 42.8823 54.7474 48.1628C54.7474 48.3193 54.7474 48.4654 54.7474 48.6115C55.6973 48.7785 56.0418 49.2064 55.9896 50.1247C55.833 53.3598 53.1399 55.9896 49.8831 55.9896C40.6242 56.0104 31.3653 56 22.1169 55.9896C19.3612 55.9896 16.9499 54.0903 16.2296 51.4292C16.1461 51.1057 16.0731 50.7717 16 50.4482C16 50.1351 16 49.8221 16 49.509C16.2505 48.9872 16.6263 48.6324 17.2526 48.622C17.2526 48.4341 17.2526 48.2776 17.2526 48.1211C17.2526 42.8719 17.2526 37.6332 17.2526 32.384C17.2526 28.7628 19.9666 26.06 23.5678 26.06C26.2923 26.06 29.0063 26.06 31.7307 26.06C31.8664 26.06 32.0021 26.06 32.1378 26.06C32.1691 26.0078 32.19 25.9661 32.2213 25.9139C32.0334 25.7678 31.8351 25.6426 31.6785 25.4756C30.5511 24.2859 29.6326 22.9815 29.2463 21.3639C28.7766 19.4125 29.4656 17.5445 31.0522 16.6053C31.5115 16.3339 32.0543 16.2087 32.5553 16.0104C32.9207 16.0104 33.286 16.0104 33.6514 16.0104C34.5282 16.2191 35.3319 16.574 36 17.221C36.6889 16.5427 37.4927 16.2087 38.3591 16ZM52.3987 43.4041C52.0438 43.4667 51.7307 43.5607 51.4071 43.5711C51.0731 43.592 50.7286 43.592 50.3946 43.5189C48.5887 43.1432 47.4092 41.7031 47.3987 39.856C47.3883 38.2176 47.3987 36.5792 47.3987 34.9408C47.3987 34.3564 47.2422 33.8555 46.6889 33.5633C45.739 33.0728 44.7474 33.7094 44.7161 34.826C44.6952 35.7235 44.737 36.6209 44.6848 37.5184C44.5804 39.4073 43.0772 40.8369 41.1879 40.8996C39.0063 40.9726 37.3883 39.4073 37.3466 37.1636C37.3361 36.3392 37.357 35.5252 37.3361 34.7008C37.3152 33.8659 36.595 33.2711 35.7808 33.4067C35.1127 33.5215 34.7056 34.0433 34.6743 34.8469C34.5804 36.7357 33.1294 38.2698 31.3027 38.395C29.382 38.5307 27.7328 37.2784 27.3779 35.3895C27.3152 35.0869 27.3257 34.7634 27.2735 34.4607C27.1587 33.8242 26.6159 33.3963 25.9687 33.3963C25.3319 33.3963 24.7891 33.8346 24.6743 34.4712C24.643 34.6486 24.6326 34.8364 24.6326 35.0138C24.6326 37.4036 24.643 39.8038 24.6326 42.1936C24.6221 44.2494 23.1399 45.8148 21.0939 45.9191C20.6138 45.94 20.1232 45.8252 19.643 45.773C19.643 46.6914 19.643 47.6306 19.643 48.5907C30.572 48.5907 41.4802 48.5907 52.3987 48.5907C52.3987 46.8688 52.3987 45.1469 52.3987 43.4041ZM19.6117 37.1218C19.6117 38.802 19.6117 40.4821 19.6117 42.1623C19.6117 42.7049 19.7891 43.1641 20.2902 43.4354C21.2401 43.9572 22.2735 43.3102 22.2839 42.1831C22.2944 39.8769 22.2839 37.5706 22.2944 35.2747C22.2944 34.9616 22.3152 34.6486 22.3466 34.3355C22.524 32.5301 23.9436 31.2048 25.7808 31.1004C27.5971 30.9961 29.1524 32.144 29.5386 33.8972C29.6117 34.2416 29.6326 34.5964 29.6848 34.9408C29.7683 35.5878 30.3111 36.0783 30.9582 36.0887C31.7307 36.1096 32.2944 35.546 32.3466 34.7112C32.3883 33.8555 32.6284 33.0728 33.1816 32.4049C34.1315 31.2465 35.7495 30.8082 37.2213 31.2883C38.6722 31.7579 39.6221 33.0206 39.6952 34.6068C39.7265 35.4626 39.7056 36.3287 39.7056 37.1845C39.7056 37.7167 39.8935 38.155 40.3737 38.4263C41.2818 38.9272 42.3257 38.3428 42.3674 37.2992C42.4092 36.3287 42.357 35.3478 42.4301 34.3773C42.5658 32.5719 43.9436 31.2674 45.7912 31.1109C47.5553 30.9648 49.142 32.0501 49.5908 33.7615C49.7056 34.1894 49.7474 34.6381 49.7474 35.0764C49.7683 36.6522 49.7578 38.228 49.7578 39.8038C49.7578 40.3673 49.9144 40.8369 50.4363 41.1083C51.3967 41.6196 52.4196 40.9726 52.4301 39.8351C52.4405 37.3723 52.4405 34.9095 52.4301 32.4571C52.4301 30.0673 50.7912 28.4289 48.4113 28.4289C40.1545 28.4289 31.8977 28.4289 23.6409 28.4289C21.261 28.4289 19.6326 30.0777 19.6221 32.4571C19.6117 34.0016 19.6117 35.5565 19.6117 37.1218ZM18.5992 51.0013C18.5992 51.0744 18.5992 51.1161 18.6096 51.1578C18.6409 51.2413 18.6722 51.3248 18.714 51.4083C19.4238 52.8275 20.5616 53.6415 22.1482 53.652C31.3862 53.6728 40.6347 53.6728 49.8727 53.652C51.4593 53.652 52.6075 52.838 53.3069 51.4187C53.3695 51.2935 53.4008 51.1683 53.4635 51.0013C41.8142 51.0013 30.2171 51.0013 18.5992 51.0013ZM31.3862 20.1325C31.5219 20.5917 31.595 21.0717 31.7933 21.4996C32.6597 23.378 34.0793 24.7555 35.8121 25.8513C35.9269 25.9243 36.1879 25.8826 36.3236 25.7991C37.6284 24.9851 38.7453 23.952 39.5908 22.658C39.9875 22.0423 40.3215 21.3535 40.499 20.6543C40.8747 19.2038 39.7265 18.035 38.38 18.4315C37.6701 18.6402 37.3466 19.2038 37.1169 19.8612C36.9395 20.3726 36.501 20.6856 36 20.6752C35.5094 20.6648 35.1127 20.3517 34.9144 19.8612C34.81 19.6107 34.7161 19.3499 34.5699 19.1203C34.1315 18.4524 33.3695 18.1915 32.6284 18.4315C31.9081 18.6715 31.4489 19.329 31.3862 20.1325Z" fill="white"/>
</g>
<defs>
<clipPath id="clip0_3404_5745">
<rect width="40" height="40" fill="white" transform="translate(16.0117 16)"/>
</clipPath>
</defs>
</svg>
