<svg width="72" height="72" viewBox="0 0 72 72" fill="none" xmlns="http://www.w3.org/2000/svg">
<rect width="72" height="72" rx="36" fill="#DB8080"/>
<g clip-path="url(#clip0_3404_5751)">
<path d="M19.7424 16C30.5841 16 41.4159 16 52.2576 16C52.3178 16.0196 52.3779 16.0587 52.4381 16.0685C53.762 16.274 54.805 16.9295 55.5974 17.9667C56.0888 18.6125 56.3195 19.3659 56.49 20.1389C56.49 30.7162 56.49 41.2838 56.49 51.8611C56.4699 51.9296 56.4298 52.0078 56.4198 52.0763C55.9885 54.4051 54.0528 55.9902 51.6057 55.9902C41.1952 56 30.7948 56 20.3843 55.9804C19.8327 55.9804 19.261 55.8924 18.7395 55.726C16.7336 55.0802 15.5 53.3092 15.5 51.1468C15.5 41.0489 15.5 30.9511 15.5 20.8434C15.5 20.7358 15.5 20.638 15.5 20.5303C15.5702 19.0724 16.2021 17.8885 17.3755 16.9687C18.0775 16.4305 18.8899 16.1761 19.7424 16ZM42.5793 52.8787C42.7598 52.8787 42.8902 52.8787 43.0205 52.8787C45.8187 52.8787 48.627 52.8787 51.4251 52.8787C52.6688 52.8787 53.2906 52.272 53.2906 51.0489C53.2906 41.0196 53.2906 31 53.2906 20.9706C53.2906 19.7182 52.6788 19.1213 51.4051 19.1213C41.125 19.1213 30.8549 19.1213 20.5749 19.1213C19.3011 19.1213 18.6893 19.7182 18.6893 20.9706C18.6893 31 18.6893 41.0196 18.6893 51.0489C18.6893 52.272 19.3112 52.8787 20.5548 52.8787C26.091 52.8787 31.6272 52.8787 37.1734 52.8787C37.3038 52.8787 37.4342 52.8689 37.5646 52.8591C37.5646 48.6125 37.5646 44.3855 37.5646 40.1194C35.9599 40.1194 34.3752 40.1194 32.8107 40.1194C32.8107 38.4951 32.8107 36.91 32.8107 35.2857C34.4154 35.2857 35.99 35.2857 37.5947 35.2857C37.5947 35.0998 37.5947 34.9628 37.5947 34.816C37.5947 33.7397 37.5646 32.6536 37.6147 31.5773C37.7551 28.4364 40.0218 25.7456 43.1409 24.9824C44.7957 24.5714 46.4907 24.7965 48.1656 24.7671C48.1857 24.7671 48.2057 24.7965 48.2258 24.8063C48.2258 26.3914 48.2258 27.9765 48.2258 29.591C48.0753 29.591 47.945 29.591 47.8146 29.591C46.8718 29.591 45.919 29.5812 44.9763 29.591C43.7226 29.6106 42.7197 30.3933 42.6194 31.5577C42.5191 32.7808 42.5993 34.0235 42.5993 35.2955C44.5049 35.2955 46.4105 35.2955 48.3261 35.2955C48.0453 36.9296 47.7845 38.5147 47.5037 40.1389C45.8488 40.1389 44.214 40.1389 42.5793 40.1389C42.5793 44.4051 42.5793 48.6223 42.5793 52.8787Z" fill="white"/>
</g>
<defs>
<clipPath id="clip0_3404_5751">
<rect width="41" height="40" fill="white" transform="translate(15.5 16)"/>
</clipPath>
</defs>
</svg>
