<svg width="72" height="72" viewBox="0 0 72 72" fill="none" xmlns="http://www.w3.org/2000/svg">
<rect width="72" height="72" rx="36" fill="#DB8080"/>
<g clip-path="url(#clip0_3404_5731)">
<path d="M21.4418 52.712C21.6522 51.3962 21.8494 50.1067 22.0597 48.8041C22.4015 46.6988 22.7433 44.5935 23.085 42.4883C23.1376 42.1593 23.0587 41.9488 22.8353 41.712C20.6137 39.4356 18.3921 37.1462 16.1968 34.8435C14.5667 33.133 14.6062 30.5278 16.2231 28.8962C17.117 28.0014 18.2343 27.7383 19.4306 27.5672C22.1517 27.1725 24.8728 26.7251 27.594 26.3304C27.9094 26.2778 28.0672 26.1462 28.1986 25.8699C29.4738 23.1199 30.762 20.3699 32.0371 17.6199C32.8127 15.9488 34.1141 14.9883 35.9677 14.9883C37.8343 14.9883 39.1489 15.9488 39.9245 17.6462C41.1864 20.3699 42.4616 23.0804 43.7235 25.8041C43.8681 26.1199 44.0259 26.2646 44.394 26.3304C47.3648 26.7646 50.3226 27.2251 53.2803 27.6988C54.9761 27.9751 56.1855 28.9093 56.7245 30.5541C57.2634 32.1856 56.8954 33.6725 55.6991 34.9093C53.5301 37.1725 51.3348 39.4093 49.1526 41.6593C48.8897 41.9225 48.8109 42.1725 48.8766 42.5278C49.3893 45.6725 49.9151 48.8041 50.4015 51.9488C50.6775 53.6856 50.1517 55.1593 48.7057 56.1856C47.2597 57.212 45.7085 57.2646 44.1573 56.4093C41.594 55.0014 39.0174 53.5541 36.454 52.1067C36.1254 51.9225 35.8888 51.9225 35.5602 52.1067C32.9442 53.5804 30.3282 55.0409 27.686 56.4751C25.3329 57.7514 22.4672 56.5672 21.6785 54.0146C21.5602 53.5935 21.5207 53.1462 21.4418 52.712ZM25.6879 52.7383C25.9376 52.6067 26.1085 52.5146 26.2794 52.4225C28.8033 51.0278 31.3404 49.6462 33.8644 48.2514C35.2841 47.462 36.7038 47.462 38.1235 48.2514C40.6606 49.6593 43.1977 51.0672 45.7348 52.4751C45.8794 52.5541 46.0371 52.633 46.2343 52.7383C46.2212 52.5409 46.2343 52.4356 46.208 52.3172C45.7085 49.212 45.2353 46.0935 44.7094 42.9883C44.4465 41.4093 44.8409 40.0672 45.9583 38.9356C47.6278 37.2383 49.2709 35.5278 50.9273 33.8172C51.5188 33.212 52.1104 32.5935 52.7282 31.9488C52.531 31.8962 52.3864 31.8567 52.255 31.8304C49.363 31.3699 46.4709 30.883 43.5658 30.4488C41.8963 30.1988 40.7395 29.3304 40.0428 27.8172C38.8071 25.133 37.5451 22.4488 36.2963 19.7646C36.2174 19.5935 36.1254 19.4225 36.0071 19.1856C35.8888 19.4225 35.7968 19.5935 35.7179 19.7646C34.4428 22.5014 33.1545 25.2251 31.8794 27.962C31.2353 29.3435 30.1573 30.1856 28.6587 30.4356C26.4897 30.7909 24.3207 31.1067 22.1517 31.4356C21.2052 31.5804 20.2587 31.7251 19.2334 31.8962C19.4437 32.1199 19.5883 32.2778 19.7329 32.4225C21.8625 34.633 23.9921 36.8435 26.1217 39.0541C27.1207 40.0935 27.5282 41.3435 27.3179 42.7646C27.0024 44.8435 26.6475 46.9093 26.3057 48.9751C26.0954 50.1856 25.8982 51.4225 25.6879 52.7383Z" fill="white"/>
</g>
<defs>
<clipPath id="clip0_3404_5731">
<rect width="42" height="42" fill="white" transform="translate(15 15)"/>
</clipPath>
</defs>
</svg>
