<svg width="72" height="72" viewBox="0 0 72 72" fill="none" xmlns="http://www.w3.org/2000/svg">
<rect width="72" height="72" rx="36" fill="#DB8080"/>
<g clip-path="url(#clip0_3404_5737)">
<path d="M55.0001 25.7594C55.0001 32.5903 55.0001 39.4097 55.0001 46.2406C54.8491 46.9492 54.7677 47.6811 54.5354 48.3666C53.2459 52.3629 49.6562 54.9768 45.4391 54.9884C39.1426 55.0116 32.846 55 26.5611 54.9884C24.5397 54.9884 22.6809 54.4308 21.0429 53.2342C18.3361 51.2592 17.0117 48.564 17.0117 45.2183C17.0117 39.096 17.0117 32.9737 17.0117 26.8514C17.0117 26.2241 17.0466 25.5851 17.1511 24.9694C17.7901 21.461 19.7882 19.0098 23.0759 17.6738C23.924 17.3253 24.865 17.2207 25.7595 17C32.5904 17 39.4098 17 46.2407 17C46.5079 17.0465 46.7751 17.0929 47.0423 17.1394C50.5275 17.8016 52.9671 19.7765 54.3147 23.041C54.6632 23.9006 54.7677 24.8533 55.0001 25.7594ZM51.8054 35.9942H51.817C51.817 32.904 51.817 29.8138 51.817 26.7236C51.817 25.7362 51.6892 24.7719 51.2477 23.8774C50.0511 21.461 48.0878 20.1831 45.3926 20.1715C39.1193 20.1483 32.8576 20.1599 26.5843 20.1715C26.2126 20.1715 25.8408 20.2064 25.4807 20.2528C22.5996 20.6594 20.2181 23.2617 20.2065 26.1776C20.16 32.6484 20.1832 39.1076 20.1832 45.5784C20.1832 46.4613 20.3575 47.3094 20.7409 48.0877C21.9607 50.5506 23.9472 51.8053 26.7005 51.8053C32.8925 51.8169 39.0961 51.8053 45.2881 51.8053C45.7063 51.8053 46.1245 51.7704 46.5427 51.7123C49.3657 51.3289 51.7589 48.6918 51.8054 45.8456C51.8402 42.5812 51.8054 39.2819 51.8054 35.9942Z" fill="white"/>
<path d="M45.4985 36.0424C45.452 41.305 41.142 45.5569 35.9375 45.4872C30.6865 45.4175 26.4578 41.1424 26.5043 35.9379C26.5508 30.6752 30.8608 26.4233 36.0653 26.493C41.3163 26.5744 45.5449 30.8495 45.4985 36.0424ZM36.0072 29.6762C32.5104 29.6762 29.6874 32.4759 29.6758 35.9843C29.6642 39.4695 32.4755 42.3041 35.9723 42.3273C39.4691 42.3506 42.327 39.5043 42.3154 35.9959C42.3154 32.4991 39.504 29.6762 36.0072 29.6762Z" fill="white"/>
<path d="M46.3112 28.0723C44.9869 28.0839 43.9297 27.0268 43.9297 25.714C43.9297 24.4129 44.9752 23.3673 46.2764 23.3441C47.5659 23.3209 48.6695 24.4245 48.6695 25.714C48.6695 27.0035 47.6124 28.0607 46.3112 28.0723Z" fill="white"/>
</g>
<defs>
<clipPath id="clip0_3404_5737">
<rect width="38" height="38" fill="white" transform="translate(17 17)"/>
</clipPath>
</defs>
</svg>
