<svg width="72" height="72" viewBox="0 0 72 72" fill="none" xmlns="http://www.w3.org/2000/svg">
<rect width="72" height="72" rx="36" fill="#DB8080"/>
<g clip-path="url(#clip0_3404_5948)">
<path d="M58 29.0657C58 29.6977 58 30.3297 58 30.9617C57.9771 31.0536 57.9427 31.1455 57.9313 31.2489C57.6677 33.6735 56.6594 35.7878 55.1469 37.6723C54.8604 38.0286 54.5625 38.3618 54.2646 38.7295C55.7083 40.0739 56.3385 41.6712 55.6854 43.5672C55.0438 45.4517 53.6229 46.3824 51.6635 46.5548C51.6177 47.7498 51.1937 48.7495 50.3573 49.5769C49.5208 50.3927 48.5125 50.7949 47.3552 50.8294C47.1146 54.8971 42.05 56.6208 39.3344 53.1505C39.2313 53.2884 39.1625 53.4378 39.0479 53.5412C38.2688 54.3226 37.501 55.127 36.7104 55.8854C35.026 57.4826 32.299 57.3677 30.7292 55.6555C30.0073 54.8742 29.6521 53.9434 29.5948 52.8747C27.1083 52.5875 25.7219 51.2086 25.3896 48.7495C23.8542 48.6346 22.674 47.9567 21.9521 46.6122C21.2188 45.2563 21.3219 43.8889 22.0781 42.51C21.9635 42.4181 21.849 42.3261 21.7458 42.2227C20.3594 40.9128 18.9844 39.6028 17.5979 38.2928C16.0969 36.868 15.0312 35.1788 14.4698 33.1909C14.2635 32.421 14.1604 31.6396 14 30.8697C14 30.2377 14 29.6058 14 28.9738C14.0573 28.675 14.1146 28.3877 14.1604 28.089C15.4896 19.85 25.0229 15.7707 31.8406 20.5624C32.9979 21.3783 33.9833 22.4584 35.0375 23.4237C35.1635 23.5386 35.2781 23.6535 35.4271 23.7799C36.0229 23.1709 36.5729 22.5848 37.1573 22.0333C37.6156 21.5851 38.0854 21.137 38.601 20.7463C41.2708 18.6664 44.2844 17.5748 47.6531 18.1723C52.7177 19.0686 56.0062 22.1137 57.576 27.0203C57.7823 27.6638 57.8625 28.3762 58 29.0657ZM37.1917 25.6299C37.3406 25.7333 37.4667 25.8023 37.5698 25.8942C38.8531 27.1467 40.1479 28.3877 41.4198 29.6517C42.8865 31.0996 43.1958 33.4092 42.1875 35.2133C41.1792 37.0174 39.1167 37.9136 37.0885 37.4425C36.2292 37.2357 35.4844 36.8335 34.8656 36.2015C34.3729 35.7074 33.8917 35.2018 33.4104 34.7192C33.3073 34.7881 33.2615 34.8111 33.2385 34.8341C30.3052 37.7758 27.3604 40.7174 24.4385 43.6821C24.2208 43.9004 24.0948 44.2451 24.049 44.5554C23.9573 45.1529 24.301 45.693 24.8396 45.9573C25.401 46.2445 26.0198 46.1526 26.501 45.693C27.3375 44.8771 28.1396 44.0498 28.9646 43.2339C29.5604 42.6364 30.3396 42.6019 30.8781 43.1305C31.4281 43.6706 31.3823 44.4634 30.775 45.0839C30.0417 45.8309 29.2969 46.5663 28.5635 47.3132C27.8302 48.0601 27.8073 49.0828 28.4948 49.7722C29.1708 50.4387 30.1792 50.3927 30.9125 49.6688C31.6573 48.9334 32.3792 48.175 33.1354 47.4511C33.3531 47.2442 33.651 47.0719 33.9375 47.0144C34.4875 46.888 35.0146 47.1868 35.2667 47.6694C35.5188 48.152 35.4385 48.761 35.0375 49.1862C34.2813 49.9676 33.5021 50.726 32.7344 51.5073C32.001 52.2542 31.9667 53.2769 32.6656 53.9664C33.3302 54.6214 34.35 54.5869 35.0833 53.863C35.851 53.0931 36.6187 52.3117 37.3979 51.5533C37.6156 51.3465 37.65 51.1741 37.524 50.8868C36.825 49.2896 37.1688 47.4051 38.4177 46.1986C38.8531 45.7734 39.4031 45.4517 39.9073 45.0725C38.9448 43.4752 38.8531 41.7861 39.9531 40.2118C41.225 38.3963 43.024 37.9481 45.1208 38.6031C45.6823 37.0748 46.6906 36.0177 48.2948 35.6614C49.876 35.3052 51.2625 35.7534 52.4198 36.891C54.6083 34.7077 55.5938 32.1222 55.3073 29.0887C54.6885 22.6308 47.6875 18.7699 41.8896 21.6426C40.0219 22.5504 38.7615 24.1706 37.1917 25.6299ZM23.9 40.7174C24.0146 40.5565 24.0833 40.4072 24.1865 40.2923C26.5927 37.8677 28.999 35.4546 31.4167 33.0415C32.5969 31.8694 34.201 31.8809 35.3927 33.053C35.8052 33.4667 36.2177 33.8918 36.6417 34.3055C37.5583 35.2133 38.8188 35.2363 39.6667 34.3745C40.4688 33.5471 40.4229 32.2831 39.5292 31.4098C36.8594 28.7899 34.1896 26.1585 31.4854 23.573C29.4573 21.6311 27.0052 20.8152 24.2323 21.2174C20.7948 21.7115 18.3656 23.619 17.1625 26.8709C15.9479 30.0999 16.4865 33.1679 18.7896 35.7419C20.3365 37.477 22.124 39.0053 23.9 40.7174ZM47.5042 48.198C48.0542 48.175 48.5927 47.8303 48.8906 47.1753C49.2 46.4973 49.1198 45.8309 48.6042 45.3023C47.3094 43.9693 45.9917 42.6479 44.6625 41.3494C43.9635 40.66 42.9208 40.7174 42.2448 41.4184C41.5917 42.0963 41.5802 43.1305 42.2563 43.8199C43.5281 45.1184 44.8229 46.3939 46.1063 47.6809C46.4385 48.0256 46.8396 48.2095 47.5042 48.198ZM49.3375 37.9941C48.5469 38.109 48.0198 38.4537 47.7104 39.0972C47.3896 39.7637 47.4698 40.4301 47.9854 40.9702C48.776 41.809 49.601 42.6364 50.4375 43.4408C51.1365 44.1072 52.1677 44.0613 52.8323 43.3948C53.5198 42.7053 53.5427 41.6826 52.8438 40.9587C52.0531 40.1429 51.274 39.327 50.4375 38.5686C50.1396 38.3043 49.7042 38.1779 49.3375 37.9941ZM42.7833 52.4496C43.7344 52.4036 44.2729 52.0589 44.5594 51.4039C44.8573 50.7489 44.7771 50.094 44.2844 49.5654C43.7458 48.9908 43.1958 48.4278 42.6229 47.8877C41.9354 47.2442 40.9385 47.3017 40.2625 47.9681C39.6208 48.6001 39.5635 49.6343 40.1708 50.3123C40.7094 50.9098 41.2708 51.4844 41.8781 52.0014C42.1646 52.2542 42.5885 52.3577 42.7833 52.4496Z" fill="white"/>
</g>
<defs>
<clipPath id="clip0_3404_5948">
<rect width="44" height="39" fill="white" transform="translate(14 18)"/>
</clipPath>
</defs>
</svg>
