<svg width="72" height="72" viewBox="0 0 72 72" fill="none" xmlns="http://www.w3.org/2000/svg">
<rect width="72" height="72" rx="36" fill="#DB8080"/>
<g clip-path="url(#clip0_3404_5757)">
<path d="M56.5007 28.6347C56.252 28.9556 56.0355 29.3086 55.7548 29.5975C52.2419 33.2562 48.7209 36.9069 45.208 40.5575C44.8311 40.9427 44.422 41.2075 43.8686 41.0951C43.211 40.9587 42.834 40.4452 42.834 39.675C42.826 38.0462 42.834 36.4174 42.834 34.7887C42.834 34.6442 42.834 34.4998 42.834 34.3714C42.7859 34.3313 42.7618 34.3073 42.7458 34.3073C38.4148 34.0264 34.4848 35.0133 31.2286 38.0382C30.0015 39.1775 29.031 40.5014 28.261 41.9857C27.8761 42.7319 27.1703 42.9967 26.4966 42.6677C26.0635 42.4591 25.7908 42.1141 25.7828 41.6327C25.7346 39.1133 25.6705 36.5779 26.4966 34.1468C28.622 27.8564 32.9209 23.981 39.4334 22.6251C40.4038 22.4245 41.4224 22.4165 42.4169 22.3202C42.5453 22.3041 42.6736 22.3041 42.85 22.2961C42.85 22.1276 42.85 21.9912 42.85 21.8468C42.85 20.2983 42.8741 18.7497 42.842 17.2012C42.826 16.4149 43.0505 15.8292 43.7884 15.4922C44.005 15.4922 44.2135 15.4922 44.43 15.4922C44.7348 15.7249 45.0717 15.9174 45.3363 16.1822C48.8252 19.7848 52.298 23.3953 55.7708 27.0139C56.0515 27.3028 56.2681 27.6558 56.5167 27.9767C56.5007 28.2094 56.5007 28.418 56.5007 28.6347Z" fill="white"/>
<path d="M56.5019 52.0165C56.4458 52.2492 56.3896 52.4739 56.3255 52.7066C55.74 54.905 53.7188 56.4936 51.4411 56.4936C41.151 56.5017 30.8689 56.5017 20.5788 56.4936C17.7877 56.4936 15.5179 54.2069 15.5099 51.4067C15.5019 43.4154 15.5019 35.424 15.5099 27.4326C15.5099 24.6324 17.7316 22.4019 20.5708 22.3377C22.2791 22.2976 23.9874 22.3136 25.6958 22.3297C26.7384 22.3377 27.4602 23.0758 27.4522 24.0627C27.4442 25.0416 26.6983 25.7477 25.6476 25.7477C24.0195 25.7477 22.3914 25.7477 20.7632 25.7477C19.6324 25.7477 18.9266 26.4377 18.9266 27.561C18.9266 35.4641 18.9266 43.3592 18.9266 51.2623C18.9266 52.3936 19.6163 53.0756 20.7552 53.0756C30.909 53.0756 41.0627 53.0756 51.2165 53.0756C52.3955 53.0756 53.0692 52.3936 53.0692 51.2062C53.0692 46.7772 53.0692 42.3482 53.0692 37.9113C53.0692 37.3095 53.2216 36.7799 53.7108 36.3788C54.5931 35.6567 55.9004 35.9776 56.3575 37.0287C56.4057 37.133 56.4538 37.2453 56.5019 37.3496C56.5019 42.252 56.5019 47.1302 56.5019 52.0165Z" fill="white"/>
</g>
<defs>
<clipPath id="clip0_3404_5757">
<rect width="41" height="41" fill="white" transform="translate(15.5 15.5)"/>
</clipPath>
</defs>
</svg>
