<svg width="72" height="72" viewBox="0 0 72 72" fill="none" xmlns="http://www.w3.org/2000/svg">
<rect width="72" height="72" rx="36" fill="#DB8080"/>
<g clip-path="url(#clip0_3404_5941)">
<path d="M19.8296 57C19.6209 57 19.4122 57 19.2034 57C18.5356 56.6719 18.2642 56.1141 18.3373 55.3484C18.3582 55.1625 18.3686 54.9547 18.3269 54.7797C18.2955 54.6594 18.1912 54.4953 18.0868 54.4625C17.4085 54.2547 16.845 53.8937 16.4693 53.2594C16.271 52.9203 16.1458 52.5266 15.9893 52.1547C15.9997 46.6641 15.9997 41.1625 15.9997 35.6719C16.4797 33.8125 17.7216 33.1891 19.3182 33.2547C20.9253 33.3203 22.5429 33.2656 24.1604 33.2656C24.2961 33.2656 24.4317 33.2656 24.5987 33.2656C24.5987 33.0688 24.5987 32.9375 24.5987 32.7953C24.5987 32.0187 24.5883 31.2422 24.5987 30.4547C24.63 28.7266 25.9345 27.3266 27.5833 27.3047C29.0026 27.2828 30.4218 27.3047 31.8202 27.3047C32.4359 25.6313 33.229 25.0625 34.8987 25.0625C36.0571 25.0625 37.2154 25.0625 38.3738 25.0625C38.5095 25.0625 38.6451 25.0625 38.8121 25.0625C38.8121 24.8547 38.8121 24.7016 38.8121 24.5594C38.8121 22.4375 38.8017 20.3266 38.8121 18.2047C38.8225 16.8703 39.5739 15.7219 40.7323 15.2406C40.9514 15.1531 41.1706 15.0875 41.3897 15C43.0594 15 44.7187 15 46.3884 15C46.4093 15.0109 46.4301 15.0437 46.451 15.0437C48.1833 15.5469 48.966 16.6297 48.966 18.5219C48.966 20.5453 48.966 22.5687 48.966 24.5922C48.966 24.7344 48.9765 24.8766 48.9869 25.0516C49.1643 25.0516 49.3104 25.0516 49.4461 25.0516C50.7192 25.0516 51.9924 25.0297 53.276 25.0625C54.8622 25.0953 55.9997 26.3203 55.9997 27.9719C56.0101 35.8578 55.9997 43.7437 55.9997 51.6297C55.9997 52.9859 55.1857 54.0906 53.9438 54.4297C53.6934 54.4953 53.6308 54.6156 53.6516 54.8453C53.6621 55.0094 53.6412 55.1734 53.6516 55.3375C53.7247 56.1031 53.4638 56.6609 52.7855 56.9891C52.5768 56.9891 52.3681 56.9891 52.1593 56.9891C51.0532 56.5078 51.3454 55.4359 51.2827 54.55C49.133 54.55 47.025 54.55 44.8961 54.55C44.8544 55.4688 45.1257 56.5078 44.0299 56.9891C43.8212 56.9891 43.6125 56.9891 43.4038 56.9891C42.2976 56.5078 42.5898 55.4359 42.5272 54.55C40.4818 54.55 38.4782 54.55 36.4536 54.55C36.4223 55.4688 36.6832 56.5078 35.5875 56.9891C35.3788 56.9891 35.17 56.9891 34.9613 56.9891C33.8551 56.5078 34.1473 55.4359 34.0847 54.55C29.587 54.55 25.1414 54.55 20.6644 54.55C20.654 55.4797 20.9253 56.5187 19.8296 57ZM48.9556 27.5563C45.5536 27.5563 42.1933 27.5563 38.833 27.5563C38.833 35.7375 38.833 43.8969 38.833 52.0453C42.2246 52.0453 45.5849 52.0453 48.9556 52.0453C48.9556 43.875 48.9556 35.7375 48.9556 27.5563ZM31.7576 52.0672C31.7576 46.6094 31.7576 41.1953 31.7576 35.7594C28.846 35.7594 25.9449 35.7594 23.0542 35.7594C23.0542 41.2063 23.0542 46.6312 23.0542 52.0672C25.9658 52.0672 28.846 52.0672 31.7576 52.0672ZM36.4432 52.0781C36.4432 43.875 36.4432 35.7156 36.4432 27.5234C35.8901 27.5234 35.3579 27.5234 34.8361 27.5234C34.1787 27.5234 34.1265 27.5781 34.1265 28.2672C34.1265 35.9453 34.1265 43.6234 34.1265 51.3125C34.1265 51.4219 34.1265 51.5312 34.1265 51.6406C34.1369 51.9141 34.283 52.0672 34.5439 52.0781C35.17 52.0781 35.7857 52.0781 36.4432 52.0781ZM51.3349 27.5344C51.3349 35.7375 51.3349 43.8969 51.3349 52.0781C51.8776 52.0781 52.3994 52.0781 52.9211 52.0781C53.5995 52.0781 53.6516 52.0234 53.6516 51.3016C53.6516 43.6234 53.6516 35.9453 53.6516 28.2562C53.6516 28.1469 53.6934 28.0156 53.6412 27.9391C53.5473 27.7859 53.4116 27.5562 53.2864 27.5453C52.6394 27.5125 51.9924 27.5344 51.3349 27.5344ZM46.618 25.0406C46.618 22.7219 46.6284 20.4578 46.618 18.1938C46.618 17.7234 46.3049 17.4609 45.804 17.4609C44.5517 17.4609 43.3099 17.4609 42.0576 17.4609C41.4001 17.4609 41.1601 17.7125 41.1601 18.4016C41.1601 20.4906 41.1601 22.5797 41.1601 24.6797C41.1601 24.8 41.1706 24.9203 41.181 25.0516C42.9864 25.0406 44.7813 25.0406 46.618 25.0406ZM20.6644 35.7266C20.1009 35.7266 19.5687 35.7266 19.0365 35.7266C18.4103 35.7266 18.3477 35.7922 18.3477 36.4484C18.3477 41.4031 18.3477 46.3688 18.3477 51.3234C18.3477 51.4328 18.306 51.575 18.3582 51.6406C18.4625 51.8047 18.6086 52.0344 18.7547 52.0453C19.3809 52.0891 20.0174 52.0672 20.6749 52.0672C20.6644 46.6203 20.6644 41.2062 20.6644 35.7266ZM26.9363 33.2328C28.5747 33.2328 30.1609 33.2328 31.7471 33.2328C31.7471 32.0625 31.7471 30.925 31.7471 29.7656C30.3592 29.7656 28.9921 29.7547 27.6355 29.7656C27.2285 29.7656 26.9467 30.0609 26.9467 30.4984C26.9259 31.4062 26.9363 32.3031 26.9363 33.2328Z" fill="white"/>
</g>
<defs>
<clipPath id="clip0_3404_5941">
<rect width="40" height="42" fill="white" transform="translate(16 15)"/>
</clipPath>
</defs>
</svg>
