<svg width="72" height="72" viewBox="0 0 72 72" fill="none" xmlns="http://www.w3.org/2000/svg">
<rect width="72" height="72" rx="36" fill="#DB8080"/>
<g clip-path="url(#clip0_3404_5712)">
<path d="M14.5 37.262C14.5 36.4207 14.5 35.5793 14.5 34.7379C14.5224 34.5921 14.5561 34.4462 14.5785 34.2892C14.7131 33.3581 14.7917 32.4269 14.9936 31.5182C16.1154 26.3578 18.763 22.1285 22.9699 18.9424C28.1976 14.9824 34.0985 13.6698 40.5154 15.0048C45.6534 16.0818 49.8379 18.7742 53.0351 22.925C56.4903 27.4123 57.9263 32.5279 57.3878 38.1483C56.9503 42.703 55.1778 46.7304 52.1376 50.1632C48.8058 53.9325 44.655 56.2772 39.6965 57.1634C38.8887 57.3093 38.0698 57.3878 37.2508 57.5C36.4095 57.5 35.5681 57.5 34.7267 57.5C34.6145 57.4776 34.5136 57.4439 34.4014 57.4327C31.0359 57.1971 27.8947 56.2323 25.0228 54.471C19.4697 51.0606 16.0369 46.147 14.8366 39.7077C14.6795 38.8999 14.6122 38.081 14.5 37.262ZM53.9101 35.9944C53.8877 26.111 45.8217 18.0674 35.972 18.1011C26.0886 18.1347 18.1011 26.1334 18.0899 36.0056C18.0899 45.8778 26.1334 53.9213 36.0056 53.9213C45.889 53.9101 53.9326 45.8553 53.9101 35.9944Z" fill="white"/>
<path d="M37.7899 50.3207C36.5783 50.3207 35.4228 50.3207 34.2225 50.3207C34.2225 49.3223 34.1888 48.335 34.2337 47.3703C34.2561 46.7869 34.1439 46.4952 33.5157 46.2148C31.2608 45.2163 29.9931 43.4438 29.78 40.9646C29.7239 40.2354 29.7688 39.495 29.7688 38.7209C30.9243 38.7209 32.091 38.7209 33.3138 38.7209C33.3138 39.3267 33.2913 39.9213 33.3138 40.5158C33.3587 41.6152 33.8523 42.4566 34.8619 42.9166C35.8603 43.3653 36.8251 43.2307 37.6889 42.5351C39.1025 41.3909 38.9454 39.0462 37.3187 38.2049C36.1745 37.6103 34.9292 37.184 33.7289 36.6792C32.1359 36.0173 30.9579 34.9291 30.2512 33.3361C28.804 30.0828 30.4419 26.2124 33.785 24.9896C34.0991 24.8774 34.2113 24.7316 34.2 24.395C34.1664 23.4976 34.1888 22.6113 34.1888 21.6914C35.3892 21.6914 36.5447 21.6914 37.7563 21.6914C37.7563 22.3084 37.8011 22.9254 37.745 23.5312C37.6553 24.3838 37.846 24.8774 38.7547 25.2701C40.6282 26.0666 41.7724 27.6035 42.1314 29.6228C42.2885 30.5203 42.2436 31.4514 42.2997 32.3937C41.0545 32.3937 39.8877 32.3937 38.6649 32.3937C38.6649 31.8889 38.6649 31.3729 38.6649 30.868C38.6649 29.4994 37.745 28.3888 36.4661 28.1981C35.0526 27.9849 33.8186 28.759 33.4147 30.1052C33.0221 31.4065 33.6728 32.7639 34.9965 33.3249C36.0286 33.7624 37.0607 34.1662 38.104 34.5925C40.8637 35.7144 42.4343 38.0927 42.1763 41.0543C41.9519 43.6009 40.5496 45.3734 38.1713 46.327C37.8236 46.4616 37.745 46.6299 37.7563 46.9664C37.8011 48.0658 37.7899 49.1764 37.7899 50.3207Z" fill="white"/>
</g>
<defs>
<clipPath id="clip0_3404_5712">
<rect width="43" height="43" fill="white" transform="translate(14.5 14.5)"/>
</clipPath>
</defs>
</svg>
