<svg width="72" height="72" viewBox="0 0 72 72" fill="none" xmlns="http://www.w3.org/2000/svg">
<rect width="72" height="72" rx="36" fill="#DB8080"/>
<g clip-path="url(#clip0_3404_5764)">
<path d="M25.8669 36.8074C20.9865 30.7872 22.6754 22.6245 27.6257 18.5373C32.5177 14.4967 39.5646 14.4734 44.41 18.5839C47.1123 20.8778 48.6615 23.8239 48.9876 27.3638C49.3137 30.892 48.2887 34.0244 46.1689 36.7259C47.4035 37.6574 48.6964 38.4958 49.8146 39.5205C53.7515 43.1187 55.9646 47.6018 56.4188 52.9233C56.4654 53.5055 56.5004 54.0877 56.4887 54.6699C56.4887 55.6713 55.6967 56.4632 54.695 56.5098C53.7399 56.5563 52.9012 55.8111 52.7848 54.833C52.6217 53.4589 52.5984 52.0616 52.2723 50.7341C51.0376 45.6571 48.0092 41.9659 43.3501 39.6137C43.222 39.5438 42.9774 39.5671 42.8493 39.6486C38.2717 42.2803 33.7058 42.2803 29.1282 39.6486C29.0001 39.5788 28.7555 39.5671 28.6274 39.637C23.5257 42.2337 20.4274 46.3325 19.4373 51.9801C19.2743 52.9233 19.2859 53.8898 19.1811 54.8446C19.1112 55.5782 18.7152 56.0905 18.0396 56.3584C17.3407 56.6378 16.6885 56.5214 16.1177 56.0323C15.6868 55.6597 15.4771 55.1823 15.4887 54.6001C15.512 50.1286 16.8282 46.0763 19.4723 42.4666C21.1146 40.2192 23.1646 38.4027 25.564 36.9937C25.6689 36.9355 25.7504 36.8773 25.8669 36.8074ZM36.0004 37.8437C41.137 37.8437 45.3069 33.6867 45.3069 28.5515C45.3186 23.4047 41.1487 19.2243 36.0004 19.2243C30.8521 19.2243 26.6822 23.4163 26.6939 28.5631C26.6939 33.6983 30.8637 37.8437 36.0004 37.8437Z" fill="white"/>
</g>
<defs>
<clipPath id="clip0_3404_5764">
<rect width="41" height="41" fill="white" transform="translate(15.5 15.5)"/>
</clipPath>
</defs>
</svg>
