<svg width="183" height="25" viewBox="0 0 183 25" fill="none" xmlns="http://www.w3.org/2000/svg">
<g clip-path="url(#clip0_4096_1570)">
<path opacity="0.07" d="M179.355 0.800781H147.355C145.655 0.800781 144.355 2.10078 144.355 3.80078V21.8008C144.355 23.5008 145.755 24.8008 147.355 24.8008H179.355C181.055 24.8008 182.355 23.5008 182.355 21.8008V3.80078C182.355 2.10078 180.955 0.800781 179.355 0.800781Z" fill="black"/>
<path d="M179.355 1.80078C180.455 1.80078 181.355 2.70078 181.355 3.80078V21.8008C181.355 22.9008 180.455 23.8008 179.355 23.8008H147.355C146.255 23.8008 145.355 22.9008 145.355 21.8008V3.80078C145.355 2.70078 146.255 1.80078 147.355 1.80078H179.355Z" fill="white"/>
<path d="M147.925 7.95984H146.355V13.4598H147.925C148.755 13.4598 149.355 13.2598 149.885 12.8298C150.515 12.3098 150.885 11.5298 150.885 10.7198C150.875 9.08984 149.665 7.95984 147.925 7.95984ZM149.185 12.0998C148.845 12.3998 148.415 12.5398 147.715 12.5398H147.425V8.89984H147.715C148.405 8.89984 148.825 9.01984 149.185 9.33984C149.555 9.66984 149.775 10.1798 149.775 10.7098C149.775 11.2398 149.555 11.7698 149.185 12.0998ZM151.375 7.95984H152.445V13.4598H151.375V7.95984ZM155.065 10.0698C154.425 9.82984 154.235 9.66984 154.235 9.37984C154.235 9.02984 154.575 8.76984 155.035 8.76984C155.355 8.76984 155.625 8.89984 155.895 9.21984L156.455 8.48984C155.995 8.08984 155.445 7.87984 154.835 7.87984C153.865 7.87984 153.115 8.55984 153.115 9.45984C153.115 10.2198 153.465 10.6098 154.465 10.9698C154.885 11.1198 155.095 11.2198 155.205 11.2798C155.415 11.4198 155.525 11.6198 155.525 11.8498C155.525 12.2998 155.175 12.6298 154.695 12.6298C154.185 12.6298 153.775 12.3698 153.525 11.8998L152.835 12.5698C153.325 13.2998 153.925 13.6198 154.735 13.6198C155.845 13.6198 156.635 12.8798 156.635 11.8098C156.655 10.9198 156.285 10.5198 155.065 10.0698ZM156.985 10.7198C156.985 12.3398 158.255 13.5898 159.885 13.5898C160.345 13.5898 160.745 13.4998 161.225 13.2698V12.0098C160.795 12.4398 160.415 12.6098 159.935 12.6098C158.855 12.6098 158.085 11.8298 158.085 10.7098C158.085 9.64984 158.875 8.81984 159.885 8.81984C160.395 8.81984 160.785 8.99984 161.225 9.43984V8.17984C160.755 7.93984 160.365 7.83984 159.905 7.83984C158.295 7.83984 156.985 9.11984 156.985 10.7198ZM169.745 11.6598L168.275 7.95984H167.105L169.435 13.5998H170.015L172.385 7.95984H171.225L169.745 11.6598ZM172.875 13.4598H175.915V12.5298H173.945V11.0498H175.845V10.1198H173.945V8.89984H175.915V7.95984H172.875V13.4598ZM180.165 9.58984C180.165 8.55984 179.455 7.96984 178.215 7.96984H176.625V13.4698H177.695V11.2598H177.835L179.315 13.4698H180.635L178.905 11.1498C179.715 10.9798 180.165 10.4298 180.165 9.58984ZM178.005 10.4998H177.695V8.82984H178.025C178.695 8.82984 179.055 9.10984 179.055 9.64984C179.055 10.1998 178.695 10.4998 178.005 10.4998Z" fill="#231F20"/>
<path d="M164.517 13.6608C165.294 13.6608 166.04 13.352 166.589 12.8024C167.139 12.2527 167.448 11.5072 167.448 10.7298C167.448 9.95248 167.139 9.20697 166.589 8.6573C166.04 8.10763 165.294 7.79883 164.517 7.79883C163.74 7.79883 162.994 8.10763 162.444 8.6573C161.895 9.20697 161.586 9.95248 161.586 10.7298C161.586 11.5072 161.895 12.2527 162.444 12.8024C162.994 13.352 163.74 13.6608 164.517 13.6608Z" fill="url(#paint0_linear_4096_1570)"/>
<path opacity="0.65" d="M164.517 13.6608C165.294 13.6608 166.04 13.352 166.589 12.8024C167.139 12.2527 167.448 11.5072 167.448 10.7298C167.448 9.95248 167.139 9.20697 166.589 8.6573C166.04 8.10763 165.294 7.79883 164.517 7.79883C163.74 7.79883 162.994 8.10763 162.444 8.6573C161.895 9.20697 161.586 9.95248 161.586 10.7298C161.586 11.5072 161.895 12.2527 162.444 12.8024C162.994 13.352 163.74 13.6608 164.517 13.6608Z" fill="url(#paint1_linear_4096_1570)"/>
<path d="M180.926 8.30625C180.926 8.20625 180.856 8.15625 180.746 8.15625H180.586V8.63625H180.706V8.44625L180.846 8.63625H180.986L180.826 8.43625C180.886 8.42625 180.926 8.37625 180.926 8.30625ZM180.726 8.37625H180.706V8.24625H180.726C180.786 8.24625 180.816 8.26625 180.816 8.30625C180.816 8.35625 180.786 8.37625 180.726 8.37625Z" fill="#231F20"/>
<path d="M180.764 7.97656C180.534 7.97656 180.344 8.16656 180.344 8.39656C180.344 8.62656 180.534 8.81656 180.764 8.81656C180.994 8.81656 181.184 8.62656 181.184 8.39656C181.184 8.16656 180.994 7.97656 180.764 7.97656ZM180.764 8.74656C180.584 8.74656 180.424 8.59656 180.424 8.39656C180.424 8.20656 180.574 8.04656 180.764 8.04656C180.944 8.04656 181.094 8.20656 181.094 8.39656C181.094 8.58656 180.944 8.74656 180.764 8.74656Z" fill="#231F20"/>
<path d="M181.356 13.7852C181.356 13.7852 171.446 20.6742 153.332 23.8012H179.355C179.883 23.8012 180.389 23.5927 180.764 23.221C181.138 22.8494 181.351 22.3448 181.355 21.8172L181.379 18.7972L181.356 13.7862V13.7852Z" fill="#F48120"/>
</g>
<g clip-path="url(#clip1_4096_1570)">
<path opacity="0.07" d="M35.3555 0.800781H3.35547C1.65547 0.800781 0.355469 2.10078 0.355469 3.80078V21.8008C0.355469 23.5008 1.75547 24.8008 3.35547 24.8008H35.3555C37.0555 24.8008 38.3555 23.5008 38.3555 21.8008V3.80078C38.3555 2.10078 36.9555 0.800781 35.3555 0.800781Z" fill="black"/>
<path d="M35.3555 1.80078C36.4555 1.80078 37.3555 2.70078 37.3555 3.80078V21.8008C37.3555 22.9008 36.4555 23.8008 35.3555 23.8008H3.35547C2.25547 23.8008 1.35547 22.9008 1.35547 21.8008V3.80078C1.35547 2.70078 2.25547 1.80078 3.35547 1.80078H35.3555Z" fill="white"/>
<path d="M28.6555 10.9008H28.3555C27.9555 11.9008 27.6555 12.4008 27.3555 13.9008H29.2555C28.9555 12.4008 28.9555 11.7008 28.6555 10.9008ZM31.5555 16.8008H29.8555C29.7555 16.8008 29.7555 16.8008 29.6555 16.7008L29.4555 15.8008L29.3555 15.6008H26.9555C26.8555 15.6008 26.7555 15.6008 26.7555 15.8008L26.4555 16.7008C26.4555 16.8008 26.3555 16.8008 26.3555 16.8008H24.2555L24.4555 16.3008L27.3555 9.50078C27.3555 9.00078 27.6555 8.80078 28.1555 8.80078H29.6555C29.7555 8.80078 29.8555 8.80078 29.8555 9.00078L31.2555 15.5008C31.3555 15.9008 31.4555 16.2008 31.4555 16.6008C31.5555 16.7008 31.5555 16.7008 31.5555 16.8008ZM18.1555 16.5008L18.5555 14.7008C18.6555 14.7008 18.7555 14.8008 18.7555 14.8008C19.4555 15.1008 20.1555 15.3008 20.8555 15.2008C21.0555 15.2008 21.3555 15.1008 21.5555 15.0008C22.0555 14.8008 22.0555 14.3008 21.6555 13.9008C21.4555 13.7008 21.1555 13.6008 20.8555 13.4008C20.4555 13.2008 20.0555 13.0008 19.7555 12.7008C18.5555 11.7008 18.9555 10.3008 19.6555 9.60078C20.2555 9.20078 20.5555 8.80078 21.3555 8.80078C22.5555 8.80078 23.8555 8.80078 24.4555 9.00078H24.5555C24.4555 9.60078 24.3555 10.1008 24.1555 10.7008C23.6555 10.5008 23.1555 10.3008 22.6555 10.3008C22.3555 10.3008 22.0555 10.3008 21.7555 10.4008C21.5555 10.4008 21.4555 10.5008 21.3555 10.6008C21.1555 10.8008 21.1555 11.1008 21.3555 11.3008L21.8555 11.7008C22.2555 11.9008 22.6555 12.1008 22.9555 12.3008C23.4555 12.6008 23.9555 13.1008 24.0555 13.7008C24.2555 14.6008 23.9555 15.4008 23.1555 16.0008C22.6555 16.4008 22.4555 16.6008 21.7555 16.6008C20.3555 16.6008 19.2555 16.7008 18.3555 16.4008C18.2555 16.6008 18.2555 16.6008 18.1555 16.5008ZM14.6555 16.8008C14.7555 16.1008 14.7555 16.1008 14.8555 15.8008C15.3555 13.6008 15.8555 11.3008 16.2555 9.10078C16.3555 8.90078 16.3555 8.80078 16.5555 8.80078H18.3555C18.1555 10.0008 17.9555 10.9008 17.6555 12.0008C17.3555 13.5008 17.0555 15.0008 16.6555 16.5008C16.6555 16.7008 16.5555 16.7008 16.3555 16.7008L14.6555 16.8008ZM5.35547 9.00078C5.35547 8.90078 5.55547 8.80078 5.65547 8.80078H9.05547C9.55547 8.80078 9.95547 9.10078 10.0555 9.60078L10.9555 14.0008C10.9555 14.1008 10.9555 14.1008 11.0555 14.2008C11.0555 14.1008 11.1555 14.1008 11.1555 14.1008L13.2555 9.00078C13.1555 8.90078 13.2555 8.80078 13.3555 8.80078H15.4555C15.4555 8.90078 15.4555 8.90078 15.3555 9.00078L12.2555 16.3008C12.1555 16.5008 12.1555 16.6008 12.0555 16.7008C11.9555 16.8008 11.7555 16.7008 11.5555 16.7008H10.0555C9.95547 16.7008 9.85547 16.7008 9.85547 16.5008L8.25547 10.3008C8.05547 10.1008 7.75547 9.80078 7.35547 9.70078C6.75547 9.40078 5.65547 9.20078 5.45547 9.20078L5.35547 9.00078Z" fill="#142688"/>
</g>
<g clip-path="url(#clip2_4096_1570)">
<path opacity="0.07" d="M83.3555 0.800781H51.3555C49.6555 0.800781 48.3555 2.10078 48.3555 3.80078V21.8008C48.3555 23.5008 49.7555 24.8008 51.3555 24.8008H83.3555C85.0555 24.8008 86.3555 23.5008 86.3555 21.8008V3.80078C86.3555 2.10078 84.9555 0.800781 83.3555 0.800781Z" fill="black"/>
<path d="M83.3555 1.80078C84.4555 1.80078 85.3555 2.70078 85.3555 3.80078V21.8008C85.3555 22.9008 84.4555 23.8008 83.3555 23.8008H51.3555C50.2555 23.8008 49.3555 22.9008 49.3555 21.8008V3.80078C49.3555 2.70078 50.2555 1.80078 51.3555 1.80078H83.3555Z" fill="white"/>
<path d="M63.3555 19.8008C67.2215 19.8008 70.3555 16.6668 70.3555 12.8008C70.3555 8.93479 67.2215 5.80078 63.3555 5.80078C59.4895 5.80078 56.3555 8.93479 56.3555 12.8008C56.3555 16.6668 59.4895 19.8008 63.3555 19.8008Z" fill="#EB001B"/>
<path d="M71.3555 19.8008C75.2215 19.8008 78.3555 16.6668 78.3555 12.8008C78.3555 8.93479 75.2215 5.80078 71.3555 5.80078C67.4895 5.80078 64.3555 8.93479 64.3555 12.8008C64.3555 16.6668 67.4895 19.8008 71.3555 19.8008Z" fill="#F79E1B"/>
<path d="M70.3555 12.8016C70.3555 10.4016 69.1555 8.30156 67.3555 7.10156C65.5555 8.40156 64.3555 10.5016 64.3555 12.8016C64.3555 15.1016 65.5555 17.3016 67.3555 18.5016C69.1555 17.3016 70.3555 15.2016 70.3555 12.8016Z" fill="#FF5F00"/>
</g>
<g clip-path="url(#clip3_4096_1570)">
<path opacity="0.07" d="M131.355 0.800781H99.3555C97.6555 0.800781 96.3555 2.10078 96.3555 3.80078V21.8008C96.3555 23.5008 97.7555 24.8008 99.3555 24.8008H131.355C133.055 24.8008 134.355 23.5008 134.355 21.8008V3.80078C134.355 2.10078 132.955 0.800781 131.355 0.800781Z" fill="black"/>
<path d="M131.355 1.80078C132.455 1.80078 133.355 2.70078 133.355 3.80078V21.8008C133.355 22.9008 132.455 23.8008 131.355 23.8008H99.3555C98.2555 23.8008 97.3555 22.9008 97.3555 21.8008V3.80078C97.3555 2.70078 98.2555 1.80078 99.3555 1.80078H131.355Z" fill="#006FCF"/>
<path d="M105.326 11.0688L106.1 12.9448H104.558L105.326 11.0688ZM121.401 11.1468H118.424V11.9738H121.353V13.2128H118.43V14.1348H121.407V14.8738L123.484 12.6288L121.407 10.2888L121.401 11.1468ZM107.338 8.80678H111.333L112.22 10.7418L113.042 8.80078H123.412L124.49 9.99078L125.605 8.80078H130.368L126.849 12.6528L130.332 16.4808H125.498L124.42 15.2908L123.295 16.4808H106.385L105.891 15.2908H104.761L104.266 16.4808H100.355L103.641 8.80078H107.071L107.338 8.80678ZM116.001 9.88478H113.762L112.262 13.4208L110.637 9.88478H108.415V14.6948L106.355 9.88478H104.362L101.98 15.3968H103.535L104.029 14.2068H106.625L107.119 15.3968H109.839V11.4618L111.59 15.4028H112.78L114.52 11.4738V15.4038H115.978L116.002 9.88378L116.001 9.88478ZM125.341 12.6528L127.872 9.88478H126.05L124.449 11.6108L122.901 9.88478H117.007V15.4028H122.817L124.431 13.6648L125.979 15.4028H127.854L125.342 12.6528H125.341Z" fill="white"/>
</g>
<defs>
<linearGradient id="paint0_linear_4096_1570" x1="166.014" y1="13.0758" x2="163.989" y2="9.90483" gradientUnits="userSpaceOnUse">
<stop stop-color="#F89F20"/>
<stop offset="0.25" stop-color="#F79A20"/>
<stop offset="0.533" stop-color="#F68D20"/>
<stop offset="0.62" stop-color="#F58720"/>
<stop offset="0.723" stop-color="#F48120"/>
<stop offset="1" stop-color="#F37521"/>
</linearGradient>
<linearGradient id="paint1_linear_4096_1570" x1="165.695" y1="13.0328" x2="162.735" y2="7.24683" gradientUnits="userSpaceOnUse">
<stop stop-color="#F58720"/>
<stop offset="0.359" stop-color="#E16F27"/>
<stop offset="0.703" stop-color="#D4602C"/>
<stop offset="0.982" stop-color="#D05B2E"/>
</linearGradient>
<clipPath id="clip0_4096_1570">
<rect width="38" height="24" fill="white" transform="translate(144.355 0.800781)"/>
</clipPath>
<clipPath id="clip1_4096_1570">
<rect width="38" height="24" fill="white" transform="translate(0.355469 0.800781)"/>
</clipPath>
<clipPath id="clip2_4096_1570">
<rect width="38" height="24" fill="white" transform="translate(48.3555 0.800781)"/>
</clipPath>
<clipPath id="clip3_4096_1570">
<rect width="38" height="24" fill="white" transform="translate(96.3555 0.800781)"/>
</clipPath>
</defs>
</svg>
