<svg width="210" height="8" viewBox="0 0 210 8" fill="none" xmlns="http://www.w3.org/2000/svg">
<path d="M208.811 7.16461C208.718 7.16459 208.625 7.14927 208.537 7.11924L192.834 1.85611L177.134 7.11924C176.956 7.182 176.762 7.182 176.583 7.11924L160.883 1.85611L145.187 7.11924C145.009 7.182 144.814 7.182 144.636 7.11924L128.943 1.85611L113.247 7.11924C113.068 7.182 112.874 7.182 112.695 7.11924L96.9992 1.85611L81.3065 7.11924C81.1278 7.182 80.9337 7.182 80.755 7.11924L65.0623 1.85611L49.3661 7.11924C49.1875 7.182 48.9933 7.182 48.8146 7.11924L33.1219 1.85611L17.4326 7.11924C17.2539 7.182 17.0598 7.182 16.8811 7.11924L0.914331 1.74443C0.803934 1.70843 0.701638 1.65049 0.613356 1.57396C0.525075 1.49744 0.45256 1.40384 0.400006 1.29858C0.347451 1.19332 0.3159 1.07849 0.307175 0.960725C0.298451 0.842964 0.312727 0.724609 0.349178 0.612505C0.385629 0.5004 0.443531 0.39677 0.519537 0.307607C0.595543 0.218444 0.688144 0.145517 0.791986 0.0930436C0.895828 0.0405701 1.00885 0.00959109 1.12452 0.00189789C1.24018 -0.0057953 1.3562 0.00994999 1.46585 0.0482233L17.1551 5.34625L32.8479 0.0482233C33.0265 -0.0145344 33.2207 -0.0145344 33.3994 0.0482233L49.0921 5.34625L64.7882 0.0656744C64.9657 0.00290998 65.1588 0.00290998 65.3363 0.0656744L81.029 5.34625L96.7252 0.0656744C96.9039 0.0029167 97.098 0.0029167 97.2767 0.0656744L112.969 5.34625L128.669 0.0656744C128.846 0.00290998 129.04 0.00290998 129.217 0.0656744L144.91 5.34625L160.609 0.0656744C160.788 0.0029167 160.982 0.0029167 161.161 0.0656744L176.86 5.34625L192.56 0.0656744C192.739 0.0029167 192.933 0.0029167 193.112 0.0656744L209.089 5.44048C209.289 5.50528 209.46 5.64139 209.57 5.82397C209.681 6.00655 209.723 6.22344 209.689 6.43505C209.656 6.64666 209.548 6.83889 209.387 6.97667C209.226 7.11445 209.021 7.18859 208.811 7.18555V7.16461Z" fill="#CE8381"/>
</svg>
