<svg width="100" height="101" viewBox="0 0 100 101" fill="none" xmlns="http://www.w3.org/2000/svg">
<path d="M3.80872 57.0948C6.07602 56.9881 8.34743 57.004 10.613 57.1425C13.8179 57.4963 14.9201 56.5165 14.8385 53.1007C14.6003 42.8534 14.8385 32.5857 14.6956 22.3316C14.6616 19.814 15.3012 19.0452 17.9208 19.0588C39.241 19.1767 60.5612 19.1767 81.8813 19.0588C84.78 19.0588 85.2154 20.059 85.1882 22.5766C85.0726 33.062 85.1882 43.5475 85.0862 54.0329C85.0862 56.3804 85.6849 57.333 88.1549 57.1493C90.8358 56.952 93.5439 57.1085 96.3677 57.1085C96.1091 58.3128 95.2314 58.4081 94.5986 58.7415C80.6135 66.1491 66.6238 73.5545 52.6296 80.9576C51.0646 81.7877 49.7106 82.1959 47.9074 81.2365C33.5299 73.5545 19.1116 65.9881 4.68647 58.3809C4.31904 58.1835 4.00604 57.9386 3.625 57.7004L3.80872 57.0948Z" fill="#F9FCFD"/>
<path d="M31.7293 34.3186C31.7347 34.2691 31.7289 34.2189 31.7123 34.1719C31.6958 34.1249 31.6689 34.0822 31.6336 34.0469C31.5984 34.0116 31.5556 33.9847 31.5086 33.9682C31.4616 33.9516 31.4114 33.9458 31.3619 33.9512H30.6406V31.4336H33.512C34.3694 31.4336 34.7368 31.801 34.7368 32.6584V40.5446C34.7316 40.5944 34.7375 40.6448 34.754 40.6921C34.7706 40.7394 34.7973 40.7824 34.8324 40.8182C34.8675 40.8539 34.9101 40.8815 34.9571 40.8989C35.0041 40.9163 35.0543 40.9231 35.1042 40.9188H36.6692C36.7192 40.9231 36.7694 40.9163 36.8164 40.8989C36.8634 40.8815 36.906 40.8539 36.9411 40.8182C36.9762 40.7824 37.0029 40.7394 37.0195 40.6921C37.036 40.6448 37.0419 40.5944 37.0367 40.5446V39.8641H39.7584V42.1844C39.7584 43.0349 39.3842 43.4092 38.5336 43.4092H32.9541C32.1036 43.4092 31.7293 43.0349 31.7293 42.1844V34.3186Z" fill="#D98182"/>
<path d="M46.2426 31.242C47.0618 31.2134 47.8783 31.3511 48.6429 31.6468C49.4074 31.9424 50.1042 32.3899 50.6911 32.9622C51.278 33.5345 51.7429 34.2197 52.0577 34.9765C52.3725 35.7334 52.5308 36.5461 52.523 37.3658C52.4693 38.9948 51.7845 40.5392 50.6132 41.6725C49.4419 42.8059 47.8759 43.4395 46.246 43.4395C44.6161 43.4395 43.0501 42.8059 41.8788 41.6725C40.7075 40.5392 40.0227 38.9948 39.969 37.3658C39.9612 36.5467 40.1193 35.7345 40.4337 34.9782C40.7481 34.2218 41.2124 33.5369 41.7986 32.9647C42.3847 32.3925 43.0807 31.9449 43.8444 31.6489C44.6082 31.3528 45.4239 31.2144 46.2426 31.242ZM46.2426 40.8701C46.6812 40.851 47.1117 40.7448 47.5088 40.5576C47.906 40.3704 48.2619 40.106 48.5558 39.7798C48.8497 39.4536 49.0757 39.0722 49.2206 38.6577C49.3655 38.2432 49.4264 37.8041 49.3998 37.3658C49.4196 36.9393 49.3527 36.5133 49.2032 36.1134C49.0536 35.7135 48.8245 35.3481 48.5297 35.0393C48.2349 34.7304 47.8805 34.4846 47.488 34.3167C47.0955 34.1487 46.6729 34.0621 46.246 34.0621C45.8191 34.0621 45.3965 34.1487 45.004 34.3167C44.6115 34.4846 44.2571 34.7304 43.9623 35.0393C43.6675 35.3481 43.4384 35.7135 43.2888 36.1134C43.1393 36.5133 43.0724 36.9393 43.0922 37.3658C43.0656 37.8035 43.1263 38.2422 43.2708 38.6562C43.4153 39.0702 43.6406 39.4514 43.9338 39.7775C44.227 40.1036 44.5821 40.3681 44.9785 40.5557C45.3748 40.7432 45.8045 40.8501 46.2426 40.8701Z" fill="#D98182"/>
<path d="M53.9118 34.3186C53.9069 34.2629 53.8906 34.2089 53.8639 34.1598C53.8372 34.1106 53.8007 34.0675 53.7567 34.0331C53.7127 33.9986 53.6621 33.9736 53.608 33.9595C53.5539 33.9454 53.4975 33.9426 53.4423 33.9512H53V31.4336H55.1502C55.9735 31.4336 56.511 31.6717 56.6403 32.4066L58.0012 38.687C58.0891 39.1012 58.1392 39.5225 58.1509 39.9458C58.1796 39.5208 58.248 39.0993 58.355 38.687L60.1853 31.454H62.5873L64.3972 38.687C64.5042 39.0993 64.5726 39.5208 64.6013 39.9458C64.6135 39.5222 64.6659 39.1007 64.7578 38.687L66.1187 32.4066C66.2684 31.6717 66.7991 31.4336 67.6088 31.4336H69.759V33.9512H69.3303C69.2751 33.9426 69.2187 33.9454 69.1646 33.9595C69.1105 33.9736 69.0599 33.9986 69.0159 34.0331C68.9719 34.0675 68.9354 34.1106 68.9087 34.1598C68.8821 34.2089 68.8658 34.2629 68.8608 34.3186L66.6086 43.4364H63.1656L61.6551 37.8433C61.5307 37.4288 61.4508 37.0022 61.4169 36.5708C61.383 37.0022 61.3032 37.4288 61.1788 37.8433L59.6682 43.4364H56.2252L53.9118 34.3186Z" fill="#D98182"/>
<path d="M36.6726 49.1074H35.5703V46.5898H42.7965C43.6538 46.5898 44.0213 46.9573 44.0213 47.8146V50.1281H41.2995V49.4477C41.3049 49.3981 41.2991 49.3479 41.2826 49.3009C41.266 49.2539 41.2391 49.2112 41.2038 49.1759C41.1686 49.1407 41.1259 49.1138 41.0788 49.0972C41.0318 49.0806 40.9817 49.0748 40.9321 49.0802H39.6665V51.5978H43.0687V54.1154H39.6665V58.5586H36.6726V49.1074Z" fill="#D98182"/>
<path d="M43.6953 56.0643H44.0083C44.2805 56.0643 44.3621 55.9827 44.4642 55.6969L47.7371 46.5859H50.8602L54.1331 55.6969C54.2284 55.9827 54.3168 56.0643 54.5822 56.0643H54.902V58.5819H52.9968C52.6812 58.6376 52.3564 58.5667 52.0928 58.3846C51.8291 58.2025 51.6479 57.9238 51.5883 57.6089L51.044 56.0643H47.5534L47.0294 57.6089C46.9699 57.9238 46.7886 58.2025 46.525 58.3846C46.2613 58.5667 45.9365 58.6376 45.6209 58.5819H43.6953V56.0643ZM50.4044 53.6352L49.7988 51.6347C49.5674 50.8795 49.3157 49.6547 49.3157 49.6547C49.3157 49.6547 49.0639 50.8795 48.8258 51.6347L48.2202 53.6352H50.4044Z" fill="#D98182"/>
<path d="M57.8381 49.1076H56.8651C56.8155 49.1022 56.7654 49.108 56.7184 49.1246C56.6714 49.1411 56.6286 49.168 56.5934 49.2033C56.5581 49.2385 56.5312 49.2812 56.5147 49.3283C56.4981 49.3753 56.4923 49.4254 56.4977 49.475V50.1554H53.8984V47.7739C53.8984 46.9166 54.1978 46.6172 55.0552 46.6172H63.6286C64.4859 46.6172 64.7921 46.9166 64.7921 47.7739V50.1554H62.1861V49.475C62.1915 49.4254 62.1857 49.3753 62.1691 49.3283C62.1525 49.2812 62.1256 49.2385 62.0904 49.2033C62.0551 49.168 62.0124 49.1411 61.9654 49.1246C61.9184 49.108 61.8682 49.1022 61.8187 49.1076H60.8456V58.586H57.8381V49.1076Z" fill="#D98182"/>
</svg>
