<svg width="100" height="101" viewBox="0 0 100 101" fill="none" xmlns="http://www.w3.org/2000/svg">
<path d="M49.9352 74.9822C45.7246 74.9822 41.4466 74.9822 37.2108 74.9822C36.8049 75.035 36.3927 74.9584 36.0328 74.7634C35.673 74.5683 35.3838 74.2647 35.2065 73.8958C30.9173 66.3841 26.5945 58.8921 22.2379 51.4197C22.0423 51.1378 21.9375 50.8028 21.9375 50.4597C21.9375 50.1165 22.0423 49.7816 22.2379 49.4997C26.6169 41.9767 30.9679 34.4482 35.2907 26.914C35.4331 26.5937 35.6719 26.3258 35.9739 26.1477C36.2758 25.9696 36.6257 25.8901 36.975 25.9203C45.7218 25.954 54.4686 25.954 63.2154 25.9203C63.5383 25.8923 63.8621 25.9646 64.1424 26.1274C64.4227 26.2901 64.646 26.5354 64.7817 26.8298C69.1271 34.4089 73.4977 41.988 77.8935 49.567C78.0786 49.8326 78.1779 50.1486 78.1779 50.4723C78.1779 50.796 78.0786 51.112 77.8935 51.3776C73.4977 58.9286 69.1271 66.5076 64.7817 74.1148C64.6328 74.4272 64.3912 74.6862 64.0898 74.8565C63.7885 75.0268 63.442 75.1 63.0975 75.0664C58.6848 74.9569 54.3058 74.9822 49.9352 74.9822Z" fill="white"/>
<path d="M59.5492 17.9351H40.6016C40.8037 17.514 40.93 17.2025 41.09 16.9077C43.2037 13.2445 45.3006 9.58129 47.4396 5.91807C48.888 3.39172 51.1786 3.43382 52.6354 5.91807C54.9092 9.83392 57.166 13.7666 59.5492 17.9351Z" fill="white"/>
<path d="M17.1195 58.4023L26.6186 74.8573C26.0796 74.9079 25.7259 74.9752 25.3638 74.9752C21.2122 74.9752 17.069 74.9752 12.9257 74.9752C9.73412 74.9752 8.65621 73.0468 10.2562 70.2762L17.1195 58.4023Z" fill="white"/>
<path d="M73.4062 74.8949L82.9306 58.4062L87.0065 65.4464C88.0591 67.2738 89.1539 69.0843 90.156 70.9454C91.1581 72.8065 90.2234 74.7939 88.3286 74.8444C83.4527 74.9876 78.5684 74.8949 73.4062 74.8949Z" fill="white"/>
<path d="M26.5928 26.0678L17.119 42.4723L14.2389 37.5038C12.841 35.0953 11.4431 32.6953 10.0283 30.2784C8.61356 27.8616 9.81779 25.9668 12.4705 25.9499C16.799 25.9499 21.1274 25.9499 25.4559 25.9499C25.7928 25.9415 26.0791 26.0089 26.5928 26.0678Z" fill="white"/>
<path d="M73.375 25.9375H75.1098C79.2193 25.9375 83.3288 25.9375 87.4384 25.9375C90.1837 25.9375 91.329 27.9249 89.9647 30.3081C87.691 34.2829 85.3752 38.2493 82.9415 42.4683L73.375 25.9375Z" fill="white"/>
<path d="M40.6172 83.0234H59.4217C59.2364 83.4277 59.1101 83.7477 58.9417 84.0424C56.8364 87.7028 54.7227 91.352 52.6005 94.9899C51.1942 97.4152 48.8784 97.4321 47.472 94.9899C45.3162 91.293 43.1941 87.5877 41.0551 83.8908C40.9119 83.6971 40.8025 83.4192 40.6172 83.0234Z" fill="white"/>
</svg>
