<svg width="100" height="101" viewBox="0 0 100 101" fill="none" xmlns="http://www.w3.org/2000/svg">
<path d="M45.0513 49.534C44.538 46.826 43.9627 44.3746 43.6264 41.8877C42.927 37.4259 43.1926 32.866 44.4052 28.5156C47.3965 18.5418 54.0339 12.3292 64.0785 9.83354C69.6023 8.52797 75.3162 8.22818 80.9463 8.94855C84.1765 9.30255 87.3713 9.88664 90.5838 10.3822C90.9112 10.4353 91.2387 10.5415 91.5927 10.63C91.5742 10.7315 91.5414 10.8298 91.4953 10.9221C87.7076 15.1383 85.047 20.2435 83.7606 25.7633C82.7782 29.6661 81.5392 33.5069 80.4861 37.392C78.4152 45.0029 73.4062 49.6491 65.9989 51.8792C62.0575 53.0891 57.9696 53.756 53.848 53.8616C53.3871 53.8445 52.9301 53.9533 52.5263 54.1763C52.1225 54.3992 51.787 54.7279 51.5559 55.1271C49.5356 58.3813 47.8458 61.8292 46.5115 65.4195C43.41 73.421 40.8525 81.6229 38.8563 89.969C38.4935 91.4558 37.4315 92.155 36.2014 91.739C35.8387 91.6213 35.5191 91.3987 35.2828 91.0995C35.0465 90.8002 34.9042 90.4376 34.8739 90.0575C32.8915 74.4021 27.3515 59.9061 20.3601 45.8967C17.1295 39.3172 13.2455 33.0791 8.76681 27.2766C8.6444 27.1603 8.5489 27.0185 8.48698 26.8614C8.42506 26.7043 8.39822 26.5355 8.40833 26.3669C8.41845 26.1983 8.46528 26.034 8.54554 25.8854C8.6258 25.7368 8.73757 25.6075 8.87301 25.5066C9.82879 24.6217 10.7226 23.5862 11.6696 22.6393C12.6165 21.6924 12.9793 21.834 13.7227 22.7366C21.5814 32.1617 27.4135 42.7727 32.0331 54.0829C33.9528 58.6279 35.4777 63.3298 36.5908 68.1364C36.6229 68.5039 36.7881 68.847 37.0554 69.1012C37.3226 69.3555 37.6735 69.5033 38.0422 69.517C38.3959 69.5504 38.7489 69.447 39.0287 69.228C39.3086 69.0091 39.4939 68.6913 39.5466 68.34C41.6175 59.4813 46.5469 52.1801 52.1311 45.233C59.1363 36.4938 67.4536 28.893 76.7869 22.7012C77.0081 22.5596 77.2293 22.4269 77.4417 22.2764C77.6295 22.1784 77.7949 22.0424 77.9275 21.8771C78.06 21.7118 78.1567 21.5207 78.2116 21.3161C78.2665 21.1115 78.2784 20.8977 78.2464 20.6883C78.2144 20.4788 78.1393 20.2783 78.0258 20.0994C77.9087 19.9239 77.7558 19.7751 77.5771 19.6629C77.3984 19.5507 77.198 19.4775 76.9891 19.4483C76.7801 19.419 76.5673 19.4343 76.3647 19.4932C76.1621 19.552 75.9742 19.653 75.8134 19.7896C74.2735 20.8251 72.7248 21.8605 71.2291 22.949C61.3732 30.0773 52.7565 38.7777 45.7238 48.7021C45.5734 48.9057 45.4052 49.0915 45.0513 49.534Z" fill="white"/>
</svg>
