<svg width="100" height="101" viewBox="0 0 100 101" fill="none" xmlns="http://www.w3.org/2000/svg">
<path d="M40.5234 36.3242H81.3944C79.9691 38.9394 78.2075 41.3566 76.1544 43.5142C71.5454 48.3997 59.6046 59.1138 54.4993 63.4605" fill="white"/>
<path d="M84.5943 21.2428C83.839 20.6411 83.1687 19.9399 82.6018 19.1581C80.1555 16.492 77.5887 13.9464 74.4262 12.1099C72.7941 11.1276 70.9467 10.5592 69.0447 10.4542C67.1427 10.3491 65.2439 10.7106 63.5135 11.5072C57.8068 13.8669 52.65 17.3819 48.3677 21.8313C44.6947 25.6036 57.8622 59.3484 54.48 63.3972C53.31 62.4045 29.2015 38.2606 28.1875 37.1119C32.6618 32.1484 43.3262 20.2146 48.1905 15.6128C52.2349 11.7472 57.044 8.77139 62.3081 6.87697C66.7115 5.30282 70.6894 6.33807 74.3624 9.16727C77.4566 11.5866 80.2364 14.3831 82.6373 17.4918C83.5555 18.5843 84.2235 19.8646 84.5943 21.2428Z" fill="white"/>
<path d="M48.9218 64.2207C48.878 61.8784 48.4762 59.5565 47.7305 57.3356C47.6667 57.1441 47.6313 57.0165 47.8227 56.9102C49.567 58.1014 50.8363 59.789 52.3608 61.2071C53.0699 61.9162 53.7789 62.6678 54.488 63.4053C52.7074 64.0529 50.8133 64.3304 48.9218 64.2207Z" fill="white"/>
<path d="M34.6418 43.7736C32.2239 43.4191 29.8627 42.6675 27.388 42.71C27.1611 40.7814 27.7212 38.9661 28.1963 37.1367C30.2456 39.1647 32.309 41.1713 34.344 43.2064C34.4697 43.3804 34.57 43.5714 34.6418 43.7736Z" fill="white"/>
<path d="M23.0961 51.3164C32.8246 51.7915 39.8019 58.7617 40.284 68.5044L33.9024 74.886C33.9024 74.5315 33.8173 74.1769 33.7818 73.8224C33.5945 70.9556 32.6916 68.1815 31.1556 65.7537C29.6196 63.3258 27.4996 61.3217 24.9893 59.9246C22.4296 58.4142 19.5791 57.9108 16.6719 57.6413L23.0961 51.3164Z" fill="#B3BCC0"/>
<path d="M16.7152 57.6523C19.6224 57.9218 22.4729 58.4252 25.0326 59.9356C27.5429 61.3327 29.6629 63.3368 31.1989 65.7647C32.7349 68.1925 33.6378 70.9666 33.8251 73.8334C33.8606 74.1879 33.9102 74.5425 33.9457 74.897C24.6923 75.599 16.0557 66.693 16.7152 57.6523Z" fill="white"/>
<path d="M16.6585 77.1025C14.5312 77.1025 14.5312 77.1025 14.5312 74.6207C14.5312 72.7984 14.5313 72.7984 17.0768 72.8055C18.8282 72.8055 18.8424 72.8055 18.8211 75.4149C18.7857 77.3932 19.0977 77.067 16.6585 77.1025Z" fill="white"/>
<path d="M25.2188 81.3173C25.2188 79.2539 25.2188 79.2539 27.6509 79.2539C29.5157 79.2539 29.5157 79.2539 29.5157 81.7498C29.5157 83.5509 29.5157 83.5509 26.9489 83.5509C25.2188 83.5509 25.2188 83.5509 25.2188 81.3173Z" fill="white"/>
<path d="M18.8439 85.7773C18.8439 87.8478 18.8439 87.8478 16.4117 87.8478C14.5469 87.8478 14.5469 87.8478 14.5469 85.2171C14.5469 83.5508 14.5469 83.5508 17.1137 83.5508C18.8439 83.5508 18.8439 83.5508 18.8439 85.7773Z" fill="white"/>
<path d="M29.547 92.0561C29.547 94.2897 29.547 94.2897 27.1503 94.2897C25.25 94.2897 25.25 94.2897 25.25 91.6874C25.25 89.9927 25.25 89.9785 27.9161 89.9998C29.8306 90.014 29.5186 89.7516 29.547 92.0561Z" fill="white"/>
<path d="M84.5904 21.2433C86.2497 24.9588 85.3421 28.4688 83.697 31.8794C82.9879 33.3614 82.1583 34.7937 81.3854 36.2473L40.5144 36.3253C39.455 35.4361 38.4752 34.4562 37.5859 33.3968C40.9682 29.3551 44.6767 25.6466 48.378 21.8744C52.6522 17.4113 57.8042 13.8816 63.5097 11.5077C65.2376 10.7125 67.1335 10.3511 69.0327 10.4549C70.932 10.5587 72.7772 11.1246 74.4081 12.1033C77.5706 13.9398 80.1374 16.4854 82.5838 19.1515C83.1545 19.9367 83.8296 20.6404 84.5904 21.2433Z" fill="#EDEDED"/>
<path d="M48.9207 64.2228C47.0417 67.6618 44.0139 68.7821 40.2984 68.4772C39.8162 58.7629 32.8389 51.7927 23.0962 51.3176C22.8126 47.595 23.9542 44.5814 27.3507 42.6953C29.8253 42.6953 32.1866 43.4044 34.6045 43.7731C36.4765 44.9643 37.8804 46.6732 39.3978 48.2332C42.2341 51.112 45.2973 53.7214 47.7791 56.9122C47.5876 57.0186 47.6231 57.1462 47.6869 57.3377C48.4471 59.5563 48.8632 61.8782 48.9207 64.2228Z" fill="white"/>
</svg>
