<svg width="100" height="101" viewBox="0 0 100 101" fill="none" xmlns="http://www.w3.org/2000/svg">
<path d="M51.5583 92.1801H50.2723C49.6293 91.6657 48.9863 91.2028 48.3433 90.6305C45.2399 87.557 42.1492 84.4686 39.0715 81.3651C38.9053 81.1787 38.6995 81.0317 38.4692 80.9349C38.239 80.8382 37.99 80.794 37.7405 80.8057C33.156 80.8057 28.5716 80.8057 23.9935 80.8057C21.9231 80.8057 21.0615 79.9505 21.0615 77.8801C21.0615 73.302 21.0615 68.7176 21.0615 64.1331C21.0709 63.8839 21.0257 63.6356 20.9291 63.4057C20.8325 63.1758 20.6867 62.9697 20.5021 62.8021C17.4286 59.7329 14.3659 56.6466 11.3138 53.5431C10.7416 52.9644 10.2722 52.2571 9.75781 51.6142V50.3282C10.2722 49.6852 10.7416 49.0036 11.3138 48.3992C14.3873 45.2915 17.4758 42.203 20.5792 39.1338C20.7639 38.9662 20.9096 38.7602 21.0063 38.5302C21.1029 38.3003 21.1481 38.0521 21.1386 37.8028C21.1386 33.1905 21.1386 28.5803 21.1386 23.9722C21.1386 22.0433 22.026 21.1302 23.9935 21.1302C28.578 21.1302 33.156 21.1302 37.7405 21.1302C38.0183 21.1391 38.2946 21.0861 38.5493 20.9748C38.804 20.8636 39.0307 20.6971 39.2129 20.4873C42.3636 17.3109 45.5249 14.1453 48.697 10.9904C50.4009 9.28646 51.5261 9.29289 53.2557 10.9904C56.4192 14.1539 59.5891 17.3109 62.7398 20.4937C62.9152 20.6897 63.1319 20.8444 63.3743 20.9467C63.6166 21.0489 63.8787 21.0963 64.1415 21.0852C68.7002 21.0852 73.2526 21.0852 77.8113 21.0852C79.946 21.0852 80.7819 21.9147 80.7819 24.0494C80.7819 28.6082 80.7819 33.1605 80.7819 37.7192C80.7713 37.982 80.8189 38.2439 80.9211 38.4862C81.0234 38.7285 81.1778 38.9452 81.3735 39.121C84.5884 42.413 87.8119 45.6858 91.044 48.9393C92.4778 50.3732 92.465 51.6399 91.044 53.093C87.8205 56.3165 84.5948 59.5314 81.367 62.7378C81.1584 62.9197 80.9926 63.1454 80.8815 63.3988C80.7703 63.6523 80.7166 63.9272 80.7241 64.2038C80.7241 68.7626 80.7241 73.3149 80.7241 77.8737C80.7241 79.9441 79.8624 80.7992 77.7985 80.7992C73.2397 80.7992 68.681 80.7992 64.1286 80.7992C63.8514 80.7943 63.5764 80.8492 63.3223 80.9601C63.0682 81.0711 62.841 81.2355 62.6562 81.4422C59.6213 84.5028 56.5693 87.5527 53.5001 90.5919C52.915 91.1642 52.2141 91.6464 51.5583 92.1801ZM67.7743 56.9831C66.9671 57.4725 66.0138 57.6636 65.0802 57.5232C64.2515 57.377 63.487 56.9818 62.8885 56.3902C62.2901 55.7987 61.8861 55.0388 61.7303 54.2118C61.1825 51.9835 60.7533 49.7278 60.4443 47.454C60.1485 45.5251 60.0521 43.5961 59.8013 41.6672C59.7093 41.1314 59.4285 40.6463 59.0099 40.2996C58.5912 39.9529 58.0622 39.7674 57.5187 39.7768C56.9622 39.7485 56.4135 39.9165 55.9681 40.2514C55.5228 40.5862 55.2091 41.0668 55.0818 41.6093C55.0175 41.8665 54.9789 42.1366 54.9339 42.4002C54.4567 45.7401 53.5936 49.0133 52.362 52.1543C51.0053 55.3692 49.1985 58.2369 45.72 59.6129C45.3539 59.7632 45.0384 60.0148 44.8106 60.3383C44.5828 60.6619 44.4521 61.0437 44.434 61.439C44.3755 61.8605 44.431 62.2899 44.595 62.6826C44.7589 63.0753 45.0251 63.4169 45.3659 63.6717C45.7067 63.9265 46.1097 64.0852 46.5327 64.1313C46.9557 64.1774 47.3834 64.1092 47.7711 63.9338C50.7792 62.7188 53.2925 60.5294 54.9082 57.7161C55.5512 56.7195 56.0527 55.665 56.6186 54.649C57.0622 55.6585 57.4544 56.713 57.9881 57.6904C58.8228 59.3581 60.1801 60.707 61.853 61.5313C63.5259 62.3556 65.4226 62.6099 67.2535 62.2556C69.4024 61.7791 71.4393 60.8927 73.2526 59.645C73.5399 59.454 73.7812 59.2015 73.959 58.9057C74.1367 58.61 74.2465 58.2784 74.2804 57.935C74.3142 57.5916 74.2713 57.245 74.1547 56.9202C74.0381 56.5954 73.8507 56.3006 73.6062 56.0572C73.014 55.3653 72.3691 54.7204 71.6773 54.1282C70.2945 52.9494 68.8407 51.8564 67.3243 50.8554C67.0415 50.6707 66.722 50.5496 66.3878 50.5004C66.0537 50.4512 65.7129 50.4751 65.3889 50.5705C65.0649 50.6659 64.7654 50.8304 64.5112 51.0528C64.257 51.2752 64.0541 51.5501 63.9164 51.8585C63.2734 53.1445 63.8779 54.4304 65.2474 55.1892C66.1199 55.7434 66.9633 56.3422 67.7743 56.9831ZM43.6367 49.7045H43.8424C43.2959 45.3258 42.7751 40.9406 42.19 36.5683C42.0725 35.9673 41.7273 35.4349 41.2263 35.0826C40.7254 34.7302 40.1077 34.5852 39.5023 34.6779C38.886 34.7735 38.3297 35.1011 37.9471 35.5936C37.5646 36.0861 37.3849 36.7063 37.4447 37.327C37.5926 38.613 37.7984 39.899 37.972 41.1464C38.4864 44.9207 39.0329 48.6886 38.6857 52.5079C38.5442 54.0639 38.3192 55.62 37.3161 56.8931C36.9919 57.3388 36.5204 57.6554 35.9852 57.7868C35.6095 57.8386 35.2271 57.8066 34.8652 57.6932C34.5034 57.5799 34.171 57.3879 33.8921 57.131C33.6131 56.8742 33.3944 56.5588 33.2516 56.2076C33.1088 55.8563 33.0454 55.4778 33.066 55.0991C33.1822 54.0083 33.4217 52.934 33.7797 51.8971C33.9921 51.3133 33.9779 50.6711 33.7398 50.0972C33.5017 49.5234 33.0571 49.0598 32.4938 48.7979C31.949 48.5484 31.3292 48.5173 30.7622 48.7111C30.1952 48.9049 29.7241 49.3088 29.446 49.8395C28.2943 52.0068 27.9307 54.5067 28.4172 56.9124C29.6068 62.0562 36.551 64.506 40.1967 60.886C41.2468 59.8469 42.0547 58.5889 42.5629 57.2017C43.4631 54.7905 43.5981 52.2507 43.6367 49.7045ZM52.0469 47.5441C51.8526 44.9878 50.7565 42.5837 48.9542 40.7606C48.5119 40.3867 47.9515 40.1815 47.3724 40.1815C46.7933 40.1815 46.2329 40.3867 45.7907 40.7606C45.3404 41.1267 45.0479 41.6518 44.9738 42.2273C44.8996 42.8029 45.0493 43.385 45.392 43.8533C46.4453 45.1019 47.1329 46.6172 47.3789 48.2321C47.507 48.7964 47.8425 49.292 48.3189 49.6207C48.7952 49.9494 49.3777 50.0872 49.9508 50.0067C50.5397 49.9209 51.0772 49.6236 51.463 49.1704C51.8487 48.7172 52.0563 48.1391 52.0469 47.5441Z" fill="white"/>
</svg>
