<svg width="100" height="101" viewBox="0 0 100 101" fill="none" xmlns="http://www.w3.org/2000/svg">
<path d="M94.8882 53.1632C94.3472 57.3519 94.5193 61.7946 93.134 65.6881C89.511 75.8933 81.4862 81.5 71.2974 83.9427C61.1086 86.3854 51.9772 83.2214 43.9689 76.7622C40.6163 74.049 37.4113 71.0981 34.2637 68.18C29.9603 64.2291 24.8208 62.6143 19.0994 62.4422C17.4804 62.4108 15.8651 62.2767 14.2632 62.0405C11.7247 61.7306 9.39111 60.4907 7.71361 58.5604C6.03611 56.63 5.13377 54.1464 5.181 51.5894C5.181 48.95 5.37773 46.2942 5.181 43.6794C4.61541 37.3514 7.45155 32.5971 11.8451 28.5233C18.3207 22.5313 26.0668 19.1378 34.6817 17.605C45.9689 15.6049 57.2725 15.2361 68.3465 18.5804C79.4206 21.9247 88.1175 28.4167 92.7734 39.3514C93.6205 41.5465 94.1504 43.8512 94.3472 46.1958C94.5016 48.4906 94.5208 50.7925 94.4045 53.0895L94.8882 53.1632ZM66.3137 71.8276C72.5023 71.7539 79.2976 68.6718 84.9617 63.1225C92.8471 55.401 93.8635 44.827 87.7404 35.671C84.4854 30.9162 80.1294 27.0186 75.0434 24.3101C67.3711 20.064 59.0184 18.9984 50.4526 19.0066C40.5261 19.0066 30.78 20.0968 21.8454 24.8592C16.5829 27.6544 11.8697 31.0971 9.07454 36.589C6.04987 42.4662 9.05815 48.6385 15.4927 49.95C16.9502 50.2165 18.4292 50.3483 19.9109 50.3435C23.1549 50.329 26.3685 50.9699 29.3588 52.2278C32.3491 53.4856 35.0546 55.3344 37.3129 57.6633C39.0917 59.4257 40.9524 61.0897 42.8295 62.7372C49.0264 68.1472 55.9692 71.8686 66.3137 71.8276Z" fill="#C9D1D3"/>
<path d="M66.3119 71.8249C55.9674 71.8249 49.0246 68.1445 42.8277 62.6935C40.9506 61.0541 39.0899 59.4147 37.3112 57.6196C35.0528 55.2907 32.3474 53.4419 29.357 52.184C26.3667 50.9262 23.1532 50.2853 19.9091 50.2998C18.4287 50.3181 16.9497 50.2001 15.491 49.9473C9.05638 48.6358 6.0481 42.4635 9.07277 36.5863C11.8679 31.0944 16.5812 27.6517 21.8272 24.8565C30.7782 20.0941 40.508 19.0203 50.4345 19.0039C59.0166 19.0039 67.3693 20.0613 75.0252 24.3073C80.1112 27.0159 84.4672 30.9135 87.7223 35.6683C93.8454 44.8242 92.829 55.3983 84.9435 63.1198C79.2958 68.6691 72.5006 71.7511 66.3119 71.8249ZM49.6639 22.1433C47.4754 22.2827 44.7458 22.4056 42.09 22.6433C33.434 23.463 25.2289 25.5532 18.2123 31.0288C15.5319 33.119 13.0401 35.3978 11.8023 38.6847C11.4889 39.384 11.3479 40.1483 11.3912 40.9134C11.4345 41.6784 11.6608 42.4219 12.0512 43.0814C12.4415 43.7408 12.9845 44.2969 13.6344 44.7028C14.2843 45.1088 15.0222 45.3529 15.7861 45.4144C17.1868 45.6244 18.5996 45.7448 20.0157 45.7751C26.7658 45.7246 33.2849 48.2314 38.262 52.7916C41.8359 55.9802 45.3196 59.3 49.123 62.1853C60.6806 70.9478 76.3367 68.8248 84.7222 57.4803C87.5173 53.7015 88.9108 49.4801 87.919 44.7177C86.3698 37.3404 81.5254 32.4223 75.5334 28.3976C67.8365 23.2663 59.0658 22.4712 49.6639 22.1433Z" fill="#EDEDED"/>
<path d="M49.6646 22.1445C59.0665 22.4724 67.8372 23.2675 75.5341 28.3988C81.526 32.3989 86.3704 37.317 87.9196 44.7189C88.9115 49.4813 87.518 53.7355 84.7228 57.4815C76.3374 68.826 60.6813 70.949 49.1236 62.1865C45.3202 59.3012 41.8365 55.9814 38.2627 52.7928C33.2772 48.2249 26.745 45.7174 19.9835 45.7763C18.5674 45.746 17.1547 45.6256 15.7539 45.4156C14.9915 45.3516 14.2555 45.1058 13.6077 44.6988C12.9598 44.2918 12.419 43.7355 12.0304 43.0764C11.6419 42.4173 11.417 41.6747 11.3746 40.9108C11.3321 40.1469 11.4734 39.384 11.7866 38.6859C13.0243 35.4072 15.5162 33.1202 18.1966 31.03C25.2295 25.5544 33.4347 23.4396 42.1152 22.6445C44.7792 22.4068 47.476 22.2839 49.6646 22.1445ZM66.206 55.965C68.1241 55.2765 69.9438 54.924 71.4356 54.0224C74.8947 51.9322 74.78 48.0222 71.3536 45.8254C69.7488 44.8917 67.9168 44.4205 66.0606 44.4639C64.2044 44.5073 62.3964 45.0636 60.837 46.0714C57.9107 48.1452 57.8205 51.8994 60.837 53.7847C62.4436 54.8175 64.3781 55.2601 66.206 55.965Z" fill="white"/>
<path d="M66.2029 55.963C64.375 55.258 62.4405 54.8154 60.8503 53.8236C57.8175 51.9383 57.9076 48.1841 60.8503 46.1103C62.4098 45.1025 64.2177 44.5462 66.074 44.5027C67.9302 44.4593 69.7622 44.9306 71.367 45.8643C74.7933 48.0201 74.9081 51.9301 71.449 54.0613C69.9817 54.9219 68.121 55.2744 66.2029 55.963Z" fill="#C9D1D3"/>
</svg>
