<svg width="100" height="101" viewBox="0 0 100 101" fill="none" xmlns="http://www.w3.org/2000/svg">
<path d="M41.0981 16.2778H40.2903C39.4826 16.2778 38.7637 16.2778 37.9963 16.2778C37.6147 16.2857 37.234 16.2395 36.8654 16.1405C34.9672 15.5589 34.2483 13.4911 34.6441 9.83193C34.6589 8.98484 35.0059 8.17747 35.6102 7.58371C36.2145 6.98995 37.0279 6.65731 37.8751 6.65744C45.9527 6.60898 54.0518 6.60898 62.1724 6.65744C64.0222 6.65744 65.1773 8.03063 65.2904 9.88847C65.2904 10.0823 65.2904 10.2681 65.2904 10.462C65.3792 15.7528 64.9027 16.2455 59.6361 16.3101L41.0981 16.2778Z" fill="#EDEDED"/>
<path d="M68.9916 40.4535C69.1774 38.3856 64.1451 27.8686 64.1451 27.8686C62.3195 24.2499 61.019 20.4131 59.5247 16.657C54.0562 16.657 48.5877 16.657 43.1272 16.657C48.5877 16.657 54.0562 16.657 59.5247 16.657C59.5733 16.5609 59.6139 16.4609 59.6459 16.3581L41.1402 16.2773H40.3324C40.4659 16.9063 40.3532 17.5626 40.0174 18.111C39.2096 20.0576 38.4503 22.0124 37.6668 23.9591L31.8106 38.3291C28.725 46.0028 30.1224 54.0238 29.9931 61.9317C29.9204 62.0125 29.8316 62.1175 29.9931 61.9317C30.4778 62.6264 29.9043 81.3663 29.8639 82.1256C29.2338 91.8914 32.1175 94.137 41.5844 93.7735C48.4665 93.515 55.3728 93.7331 62.2711 93.725C67.2711 93.725 70.2113 90.7525 70.2113 85.7201C70.2113 75.3809 70.2113 65.0335 70.2113 54.6942C70.2436 49.9042 70.2759 45.1304 68.9916 40.4535ZM32.1498 59.9689L32.4729 59.6458C32.3841 59.7669 32.2629 59.8639 32.1498 59.9689ZM42.0529 16.6812C42.3114 16.6812 42.5699 16.6812 42.8607 16.6328C42.5928 16.6664 42.3229 16.6825 42.0529 16.6812Z" fill="white"/>
</svg>
