<svg width="100" height="101" viewBox="0 0 100 101" fill="none" xmlns="http://www.w3.org/2000/svg">
<path d="M54.1674 91.3569L53.631 91.4063H53.3558C46.1216 92.1968 39.4096 90.877 33.594 86.3106C29.3553 82.9578 26.2447 78.3877 24.6801 73.2147C23.1156 68.0416 23.1722 62.5136 24.8424 57.3737C26.6421 51.8899 28.6183 46.4836 29.6558 40.7668C30.4604 36.3698 30.7145 31.9093 31.4061 27.4982C32.1825 22.5154 33.594 17.8291 37.3699 14.1732C40.1489 11.5555 43.6597 9.84689 47.4343 9.27508C48.1401 9.27508 48.8459 9.21862 49.594 9.23273C55.6566 9.32449 60.35 11.8653 63.6036 16.9963C64.0553 17.7021 64.3094 18.5843 64.9376 19.1701C65.5163 20.9204 66.0927 22.6684 66.6667 24.414C67.2078 27.1101 67.7466 29.8038 68.2829 32.4951C69.3063 37.7602 70.1956 43.0818 71.8118 48.1704C72.3895 50.444 73.2032 52.6509 74.2397 54.7553C74.275 54.9035 74.3103 55.0517 74.522 55.0094C74.3456 55.5952 74.7126 56.061 74.889 56.555C77.0966 62.6127 76.9677 69.2756 74.5274 75.2432C72.0871 81.2109 67.5105 86.0551 61.691 88.8302C59.2648 89.8986 56.7466 90.7443 54.1674 91.3569ZM72.0589 66.2454C72.1843 63.2951 71.6865 60.3516 70.5979 57.6067C67.5882 50.1374 65.429 42.3531 64.1612 34.4007C63.4554 30.2084 62.7497 25.9879 61.1969 21.9791C58.9879 16.3328 54.1392 12.6063 47.399 13.792C42.4515 14.7237 39.1273 17.5468 37.2641 22.1555C35.4008 26.7642 35.295 31.8035 34.688 36.6874C33.8957 43.0223 32.3802 49.2455 30.171 55.2352C28.6254 59.4699 27.4467 63.6552 28.1101 68.2498C29.1618 75.5687 32.6977 81.1866 39.1555 84.7649C43.856 87.3622 48.9235 87.7433 54.2027 86.7835C64.4576 84.9061 72.0589 75.9498 72.0589 66.2454Z" fill="#EDEDED"/>
<path d="M72.0673 66.2422C72.0673 75.9255 64.4661 84.8818 54.2112 86.7591C48.9319 87.719 43.8645 87.3379 39.164 84.7406C32.7061 81.1623 29.1702 75.5655 28.1186 68.2254C27.4552 63.6308 28.6338 59.4385 30.1795 55.2109C32.3886 49.2211 33.9042 42.9979 34.6964 36.6631C35.3034 31.7791 35.4022 26.7822 37.2725 22.1312C39.1428 17.4801 42.46 14.7205 47.4428 13.8101C54.2112 12.6244 59.0316 16.3509 61.2407 21.9971C62.8075 26.0059 63.4921 30.2264 64.205 34.4187C65.4727 42.3711 67.6319 50.1555 70.6416 57.6247C71.7153 60.3656 72.201 63.3015 72.0673 66.2422ZM38.7123 62.8686C38.4616 65.6243 39.0891 68.3888 40.505 70.7662C43.935 76.5818 50.4705 78.4804 55.7074 74.0834C59.0246 71.3026 60.2738 67.4138 60.3726 63.1438C60.2103 59.4103 59.0598 56.0296 56.3991 53.3759C54.0912 51.0821 51.2328 49.847 47.9297 50.5528C42.5023 51.7667 38.7405 56.8413 38.7123 62.8898V62.8686Z" fill="white"/>
<path d="M38.7109 62.8931C38.7109 56.8446 42.4727 51.77 47.886 50.5985C51.2032 49.8927 54.0616 51.1066 56.3554 53.4216C59.0161 56.0753 60.1665 59.4559 60.3289 63.1895C59.6231 63.0766 59.5243 63.62 59.3902 64.0858C58.6787 66.5112 57.191 68.636 55.1555 70.1344C54.1325 70.9667 52.9347 71.5571 51.6514 71.8615C50.3681 72.1658 49.0327 72.1761 47.7449 71.8917C43.6443 70.9672 41.1812 68.2711 39.6567 64.5093C39.4238 63.9447 39.572 63.1119 38.7109 62.8931Z" fill="#B3BCC0"/>
<path d="M38.7093 62.8945C39.5703 63.1133 39.415 63.9461 39.655 64.5178C41.1795 68.2796 43.6426 70.9757 47.7432 71.9002C49.0406 72.1886 50.3867 72.1777 51.6793 71.8683C52.9719 71.5589 54.177 70.9592 55.2032 70.1146C57.2388 68.6163 58.7264 66.4914 59.4379 64.0661C59.572 63.6003 59.6708 63.0569 60.3766 63.1698C60.2778 67.4044 59.0286 71.3286 55.7114 74.1093C50.4745 78.5063 43.9391 76.6078 40.509 70.7922C39.0907 68.4155 38.4607 65.651 38.7093 62.8945Z" fill="#B3BCC0"/>
</svg>
