<svg width="100" height="101" viewBox="0 0 100 101" fill="none" xmlns="http://www.w3.org/2000/svg">
<path d="M8.46094 40.7008C8.58484 34.2227 10.8681 29.5588 15.8948 26.3021C16.6153 25.8028 17.1381 25.067 17.3728 24.2224C19.0454 17.3018 25.727 13.8503 31.7626 15.8947C32.1387 15.9381 32.5198 15.8909 32.8739 15.7569C33.228 15.623 33.5449 15.4062 33.7981 15.1247C42.648 3.61989 57.4803 3.61989 66.2417 15.1247C66.5288 15.4134 66.8785 15.6322 67.2636 15.7642C67.6488 15.8961 68.0592 15.9378 68.463 15.8858C74.8438 14.1158 80.5519 17.2398 82.3838 23.6294C82.5353 24.2594 82.8094 24.8532 83.1906 25.3771C83.5717 25.901 84.0524 26.3447 84.6052 26.6826C86.5442 27.8928 88.1698 29.5442 89.3494 31.502C90.529 33.4598 91.2293 35.6687 91.393 37.9485C91.8822 42.4187 91.1544 46.938 89.2867 51.0286C86.6318 56.7014 81.844 58.9935 75.835 58.9138C75.0335 58.8667 74.2324 59.0115 73.4981 59.3363C72.7639 59.6611 72.1178 60.1564 71.6136 60.7812C64.7107 68.3832 61.7902 77.5959 61.0822 87.5785C61.0493 88.8636 60.6333 90.1095 59.8874 91.1565C59.1416 92.2035 58.1 93.0038 56.8962 93.4548C56.1829 93.7473 55.4193 93.8976 54.6484 93.8973C51.7368 93.9504 48.8252 93.9416 45.9136 93.8973C41.9931 93.8973 39.3647 91.4725 39.0549 87.5697C38.3204 78.9588 36.1876 70.8346 30.8776 63.7636C30.2493 62.8786 29.5325 62.1175 28.8864 61.2767C28.3242 60.4728 27.5607 59.8305 26.6724 59.4143C25.784 58.9981 24.8019 58.8225 23.8243 58.905C16.0895 59.0731 10.6823 54.2765 9.17778 46.2231C8.81493 44.2054 8.64678 42.1522 8.46094 40.7008ZM65.3921 54.8606L61.5955 49.0197C60.4627 49.6126 59.4627 50.4976 58.3476 50.6569C54.5422 51.2144 53.9846 53.5508 54.3121 56.8518C54.5599 59.4094 54.3121 62.0024 54.3121 64.5866L54.9758 64.8521L65.3921 54.8606ZM45.4534 65.1618C45.5596 63.8963 45.6658 63.2326 45.6746 62.5688C45.6746 60.0112 45.5596 57.4536 45.6746 54.9137C45.7985 52.8428 45.3295 51.6304 43.0197 51.1525C41.4001 50.8162 39.639 48.9666 38.4708 49.3825C37.1522 49.8339 36.5239 52.1171 35.4088 53.4446C34.5238 54.48 34.7539 55.0995 35.63 55.9226C38.1257 58.2412 40.5505 60.6219 43.0108 63.0025C43.7365 63.56 44.3825 64.153 45.4534 65.1618Z" fill="white"/>
</svg>
