<svg width="100" height="100" viewBox="0 0 100 100" fill="none" xmlns="http://www.w3.org/2000/svg">
<path d="M25.753 93.7368C25.2065 93.7844 24.66 93.6439 24.2043 93.3385C17.7616 90.1054 11.313 86.8841 4.85847 83.6745C4.05557 83.3133 3.39996 82.6889 3 81.9045V56.2399C3.1239 56.116 3.23895 55.9833 3.354 55.8594C4.48678 56.3638 5.62841 56.8417 6.73464 57.3904C11.5313 59.771 16.319 62.1782 21.1068 64.5676C21.4254 64.7269 21.7706 64.842 22.098 64.9836C23.1404 65.8585 24.4061 66.4255 25.753 66.6208V93.7368Z" fill="white"/>
<path d="M59.9485 90.8503C59.0016 90.4874 58.5768 89.6113 58.0015 88.8856C54.8598 84.9474 51.7447 80.9915 48.6118 77.0356C48.5234 76.9558 48.4253 76.8875 48.3198 76.8321C47.5551 75.6048 46.6653 74.46 45.6648 73.416C44.0011 71.416 43.9568 71.1505 45.0719 68.8318C46.187 66.5132 47.2313 64.1768 48.3021 61.8493C49.6473 59.1943 50.957 56.4597 52.0987 53.6986C52.904 52.0259 53.7448 50.3622 54.5058 48.6718C54.7165 47.9825 55.1529 47.384 55.7448 46.9727C56.8157 48.2028 57.7714 49.5214 58.7626 50.8046C60.9485 53.6189 63.1876 56.4066 65.4 59.1678C66.4481 60.6423 67.5954 62.0438 68.8338 63.3626C69.4685 64.4503 70.2686 65.4326 71.2055 66.2742C70.872 67.464 70.3809 68.604 69.7453 69.6637C67.347 74.9028 64.8513 80.1065 62.4088 85.328C61.5946 87.1599 60.7804 89.0095 59.9485 90.8503Z" fill="white"/>
<path d="M26.1297 44.2369C25.693 43.4403 25.5079 42.5301 25.5987 41.6262C25.5633 34.2808 25.5633 26.9354 25.5987 19.59C25.463 18.7867 25.6438 17.962 26.1031 17.2891C28.9263 18.6785 31.7582 20.0679 34.5725 21.4662C38.1124 23.2362 41.6524 25.0061 45.1923 26.7761C46.0952 27.5004 47.1782 27.9654 48.3252 28.1213C48.3252 37.1541 48.3252 46.1927 48.3252 55.2373C48.1747 55.4143 47.98 55.3789 47.7853 55.3435C47.5729 55.0072 47.2012 54.9275 46.9003 54.7682L27.2979 44.936C26.9262 44.7236 26.5191 44.4758 26.1297 44.2369Z" fill="white"/>
<path d="M59.9453 90.852C60.7772 89.0113 61.5914 87.1616 62.441 85.3297C64.8835 80.1083 67.3792 74.9046 69.7775 69.6655C70.4131 68.6057 70.9042 67.4658 71.2377 66.276C71.7344 66.4055 72.2468 66.4651 72.7599 66.453C74.5299 66.453 76.3795 66.453 78.1937 66.2848C80.3 66.1167 82.424 66.1786 84.5391 66.1432C88.4065 66.0813 92.2827 65.7892 96.159 65.9131C96.1059 67.2052 95.3713 68.2583 94.8669 69.3646C92.4155 74.6745 89.9109 79.9844 87.433 85.2235C86.8931 86.3652 86.3622 87.5245 85.8577 88.6838C85.6464 89.2129 85.2794 89.6654 84.8053 89.9814C84.3313 90.2975 83.7724 90.4622 83.2028 90.4538C80.5478 90.6308 77.8928 90.4538 75.2379 90.6573C72.9104 90.8343 70.574 90.5954 68.2642 90.8343C65.6889 91.091 63.1224 90.8343 60.556 90.9759C60.3259 91.0202 60.0958 91.0467 59.9453 90.852Z" fill="#EDEDED"/>
<path d="M48.3349 61.8497C47.264 64.1772 46.2109 66.5224 45.1047 68.8322C43.9984 71.1421 44.0338 71.4164 45.6976 73.4165C46.6981 74.4605 47.5878 75.6052 48.3526 76.8325C48.3526 78.2219 48.3526 79.6114 48.3526 81.0008C48.3904 81.4999 48.2773 81.9989 48.028 82.4329C47.7786 82.8669 47.4045 83.2159 46.9543 83.4345L26.7058 93.5411C26.4163 93.7066 26.0812 93.7749 25.75 93.7358V66.6375C26.3529 66.5665 26.933 66.3641 27.4492 66.0445L46.1489 56.6991C46.7419 56.407 47.3525 56.1415 47.9189 55.8672C48.1697 56.3784 48.2884 56.9444 48.2641 57.5133L48.3349 61.8497Z" fill="#EDEDED"/>
<path d="M48.3047 55.1951C48.3047 46.1564 48.3047 37.1178 48.3047 28.0791C48.8185 28.0813 49.3233 27.9436 49.7649 27.6809L70.509 17.2734C70.8984 17.5389 70.8718 17.946 70.8718 18.3354C70.8718 26.5245 70.8718 34.7077 70.8718 42.8849C70.8827 43.2948 70.7727 43.6989 70.5556 44.0467C70.3384 44.3945 70.0236 44.6706 69.6506 44.8408C68.8541 45.2744 68.031 45.6727 67.2257 46.0886C66.5164 46.33 65.7713 46.4496 65.0221 46.4426C63.0043 46.4426 60.9777 46.3452 58.9688 46.4426C57.8979 46.5134 56.7386 46.239 55.7474 46.9293C55.1555 47.3407 54.7191 47.9391 54.5084 48.6285C53.7473 50.3188 52.9066 51.9826 52.1013 53.6552L50.703 54.2836C49.9331 54.673 49.2516 55.2836 48.3047 55.1951ZM64.5707 33.5129C64.7745 33.5226 64.9781 33.4905 65.169 33.4186C65.3599 33.3466 65.5341 33.2364 65.6808 33.0946C65.8276 32.9529 65.9437 32.7826 66.0222 32.5943C66.1007 32.406 66.1398 32.2036 66.1372 31.9996C66.1121 31.6051 65.9481 31.2323 65.6744 30.9471C65.4006 30.662 65.0347 30.4831 64.6415 30.442C64.4309 30.4219 64.2184 30.4454 64.0173 30.511C63.8161 30.5767 63.6307 30.6831 63.4725 30.8236C63.3143 30.9641 63.1867 31.1357 63.0978 31.3277C63.0088 31.5196 62.9604 31.7279 62.9555 31.9394C62.9507 32.151 62.9894 32.3612 63.0694 32.5571C63.1494 32.753 63.2689 32.9303 63.4205 33.0779C63.572 33.2256 63.7524 33.3404 63.9503 33.4152C64.1482 33.4901 64.3594 33.5233 64.5707 33.5129V33.5129ZM64.5707 39.3361C64.7715 39.3518 64.9733 39.3258 65.1634 39.2597C65.3536 39.1937 65.5281 39.089 65.6759 38.9523C65.8237 38.8156 65.9416 38.6498 66.0223 38.4653C66.1029 38.2808 66.1446 38.0817 66.1446 37.8803C66.1446 37.679 66.1029 37.4799 66.0223 37.2954C65.9416 37.1109 65.8237 36.9451 65.6759 36.8084C65.5281 36.6717 65.3536 36.567 65.1634 36.5009C64.9733 36.4349 64.7715 36.4089 64.5707 36.4245C64.1687 36.454 63.79 36.6248 63.5017 36.9066C63.2134 37.1884 63.0341 37.5631 62.9955 37.9644C63 38.1634 63.0463 38.3591 63.1315 38.5389C63.2168 38.7187 63.3389 38.8785 63.4901 39.008C63.6412 39.1374 63.8179 39.2335 64.0087 39.2901C64.1995 39.3466 64.4 39.3623 64.5973 39.3361H64.5707ZM60.1458 40.0707C60.175 39.8668 60.16 39.659 60.1018 39.4615C60.0435 39.264 59.9433 39.0813 59.8081 38.9259C59.6729 38.7706 59.5058 38.6462 59.3182 38.5612C59.1306 38.4762 58.9269 38.4326 58.721 38.4335C58.339 38.4926 57.9869 38.6751 57.7184 38.9532C57.45 39.2312 57.2799 39.5895 57.2342 39.9733C57.217 40.1694 57.2408 40.367 57.3042 40.5533C57.3676 40.7397 57.4692 40.9108 57.6024 41.0557C57.7357 41.2006 57.8977 41.3161 58.0781 41.3949C58.2585 41.4737 58.4533 41.514 58.6502 41.5132C58.8449 41.5257 59.0401 41.4972 59.2231 41.4298C59.4062 41.3623 59.5731 41.2572 59.7132 41.1213C59.8532 40.9855 59.9632 40.8218 60.0362 40.6409C60.1092 40.4599 60.1435 40.2657 60.137 40.0707H60.1458Z" fill="#EDEDED"/>
<path d="M55.7734 46.9728C56.7646 46.2825 57.924 46.5568 58.9948 46.486C61.0037 46.3444 63.0303 46.4152 65.0481 46.486C65.7973 46.4931 66.5424 46.3734 67.2517 46.132C68.5725 46.4176 69.9346 46.4566 71.2696 46.2471C73.2077 46.0524 75.1281 46.194 77.0574 46.1055C79.1105 48.7427 81.1755 51.3741 83.2523 53.9995C84.8452 56.0439 86.5002 58.0351 88.04 60.1148C88.2675 60.3818 88.4105 60.7102 88.4509 61.0586C88.4913 61.4069 88.4274 61.7595 88.2671 62.0714C88.1069 62.3833 87.8576 62.6407 87.5509 62.8107C87.2442 62.9807 86.8939 63.0558 86.5444 63.0264C84.6446 63.0972 82.7449 63.1444 80.8451 63.168C76.8538 63.168 72.8802 63.5043 68.8889 63.407C67.6505 62.0882 66.5033 60.6867 65.4552 59.2121C63.2073 56.451 61.0303 53.6633 58.8178 50.849C57.8001 49.5215 56.8443 48.2029 55.7734 46.9728Z" fill="#EDEDED"/>
<path d="M45.222 26.777C41.682 25.007 38.1421 23.2371 34.6021 21.4671C31.7879 20.0688 28.9559 18.6794 26.1328 17.29C26.2213 16.7059 26.7258 16.5731 27.1505 16.405L43.8856 8.02415C44.2927 7.82061 44.6733 7.58166 45.0715 7.35156C45.2397 7.73211 45.6202 7.80291 45.9565 7.96221L58.7888 14.3872C59.3818 14.6792 59.9924 14.9624 60.5588 15.2722C62.0987 16.1572 62.1606 17.6705 60.7004 18.644C60.3698 18.8719 60.0271 19.0816 59.6738 19.2723C55.1338 21.5467 50.5761 23.8123 46.0362 26.0956C45.7087 26.2726 45.2751 26.3522 45.222 26.777Z" fill="#EDEDED"/>
<path d="M22.0956 64.9985C21.7681 64.8569 21.423 64.7419 21.1044 64.5826C16.3166 62.1931 11.5288 59.7859 6.73221 57.4053C5.62598 56.8566 4.48435 56.3788 3.35156 55.8743C3.55511 55.1221 4.23655 54.9185 4.82064 54.6265C10.6321 51.6765 16.4553 48.762 22.2903 45.8828C22.5758 46.0698 22.8712 46.2412 23.1753 46.3961C28.0161 48.821 32.857 51.2635 37.7156 53.653C38.1301 53.8034 38.4912 54.0723 38.754 54.4264C39.0167 54.7804 39.1696 55.2039 39.1935 55.6442C39.1935 56.5292 38.4678 57.0159 37.689 57.4142C32.8393 59.8213 27.9955 62.2403 23.1576 64.6711C22.8431 64.8815 22.4739 64.9954 22.0956 64.9985Z" fill="#EDEDED"/>
<path d="M22.1016 65.0011C22.4687 64.9886 22.8247 64.8719 23.1281 64.6648C27.9661 62.2399 32.8099 59.821 37.6596 57.4079C38.4384 57.0185 39.1641 56.5229 39.1641 55.6379C39.1402 55.1977 38.9873 54.7742 38.7245 54.4201C38.4618 54.0661 38.1007 53.7971 37.6862 53.6467C32.8276 51.2573 27.9513 48.8147 23.1458 46.3898C22.8418 46.2349 22.5463 46.0635 22.2609 45.8765C23.4737 45.1822 24.7625 44.6299 26.1017 44.2305C26.4911 44.4694 26.8628 44.7172 27.2699 44.9208L46.8369 54.7176C47.1555 54.8769 47.5272 54.9565 47.7219 55.2928C47.7839 55.4875 47.8458 55.6733 47.9166 55.8592C47.306 56.1335 46.6953 56.399 46.1466 56.6911L27.4557 66.0454C26.9395 66.3649 26.3595 66.5673 25.7566 66.6383C24.4097 66.443 23.144 65.8761 22.1016 65.0011Z" fill="#C9D1D3"/>
<path d="M68.8672 63.3635C72.8496 63.4609 76.8321 63.1688 80.8233 63.1246C82.7172 63.1246 84.617 63.0774 86.5227 62.983C86.8699 63.0066 87.2164 62.9273 87.5188 62.755C87.8212 62.5827 88.066 62.3251 88.2228 62.0144C88.3796 61.7037 88.4413 61.3536 88.4002 61.0081C88.3591 60.6625 88.217 60.3367 87.9917 60.0714C86.4519 57.9917 84.7969 56.0005 83.204 53.9561C81.139 51.3366 79.074 48.7052 77.0091 46.062C77.3985 46.009 77.779 45.9559 78.1684 45.8851C80.0711 45.5665 81.3278 46.4514 82.4517 47.9294C85.4518 51.8764 88.567 55.7527 91.6467 59.6554C92.9123 61.2661 94.2044 62.8502 95.4787 64.4521C95.8626 64.8437 96.0866 65.3643 96.1071 65.9123C92.2308 65.7884 88.3546 66.0804 84.4872 66.1424C82.3721 66.1424 80.2481 66.1424 78.1418 66.284C76.3276 66.4344 74.5223 66.4256 72.708 66.4521C72.1949 66.4643 71.6825 66.4047 71.1859 66.2751C70.2678 65.4296 69.4857 64.4475 68.8672 63.3635V63.3635Z" fill="#C9D1D3"/>
<path d="M45.2181 26.7795C45.2712 26.3104 45.7049 26.275 46.0058 26.1157C50.5458 23.8325 55.1034 21.5669 59.67 19.2748C60.0476 19.0835 60.414 18.8708 60.7673 18.6376C62.2276 17.6641 62.1656 16.1242 60.6257 15.2658C60.0505 14.9472 59.4399 14.664 58.8558 14.3808L45.9084 7.92042C45.5898 7.76112 45.2093 7.69032 45.0234 7.30978C46.1474 6.88499 47.0678 6 48.3775 6C48.7974 6.00531 49.2112 6.10195 49.59 6.2832L69.4579 16.2216C69.9181 16.4517 70.3429 16.6906 70.5287 17.257L49.7847 27.6822C49.3431 27.9449 48.8383 28.0826 48.3244 28.0804C47.1912 27.9328 46.1184 27.4835 45.2181 26.7795V26.7795Z" fill="#C9D1D3"/>
<path d="M64.5687 33.5154C64.3574 33.5258 64.1462 33.4925 63.9483 33.4177C63.7504 33.3428 63.57 33.228 63.4185 33.0804C63.2669 32.9327 63.1474 32.7554 63.0674 32.5596C62.9874 32.3637 62.9487 32.1534 62.9535 31.9419C62.9584 31.7304 63.0068 31.5221 63.0958 31.3301C63.1847 31.1381 63.3122 30.9665 63.4704 30.826C63.6286 30.6855 63.8141 30.5791 64.0152 30.5135C64.2164 30.4478 64.4289 30.4244 64.6395 30.4445C65.0327 30.4855 65.3986 30.6645 65.6724 30.9496C65.9461 31.2347 66.1101 31.6076 66.1351 32.0021C66.1378 32.2061 66.0987 32.4084 66.0202 32.5968C65.9417 32.7851 65.8256 32.9553 65.6788 33.0971C65.5321 33.2388 65.3579 33.3491 65.167 33.421C64.9761 33.4929 64.7725 33.5251 64.5687 33.5154V33.5154Z" fill="#B3BCC0"/>
<path d="M64.6034 39.334C64.4103 39.3523 64.2155 39.3306 64.031 39.2705C63.8466 39.2103 63.6765 39.1129 63.5313 38.9843C63.3861 38.8557 63.2689 38.6986 63.1869 38.5228C63.1049 38.347 63.0599 38.1562 63.0547 37.9623C63.0933 37.561 63.2726 37.1863 63.5609 36.9044C63.8492 36.6226 64.2279 36.4519 64.63 36.4224C64.8307 36.4067 65.0325 36.4327 65.2227 36.4988C65.4129 36.5649 65.5873 36.6695 65.7351 36.8063C65.8829 36.943 66.0008 37.1088 66.0815 37.2932C66.1621 37.4777 66.2038 37.6769 66.2038 37.8782C66.2038 38.0795 66.1621 38.2787 66.0815 38.4632C66.0008 38.6476 65.8829 38.8134 65.7351 38.9501C65.5873 39.0869 65.4129 39.1915 65.2227 39.2576C65.0325 39.3236 64.8307 39.3497 64.63 39.334H64.6034Z" fill="#B3BCC0"/>
<path d="M60.1358 40.0708C60.1425 40.2666 60.1079 40.4616 60.0344 40.6432C59.9609 40.8248 59.85 40.989 59.709 41.125C59.568 41.261 59.4 41.3658 59.2159 41.4327C59.0317 41.4996 58.8356 41.5271 58.6402 41.5134C58.4433 41.5141 58.2485 41.4738 58.0681 41.395C57.8877 41.3163 57.7257 41.2007 57.5924 41.0558C57.4592 40.9109 57.3576 40.7398 57.2942 40.5535C57.2308 40.3671 57.207 40.1696 57.2242 39.9735C57.2699 39.5897 57.44 39.2314 57.7084 38.9533C57.9769 38.6753 58.329 38.4927 58.711 38.4336C58.9169 38.4328 59.1206 38.4764 59.3082 38.5613C59.4958 38.6463 59.6629 38.7707 59.7981 38.9261C59.9333 39.0814 60.0335 39.2641 60.0917 39.4617C60.15 39.6592 60.165 39.867 60.1358 40.0708V40.0708Z" fill="#B3BCC0"/>
</svg>
