<svg width="100" height="101" viewBox="0 0 100 101" fill="none" xmlns="http://www.w3.org/2000/svg">
<path d="M51.4164 88.3227C51.4164 89.4348 51.3731 90.5469 51.4164 91.659C51.4765 92.0894 51.431 92.5279 51.2838 92.9368C51.1366 93.3457 50.8921 93.7126 50.5715 94.006H49.4089C49.0723 93.732 48.809 93.3788 48.6426 92.978C48.4763 92.5772 48.412 92.1413 48.4556 91.7095C48.533 90.5062 48.5113 89.2986 48.3906 88.0988C48.6642 88.1473 48.946 88.1159 49.2022 88.0083C49.4583 87.9007 49.678 87.7215 49.8349 87.4922C50.4199 87.615 50.7376 88.3443 51.4164 88.3227Z" fill="#B3BCC0"/>
<path d="M68.0527 66.0082C69.0619 65.9264 70.0771 65.9604 71.0785 66.1094C71.2205 66.1119 71.3605 66.1434 71.4899 66.2018C71.6193 66.2602 71.7356 66.3443 71.8315 66.449C71.9274 66.5537 72.001 66.6768 72.0479 66.8108C72.0947 66.9449 72.1138 67.087 72.104 67.2287C72.104 71.1355 72.6312 75.0857 71.223 78.8914C70.2428 81.5281 68.5022 83.8146 66.2217 85.4614C63.9411 87.1082 61.2232 88.0412 58.412 88.1422L56.4622 88.2216C56.1775 87.7517 55.9839 87.2323 55.8917 86.6907C55.8917 83.8021 55.6895 80.9135 56.1156 78.0249C56.5619 75.2676 57.8089 72.7023 59.7014 70.648C61.594 68.5937 64.0486 67.141 66.7601 66.4704C67.1861 66.3982 67.7711 66.5571 68.0527 66.0082Z" fill="white"/>
<path d="M49.795 87.5184C49.6381 87.7477 49.4184 87.9269 49.1623 88.0345C48.9061 88.1421 48.6243 88.1735 48.3507 88.125C47.5177 88.2825 46.6657 88.3142 45.8232 88.2189C45.7438 87.8578 45.4405 87.9589 45.1949 87.9011C39.4177 86.5218 35.6914 83.005 34.1532 77.2711C33.4311 74.6713 33.6766 71.9777 33.6477 69.3274C33.534 68.1913 33.7391 67.046 34.2399 66.02C40.0965 65.8611 44.7833 67.9914 47.9608 73.0826C48.0619 73.2487 48.1269 73.4365 48.2135 73.6098C48.2106 73.7337 48.2467 73.8554 48.3167 73.9578C48.3866 74.0602 48.4869 74.138 48.6035 74.1803C49.1162 75.6246 49.8167 77.0689 49.795 78.6865C49.7734 79.0448 49.7734 79.4042 49.795 79.7625C50.0972 82.339 50.0972 84.9419 49.795 87.5184Z" fill="white"/>
<path d="M66.0921 46.7403C68.9807 46.5164 69.2623 46.7403 69.2262 49.6289C69.2262 52.0048 69.4429 54.4023 68.8363 56.7565C68.181 59.2406 66.77 61.4597 64.7983 63.1066C62.8266 64.7536 60.3917 65.747 57.8307 65.9495L56.473 66.0578C56.3864 65.574 55.8881 65.2635 55.8953 64.7363C55.8953 62.1005 55.6065 59.4285 56.1625 56.836C56.549 54.7429 57.4761 52.7874 58.8518 51.1633C60.2275 49.5393 62.0041 48.3033 64.0051 47.578C64.7272 47.3036 65.5649 47.4263 66.0921 46.7403Z" fill="white"/>
<path d="M37.2272 46.7432C40.317 46.7052 43.316 47.7878 45.6691 49.7906C46.5233 50.5514 47.2801 51.4149 47.9223 52.3615C48.0811 52.5926 48.1533 52.9103 48.4928 52.9825C49.1338 54.4731 49.5757 56.0416 49.8071 57.6476C49.764 58.182 49.8278 58.7197 49.9948 59.2292C49.6482 59.2725 49.5832 59.5108 49.6049 59.7924C49.7132 61.5039 49.3593 63.2299 49.7998 64.9269V65.5046C49.4532 65.9091 48.9116 65.8729 48.4783 66.0896L47.034 66.0463C46.9907 65.7502 46.7596 65.7574 46.5285 65.7068C41.5457 64.5153 38.3393 61.4606 37.0467 56.4994C36.4328 54.1452 36.6495 51.7116 36.635 49.2779C36.6278 48.4041 36.5628 47.4942 37.2272 46.7432Z" fill="white"/>
<path d="M52.9642 31.9571C52.9642 32.4121 52.2998 32.6071 52.5381 33.1342C51.816 33.2064 51.686 33.8564 51.361 34.3113C50.4511 34.8818 49.5412 35.2212 48.6169 34.3113H48.4724C48.393 34.0514 48.3352 33.7842 48.0103 33.7119C47.9538 33.5019 47.8547 33.3058 47.7193 33.1356C47.5839 32.9654 47.415 32.8249 47.2231 32.7226C46.5732 31.3794 45.6344 30.2023 45.0567 28.8158C41.7348 20.9443 43.0419 13.8022 48.4219 7.30287C49.4257 6.09688 50.5883 6.14743 51.5344 7.37509C52.1223 7.94715 52.6105 8.61349 52.9787 9.34656C52.4967 9.87767 52.0909 10.4731 51.7727 11.1158C49.8633 14.5511 49.0328 18.4818 49.3896 22.3958C49.6723 25.8526 50.9099 29.1627 52.9642 31.9571Z" fill="#EDEDED"/>
<path d="M65.3011 29.0755C65.7808 28.9919 66.2727 29.0091 66.7454 29.126C67.2581 29.2488 67.6192 29.5593 67.6119 30.0576C67.5614 33.1051 68.0886 36.2175 66.9548 39.1711C65.2505 43.634 61.9792 46.1399 57.2274 46.6959L56.2597 46.7898C56.0845 46.4418 55.9628 46.0693 55.8987 45.6849C55.8987 43.1791 55.5809 40.6299 56.1659 38.1746C56.591 36.0164 57.6445 34.0321 59.1941 32.471C60.7436 30.9099 62.7201 29.8416 64.875 29.4004C65.0989 29.3499 65.2577 29.2993 65.3011 29.0755Z" fill="white"/>
<path d="M48.488 34.305H48.6325C48.5805 34.8045 48.6812 35.3081 48.9213 35.7493C49.4394 36.7691 49.7394 37.8857 49.8023 39.0278C49.8023 39.4467 49.8673 39.8727 49.889 40.2844C50.1069 42.2857 50.0754 44.3063 49.7951 46.2999C49.5568 46.8993 48.8347 46.5382 48.4591 46.8993L47.6287 46.8271C47.5781 46.6032 47.412 46.5599 47.2026 46.5093C45.3299 46.1081 43.5913 45.2336 42.1526 43.9694C40.7139 42.7052 39.6232 41.0934 38.9845 39.2878C37.9952 36.7675 38.2624 34.1028 38.2046 31.4741C38.1369 30.6645 38.2709 29.8507 38.5946 29.1055C41.6699 29.1486 44.6043 30.4018 46.7621 32.5935C46.8848 32.7234 47.0148 32.9112 47.2459 32.7596C47.2188 32.8779 47.2187 33.0009 47.2456 33.1193C47.2725 33.2378 47.3258 33.3486 47.4014 33.4437C47.477 33.5387 47.5731 33.6155 47.6824 33.6683C47.7918 33.7212 47.9116 33.7487 48.0331 33.7489C47.8236 34.1028 48.1269 34.3194 48.2858 34.5505C48.3436 34.6227 48.4375 34.3988 48.488 34.305Z" fill="white"/>
<path d="M49.7975 87.5214C50.1008 84.9401 50.1008 82.3322 49.7975 79.751C49.7758 79.3927 49.7758 79.0333 49.7975 78.675C50.4113 77.1368 50.5991 75.4614 51.3573 73.9738C51.4241 73.9437 51.4796 73.8933 51.5159 73.8297C51.5523 73.7662 51.5675 73.6927 51.5595 73.6199C53.3509 70.3174 56.3459 67.832 59.9221 66.6801C62.5723 65.8351 65.3093 65.9074 68.0463 66.0085C67.7646 66.5573 67.1797 66.3695 66.7536 66.4779C64.0421 67.1484 61.5875 68.6011 59.695 70.6554C57.8024 72.7097 56.5555 75.275 56.1091 78.0323C55.683 80.9209 55.8997 83.8095 55.8852 86.6981C55.9774 87.2398 56.171 87.7592 56.4557 88.2291L51.4007 88.3302C50.7363 88.3446 50.4185 87.6152 49.7975 87.5214Z" fill="#EDEDED"/>
<path d="M34.2746 66.0058C33.7741 67.0219 33.5642 68.1565 33.668 69.2844C33.668 71.9491 33.4802 74.6427 34.1735 77.228C35.7261 83.0052 39.4452 86.5221 45.2224 87.9014C45.4679 87.9592 45.7712 87.8581 45.8507 88.2192C41.9294 88.4142 38.0442 88.3275 34.5995 86.0888C30.2666 83.258 27.8835 79.2573 27.7969 74.0072C27.7969 71.8841 27.7969 69.761 27.7969 67.6306C27.7969 66.5041 28.2374 65.9914 29.3712 65.9697C31.0032 65.9408 32.6353 65.9914 34.2746 66.0058Z" fill="#EDEDED"/>
<path d="M49.7943 65.5145V64.9512C50.0904 64.6985 49.982 64.3518 49.982 64.0341C49.982 62.4453 49.982 60.8494 49.982 59.2534C49.8151 58.744 49.7512 58.2063 49.7943 57.6719C50.4226 56.2276 50.6392 54.61 51.3541 53.1801L51.5491 53.0068C52.4432 51.468 53.6545 50.137 55.1025 49.1024C56.5506 48.0677 58.2022 47.353 59.9477 47.0057C61.9743 46.6798 64.0323 46.5949 66.0788 46.753C65.5516 47.4751 64.6851 47.3163 63.9918 47.5907C61.9908 48.316 60.2142 49.552 58.8385 51.176C57.4628 52.8001 56.5357 54.7556 56.1492 56.8487C55.5932 59.4412 55.9109 62.1132 55.882 64.749C55.882 65.2762 56.3731 65.5867 56.4597 66.0705L51.4047 66.1428C50.7692 66.2294 50.3792 65.6228 49.7943 65.5145Z" fill="#EDEDED"/>
<path d="M37.2203 46.7393C36.5487 47.4615 36.6209 48.4002 36.6354 49.3102C36.6354 51.7221 36.4332 54.1558 37.047 56.5317C38.3396 61.4929 41.546 64.5476 46.5288 65.7391C46.7599 65.7897 46.991 65.7824 47.0343 66.0785C43.7702 66.1652 40.47 66.3602 37.4658 64.7064C33.364 62.4389 30.9665 59.0231 30.7498 54.2713C30.6487 52.2493 30.6993 50.2129 30.7065 48.1908C30.7065 47.1582 31.1037 46.7465 32.1508 46.7465C33.819 46.6888 35.516 46.7249 37.2203 46.7393Z" fill="#EDEDED"/>
<path d="M52.965 31.9582C50.899 29.1698 49.6489 25.862 49.3542 22.4042C48.9975 18.4901 49.8279 14.5594 51.7373 11.1241C52.0616 10.4776 52.4748 9.87962 52.965 9.34766C54.8271 11.8459 56.0181 14.7797 56.4241 17.869C57.1297 22.6736 56.0117 27.5683 53.2899 31.5899C53.1936 31.7227 53.0848 31.8461 52.965 31.9582Z" fill="white"/>
<path d="M49.7969 46.279C50.0772 44.2854 50.1087 42.2648 49.8908 40.2635C49.8908 39.8518 49.8113 39.4258 49.8041 39.0069C50.4179 37.5626 50.6996 36.0389 51.4001 34.674C51.8739 34.2427 52.2654 33.7289 52.5555 33.1575C54.2656 31.2286 56.5395 29.887 59.0549 29.3229C61.1175 29.0174 63.2078 28.9423 65.287 29.099C65.2437 29.3229 65.0848 29.3734 64.8682 29.424C62.7133 29.8651 60.7368 30.9334 59.1873 32.4945C57.6377 34.0557 56.5842 36.04 56.159 38.1981C55.5741 40.6462 55.8774 43.2026 55.8918 45.7085C55.956 46.0928 56.0777 46.4653 56.2529 46.8134L51.4217 46.9C50.7646 46.9867 50.3746 46.3729 49.7969 46.279Z" fill="#EDEDED"/>
<path d="M38.5934 29.0748C38.2698 29.82 38.1358 30.6338 38.2035 31.4434C38.2035 34.0721 37.9941 36.7368 38.9834 39.2571C39.6221 41.0627 40.7128 42.6745 42.1515 43.9387C43.5902 45.2029 45.3288 46.0774 47.2015 46.4786C47.4109 46.5292 47.577 46.5725 47.6276 46.7964C44.6595 46.8686 41.6698 47.1214 38.8967 45.7276C34.766 43.655 32.4768 40.3331 32.3179 35.6608C32.253 33.9349 32.3179 32.2017 32.3179 30.4685C32.3179 29.4575 32.6646 29.0604 33.625 29.0242C35.2643 29.017 36.9325 29.0604 38.5934 29.0748Z" fill="#EDEDED"/>
<path d="M49.7896 65.5195C50.3745 65.6279 50.7645 66.2417 51.4216 66.1334V73.5499C51.4216 73.6943 51.4216 73.8387 51.4216 73.9759C50.6995 75.4636 50.4756 77.1389 49.8618 78.6771C49.8618 77.0595 49.183 75.6369 48.6702 74.1709C48.6702 73.9759 48.728 73.7665 48.5547 73.6148C48.5547 71.109 48.5547 68.6103 48.5547 66.1045C48.9013 65.8878 49.4429 65.9239 49.7896 65.5195Z" fill="#B3BCC0"/>
<path d="M49.7962 46.2773C50.3739 46.3712 50.7639 46.9995 51.421 46.884V52.9284C51.421 53.0078 51.421 53.0872 51.421 53.1667C50.6989 54.611 50.4895 56.1997 49.8612 57.6585C49.6298 56.0525 49.1879 54.4839 48.5469 52.9934C48.5469 50.9497 48.5469 48.906 48.5469 46.8623C48.8357 46.5373 49.5579 46.8984 49.7962 46.2773Z" fill="#B3BCC0"/>
</svg>
