<svg width="100" height="101" viewBox="0 0 100 101" fill="none" xmlns="http://www.w3.org/2000/svg">
<path d="M70.7985 50.9247C72.9031 50.0745 75.0547 49.3454 77.2426 48.7411C83.1843 47.2844 89.3985 47.3607 95.3026 48.9627C95.4996 49.0202 95.7131 49.0448 95.9183 49.0859C96.1312 49.2414 96.3957 49.309 96.6571 49.2747V49.4635C96.4188 49.5137 96.1997 49.6304 96.025 49.8001C88.9652 55.2728 81.9054 60.7455 74.8456 66.2182C67.5231 71.8907 60.1678 77.5385 52.8535 83.2274C51.8497 83.8332 50.9514 84.5985 50.1937 85.4931H49.8243C49.8243 85.1319 49.4795 85.017 49.2497 84.8364L37.757 75.9296L18.0552 60.6689C14.3201 57.7793 10.6014 54.8651 6.8334 52.0083C5.74508 51.0524 4.57179 50.1979 3.32812 49.4553V49.2665C3.43013 49.2875 3.53556 49.2851 3.6365 49.2595C3.73744 49.2339 3.83128 49.1858 3.91097 49.1187C6.60181 48.4234 9.34887 47.9674 12.12 47.756C17.4302 47.4572 22.7405 48.3404 27.668 50.3419C28.1688 50.5471 28.686 50.7195 29.1949 50.9083C29.474 51.0807 29.7531 51.2777 30.0158 51.4255C34.3215 53.5608 38.1522 56.5427 41.2787 60.1928C45.5267 65.078 48.3371 71.0454 49.3975 77.4318C49.5616 78.3759 49.7094 79.3281 49.8982 80.461C49.9712 80.3245 50.0317 80.1816 50.0788 80.0341C50.4432 75.8253 51.5903 71.7217 53.461 67.9339C56.4132 61.7612 61.1075 56.5876 66.9649 53.0509C68.303 52.3038 69.559 51.5897 70.7985 50.9247Z" fill="#EDEDED"/>
<path d="M49.8536 85.5027C45.21 86.9365 40.3235 87.4123 35.4905 86.9012C30.6574 86.3901 25.9786 84.9027 21.7376 82.5293C17.4965 80.1559 13.7818 76.9458 10.8184 73.0938C7.85511 69.2418 5.70499 64.828 4.49845 60.1202C4.05298 58.4239 3.7455 56.6944 3.57904 54.9485C3.57904 54.7925 3.57904 54.6448 3.39844 54.5627V49.4648C4.6421 50.2074 5.81539 51.062 6.90371 52.0179C10.6717 54.8746 14.3904 57.7642 18.1255 60.6784L37.8273 75.9391L49.32 84.846C49.5499 85.0266 49.829 85.1415 49.8536 85.5027Z" fill="white"/>
<path d="M96.4687 55.8109C96.0682 58.4101 95.4251 60.9661 94.5478 63.4453C89.6223 75.9723 80.6334 83.6807 67.4578 86.4307C61.7254 87.5967 55.7896 87.2716 50.2188 85.4867C50.9764 84.592 51.8748 83.8268 52.8785 83.221C60.1928 77.5321 67.5481 71.8842 74.8706 66.2118C81.9414 60.739 89.0012 55.2663 96.05 49.7936C96.2247 49.624 96.4439 49.5073 96.6821 49.457V54.3825C96.3456 54.8176 96.559 55.3347 96.4687 55.8109Z" fill="white"/>
<path d="M70.7992 50.9241C69.5596 51.6219 68.3364 52.3033 67.0887 53.0421C61.2312 56.5788 56.537 61.7525 53.5847 67.9251C51.714 71.7129 50.567 75.8166 50.2026 80.0253C50.1555 80.1728 50.095 80.3157 50.022 80.4522C49.8332 79.3193 49.6854 78.3671 49.5212 77.423C48.4608 71.0366 45.6505 65.0692 41.4025 60.184C38.2744 56.5398 34.4438 53.5636 30.1396 51.4331C29.8441 51.2853 29.565 51.0883 29.3187 50.9159C29.0814 43.5951 30.7823 36.3415 34.2492 29.8892C37.7161 23.4369 42.8259 18.015 49.0615 14.1721C49.3653 13.9833 49.6362 13.7042 50.0384 13.737V63.2952C50.8593 62.0721 51.5653 61.0295 52.3205 60.0116C54.4889 57.1601 57.0703 54.6479 59.9796 52.5578C63.1982 50.1646 66.8419 48.404 70.7171 47.3696C70.8155 48.5517 70.843 49.7387 70.7992 50.9241Z" fill="white"/>
<path d="M70.7099 47.4076C66.8347 48.442 63.1911 50.2026 59.9724 52.5957C57.0631 54.6859 54.4817 57.1981 52.3134 60.0496C51.5581 61.0347 50.8932 62.0772 50.0312 63.3332V13.7422C51.4449 14.3719 52.7608 15.2013 53.9388 16.2049C58.4092 19.4869 62.1712 23.6375 64.9994 28.4081C67.8276 33.1786 69.6638 38.4709 70.398 43.968C70.5622 45.1009 70.6114 46.2583 70.7099 47.4076Z" fill="#EDEDED"/>
</svg>
