<svg width="806" height="281" viewBox="0 0 806 281" fill="none" xmlns="http://www.w3.org/2000/svg">
<g clip-path="url(#clip0_4212_2663)">
<path d="M404.751 200.207C413.551 200.807 421.351 203.307 428.351 208.107C432.551 211.007 433.851 214.807 431.451 217.607C428.551 221.007 425.351 220.007 422.151 217.807C412.951 211.507 403.151 210.707 392.851 214.907C389.351 216.307 385.951 216.807 383.951 212.607C382.251 209.207 383.851 205.807 388.551 204.207C393.751 202.507 399.351 201.507 404.751 200.207Z" fill="#DB8080"/>
<path d="M367.351 168.807C371.051 169.107 373.051 171.207 373.251 174.807C373.451 178.307 370.351 180.807 366.651 180.607C362.751 180.407 360.951 178.107 361.051 174.407C361.151 170.507 363.551 168.907 367.351 168.807Z" fill="#DB8080"/>
<path d="M446.951 174.607C446.551 178.107 445.151 180.607 441.151 180.707C437.151 180.707 434.951 178.807 434.951 174.707C434.951 170.807 437.051 168.907 440.851 168.807C444.651 168.807 446.451 171.007 446.951 174.607Z" fill="#DB8080"/>
</g>
<path d="M508.391 99.5014C508.391 95.115 504.688 91.4914 500.204 91.4914H474.959C474.667 57.9254 446.791 30.8438 412.384 30.8438H395.521C378.269 30.8438 362.577 37.7095 351.27 48.771C340.159 59.7372 333.141 74.8037 333.043 91.4914H307.799C303.315 91.4914 299.611 95.115 299.611 99.5014L280.117 270.573C280.117 274.96 283.821 278.584 288.305 278.584H519.698C524.182 278.584 527.885 274.96 527.885 270.573L508.391 99.5014ZM346.397 91.1099C346.397 77.3784 352.05 64.9819 361.31 55.9229C370.569 46.8639 383.143 41.3331 397.178 41.3331H410.824C438.895 41.3331 461.606 63.5515 461.606 91.0146C461.606 91.1099 461.606 91.3007 461.606 91.4914C461.606 91.6821 461.606 91.8728 461.606 91.9682H346.397C346.397 91.7774 346.397 91.5867 346.397 91.4914C346.397 91.396 346.397 91.2053 346.397 91.1099Z" stroke="#DB8080" stroke-width="4" stroke-miterlimit="10"/>
<path d="M107.079 234.405C98.0785 234.405 91.4785 227.705 91.4785 218.505C91.4785 209.805 98.3785 203.005 106.979 202.905C115.679 202.805 122.979 210.005 122.979 218.705C123.079 227.505 116.079 234.405 107.079 234.405ZM119.679 218.805C119.679 211.805 114.079 206.205 106.979 206.205C100.179 206.305 94.5785 211.905 94.5785 218.605C94.5785 225.505 100.379 231.305 107.379 231.205C114.079 231.205 119.579 225.605 119.679 218.805Z" fill="#DB8080"/>
<path d="M550.923 101.828L550.365 103.704L552.228 104.303L573.362 111.1L575.228 111.701L575.865 109.846L608.693 14.3093L609.356 12.38L607.414 11.7554L582.282 3.67222L580.336 3.04638L579.753 5.00542L550.923 101.828ZM537.24 140.45L536.628 142.354L538.532 142.967L561.951 150.499L563.854 151.111L564.467 149.207L571.693 126.74L572.305 124.836L570.401 124.224L546.983 116.692L545.079 116.08L544.466 117.984L537.24 140.45Z" stroke="#DB8080" stroke-width="4"/>
<rect x="571.868" y="165.289" width="131.908" height="14.2285" rx="7.11426" fill="#DB8080"/>
<rect x="755.71" y="165.289" width="50.2277" height="14.2285" rx="7.11426" fill="#DB8080"/>
<rect x="725.401" y="165.289" width="14.5102" height="14.2285" rx="7.11426" fill="#DB8080"/>
<rect x="532.099" y="212.225" width="85.7397" height="12.0801" rx="6.04004" fill="#DB8080"/>
<rect x="625.237" y="212.225" width="33.4862" height="12.0801" rx="6.04004" fill="#DB8080"/>
<rect x="691.235" y="263.764" width="33.4862" height="12.0801" rx="6.04004" fill="#DB8080"/>
<rect x="599.651" y="263.764" width="81.7255" height="12.0801" rx="6.04004" fill="#DB8080"/>
<rect width="131.908" height="14.2285" rx="7.11426" transform="matrix(-1 0 0 1 235.063 163.977)" fill="#DB8080"/>
<rect width="50.2277" height="14.2285" rx="7.11426" transform="matrix(-1 0 0 1 51.2217 163.977)" fill="#DB8080"/>
<rect width="14.5102" height="14.2285" rx="7.11426" transform="matrix(-1 0 0 1 81.5303 163.977)" fill="#DB8080"/>
<rect width="85.7397" height="12.0801" rx="6.04004" transform="matrix(-1 0 0 1 277.181 212.225)" fill="#DB8080"/>
<rect width="33.4862" height="12.0801" rx="6.04004" transform="matrix(-1 0 0 1 184.042 212.225)" fill="#DB8080"/>
<rect width="33.4862" height="12.0801" rx="6.04004" transform="matrix(-1 0 0 1 99.3936 263.764)" fill="#DB8080"/>
<rect width="81.7255" height="12.0801" rx="6.04004" transform="matrix(-1 0 0 1 190.978 263.764)" fill="#DB8080"/>
<defs>
<clipPath id="clip0_4212_2663">
<rect width="85.9" height="51.1" fill="white" transform="translate(361.051 168.807)"/>
</clipPath>
</defs>
</svg>
