<svg id="Capa_1" data-name="Capa 1" xmlns="http://www.w3.org/2000/svg" viewBox="0 0 144.09 153.22"><defs><style>.cls-1{fill:#c9d1d3;}.cls-2{fill:#fff;}</style></defs><path class="cls-1" d="M114.2,126.51a3.38,3.38,0,0,0-.44-2h0l-.23-.45,0-.23c-.16-.31-.32-.63-.47-.94a48,48,0,0,0-2.33-5.17c-.09-.23-.18-.47-.26-.7a.47.47,0,0,0-.22-.47,15.75,15.75,0,0,1-1-4.75,49.16,49.16,0,0,0,.18-7.48h0l0-.45c0-.39,0-.79,0-1.19l.06-4c.33-.36.2-.78.14-1.19v-.44l0-1.2c0-.23,0-.46,0-.69v-.71c0-.78,0-1.56,0-2.34a5.82,5.82,0,0,0,.17-2.59v-.47c.51-7,.23-14.09.27-21.14,0-2.42,0-4.84,0-7.25.08-6.06-.37-12.15,1.19-18.11a67.77,67.77,0,0,1,2.41-6.66,11.85,11.85,0,0,0,1.11-5.77c-.09-2.22,0-4.44,0-6.67,0-3.52,0-3.52-3.51-3.44-4.86,0-9.71-.4-14.57-.23a.55.55,0,0,0-.22,0H41.49c-5.11,0-10.23,0-15.35.06L24,19.8c-.31,0-.46.11-.39.43,0,.94,0,1.88,0,2.82a3.13,3.13,0,0,0,.14,1.89c0,2,.06,4,0,6a9.43,9.43,0,0,0,1.8,5.81,12.8,12.8,0,0,1,2.64,5.67,51.31,51.31,0,0,1,.47,5.81c.08,4.21,0,8.43.05,12.65l0,9.17a21,21,0,0,0-.17,4.82V77.1c.05,2.74.13,5.47.2,8.2,0,1.33.05,2.66.08,4v.46a3.57,3.57,0,0,0,0,1.42c.05.7.09,1.4.14,2.11-.1,5,.12,10,.26,15,0,1.72,0,3.44,0,5.16-.67,3.55-2.23,6.79-3.55,10.11-.76,1.93-1.45,3.94-1,6.1,0,.67,0,1.33,0,2,0,1.94,0,2,1.94,2H57.5c.4,0,.89.15,1.12-.39h.89a1.92,1.92,0,0,0,1.13.2l51,0a9,9,0,0,1,1.16,0c1.14.17,1.68-.22,1.41-1.43Zm-80-103.64,0,0,0,0ZM36,112.54a2,2,0,0,1-.35,0,2,2,0,0,0,.35,0,1.36,1.36,0,0,1,.1.36A1.36,1.36,0,0,0,36,112.54Zm2.41,8h0Zm-.51-7.71a1.27,1.27,0,0,0,.69-.49h0A1.27,1.27,0,0,1,37.9,112.8ZM39,120.26c.36,0,.75.3,1.08.12C39.74,120.56,39.35,120.3,39,120.26ZM50.11,38.35h0l0,0ZM50.28,98h0c0-.46.13-.92.16-1.38C50.41,97,50.33,97.49,50.28,98Zm.47-7.49a.93.93,0,0,0-.11.19.93.93,0,0,1,.11-.19c0-.12,0-.24,0-.37C50.76,90.22,50.75,90.34,50.75,90.46Zm.06,10.28v0a.64.64,0,0,0,.23.05A.64.64,0,0,1,50.81,100.74Zm.74-18.87h0a1.09,1.09,0,0,1,.13.37A1.09,1.09,0,0,0,51.55,81.87Zm.91,14.92a.4.4,0,0,1-.17-.14.4.4,0,0,0,.17.14ZM55,63.48h0a2.13,2.13,0,0,1,.18-.22A2.13,2.13,0,0,0,55,63.48ZM56.06,86h0c-.1-.14,0-.34,0-.53C56.05,85.7,56,85.9,56.06,86Zm.73-18.18,0,0,0,0a.62.62,0,0,1,.37.49A.62.62,0,0,0,56.79,67.86Zm.41.72v0l.38.51Zm2.24,12.58a.13.13,0,0,1,0,.12.13.13,0,0,0,0-.12l0-.22ZM60,86.83Zm34,33h0a.67.67,0,0,0-.43-.19A.67.67,0,0,1,94,119.8Zm-32.13-7.23a2.27,2.27,0,0,1-.25-.06,2.27,2.27,0,0,0,.25.06Zm.87-4.44-.45,0,.45,0Zm.52-62.54h0v0Zm1.6,70a.25.25,0,0,1,.28.07A.25.25,0,0,0,64.88,115.58Zm.73,1.39h0Zm1.89,1.88Zm-.7-60.12h0a3.67,3.67,0,0,1,.84,1.53A3.67,3.67,0,0,0,66.8,58.73Zm.94,2.11h0a.38.38,0,0,1,.23.34A.38.38,0,0,0,67.74,60.84Zm2.81-22.49h0Zm1.14,30.27h0a2.67,2.67,0,0,1,.36.47A2.67,2.67,0,0,0,71.69,68.62Zm1.22,4.68c-.09-.39-.18-.77-.28-1.16.1.39.19.77.28,1.16s.14.93.21,1.39C73.05,74.23,73,73.76,72.91,73.3Zm1,57.82a.94.94,0,0,0-.52-.27.94.94,0,0,1,.52.27Zm3.16-9.91-.29.23.3-.23Zm2.73-79.58.08,0Zm.06-.79,0,.07ZM83,55.48l-.22-.15.22.15ZM85.1,76.31h0l.26.28Zm2.31,4.85v0Zm.45-2.53c-.1-.12-.19-.24-.3-.36.11.12.2.24.3.36Zm.24-35.14h0Zm2,28,0,0ZM94.27,132c-.47,0-.94,0-1.41,0,.47,0,.94,0,1.41,0Zm.86-13.35h0c0,.18.08.28.15.32S95.16,118.82,95.13,118.64Zm.27-34.51Zm.24,34.77a.46.46,0,0,1,.27-.05A.46.46,0,0,0,95.64,118.9ZM98,117Zm6.83,2.81h0l.3-.07Zm8.92,11.05h0l.07-.07Z"/><path class="cls-2" d="M64.75,81.91c0-6.93,7.88-8,7.88-13,0-2.24-2-4-4.63-4a9.12,9.12,0,0,0-5.11,2l-3.34-4.16a13.08,13.08,0,0,1,9-3.44c5.39,0,10.41,3.35,10.41,9,0,7.88-8.31,8.79-8.31,14V84.2H64.75Zm0,6.45h5.88V94H64.75Z"/></svg>