<svg width="1920" height="96" viewBox="0 0 1920 96" fill="none" xmlns="http://www.w3.org/2000/svg">
<g clip-path="url(#clip0_81_1198)">
<path d="M1931.79 -3.125H-11.7812V99.1354H1931.79V-3.125Z" fill="#343249"/>
<path d="M28.6947 -2.23352L33.1602 2.56641L53.9374 -16.8274L49.4719 -21.6273L28.6947 -2.23352Z" fill="#FFF8EE"/>
<path d="M3.0622 13.6563L8.84766 16.7324L22.1631 -8.39447L16.3777 -11.4706L3.0622 13.6563Z" fill="#DB8080"/>
<path d="M3.19537 93.1788L5.75781 99.2168L31.8943 88.0878L29.3319 82.0498L3.19537 93.1788Z" fill="#AFD697"/>
<path d="M16.9482 75.2837L23.3672 74.0371L17.9712 46.1586L11.5522 47.4052L16.9482 75.2837Z" fill="#FFF8EE"/>
<path d="M39.7651 88.7626L44.2305 93.5625L65.0077 74.1687L60.5423 69.3688L39.7651 88.7626Z" fill="#FFF8EE"/>
<path d="M0.271875 35.542L3.54688 41.25L28.2549 27.0263L24.9799 21.3183L0.271875 35.542Z" fill="#FFF8EE"/>
<path d="M33.6042 46.2084L28.9727 50.8477L49.0545 70.963L53.686 66.3237L33.6042 46.2084Z" fill="#DB8080"/>
<path d="M46.6683 7.92691L40.1914 6.94922L35.9593 35.079L42.4362 36.0567L46.6683 7.92691Z" fill="#AFD697"/>
<path d="M55.0475 28.6618L49.0195 31.2285L60.13 57.4087L66.1579 54.842L55.0475 28.6618Z" fill="#FFF8EE"/>
<path d="M72.9213 86.7977L77.3867 91.5977L98.1639 72.2038L93.6985 67.4039L72.9213 86.7977Z" fill="#FFF8EE"/>
<path d="M95.1013 16.9141L100.887 19.9902L114.202 -5.13666L108.417 -8.21279L95.1013 16.9141Z" fill="#DB8080"/>
<path d="M95.2305 89.671L97.793 95.709L123.929 84.58L121.367 78.542L95.2305 89.671Z" fill="#AFD697"/>
<path d="M109.032 71.6362L115.465 70.4023L110.124 42.4625L103.691 43.6964L109.032 71.6362Z" fill="#FFF8EE"/>
<path d="M131.816 85.2469L136.281 90.0469L157.058 70.653L152.593 65.8531L131.816 85.2469Z" fill="#FFF8EE"/>
<path d="M77.7995 36.1498L73.168 40.7891L93.2498 60.9044L97.8813 56.2651L77.7995 36.1498Z" fill="#DB8080"/>
<path d="M72.6823 -21.9069L68.0508 -17.2676L88.1326 2.84778L92.7642 -1.7915L72.6823 -21.9069Z" fill="#FFF8EE"/>
<path d="M92.2445 32.113L95.5195 37.7949L120.115 23.5712L116.84 17.8893L92.2445 32.113Z" fill="#FFF8EE"/>
<path d="M75.8239 25.0345L80.9414 20.9395L63.2155 -1.28659L58.0979 2.80843L75.8239 25.0345Z" fill="#FFF8EE"/>
<path d="M125.643 42.6986L121.012 47.3379L141.094 67.4533L145.725 62.814L125.643 42.6986Z" fill="#DB8080"/>
<path d="M138.703 4.4152L132.227 3.4375L127.994 31.5673L134.471 32.545L138.703 4.4152Z" fill="#AFD697"/>
<path d="M147.09 25.1384L141.062 27.7051L152.173 53.8852L158.201 51.3185L147.09 25.1384Z" fill="#FFF8EE"/>
<path d="M319.825 65.0268L313.727 62.6328L303.364 89.1189L309.463 91.5129L319.825 65.0268Z" fill="#AFD697"/>
<path d="M284.614 40.7999L280.148 36L259.371 55.3938L263.837 60.1937L284.614 40.7999Z" fill="#FFF8EE"/>
<path d="M310.27 18.1191L304.484 15.043L291.169 40.1699L296.954 43.246L310.27 18.1191Z" fill="#DB8080"/>
<path d="M267.414 67.4009L260.98 68.6348L266.322 96.5746L272.755 95.3407L267.414 67.4009Z" fill="#DB8080"/>
<path d="M327.572 62.0709L332.203 57.4316L312.121 37.3163L307.49 41.9556L327.572 62.0709Z" fill="#FFF8EE"/>
<path d="M313.127 2.94169L309.852 -2.74023L285.256 11.4835L288.531 17.1654L313.127 2.94169Z" fill="#FFF8EE"/>
<path d="M327.51 6.9291L321.016 7.7832L324.713 35.9885L331.207 35.1344L327.51 6.9291Z" fill="#FFF8EE"/>
<path d="M266.348 30.3362L272.832 31.3203L277.092 3.15737L270.608 2.17324L266.348 30.3362Z" fill="#AFD697"/>
<path d="M286.879 81.0145L293.355 81.9922L297.588 53.8624L291.111 52.8847L286.879 81.0145Z" fill="#FFF8EE"/>
<path d="M258.273 9.8968L264.301 7.33008L253.19 -18.8501L247.162 -16.2833L258.273 9.8968Z" fill="#FFF8EE"/>
<path d="M221.52 65.0189L215.422 62.625L205.059 89.1111L211.158 91.5051L221.52 65.0189Z" fill="#AFD697"/>
<path d="M192.567 44.3136L188.102 39.5137L167.324 58.9075L171.79 63.7074L192.567 44.3136Z" fill="#FFF8EE"/>
<path d="M218.227 21.6406L212.441 18.5645L199.126 43.6913L204.911 46.7675L218.227 21.6406Z" fill="#DB8080"/>
<path d="M250.184 79.458L247.621 73.4199L221.485 84.5489L224.047 90.587L250.184 79.458Z" fill="#FFF8EE"/>
<path d="M175.378 70.9243L168.945 72.1582L174.286 100.098L180.72 98.8641L175.378 70.9243Z" fill="#DB8080"/>
<path d="M235.517 2.41468L240.148 -2.22461L220.067 -22.34L215.435 -17.7007L235.517 2.41468Z" fill="#DB8080"/>
<path d="M240.63 60.4655L245.262 55.8262L225.18 35.7108L220.548 40.3501L240.63 60.4655Z" fill="#FFF8EE"/>
<path d="M221.084 6.44755L217.809 0.765625L193.213 14.9893L196.488 20.6713L221.084 6.44755Z" fill="#FFF8EE"/>
<path d="M237.504 13.5202L232.387 17.6152L250.113 39.8413L255.23 35.7462L237.504 13.5202Z" fill="#FFF8EE"/>
<path d="M174.617 34.1317L181.094 35.1094L185.326 6.97959L178.849 6.00189L174.617 34.1317Z" fill="#AFD697"/>
<path d="M188.047 84.5262L194.523 85.5039L198.756 57.3741L192.279 56.3964L188.047 84.5262Z" fill="#FFF8EE"/>
<path d="M162.175 20.2679L168.203 17.7012L157.093 -8.47899L151.065 -5.91227L162.175 20.2679Z" fill="#FFF8EE"/>
<path d="M373.097 -1.62609L377.562 3.17383L398.34 -16.22L393.874 -21.0199L373.097 -1.62609Z" fill="#FFF8EE"/>
<path d="M347.441 14.2774L353.227 17.3535L366.542 -7.77338L360.757 -10.8495L347.441 14.2774Z" fill="#DB8080"/>
<path d="M347.57 93.8096L350.133 99.8477L376.269 88.7187L373.707 82.6806L347.57 93.8096Z" fill="#AFD697"/>
<path d="M362.065 76.6118L368.484 75.3652L363.088 47.4868L356.669 48.7333L362.065 76.6118Z" fill="#FFF8EE"/>
<path d="M384.171 89.3895L388.637 94.1895L409.414 74.7956L404.949 69.9957L384.171 89.3895Z" fill="#FFF8EE"/>
<path d="M344.643 34.8154L347.918 40.5234L372.626 26.2997L369.351 20.5917L344.643 34.8154Z" fill="#FFF8EE"/>
<path d="M377.975 46.8373L373.344 51.4766L393.426 71.5919L398.057 66.9527L377.975 46.8373Z" fill="#DB8080"/>
<path d="M327.992 83.9539L333.664 87.2344L347.864 62.5982L342.192 59.3177L327.992 83.9539Z" fill="#DB8080"/>
<path d="M391.047 8.57926L384.57 7.60156L380.338 35.7313L386.815 36.709L391.047 8.57926Z" fill="#AFD697"/>
<path d="M399.419 29.2907L393.391 31.8574L404.501 58.0376L410.529 55.4709L399.419 29.2907Z" fill="#FFF8EE"/>
<path d="M417.312 87.4071L421.777 92.207L442.555 72.8132L438.089 68.0133L417.312 87.4071Z" fill="#FFF8EE"/>
<path d="M439.484 17.5489L445.27 20.625L458.585 -4.50189L452.8 -7.57801L439.484 17.5489Z" fill="#DB8080"/>
<path d="M439.606 90.3038L442.168 96.3418L468.304 85.2128L465.742 79.1748L439.606 90.3038Z" fill="#AFD697"/>
<path d="M453.411 72.2944L459.844 71.0605L454.503 43.1207L448.07 44.3546L453.411 72.2944Z" fill="#FFF8EE"/>
<path d="M476.21 85.8622L480.676 90.6621L501.453 71.2683L496.988 66.4684L476.21 85.8622Z" fill="#FFF8EE"/>
<path d="M422.178 36.7728L417.547 41.4121L437.629 61.5275L442.26 56.8882L422.178 36.7728Z" fill="#DB8080"/>
<path d="M417.069 -21.276L412.438 -16.6367L432.519 3.47864L437.151 -1.16065L417.069 -21.276Z" fill="#FFF8EE"/>
<path d="M436.616 32.7419L439.891 38.4238L464.486 24.2001L461.211 18.5182L436.616 32.7419Z" fill="#FFF8EE"/>
<path d="M420.199 25.681L425.316 21.5859L407.59 -0.640103L402.473 3.45493L420.199 25.681Z" fill="#FFF8EE"/>
<path d="M470.007 43.3275L465.375 47.9668L485.457 68.0822L490.088 63.4429L470.007 43.3275Z" fill="#DB8080"/>
<path d="M483.082 5.07926L476.605 4.10156L472.373 32.2313L478.85 33.209L483.082 5.07926Z" fill="#AFD697"/>
<path d="M491.465 25.7868L485.438 28.3535L496.548 54.5337L502.576 51.967L491.465 25.7868Z" fill="#FFF8EE"/>
<path d="M664.188 65.6908L658.09 63.2969L647.727 89.783L653.826 92.1769L664.188 65.6908Z" fill="#AFD697"/>
<path d="M628.965 41.4523L624.5 36.6523L603.723 56.0462L608.188 60.8461L628.965 41.4523Z" fill="#FFF8EE"/>
<path d="M654.641 18.7695L648.855 15.6934L635.54 40.8203L641.325 43.8964L654.641 18.7695Z" fill="#DB8080"/>
<path d="M611.781 68.0161L605.348 69.25L610.689 97.1898L617.122 95.9559L611.781 68.0161Z" fill="#DB8080"/>
<path d="M671.943 62.7194L676.574 58.0801L656.492 37.9647L651.861 42.604L671.943 62.7194Z" fill="#FFF8EE"/>
<path d="M657.505 3.57065L654.23 -2.11133L629.635 12.1124L632.91 17.7944L657.505 3.57065Z" fill="#FFF8EE"/>
<path d="M671.893 7.56386L665.398 8.41797L669.096 36.6233L675.59 35.7692L671.893 7.56386Z" fill="#FFF8EE"/>
<path d="M610.316 30.6174L616.801 31.6016L621.061 3.43862L614.576 2.45448L610.316 30.6174Z" fill="#AFD697"/>
<path d="M631.246 81.6356L637.723 82.6133L641.955 54.4835L635.478 53.5058L631.246 81.6356Z" fill="#FFF8EE"/>
<path d="M602.652 10.5316L608.68 7.96484L597.569 -18.2153L591.541 -15.6486L602.652 10.5316Z" fill="#FFF8EE"/>
<path d="M565.884 65.683L559.785 63.2891L549.423 89.7752L555.521 92.1691L565.884 65.683Z" fill="#AFD697"/>
<path d="M536.934 44.9601L532.469 40.1602L511.692 59.554L516.157 64.3539L536.934 44.9601Z" fill="#FFF8EE"/>
<path d="M562.606 22.2734L556.82 19.1973L543.505 44.3242L549.29 47.4003L562.606 22.2734Z" fill="#DB8080"/>
<path d="M594.551 80.1025L591.988 74.0645L565.852 85.1935L568.414 91.2315L594.551 80.1025Z" fill="#FFF8EE"/>
<path d="M519.742 71.5278L513.309 72.7617L518.65 100.702L525.083 99.4676L519.742 71.5278Z" fill="#DB8080"/>
<path d="M579.9 3.05334L584.531 -1.58594L564.449 -21.7013L559.818 -17.062L579.9 3.05334Z" fill="#DB8080"/>
<path d="M585.009 61.1002L589.641 56.4609L569.559 36.3456L564.927 40.9849L585.009 61.1002Z" fill="#FFF8EE"/>
<path d="M565.455 7.08232L562.18 1.40039L537.585 15.6241L540.86 21.306L565.455 7.08232Z" fill="#FFF8EE"/>
<path d="M581.879 14.1452L576.762 18.2402L594.488 40.4663L599.605 36.3713L581.879 14.1452Z" fill="#FFF8EE"/>
<path d="M518.988 34.7411L525.465 35.7188L529.697 7.58896L523.22 6.61127L518.988 34.7411Z" fill="#AFD697"/>
<path d="M532.425 85.1571L538.902 86.1348L543.134 58.005L536.658 57.0273L532.425 85.1571Z" fill="#FFF8EE"/>
<path d="M506.566 20.9007L512.594 18.334L501.483 -7.84617L495.455 -5.27944L506.566 20.9007Z" fill="#FFF8EE"/>
<path d="M720.003 2.18836L724.469 6.98828L745.246 -12.4055L740.781 -17.2055L720.003 2.18836Z" fill="#FFF8EE"/>
<path d="M694.332 18.1133L700.117 21.1895L713.433 -3.93744L707.647 -7.01356L694.332 18.1133Z" fill="#DB8080"/>
<path d="M694.465 97.6397L697.027 103.678L723.164 92.5487L720.601 86.5107L694.465 97.6397Z" fill="#AFD697"/>
<path d="M709.706 81.1372L716.125 79.8906L710.729 52.0122L704.31 53.2587L709.706 81.1372Z" fill="#FFF8EE"/>
<path d="M731.078 93.202L735.543 98.002L756.32 78.6081L751.855 73.8082L731.078 93.202Z" fill="#FFF8EE"/>
<path d="M691.557 37.2647L694.832 42.9727L719.54 28.7489L716.265 23.0409L691.557 37.2647Z" fill="#FFF8EE"/>
<path d="M724.874 50.6713L720.242 55.3105L740.324 75.4259L744.956 70.7866L724.874 50.6713Z" fill="#DB8080"/>
<path d="M695.925 63.8581L691.293 59.2188L671.211 79.3341L675.843 83.9734L695.925 63.8581Z" fill="#DB8080"/>
<path d="M737.946 12.4367L731.469 11.459L727.237 39.5888L733.714 40.5665L737.946 12.4367Z" fill="#AFD697"/>
<path d="M746.325 33.1208L740.297 35.6875L751.407 61.8677L757.435 59.3009L746.325 33.1208Z" fill="#FFF8EE"/>
<path d="M764.23 91.2196L768.695 96.0195L789.473 76.6257L785.007 71.8258L764.23 91.2196Z" fill="#FFF8EE"/>
<path d="M786.375 21.3868L792.16 24.4629L805.476 -0.664005L799.69 -3.74013L786.375 21.3868Z" fill="#DB8080"/>
<path d="M786.516 94.128L789.078 100.166L815.215 89.037L812.652 82.999L786.516 94.128Z" fill="#AFD697"/>
<path d="M800.309 76.1401L806.742 74.9062L801.401 46.9664L794.968 48.2003L800.309 76.1401Z" fill="#FFF8EE"/>
<path d="M823.117 89.6864L827.582 94.4863L848.359 75.0925L843.894 70.2926L823.117 89.6864Z" fill="#FFF8EE"/>
<path d="M769.077 40.6049L764.445 45.2441L784.527 65.3595L789.159 60.7202L769.077 40.6049Z" fill="#DB8080"/>
<path d="M763.967 -17.444L759.336 -12.8047L779.418 7.31067L784.049 2.6714L763.967 -17.444Z" fill="#FFF8EE"/>
<path d="M783.514 36.5642L786.789 42.2461L811.384 28.0224L808.109 22.3405L783.514 36.5642Z" fill="#FFF8EE"/>
<path d="M767.101 29.5208L772.219 25.4258L754.493 3.19974L749.375 7.29476L767.101 29.5208Z" fill="#FFF8EE"/>
<path d="M816.909 47.1674L812.278 51.8066L832.359 71.922L836.991 67.2827L816.909 47.1674Z" fill="#DB8080"/>
<path d="M829.981 8.91715L823.504 7.93945L819.272 36.0692L825.749 37.0469L829.981 8.91715Z" fill="#AFD697"/>
<path d="M838.372 29.6169L832.344 32.1836L843.454 58.3638L849.482 55.797L838.372 29.6169Z" fill="#FFF8EE"/>
<path d="M1011.08 69.5482L1004.98 67.1543L994.618 93.6404L1000.72 96.0344L1011.08 69.5482Z" fill="#AFD697"/>
<path d="M975.856 45.3038L971.391 40.5039L950.613 59.8977L955.079 64.6977L975.856 45.3038Z" fill="#FFF8EE"/>
<path d="M1001.54 22.5957L995.754 19.5195L982.438 44.6464L988.224 47.7226L1001.54 22.5957Z" fill="#DB8080"/>
<path d="M958.679 71.8227L952.246 73.0566L957.587 100.996L964.02 99.7626L958.679 71.8227Z" fill="#DB8080"/>
<path d="M1018.84 66.5338L1023.47 61.8945L1003.39 41.7792L998.755 46.4184L1018.84 66.5338Z" fill="#FFF8EE"/>
<path d="M1004.41 7.39091L1001.13 1.70898L976.538 15.9327L979.813 21.6146L1004.41 7.39091Z" fill="#FFF8EE"/>
<path d="M1018.79 11.3686L1012.29 12.2227L1015.99 40.428L1022.48 39.5739L1018.79 11.3686Z" fill="#FFF8EE"/>
<path d="M956.816 34.0862L963.301 35.0703L967.561 6.90738L961.076 5.92324L956.816 34.0862Z" fill="#AFD697"/>
<path d="M978.148 85.45L984.625 86.4277L988.857 58.298L982.38 57.3203L978.148 85.45Z" fill="#FFF8EE"/>
<path d="M949.554 14.3539L955.582 11.7871L944.472 -14.393L938.444 -11.8263L949.554 14.3539Z" fill="#FFF8EE"/>
<path d="M912.786 69.5404L906.688 67.1465L896.325 93.6326L902.423 96.0265L912.786 69.5404Z" fill="#AFD697"/>
<path d="M883.817 48.8097L879.352 44.0098L858.574 63.4036L863.04 68.2036L883.817 48.8097Z" fill="#FFF8EE"/>
<path d="M909.5 26.0996L903.715 23.0234L890.399 48.1503L896.185 51.2265L909.5 26.0996Z" fill="#DB8080"/>
<path d="M941.449 83.9365L938.887 77.8984L912.75 89.0274L915.313 95.0655L941.449 83.9365Z" fill="#FFF8EE"/>
<path d="M866.628 75.3364L860.195 76.5703L865.536 104.51L871.97 103.276L866.628 75.3364Z" fill="#DB8080"/>
<path d="M926.802 6.88341L931.434 2.24414L911.352 -17.8712L906.72 -13.2319L926.802 6.88341Z" fill="#DB8080"/>
<path d="M931.904 64.9303L936.535 60.291L916.453 40.1757L911.822 44.815L931.904 64.9303Z" fill="#FFF8EE"/>
<path d="M912.357 10.9143L909.082 5.23242L884.487 19.4561L887.762 25.1381L912.357 10.9143Z" fill="#FFF8EE"/>
<path d="M928.766 17.9577L923.648 22.0527L941.374 44.2788L946.492 40.1838L928.766 17.9577Z" fill="#FFF8EE"/>
<path d="M865.89 38.5555L872.367 39.5332L876.599 11.4034L870.122 10.4257L865.89 38.5555Z" fill="#AFD697"/>
<path d="M879.328 88.952L885.805 89.9297L890.037 61.7999L883.56 60.8222L879.328 88.952Z" fill="#FFF8EE"/>
<path d="M853.456 24.723L859.484 22.1562L848.374 -4.02391L842.346 -1.45719L853.456 24.723Z" fill="#FFF8EE"/>
<path d="M1064.4 2.82113L1068.87 7.62109L1089.64 -11.7727L1085.18 -16.5727L1064.4 2.82113Z" fill="#FFF8EE"/>
<path d="M1038.71 18.7481L1044.5 21.8242L1057.82 -3.30268L1052.03 -6.37883L1038.71 18.7481Z" fill="#DB8080"/>
<path d="M1038.85 98.2765L1041.41 104.314L1067.55 93.1855L1064.99 87.1475L1038.85 98.2765Z" fill="#AFD697"/>
<path d="M1054.83 82.4712L1061.25 81.2246L1055.86 53.3461L1049.44 54.5927L1054.83 82.4712Z" fill="#FFF8EE"/>
<path d="M1075.47 93.8172L1079.94 98.6172L1100.71 79.2234L1096.25 74.4234L1075.47 93.8172Z" fill="#FFF8EE"/>
<path d="M1035.94 36.5244L1039.22 42.2324L1063.93 28.0087L1060.65 22.3007L1035.94 36.5244Z" fill="#FFF8EE"/>
<path d="M1069.25 51.3099L1064.62 55.9492L1084.7 76.0646L1089.33 71.4253L1069.25 51.3099Z" fill="#DB8080"/>
<path d="M1019.27 88.4227L1024.94 91.7031L1039.14 67.0669L1033.47 63.7865L1019.27 88.4227Z" fill="#DB8080"/>
<path d="M1082.31 13.0793L1075.83 12.1016L1071.6 40.2313L1078.07 41.2091L1082.31 13.0793Z" fill="#AFD697"/>
<path d="M1090.71 33.7653L1084.68 36.332L1095.79 62.5122L1101.82 59.9454L1090.71 33.7653Z" fill="#FFF8EE"/>
<path d="M1108.62 91.8525L1113.08 96.6523L1133.86 77.2585L1129.39 72.4586L1108.62 91.8525Z" fill="#FFF8EE"/>
<path d="M1130.75 22.0079L1136.54 25.084L1149.85 -0.0429084L1144.07 -3.119L1130.75 22.0079Z" fill="#DB8080"/>
<path d="M1130.89 94.7686L1133.46 100.807L1159.59 89.6776L1157.03 83.6396L1130.89 94.7686Z" fill="#AFD697"/>
<path d="M1144.7 76.8062L1151.13 75.5723L1145.79 47.6325L1139.35 48.8664L1144.7 76.8062Z" fill="#FFF8EE"/>
<path d="M1167.52 90.3017L1171.99 95.1016L1192.77 75.7077L1188.3 70.9079L1167.52 90.3017Z" fill="#FFF8EE"/>
<path d="M1113.46 41.2436L1108.82 45.8828L1128.91 65.9982L1133.54 61.3589L1113.46 41.2436Z" fill="#DB8080"/>
<path d="M1108.34 -16.815L1103.71 -12.1758L1123.79 7.93958L1128.42 3.30035L1108.34 -16.815Z" fill="#FFF8EE"/>
<path d="M1127.89 37.2068L1131.16 42.8887L1155.76 28.665L1152.48 22.9831L1127.89 37.2068Z" fill="#FFF8EE"/>
<path d="M1111.49 30.1595L1116.61 26.0645L1098.88 3.83841L1093.76 7.93347L1111.49 30.1595Z" fill="#FFF8EE"/>
<path d="M1161.29 47.7904L1156.66 52.4297L1176.74 72.545L1181.37 67.9057L1161.29 47.7904Z" fill="#DB8080"/>
<path d="M1174.35 9.56755L1167.88 8.58984L1163.64 36.7196L1170.12 37.6973L1174.35 9.56755Z" fill="#AFD697"/>
<path d="M1182.74 30.2516L1176.71 32.8184L1187.82 58.9985L1193.85 56.4318L1182.74 30.2516Z" fill="#FFF8EE"/>
<path d="M1355.43 70.1986L1349.34 67.8047L1338.97 94.2908L1345.07 96.6848L1355.43 70.1986Z" fill="#AFD697"/>
<path d="M1320.21 45.9425L1315.74 41.1426L1294.96 60.5364L1299.43 65.3364L1320.21 45.9425Z" fill="#FFF8EE"/>
<path d="M1345.91 23.2226L1340.12 20.1465L1326.81 45.2734L1332.59 48.3495L1345.91 23.2226Z" fill="#DB8080"/>
<path d="M1303.05 72.4263L1296.62 73.6602L1301.96 101.6L1308.39 100.366L1303.05 72.4263Z" fill="#DB8080"/>
<path d="M1363.22 67.1764L1367.85 62.5371L1347.77 42.4217L1343.13 47.0611L1363.22 67.1764Z" fill="#FFF8EE"/>
<path d="M1348.77 8.03354L1345.5 2.35156L1320.9 16.5753L1324.18 22.2572L1348.77 8.03354Z" fill="#FFF8EE"/>
<path d="M1363.16 11.9935L1356.66 12.8477L1360.36 41.053L1366.86 40.1989L1363.16 11.9935Z" fill="#FFF8EE"/>
<path d="M1300.8 34.3576L1307.28 35.3418L1311.54 7.17886L1305.06 6.19471L1300.8 34.3576Z" fill="#AFD697"/>
<path d="M1322.53 86.0711L1329 87.0488L1333.24 58.919L1326.76 57.9413L1322.53 86.0711Z" fill="#FFF8EE"/>
<path d="M1293.92 14.9906L1299.95 12.4238L1288.84 -13.7563L1282.81 -11.1896L1293.92 14.9906Z" fill="#FFF8EE"/>
<path d="M1257.14 70.1908L1251.04 67.7969L1240.68 94.283L1246.78 96.6769L1257.14 70.1908Z" fill="#AFD697"/>
<path d="M1228.17 49.4543L1223.71 44.6543L1202.93 64.0481L1207.4 68.8481L1228.17 49.4543Z" fill="#FFF8EE"/>
<path d="M1253.86 26.746L1248.08 23.6699L1234.76 48.7968L1240.55 51.8729L1253.86 26.746Z" fill="#DB8080"/>
<path d="M1285.83 84.5576L1283.27 78.5195L1257.13 89.6485L1259.7 95.6866L1285.83 84.5576Z" fill="#FFF8EE"/>
<path d="M1211.02 75.9497L1204.58 77.1836L1209.92 105.123L1216.36 103.889L1211.02 75.9497Z" fill="#DB8080"/>
<path d="M1271.17 7.50837L1275.8 2.86914L1255.72 -17.2462L1251.09 -12.607L1271.17 7.50837Z" fill="#DB8080"/>
<path d="M1276.29 65.5689L1280.92 60.9297L1260.84 40.8143L1256.2 45.4536L1276.29 65.5689Z" fill="#FFF8EE"/>
<path d="M1256.74 11.551L1253.47 5.86914L1228.87 20.0928L1232.15 25.7747L1256.74 11.551Z" fill="#FFF8EE"/>
<path d="M1273.13 18.5827L1268.01 22.6777L1285.74 44.9038L1290.86 40.8087L1273.13 18.5827Z" fill="#FFF8EE"/>
<path d="M1210.28 39.1766L1216.76 40.1543L1220.99 12.0245L1214.51 11.0468L1210.28 39.1766Z" fill="#AFD697"/>
<path d="M1223.7 89.5809L1230.18 90.5586L1234.41 62.4288L1227.93 61.4511L1223.7 89.5809Z" fill="#FFF8EE"/>
<path d="M1197.82 25.3519L1203.85 22.7852L1192.74 -3.395L1186.71 -0.828306L1197.82 25.3519Z" fill="#FFF8EE"/>
<path d="M1403.59 0.684413L1408.05 5.48438L1428.83 -13.9094L1424.36 -18.7094L1403.59 0.684413Z" fill="#FFF8EE"/>
<path d="M1377.89 16.6329L1383.67 19.709L1396.99 -5.41791L1391.2 -8.494L1377.89 16.6329Z" fill="#DB8080"/>
<path d="M1378.03 96.1709L1380.59 102.209L1406.73 91.08L1404.17 85.0419L1378.03 96.1709Z" fill="#AFD697"/>
<path d="M1392.95 59.436L1387.73 55.4766L1370.59 78.1598L1375.81 82.1192L1392.95 59.436Z" fill="#FFF8EE"/>
<path d="M1414.66 91.6884L1419.12 96.4883L1439.9 77.0945L1435.44 72.2946L1414.66 91.6884Z" fill="#FFF8EE"/>
<path d="M1375.1 33.0655L1378.38 38.7734L1403.09 24.5497L1399.81 18.8418L1375.1 33.0655Z" fill="#FFF8EE"/>
<path d="M1408.42 49.1947L1403.79 53.834L1423.87 73.9493L1428.51 69.31L1408.42 49.1947Z" fill="#DB8080"/>
<path d="M1421.48 10.9816L1415.01 10.0039L1410.78 38.1337L1417.25 39.1114L1421.48 10.9816Z" fill="#AFD697"/>
<path d="M1429.88 31.6521L1423.86 34.2188L1434.97 60.3989L1440.99 57.8322L1429.88 31.6521Z" fill="#FFF8EE"/>
<path d="M1447.8 89.7157L1452.27 94.5156L1473.04 75.1218L1468.58 70.3218L1447.8 89.7157Z" fill="#FFF8EE"/>
<path d="M1469.93 19.8965L1475.72 22.9727L1489.03 -2.15424L1483.25 -5.23039L1469.93 19.8965Z" fill="#DB8080"/>
<path d="M1470.06 92.6436L1472.62 98.6816L1498.76 87.5526L1496.2 81.5146L1470.06 92.6436Z" fill="#AFD697"/>
<path d="M1483.86 74.7144L1490.3 73.4805L1484.96 45.5407L1478.52 46.7746L1483.86 74.7144Z" fill="#FFF8EE"/>
<path d="M1506.71 88.1727L1511.18 92.9727L1531.96 73.5788L1527.49 68.7789L1506.71 88.1727Z" fill="#FFF8EE"/>
<path d="M1452.63 39.1302L1448 43.7695L1468.08 63.8849L1472.71 59.2456L1452.63 39.1302Z" fill="#DB8080"/>
<path d="M1447.51 -18.9186L1442.88 -14.2793L1462.96 5.83606L1467.59 1.19674L1447.51 -18.9186Z" fill="#FFF8EE"/>
<path d="M1467.06 35.0973L1470.34 40.7793L1494.93 26.5556L1491.66 20.8736L1467.06 35.0973Z" fill="#FFF8EE"/>
<path d="M1450.68 28.0637L1455.79 23.9688L1438.07 1.74271L1432.95 5.83769L1450.68 28.0637Z" fill="#FFF8EE"/>
<path d="M1500.46 45.685L1495.82 50.3242L1515.91 70.4396L1520.54 65.8003L1500.46 45.685Z" fill="#DB8080"/>
<path d="M1513.53 7.47182L1507.05 6.49414L1502.82 34.6239L1509.3 35.6016L1513.53 7.47182Z" fill="#AFD697"/>
<path d="M1521.91 28.1384L1515.89 30.7051L1527 56.8852L1533.03 54.3185L1521.91 28.1384Z" fill="#FFF8EE"/>
<path d="M1694.61 68.1107L1688.51 65.7168L1678.15 92.2029L1684.25 94.5968L1694.61 68.1107Z" fill="#AFD697"/>
<path d="M1659.38 43.8507L1654.91 39.0508L1634.13 58.4446L1638.6 63.2445L1659.38 43.8507Z" fill="#FFF8EE"/>
<path d="M1685.09 21.121L1679.3 18.0449L1665.99 43.1718L1671.77 46.2479L1685.09 21.121Z" fill="#DB8080"/>
<path d="M1642.21 70.2935L1635.78 71.5273L1641.12 99.4671L1647.56 98.2333L1642.21 70.2935Z" fill="#DB8080"/>
<path d="M1702.38 65.0611L1707.01 60.4219L1686.93 40.3065L1682.3 44.9457L1702.38 65.0611Z" fill="#FFF8EE"/>
<path d="M1687.95 5.92612L1684.67 0.244141L1660.08 14.4678L1663.35 20.1498L1687.95 5.92612Z" fill="#FFF8EE"/>
<path d="M1702.34 9.86466L1695.84 10.7188L1699.54 38.9241L1706.04 38.07L1702.34 9.86466Z" fill="#FFF8EE"/>
<path d="M1639.57 31.8948L1646.05 32.8789L1650.31 4.71597L1643.83 3.73184L1639.57 31.8948Z" fill="#AFD697"/>
<path d="M1661.7 83.9403L1668.18 84.918L1672.41 56.7882L1665.94 55.8105L1661.7 83.9403Z" fill="#FFF8EE"/>
<path d="M1633.1 12.8675L1639.12 10.3008L1628.01 -15.8794L1621.99 -13.3127L1633.1 12.8675Z" fill="#FFF8EE"/>
<path d="M1596.3 68.1088L1590.2 65.7148L1579.84 92.201L1585.94 94.5949L1596.3 68.1088Z" fill="#AFD697"/>
<path d="M1567.32 47.3566L1562.86 42.5566L1542.08 61.9505L1546.54 66.7504L1567.32 47.3566Z" fill="#FFF8EE"/>
<path d="M1593.04 24.6289L1587.25 21.5527L1573.93 46.6796L1579.72 49.7558L1593.04 24.6289Z" fill="#DB8080"/>
<path d="M1625 82.4463L1622.44 76.4082L1596.3 87.5372L1598.86 93.5753L1625 82.4463Z" fill="#FFF8EE"/>
<path d="M1550.18 73.8169L1543.74 75.0508L1549.08 102.991L1555.52 101.757L1550.18 73.8169Z" fill="#DB8080"/>
<path d="M1610.34 5.39713L1614.98 0.757812L1594.89 -19.3575L1590.26 -14.7182L1610.34 5.39713Z" fill="#DB8080"/>
<path d="M1615.46 63.4479L1620.09 58.8086L1600.01 38.6932L1595.38 43.3326L1615.46 63.4479Z" fill="#FFF8EE"/>
<path d="M1595.92 9.43198L1592.64 3.75L1568.05 17.9737L1571.32 23.6557L1595.92 9.43198Z" fill="#FFF8EE"/>
<path d="M1612.31 16.4596L1607.19 20.5547L1624.91 42.7807L1630.03 38.6857L1612.31 16.4596Z" fill="#FFF8EE"/>
<path d="M1549.45 37.0477L1555.93 38.0254L1560.16 9.8956L1553.68 8.9179L1549.45 37.0477Z" fill="#AFD697"/>
<path d="M1562.88 87.452L1569.36 88.4297L1573.59 60.2999L1567.11 59.3222L1562.88 87.452Z" fill="#FFF8EE"/>
<path d="M1537 23.2386L1543.03 20.6719L1531.92 -5.50828L1525.89 -2.94154L1537 23.2386Z" fill="#FFF8EE"/>
<path d="M1747.98 1.3016L1752.45 6.10156L1773.23 -13.2923L1768.76 -18.0922L1747.98 1.3016Z" fill="#FFF8EE"/>
<path d="M1722.27 17.2579L1728.05 20.334L1741.37 -4.79291L1735.58 -7.869L1722.27 17.2579Z" fill="#DB8080"/>
<path d="M1722.39 96.792L1724.96 102.83L1751.09 91.7011L1748.53 85.663L1722.39 96.792Z" fill="#AFD697"/>
<path d="M1739.86 82.356L1746.28 81.1094L1740.89 53.2309L1734.47 54.4775L1739.86 82.356Z" fill="#FFF8EE"/>
<path d="M1759.05 92.3076L1763.52 97.1074L1784.29 77.7136L1779.83 72.9137L1759.05 92.3076Z" fill="#FFF8EE"/>
<path d="M1719.48 32.3292L1722.76 38.0371L1747.47 23.8134L1744.19 18.1055L1719.48 32.3292Z" fill="#FFF8EE"/>
<path d="M1752.79 49.8255L1748.16 54.4648L1768.24 74.5802L1772.87 69.9409L1752.79 49.8255Z" fill="#DB8080"/>
<path d="M1702.82 86.9383L1708.5 90.2188L1722.7 65.5826L1717.02 62.3021L1702.82 86.9383Z" fill="#DB8080"/>
<path d="M1765.86 11.634L1759.38 10.6562L1755.15 38.786L1761.62 39.7637L1765.86 11.634Z" fill="#AFD697"/>
<path d="M1774.25 32.2907L1768.22 34.8574L1779.33 61.0376L1785.36 58.4708L1774.25 32.2907Z" fill="#FFF8EE"/>
<path d="M1792.21 90.3329L1796.67 95.1328L1817.45 75.739L1812.98 70.939L1792.21 90.3329Z" fill="#FFF8EE"/>
<path d="M1814.3 20.5313L1820.09 23.6074L1833.41 -1.51947L1827.62 -4.59562L1814.3 20.5313Z" fill="#DB8080"/>
<path d="M1814.44 93.2842L1817 99.3223L1843.14 88.1933L1840.57 82.1552L1814.44 93.2842Z" fill="#AFD697"/>
<path d="M1828.25 75.3804L1834.68 74.1465L1829.34 46.2067L1822.91 47.4406L1828.25 75.3804Z" fill="#FFF8EE"/>
<path d="M1851.09 88.7899L1855.56 93.5898L1876.34 74.196L1871.87 69.3961L1851.09 88.7899Z" fill="#FFF8EE"/>
<path d="M1797 39.7611L1792.37 44.4004L1812.45 64.5158L1817.08 59.8764L1797 39.7611Z" fill="#DB8080"/>
<path d="M1791.89 -18.2897L1787.26 -13.6504L1807.34 6.46497L1811.98 1.82565L1791.89 -18.2897Z" fill="#FFF8EE"/>
<path d="M1811.44 35.7282L1814.71 41.4102L1839.31 27.1865L1836.03 21.5045L1811.44 35.7282Z" fill="#FFF8EE"/>
<path d="M1795.06 28.7044L1800.18 24.6094L1782.45 2.38334L1777.33 6.47832L1795.06 28.7044Z" fill="#FFF8EE"/>
<path d="M1844.83 46.308L1840.2 50.9473L1860.28 71.0626L1864.92 66.4234L1844.83 46.308Z" fill="#DB8080"/>
<path d="M1857.9 8.13198L1851.42 7.1543L1847.19 35.2841L1853.67 36.2618L1857.9 8.13198Z" fill="#AFD697"/>
<path d="M1866.3 28.7829L1860.27 31.3496L1871.38 57.5298L1877.41 54.9631L1866.3 28.7829Z" fill="#FFF8EE"/>
<path d="M1911.69 48.003L1907.22 43.2031L1886.45 62.5969L1890.91 67.3968L1911.69 48.003Z" fill="#FFF8EE"/>
<path d="M1937.42 25.2617L1931.64 22.1855L1918.32 47.3124L1924.11 50.3886L1937.42 25.2617Z" fill="#DB8080"/>
<path d="M1894.54 74.4223L1888.11 75.6562L1893.45 103.596L1899.88 102.362L1894.54 74.4223Z" fill="#DB8080"/>
<path d="M1940.28 10.0667L1937 4.38477L1912.4 18.6085L1915.68 24.2905L1940.28 10.0667Z" fill="#FFF8EE"/>
<path d="M1893.82 37.6668L1900.3 38.6445L1904.53 10.5148L1898.06 9.53707L1893.82 37.6668Z" fill="#AFD697"/>
<path d="M1907.25 88.0711L1913.73 89.0488L1917.96 60.919L1911.48 59.9413L1907.25 88.0711Z" fill="#FFF8EE"/>
<path d="M1881.38 23.8714L1887.41 21.3047L1876.3 -4.87547L1870.27 -2.30878L1881.38 23.8714Z" fill="#FFF8EE"/>
</g>
<defs>
<clipPath id="clip0_81_1198">
<rect width="1920" height="96" fill="white"/>
</clipPath>
</defs>
</svg>
