<svg width="755" height="589" viewBox="0 0 755 589" fill="none" xmlns="http://www.w3.org/2000/svg">
<path d="M656.214 582.863C593.444 592.176 528.767 588.303 396.645 578.545C322.452 573.056 173.262 582.137 98.7981 582.863C44.5086 583.386 0.5 535.282 0.5 476.588V110.56C0.5 51.8655 44.6054 0.828707 98.7981 4.28473C149.138 7.48905 223.157 20.1805 300.331 12.4165C392.114 3.17144 566.329 -4.68931 656.224 4.28473C710.3 9.67689 754.512 51.8655 754.512 110.56V476.588C754.512 535.282 709.991 574.867 656.214 582.863Z" fill="#343249"/>
<path d="M333.922 525.478C324.474 525.478 313.37 524.964 306.555 524.403C300.842 524.058 295.111 524.184 289.42 524.781C287.755 524.916 286.177 525.052 284.773 525.119C283.324 525.196 281.874 524.979 280.511 524.479C279.148 523.98 277.901 523.21 276.844 522.215C275.901 521.34 275.145 520.281 274.622 519.105C274.1 517.928 273.822 516.658 273.805 515.371V482.892C273.816 481.671 274.07 480.465 274.552 479.343C275.034 478.221 275.734 477.206 276.612 476.358C278.774 474.274 281.665 473.121 284.666 473.144H284.763C287.387 473.144 290.911 473.269 294.638 473.376C302.576 473.599 311.579 473.86 316.981 473.531C317.846 473.498 318.696 473.287 319.477 472.912C320.258 472.538 320.953 472.007 321.521 471.353L331.366 459.445V469C331.371 469.449 331.465 469.892 331.645 470.302C331.825 470.713 332.086 471.084 332.412 471.391C333.291 472.234 334.466 472.697 335.684 472.679C338.831 472.624 341.978 472.782 345.103 473.153C351.628 473.947 356.023 477.858 356.023 482.892V515.381C356.023 520.502 351.425 524.606 345.084 525.119C342.093 525.381 338.172 525.478 333.922 525.478Z" fill="#AEC5C2"/>
<path d="M615.044 87.4135C593.378 85.8065 551.393 87.2199 529.273 88.8753C510.676 90.2694 492.834 87.9944 480.704 87.4135C467.645 86.794 457.016 95.9423 457.016 106.465V172.033C457.016 182.556 467.664 191.181 480.704 191.084C498.652 190.959 534.607 189.332 552.487 190.31C558.063 190.62 563.136 190.891 567.802 191.123C570.705 191.273 573.537 192.079 576.086 193.479C578.634 194.878 580.832 196.837 582.517 199.207L595.702 217.658V202.779C595.698 199.974 596.772 197.275 598.701 195.239C600.631 193.203 603.269 191.986 606.07 191.84C609.168 191.685 612.12 191.452 615.063 191.123C628.026 189.69 638.752 182.594 638.752 172.071V106.465C638.733 95.9423 628.074 88.3816 615.044 87.4135Z" fill="#7B9DCA"/>
<path d="M379.472 71.6825C369.637 70.9564 350.575 71.5954 340.536 72.3408C332.085 72.9797 323.992 71.9439 318.484 71.6825C312.549 71.4017 307.719 75.5548 307.719 80.337V110.125C307.719 114.897 312.559 118.837 318.484 118.77C326.625 118.711 342.957 117.976 351.069 118.421L358.029 118.789C359.345 118.854 360.628 119.216 361.784 119.848C362.939 120.48 363.936 121.366 364.699 122.439L370.682 130.822V124.046C370.683 122.772 371.172 121.546 372.049 120.622C372.926 119.699 374.124 119.146 375.397 119.079C376.8 119.012 378.136 118.905 379.472 118.75C385.358 118.102 390.228 114.878 390.228 110.105V80.337C390.228 75.5548 385.387 72.1181 379.472 71.6825Z" fill="#AEC5C2"/>
<path d="M142.121 148.8C132.285 148.074 113.224 148.713 103.176 149.458C94.7339 150.097 86.6312 149.061 81.1228 148.8C75.2466 148.509 70.4062 152.672 70.4062 157.445V187.232C70.4062 192.005 75.2466 195.945 81.1615 195.877C89.3127 195.819 105.634 195.083 113.757 195.529C116.283 195.674 118.597 195.79 120.707 195.896C122.023 195.964 123.307 196.327 124.464 196.959C125.62 197.591 126.619 198.475 127.387 199.546L133.37 207.93V201.153C133.37 199.881 133.858 198.657 134.733 197.733C135.608 196.809 136.804 196.256 138.075 196.187C139.478 196.119 140.824 196.013 142.16 195.858C148.046 195.209 152.915 191.985 152.915 187.213V157.445C152.876 152.672 148.036 149.235 142.121 148.8Z" fill="#AEC5C2"/>
<path d="M487.141 128.886C487.139 128.579 487.251 128.283 487.454 128.054C487.658 127.825 487.94 127.68 488.244 127.646C489.688 127.491 491.139 127.414 492.591 127.414C495.166 127.414 496.744 127.656 498.128 128.46C498.807 128.804 499.376 129.332 499.768 129.985C500.16 130.637 500.36 131.387 500.345 132.148C500.32 133.047 500.009 133.915 499.457 134.625C498.905 135.335 498.141 135.851 497.276 136.098V136.156C498.328 136.371 499.272 136.944 499.948 137.777C500.624 138.61 500.99 139.652 500.984 140.725C500.989 141.494 500.818 142.254 500.482 142.945C500.146 143.637 499.655 144.242 499.048 144.714C497.693 145.788 495.418 146.398 491.71 146.398C490.316 146.398 489.164 146.34 488.273 146.253C487.964 146.224 487.677 146.081 487.468 145.852C487.258 145.623 487.142 145.324 487.141 145.014V128.886ZM491.323 133.726C491.323 133.889 491.355 134.051 491.418 134.202C491.481 134.353 491.573 134.49 491.689 134.606C491.805 134.721 491.943 134.812 492.094 134.873C492.246 134.935 492.408 134.966 492.572 134.965H492.707C494.943 134.965 496.115 134.055 496.115 132.671C496.115 131.286 495.03 130.512 493.123 130.512H492.533C492.209 130.519 491.901 130.653 491.675 130.885C491.449 131.117 491.323 131.427 491.323 131.751V133.726ZM491.323 142.051C491.321 142.215 491.353 142.377 491.414 142.528C491.476 142.68 491.567 142.818 491.682 142.934C491.797 143.05 491.934 143.142 492.085 143.205C492.236 143.268 492.398 143.3 492.562 143.3H492.959C494.895 143.3 496.55 142.555 496.55 140.59C496.55 138.624 494.866 137.985 492.765 137.985H492.572C492.24 137.985 491.923 138.117 491.689 138.351C491.454 138.585 491.323 138.903 491.323 139.234V142.051Z" fill="white"/>
<path d="M520.938 136.681C520.938 142.828 517.26 146.507 511.78 146.507C506.301 146.507 503 142.334 503 136.991C503 131.395 506.601 127.223 512.081 127.223C517.812 127.223 520.938 131.511 520.938 136.681ZM507.463 136.903C507.463 140.592 509.176 143.157 512.003 143.157C514.83 143.157 516.485 140.447 516.485 136.826C516.485 133.447 514.907 130.572 512.003 130.572C509.099 130.572 507.463 133.312 507.463 136.903Z" fill="white"/>
<path d="M523.707 144.928V128.8C523.707 128.468 523.839 128.151 524.073 127.917C524.307 127.682 524.625 127.551 524.956 127.551H527.908C528.128 127.552 528.344 127.61 528.535 127.721C528.725 127.831 528.883 127.99 528.993 128.18L532.507 134.385C533.649 136.456 534.667 138.593 535.556 140.784C535.314 138.316 535.227 135.799 535.227 132.972V128.8C535.227 128.468 535.359 128.151 535.593 127.917C535.827 127.682 536.145 127.551 536.476 127.551H537.86C538.024 127.551 538.186 127.583 538.337 127.646C538.488 127.709 538.625 127.801 538.74 127.917C538.855 128.033 538.946 128.171 539.008 128.322C539.07 128.474 539.101 128.636 539.099 128.8V144.928C539.101 145.091 539.07 145.253 539.008 145.405C538.946 145.556 538.855 145.694 538.74 145.81C538.625 145.926 538.488 146.018 538.337 146.081C538.186 146.144 538.024 146.176 537.86 146.176H535.411C535.188 146.177 534.969 146.118 534.777 146.006C534.585 145.894 534.426 145.732 534.317 145.538L530.687 138.984C529.482 136.851 528.402 134.65 527.453 132.391H527.337C527.473 134.879 527.531 137.512 527.531 140.562V144.928C527.531 145.259 527.399 145.577 527.165 145.811C526.931 146.045 526.613 146.176 526.282 146.176H524.907C524.585 146.164 524.279 146.027 524.056 145.794C523.832 145.561 523.707 145.251 523.707 144.928Z" fill="white"/>
<path d="M547.664 127.551H549.378C549.709 127.551 550.027 127.682 550.261 127.917C550.495 128.151 550.626 128.468 550.626 128.8V139.342C550.626 144.657 548.071 146.506 544.005 146.506C543.356 146.502 542.709 146.447 542.069 146.341C541.759 146.278 541.486 146.097 541.306 145.838C541.125 145.578 541.052 145.259 541.101 144.947L541.236 143.979C541.258 143.817 541.311 143.66 541.393 143.518C541.476 143.377 541.585 143.253 541.716 143.154C541.846 143.055 541.995 142.982 542.154 142.941C542.312 142.9 542.478 142.891 542.64 142.914C542.961 142.955 543.284 142.975 543.608 142.972C545.38 142.972 546.512 142.169 546.512 139.293V128.8C546.511 128.484 546.629 128.181 546.843 127.949C547.057 127.717 547.35 127.575 547.664 127.551Z" fill="white"/>
<path d="M571.259 136.681C571.259 142.828 567.57 146.507 562.091 146.507C556.612 146.507 553.32 142.334 553.32 136.991C553.32 131.395 556.921 127.223 562.401 127.223C568.132 127.223 571.259 131.511 571.259 136.681ZM557.773 136.903C557.773 140.592 559.497 143.157 562.314 143.157C565.131 143.157 566.796 140.447 566.796 136.826C566.796 133.447 565.218 130.572 562.314 130.572C559.409 130.572 557.773 133.312 557.773 136.903Z" fill="white"/>
<path d="M576.98 127.551C577.311 127.551 577.629 127.682 577.863 127.917C578.097 128.151 578.229 128.468 578.229 128.8V138.258C578.229 141.501 579.478 143.098 581.608 143.098C583.737 143.098 585.034 141.549 585.034 138.258V128.8C585.034 128.468 585.166 128.151 585.4 127.917C585.634 127.682 585.952 127.551 586.283 127.551H587.997C588.328 127.551 588.646 127.682 588.88 127.917C589.114 128.151 589.246 128.468 589.246 128.8V138.016C589.246 143.766 586.341 146.506 581.501 146.506C576.796 146.506 574.047 143.882 574.047 137.958V128.8C574.047 128.468 574.178 128.151 574.413 127.917C574.647 127.682 574.964 127.551 575.296 127.551H576.98Z" fill="white"/>
<path d="M592.896 128.886C592.897 128.58 593.009 128.285 593.213 128.057C593.416 127.828 593.696 127.682 594 127.647C595.501 127.485 597.011 127.407 598.521 127.415C601.29 127.415 603.226 127.831 604.552 128.876C605.131 129.348 605.591 129.95 605.894 130.633C606.197 131.316 606.334 132.061 606.294 132.807C606.277 133.813 605.952 134.79 605.364 135.607C604.776 136.423 603.952 137.041 603.003 137.376V137.463C604.3 137.986 605.026 139.206 605.491 140.919C605.839 142.187 606.178 143.572 606.459 144.637C606.51 144.821 606.517 145.015 606.481 145.202C606.444 145.39 606.365 145.567 606.248 145.719C606.132 145.871 605.982 145.994 605.811 146.078C605.639 146.162 605.45 146.206 605.259 146.205H603.506C603.247 146.206 602.995 146.125 602.784 145.974C602.574 145.822 602.417 145.609 602.335 145.363C602.074 144.588 601.745 143.426 601.367 141.858C600.844 139.506 600.041 138.896 598.298 138.867C597.97 138.864 597.655 138.991 597.419 139.219C597.184 139.447 597.047 139.759 597.04 140.087V144.927C597.04 145.258 596.908 145.576 596.674 145.81C596.44 146.044 596.122 146.176 595.791 146.176H594.136C593.804 146.176 593.487 146.044 593.252 145.81C593.018 145.576 592.887 145.258 592.887 144.927L592.896 128.886ZM597.078 134.578C597.078 134.909 597.21 135.227 597.444 135.461C597.678 135.696 597.996 135.827 598.327 135.827H598.744C600.844 135.827 602.083 134.772 602.083 133.136C602.083 131.5 600.922 130.57 598.986 130.57H598.279C597.957 130.581 597.652 130.716 597.428 130.947C597.203 131.178 597.078 131.488 597.078 131.81V134.578Z" fill="white"/>
<path d="M516.891 423.277C508.343 423.79 495.787 425.833 482.689 424.584C467.113 423.093 437.538 421.825 422.281 423.277C413.114 424.149 405.602 430.944 405.602 440.402V499.387C405.602 508.845 413.153 515.225 422.281 516.512C427.155 517.168 432.07 517.452 436.986 517.364C437.944 517.355 438.893 517.536 439.78 517.896C440.667 518.256 441.474 518.787 442.154 519.461C442.834 520.134 443.375 520.935 443.744 521.818C444.113 522.701 444.304 523.648 444.305 524.605V540.366L458.826 519.968C459.68 518.774 460.788 517.783 462.07 517.067C463.352 516.35 464.777 515.926 466.242 515.825C478.827 514.944 504.151 516.406 516.794 516.522C526.01 516.609 533.474 508.855 533.474 499.397V440.402C533.571 430.944 526.088 422.764 516.891 423.277Z" fill="#B6D1D9"/>
<path d="M85.322 165.379V168.806C85.322 169.155 85.4607 169.49 85.7076 169.737C85.9545 169.984 86.2894 170.123 86.6386 170.123H89.8816C90.2308 170.123 90.5657 169.984 90.8126 169.737C91.0595 169.49 91.1982 169.155 91.1982 168.806V165.379C91.1982 165.032 91.3356 164.698 91.5804 164.452C91.8252 164.205 92.1576 164.065 92.5051 164.063H93.4732C93.8224 164.063 94.1573 164.201 94.4042 164.448C94.6511 164.695 94.7898 165.03 94.7898 165.379V178.516C94.7898 178.689 94.7557 178.86 94.6895 179.02C94.6234 179.179 94.5264 179.325 94.4042 179.447C94.2819 179.569 94.1368 179.666 93.977 179.732C93.8173 179.798 93.6461 179.832 93.4732 179.832H92.5051C92.1576 179.83 91.8252 179.69 91.5804 179.443C91.3356 179.197 91.1982 178.863 91.1982 178.516V174.547C91.1982 174.198 91.0595 173.863 90.8126 173.616C90.5657 173.369 90.2308 173.23 89.8816 173.23H86.6386C86.2894 173.23 85.9545 173.369 85.7076 173.616C85.4607 173.863 85.322 174.198 85.322 174.547V178.516C85.3233 178.688 85.2904 178.859 85.2253 179.019C85.1602 179.179 85.0642 179.324 84.9427 179.446C84.8212 179.569 84.6767 179.666 84.5175 179.732C84.3583 179.798 84.1876 179.832 84.0151 179.832H83.047C82.8742 179.832 82.703 179.798 82.5432 179.732C82.3835 179.666 82.2383 179.569 82.1161 179.447C81.9938 179.325 81.8969 179.179 81.8307 179.02C81.7645 178.86 81.7305 178.689 81.7305 178.516V165.379C81.7305 165.206 81.7645 165.035 81.8307 164.875C81.8969 164.716 81.9938 164.57 82.1161 164.448C82.2383 164.326 82.3835 164.229 82.5432 164.163C82.703 164.097 82.8742 164.063 83.047 164.063H84.0151C84.1876 164.062 84.3583 164.097 84.5175 164.163C84.6767 164.229 84.8212 164.326 84.9427 164.449C85.0642 164.571 85.1602 164.716 85.2253 164.876C85.2904 165.036 85.3233 165.207 85.322 165.379Z" fill="white"/>
<path d="M112.293 171.791C112.293 176.98 109.176 180.087 104.548 180.087C99.9209 180.087 97.1328 176.554 97.1328 172.043C97.1328 167.319 100.173 163.785 104.81 163.785C109.65 163.785 112.293 167.415 112.293 171.791ZM100.899 171.975C100.899 175.083 102.351 177.261 104.771 177.261C107.191 177.261 108.566 174.966 108.566 171.907C108.566 169.051 107.23 166.622 104.771 166.622C102.312 166.622 100.899 168.906 100.899 171.975Z" fill="white"/>
<path d="M115.964 164.062H116.932C117.281 164.062 117.616 164.201 117.863 164.448C118.109 164.695 118.248 165.03 118.248 165.379V175.524C118.248 175.871 118.386 176.204 118.631 176.449C118.876 176.694 119.208 176.831 119.555 176.831H123.205C123.552 176.834 123.885 176.974 124.129 177.22C124.374 177.467 124.512 177.8 124.512 178.148V178.516C124.512 178.863 124.374 179.197 124.129 179.443C123.885 179.69 123.552 179.83 123.205 179.832H116.002C115.83 179.832 115.659 179.798 115.5 179.732C115.341 179.666 115.196 179.569 115.075 179.446C114.953 179.324 114.857 179.179 114.792 179.019C114.727 178.859 114.694 178.688 114.695 178.516V165.379C114.693 165.037 114.824 164.708 115.061 164.462C115.298 164.216 115.622 164.073 115.964 164.062Z" fill="white"/>
<path d="M130.127 176.75L129.537 178.87C129.461 179.148 129.295 179.393 129.066 179.568C128.837 179.743 128.557 179.838 128.269 179.838H127.368C127.164 179.838 126.962 179.789 126.779 179.697C126.596 179.605 126.437 179.471 126.314 179.307C126.192 179.142 126.11 178.951 126.075 178.749C126.039 178.548 126.051 178.34 126.11 178.144L130.108 165.007C130.183 164.73 130.346 164.485 130.574 164.31C130.801 164.135 131.08 164.04 131.367 164.039H134.106C134.391 164.044 134.667 164.14 134.892 164.315C135.117 164.489 135.28 164.732 135.355 165.007L139.45 178.144C139.511 178.341 139.524 178.549 139.49 178.752C139.455 178.955 139.373 179.148 139.251 179.313C139.128 179.479 138.969 179.614 138.785 179.707C138.601 179.799 138.398 179.848 138.192 179.848H137.098C136.811 179.845 136.533 179.749 136.306 179.575C136.079 179.4 135.915 179.156 135.839 178.88L135.191 176.701C135.115 176.425 134.951 176.181 134.724 176.006C134.496 175.832 134.219 175.736 133.932 175.733H131.396C131.1 175.733 130.813 175.834 130.583 176.018C130.352 176.203 130.191 176.461 130.127 176.75ZM132.635 173.12C132.839 173.121 133.041 173.074 133.224 172.983C133.407 172.892 133.567 172.759 133.689 172.595C133.811 172.431 133.894 172.241 133.929 172.039C133.965 171.838 133.952 171.631 133.893 171.435L133.409 169.78C133.128 168.812 132.848 167.669 132.615 166.74H132.567C132.335 167.708 132.102 168.87 131.841 169.78L131.396 171.455C131.338 171.649 131.327 171.855 131.363 172.054C131.4 172.254 131.482 172.443 131.605 172.605C131.727 172.767 131.886 172.898 132.068 172.987C132.25 173.076 132.451 173.122 132.654 173.12H132.635Z" fill="white"/>
<path d="M180.262 313.069C165.005 311.733 135.431 312.904 119.855 314.269C106.757 315.421 94.1909 313.543 85.6525 313.069C83.51 312.967 81.3689 313.299 79.3579 314.045C77.3468 314.792 75.5072 315.936 73.9495 317.411C72.3917 318.885 71.1479 320.659 70.2927 322.627C69.4375 324.594 68.9885 326.713 68.9727 328.858V383.167C68.9727 391.88 76.4365 399.014 85.6525 398.937C98.2956 398.831 123.611 397.485 136.205 398.298C137.677 398.394 139.112 398.801 140.415 399.491C141.719 400.182 142.861 401.141 143.766 402.306L158.19 420.903V408.124C158.189 407.022 158.405 405.93 158.825 404.911C159.246 403.893 159.863 402.967 160.642 402.186C161.42 401.406 162.345 400.787 163.363 400.364C164.38 399.941 165.472 399.722 166.574 399.721C171.133 399.764 175.69 399.502 180.214 398.937C189.333 397.746 196.894 391.87 196.894 383.167V328.858C196.942 320.146 189.478 313.863 180.262 313.069Z" fill="#6F4975"/>
<path d="M686.403 356.014C671.146 354.678 641.571 355.85 625.995 357.215C612.897 358.367 600.341 356.489 591.793 356.014C589.652 355.913 587.513 356.244 585.503 356.989C583.493 357.734 581.655 358.877 580.097 360.349C578.54 361.822 577.295 363.594 576.439 365.559C575.583 367.523 575.132 369.641 575.113 371.784V426.112C575.113 434.825 582.577 441.96 591.793 441.882C604.436 441.776 629.751 440.43 642.346 441.243H642.394C643.866 441.339 645.301 441.746 646.604 442.437C647.908 443.128 649.05 444.087 649.955 445.251L664.379 463.848V451.069C664.379 448.844 665.262 446.71 666.834 445.134C668.405 443.559 670.538 442.672 672.763 442.666C677.322 442.709 681.879 442.447 686.403 441.882C695.532 440.692 703.083 434.815 703.083 426.112V371.784C703.083 363.072 695.571 356.808 686.403 356.014Z" fill="#6F4975"/>
<path d="M130.505 368.123C131.798 363.197 133.752 358.469 136.313 354.067C136.35 354.005 136.406 353.958 136.473 353.933C136.54 353.909 136.614 353.908 136.681 353.931L138.617 354.618C138.659 354.634 138.696 354.658 138.727 354.689C138.759 354.72 138.783 354.758 138.798 354.799C138.814 354.84 138.821 354.884 138.818 354.928C138.815 354.972 138.803 355.015 138.782 355.054C136.336 359.468 134.463 364.175 133.206 369.062C133.196 369.104 133.178 369.143 133.152 369.176C133.126 369.21 133.093 369.238 133.056 369.258C133.018 369.278 132.977 369.29 132.934 369.293C132.892 369.296 132.849 369.29 132.809 369.275L130.66 368.472C130.596 368.442 130.546 368.39 130.517 368.326C130.489 368.262 130.484 368.19 130.505 368.123ZM132.49 353.883C131.73 351.013 131.126 348.105 130.679 345.17C130.674 345.128 130.677 345.084 130.69 345.043C130.703 345.002 130.724 344.964 130.752 344.932C130.781 344.9 130.816 344.875 130.855 344.857C130.894 344.84 130.936 344.831 130.979 344.831H132.141H150.534C150.583 344.832 150.63 344.822 150.674 344.8C150.717 344.779 150.754 344.747 150.783 344.708C150.811 344.669 150.83 344.624 150.837 344.576C150.845 344.529 150.84 344.48 150.825 344.434C150.103 342.356 149.486 340.243 148.976 338.103C148.961 338.04 148.927 337.984 148.879 337.942C148.83 337.9 148.769 337.875 148.705 337.871C148.636 337.861 148.572 337.829 148.523 337.779C148.475 337.728 148.445 337.663 148.438 337.594C148.431 337.524 148.448 337.455 148.486 337.396C148.524 337.337 148.581 337.293 148.647 337.271L151.231 336.583C151.271 336.573 151.312 336.571 151.352 336.578C151.392 336.584 151.431 336.599 151.465 336.62C151.5 336.642 151.529 336.671 151.552 336.704C151.575 336.738 151.591 336.776 151.599 336.816C153.022 343.234 155.423 349.623 158.376 353.534C158.401 353.567 158.419 353.605 158.429 353.646C158.439 353.686 158.44 353.728 158.433 353.769C158.426 353.81 158.41 353.849 158.387 353.884C158.364 353.918 158.333 353.948 158.298 353.97C157.714 354.37 157.164 354.817 156.653 355.306C156.624 355.337 156.588 355.362 156.549 355.379C156.51 355.396 156.468 355.405 156.425 355.405C156.382 355.405 156.34 355.396 156.301 355.379C156.262 355.362 156.227 355.337 156.198 355.306C154.545 352.95 153.174 350.409 152.112 347.735C152.087 347.682 152.048 347.636 151.998 347.604C151.949 347.571 151.891 347.553 151.832 347.552H145.491C145.411 347.552 145.335 347.583 145.279 347.639C145.222 347.696 145.191 347.772 145.191 347.852V372.053C145.191 372.326 145.299 372.587 145.491 372.779C145.684 372.971 145.945 373.08 146.217 373.08H147.611C148.288 373.08 149.111 373.08 149.992 373.08C150.044 373.08 150.094 373.093 150.139 373.118C150.184 373.143 150.223 373.178 150.25 373.222C150.278 373.265 150.295 373.314 150.299 373.366C150.303 373.417 150.294 373.468 150.273 373.515C149.943 374.238 149.681 374.99 149.489 375.761C149.473 375.829 149.435 375.888 149.38 375.931C149.326 375.973 149.258 375.995 149.189 375.993C143.458 375.993 142.412 375.403 142.412 372.383V347.735C142.412 347.656 142.381 347.58 142.324 347.523C142.268 347.467 142.192 347.435 142.112 347.435H134.203C134.159 347.435 134.116 347.444 134.076 347.462C134.036 347.48 134 347.506 133.972 347.54C133.943 347.573 133.922 347.612 133.91 347.654C133.898 347.696 133.896 347.741 133.903 347.784C134.242 349.826 134.619 351.898 134.929 353.379C134.943 353.459 134.926 353.541 134.881 353.608C134.836 353.675 134.766 353.721 134.687 353.738L132.838 354.096C132.764 354.109 132.688 354.094 132.624 354.055C132.56 354.016 132.512 353.954 132.49 353.883ZM152.103 354.444C153.39 359.633 155.481 364.812 157.911 367.997C157.937 368.032 157.956 368.071 157.965 368.114C157.974 368.156 157.974 368.2 157.965 368.242C157.956 368.284 157.938 368.324 157.912 368.359C157.886 368.393 157.852 368.422 157.814 368.443C157.222 368.767 156.652 369.133 156.111 369.536C156.046 369.584 155.965 369.604 155.886 369.593C155.806 369.582 155.734 369.541 155.685 369.478C153.129 366.109 150.893 360.766 149.557 355.741C149.543 355.683 149.511 355.63 149.466 355.59C149.421 355.55 149.365 355.525 149.305 355.519H149.15C149.087 355.499 149.033 355.46 148.994 355.406C148.955 355.353 148.934 355.289 148.934 355.223C148.934 355.158 148.955 355.094 148.994 355.041C149.033 354.987 149.087 354.948 149.15 354.928L151.725 354.231C151.764 354.218 151.805 354.213 151.846 354.217C151.887 354.221 151.926 354.233 151.962 354.253C151.997 354.273 152.028 354.301 152.053 354.334C152.077 354.367 152.094 354.404 152.103 354.444ZM163.797 375.742H161.551C161.471 375.742 161.395 375.71 161.339 375.654C161.283 375.598 161.251 375.521 161.251 375.442V349.013C161.25 348.942 161.224 348.873 161.179 348.818C161.133 348.764 161.069 348.727 160.999 348.713H160.893C160.829 348.696 160.772 348.659 160.731 348.606C160.69 348.554 160.668 348.489 160.668 348.423C160.668 348.356 160.69 348.292 160.731 348.239C160.772 348.187 160.829 348.149 160.893 348.132L161.28 348.026C161.321 348.013 161.359 347.992 161.392 347.963C161.425 347.935 161.451 347.9 161.469 347.861C161.487 347.821 161.497 347.779 161.498 347.736C161.499 347.692 161.49 347.649 161.474 347.61C160.028 344.504 158.755 341.32 157.659 338.074C157.64 338.013 157.601 337.96 157.549 337.923C157.496 337.886 157.433 337.868 157.369 337.871C157.263 337.886 157.155 337.886 157.05 337.871C156.985 337.854 156.928 337.816 156.888 337.764C156.847 337.711 156.825 337.647 156.825 337.58C156.825 337.514 156.847 337.449 156.888 337.397C156.928 337.344 156.985 337.307 157.05 337.29L159.809 336.457C159.884 336.436 159.966 336.443 160.036 336.479C160.106 336.515 160.16 336.577 160.186 336.651C162.577 344.318 166.285 352.14 170.167 356.864C170.217 356.917 170.244 356.986 170.244 357.058C170.244 357.13 170.217 357.199 170.167 357.252C169.722 357.755 169.131 358.481 168.744 359.023C168.716 359.061 168.68 359.092 168.637 359.113C168.595 359.135 168.549 359.146 168.502 359.146C168.455 359.146 168.408 359.135 168.366 359.113C168.324 359.092 168.288 359.061 168.26 359.023C166.946 357.324 165.743 355.542 164.659 353.689C164.626 353.631 164.574 353.585 164.512 353.559C164.451 353.534 164.382 353.529 164.317 353.547C164.253 353.565 164.196 353.604 164.156 353.658C164.116 353.711 164.095 353.777 164.097 353.844V375.529C164.083 375.598 164.046 375.66 163.991 375.704C163.936 375.749 163.867 375.772 163.797 375.771V375.742Z" fill="white"/>
<path d="M98.3242 354.999V350.159C98.324 350.115 98.3144 350.071 98.2961 350.031C98.2777 349.991 98.251 349.955 98.2178 349.926C94.8614 347.07 91.8613 343.82 89.2824 340.246C89.2458 340.194 89.1955 340.154 89.1372 340.129L88.9436 340.052C88.8949 340.027 88.8541 339.988 88.8256 339.941C88.7971 339.894 88.782 339.841 88.782 339.786C88.782 339.731 88.7971 339.677 88.8256 339.63C88.8541 339.583 88.8949 339.545 88.9436 339.519L90.7249 338.406C90.8055 338.373 90.896 338.373 90.9766 338.406L91.3444 338.522H109.612C109.694 338.522 109.773 338.555 109.831 338.613C109.889 338.671 109.922 338.75 109.922 338.832V340.904C109.922 340.944 109.914 340.984 109.898 341.021C109.882 341.058 109.859 341.092 109.83 341.12C109.802 341.148 109.767 341.169 109.73 341.184C109.692 341.198 109.652 341.205 109.612 341.204H94.1228C94.0662 341.203 94.0106 341.218 93.9622 341.247C93.9138 341.277 93.8748 341.319 93.8495 341.37C93.8242 341.42 93.8137 341.477 93.8192 341.533C93.8248 341.59 93.8461 341.643 93.8808 341.688C95.5946 344.001 97.5409 346.132 99.6892 348.048C99.7177 348.075 99.7513 348.095 99.7878 348.109C99.8244 348.122 99.8633 348.128 99.9022 348.126L100.87 348.068C100.911 348.065 100.952 348.071 100.991 348.085C101.03 348.098 101.065 348.12 101.095 348.148C101.125 348.176 101.149 348.21 101.165 348.248C101.181 348.286 101.19 348.327 101.19 348.368V354.999C101.19 355.081 101.222 355.16 101.28 355.218C101.339 355.276 101.417 355.309 101.5 355.309H111.296C111.337 355.307 111.377 355.314 111.414 355.329C111.452 355.343 111.486 355.365 111.515 355.393C111.544 355.421 111.567 355.455 111.582 355.492C111.598 355.529 111.606 355.569 111.606 355.609V357.768C111.606 357.808 111.598 357.848 111.582 357.885C111.567 357.922 111.544 357.955 111.515 357.983C111.486 358.011 111.452 358.033 111.414 358.048C111.377 358.062 111.337 358.069 111.296 358.068H101.519C101.479 358.066 101.439 358.073 101.401 358.088C101.364 358.102 101.329 358.124 101.3 358.152C101.271 358.18 101.249 358.214 101.233 358.251C101.217 358.288 101.209 358.328 101.209 358.368V372.173C101.209 373.063 101.635 373.063 103.077 373.063C104.171 373.063 105.846 373.063 107.686 372.995C107.737 372.992 107.789 373.003 107.836 373.025C107.882 373.048 107.922 373.083 107.952 373.126C107.981 373.169 107.999 373.219 108.003 373.27C108.007 373.322 107.998 373.374 107.976 373.421C107.648 374.127 107.38 374.859 107.172 375.609C107.155 375.673 107.118 375.73 107.065 375.77C107.013 375.81 106.948 375.832 106.882 375.832C99.573 375.9 98.3242 375.367 98.3242 372.134V358.358C98.3243 358.318 98.3162 358.278 98.3005 358.241C98.2848 358.204 98.2619 358.17 98.233 358.142C98.2041 358.114 98.1698 358.093 98.1323 358.078C98.0947 358.064 98.0547 358.057 98.0144 358.058H88.3821C88.3026 358.058 88.2262 358.026 88.1699 357.97C88.1137 357.914 88.082 357.838 88.082 357.758V355.599C88.082 355.52 88.1137 355.443 88.1699 355.387C88.2262 355.331 88.3026 355.299 88.3821 355.299H98.0144C98.095 355.299 98.1723 355.268 98.2301 355.212C98.288 355.156 98.3217 355.079 98.3242 354.999ZM113.397 345.318H119.525C119.57 345.318 119.615 345.307 119.656 345.287C119.696 345.268 119.732 345.239 119.761 345.204C119.789 345.169 119.81 345.128 119.821 345.084C119.832 345.041 119.834 344.995 119.825 344.95C119.235 342.317 118.692 339.771 118.247 337.506C118.238 337.445 118.209 337.389 118.166 337.345C118.122 337.302 118.066 337.273 118.005 337.264C117.589 337.206 117.395 337.041 117.357 336.78L120.561 336.393C120.636 336.384 120.712 336.404 120.773 336.449C120.834 336.494 120.876 336.56 120.89 336.635C121.384 339.21 121.936 342.085 122.574 345.076C122.588 345.145 122.626 345.208 122.681 345.252C122.735 345.296 122.804 345.32 122.875 345.318H127.163C127.245 345.318 127.324 345.351 127.382 345.409C127.44 345.467 127.473 345.546 127.473 345.628V347.69C127.473 347.772 127.44 347.851 127.382 347.909C127.324 347.967 127.245 348 127.163 348H123.649C123.604 348 123.56 348.01 123.519 348.03C123.479 348.05 123.443 348.079 123.415 348.114C123.388 348.149 123.368 348.19 123.358 348.234C123.348 348.278 123.348 348.324 123.359 348.368C124.54 353.605 125.788 358.736 126.815 362.385C126.835 362.452 126.831 362.525 126.802 362.589C126.774 362.653 126.723 362.704 126.66 362.734L124.791 363.702C124.752 363.724 124.707 363.737 124.662 363.739C124.616 363.742 124.571 363.734 124.529 363.716C124.487 363.698 124.449 363.671 124.419 363.637C124.389 363.603 124.368 363.562 124.356 363.518L124.056 362.405C124.043 362.359 124.02 362.317 123.988 362.282C123.957 362.246 123.917 362.219 123.873 362.201C123.829 362.183 123.782 362.176 123.735 362.179C123.687 362.183 123.642 362.197 123.601 362.221C122.178 363.102 120.696 364.079 119.322 365.125C119.262 365.17 119.22 365.234 119.204 365.307C119.188 365.38 119.199 365.456 119.235 365.522C120.976 368.778 123.573 371.496 126.747 373.383C126.788 373.403 126.824 373.433 126.851 373.47C126.879 373.507 126.897 373.55 126.904 373.595C126.912 373.641 126.909 373.687 126.895 373.731C126.881 373.775 126.857 373.815 126.824 373.847C126.316 374.402 125.86 375.001 125.459 375.638C125.439 375.673 125.413 375.703 125.381 375.728C125.349 375.752 125.312 375.769 125.274 375.779C125.235 375.789 125.194 375.791 125.155 375.785C125.115 375.779 125.077 375.766 125.043 375.745C121.71 373.674 118.966 370.781 117.076 367.342C117.052 367.304 117.021 367.271 116.985 367.246C116.948 367.221 116.906 367.204 116.863 367.196C116.819 367.187 116.774 367.188 116.731 367.199C116.687 367.209 116.647 367.228 116.611 367.255C115.159 368.423 113.814 369.719 112.594 371.127C112.567 371.165 112.531 371.196 112.49 371.217C112.449 371.239 112.403 371.25 112.356 371.25C112.31 371.25 112.264 371.239 112.223 371.217C112.182 371.196 112.146 371.165 112.119 371.127L110.754 369.297C110.713 369.243 110.69 369.177 110.69 369.109C110.69 369.04 110.713 368.974 110.754 368.92C112.164 367.329 113.734 365.889 115.44 364.622C115.492 364.58 115.529 364.522 115.545 364.457C115.561 364.393 115.554 364.324 115.527 364.263C113.465 359.588 112.139 353.615 111.548 346.257C111.558 346.226 111.558 346.192 111.548 346.16L111.451 345.938C111.435 345.897 111.427 345.854 111.428 345.81C111.43 345.766 111.44 345.723 111.459 345.684C111.479 345.645 111.506 345.61 111.54 345.582C111.573 345.554 111.612 345.533 111.655 345.522L112.855 345.202H113.01L113.407 345.299L113.397 345.318ZM114.365 348.339C114.796 353.177 115.924 357.928 117.715 362.443C117.732 362.485 117.757 362.522 117.79 362.552C117.823 362.582 117.863 362.604 117.905 362.617C117.948 362.63 117.993 362.633 118.037 362.627C118.081 362.62 118.123 362.604 118.16 362.579C119.786 361.504 121.432 360.44 123.049 359.539C123.108 359.508 123.156 359.458 123.182 359.396C123.209 359.334 123.213 359.265 123.194 359.2C122.342 355.841 121.403 352.027 120.542 348.232C120.528 348.166 120.491 348.106 120.438 348.063C120.385 348.021 120.319 347.998 120.251 348H114.665C114.625 348.002 114.585 348.013 114.548 348.031C114.511 348.049 114.479 348.073 114.452 348.104C114.425 348.135 114.404 348.17 114.391 348.209C114.378 348.247 114.372 348.288 114.375 348.329L114.365 348.339Z" fill="white"/>
<path opacity="0.6" d="M518.341 288.891C564.885 260.953 628.013 230.061 645.245 255.822C666.01 286.848 592.485 299.84 535.069 317.778C514.468 324.274 488.688 306.704 518.341 288.891Z" fill="#AEC5C2"/>
<path opacity="0.6" d="M289.033 374.538C258.964 410.735 216.156 454.095 194.675 437.957C168.798 418.518 225.237 386.823 267.067 355.671C282.072 344.48 308.201 351.469 289.033 374.538Z" fill="#AEC5C2"/>
<path d="M477.82 320.011C477.82 320.011 664.155 252.633 687.273 310.33C710.39 368.027 548.722 324.299 495.323 345.858L477.82 320.011Z" fill="#CBCF9F"/>
<path d="M487.475 334.544C524.078 318.987 568.89 314.805 600.033 314.03C619.867 313.487 639.715 314.182 659.463 316.112L659.647 314.534C639.826 312.585 619.903 311.874 599.994 312.404C568.716 313.179 523.691 317.39 486.855 333.043L487.475 334.544Z" fill="#C0C291"/>
<path d="M303.762 316.965C303.762 316.965 289.773 491.944 234.797 489.446C179.82 486.949 274.333 372.581 276.53 321.621L303.762 316.965Z" fill="#CBCF9F"/>
<path d="M288.501 319.43C287.62 354.658 274.571 392.326 263.767 417.728C256.934 433.922 249.097 449.675 240.301 464.892L241.501 465.618C250.339 450.348 258.209 434.537 265.064 418.28C275.906 392.761 289.024 354.91 289.905 319.468L288.501 319.43Z" fill="#C0C291"/>
<path d="M578.807 234.194C583.648 230.951 586.552 232.093 588.246 234.707C589.94 237.32 589.969 240.389 585.119 243.632C576.3 249.538 568.875 247.679 568.875 247.679C568.875 247.679 569.853 240.196 578.807 234.194Z" fill="#AEC5C2"/>
<path d="M631.299 349.551C638.308 351.1 639.712 354.614 638.879 358.379C638.047 362.145 635.288 364.74 628.289 363.22C615.529 360.403 610.863 352.213 610.863 352.213C610.863 352.213 618.337 346.685 631.299 349.551Z" fill="#AEC5C2"/>
<path d="M519.437 210.428C496.61 211.512 463.037 215.791 428.042 213.177C386.415 210.06 307.41 207.369 266.645 210.428C242.133 212.248 222.113 226.478 222.113 246.246V369.743C222.113 389.541 242.307 402.9 266.645 405.562C273.963 406.375 281.34 406.888 289.288 407.15C292.992 407.275 296.502 408.836 299.077 411.503C301.651 414.169 303.088 417.732 303.083 421.439V455.486L331.786 415.282C333.74 412.551 336.285 410.298 339.232 408.69C342.179 407.083 345.452 406.162 348.805 405.998C359.367 405.494 371.071 404.865 384.324 404.139C417.974 402.29 485.623 405.349 519.399 405.591C544.017 405.765 563.93 389.541 563.93 369.773V246.276C564.017 226.478 544.007 209.266 519.437 210.428Z" fill="#D57F80"/>
<path d="M293.708 294.619V304.832C293.708 306.077 294.202 307.272 295.083 308.152C295.963 309.033 297.158 309.527 298.403 309.527H308.016C309.259 309.525 310.451 309.029 311.33 308.149C312.208 307.268 312.701 306.076 312.701 304.832V294.619C312.701 293.374 313.196 292.179 314.076 291.299C314.957 290.418 316.151 289.924 317.396 289.924H319.517C320.76 289.926 321.952 290.422 322.83 291.302C323.709 292.183 324.202 293.375 324.202 294.619V336.246C324.202 337.489 323.708 338.68 322.83 339.559C321.951 340.438 320.759 340.931 319.517 340.931H317.396C316.153 340.931 314.96 340.438 314.08 339.56C313.2 338.681 312.704 337.49 312.701 336.246V324.281C312.701 323.037 312.208 321.844 311.33 320.964C310.451 320.084 309.259 319.588 308.016 319.586H298.403C297.786 319.586 297.176 319.707 296.606 319.943C296.036 320.179 295.519 320.525 295.083 320.961C294.647 321.397 294.301 321.914 294.065 322.484C293.829 323.054 293.708 323.664 293.708 324.281V336.236C293.708 337.479 293.214 338.671 292.335 339.549C291.457 340.428 290.265 340.922 289.022 340.922H286.902C285.659 340.922 284.466 340.428 283.586 339.55C282.705 338.672 282.21 337.48 282.207 336.236V294.609C282.207 293.993 282.328 293.382 282.564 292.812C282.8 292.243 283.146 291.725 283.582 291.289C284.018 290.853 284.536 290.507 285.105 290.271C285.675 290.036 286.286 289.914 286.902 289.914H289.022C289.639 289.915 290.249 290.038 290.818 290.275C291.387 290.512 291.904 290.859 292.339 291.296C292.774 291.733 293.119 292.251 293.354 292.821C293.589 293.392 293.709 294.002 293.708 294.619Z" fill="white"/>
<path d="M359.916 319.363H350.536C349.292 319.363 348.099 319.856 347.219 320.735C346.339 321.613 345.843 322.805 345.841 324.048V326.778C345.843 328.022 346.339 329.214 347.219 330.092C348.099 330.97 349.292 331.464 350.536 331.464H362.153C362.769 331.464 363.379 331.585 363.948 331.821C364.517 332.057 365.034 332.403 365.469 332.84C365.904 333.276 366.249 333.793 366.484 334.363C366.719 334.932 366.839 335.543 366.838 336.159V336.236C366.838 337.479 366.344 338.671 365.466 339.549C364.587 340.428 363.395 340.922 362.153 340.922H339.035C337.791 340.922 336.599 340.428 335.718 339.55C334.838 338.672 334.342 337.48 334.34 336.236V294.609C334.34 293.993 334.461 293.382 334.697 292.812C334.933 292.243 335.279 291.725 335.715 291.289C336.151 290.853 336.669 290.507 337.238 290.271C337.808 290.036 338.418 289.914 339.035 289.914H361.049C361.666 289.914 362.276 290.036 362.846 290.271C363.415 290.507 363.933 290.853 364.369 291.289C364.805 291.725 365.151 292.243 365.387 292.812C365.623 293.382 365.744 293.993 365.744 294.609V294.687C365.742 295.93 365.246 297.122 364.366 298C363.485 298.879 362.292 299.372 361.049 299.372H350.536C349.919 299.372 349.309 299.494 348.739 299.73C348.169 299.965 347.652 300.311 347.216 300.747C346.78 301.183 346.434 301.701 346.198 302.271C345.962 302.84 345.841 303.451 345.841 304.067V305.277C345.841 305.894 345.962 306.504 346.198 307.073C346.434 307.642 346.78 308.159 347.216 308.594C347.652 309.029 348.17 309.374 348.74 309.609C349.309 309.844 349.92 309.964 350.536 309.963H359.916C361.162 309.963 362.356 310.458 363.236 311.338C364.117 312.219 364.611 313.413 364.611 314.658C364.613 315.275 364.492 315.887 364.257 316.458C364.021 317.028 363.676 317.547 363.24 317.984C362.804 318.421 362.286 318.768 361.715 319.005C361.145 319.241 360.534 319.363 359.916 319.363Z" fill="white"/>
<path d="M379.445 289.926H381.565C382.809 289.928 384.001 290.424 384.879 291.304C385.757 292.185 386.251 293.377 386.251 294.621V326.567C386.251 327.184 386.372 327.794 386.608 328.364C386.844 328.934 387.19 329.451 387.626 329.887C388.062 330.323 388.579 330.669 389.149 330.905C389.719 331.141 390.329 331.262 390.946 331.262H401.837C403.08 331.262 404.273 331.756 405.153 332.634C406.033 333.513 406.529 334.704 406.532 335.948V336.258C406.529 337.501 406.033 338.693 405.153 339.571C404.273 340.45 403.08 340.943 401.837 340.943H379.445C378.202 340.943 377.009 340.45 376.129 339.571C375.248 338.693 374.753 337.501 374.75 336.258V294.631C374.749 294.013 374.869 293.402 375.105 292.831C375.34 292.26 375.686 291.741 376.122 291.304C376.558 290.867 377.076 290.521 377.646 290.284C378.216 290.048 378.828 289.926 379.445 289.926Z" fill="white"/>
<path d="M418.105 289.926H420.216C421.461 289.926 422.655 290.42 423.536 291.301C424.416 292.181 424.911 293.376 424.911 294.621V326.567C424.911 327.813 425.406 329.007 426.286 329.887C427.167 330.768 428.361 331.262 429.606 331.262H440.497C441.74 331.262 442.933 331.756 443.813 332.634C444.694 333.513 445.189 334.704 445.192 335.948V336.258C445.189 337.501 444.694 338.693 443.813 339.571C442.933 340.45 441.74 340.943 440.497 340.943H418.105C416.862 340.943 415.669 340.45 414.789 339.571C413.909 338.693 413.413 337.501 413.41 336.258V294.631C413.409 294.013 413.529 293.402 413.765 292.831C414 292.26 414.346 291.741 414.782 291.304C415.218 290.867 415.736 290.521 416.306 290.284C416.877 290.048 417.488 289.926 418.105 289.926Z" fill="white"/>
<path d="M495.804 314.902C495.804 331.698 485.746 341.756 470.76 341.756C455.775 341.756 446.781 330.333 446.781 315.725C446.781 300.449 456.617 289.016 471.593 289.016C487.256 289.016 495.804 300.787 495.804 314.902ZM458.96 315.502C458.96 325.57 463.655 332.598 471.37 332.598C479.086 332.598 483.626 325.192 483.626 315.279C483.626 306.044 479.318 298.174 471.37 298.174C463.422 298.174 458.96 305.628 458.96 315.502Z" fill="white"/>
<path d="M548.158 478.125C548.158 478.125 549.126 484.301 551.623 487.457C553.289 489.529 557.877 493.643 554.615 495.018C552.011 496.111 546.996 491.242 545.37 490.022C543.743 488.802 541.284 486.518 541.827 484.562C542.524 481.566 542.779 478.484 542.582 475.414L548.158 478.125Z" fill="#2F1A31"/>
<path d="M529.911 473.336C529.911 473.336 528.652 479.454 529.911 483.288C530.743 485.814 533.619 491.264 530.085 491.419C527.258 491.536 524.277 485.224 523.144 483.52C522.011 481.816 520.54 478.815 521.731 477.169C523.42 474.605 524.725 471.806 525.603 468.863L529.911 473.336Z" fill="#2F1A31"/>
<path d="M531.683 477.66C565.489 455.104 563.814 435.355 559.128 427.63C553.688 418.656 545.072 411.56 531.877 408.394C528.69 407.643 525.455 407.106 522.196 406.787C521.241 406.692 520.277 406.801 519.367 407.107C518.457 407.413 517.623 407.909 516.919 408.561C516.215 409.214 515.658 410.008 515.285 410.892C514.911 411.777 514.729 412.73 514.752 413.689L515.062 425.19C520.706 425.074 537.811 426.797 542.294 435.916C543.262 437.853 520.473 464.533 521.325 469.334C522.264 474.755 528.373 479.877 531.683 477.66Z" fill="#436E8A"/>
<path d="M544.759 481.039C545.68 481.041 546.591 480.854 547.438 480.492C548.284 480.129 549.048 479.597 549.682 478.93C550.316 478.262 550.808 477.472 551.126 476.608C551.445 475.744 551.584 474.824 551.535 473.905C551.022 465.279 549.425 450.594 544.401 439.499C541.282 432.871 536.673 427.053 530.935 422.5C525.94 418.489 520.455 415.129 514.613 412.5C504.226 407.727 496.752 408.395 496.752 408.395L491.079 416.759C491.147 416.759 489.482 425.201 501.476 432.713C508.098 436.857 521.399 439.393 526.879 450.139C530.751 457.786 532.281 467.922 532.774 475.008C532.889 476.643 533.617 478.173 534.813 479.294C536.008 480.414 537.583 481.041 539.222 481.049L544.759 481.039Z" fill="#436E8A"/>
<path d="M537.065 378.734C541.885 386.919 545.098 395.948 546.532 405.337C548.188 415.86 529.039 403.614 529.039 403.614L528.188 381.629L537.065 378.734Z" fill="#F1B282"/>
<path d="M502.213 372.676C502.213 372.676 507.518 363.595 519.764 366.383C532.01 369.171 536.996 381.679 537.867 411.699C537.867 411.699 530.519 424.71 497.072 422.173C493.365 421.893 488.059 421.409 489.87 415.397C493.239 404.225 496.491 381.95 502.213 372.676Z" fill="#7B9DCA"/>
<path d="M488.75 375.327L501.335 377.699C501.335 377.699 523.359 384.205 529.525 384.263C531.239 384.331 532.941 383.956 534.467 383.174C535.993 382.392 537.292 381.23 538.238 379.8C534.516 374.167 529.138 369.827 522.845 367.38C521.837 367.004 520.809 366.68 519.767 366.411C517.985 365.885 516.145 365.579 514.288 365.501C493.503 365.23 488.75 375.327 488.75 375.327Z" fill="#7B9DCA"/>
<path d="M488.747 375.328C488.466 376.296 491.109 377.98 494.643 379.026C498.176 380.071 501.245 380.129 501.526 379.132C501.806 378.135 499.154 376.48 495.62 375.434C492.087 374.389 489.018 374.36 488.747 375.328Z" fill="#7B9DCA"/>
<path d="M490.915 403.294C496.297 411.717 506.946 417.099 518.147 416.741L516.956 407.767C508.243 406.179 501.612 400.535 500.373 395.772C499.144 390.453 499.051 384.934 500.102 379.577C500.135 379.372 500.113 379.162 500.036 378.969C499.959 378.776 499.831 378.608 499.666 378.483C498.563 377.631 495.687 375.908 490.547 375.801C490.325 375.795 490.107 375.866 489.93 376.002C489.754 376.138 489.63 376.33 489.579 376.547C487.42 384.64 486.113 395.772 490.915 403.294Z" fill="#F1B282"/>
<path d="M516.959 407.766C516.959 407.766 524.994 405.2 527.55 406.41C530.106 407.62 532.458 411.096 530.716 410.689C529.371 410.315 528.072 409.792 526.843 409.131C526.843 409.131 531.171 411.783 530.116 412.529C529.06 413.274 525.275 410.931 525.275 410.931C525.275 410.931 530.174 414.494 528.944 414.871C527.715 415.249 524.017 412.519 524.017 412.519C524.017 412.519 528.441 416.023 527.008 416.391C525.575 416.759 523.358 413.487 522.303 414.213C521.248 414.939 518.547 418.385 516.117 415.694L516.959 407.766Z" fill="#F1B282"/>
<path d="M526.823 409.214C526.823 409.214 525.739 408.314 524.945 408.536L524.887 408.343C525.787 408.081 526.91 409.02 526.958 409.059L526.823 409.214Z" fill="#D98564"/>
<path d="M525.283 411.009C524.643 410.481 523.837 410.196 523.008 410.205V409.992C523.894 409.981 524.756 410.287 525.438 410.854L525.283 411.009Z" fill="#D98564"/>
<path d="M524.036 412.601C524.036 412.601 522.738 411.526 521.925 411.836L521.848 411.642C522.816 411.294 524.113 412.397 524.161 412.446L524.036 412.601Z" fill="#D98564"/>
<path d="M526.83 420.275H552.638C552.901 420.275 553.157 420.193 553.37 420.04C553.584 419.888 553.744 419.672 553.829 419.423L559.192 403.402C559.256 403.214 559.273 403.014 559.243 402.818C559.214 402.622 559.137 402.436 559.02 402.276C558.904 402.115 558.75 401.985 558.573 401.897C558.396 401.808 558.2 401.763 558.002 401.766H533.141C532.592 401.764 532.056 401.935 531.61 402.254C531.163 402.574 530.828 403.026 530.654 403.547L525.6 418.63C525.536 418.821 525.519 419.025 525.551 419.225C525.583 419.424 525.663 419.613 525.783 419.775C525.904 419.937 526.063 420.067 526.245 420.154C526.427 420.241 526.628 420.283 526.83 420.275Z" fill="#2F1A31"/>
<path d="M528.447 420.275H554.256C554.518 420.275 554.774 420.193 554.988 420.04C555.201 419.887 555.362 419.672 555.446 419.423L560.819 403.402C560.881 403.214 560.896 403.014 560.865 402.819C560.835 402.624 560.758 402.439 560.642 402.28C560.526 402.12 560.373 401.99 560.197 401.901C560.021 401.811 559.826 401.765 559.629 401.766H534.797C534.249 401.765 533.713 401.936 533.267 402.256C532.821 402.576 532.486 403.027 532.31 403.547L527.256 418.629C527.193 418.818 527.176 419.018 527.206 419.215C527.236 419.411 527.312 419.597 527.428 419.758C527.545 419.919 527.698 420.05 527.875 420.14C528.052 420.23 528.248 420.276 528.447 420.275Z" fill="#2F1A31"/>
<path d="M546.531 410.498C546.531 409.888 545.834 409.637 545.224 409.637C544.822 409.665 544.442 409.832 544.149 410.109C543.856 410.386 543.668 410.756 543.617 411.157C543.617 412.125 544.343 412.192 544.953 412.192C545.358 412.107 545.727 411.898 546.01 411.595C546.292 411.292 546.474 410.909 546.531 410.498Z" fill="#DAE7E5"/>
<path d="M518.961 418.012H554.277V420.277H518.226C518.023 420.277 517.828 420.196 517.685 420.053C517.542 419.91 517.461 419.715 517.461 419.512C517.46 419.315 517.498 419.119 517.573 418.937C517.648 418.754 517.758 418.588 517.898 418.448C518.037 418.309 518.203 418.198 518.386 418.123C518.568 418.048 518.764 418.01 518.961 418.012Z" fill="#2F1A31"/>
<path d="M530.29 409.856H530.125C530.67 407.703 531.375 405.593 532.235 403.544C532.626 402.712 533.318 402.058 534.172 401.715L534.22 401.879C533.422 402.217 532.777 402.837 532.41 403.622C531.55 405.645 530.842 407.729 530.29 409.856Z" fill="#436E8A"/>
<path d="M526.477 418.097V417.923C527.319 417.923 527.532 417.574 527.532 417.574L529.536 411.582H529.7L527.687 417.594C527.687 417.594 527.435 418.097 526.477 418.097Z" fill="#436E8A"/>
<path d="M550.26 462.012C549.783 456.45 548.811 450.943 547.355 445.554C545.158 437.519 540.908 426.967 533.105 422.321L533.212 422.137C541.073 426.842 545.352 437.452 547.559 445.516C549.013 450.931 549.984 456.464 550.463 462.05L550.26 462.012Z" fill="#020202"/>
<path d="M533.029 476.678C532.969 469.394 531.602 462.181 528.992 455.38L529.186 455.293C531.801 462.123 533.175 469.365 533.242 476.678H533.029Z" fill="#020202"/>
<path d="M524.907 366.993C524.907 366.993 522.003 365.522 521.731 363.818C521.46 362.114 520.27 362.521 519.669 362.037C519.069 361.553 521.286 357.196 521.286 357.196L527.656 355.531L526.272 363.373L524.907 366.993Z" fill="#2F1A31"/>
<path d="M512.029 365.481C512.686 365.473 513.328 365.289 513.89 364.948C514.452 364.608 514.912 364.123 515.223 363.544L517.227 359.885L517.808 358.82L521.226 352.586L520.103 359.275L519.425 363.302L519.231 364.445C519.133 364.907 519.216 365.39 519.463 365.793C519.709 366.196 520.101 366.49 520.558 366.613C520.974 367.475 521.526 369.188 519.386 369.643C516.898 370.185 513.171 367.911 511.98 365.519L512.029 365.481Z" fill="#F1B282"/>
<path d="M517.232 359.837V359.953C517.232 362.141 519.41 363.38 519.41 363.38L520.088 359.353C519.397 358.946 518.588 358.786 517.794 358.898C517.616 358.98 517.468 359.113 517.368 359.281C517.267 359.448 517.22 359.642 517.232 359.837Z" fill="#D49873"/>
<path d="M527.76 354.334C528.176 350.016 525.669 346.251 522.165 345.921C518.66 345.592 515.504 348.826 515.088 353.134C514.672 357.442 517.189 361.217 520.683 361.546C524.178 361.875 527.334 358.652 527.76 354.334Z" fill="#F1B282"/>
<path d="M524.367 359.111C522.896 358.968 521.458 358.589 520.107 357.988C520.055 358.28 520.065 358.58 520.136 358.868C520.208 359.156 520.339 359.426 520.522 359.66C520.704 359.894 520.934 360.087 521.197 360.226C521.459 360.365 521.747 360.447 522.044 360.467C523.408 360.68 524.367 359.111 524.367 359.111Z" fill="white"/>
<path d="M518.828 348.436C521.133 349.241 523.11 350.78 524.455 352.818C525.8 354.855 526.439 357.278 526.273 359.714C526.273 360.005 526.273 360.305 526.205 360.605C526.205 360.605 522.865 361.021 522.333 364.225C522.187 365.193 524.927 367.217 525.14 367.13C526.737 366.587 531.065 363.257 530.861 355.793C530.658 348.33 528.315 342.657 521.558 341.785C514.801 340.914 515.285 345.522 515.285 345.522C516.065 346.898 517.328 347.936 518.828 348.436Z" fill="#2F1A31"/>
<path d="M519.777 348.537L519.457 348.721C517.882 349.683 516.727 351.205 516.224 352.981C515.546 355.934 518.247 358.063 517.241 360.3C516.234 362.536 514.394 359.748 512.662 359.98C510.929 360.212 509.757 359.312 509.97 355.914C510.183 352.516 511.713 344.694 515.721 345.072L519.777 348.537Z" fill="#2F1A31"/>
<path d="M515.1 354.32C515.219 354.495 515.371 354.643 515.549 354.757C515.727 354.87 515.926 354.947 516.134 354.981C516.343 355.015 516.556 355.007 516.76 354.957C516.965 354.906 517.158 354.815 517.326 354.688C517.603 354.349 517.743 353.918 517.718 353.481C517.692 353.043 517.505 352.632 517.191 352.326C517.07 352.154 516.917 352.007 516.739 351.895C516.561 351.783 516.362 351.708 516.155 351.673C515.948 351.639 515.735 351.647 515.531 351.696C515.326 351.744 515.134 351.834 514.964 351.958C514.688 352.298 514.548 352.728 514.573 353.165C514.598 353.603 514.786 354.015 515.1 354.32Z" fill="#F1B282"/>
<path d="M149.46 264.41C150.273 265.862 158.424 278.496 156.721 290.858L147.853 287.644L143.797 270.983L149.46 264.41Z" fill="#F1B282"/>
<path d="M113.969 259.228C113.969 259.228 119.419 249.451 132.701 252.151C145.983 254.852 153.224 273.865 149.623 311.504C149.623 311.504 128.529 303.12 101.094 309.878C101.132 309.878 105.653 273.42 113.969 259.228Z" fill="#DE8269"/>
<path d="M103.871 255.284L113.213 264.597C113.213 264.597 137.134 271.063 143.785 270.986C145.624 271.033 147.444 270.604 149.068 269.738C150.691 268.873 152.063 267.602 153.049 266.049C148.85 260.114 142.93 255.613 136.089 253.154C134.989 252.774 133.871 252.451 132.739 252.186C130.79 251.727 128.804 251.439 126.805 251.324C115.062 250.589 103.871 255.284 103.871 255.284Z" fill="#DE8269"/>
<path d="M103.873 255.287C102.382 256.904 104.686 258.675 107.261 261.25C109.836 263.825 112.498 265.326 113.215 264.6C113.931 263.874 112.402 261.212 109.826 258.636C107.251 256.061 104.56 254.532 103.873 255.287Z" fill="#DE8269"/>
<path d="M111.965 264.631C111.965 264.631 112.11 262.772 109.767 260.4C108.501 259.166 107.013 258.181 105.382 257.496C105.213 257.423 105.03 257.384 104.846 257.383C104.661 257.382 104.478 257.418 104.308 257.489C104.138 257.561 103.984 257.666 103.856 257.799C103.728 257.931 103.628 258.089 103.562 258.261L102.816 260.197L106.301 262.443L111.965 264.631Z" fill="#F1B282"/>
<path d="M128.49 299.142C128.49 299.142 99.6994 283.537 89.3701 300.565C81.732 313.15 93.2424 324.902 135.838 323.702C135.838 323.702 140.049 321.766 139.023 311.504C138.568 307.458 128.49 299.142 128.49 299.142Z" fill="#7B9DCA"/>
<path d="M128.492 299.141C128.492 299.141 166.838 283.439 174.427 293.255C183.14 304.543 174.785 323.701 134.368 316.857L129.46 311.504L128.492 299.141Z" fill="#7B9DCA"/>
<path d="M135.839 323.77L135.742 323.644C140.214 320.449 139.014 312.259 138.898 311.562L109.855 300.991L109.914 300.836L139.062 311.485V311.533C139.072 311.582 140.563 320.401 135.839 323.77Z" fill="#020202"/>
<path d="M139.216 314.336C139.216 314.336 146.283 314.626 149.604 316.272C152.924 317.918 151.153 321.868 144.415 321.771C137.677 321.674 138.18 320.657 138.18 320.657C138.908 318.631 139.259 316.489 139.216 314.336Z" fill="#2F1A31"/>
<path d="M130.17 299.893C132.249 299.962 134.292 299.339 135.979 298.121C137.182 297.176 138.104 295.919 138.645 294.488C139.186 293.056 139.325 291.504 139.048 289.999L136.231 288.363C136.085 287.588 130.655 290.464 130.664 290.464C130.674 290.464 128.07 291.209 119.154 286.659C112.958 283.493 109.831 278.992 109.599 272.903C109.425 268.324 111.467 265.749 111.951 264.626C112.019 264.48 108.96 261.412 109.047 261.102L106.753 259.931C106.821 259.669 104.546 258.769 104.575 258.691L102.803 260.202C100.993 264.31 100.139 268.775 100.305 273.261C100.557 279.912 103.306 289.079 114.962 295.033C121.322 298.286 126.308 299.893 130.17 299.893Z" fill="#F1B282"/>
<path d="M132.065 300.264H156.915C157.168 300.264 157.414 300.185 157.62 300.037C157.825 299.89 157.978 299.681 158.057 299.441L163.227 284.019C163.287 283.838 163.303 283.645 163.273 283.456C163.244 283.267 163.17 283.088 163.057 282.934C162.944 282.78 162.796 282.654 162.626 282.569C162.455 282.483 162.266 282.439 162.075 282.441H138.173C137.643 282.44 137.126 282.606 136.695 282.915C136.264 283.225 135.941 283.662 135.772 284.165L130.932 298.686C130.872 298.866 130.856 299.057 130.885 299.244C130.913 299.432 130.986 299.609 131.096 299.763C131.207 299.917 131.352 300.043 131.52 300.13C131.689 300.217 131.875 300.263 132.065 300.264Z" fill="#6F4975"/>
<path d="M133.621 300.264H158.501C158.754 300.264 159 300.185 159.205 300.037C159.41 299.89 159.564 299.681 159.643 299.441L164.813 284.019C164.873 283.838 164.889 283.645 164.859 283.456C164.83 283.267 164.755 283.088 164.643 282.934C164.53 282.78 164.382 282.654 164.211 282.569C164.041 282.483 163.852 282.439 163.661 282.441H139.74C139.21 282.442 138.693 282.608 138.262 282.917C137.832 283.226 137.509 283.663 137.339 284.165L132.498 298.686C132.439 298.865 132.423 299.055 132.451 299.242C132.479 299.428 132.551 299.606 132.66 299.759C132.769 299.913 132.913 300.039 133.08 300.126C133.247 300.214 133.433 300.261 133.621 300.264Z" fill="#6F4975"/>
<path d="M151.04 290.852C151.04 290.262 150.362 290.02 149.772 290.02C149.384 290.051 149.02 290.215 148.738 290.482C148.456 290.75 148.274 291.106 148.223 291.491C148.223 292.372 148.92 292.459 149.51 292.459C149.899 292.38 150.254 292.184 150.528 291.896C150.802 291.609 150.98 291.244 151.04 290.852Z" fill="#DAE7E5"/>
<path d="M124.478 298.086H158.496V300.264H123.771C123.576 300.264 123.389 300.187 123.251 300.049C123.113 299.911 123.035 299.724 123.035 299.528C123.035 299.146 123.187 298.779 123.458 298.508C123.728 298.238 124.095 298.086 124.478 298.086Z" fill="#6F4975"/>
<path d="M135.391 290.246L135.227 290.197C135.756 288.126 136.439 286.097 137.269 284.127C137.647 283.332 138.316 282.711 139.138 282.395V282.549C138.367 282.878 137.744 283.477 137.385 284.234C136.576 286.187 135.909 288.196 135.391 290.246Z" fill="#2F1A31"/>
<path d="M131.711 298.162V298.007C132.524 298.007 132.727 297.668 132.727 297.668L134.664 291.859L134.818 291.917L132.882 297.726C132.882 297.726 132.631 298.162 131.711 298.162Z" fill="#2F1A31"/>
<path d="M126.601 251.27C128.237 251.222 129.505 251.057 130.415 249.944L133.32 246.527L134.162 245.558L139.138 239.75L136.524 246.575L134.956 250.68L134.462 251.977C134.123 252.867 134.568 253.274 134.888 254.31C135.014 254.726 135.856 257.301 133.639 257.321C130.851 257.321 127.337 254.107 126.562 251.309L126.601 251.27Z" fill="#F1B282"/>
<path d="M132.505 244.327C132.505 244.327 127.036 239.07 130.192 234.646C133.348 230.222 134.141 241.771 134.141 241.771L133.261 244.453L132.505 244.327Z" fill="#2F1A31"/>
<path d="M133.33 246.413V246.529C132.817 248.843 134.946 250.643 134.946 250.643L136.524 246.577C135.869 245.997 135.036 245.656 134.162 245.609C133.96 245.646 133.773 245.743 133.625 245.885C133.477 246.028 133.374 246.212 133.33 246.413Z" fill="#2F1A31"/>
<path d="M144.981 243.463C146.169 239.338 144.38 235.2 140.984 234.222C137.588 233.244 133.871 235.795 132.683 239.921C131.495 244.046 133.284 248.184 136.68 249.162C140.076 250.14 143.792 247.589 144.981 243.463Z" fill="#F1B282"/>
<path d="M133.865 239.207C133.865 239.207 135.608 240.475 137.07 239.411C138.531 238.346 139.567 237.32 142.878 238.965C146.189 240.611 149.742 239.875 150.4 237.997C151.058 236.119 149.5 234.725 147.496 234.812C145.492 234.899 147.931 233.776 146.528 231.831C145.124 229.885 141.474 231.889 139.674 230.921C137.873 229.952 131.465 229.12 130.312 234.609L133.865 239.207Z" fill="#2F1A31"/>
<path d="M132.495 240.309C132.58 240.46 132.695 240.592 132.832 240.699C132.969 240.805 133.126 240.883 133.294 240.928C133.461 240.973 133.636 240.985 133.808 240.961C133.98 240.938 134.146 240.881 134.296 240.793C134.576 240.581 134.762 240.268 134.814 239.92C134.867 239.573 134.781 239.219 134.576 238.934C134.491 238.783 134.376 238.65 134.239 238.544C134.102 238.437 133.945 238.359 133.778 238.314C133.61 238.269 133.435 238.258 133.263 238.281C133.091 238.305 132.925 238.362 132.776 238.45C132.635 238.553 132.516 238.683 132.426 238.833C132.335 238.982 132.275 239.148 132.249 239.321C132.223 239.494 132.231 239.67 132.274 239.839C132.316 240.009 132.391 240.168 132.495 240.309Z" fill="#F1B282"/>
<path d="M146.748 237.378C145.373 237.378 143.505 235.693 143.418 235.616L143.583 235.441C143.583 235.441 145.78 237.426 147.039 237.106C147.523 236.981 147.794 236.748 147.755 236.506C147.716 236.264 147.368 236.051 146.884 236.1C146.311 236.19 145.724 236.095 145.209 235.829L145.344 235.625C145.813 235.854 146.339 235.935 146.855 235.858C147.503 235.79 147.929 236.119 147.987 236.458C148.045 236.797 147.832 237.145 147.097 237.339C146.983 237.366 146.865 237.379 146.748 237.378Z" fill="white"/>
<path d="M141.077 232.778C140.611 232.782 140.148 232.7 139.712 232.536C139.182 232.319 138.665 232.074 138.163 231.8C137.408 231.255 136.487 230.992 135.559 231.054V230.822C136.54 230.743 137.517 231.014 138.318 231.587C138.81 231.858 139.318 232.1 139.837 232.313C141.087 232.681 142.43 232.538 143.574 231.916L143.749 232.081C142.937 232.55 142.014 232.79 141.077 232.778Z" fill="white"/>
<path d="M131.858 234.34H131.761C131.674 234.34 131.548 234.214 131.635 233.914C131.77 233.73 132.467 232.782 132.942 233.082C133.01 233.082 133.135 233.237 133.01 233.498C132.747 233.915 132.335 234.216 131.858 234.34ZM131.858 233.992C131.849 234.03 131.849 234.07 131.858 234.108C132.149 234.025 132.409 233.857 132.603 233.624C132.826 233.382 132.845 233.256 132.845 233.246C132.622 233.111 132.129 233.604 131.858 233.992Z" fill="white"/>
<path d="M146.686 265.673L146.309 265.797L147.776 270.257L148.153 270.133L146.686 265.673Z" fill="#2F1A31"/>
<path d="M376.027 266.784C376.027 266.784 374.953 273.706 372.106 277.229C370.238 279.553 365.059 284.161 368.738 285.7C371.642 286.92 377.334 281.47 379.173 280.105C381.013 278.74 383.781 276.184 383.162 273.996C382.38 270.642 382.093 267.191 382.31 263.754L376.027 266.784Z" fill="#2F1A31"/>
<path d="M390.224 261.415C390.224 261.415 391.647 268.279 390.224 272.567C389.256 275.394 386.042 281.493 390.03 281.667C393.215 281.803 396.613 274.736 397.862 272.829C399.111 270.922 400.766 267.553 399.459 265.713C397.548 262.845 396.071 259.71 395.074 256.41L390.224 261.415Z" fill="#2F1A31"/>
<path d="M388.235 266.264C350.103 241.016 351.981 218.896 357.257 210.251C363.394 200.202 373.114 192.264 388.012 188.721C391.605 187.877 395.25 187.272 398.922 186.911C399.997 186.801 401.082 186.92 402.107 187.262C403.131 187.603 404.072 188.158 404.865 188.891C405.659 189.623 406.288 190.516 406.71 191.509C407.133 192.503 407.339 193.576 407.316 194.655L406.967 207.531C400.607 207.405 381.304 209.331 376.241 219.535C375.195 221.665 400.868 251.588 399.91 256.951C398.864 263.03 391.972 268.732 388.235 266.264Z" fill="#6F4975"/>
<path d="M373.413 270.053C372.378 270.062 371.352 269.859 370.399 269.457C369.445 269.054 368.584 268.46 367.869 267.711C367.154 266.963 366.601 266.076 366.242 265.105C365.884 264.134 365.728 263.1 365.785 262.066C366.366 252.385 368.166 235.928 373.839 223.546C377.363 216.111 382.562 209.593 389.028 204.504C394.663 200.013 400.843 196.253 407.422 193.313C419.135 187.97 427.577 188.715 427.577 188.715L433.085 192.026C432.998 192.026 441.062 210.545 426.183 218.783C410.946 227.215 399.764 223.421 393.588 235.415C389.174 243.973 387.489 255.328 386.928 263.257C386.798 265.096 385.976 266.819 384.626 268.076C383.277 269.334 381.502 270.033 379.657 270.033L373.413 270.053Z" fill="#6F4975"/>
<path d="M367.273 248.743H367.031C367.586 242.491 368.694 236.3 370.342 230.243C372.83 221.202 377.661 209.333 386.528 204.105L386.654 204.299C377.845 209.536 373.043 221.347 370.565 230.34C368.921 236.364 367.819 242.523 367.273 248.743Z" fill="#020202"/>
<path d="M386.715 265.159H386.473C386.545 256.968 388.096 248.858 391.052 241.219L391.265 241.316C388.332 248.927 386.791 257.003 386.715 265.159Z" fill="#020202"/>
<path d="M386.599 149.398C385.389 150.967 373.52 164.471 373.375 179.409L384.43 177.172L392.175 158.198L386.599 149.398Z" fill="#F1B282"/>
<path d="M429.418 149.495C429.418 149.495 424.684 136.978 408.517 137.878C392.35 138.779 380.985 145.129 378.633 190.261C378.633 190.261 400.957 188.993 426.475 204.017C430.764 206.544 437.472 206.031 437.743 201.055C438.276 191.103 436.252 172.167 429.418 149.495Z" fill="#799F97"/>
<path d="M443.622 151.481L429.411 155.982C429.411 155.982 399.991 159.429 392.15 158.17C389.971 157.902 387.899 157.076 386.132 155.774C384.365 154.472 382.964 152.737 382.062 150.735C388.052 144.46 395.825 140.176 404.328 138.46C405.695 138.193 407.075 137.999 408.462 137.879C410.803 137.587 413.166 137.525 415.519 137.695C438.579 140.087 443.622 151.481 443.622 151.481Z" fill="#799F97"/>
<path d="M443.629 151.481C444.384 153.175 441.054 154.763 436.978 156.273C432.903 157.783 429.234 158.093 428.847 156.96C428.459 155.828 431.412 153.669 435.497 152.12C439.583 150.571 443.116 150.377 443.629 151.481Z" fill="#2F1A31"/>
<path d="M403.168 194.734C400.692 194.454 398.379 193.357 396.595 191.616C395.339 190.288 394.47 188.642 394.083 186.855C393.696 185.068 393.804 183.21 394.398 181.481L398.018 180.048C398.318 179.157 404.243 183.504 404.224 183.494C404.204 183.485 407.128 184.84 418.493 181.026C426.383 178.363 430.865 173.591 432.201 166.447C433.169 161.054 431.456 158.286 431.088 156.882C431.039 156.688 432.056 154.336 436.267 152.952C440.817 151.441 442.462 152.613 442.462 152.613C443.884 157.786 444.109 163.216 443.121 168.489C441.659 176.301 436.809 186.66 421.988 191.655C413.904 194.385 407.728 195.411 403.168 194.734Z" fill="#F1B282"/>
<path d="M400.686 196.002L371.005 195.189C370.703 195.181 370.411 195.079 370.17 194.896C369.928 194.714 369.75 194.461 369.659 194.173L363.996 175.576C363.932 175.358 363.92 175.127 363.962 174.904C364.004 174.68 364.098 174.47 364.237 174.289C364.376 174.109 364.555 173.964 364.761 173.866C364.966 173.769 365.192 173.721 365.419 173.727L393.968 174.511C394.6 174.528 395.21 174.742 395.714 175.124C396.218 175.506 396.589 176.037 396.775 176.641L402.109 194.153C402.176 194.372 402.189 194.603 402.148 194.827C402.107 195.052 402.013 195.264 401.874 195.444C401.735 195.625 401.554 195.77 401.348 195.867C401.141 195.965 400.914 196.011 400.686 196.002Z" fill="#92B0DC"/>
<path d="M398.82 195.956L369.13 195.143C368.828 195.135 368.537 195.033 368.297 194.851C368.057 194.668 367.881 194.415 367.794 194.126L362.121 175.53C362.054 175.311 362.041 175.08 362.082 174.856C362.123 174.631 362.217 174.419 362.356 174.239C362.495 174.058 362.676 173.913 362.882 173.816C363.089 173.719 363.316 173.672 363.544 173.681L392.092 174.465C392.725 174.478 393.337 174.692 393.841 175.074C394.346 175.457 394.716 175.989 394.9 176.595L400.243 194.107C400.308 194.325 400.319 194.556 400.277 194.779C400.236 195.003 400.141 195.214 400.003 195.394C399.864 195.574 399.684 195.719 399.479 195.817C399.273 195.914 399.048 195.962 398.82 195.956Z" fill="#92B0DC"/>
<path d="M378.328 184.132C378.328 183.435 379.161 183.164 379.867 183.164C380.327 183.21 380.758 183.414 381.086 183.74C381.413 184.066 381.619 184.495 381.668 184.955C381.668 186.02 380.797 186.126 380.09 186.107C379.63 185.996 379.215 185.748 378.9 185.395C378.586 185.042 378.386 184.602 378.328 184.132Z" fill="#DAE7E5"/>
<path d="M409.813 193.639L369.154 192.535L369.086 195.139L410.587 196.233C410.819 196.238 411.044 196.152 411.213 195.992C411.381 195.833 411.48 195.613 411.487 195.381C411.493 194.929 411.32 194.493 411.007 194.167C410.694 193.841 410.265 193.651 409.813 193.639Z" fill="#92B0DC"/>
<path d="M397.043 183.918C396.476 181.439 395.735 179.003 394.826 176.629C394.422 175.717 393.699 174.984 392.793 174.567L392.851 174.383C393.81 174.809 394.573 175.579 394.99 176.542C395.9 178.284 397.169 183.638 397.227 183.87L397.043 183.918Z" fill="#6F4975"/>
<path d="M401.168 193.504C400.065 193.504 399.804 192.981 399.794 192.962L397.664 185.972L397.848 185.914L399.978 192.884C399.978 192.884 400.22 193.281 401.178 193.31L401.168 193.504Z" fill="#6F4975"/>
<g opacity="0.3">
<path opacity="0.3" d="M432.099 182.854C431.885 182.863 431.674 182.802 431.499 182.679C430.841 182.157 431.063 180.811 432.003 179.62C432.493 178.917 433.228 178.423 434.065 178.236C434.201 178.21 434.342 178.214 434.478 178.247C434.613 178.28 434.74 178.343 434.849 178.429C435.507 178.952 435.284 180.298 434.345 181.489C433.862 182.194 433.128 182.689 432.293 182.873L432.099 182.854ZM434.19 178.584H434.074C433.345 178.769 432.706 179.209 432.274 179.823C431.499 180.792 431.238 181.973 431.712 182.35C431.859 182.451 432.039 182.493 432.215 182.466C432.944 182.282 433.583 181.842 434.016 181.227C434.791 180.259 435.052 179.078 434.578 178.701C434.465 178.619 434.329 178.578 434.19 178.584Z" fill="#DC8765"/>
</g>
<path d="M411.426 135.66L408.987 131.372L408.28 130.123L404.117 122.766L405.511 130.684L406.344 135.438L406.605 136.938C406.789 137.955 406.218 138.303 405.637 139.349C405.414 139.775 403.943 142.359 406.363 142.853C409.384 143.463 414.108 140.501 415.55 137.664C415.55 137.655 412.21 137.054 411.426 135.66Z" fill="#F1B282"/>
<path d="M397.18 121.176C397.2 122.663 397.529 124.131 398.148 125.484C399.174 127.768 400.316 121.35 400.316 121.35L397.18 121.176Z" fill="#56335B"/>
<path d="M405.88 134.225C409.827 133.889 412.699 129.757 412.294 124.994C411.889 120.231 408.361 116.643 404.413 116.978C400.466 117.314 397.594 121.447 397.999 126.209C398.404 130.972 401.932 134.561 405.88 134.225Z" fill="#F1B282"/>
<path d="M411.925 122.562L408.46 122.949C408.083 122.995 407.702 122.955 407.343 122.833C406.984 122.711 406.658 122.509 406.388 122.243C405.42 121.275 404.452 120.936 401.354 121.739C397.385 122.775 394.21 120.965 393.319 118.961C393.104 118.521 393.026 118.026 393.095 117.541C393.164 117.056 393.377 116.602 393.706 116.239C394.036 115.877 394.466 115.621 394.943 115.506C395.419 115.39 395.919 115.42 396.378 115.592C398.614 116.173 397.201 113.859 399.079 113.172C402.593 111.884 403.919 114.527 406.823 113.791C410.696 112.823 418.285 114.246 416.504 121.807L411.925 122.562Z" fill="#2F1A31"/>
<path d="M416.473 121.808C416.473 121.808 415.234 127.375 411.991 128.469C411.991 128.469 413.84 124.035 407.664 122.922C407.664 122.922 412.679 120.966 416.473 121.808Z" fill="#56335B"/>
<path d="M412.393 125.624C412.272 125.787 412.117 125.922 411.938 126.019C411.76 126.116 411.563 126.173 411.36 126.186C411.158 126.2 410.955 126.169 410.765 126.097C410.576 126.024 410.404 125.911 410.262 125.766C410.12 125.621 410.012 125.447 409.944 125.255C409.876 125.064 409.851 124.86 409.869 124.658C409.888 124.456 409.95 124.26 410.051 124.084C410.153 123.909 410.291 123.757 410.457 123.64C410.578 123.477 410.733 123.342 410.911 123.245C411.09 123.148 411.287 123.091 411.489 123.077C411.692 123.064 411.895 123.094 412.084 123.167C412.274 123.24 412.446 123.352 412.587 123.498C412.729 123.643 412.838 123.817 412.906 124.009C412.973 124.2 412.999 124.404 412.98 124.606C412.962 124.808 412.9 125.004 412.798 125.179C412.697 125.355 412.559 125.507 412.393 125.624Z" fill="#F1B282"/>
<path d="M407.662 122.923C407.662 122.923 409.036 127.066 408.349 128.054C407.662 129.041 402.037 130.638 399.152 130.193C399.411 131.527 400.139 132.723 401.205 133.565C402.271 134.407 403.604 134.839 404.961 134.782C405.895 134.734 406.815 134.527 407.681 134.172C409.472 133.436 411.118 132.236 411.553 130.377C411.679 129.796 410.285 126.718 410.285 126.718C410.103 126.218 410.028 125.685 410.067 125.155C410.105 124.624 410.255 124.108 410.508 123.639C409.64 123.151 408.657 122.904 407.662 122.923Z" fill="#56335B"/>
<path d="M400.891 131.418C402.467 131.45 404.039 131.231 405.547 130.77C405.564 131.087 405.514 131.404 405.4 131.7C405.286 131.997 405.111 132.266 404.887 132.491C404.662 132.715 404.393 132.89 404.096 133.004C403.8 133.118 403.483 133.168 403.166 133.151C401.704 133.199 400.891 131.418 400.891 131.418Z" fill="white"/>
<path d="M331.937 88.7775V98.6325C331.937 98.7172 331.92 98.8011 331.887 98.8793C331.854 98.9574 331.806 99.0283 331.746 99.0877C331.686 99.1472 331.614 99.1941 331.536 99.2256C331.457 99.2571 331.373 99.2727 331.288 99.2714H330.068C329.984 99.2727 329.899 99.2571 329.821 99.2256C329.742 99.1941 329.671 99.1472 329.61 99.0877C329.55 99.0283 329.502 98.9574 329.469 98.8793C329.437 98.8011 329.42 98.7172 329.42 98.6325V90.8879C329.42 90.8032 329.403 90.7193 329.37 90.6411C329.337 90.563 329.289 90.4921 329.229 90.4327C329.169 90.3732 329.097 90.3263 329.019 90.2948C328.94 90.2633 328.856 90.2477 328.771 90.249H326.099C326.014 90.2477 325.93 90.2633 325.852 90.2948C325.773 90.3263 325.702 90.3732 325.641 90.4327C325.581 90.4921 325.533 90.563 325.5 90.6411C325.467 90.7193 325.451 90.8032 325.451 90.8879V98.6325C325.451 98.7172 325.434 98.8011 325.401 98.8793C325.368 98.9574 325.32 99.0283 325.26 99.0877C325.2 99.1472 325.128 99.1941 325.049 99.2256C324.971 99.2571 324.887 99.2727 324.802 99.2714H323.582C323.497 99.2727 323.413 99.2571 323.335 99.2256C323.256 99.1941 323.185 99.1472 323.124 99.0877C323.064 99.0283 323.016 98.9574 322.983 98.8793C322.95 98.8011 322.934 98.7172 322.934 98.6325V88.7775C322.934 88.6055 323.002 88.4405 323.124 88.3189C323.245 88.1972 323.41 88.1289 323.582 88.1289H331.327C331.492 88.1388 331.647 88.2115 331.761 88.332C331.874 88.4526 331.937 88.612 331.937 88.7775Z" fill="white"/>
<path d="M334.04 93.8626C334.04 93.0978 334.04 92.4298 334.04 91.8199C334.035 91.7333 334.048 91.6465 334.077 91.5649C334.107 91.4834 334.154 91.4089 334.214 91.3462C334.274 91.2834 334.346 91.2338 334.426 91.2004C334.506 91.167 334.592 91.1505 334.679 91.152H335.647C335.808 91.1532 335.962 91.2129 336.081 91.3198C336.201 91.4268 336.277 91.5736 336.296 91.7328L336.344 92.2749C336.649 91.8502 337.054 91.5082 337.524 91.2799C337.994 91.0517 338.514 90.9445 339.036 90.968C340.807 90.968 342.395 92.5073 342.395 95.092C342.395 97.9962 340.526 99.4193 338.726 99.4193C338.324 99.4377 337.923 99.3593 337.558 99.1909C337.192 99.0224 336.872 98.7688 336.625 98.4512V101.82C336.626 101.905 336.611 101.989 336.579 102.068C336.548 102.146 336.501 102.218 336.441 102.278C336.382 102.339 336.311 102.386 336.233 102.419C336.155 102.452 336.071 102.469 335.986 102.469H334.689C334.519 102.466 334.356 102.397 334.236 102.275C334.117 102.154 334.05 101.99 334.05 101.82L334.04 93.8626ZM336.548 95.7987C336.546 95.9747 336.566 96.1501 336.606 96.3215C336.682 96.6544 336.87 96.9514 337.137 97.1642C337.404 97.3769 337.736 97.4928 338.077 97.4928C339.161 97.4928 339.81 96.5828 339.81 95.2179C339.81 93.8529 339.229 92.9526 338.106 92.9526C337.749 92.9614 337.406 93.092 337.133 93.3226C336.86 93.5532 336.674 93.8701 336.606 94.2208C336.567 94.366 336.547 94.5157 336.548 94.6661V95.7987Z" fill="white"/>
<path d="M345.645 91.1501C345.817 91.1501 345.982 91.2185 346.104 91.3401C346.225 91.4618 346.294 91.6267 346.294 91.7987V93.6187C346.294 94.9159 346.226 95.8259 346.158 96.9102H346.226C346.603 95.9421 346.816 95.3516 347.194 94.5965L348.598 91.4986C348.649 91.3858 348.733 91.2902 348.837 91.2232C348.942 91.1563 349.064 91.1209 349.188 91.1211H351.144C351.316 91.1211 351.481 91.1894 351.602 91.3111C351.724 91.4327 351.792 91.5977 351.792 91.7697V98.5462C351.792 98.6309 351.775 98.7148 351.743 98.793C351.71 98.8711 351.662 98.942 351.602 99.0015C351.541 99.0609 351.47 99.1078 351.391 99.1393C351.312 99.1709 351.228 99.1864 351.144 99.1851H350.05C349.965 99.1864 349.882 99.1708 349.804 99.1392C349.726 99.1075 349.655 99.0605 349.595 99.0009C349.535 98.9413 349.488 98.8704 349.457 98.7923C349.425 98.7142 349.409 98.6305 349.411 98.5462V96.7262C349.411 95.4677 349.469 94.9353 349.556 93.2315H349.488C349.178 94.1124 348.975 94.6449 348.646 95.4C348.181 96.4164 347.678 97.6556 347.126 98.8076C347.076 98.922 346.993 99.019 346.888 99.0862C346.783 99.1534 346.66 99.1879 346.536 99.1851H344.541C344.457 99.1864 344.373 99.1708 344.295 99.1392C344.217 99.1075 344.146 99.0605 344.087 99.0009C344.027 98.9413 343.98 98.8704 343.948 98.7923C343.917 98.7142 343.901 98.6305 343.902 98.5462V91.7697C343.901 91.685 343.917 91.6009 343.948 91.5222C343.98 91.4436 344.027 91.372 344.086 91.3116C344.146 91.2513 344.216 91.2034 344.295 91.1706C344.373 91.1379 344.457 91.1211 344.541 91.1211L345.645 91.1501Z" fill="white"/>
<path d="M353.789 91.8057C353.786 91.6452 353.845 91.4897 353.953 91.3709C354.061 91.2521 354.21 91.1791 354.37 91.1668C355.077 91.099 356.093 91.0312 357.042 91.0312C358.417 91.0312 361.05 91.1765 361.05 93.1029C361.03 93.5432 360.852 93.9616 360.547 94.2803C360.243 94.599 359.833 94.7963 359.394 94.8358V94.8842C360.595 95.0875 361.389 95.7458 361.389 96.8203C361.389 99.1243 358.271 99.3179 356.616 99.3179C355.812 99.3179 354.98 99.318 354.38 99.2308C354.219 99.2186 354.068 99.1459 353.959 99.0274C353.849 98.9089 353.789 98.7533 353.789 98.5919V91.8057ZM356.248 97.1882C356.251 97.3569 356.319 97.5179 356.438 97.6372C356.557 97.7565 356.718 97.8246 356.887 97.8271H357.09C357.952 97.8271 358.813 97.5851 358.813 96.7913C358.813 95.9975 358.155 95.7651 356.964 95.7651H356.897C356.726 95.7651 356.563 95.8321 356.441 95.9517C356.32 96.0712 356.251 96.2337 356.248 96.4041V97.1882ZM356.248 93.6644C356.248 93.8339 356.315 93.9964 356.435 94.1162C356.555 94.236 356.718 94.3033 356.887 94.3033C357.855 94.3033 358.542 94.042 358.542 93.4321C358.542 92.8222 358.097 92.5898 357.09 92.5898H356.858C356.692 92.5974 356.535 92.6693 356.421 92.7904C356.308 92.9115 356.245 93.0722 356.248 93.2385V93.6644Z" fill="white"/>
<path d="M365.995 95.999C365.854 96.0022 365.717 96.0516 365.606 96.1396C365.495 96.2276 365.416 96.3495 365.381 96.4866C365.346 96.6237 365.357 96.7685 365.412 96.8989C365.467 97.0294 365.563 97.1383 365.685 97.2091C366.138 97.4379 366.64 97.551 367.147 97.5382C367.685 97.5437 368.221 97.4852 368.744 97.364C368.828 97.3457 368.915 97.3446 369 97.3607C369.084 97.3769 369.165 97.4099 369.236 97.4578C369.307 97.5057 369.368 97.5675 369.415 97.6396C369.462 97.7116 369.494 97.7924 369.509 97.8771L369.606 98.3417C369.637 98.4991 369.609 98.6623 369.526 98.8C369.444 98.9376 369.314 99.0399 369.161 99.0871C368.386 99.3081 367.584 99.4157 366.779 99.4066C364.04 99.4066 362.462 97.819 362.462 95.2826C362.426 94.7259 362.505 94.1678 362.694 93.6431C362.884 93.1184 363.18 92.6385 363.563 92.2333C363.946 91.828 364.409 91.5063 364.923 91.2881C365.436 91.0698 365.989 90.9599 366.547 90.965C369.161 90.965 370.158 92.998 370.158 95.0019C370.158 95.1374 370.158 95.2729 370.158 95.3988C370.148 95.5614 370.076 95.7142 369.957 95.8257C369.839 95.9373 369.682 95.9993 369.519 95.999H365.995ZM367.041 94.2758C367.148 94.2771 367.254 94.2513 367.348 94.2009C367.443 94.1505 367.524 94.0771 367.582 93.9874C367.641 93.8977 367.676 93.7946 367.685 93.6877C367.694 93.5808 367.675 93.4734 367.631 93.3755C367.524 93.1432 367.35 92.9487 367.13 92.8174C366.911 92.6861 366.657 92.6242 366.402 92.6398C366.166 92.6346 365.933 92.6897 365.725 92.7999C365.516 92.91 365.339 93.0715 365.211 93.269C365.153 93.3649 365.122 93.4742 365.12 93.586C365.117 93.6978 365.145 93.8083 365.199 93.9063C365.252 94.0043 365.331 94.0864 365.427 94.1445C365.522 94.2025 365.632 94.2345 365.743 94.2371L367.041 94.2758Z" fill="white"/>
<path d="M377.911 91.797V92.436C377.911 92.608 377.843 92.773 377.721 92.8946C377.6 93.0163 377.435 93.0846 377.263 93.0846H376.208C376.036 93.0846 375.871 93.1529 375.749 93.2746C375.627 93.3962 375.559 93.5612 375.559 93.7332V98.5736C375.56 98.6578 375.545 98.7415 375.513 98.8196C375.481 98.8977 375.434 98.9687 375.375 99.0283C375.315 99.0878 375.244 99.1349 375.166 99.1665C375.088 99.1982 375.004 99.2138 374.92 99.2125H373.691C373.521 99.2125 373.359 99.1452 373.239 99.0253C373.119 98.9055 373.052 98.743 373.052 98.5736V93.7332C373.052 93.5612 372.983 93.3962 372.862 93.2746C372.74 93.1529 372.575 93.0846 372.403 93.0846H371.348C371.176 93.0846 371.011 93.0163 370.889 92.8946C370.768 92.773 370.699 92.608 370.699 92.436V91.797C370.699 91.625 370.768 91.4601 370.889 91.3384C371.011 91.2168 371.176 91.1484 371.348 91.1484H377.282C377.451 91.1535 377.611 91.224 377.728 91.3451C377.846 91.4662 377.911 91.6283 377.911 91.797Z" fill="white"/>
<path d="M285.195 494.475C285.154 494.341 285.163 494.196 285.22 494.068C285.277 493.94 285.378 493.837 285.505 493.778C286.441 493.341 287.463 493.119 288.496 493.129C290.907 493.129 292.369 494.349 292.369 495.975C292.368 496.602 292.144 497.207 291.738 497.684C291.332 498.161 290.77 498.479 290.152 498.579C290.829 498.622 291.467 498.913 291.942 499.398C292.418 499.882 292.697 500.525 292.727 501.203C292.727 503.681 290.248 504.533 288.187 504.533C287.191 504.549 286.203 504.361 285.282 503.981C285.156 503.926 285.055 503.827 284.996 503.702C284.937 503.578 284.925 503.436 284.963 503.304L285.185 502.471C285.206 502.394 285.243 502.321 285.293 502.259C285.343 502.196 285.405 502.145 285.476 502.108C285.547 502.07 285.625 502.048 285.705 502.042C285.785 502.037 285.865 502.047 285.941 502.074C286.612 502.334 287.322 502.478 288.041 502.5C289.3 502.5 290.074 501.958 290.074 501.038C290.074 499.819 288.796 499.577 287.741 499.577H287.257C287.181 499.577 287.106 499.561 287.036 499.532C286.966 499.503 286.903 499.46 286.85 499.406C286.797 499.352 286.755 499.288 286.727 499.217C286.699 499.147 286.685 499.072 286.686 498.996V498.299C286.685 498.223 286.699 498.148 286.727 498.077C286.755 498.007 286.797 497.943 286.85 497.889C286.903 497.835 286.966 497.792 287.036 497.762C287.106 497.733 287.181 497.718 287.257 497.718H287.732C288.864 497.718 289.716 497.214 289.716 496.324C289.716 495.607 289.116 495.114 288.041 495.114C287.402 495.136 286.773 495.274 286.183 495.52C286.109 495.549 286.03 495.563 285.951 495.561C285.872 495.558 285.795 495.54 285.723 495.506C285.651 495.473 285.587 495.425 285.535 495.366C285.482 495.306 285.443 495.237 285.418 495.162L285.195 494.475Z" fill="#799F97"/>
<path d="M303.15 493.905V501.882C303.15 502.029 303.206 502.17 303.307 502.276C303.408 502.383 303.546 502.446 303.692 502.453C303.841 502.463 303.98 502.53 304.081 502.64C304.182 502.75 304.237 502.895 304.234 503.044L304.147 506.616C304.146 506.691 304.13 506.765 304.1 506.834C304.07 506.903 304.027 506.965 303.973 507.017C303.919 507.069 303.855 507.11 303.785 507.138C303.716 507.165 303.641 507.179 303.566 507.178H302.801C302.652 507.178 302.509 507.121 302.401 507.018C302.292 506.915 302.228 506.775 302.22 506.626L302.143 504.941C302.136 504.792 302.071 504.652 301.963 504.549C301.855 504.447 301.711 504.389 301.562 504.39H296.18C296.032 504.389 295.889 504.447 295.783 504.55C295.676 504.653 295.614 504.793 295.609 504.941L295.531 506.626C295.524 506.775 295.459 506.915 295.351 507.018C295.243 507.121 295.099 507.178 294.95 507.178H294.166C294.015 507.178 293.87 507.119 293.762 507.014C293.654 506.91 293.59 506.767 293.585 506.616L293.508 503.034C293.507 502.887 293.563 502.745 293.664 502.637C293.765 502.529 293.903 502.463 294.05 502.453H294.118C294.216 502.448 294.311 502.418 294.394 502.366C294.477 502.313 294.546 502.24 294.592 502.153C294.968 501.462 295.267 500.732 295.483 499.975C295.785 498.773 295.928 497.536 295.909 496.297V493.915C295.909 493.839 295.924 493.764 295.953 493.694C295.982 493.624 296.025 493.561 296.079 493.508C296.133 493.455 296.198 493.413 296.268 493.385C296.338 493.356 296.414 493.343 296.489 493.344H302.569C302.644 493.343 302.719 493.356 302.788 493.384C302.858 493.411 302.922 493.452 302.976 493.504C303.03 493.556 303.073 493.619 303.103 493.687C303.133 493.756 303.149 493.83 303.15 493.905ZM298.222 496.81C298.231 498.043 298.065 499.272 297.729 500.459C297.625 500.825 297.499 501.184 297.351 501.534C297.317 501.621 297.304 501.716 297.314 501.809C297.324 501.903 297.357 501.992 297.409 502.07C297.461 502.148 297.532 502.213 297.615 502.257C297.697 502.302 297.79 502.326 297.884 502.328H300.081C300.233 502.325 300.379 502.263 300.486 502.154C300.592 502.045 300.652 501.899 300.652 501.747V495.938C300.652 495.786 300.592 495.64 300.486 495.531C300.379 495.422 300.233 495.36 300.081 495.357H298.803C298.649 495.357 298.501 495.419 298.392 495.528C298.284 495.636 298.222 495.784 298.222 495.938V496.81Z" fill="#799F97"/>
<path d="M305.648 493.976C305.65 493.837 305.701 493.702 305.794 493.597C305.886 493.492 306.013 493.424 306.152 493.405C307.116 493.295 308.086 493.243 309.056 493.25C310.254 493.157 311.447 493.471 312.444 494.141C312.824 494.448 313.128 494.838 313.333 495.281C313.537 495.724 313.638 496.209 313.625 496.697C313.65 497.181 313.572 497.665 313.397 498.117C313.222 498.569 312.953 498.979 312.609 499.32C311.598 500.149 310.313 500.567 309.008 500.492H308.756C308.678 500.489 308.6 500.502 308.528 500.53C308.455 500.558 308.389 500.601 308.333 500.655C308.277 500.709 308.232 500.774 308.202 500.846C308.171 500.917 308.156 500.995 308.156 501.072V503.831C308.153 503.982 308.092 504.126 307.986 504.233C307.879 504.339 307.735 504.4 307.585 504.403H306.258C306.106 504.403 305.96 504.343 305.851 504.236C305.742 504.129 305.68 503.984 305.677 503.831L305.648 493.976ZM308.127 497.984C308.127 498.135 308.185 498.28 308.29 498.388C308.395 498.497 308.538 498.56 308.688 498.565H308.969C310.295 498.565 311.118 497.897 311.118 496.784C311.118 495.671 310.411 495.158 309.182 495.158H308.708C308.56 495.167 308.422 495.233 308.322 495.341C308.221 495.449 308.165 495.591 308.165 495.738L308.127 497.984Z" fill="#799F97"/>
<path d="M316.657 501.982L316.106 503.919C316.07 504.04 315.997 504.148 315.895 504.224C315.794 504.301 315.671 504.343 315.544 504.344H314.189C314.099 504.344 314.011 504.322 313.93 504.281C313.85 504.24 313.781 504.182 313.727 504.109C313.674 504.037 313.638 503.953 313.622 503.865C313.606 503.776 313.612 503.685 313.637 503.599L316.648 493.696C316.685 493.578 316.758 493.475 316.857 493.402C316.957 493.329 317.076 493.29 317.2 493.289H319.629C319.753 493.29 319.873 493.329 319.972 493.402C320.071 493.475 320.144 493.578 320.181 493.696L323.269 503.599C323.295 503.685 323.3 503.776 323.284 503.865C323.269 503.953 323.233 504.037 323.179 504.109C323.126 504.182 323.056 504.24 322.976 504.281C322.896 504.322 322.808 504.344 322.718 504.344H321.217C321.094 504.344 320.974 504.304 320.875 504.231C320.776 504.158 320.702 504.055 320.665 503.938L320.065 501.915C320.028 501.797 319.955 501.694 319.856 501.621C319.756 501.548 319.637 501.509 319.513 501.508H317.209C317.077 501.511 316.949 501.559 316.848 501.646C316.747 501.733 316.68 501.852 316.657 501.982ZM318.807 499.688C318.896 499.687 318.985 499.666 319.065 499.625C319.145 499.584 319.215 499.525 319.268 499.453C319.322 499.381 319.358 499.297 319.373 499.208C319.389 499.12 319.384 499.029 319.358 498.943L318.884 497.336C318.69 496.687 318.497 495.864 318.332 495.206C318.168 495.864 318.013 496.697 317.829 497.336L317.374 498.952C317.35 499.039 317.346 499.129 317.363 499.217C317.38 499.305 317.418 499.388 317.472 499.46C317.526 499.531 317.596 499.589 317.677 499.628C317.757 499.668 317.846 499.688 317.935 499.688H318.807Z" fill="#799F97"/>
<path d="M325.008 493.983C325.007 493.842 325.057 493.705 325.15 493.598C325.242 493.491 325.371 493.421 325.511 493.402C326.418 493.304 327.329 493.252 328.241 493.247C329.372 493.155 330.507 493.372 331.523 493.877C331.923 494.081 332.257 494.394 332.488 494.779C332.719 495.164 332.837 495.606 332.83 496.055C332.817 496.589 332.633 497.104 332.305 497.526C331.978 497.947 331.524 498.253 331.01 498.398C331.633 498.525 332.193 498.865 332.594 499.36C332.995 499.854 333.211 500.472 333.207 501.108C333.211 501.563 333.11 502.013 332.912 502.423C332.714 502.832 332.424 503.191 332.065 503.47C331.252 504.109 329.906 504.438 327.709 504.438C326.808 504.438 326.073 504.39 325.521 504.342C325.379 504.325 325.248 504.256 325.153 504.149C325.059 504.042 325.007 503.904 325.008 503.761V493.983ZM327.486 497.139C327.485 497.214 327.499 497.289 327.527 497.359C327.555 497.429 327.597 497.493 327.65 497.546C327.704 497.599 327.767 497.641 327.837 497.669C327.907 497.698 327.982 497.712 328.057 497.71H328.299C329.635 497.71 330.323 497.168 330.323 496.355C330.323 495.542 329.684 495.067 328.551 495.067H328.038C327.89 495.072 327.749 495.135 327.646 495.241C327.544 495.348 327.486 495.49 327.486 495.639V497.139ZM327.486 502.076C327.486 502.226 327.545 502.37 327.65 502.477C327.755 502.584 327.898 502.645 328.048 502.647H328.454C329.587 502.647 330.584 502.202 330.584 501.031C330.584 499.859 329.616 499.492 328.338 499.492H328.057C327.981 499.492 327.906 499.507 327.836 499.536C327.766 499.565 327.703 499.608 327.65 499.662C327.597 499.716 327.555 499.78 327.527 499.851C327.499 499.921 327.485 499.997 327.486 500.072V502.076Z" fill="#799F97"/>
<path d="M344.932 498.749C344.932 502.389 342.744 504.558 339.501 504.558C336.258 504.558 334.293 502.08 334.293 498.914C334.293 495.593 336.432 493.105 339.675 493.105C343.073 493.135 344.932 495.681 344.932 498.749ZM336.936 498.885C336.936 501.063 337.952 502.593 339.627 502.593C341.302 502.593 342.289 500.986 342.289 498.837C342.289 496.687 341.321 495.119 339.627 495.119C337.933 495.119 336.936 496.736 336.936 498.885Z" fill="#799F97"/>
<path d="M444.991 469C443.189 473.792 440.41 478.157 436.83 481.817L434.332 480.172C437.872 476.783 440.55 472.598 442.144 467.964L444.991 469ZM454.187 462.224V482.785C454.187 487.626 450.383 487.626 443.955 487.49C443.738 486.509 443.413 485.554 442.987 484.644C443.955 484.644 448.795 484.644 449.289 484.644C449.53 484.664 449.772 484.63 449.999 484.546C450.225 484.461 450.431 484.328 450.6 484.155C450.769 483.982 450.898 483.774 450.977 483.546C451.057 483.317 451.085 483.074 451.06 482.834V462.272H436.404V459.368H451.08V450.52L455.175 450.733C455.175 451.168 454.836 451.517 454.207 451.555V459.368H468.795V462.272L454.187 462.224ZM461.932 467.664C465.354 471.566 468.404 475.779 471.041 480.249L468.282 481.866C465.78 477.325 462.832 473.045 459.483 469.087L461.932 467.664Z" fill="white"/>
<path d="M509.784 464.253C509.659 464.465 509.458 464.62 509.223 464.689C505.689 477.719 498.477 484.051 485.573 487.642C485.071 486.74 484.463 485.902 483.762 485.144C495.495 482.24 502.795 476.17 505.515 466.151H476.938V463.247H506.803L507.238 462.985L509.784 464.253ZM505.728 455.018H481.129V452.172H505.728V455.018Z" fill="white"/>
<path d="M190.003 111.634C199.084 112.186 212.443 114.364 226.374 113.028C242.937 111.441 274.38 110.124 290.605 111.634C300.363 112.602 308.35 119.786 308.35 129.844V192.575C308.35 202.633 300.315 209.419 290.605 210.794C285.424 211.487 280.197 211.788 274.971 211.694C272.917 211.694 270.947 212.51 269.495 213.963C268.042 215.415 267.226 217.385 267.226 219.439V236.196L251.737 214.511C250.83 213.239 249.652 212.182 248.287 211.419C246.923 210.656 245.407 210.204 243.847 210.097H243.799C230.401 209.129 203.479 210.717 190.042 210.842C180.235 210.93 172.297 202.682 172.297 192.623V129.892C172.258 119.757 180.216 111.044 190.003 111.634Z" fill="#B6D1D9"/>
<path d="M244.571 241.984C235.858 241.345 219.043 241.906 210.166 242.574C202.702 243.136 195.548 242.216 190.678 241.984C185.441 241.742 181.172 245.411 181.172 249.632V275.953C181.172 280.174 185.431 283.64 190.678 283.601C197.881 283.543 212.305 282.895 219.478 283.291C221.715 283.408 223.748 283.524 225.626 283.611C226.788 283.672 227.922 283.995 228.943 284.554C229.963 285.114 230.845 285.897 231.521 286.844L236.807 294.24V288.277C236.805 287.151 237.236 286.066 238.011 285.249C238.786 284.431 239.845 283.942 240.97 283.882C242.209 283.824 243.4 283.727 244.571 283.601C249.779 283.02 254.077 280.174 254.077 275.953V249.632C254.077 245.411 249.799 242.381 244.571 241.984Z" fill="#7B9DCA"/>
<path d="M183.961 447.264C174.125 446.538 155.064 447.177 145.015 447.932C136.573 448.561 128.471 447.526 122.962 447.264C117.038 446.983 112.207 451.137 112.207 455.919V485.687C112.207 490.469 117.047 494.4 122.962 494.342C131.114 494.284 147.435 493.538 155.557 493.983L162.508 494.361C163.823 494.426 165.107 494.788 166.262 495.42C167.417 496.052 168.414 496.938 169.178 498.011L175.17 506.384V499.608C175.169 498.335 175.656 497.11 176.531 496.186C177.407 495.261 178.604 494.709 179.875 494.642C181.279 494.574 182.625 494.467 183.961 494.322C189.846 493.664 194.716 490.45 194.716 485.668V455.919C194.716 451.137 189.875 447.71 183.961 447.264Z" fill="#AEC5C2"/>
<path d="M605.989 409.912C612.589 409.912 615.79 406.612 615.79 402.751C615.79 394.27 602.359 397.207 602.359 392.95C602.359 391.498 603.58 390.31 606.748 390.31C608.794 390.31 611.005 390.904 613.15 392.125L614.8 388.066C612.655 386.713 609.685 386.02 606.781 386.02C600.214 386.02 597.046 389.287 597.046 393.214C597.046 401.794 610.477 398.824 610.477 403.147C610.477 404.566 609.19 405.622 606.022 405.622C603.25 405.622 600.346 404.632 598.399 403.213L596.584 407.239C598.63 408.823 602.326 409.912 605.989 409.912ZM626.241 391.498C623.403 391.498 620.532 392.257 618.585 393.643L620.433 397.24C621.72 396.217 623.667 395.59 625.548 395.59C628.32 395.59 629.64 396.877 629.64 399.088H625.548C620.136 399.088 617.925 401.266 617.925 404.401C617.925 407.47 620.4 409.78 624.558 409.78C627.165 409.78 629.013 408.922 629.97 407.305V409.516H634.788V399.385C634.788 394.006 631.653 391.498 626.241 391.498ZM625.845 406.315C624.03 406.315 622.941 405.457 622.941 404.17C622.941 402.982 623.7 402.091 626.109 402.091H629.64V403.906C629.046 405.523 627.561 406.315 625.845 406.315ZM639.447 409.516H644.595V385.03H639.447V409.516ZM662.111 391.762V400.54C662.111 403.807 660.395 405.325 658.019 405.325C655.742 405.325 654.422 404.005 654.422 401.035V391.762H649.274V401.794C649.274 407.272 652.409 409.78 656.864 409.78C659.042 409.78 661.022 408.955 662.375 407.404V409.516H667.259V391.762H662.111ZM682.093 405.028C681.532 405.457 680.773 405.688 680.014 405.688C678.628 405.688 677.803 404.863 677.803 403.345V396.118H682.225V392.158H677.803V387.835H672.655V392.158H669.916V396.118H672.655V403.411C672.655 407.635 675.097 409.78 679.288 409.78C680.872 409.78 682.423 409.417 683.479 408.658L682.093 405.028Z" fill="white"/>
<path d="M126.5 469.7C126.5 474.692 130.028 478.604 135.092 478.604C139.364 478.604 141.764 475.772 141.764 475.772L140.468 474.044C140.468 474.044 138.476 476.348 135.116 476.348C131.66 476.348 128.996 473.396 128.996 469.7C128.996 465.884 131.636 463.316 135.044 463.316C136.748 463.316 139.148 464.036 139.148 465.452V466.412H141.356V464.756C141.356 462.044 137.276 461.084 134.996 461.084C130.148 461.084 126.5 464.804 126.5 469.7ZM144.72 463.796H146.808V461.372H144.72V463.796ZM144.672 476.78C144.672 477.86 145.128 478.316 146.208 478.316H148.488V476.324H147.504C147.168 476.324 146.976 476.156 146.976 475.796V467.708C146.976 466.628 146.52 466.172 145.44 466.172H143.16V468.164H144.144C144.48 468.164 144.672 468.332 144.672 468.692V476.78ZM150.009 474.908C150.009 477.332 152.049 478.604 154.137 478.604C157.041 478.604 158.001 476.204 158.001 476.204H158.049C158.049 476.204 158.001 476.516 158.001 476.924C158.001 477.788 158.433 478.316 159.513 478.316H161.697V476.324H160.713C160.377 476.324 160.185 476.156 160.185 475.796V470.636C160.185 467.948 159.129 465.884 155.193 465.884C154.017 465.884 150.993 466.172 150.993 468.164V469.364H153.177V468.668C153.177 467.876 154.593 467.732 155.169 467.732C157.065 467.732 157.857 468.5 157.857 470.636V470.756H157.329C155.289 470.756 150.009 470.996 150.009 474.908ZM152.361 474.788C152.361 472.556 155.529 472.46 157.281 472.46H157.881V472.868C157.881 474.668 156.609 476.732 154.641 476.732C153.105 476.732 152.361 475.772 152.361 474.788ZM163.04 472.22C163.04 475.916 165.944 478.604 169.568 478.604C173.192 478.604 176.12 475.916 176.12 472.22C176.12 468.548 173.192 465.884 169.568 465.884C165.944 465.884 163.04 468.548 163.04 472.22ZM165.416 472.22C165.416 469.7 167.288 467.9 169.568 467.9C171.872 467.9 173.744 469.7 173.744 472.22C173.744 474.764 171.872 476.588 169.568 476.588C167.288 476.588 165.416 474.764 165.416 472.22ZM179.724 473.66H181.812L181.956 461.372H179.556L179.724 473.66ZM179.58 478.316H181.956V475.988H179.58V478.316Z" fill="white"/>
<path d="M188.385 169.396C188.385 169.396 191.661 173.491 197.511 173.491C202.971 173.491 206.247 169.864 206.247 165.652C206.247 156.604 192.987 157.852 192.987 152.275C192.987 150.208 194.859 148.57 197.823 148.57C200.007 148.57 202.074 149.623 202.074 151.066V152.353H205.662V150.091C205.662 146.347 200.748 145.021 197.823 145.021C192.636 145.021 189.009 148.258 189.009 152.392C189.009 160.972 202.308 160.075 202.308 165.847C202.308 168.382 200.163 169.942 197.589 169.942C193.494 169.942 190.686 166.627 190.686 166.627L188.385 169.396ZM209.297 167.485C209.297 171.424 212.612 173.491 216.005 173.491C220.724 173.491 222.284 169.591 222.284 169.591H222.362C222.362 169.591 222.284 170.098 222.284 170.761C222.284 172.165 222.986 173.023 224.741 173.023H228.29V169.786H226.691C226.145 169.786 225.833 169.513 225.833 168.928V160.543C225.833 156.175 224.117 152.821 217.721 152.821C215.81 152.821 210.896 153.289 210.896 156.526V158.476H214.445V157.345C214.445 156.058 216.746 155.824 217.682 155.824C220.763 155.824 222.05 157.072 222.05 160.543V160.738H221.192C217.877 160.738 209.297 161.128 209.297 167.485ZM213.119 167.29C213.119 163.663 218.267 163.507 221.114 163.507H222.089V164.17C222.089 167.095 220.022 170.449 216.824 170.449C214.328 170.449 213.119 168.889 213.119 167.29ZM232.304 170.527C232.304 172.282 233.045 173.023 234.8 173.023H238.544V169.786H236.945C236.399 169.786 236.087 169.513 236.087 168.928V147.985C236.087 146.23 235.346 145.489 233.591 145.489H229.847V148.726H231.446C231.992 148.726 232.304 148.999 232.304 149.584V170.527ZM240.946 167.485C240.946 171.424 244.261 173.491 247.654 173.491C252.373 173.491 253.933 169.591 253.933 169.591H254.011C254.011 169.591 253.933 170.098 253.933 170.761C253.933 172.165 254.635 173.023 256.39 173.023H259.939V169.786H258.34C257.794 169.786 257.482 169.513 257.482 168.928V160.543C257.482 156.175 255.766 152.821 249.37 152.821C247.459 152.821 242.545 153.289 242.545 156.526V158.476H246.094V157.345C246.094 156.058 248.395 155.824 249.331 155.824C252.412 155.824 253.699 157.072 253.699 160.543V160.738H252.841C249.526 160.738 240.946 161.128 240.946 167.485ZM244.768 167.29C244.768 163.663 249.916 163.507 252.763 163.507H253.738V164.17C253.738 167.095 251.671 170.449 248.473 170.449C245.977 170.449 244.768 168.889 244.768 167.29ZM264.032 173.023H267.815V164.014C267.815 163.117 267.893 162.259 268.088 161.479C268.829 158.671 270.857 156.253 273.743 156.253C276.746 156.253 277.136 158.632 277.136 161.206V173.023H280.919V164.014C280.919 163 281.036 162.142 281.231 161.323C281.933 158.632 284.039 156.253 286.769 156.253C289.694 156.253 290.24 158.437 290.24 161.206V170.527C290.24 172.282 290.981 173.023 292.736 173.023H296.48V169.786H294.881C294.335 169.786 294.023 169.513 294.023 168.928V160.387C294.023 155.356 291.956 152.821 287.51 152.821C284.312 152.821 281.582 154.927 280.49 157.306H280.412C279.749 154.342 277.838 152.821 274.484 152.821C271.403 152.821 268.673 155.044 267.737 157.345H267.659C267.659 157.345 267.698 156.838 267.698 156.214V155.473C267.698 154.03 266.918 153.289 265.202 153.289H261.575V156.526H263.174C263.72 156.526 264.032 156.799 264.032 157.384V173.023Z" fill="white"/>
<path d="M199.283 261.893C199.283 266.837 203.075 270.726 207.875 270.726C212.651 270.726 216.467 266.837 216.467 261.893C216.467 257.045 212.651 253.277 207.875 253.277C203.075 253.277 199.283 257.045 199.283 261.893ZM201.035 261.893C201.035 257.909 204.083 254.861 207.875 254.861C211.643 254.861 214.715 257.909 214.715 261.893C214.715 265.973 211.643 269.141 207.875 269.141C204.083 269.141 201.035 265.973 201.035 261.893ZM219.419 268.973C219.419 270.005 219.851 270.438 220.883 270.438H222.587V269.021H221.579C221.243 269.021 221.051 268.854 221.051 268.493V255.029C221.051 253.997 220.619 253.565 219.587 253.565H217.883V254.981H218.891C219.227 254.981 219.419 255.173 219.419 255.509V268.973ZM224.198 267.149C224.198 269.549 226.286 270.726 228.302 270.726C231.326 270.726 232.334 268.109 232.31 268.109H232.358C232.358 268.109 232.334 268.469 232.334 268.997C232.334 269.981 232.742 270.438 233.774 270.438H235.43V269.021H234.422C234.086 269.021 233.894 268.854 233.894 268.493V262.709C233.894 260.117 232.982 258.077 229.166 258.077C228.11 258.077 225.23 258.438 225.23 260.117V261.269H226.79V260.501C226.79 259.613 228.542 259.445 229.142 259.445C231.35 259.445 232.262 260.333 232.262 262.853V262.997H231.59C229.502 262.997 224.198 263.141 224.198 267.149ZM225.878 267.053C225.878 264.341 229.67 264.293 231.566 264.293H232.262V264.845C232.262 266.933 230.87 269.333 228.566 269.333C226.766 269.333 225.878 268.181 225.878 267.053ZM228.758 256.421H230.174L232.262 253.565H230.438L228.758 256.421Z" fill="white"/>
</svg>
