<svg width="31" height="24" viewBox="0 0 31 24" fill="none" xmlns="http://www.w3.org/2000/svg">
<path d="M15.1188 3.63574L15.3114 3.86823L15.5039 3.63575C16.0448 2.98276 16.6572 2.42449 17.3319 1.96871C18.6672 1.06707 20.1832 0.609375 21.8438 0.609375C24.0719 0.609375 26.1115 1.3881 27.5935 2.79174C29.0571 4.17805 29.864 6.07169 29.864 8.12847C29.864 10.2321 28.9707 12.175 26.9966 14.2549L27.1779 14.427L26.9966 14.2549C25.2227 16.1241 22.6672 18.0267 19.6789 20.2504L19.6789 20.2504L19.6542 20.2688C18.6414 21.0225 17.4941 21.8765 16.3037 22.7855L16.3036 22.7856C16.0336 22.9921 15.6812 23.1094 15.3114 23.1094C14.9415 23.1094 14.5893 22.9921 14.3188 22.7853L14.3186 22.7851C13.1195 21.8697 11.9649 21.0103 10.9472 20.2529L10.9446 20.251L10.9446 20.251C7.95579 18.0269 5.40035 16.1241 3.6264 14.2551C1.65228 12.1749 0.758759 10.2321 0.758759 8.12867C0.758759 6.0717 1.56567 4.17806 3.02904 2.79174C4.51108 1.3881 6.55088 0.609375 8.779 0.609375C10.4395 0.609375 11.9556 1.06707 13.2907 1.9687L13.2907 1.96871C13.9656 2.42449 14.5782 2.98295 15.1188 3.63574Z" fill="#DB8080" stroke="#DB8080" stroke-width="0.5"/>
</svg>
