<svg width="49" height="49" viewBox="0 0 49 49" fill="none" xmlns="http://www.w3.org/2000/svg">
<path fill-rule="evenodd" clip-rule="evenodd" d="M43.719 23.8101C43.719 22.8096 42.908 21.9986 41.9075 21.9986H8.09276C7.09229 21.9986 6.28125 22.8096 6.28125 23.8101C6.28125 24.8106 7.09229 25.6216 8.09276 25.6216H41.9075C42.908 25.6216 43.719 24.8106 43.719 23.8101Z" fill="#DB8080"/>
<path fill-rule="evenodd" clip-rule="evenodd" d="M43.719 11.7334C43.719 10.7329 42.908 9.92188 41.9075 9.92188H8.09276C7.09229 9.92188 6.28125 10.7329 6.28125 11.7334C6.28125 12.7338 7.09229 13.5449 8.09276 13.5449H41.9075C42.908 13.5449 43.719 12.7338 43.719 11.7334Z" fill="#DB8080"/>
<path fill-rule="evenodd" clip-rule="evenodd" d="M43.719 35.8868C43.719 34.8863 42.908 34.0753 41.9075 34.0753H8.09276C7.09229 34.0753 6.28125 34.8863 6.28125 35.8868C6.28125 36.8873 7.09229 37.6983 8.09276 37.6983H41.9075C42.908 37.6983 43.719 36.8873 43.719 35.8868Z" fill="#DB8080"/>
</svg>
