<svg width="24" height="24" viewBox="0 0 24 24" fill="none" xmlns="http://www.w3.org/2000/svg">
<g clip-path="url(#clip0_3669_50860)">
<path d="M16.5156 10.3105C16.5156 9.79277 16.0959 9.37305 15.5781 9.37305H5.92188C5.40409 9.37305 4.98438 9.79277 4.98438 10.3105C4.98438 10.8283 5.40409 11.248 5.92188 11.248H15.5781C16.0959 11.248 16.5156 10.8283 16.5156 10.3105Z" fill="white"/>
<path d="M5.92187 13.123C5.40409 13.123 4.98438 13.5428 4.98438 14.0605C4.98438 14.5783 5.40409 14.998 5.92187 14.998H11.7864C12.3042 14.998 12.7239 14.5783 12.7239 14.0605C12.7239 13.5428 12.3042 13.123 11.7864 13.123H5.92187Z" fill="white"/>
<path d="M8.12956 22.123H4.99414C3.96027 22.123 3.11914 21.2819 3.11914 20.248V3.74805C3.11914 2.71417 3.96027 1.87305 4.99414 1.87305H16.5202C17.5541 1.87305 18.3952 2.71417 18.3952 3.74805V9.51367C18.3952 10.0315 18.8149 10.4512 19.3327 10.4512C19.8505 10.4512 20.2702 10.0315 20.2702 9.51367V3.74805C20.2702 1.6803 18.5879 -0.00195312 16.5202 -0.00195312H4.99414C2.92639 -0.00195312 1.24414 1.6803 1.24414 3.74805V20.248C1.24414 22.3158 2.92639 23.998 4.99414 23.998H8.12956C8.64734 23.998 9.06706 23.5783 9.06706 23.0605C9.06706 22.5428 8.64734 22.123 8.12956 22.123Z" fill="white"/>
<path d="M21.9341 13.5706C20.8375 12.474 19.0532 12.474 17.9573 13.5699L12.8103 18.7055C12.701 18.8146 12.6204 18.9489 12.5755 19.0966L11.4546 22.7869C11.3552 23.1141 11.4418 23.4693 11.6805 23.7141C11.8594 23.8974 12.1024 23.9969 12.3517 23.9969C12.435 23.9969 12.5192 23.9857 12.6019 23.9628L16.3859 22.9147C16.5416 22.8715 16.6835 22.7889 16.7979 22.6747L21.9341 17.5481C23.0307 16.4515 23.0307 14.6673 21.9341 13.5706ZM15.6478 21.1735L13.7441 21.7009L14.3012 19.8667L17.7741 16.4015L19.1002 17.7276L15.6478 21.1735ZM20.609 16.2218L20.4273 16.403L19.1015 15.0772L19.2825 14.8965C19.648 14.531 20.2428 14.531 20.6083 14.8965C20.9738 15.262 20.9738 15.8568 20.609 16.2218Z" fill="white"/>
<path d="M15.5781 5.62305H5.92188C5.40409 5.62305 4.98438 6.04277 4.98438 6.56055C4.98438 7.07833 5.40409 7.49805 5.92188 7.49805H15.5781C16.0959 7.49805 16.5156 7.07833 16.5156 6.56055C16.5156 6.04277 16.0959 5.62305 15.5781 5.62305Z" fill="white"/>
</g>
<defs>
<clipPath id="clip0_3669_50860">
<rect width="24" height="24" fill="white"/>
</clipPath>
</defs>
</svg>
