<svg width="25" height="25" viewBox="0 0 25 25" fill="none" xmlns="http://www.w3.org/2000/svg">
<g clip-path="url(#clip0_3669_52590)">
<path d="M12.4999 0.0175781C5.88321 0.0175781 0.5 5.40066 0.5 12.0175C0.5 18.6344 5.88321 24.0176 12.4999 24.0176C19.1167 24.0176 24.4999 18.6344 24.4999 12.0175C24.4999 5.40066 19.1168 0.0175781 12.4999 0.0175781ZM19.3905 9.99063L11.8516 17.5296C11.531 17.8501 11.1049 18.0266 10.6516 18.0266C10.1983 18.0266 9.77221 17.8501 9.45165 17.5296L5.60936 13.6873C5.28881 13.3667 5.11225 12.9406 5.11225 12.4873C5.11225 12.0339 5.28881 11.6078 5.60936 11.2872C5.92979 10.9667 6.35591 10.7901 6.80932 10.7901C7.2626 10.7901 7.68884 10.9667 8.00927 11.2874L10.6515 13.9295L16.9903 7.59059C17.3109 7.27003 17.737 7.0936 18.1903 7.0936C18.6436 7.0936 19.0697 7.27003 19.3903 7.59059C20.0522 8.25249 20.0522 9.32898 19.3905 9.99063Z" fill="#DB8080"/>
</g>
<defs>
<clipPath id="clip0_3669_52590">
<rect width="24" height="24" fill="white" transform="translate(0.5 0.0175781)"/>
</clipPath>
</defs>
</svg>
