<svg width="36" height="37" viewBox="0 0 36 37" fill="none" xmlns="http://www.w3.org/2000/svg">
<path d="M13.875 5.48633C13.875 4.86501 14.3787 4.36133 15 4.36133H21C21.6213 4.36133 22.125 4.86501 22.125 5.48633V6.61133H28.5C29.1213 6.61133 29.625 7.11501 29.625 7.73633C29.625 8.35765 29.1213 8.86133 28.5 8.86133H7.5C6.87868 8.86133 6.375 8.35765 6.375 7.73633C6.375 7.11501 6.87868 6.61133 7.5 6.61133H13.875V5.48633Z" fill="#DB8080"/>
<path fill-rule="evenodd" clip-rule="evenodd" d="M9.35984 12.9035C9.40205 12.5237 9.72309 12.2363 10.1053 12.2363H25.8947C26.2769 12.2363 26.5979 12.5237 26.6401 12.9035L26.9404 15.6055C27.4815 20.476 27.4815 25.3914 26.9404 30.2619L26.9108 30.5279C26.7137 32.3017 25.3389 33.7162 23.5714 33.9636C19.8751 34.4811 16.1248 34.4811 12.4286 33.9636C10.6611 33.7162 9.28627 32.3017 9.08917 30.5279L9.05962 30.2619C8.51846 25.3914 8.51846 20.476 9.05962 15.6055L9.35984 12.9035ZM21.7955 19.6908C22.2348 20.1302 22.2348 20.8425 21.7955 21.2818L19.591 23.4863L21.7955 25.6908C22.2348 26.1302 22.2348 26.8425 21.7955 27.2818C21.3562 27.7212 20.6438 27.7212 20.2045 27.2818L18 25.0773L15.7955 27.2818C15.3562 27.7212 14.6439 27.7212 14.2045 27.2818C13.7652 26.8425 13.7652 26.1302 14.2045 25.6908L16.409 23.4863L14.2045 21.2818C13.7652 20.8425 13.7652 20.1302 14.2045 19.6908C14.6438 19.2515 15.3562 19.2515 15.7955 19.6908L18 21.8953L20.2045 19.6908C20.6439 19.2515 21.3562 19.2515 21.7955 19.6908Z" fill="#DB8080"/>
</svg>
