<?xml version="1.0" encoding="utf-8"?>
<!-- Generator: Adobe Illustrator 25.4.1, SVG Export Plug-In . SVG Version: 6.00 Build 0)  -->
<svg version="1.1" id="Layer_1" xmlns="http://www.w3.org/2000/svg" xmlns:xlink="http://www.w3.org/1999/xlink" x="0px" y="0px"
	 width="34.4995193px" height="26.8022804px" viewBox="0 0 34.4995193 26.8022804"
	 style="enable-background:new 0 0 34.4995193 26.8022804;" xml:space="preserve">
<style type="text/css">
	.st0{fill:none;stroke:#FFFFFF;stroke-width:2.9875;}
</style>
<path class="st0" d="M13.0788059,26.6513386"/>
<path class="st0" d="M18.4001694,4.58499l1.8770008-1.7130899c1.3515987-0.91264,2.8825989-1.3781501,4.5848999-1.3781501
	c2.3167,0,4.3890991,0.8080102,5.8733997,2.2137399c1.4608994,1.3838,2.270298,3.2726302,2.270298,5.3459406
	c0,2.0528002-0.8508987,4.0353994-3.011198,6.3115005h-0.0001011c-1.9799995,2.0865002-4.860899,4.2361984-8.3731003,6.849699
	l-0.0000992,0.0001011l-0.0314007,0.0233994c-1.1788998,0.8775005-2.5206985,1.8761005-3.913599,2.9398003l-0.0007,0.0005989
	c-0.0923004,0.0705013-0.2425995,0.1300011-0.4258003,0.1300011c-0.1831989,0-0.3332996-0.0592995-0.426199-0.1303997
	L16.8224697,25.17733c-1.4031-1.0711994-2.753499-2.0762997-3.9382992-2.9580994l-0.0052004-0.0037994L12.87887,22.2153301
	c-3.5125999-2.6138992-6.3935404-4.7638988-8.3736496-6.8502007C2.34477,13.0887308,1.49375,11.1061306,1.49375,9.05373
	c0-2.0736003,0.8093601-3.96244,2.2701497-5.3463702C5.2480898,2.3017602,7.3206897,1.49375,9.6374702,1.49375
	c1.7023001,0,3.2333002,0.4655602,4.5845003,1.37808l0.0001001,0.0000501c0.6879997,0.46457,1.317399,1.0370598,1.8771992,1.7130499
	L17.24967,5.9740601L18.4001694,4.58499l-1.1504993,1.38907L18.4001694,4.58499z"/>
</svg>
