<svg width="37" height="37" viewBox="0 0 37 37" fill="none" xmlns="http://www.w3.org/2000/svg">
<path d="M34.8359 21.4384V16.6932C34.8359 15.408 33.7422 14.3865 32.3661 14.3865L29.0849 14.1228L26.1564 10.0367C26.1211 10.0037 26.0858 9.93781 26.0505 9.90485C25.5919 9.34465 24.8862 8.94922 24.0394 8.94922H22.8046H13.2783C11.9022 8.94922 10.8085 9.97076 10.8085 11.2559V21.4713C10.2087 21.6031 9.75 22.1304 9.75 22.7565V24.4041C9.75 25.1621 10.3851 25.7223 11.1613 25.7223H13.1724C13.6311 27.2051 15.0777 28.2596 16.8065 28.2596C18.5354 28.2596 19.9819 27.1722 20.4406 25.7223H22.8046H25.6624C26.1211 27.2051 27.5677 28.2596 29.2965 28.2596C31.0254 28.2596 32.472 27.1722 32.9307 25.7223H34.6595C35.471 25.7223 36.0708 25.1291 36.0708 24.4041V22.7565C36.0708 22.0645 35.5063 21.5043 34.8359 21.4384ZM16.7712 26.4802C15.7128 26.4802 14.866 25.6564 14.866 24.7007C14.866 23.7451 15.748 22.9213 16.7712 22.9213C17.8297 22.9213 18.6765 23.7451 18.6765 24.7007C18.6765 25.6893 17.8297 26.4802 16.7712 26.4802ZM29.2965 26.4802C28.2381 26.4802 27.3913 25.6564 27.3913 24.7007C27.3913 23.7451 28.2734 22.9213 29.2965 22.9213C30.355 22.9213 31.2018 23.7451 31.2018 24.7007C31.1665 25.6893 30.3197 26.4802 29.2965 26.4802Z" fill="#343249"/>
<path d="M7.95023 14.3498H2.02292C1.49369 14.3498 1.07031 13.9543 1.07031 13.46C1.07031 12.9657 1.49369 12.5703 2.02292 12.5703H7.95023C8.47945 12.5703 8.90283 12.9657 8.90283 13.46C8.90283 13.9543 8.47945 14.3498 7.95023 14.3498ZM8.90283 16.6565C8.90283 17.1508 8.47945 17.5462 7.95023 17.5462H3.71643C3.18721 17.5462 2.76383 17.1508 2.76383 16.6565C2.76383 16.1622 3.18721 15.7668 3.71643 15.7668H7.95023C8.47945 15.7668 8.90283 16.1622 8.90283 16.6565ZM8.90283 19.8859C8.90283 20.3802 8.47945 20.7756 7.95023 20.7756H5.30411C4.77488 20.7756 4.3515 20.3802 4.3515 19.8859C4.3515 19.3916 4.77488 18.9961 5.30411 18.9961H7.95023C8.47945 18.9961 8.90283 19.3916 8.90283 19.8859Z" fill="#343249"/>
</svg>
