<svg width="21" height="18" viewBox="0 0 21 18" fill="none" xmlns="http://www.w3.org/2000/svg">
<path d="M4.82196 5.00046H1.44976L6.27732 1.1874L6.42266 1.07283V3.58858C6.42236 3.96289 6.25363 4.3218 5.95351 4.58651C5.6534 4.85122 5.24643 5.0001 4.82196 5.00046ZM12.8671 14.8778L9.42476 15.6462C9.32776 15.6677 9.22607 15.6668 9.12962 15.6434C9.03317 15.6199 8.94527 15.5749 8.87449 15.5125C8.80371 15.4502 8.75248 15.3727 8.72581 15.2877C8.69914 15.2026 8.69794 15.113 8.72233 15.0274L9.59748 11.9953C9.62321 11.9063 9.67569 11.8252 9.74937 11.7603L15.0808 7.05759V1.85237C15.0798 1.47853 14.9108 1.12028 14.6109 0.856096C14.3109 0.59191 13.9044 0.44332 13.4805 0.442871H7.57924V3.59096C7.57843 4.23556 7.28765 4.85355 6.77073 5.30933C6.2538 5.7651 5.55295 6.02142 4.82196 6.02205H0.515625V16.0317C0.516135 16.4058 0.684904 16.7645 0.984912 17.029C1.28492 17.2936 1.69167 17.4424 2.11595 17.4429H13.4805C13.9048 17.4424 14.3115 17.2936 14.6115 17.029C14.9115 16.7645 15.0803 16.4058 15.0808 16.0317V13.0271L13.1339 14.7439C13.0604 14.8091 12.9682 14.8554 12.8671 14.8778V14.8778ZM10.6793 12.3811L10.0832 14.4471L12.4292 13.9235L18.5016 8.55616L16.7529 7.01373L10.6793 12.3811ZM19.8228 6.48169L19.1046 5.84833C18.9657 5.73141 18.7811 5.66617 18.5891 5.66617C18.3971 5.66617 18.2125 5.73141 18.0737 5.84833L17.5702 6.29267L19.3193 7.83509L19.8228 7.39076C19.8905 7.33108 19.9443 7.26023 19.9809 7.18224C20.0176 7.10424 20.0364 7.02065 20.0364 6.93622C20.0364 6.8518 20.0176 6.7682 19.9809 6.69021C19.9443 6.61222 19.8905 6.54136 19.8228 6.48169V6.48169Z" fill="white"/>
</svg>
