<svg width="36" height="36" viewBox="0 0 36 36" fill="none" xmlns="http://www.w3.org/2000/svg">
<path d="M14.3858 18.75C14.3858 16.886 15.8969 15.375 17.7608 15.375C19.6248 15.375 21.1358 16.886 21.1358 18.75C21.1358 20.614 19.6248 22.125 17.7608 22.125C15.8969 22.125 14.3858 20.614 14.3858 18.75Z" fill="white"/>
<path fill-rule="evenodd" clip-rule="evenodd" d="M10.9713 10.7137C10.9713 8.11038 13.0817 6 15.685 6H19.8366C22.4399 6 24.5503 8.11038 24.5503 10.7137C24.5503 10.7359 24.5674 10.7545 24.5895 10.7563L27.9339 11.0279C29.432 11.1495 30.6641 12.2574 30.9437 13.7341C31.6572 17.5026 31.7104 21.3664 31.1009 25.1531L30.9551 26.0594C30.6801 27.7677 29.274 29.0674 27.5494 29.2075L24.6359 29.4441C20.06 29.8157 15.4616 29.8157 10.8857 29.4441L7.97223 29.2075C6.24756 29.0674 4.8415 27.7677 4.56653 26.0594L4.42065 25.1531C3.81116 21.3664 3.86436 17.5026 4.57789 13.7341C4.85751 12.2574 6.08956 11.1495 7.58765 11.0279L10.932 10.7563C10.9542 10.7545 10.9713 10.7359 10.9713 10.7137ZM17.7608 13.125C14.6542 13.125 12.1358 15.6434 12.1358 18.75C12.1358 21.8566 14.6542 24.375 17.7608 24.375C20.8674 24.375 23.3858 21.8566 23.3858 18.75C23.3858 15.6434 20.8674 13.125 17.7608 13.125Z" fill="white"/>
</svg>
