<svg width="37" height="37" viewBox="0 0 37 37" fill="none" xmlns="http://www.w3.org/2000/svg">
<path d="M9.16433 12.6492V9.37501C9.16433 7.20406 10.1705 5.12204 11.9614 3.58695C13.7523 2.05186 16.1814 1.18945 18.7141 1.18945C21.2469 1.18945 23.6759 2.05186 25.4669 3.58695C27.2578 5.12204 28.264 7.20406 28.264 9.37501V12.6492H33.9938C34.5004 12.6492 34.9862 12.8217 35.3444 13.1287C35.7026 13.4357 35.9038 13.8522 35.9038 14.2863V33.9317C35.9038 34.3659 35.7026 34.7823 35.3444 35.0893C34.9862 35.3963 34.5004 35.5688 33.9938 35.5688H3.43444C2.92788 35.5688 2.44208 35.3963 2.08389 35.0893C1.7257 34.7823 1.52448 34.3659 1.52448 33.9317V14.2863C1.52448 13.8522 1.7257 13.4357 2.08389 13.1287C2.44208 12.8217 2.92788 12.6492 3.43444 12.6492H9.16433ZM9.16433 15.9234H5.3444V32.2946H32.0839V15.9234H28.264V19.1977H24.444V15.9234H12.9843V19.1977H9.16433V15.9234ZM12.9843 12.6492H24.444V9.37501C24.444 8.07244 23.8403 6.82322 22.7658 5.90217C21.6912 4.98112 20.2338 4.46367 18.7141 4.46367C17.1945 4.46367 15.7371 4.98112 14.6625 5.90217C13.5879 6.82322 12.9843 8.07244 12.9843 9.37501V12.6492Z" fill="white"/>
</svg>
