<svg width="24" height="21" viewBox="0 0 24 21" fill="none" xmlns="http://www.w3.org/2000/svg">
<path d="M2.13744 16.4769C1.39121 16.4769 0.786133 15.9273 0.786133 15.2496C0.786133 14.6201 1.30782 14.1014 1.97984 14.0304L2.13744 14.0222H12.2325C12.2325 11.9887 14.0476 10.3402 16.2865 10.3402H18.9891C21.2279 10.3402 23.043 11.9887 23.043 14.0222V16.4769C23.043 18.5103 21.2279 20.1589 18.9891 20.1589H16.2865C14.0476 20.1589 12.2325 18.5103 12.2325 16.4769L2.13744 16.4769ZM18.9891 12.7949H16.2865C15.5935 12.7949 15.0223 13.2687 14.9442 13.8791L14.9351 14.0222V16.4769C14.9351 17.1063 15.4568 17.625 16.1288 17.696L16.2864 17.7042H18.9891C19.6821 17.7042 20.2532 17.2304 20.3313 16.62L20.3404 16.4769V14.0222C20.3404 13.3928 19.8187 12.8741 19.1467 12.8031L18.9891 12.7949ZM7.54269 0.521484C9.78154 0.521484 11.5966 2.17005 11.5966 4.2035H21.6917C22.4379 4.2035 23.043 4.75307 23.043 5.43084C23.043 6.06025 22.5213 6.579 21.8493 6.64997L21.6917 6.65819H11.5966C11.5966 8.69165 9.78154 10.3402 7.54269 10.3402H4.84007C2.60121 10.3402 0.786133 8.69165 0.786133 6.65819V4.20351C0.786133 2.17006 2.60121 0.521498 4.84007 0.521498L7.54269 0.521484ZM7.54269 2.97616H4.84007C4.14707 2.97616 3.57593 3.44999 3.49779 4.06036L3.48874 4.2035V6.65818C3.48874 7.28759 4.01042 7.80634 4.68245 7.87731L4.84005 7.88553H7.54267C8.23566 7.88553 8.8068 7.41171 8.88495 6.80133L8.894 6.65819V4.20351C8.894 3.5741 8.37231 3.05536 7.70029 2.98438L7.54269 2.97616Z" fill="white"/>
</svg>
