<svg width="37" height="37" viewBox="0 0 37 37" fill="none" xmlns="http://www.w3.org/2000/svg">
<path d="M15.932 3.37848C9.02361 3.37848 3.39692 9.00517 3.39692 15.9135C3.39692 22.8219 9.02361 28.4486 15.932 28.4486C18.8555 28.4486 21.5469 27.4382 23.6815 25.7525L30.8575 32.9285C30.9933 33.0694 31.1557 33.1819 31.3353 33.2596C31.5158 33.3376 31.71 33.3788 31.9066 33.3808C32.1031 33.3828 32.2981 33.3455 32.4801 33.2712C32.6621 33.1969 32.8275 33.0871 32.9665 32.948C33.1055 32.809 33.2154 32.6437 33.2897 32.4617C33.364 32.2797 33.4012 32.0847 33.3992 31.8881C33.3972 31.6916 33.356 31.4974 33.278 31.3169C33.2004 31.1373 33.0878 30.9749 32.9469 30.8391L25.7709 23.6631C27.4566 21.5285 28.467 18.8371 28.467 15.9135C28.467 9.00517 22.8403 3.37848 15.932 3.37848ZM15.932 6.33362C21.2374 6.33362 25.5119 10.6081 25.5119 15.9135C25.5119 21.2189 21.2374 25.4935 15.932 25.4935C10.6266 25.4935 6.35205 21.2189 6.35205 15.9135C6.35205 10.6081 10.6266 6.33362 15.932 6.33362Z" fill="white" stroke="white" stroke-width="0.497917"/>
</svg>
