<svg width="37" height="36" viewBox="0 0 37 36" fill="none" xmlns="http://www.w3.org/2000/svg">
<path d="M16.25 24.0002C16.25 22.7575 17.2573 21.7502 18.5 21.7502C19.7426 21.7502 20.75 22.7575 20.75 24.0002C20.75 25.2428 19.7426 26.2502 18.5 26.2502C17.2573 26.2502 16.25 25.2428 16.25 24.0002Z" fill="white"/>
<path fill-rule="evenodd" clip-rule="evenodd" d="M11.9324 15.8959L11.4593 11.6374C11.3986 11.0914 11.3986 10.5404 11.4593 9.99448L11.4934 9.68713C11.8557 6.42705 14.4186 3.84756 17.6762 3.4643C18.2235 3.39992 18.7764 3.39992 19.3236 3.4643C22.5813 3.84756 25.1442 6.42705 25.5064 9.68713L25.5406 9.99448C25.6012 10.5404 25.6012 11.0914 25.5406 11.6374L25.0674 15.8959L26.0973 15.9781C27.7214 16.1077 29.0476 17.3286 29.3108 18.9364C29.86 22.2899 29.86 25.7104 29.3108 29.0639C29.0476 30.6717 27.7214 31.8926 26.0973 32.0222L23.8531 32.2014C20.2901 32.4858 16.71 32.4858 13.1469 32.2014L10.9027 32.0222C9.27861 31.8926 7.95245 30.6717 7.68917 29.0639C7.14007 25.7104 7.14007 22.2899 7.68917 18.9364C7.95245 17.3286 9.2786 16.1077 10.9027 15.9781L11.9324 15.8959ZM17.9391 5.69889C18.3117 5.65506 18.6881 5.65506 19.0607 5.69889C21.2787 5.95982 23.0236 7.71603 23.2702 9.9356L23.3043 10.2429C23.3467 10.6238 23.3467 11.0081 23.3043 11.3889L22.8226 15.7246C19.9438 15.5392 17.0561 15.5393 14.1773 15.7246L13.6955 11.3889C13.6532 11.0081 13.6532 10.6238 13.6955 10.2429L13.7297 9.9356C13.9763 7.71603 15.7212 5.95982 17.9391 5.69889ZM23.6741 18.0418C20.2302 17.7669 16.7698 17.7669 13.3259 18.0418L11.0817 18.221C10.4894 18.2682 10.0056 18.7136 9.9096 19.3C9.39992 22.4127 9.39992 25.5876 9.9096 28.7003C10.0056 29.2868 10.4894 29.7321 11.0817 29.7794L13.3259 29.9585C16.7698 30.2335 20.2302 30.2335 23.6741 29.9585L25.9183 29.7794C26.5107 29.7321 26.9944 29.2868 27.0904 28.7003C27.6001 25.5876 27.6001 22.4127 27.0904 19.3C26.9944 18.7136 26.5107 18.2682 25.9183 18.221L23.6741 18.0418Z" fill="white"/>
</svg>
