<svg width="73" height="73" viewBox="0 0 73 73" fill="none" xmlns="http://www.w3.org/2000/svg">
<path d="M47.75 45.5C47.1533 45.5 46.581 45.7371 46.159 46.159C45.7371 46.581 45.5 47.1533 45.5 47.75C45.5 48.3467 45.7371 48.919 46.159 49.341C46.581 49.7629 47.1533 50 47.75 50H56.75C57.3467 50 57.919 49.7629 58.341 49.341C58.7629 48.919 59 48.3467 59 47.75C59 47.1533 58.7629 46.581 58.341 46.159C57.919 45.7371 57.3467 45.5 56.75 45.5H47.75ZM5 23C5 20.6131 5.94821 18.3239 7.63604 16.636C9.32387 14.9482 11.6131 14 14 14H59C61.3869 14 63.6761 14.9482 65.364 16.636C67.0518 18.3239 68 20.6131 68 23V50C68 52.3869 67.0518 54.6761 65.364 56.364C63.6761 58.0518 61.3869 59 59 59H14C11.6131 59 9.32387 58.0518 7.63604 56.364C5.94821 54.6761 5 52.3869 5 50V23ZM63.5 23C63.5 21.8065 63.0259 20.6619 62.182 19.818C61.3381 18.9741 60.1935 18.5 59 18.5H14C12.8065 18.5 11.6619 18.9741 10.818 19.818C9.97411 20.6619 9.5 21.8065 9.5 23V27.5H63.5V23ZM9.5 50C9.5 51.1935 9.97411 52.3381 10.818 53.182C11.6619 54.0259 12.8065 54.5 14 54.5H59C60.1935 54.5 61.3381 54.0259 62.182 53.182C63.0259 52.3381 63.5 51.1935 63.5 50V32H9.5V50Z" fill="white"/>
</svg>
