<svg width="49" height="49" viewBox="0 0 49 49" fill="none" xmlns="http://www.w3.org/2000/svg">
<path d="M46.5665 26.8705C45.9568 25.563 45.0177 24.5211 43.8997 23.7818V8.59098L32.9351 4.55469L23.1743 8.14789L13.4135 4.55469L2.44922 8.59098V36.9157L13.4135 32.8802L23.1743 36.4726L32.8569 32.9092C32.9054 33.0283 32.9475 33.1489 33.0021 33.2664C34.5834 36.661 38.3573 38.3051 41.8283 37.3091L44.8954 43.8914L47.0751 42.8636L44.0081 36.2813C46.9893 34.2345 48.1478 30.2644 46.5665 26.8705ZM21.9709 33.4516L14.6169 30.745V7.57606L21.9709 10.2835V33.4516ZM34.1385 25.1224V7.57606L41.4929 10.2835V22.7378C39.9088 22.3629 38.1932 22.4969 36.6055 23.2463C35.6295 23.7059 34.8028 24.3536 34.1385 25.1224ZM41.5294 33.8172C40.9763 34.0779 40.3918 34.2099 39.7925 34.2099C38.1996 34.2099 36.7347 33.2744 36.0592 31.8249C35.993 31.682 35.9368 31.5372 35.8871 31.3907C35.5886 30.5057 35.5946 29.5525 35.9155 28.6611C36.2894 27.6223 37.0423 26.7914 38.038 26.3217C38.5935 26.0594 39.1788 25.9266 39.7773 25.9266C40.379 25.9266 40.9626 26.0614 41.4921 26.3064C41.4941 26.3072 41.4961 26.3088 41.4981 26.3096C41.6442 26.3774 41.7846 26.4561 41.9217 26.5396C41.9607 26.5642 41.9992 26.5876 42.0373 26.6131C42.1729 26.7022 42.304 26.7983 42.4284 26.9024C42.4533 26.9238 42.4757 26.9456 42.5002 26.967C42.6117 27.0663 42.7184 27.1712 42.8191 27.2813C42.8407 27.3052 42.8632 27.3278 42.8845 27.3516C42.9944 27.4783 43.0967 27.6131 43.1917 27.7543C43.2126 27.7842 43.2319 27.8156 43.2515 27.8471C43.3458 27.996 43.4344 28.149 43.5102 28.3104C44.473 30.3778 43.5845 32.8471 41.5294 33.8172Z" fill="#DB8080"/>
</svg>
