<svg width="25" height="24" viewBox="0 0 25 24" fill="none" xmlns="http://www.w3.org/2000/svg">
<path fill-rule="evenodd" clip-rule="evenodd" d="M15.844 3.46967C15.7033 3.32902 15.5125 3.25 15.3136 3.25C15.1147 3.25 14.924 3.32902 14.7833 3.46967L5.59091 12.6621C5.49668 12.7563 5.42926 12.8739 5.39559 13.0028L4.39559 16.8313C4.3283 17.0889 4.40264 17.3629 4.59091 17.5511C4.77919 17.7394 5.05317 17.8138 5.31078 17.7465L9.13921 16.7465C9.26814 16.7128 9.38577 16.6454 9.48 16.5511L18.6724 7.35876C18.9653 7.06586 18.9653 6.59099 18.6724 6.2981L15.844 3.46967ZM6.79547 13.5788L15.3136 5.06066L17.0814 6.82843L8.56323 15.3466L6.17047 15.9716L6.79547 13.5788Z" fill="black"/>
<path d="M4.70703 19.25C4.29282 19.25 3.95703 19.5858 3.95703 20C3.95703 20.4142 4.29282 20.75 4.70703 20.75H19.707C20.1212 20.75 20.457 20.4142 20.457 20C20.457 19.5858 20.1212 19.25 19.707 19.25H4.70703Z" fill="black"/>
</svg>
