<svg width="25" height="25" viewBox="0 0 25 25" fill="none" xmlns="http://www.w3.org/2000/svg">
<path d="M12.8594 0.699219C6.24043 0.699219 0.859375 6.08027 0.859375 12.6992C0.859375 19.3182 6.24043 24.6992 12.8594 24.6992C19.4783 24.6992 24.8594 19.3182 24.8594 12.6992C24.8594 6.08027 19.4783 0.699219 12.8594 0.699219ZM12.8594 7.5708C14.931 7.5708 16.6236 9.26343 16.6236 11.335C16.6236 13.4066 14.931 15.0992 12.8594 15.0992C10.7878 15.0992 9.09516 13.4066 9.09516 11.335C9.09516 9.26343 10.7878 7.5708 12.8594 7.5708ZM6.29095 19.975V19.4192C6.29095 17.8276 7.57937 16.514 9.19622 16.514H16.5225C18.1141 16.514 19.4278 17.8024 19.4278 19.4192V19.975C17.6846 21.5413 15.3857 22.5013 12.8594 22.5013C10.3331 22.5013 8.03411 21.5413 6.29095 19.975Z" fill="white"/>
</svg>
