<svg width="73" height="73" viewBox="0 0 73 73" fill="none" xmlns="http://www.w3.org/2000/svg">
<path fill-rule="evenodd" clip-rule="evenodd" d="M41.1746 17.1022C38.5629 14.5961 34.4394 14.5961 31.8277 17.1022L17.9484 30.4202C17.6083 30.7465 17.3796 31.1716 17.2946 31.6351C15.6322 40.7007 15.5095 49.9816 16.9316 59.0879L17.2692 61.2495H26.1985V42.6155C26.1985 41.3728 27.2059 40.3655 28.4485 40.3655H44.5538C45.7964 40.3655 46.8038 41.3728 46.8038 42.6155V61.2495H55.7332L56.0707 59.0879C57.4929 49.9816 57.3701 40.7007 55.7078 31.6351C55.6227 31.1716 55.394 30.7465 55.0539 30.4202L41.1746 17.1022ZM28.7121 13.8553C33.0649 9.67846 39.9374 9.67846 44.2903 13.8553L58.1696 27.1733C59.1913 28.1536 59.8786 29.4307 60.134 30.8235C61.8875 40.3864 62.017 50.1764 60.5168 59.7823L59.9745 63.2547C59.7503 64.6908 58.5134 65.7495 57.06 65.7495H44.5538C43.3112 65.7495 42.3038 64.7421 42.3038 63.4995V44.8655H30.6985V63.4995C30.6985 64.7421 29.6912 65.7495 28.4485 65.7495H15.9424C14.4889 65.7495 13.252 64.6908 13.0278 63.2547L12.4855 59.7823C10.9853 50.1764 11.1148 40.3864 12.8684 30.8235C13.1238 29.4307 13.811 28.1536 14.8327 27.1733L28.7121 13.8553Z" fill="white"/>
</svg>
