<svg width="19" height="19" viewBox="0 0 19 19" fill="none" xmlns="http://www.w3.org/2000/svg">
<path d="M17.7305 12.8765L13.793 11.189C13.6875 11.1538 13.582 11.1187 13.4414 11.1187C13.1953 11.1187 12.9492 11.2593 12.8086 11.4351L11.0508 13.5796C8.30859 12.2788 6.12891 10.0991 4.82812 7.35693L6.97266 5.59912C7.14844 5.4585 7.28906 5.2124 7.28906 4.93115C7.28906 4.82568 7.25391 4.72021 7.21875 4.61475L5.53125 0.677246C5.39062 0.36084 5.07422 0.149902 4.72266 0.149902C4.6875 0.149902 4.61719 0.185059 4.54688 0.185059L0.890625 1.02881C0.503906 1.13428 0.257812 1.45068 0.257812 1.8374C0.257812 10.8726 7.53516 18.1499 16.5703 18.1499C16.957 18.1499 17.2734 17.9038 17.3789 17.5171L18.2227 13.8608C18.2227 13.7905 18.2227 13.7202 18.2227 13.6851C18.2227 13.3335 18.0117 13.0171 17.7305 12.8765Z" fill="white"/>
</svg>
