<svg width="25" height="24" viewBox="0 0 25 24" fill="none" xmlns="http://www.w3.org/2000/svg">
<path d="M10.707 2.25C10.2928 2.25 9.95703 2.58579 9.95703 3V3.75H5.70703C5.29282 3.75 4.95703 4.08579 4.95703 4.5C4.95703 4.91421 5.29282 5.25 5.70703 5.25H19.707C20.1212 5.25 20.457 4.91421 20.457 4.5C20.457 4.08579 20.1212 3.75 19.707 3.75H15.457V3C15.457 2.58579 15.1212 2.25 14.707 2.25H10.707Z" fill="black"/>
<path d="M10.707 10.65C11.1212 10.65 11.457 10.9858 11.457 11.4L11.457 18.4C11.457 18.8142 11.1212 19.15 10.707 19.15C10.2928 19.15 9.95703 18.8142 9.95703 18.4L9.95703 11.4C9.95703 10.9858 10.2928 10.65 10.707 10.65Z" fill="black"/>
<path d="M15.457 11.4C15.457 10.9858 15.1212 10.65 14.707 10.65C14.2928 10.65 13.957 10.9858 13.957 11.4V18.4C13.957 18.8142 14.2928 19.15 14.707 19.15C15.1212 19.15 15.457 18.8142 15.457 18.4V11.4Z" fill="black"/>
<path fill-rule="evenodd" clip-rule="evenodd" d="M6.69846 7.91718C6.74066 7.53735 7.06171 7.25 7.44387 7.25H17.9702C18.3523 7.25 18.6734 7.53735 18.7156 7.91718L18.9157 9.71852C19.2786 12.9838 19.2786 16.2793 18.9157 19.5446L18.896 19.722C18.752 21.0181 17.7475 22.0517 16.4559 22.2325C13.9688 22.5807 11.4453 22.5807 8.95811 22.2325C7.66657 22.0517 6.66203 21.0181 6.51801 19.722L6.49831 19.5446C6.13549 16.2793 6.13549 12.9838 6.49831 9.71852L6.69846 7.91718ZM8.11515 8.75L7.98913 9.88417C7.63855 13.0394 7.63855 16.2238 7.98913 19.379L8.00884 19.5563C8.07714 20.171 8.55355 20.6612 9.16608 20.747C11.5153 21.0758 13.8988 21.0758 16.248 20.747C16.8605 20.6612 17.3369 20.171 17.4052 19.5563L17.4249 19.379C17.7755 16.2238 17.7755 13.0394 17.4249 9.88417L17.2989 8.75H8.11515Z" fill="black"/>
</svg>
