<svg width="19" height="18" viewBox="0 0 19 18" fill="none" xmlns="http://www.w3.org/2000/svg">
<path d="M9.31251 0.442871C4.34992 0.442871 0.312524 4.05522 0.312524 8.4955C0.312524 10.0476 0.806324 11.551 1.74292 12.8511C1.56562 14.8007 1.09042 16.2481 0.400424 16.9338C0.309224 17.0244 0.286424 17.1631 0.344024 17.2776C0.395024 17.3799 0.500024 17.4429 0.612524 17.4429C0.626324 17.4429 0.640124 17.442 0.654224 17.4399C0.775724 17.4229 3.59812 17.0191 5.63962 15.8476C6.79882 16.3125 8.03361 16.5481 9.31251 16.5481C14.2751 16.5481 18.3125 12.9358 18.3125 8.4955C18.3125 4.05522 14.2751 0.442871 9.31251 0.442871ZM5.11252 9.68849C4.45072 9.68849 3.91252 9.15343 3.91252 8.4955C3.91252 7.83757 4.45072 7.30252 5.11252 7.30252C5.77432 7.30252 6.31252 7.83757 6.31252 8.4955C6.31252 9.15343 5.77432 9.68849 5.11252 9.68849ZM9.31251 9.68849C8.65071 9.68849 8.11251 9.15343 8.11251 8.4955C8.11251 7.83757 8.65071 7.30252 9.31251 7.30252C9.97431 7.30252 10.5125 7.83757 10.5125 8.4955C10.5125 9.15343 9.97431 9.68849 9.31251 9.68849ZM13.5125 9.68849C12.8507 9.68849 12.3125 9.15343 12.3125 8.4955C12.3125 7.83757 12.8507 7.30252 13.5125 7.30252C14.1743 7.30252 14.7125 7.83757 14.7125 8.4955C14.7125 9.15343 14.1743 9.68849 13.5125 9.68849Z" fill="white"/>
</svg>
