<?xml version="1.0" encoding="utf-8"?>
<!-- Generator: Adobe Illustrator 25.4.1, SVG Export Plug-In . SVG Version: 6.00 Build 0)  -->
<svg version="1.1" id="Layer_1" xmlns="http://www.w3.org/2000/svg" xmlns:xlink="http://www.w3.org/1999/xlink" x="0px" y="0px"
	 width="80px" height="80px" viewBox="0 0 80 80" style="enable-background:new 0 0 80 80;" xml:space="preserve">
<style type="text/css">
	.st0{fill:#DB8080;}
</style>
<path class="st0" d="M11.2679472,79.8086319h-0.15728c-0.180747-0.2160034-0.3474674-0.4458694-0.5446415-0.6432037
	c-3.3068261-3.3162689-6.6167459-6.6309357-9.9298553-9.9440002C0.441328,69.0267563,0.2605705,68.8198318,0,68.5408936
	l28.8435745-28.8484802c-9.5793076-9.5824547-19.132-19.1374931-28.658123-28.6651726L11.3994131-0.191406l28.789547,28.8013115
	L68.8938675-0.1045527c3.4714661,3.4774137,6.958931,6.9697123,10.4629364,10.4768581
	C79.5562668,10.5694799,79.7840042,10.7361469,80,10.916893v0.159626c-0.1024017,0.0731735-0.2010651,0.1515198-0.2959976,0.2347736
	c-9.3488007,9.3508263-18.6981392,18.7024002-28.0474663,28.0547733c-0.1408043,0.1408539-0.2629356,0.3004799-0.4037323,0.4694939
	c0.1733284,0.1854935,0.3119965,0.3404274,0.4575958,0.4859734l27.9349327,27.9350967
	c0.1103973,0.1077271,0.235199,0.2015991,0.3525391,0.3002625v0.1573334
	c-0.1466675,0.0976028-0.2864075,0.2048035-0.4181366,0.3216019c-3.4522705,3.4431992-6.9024048,6.8933334-10.3498688,10.3503952
	c-0.1157303,0.1333389-0.2223969,0.2746735-0.3194656,0.4224091H68.753067
	c-0.0768051-0.1029358-0.1589355-0.2016068-0.2463989-0.2960052c-9.3477325-9.3519974-18.6969109-18.7056007-28.0477333-28.0593109
	c-0.1408539-0.1408463-0.3004837-0.262928-0.4694939-0.4037819c-0.1854401,0.1760521-0.340374,0.3145599-0.48592,0.4694939
	L11.5684271,79.4539566C11.4627733,79.5670242,11.3712006,79.6912918,11.2679472,79.8086319z"/>
</svg>
