<svg width="19" height="19" viewBox="0 0 19 19" fill="none" xmlns="http://www.w3.org/2000/svg">
<path fill-rule="evenodd" clip-rule="evenodd" d="M14.1031 13.6841C14.1031 12.3472 14.0976 11.0103 14.1083 9.67349C14.1102 9.44632 14.0483 9.33106 13.8359 9.22262C12.7541 8.67005 12.1555 7.78208 12.1702 6.55581C12.185 5.31196 12.7945 4.41814 13.9217 3.88974C14.0599 3.8249 14.106 3.75236 14.1057 3.60673C14.1045 3.01989 14.0936 2.43196 14.1256 1.84653C14.1568 1.27508 14.5816 0.907275 15.1241 0.928528C15.6632 0.949564 16.046 1.35381 16.0535 1.92449C16.0605 2.45734 16.0662 2.99072 16.0497 3.52313C16.0431 3.73642 16.1156 3.83585 16.3065 3.92813C18.0667 4.77944 18.5771 6.97826 17.335 8.44505C17.0634 8.76579 16.686 9.01346 16.3194 9.23097C16.1149 9.35231 16.0497 9.45727 16.0503 9.68293C16.0579 12.3567 16.0553 15.0304 16.0549 17.7043C16.0549 17.8036 16.0585 17.9036 16.0485 18.0021C15.9969 18.512 15.5927 18.8738 15.0798 18.8732C14.5794 18.8728 14.1606 18.5211 14.1302 18.0186C14.096 17.4514 14.1062 16.8815 14.104 16.3128C14.1005 15.4365 14.1031 14.5604 14.1031 13.6841ZM8.05831 6.05146C8.05842 4.67836 8.05202 3.30527 8.06102 1.93217C8.06601 1.17129 8.80249 0.696458 9.4596 1.02219C9.85842 1.21998 10.0123 1.56317 10.0116 1.99896C10.0083 4.42896 10.01 6.85896 10.01 9.28896C10.01 9.36129 10.01 9.43351 10.0101 9.50572C10.0103 9.78581 9.92413 10.1089 10.036 10.3333C10.1406 10.543 10.4587 10.6433 10.6769 10.7999C11.5949 11.4583 12.0464 12.3567 11.9436 13.4805C11.8402 14.6113 11.2441 15.4339 10.2036 15.9071C10.0381 15.9824 10.0043 16.0686 10.0069 16.2296C10.0154 16.7624 10.0133 17.2955 10.0091 17.8284C10.0044 18.448 9.61151 18.8688 9.04148 18.8733C8.46168 18.8779 8.06297 18.4515 8.05896 17.8162C8.0556 17.2741 8.05278 16.7321 8.06178 16.1902C8.06427 16.0416 8.01515 15.9763 7.88004 15.9108C6.75786 15.3668 6.11398 14.4776 6.11626 13.2188C6.11864 11.9538 6.74279 11.0427 7.89522 10.514C8.04866 10.4437 8.05982 10.3578 8.05961 10.225C8.05744 8.83376 8.0582 7.44266 8.05831 6.05146ZM2.01268 13.7188C2.01268 12.3639 2.00878 11.0088 2.01702 9.65396C2.01821 9.44967 1.96681 9.34124 1.77011 9.24224C0.655308 8.68131 0.0385361 7.77632 0.0691147 6.51481C0.0988255 5.28441 0.709742 4.39948 1.83311 3.88518C1.97202 3.82164 2.01691 3.74747 2.01539 3.60195C2.00921 3.02389 2.00184 2.4454 2.0181 1.86777C2.03242 1.35813 2.37973 0.993577 2.86638 0.936107C3.34349 0.879722 3.7834 1.15547 3.90962 1.60959C3.95234 1.76346 3.96026 1.93034 3.96243 2.09158C3.96883 2.58831 3.9698 3.08526 3.962 3.582C3.95939 3.7466 4.01177 3.82749 4.1691 3.90578C5.25236 4.4447 5.87954 5.30783 5.89916 6.53682C5.91781 7.70053 5.40373 8.60584 4.3761 9.14812C4.01881 9.33669 3.95657 9.53989 3.9582 9.89197C3.97045 12.4754 3.96557 15.0589 3.96308 17.6424C3.96297 17.8132 3.95939 17.9885 3.92209 18.1536C3.82179 18.5976 3.39684 18.8971 2.93307 18.8715C2.45954 18.8452 2.09455 18.517 2.03047 18.0536C2.01572 17.9468 2.01355 17.8377 2.01344 17.7296C2.01236 16.3927 2.01268 15.0558 2.01268 13.7188ZM2.01387 6.57998C2.01246 7.11618 2.43297 7.54796 2.96755 7.55935C3.50874 7.57084 3.94746 7.13548 3.94996 6.58464C3.95245 6.02913 3.52945 5.60808 2.97265 5.61177C2.43395 5.61535 2.01528 6.03813 2.01387 6.57998ZM9.03443 14.1891C9.5805 14.189 10.0137 13.754 10.0092 13.2106C10.0049 12.6773 9.58115 12.2502 9.04787 12.2415C8.50842 12.2328 8.06481 12.6677 8.05896 13.2109C8.05321 13.7531 8.48814 14.1892 9.03443 14.1891ZM14.1171 6.56958C14.1147 7.12291 14.5418 7.55958 15.0857 7.55968C15.6166 7.55968 16.0466 7.13126 16.054 6.59473C16.0615 6.0427 15.6345 5.60972 15.0838 5.61124C14.5413 5.61265 14.1195 6.03088 14.1171 6.56958Z" fill="#DB8080"/>
</svg>
