<svg width="27" height="27" viewBox="0 0 27 27" fill="none" xmlns="http://www.w3.org/2000/svg">
<path d="M11.6901 0.472656C5.72343 0.472656 0.863281 5.3328 0.863281 11.2995C0.863281 17.2661 5.72343 22.1262 11.6901 22.1262C14.2847 22.1262 16.6676 21.2049 18.5351 19.6754L24.9994 26.1398C25.0992 26.2437 25.2187 26.3266 25.3509 26.3838C25.4831 26.4409 25.6254 26.4711 25.7695 26.4726C25.9135 26.4741 26.0564 26.4468 26.1898 26.3923C26.3231 26.3379 26.4443 26.2574 26.5461 26.1555C26.648 26.0537 26.7285 25.9325 26.783 25.7991C26.8374 25.6658 26.8647 25.5229 26.8632 25.3788C26.8618 25.2348 26.8316 25.0925 26.7744 24.9603C26.7173 24.8281 26.6343 24.7086 26.5304 24.6088L20.066 18.1444C21.5955 16.2769 22.5169 13.8941 22.5169 11.2995C22.5169 5.3328 17.6567 0.472656 11.6901 0.472656ZM11.6901 2.63802C16.4865 2.63802 20.3515 6.50305 20.3515 11.2995C20.3515 16.0959 16.4865 19.9609 11.6901 19.9609C6.89367 19.9609 3.02864 16.0959 3.02864 11.2995C3.02864 6.50305 6.89367 2.63802 11.6901 2.63802Z" fill="#1D1D1B"/>
</svg>
