<svg width="25" height="25" viewBox="0 0 25 25" fill="none" xmlns="http://www.w3.org/2000/svg">
<path opacity="0.5" d="M13.5514 2.00787C13.1771 2.00724 12.7658 2.01205 12.3088 2.01205H9.40057C8.31157 2.01205 7.48446 2.01017 6.80044 2.08598C6.11641 2.16179 5.51586 2.32624 5.0722 2.76246C4.6286 3.19867 4.46162 3.78852 4.3849 4.45994C4.30817 5.13137 4.31106 5.94284 4.31106 7.01103V14.1523C4.31104 14.1547 4.31104 14.157 4.31106 14.1593C4.31104 14.1621 4.31104 14.1649 4.31106 14.1677C4.31106 15.9869 4.23231 17.0724 4.73991 17.9796C4.99371 18.4332 5.44998 18.7659 5.9512 18.9253C6.33802 19.0483 6.77868 19.0948 7.26901 19.1234C7.27864 19.2657 7.27955 19.4319 7.29457 19.5627C7.37176 20.2345 7.53919 20.8244 7.9833 21.2602C8.42741 21.6959 9.02795 21.8599 9.71154 21.9353C10.3951 22.0106 11.2213 22.0078 12.3088 22.0078H15.2171C16.3061 22.0078 17.1332 22.0097 17.8172 21.9339C18.5012 21.8581 19.1018 21.6936 19.5455 21.2574C19.9891 20.8212 20.1561 20.2313 20.2328 19.5599C20.3095 18.8885 20.3066 18.077 20.3066 17.0088V9.86752C20.3066 8.79789 20.3085 7.9855 20.2314 7.31364C20.1542 6.64185 19.9867 6.05192 19.5426 5.61615C19.0985 5.18039 18.498 5.01644 17.8144 4.94108C17.6774 4.92597 17.5038 4.92545 17.3543 4.91597C17.3241 4.41075 17.2734 3.96325 17.1342 3.56862C16.9641 3.08628 16.6146 2.65296 16.1543 2.41516C15.464 2.05841 14.6742 2.00977 13.5514 2.00788L13.5514 2.00787ZM9.40057 3.44034H12.3088C14.136 3.44034 15.1634 3.5168 15.477 3.67885C15.6338 3.75988 15.6774 3.80297 15.7596 4.03592C15.8191 4.20461 15.8607 4.50716 15.8916 4.87281C15.6654 4.87209 15.4701 4.86862 15.2171 4.86862H12.3088C11.2198 4.86862 10.3927 4.86673 9.70869 4.94255C9.02467 5.01836 8.42411 5.18281 7.98045 5.61902C7.53685 6.05524 7.36988 6.64509 7.29315 7.31651C7.21642 7.98793 7.21931 8.7994 7.21931 9.8676V17.0089C7.21931 17.2632 7.2227 17.46 7.22357 17.6868C6.86964 17.6584 6.57262 17.6217 6.39995 17.5668C6.14629 17.4862 6.0984 17.4395 6.01511 17.2907C5.84853 16.9929 5.76518 15.9857 5.76518 14.1678C5.76519 14.1654 5.76519 14.1631 5.76518 14.1608C5.7652 14.158 5.7652 14.1552 5.76518 14.1524V7.01111C5.76518 5.94334 5.76965 5.15151 5.8305 4.61906C5.89135 4.08659 5.99761 3.87201 6.10031 3.77103C6.20302 3.67003 6.4215 3.56472 6.9637 3.50462C7.50591 3.44452 8.31227 3.44046 9.40054 3.44046L9.40057 3.44034ZM12.3088 6.29687H15.2171C16.3042 6.29687 17.1104 6.30126 17.6525 6.36103C18.1946 6.42079 18.4131 6.52516 18.5159 6.62603C18.6187 6.72691 18.7259 6.94151 18.7871 7.47407C18.8483 8.00663 18.8524 8.79864 18.8524 9.86755V17.0089C18.8524 18.0766 18.8479 18.8685 18.7871 19.4009C18.7263 19.9334 18.62 20.148 18.5173 20.2489C18.4146 20.3499 18.1961 20.4552 17.6539 20.5153C17.1117 20.5754 16.3054 20.5795 15.2171 20.5795H12.3088C11.2217 20.5795 10.4155 20.5751 9.87343 20.5153C9.33131 20.4556 9.11284 20.3512 9.01004 20.2503C8.90722 20.1495 8.8 19.9349 8.73881 19.4023C8.67762 18.8697 8.67348 18.0777 8.67348 17.0088V9.86752C8.67348 8.79975 8.67799 8.00792 8.73881 7.47547C8.79965 6.943 8.90591 6.72841 9.00861 6.62744C9.11132 6.52644 9.32979 6.42113 9.872 6.36103C10.4142 6.30093 11.2206 6.29687 12.3088 6.29687Z" fill="#1D1D1B"/>
</svg>
