<svg width="49" height="49" viewBox="0 0 49 49" fill="none" xmlns="http://www.w3.org/2000/svg">
<path d="M15.3009 8.00639C21.4761 7.31623 27.8588 7.31623 34.0339 8.00639C36.3524 8.26551 38.3876 9.51926 39.675 11.34L23.6675 27.3476L18.7281 22.4082C18.1424 21.8224 17.1926 21.8224 16.6068 22.4082C16.021 22.994 16.021 23.9438 16.6068 24.5295L22.6068 30.5295C23.1926 31.1153 24.1424 31.1153 24.7281 30.5295L40.959 14.2987C41.004 14.5178 41.0398 14.7403 41.0662 14.9658C41.8047 21.2797 41.8047 27.6581 41.0662 33.9719C40.6365 37.6458 37.6867 40.5231 34.034 40.9314C27.8588 41.6215 21.4761 41.6215 15.3009 40.9314C11.6482 40.5231 8.69839 37.6458 8.26869 33.9719C7.53023 27.6581 7.53023 21.2797 8.26869 14.9658C8.69839 11.2919 11.6482 8.41464 15.3009 8.00639Z" fill="#CB8080"/>
</svg>
