<?xml version="1.0" encoding="utf-8"?>
<!-- Generator: Adobe Illustrator 25.4.1, SVG Export Plug-In . SVG Version: 6.00 Build 0)  -->
<svg version="1.1" id="Layer_1" xmlns="http://www.w3.org/2000/svg" xmlns:xlink="http://www.w3.org/1999/xlink" x="0px" y="0px"
	 width="31px" height="24px" viewBox="0 0 31 24" style="enable-background:new 0 0 31 24;" xml:space="preserve">
<style type="text/css">
	.st0{fill:none;stroke:#DB8080;stroke-width:2;}
</style>
<path class="st0" d="M15.4999199,5.18468l0.7701988-0.9299197L15.4999199,5.18468l-0.7701006-0.9299598
	c-0.4967995-0.5999603-1.0567999-1.10958-1.6702995-1.52384V2.7308402
	c-1.2074003-0.8154501-2.5764999-1.2308501-4.0918999-1.2308501c-2.0536499,0-3.9035702,0.7166799-5.2341404,1.9768099
	C2.4226098,4.7186804,1.6973798,6.4140701,1.6973798,8.2692795c0,1.8547106,0.7748699,3.6220303,2.6616604,5.6101303
	c1.7196198,1.8118,4.2145691,3.6725998,7.221879,5.9104996h0.0001001l0.0039005,0.0029011
	c1.0169992,0.7568989,2.1746998,1.6185989,3.3773994,2.5367985l0.0007,0.0005016
	c0.1318998,0.1008987,0.3217001,0.169899,0.5370007,0.169899c0.2152996,0,0.4052992-0.0690994,0.5365992-0.1695004
	l0.0005016-0.0003986c1.1937981-0.9117012,2.3438988-1.7677002,3.3557987-2.5208015l0.026701-0.0198994l0.0000992-0.0000992
	c3.007-2.2375011,5.5018997-4.0981007,7.2215004-5.9101009l0,0c1.8866997-1.9877996,2.6613998-3.7551394,2.6613998-5.6101294
	c0-1.85501-0.7252007-3.5503998-2.0363007-4.7922301c-1.3304996-1.26017-3.1802998-1.9768599-5.2339001-1.9768599
	c-1.5152988,0-2.8843994,0.41536-4.0921001,1.2308c-0.6133003,0.41429-1.1730995,0.9237599-1.6702003,1.5239701"/>
</svg>
