<svg width="24" height="25" viewBox="0 0 24 25" fill="none" xmlns="http://www.w3.org/2000/svg">
<path fill-rule="evenodd" clip-rule="evenodd" d="M19.1824 5.38124L11.9987 5.21875L4.81493 5.38124C3.48377 5.41135 2.35667 6.37197 2.11598 7.68153C1.53426 10.8466 1.53426 14.0913 2.11598 17.2564C2.35667 18.5659 3.48377 19.5265 4.81493 19.5566L11.9987 19.7191L19.1824 19.5566C20.5135 19.5265 21.6406 18.5659 21.8813 17.2563C22.463 14.0913 22.463 10.8466 21.8813 7.68153C21.6406 6.37197 20.5135 5.41135 19.1824 5.38124ZM4.84885 6.88086L11.9987 6.71913L19.1485 6.88086C19.7687 6.89488 20.2939 7.34249 20.406 7.95268C20.5593 8.78667 20.6698 9.62651 20.7374 10.4689H3.25987C3.32752 9.62651 3.43799 8.78667 3.59127 7.95268C3.70342 7.34249 4.22859 6.89488 4.84885 6.88086ZM3.17969 12.4689C3.17969 13.9806 3.31688 15.4923 3.59127 16.9852C3.70342 17.5954 4.22859 18.043 4.84885 18.057L11.9987 18.2188L19.1485 18.057C19.7687 18.043 20.2939 17.5954 20.406 16.9852C20.6804 15.4923 20.8176 13.9806 20.8176 12.4689H3.17969Z" fill="white"/>
</svg>
