<svg width="24" height="25" viewBox="0 0 24 25" fill="none" xmlns="http://www.w3.org/2000/svg">
<path d="M11.872 9.496C12.688 9.496 13.344 8.824 13.344 8.008C13.344 7.208 12.688 6.536 11.872 6.536C11.056 6.536 10.4 7.208 10.4 8.008C10.4 8.824 11.056 9.496 11.872 9.496ZM13.44 11.56C13.44 10.888 12.896 10.36 12.24 10.36H11.04C10.368 10.36 9.84 10.888 9.84 11.56C9.84 12.216 10.368 12.76 11.04 12.76V16.264C10.368 16.264 9.84 16.808 9.84 17.464C9.84 18.136 10.368 18.664 11.04 18.664H13.44C14.096 18.664 14.64 18.136 14.64 17.464C14.64 16.808 14.096 16.264 13.44 16.264V11.56ZM12 0.664001C18.624 0.664001 24 6.04 24 12.664C24 19.288 18.624 24.664 12 24.664C5.36 24.664 0 19.288 0 12.664C0 6.04 5.36 0.664001 12 0.664001Z" fill="#777776"/>
</svg>
