<svg width="24" height="25" viewBox="0 0 24 25" fill="none" xmlns="http://www.w3.org/2000/svg">
<path d="M11 19.6641C11 20.2163 11.4477 20.6641 12 20.6641C12.5523 20.6641 13 20.2163 13 19.6641H11ZM12.7071 4.95696C12.3166 4.56643 11.6834 4.56643 11.2929 4.95696L4.92893 11.3209C4.53841 11.7114 4.53841 12.3446 4.92893 12.7351C5.31946 13.1257 5.95262 13.1257 6.34315 12.7351L12 7.07828L17.6569 12.7351C18.0474 13.1257 18.6805 13.1257 19.0711 12.7351C19.4616 12.3446 19.4616 11.7114 19.0711 11.3209L12.7071 4.95696ZM13 19.6641V5.66406H11V19.6641H13Z" fill="#1D1D1B"/>
</svg>
