<svg width="37" height="37" viewBox="0 0 37 37" fill="none" xmlns="http://www.w3.org/2000/svg">
<path d="M18.3476 36.3041C8.44763 36.3041 0.422607 28.2791 0.422607 18.3791C0.422607 8.47912 8.44763 0.454102 18.3476 0.454102C28.2476 0.454102 36.2726 8.47912 36.2726 18.3791C36.2726 28.2791 28.2476 36.3041 18.3476 36.3041ZM9.40841 29.593C11.9458 31.6215 15.099 32.7243 18.3476 32.7191C21.8788 32.7191 25.1107 31.4428 27.6095 29.3277C26.442 28.1298 25.0463 27.1783 23.5047 26.5292C21.9631 25.8802 20.307 25.5469 18.6344 25.5491C16.9003 25.5471 15.1847 25.9055 13.5965 26.6017C12.0083 27.2978 10.5821 28.3165 9.40841 29.593V29.593ZM6.90429 27.0189C8.4108 25.4202 10.2288 24.1469 12.2462 23.2775C14.2636 22.4081 16.4377 21.9612 18.6344 21.9641C20.7525 21.9613 22.8503 22.377 24.8073 23.1873C26.7643 23.9975 28.542 25.1864 30.0383 26.6855C31.5728 24.5258 32.479 21.9832 32.6564 19.3397C32.8337 16.6963 32.2752 14.0554 31.043 11.71C29.8107 9.36466 27.9528 7.40653 25.6753 6.05288C23.3978 4.69922 20.7899 4.00296 18.1408 4.04135C15.4917 4.07973 12.905 4.85126 10.6677 6.27033C8.43039 7.6894 6.62996 9.70054 5.46615 12.0806C4.30234 14.4607 3.82064 17.1167 4.0745 19.7539C4.32835 22.3911 5.30784 24.9064 6.90429 27.0207V27.0189ZM18.3476 20.1716C16.446 20.1716 14.6223 19.4162 13.2777 18.0716C11.933 16.7269 11.1776 14.9032 11.1776 13.0016C11.1776 11.1 11.933 9.27628 13.2777 7.93165C14.6223 6.58701 16.446 5.8316 18.3476 5.8316C20.2492 5.8316 22.0729 6.58701 23.4176 7.93165C24.7622 9.27628 25.5176 11.1 25.5176 13.0016C25.5176 14.9032 24.7622 16.7269 23.4176 18.0716C22.0729 19.4162 20.2492 20.1716 18.3476 20.1716ZM18.3476 16.5866C19.2984 16.5866 20.2103 16.2089 20.8826 15.5366C21.5549 14.8643 21.9326 13.9524 21.9326 13.0016C21.9326 12.0508 21.5549 11.1389 20.8826 10.4666C20.2103 9.79431 19.2984 9.4166 18.3476 9.4166C17.3968 9.4166 16.4849 9.79431 15.8126 10.4666C15.1403 11.1389 14.7626 12.0508 14.7626 13.0016C14.7626 13.9524 15.1403 14.8643 15.8126 15.5366C16.4849 16.2089 17.3968 16.5866 18.3476 16.5866Z" fill="white"/>
</svg>
