<svg width="142" height="74" viewBox="0 0 142 74" fill="none" xmlns="http://www.w3.org/2000/svg">
<path d="M101.627 70.4885V40.4623C101.63 40.4048 101.62 40.3474 101.597 40.2947C101.574 40.2422 101.54 40.1957 101.496 40.1595C101.452 40.1232 101.4 40.098 101.345 40.086C101.289 40.0742 101.232 40.0756 101.177 40.0907L96.5457 41.6058C96.4371 41.6444 96.3435 41.7171 96.2778 41.8132C96.2123 41.9093 96.1783 42.0239 96.1804 42.1408V49.8108C95.5469 49.4998 94.8874 49.247 94.2097 49.0551C93.2798 48.8058 92.3217 48.6822 91.3599 48.6875C89.851 48.6765 88.3534 48.9537 86.9449 49.5044C85.6095 50.0423 84.4006 50.8605 83.3969 51.9059C82.3712 52.9891 81.5795 54.2788 81.073 55.6919C80.5269 57.2089 80.2549 58.8139 80.2701 60.4293C80.2606 61.8267 80.4596 63.2176 80.8603 64.5543C81.2242 65.7774 81.808 66.9212 82.582 67.9276C83.3384 68.8956 84.2985 69.6786 85.3916 70.2189C86.5031 70.7721 87.7267 71.0518 88.9638 71.0356C90.6125 71.0486 92.2326 70.5963 93.6438 69.7287C94.6275 69.1192 95.5323 68.3865 96.337 67.5479L97.2441 69.108L98.1873 70.7171H101.426C101.486 70.7139 101.543 70.6869 101.583 70.6419C101.624 70.5967 101.645 70.5372 101.643 70.4762L101.627 70.4885ZM96.1965 57.0191C96.1693 58.2677 95.9233 59.5014 95.47 60.6621C95.0439 61.7677 94.4521 62.7995 93.716 63.721C93.0942 64.5042 92.3398 65.1681 91.4884 65.6814C90.8587 66.0882 90.1312 66.3115 89.3852 66.3267C88.8977 66.3396 88.4155 66.2198 87.9885 65.9795C87.5513 65.7292 87.1755 65.3816 86.8888 64.9627C86.5209 64.4065 86.2495 63.7905 86.0861 63.1412C85.8595 62.2811 85.7514 61.3932 85.765 60.5028C85.7495 59.4606 85.8971 58.4226 86.2024 57.4275C86.4468 56.6237 86.8406 55.8749 87.3624 55.2221C87.8262 54.6557 88.411 54.2045 89.0722 53.9029C89.8225 53.5659 90.6362 53.3999 91.4563 53.417C92.0363 53.4124 92.6139 53.495 93.1701 53.662C93.7066 53.8288 94.2255 54.0491 94.7194 54.3196C95.151 54.5744 95.5653 54.8582 95.9597 55.169C96.0399 55.2385 96.1202 55.2997 96.1845 55.361L96.1965 57.0191Z" fill="#FFF8EE"/>
<path d="M127.872 43.0444C127.843 43.0246 127.81 43.0146 127.775 43.0158H123.713C123.505 43.0158 122.305 43.1424 122.212 43.3508L121.812 44.339L117.08 55.9501L111.85 43.992C111.712 43.7026 111.501 43.4558 111.239 43.2773L111.198 43.2527C110.951 43.0958 110.665 43.0124 110.372 43.0117H106.359C106.211 43.0123 106.069 43.0658 105.957 43.1628C105.874 43.2356 105.807 43.3257 105.761 43.4273C105.716 43.5289 105.692 43.6393 105.692 43.7509C105.694 43.8668 105.72 43.981 105.769 44.0859L114.065 61.4514C113.31 61.5003 112.52 61.5902 111.689 61.7087C110.81 61.8414 109.94 62.0284 109.084 62.2682C108.176 62.5116 107.303 62.8741 106.487 63.3464C106.415 63.3832 106.355 63.428 106.282 63.473L105.022 64.5184C104.829 64.6804 104.651 64.861 104.492 65.0576L104.372 65.2128C103.688 66.1352 103.326 67.2635 103.344 68.4188C103.33 69.4087 103.636 70.3758 104.215 71.1714C104.667 71.7685 105.234 72.266 105.881 72.6336C106.485 72.9635 107.137 73.1951 107.812 73.3196C108.369 73.4272 108.934 73.4833 109.501 73.4871C110.761 73.5026 111.999 73.1403 113.058 72.4457C113.996 71.8138 114.823 71.0286 115.509 70.1218C116.175 69.2449 116.758 68.307 117.252 67.3202C117.489 66.8505 117.722 66.393 117.935 65.9479C118.087 65.9534 118.237 65.9683 118.388 65.9929C119.001 66.0612 119.611 66.1703 120.21 66.3195L120.49 66.3849C121.052 66.5046 121.597 66.6854 122.12 66.924C124.016 67.8021 124.785 64.6655 124.28 63.2198C124.16 62.8812 123.952 62.5824 123.677 62.3556C123.403 62.1288 123.072 61.9828 122.722 61.9333C121.78 61.774 120.825 61.7699 119.877 61.6393L120.065 61.2307L120.752 59.7116C121.427 58.2126 122.097 56.7139 122.758 55.219C124.097 52.1724 125.441 49.1038 126.793 46.0136L127.162 45.164L127.965 43.3466C127.988 43.2949 127.992 43.2363 127.976 43.1816C127.962 43.1268 127.927 43.0796 127.879 43.0485L127.872 43.0444ZM112.135 67.1201C111.709 67.6889 111.206 68.1912 110.637 68.6107C110.293 68.8819 109.868 69.0259 109.433 69.0191C109.336 69.0279 109.239 69.0161 109.147 68.9845C109.055 68.9528 108.971 68.902 108.899 68.8353C108.855 68.7822 108.783 68.717 108.783 68.4269C108.769 68.2592 108.813 68.0918 108.907 67.9532C108.995 67.8304 109.093 67.7157 109.2 67.6102C109.326 67.4982 109.46 67.3972 109.602 67.3079C110.039 67.0316 110.507 66.8069 110.994 66.6382C111.566 66.4406 112.151 66.2838 112.744 66.1684C112.757 66.1638 112.771 66.1638 112.785 66.1684C112.56 66.5156 112.327 66.8464 112.09 67.1691" fill="#FFF8EE"/>
<path d="M76.8367 45.9167C76.083 44.9571 75.1323 44.1765 74.0511 43.6297C72.9413 43.0801 71.7213 42.8003 70.487 42.8129C69.3892 42.8109 68.3006 43.0158 67.276 43.4172C66.3176 43.7985 65.4153 44.3126 64.5949 44.9448C64.1199 45.32 63.672 45.7296 63.2543 46.1699V42.9803C63.2578 42.9204 63.2472 42.8605 63.2234 42.8055C63.1995 42.7507 63.163 42.7025 63.117 42.6649C63.071 42.6272 63.0169 42.6015 62.959 42.5895C62.9012 42.5776 62.8415 42.5799 62.7847 42.5964L58.3978 43.9932C58.2195 44.0592 58.0659 44.1799 57.958 44.3386C57.8501 44.4975 57.7934 44.6863 57.7957 44.8794V64.8219H63.2584C63.318 65.0694 63.3503 65.3228 63.3546 65.5775C63.3629 65.9271 63.2957 66.2741 63.158 66.5944C63.158 66.5944 63.158 66.619 63.158 66.6394C63.0033 66.9618 62.783 67.2471 62.5118 67.4765C62.5118 67.4765 62.4797 67.5052 62.4677 67.5092C62.4306 67.548 62.3871 67.5798 62.3392 67.6031C62.0226 67.8341 61.6716 68.0119 61.2997 68.13C60.7193 68.3083 60.1158 68.3964 59.5095 68.3914C58.6707 68.3914 57.021 68.1954 56.5474 67.7992C55.9589 67.2919 55.4932 66.6532 55.1868 65.9327C54.7682 64.9467 54.486 63.9062 54.3479 62.8411C54.1507 61.5577 54.0288 60.2635 53.9827 58.9653C53.9306 57.6503 53.9225 56.3719 53.9505 55.159C53.9827 53.8848 53.9987 52.7902 53.9987 51.8917C54.0372 50.353 53.6905 48.8296 52.9913 47.4647C52.8282 47.1572 52.6473 46.8599 52.4495 46.5743L51.5384 45.5043C51.1873 45.1549 50.8042 44.8403 50.3944 44.5649C49.3703 43.8873 48.2331 43.4057 47.039 43.1437C45.8865 42.8775 44.7088 42.7406 43.527 42.7352C42.7328 42.745 41.9402 42.8105 41.155 42.9313C40.2015 43.065 39.2691 43.3245 38.3815 43.7032C37.4229 44.1114 36.5599 44.7209 35.8489 45.492C34.9521 46.4947 34.473 47.8125 34.5123 49.1676V50.013C34.5086 50.1048 34.5226 50.1964 34.5536 50.2826C34.5847 50.3687 34.6322 50.4479 34.6932 50.5155C34.7544 50.5829 34.8281 50.6376 34.91 50.6761C34.9918 50.7146 35.0803 50.7363 35.1705 50.7401H39.2283C39.3293 50.7364 39.4285 50.7123 39.5199 50.669C39.6115 50.6256 39.6936 50.5641 39.7613 50.488C39.829 50.4117 39.8811 50.3226 39.9144 50.2255C39.9475 50.1285 39.9614 50.0258 39.9549 49.9232C39.9549 49.9232 40.6212 46.513 45.4255 47.1297C46.0101 47.2071 46.5723 47.4088 47.0752 47.722C47.4841 47.9716 47.8204 48.3276 48.0497 48.753C48.2789 49.1786 48.3928 49.6586 48.3796 50.1437C48.3796 50.1683 48.3314 50.1928 48.2551 50.2378C47.5183 50.6341 46.7245 50.9098 45.9031 51.0545C44.7873 51.2791 43.5752 51.4629 42.2909 51.5936C40.9297 51.7299 39.5793 51.9604 38.2491 52.2838C36.9668 52.5841 35.7555 53.1392 34.6848 53.9175C34.0482 54.3948 33.5355 55.0228 33.1914 55.7474C32.8473 56.4718 32.682 57.2709 32.7101 58.0751L32.7703 59.0675C32.9046 60.1412 33.3488 61.1503 34.0466 61.9672C34.7779 62.8023 35.6681 63.4777 36.6636 63.9521C37.6087 64.4033 38.6111 64.7182 39.6418 64.8873C40.5106 65.0496 41.3915 65.1357 42.2748 65.1446C43.0808 65.1361 43.8854 65.072 44.6829 64.9526C45.6062 64.8163 46.5156 64.5962 47.4002 64.295C47.9209 64.1127 48.4302 63.8987 48.9254 63.654C48.9451 63.8513 48.9745 64.0476 49.0137 64.2419C49.2451 65.7639 49.7484 67.2296 50.4989 68.5671C51.256 69.8786 52.3347 70.9678 53.6294 71.7281C54.946 72.5 57.5911 72.8921 59.5135 72.8921C60.7003 72.9036 61.8836 72.758 63.0335 72.4592C64.0753 72.1927 65.0638 71.7451 65.9555 71.136C66.5978 70.6885 67.1633 70.1366 67.6293 69.5023L67.6494 69.4819C68.0809 68.9086 68.3985 68.2552 68.5845 67.5583C68.7647 66.9308 68.8552 66.2802 68.8534 65.6265C68.8534 65.361 68.8534 65.1037 68.8173 64.8587C68.7583 63.8728 68.4349 62.9222 67.8821 62.11C67.3162 61.3177 66.1241 60.3376 63.8685 60.5459C63.6653 60.56 63.4646 60.5984 63.2704 60.6603V56.8009C63.2999 55.5639 63.543 54.3418 63.9889 53.1905C64.4135 52.0947 64.998 51.0703 65.7227 50.152C66.3405 49.3654 67.0922 48.6986 67.9423 48.1834C68.5667 47.7885 69.2826 47.5687 70.0174 47.5463C70.5125 47.535 71.0022 47.6545 71.4382 47.8934C71.8838 48.1381 72.2661 48.4866 72.5541 48.9103C72.9186 49.4668 73.1899 50.0809 73.3568 50.7278C73.5743 51.5923 73.6796 52.4819 73.6698 53.3742V64.4136C73.666 64.4696 73.6736 64.5257 73.6919 64.5787C73.7103 64.6315 73.7393 64.68 73.777 64.7209C73.8147 64.762 73.8602 64.7946 73.9109 64.8169C73.9614 64.8393 74.0161 64.8507 74.0712 64.8506H78.6147C78.7655 64.8431 78.9075 64.7755 79.0096 64.6623C79.1118 64.5491 79.1661 64.3997 79.1606 64.2461V53.4233C79.1716 52.0264 78.9754 50.6357 78.5786 49.2983C78.2134 48.0716 77.6268 46.9247 76.8487 45.9167H76.8367ZM48.5642 58.169C48.5642 58.2138 48.5642 58.3037 48.3515 58.4957C47.8696 58.9262 47.3184 59.2689 46.7219 59.5086C46.0215 59.8116 45.2926 60.0415 44.5465 60.1946C43.9861 60.3253 43.4151 60.4032 42.8408 60.4275C42.2726 60.416 41.7069 60.3505 41.151 60.2314C40.5752 60.1166 40.0193 59.9156 39.5013 59.6352C39.0616 59.411 38.6732 59.0951 38.3614 58.708C38.2031 58.5096 38.1268 58.2562 38.1486 58.0015C38.1431 57.9298 38.1514 57.8577 38.1728 57.7891C38.1868 57.7683 38.2045 57.7503 38.2249 57.736C38.7201 57.3875 39.2758 57.1382 39.8626 57.001C40.7856 56.7609 41.7246 56.5903 42.6722 56.4905C43.832 56.3515 44.976 56.1841 46.0797 55.984C46.9287 55.8258 47.7636 55.5976 48.5763 55.3019L48.5642 58.169Z" fill="#FFF8EE"/>
<path d="M25.4774 49.8437C25.4403 50.0337 25.4438 50.2297 25.4876 50.4182C25.5315 50.6068 25.6147 50.7836 25.7315 50.9366C25.8484 51.0895 25.9961 51.2151 26.1649 51.305C26.3336 51.3947 26.5194 51.4465 26.7096 51.457H30.635L30.972 49.8233C31.1518 49.1281 31.1772 48.4011 31.0467 47.6947C30.9162 46.9884 30.633 46.3204 30.2175 45.7391C29.5309 44.814 28.6173 44.0887 27.5686 43.6359C26.5547 43.1852 25.4852 42.8774 24.3897 42.721C21.904 42.2971 19.359 42.4042 16.9162 43.0355C15.5659 43.3964 14.3069 44.0467 13.2236 44.9428C12.1109 45.8905 11.2405 47.0984 10.687 48.4633C10.0666 50.034 9.76618 51.7167 9.80395 53.4091C9.80395 53.7563 9.80395 54.6344 9.83608 54.9488C9.90033 56.3068 10.1822 57.645 10.6709 58.9103C11.0917 59.9738 11.6846 60.958 12.4248 61.8223C12.6527 62.0867 12.8953 62.3377 13.1513 62.5737C14.224 63.5561 15.4976 64.2842 16.88 64.7057C18.3115 65.1451 19.7999 65.3626 21.2951 65.351C21.7406 65.351 22.2543 65.351 22.8685 65.2896C23.543 65.2498 24.2137 65.1597 24.8754 65.0202C25.5762 64.8739 26.2668 64.6801 26.9424 64.4402C27.6968 64.1839 28.4046 63.8031 29.0375 63.313C29.7326 62.7738 30.2912 62.0739 30.6671 61.271C30.9564 60.6374 31.1084 59.9479 31.1126 59.2494L31.0123 58.0241L30.7674 56.4395H26.2721C26.1537 56.4433 26.0374 56.4726 25.931 56.5255C25.8245 56.5783 25.7303 56.6535 25.6545 56.7462C25.5786 56.8388 25.5229 56.9467 25.491 57.0628C25.4591 57.1788 25.4517 57.3004 25.4694 57.4196L25.6179 58.7879C25.6475 58.9384 25.6336 59.0944 25.5778 59.2371C25.4012 59.52 25.1603 59.7553 24.8754 59.9231C24.3919 60.1781 23.8738 60.3584 23.3381 60.4581C22.7006 60.5849 22.0529 60.6505 21.4034 60.6542C20.4343 60.6765 19.4707 60.5001 18.5698 60.1356C17.867 59.845 17.2404 59.3921 16.7395 58.8123C16.2445 58.2157 15.8781 57.5201 15.6639 56.7703C15.3845 55.8123 15.2491 54.8167 15.2626 53.8175C15.2626 51.7755 15.7241 49.7579 16.6673 48.7491C17.6105 47.7403 19.1879 47.2299 21.3754 47.2299C22.1186 47.2241 22.8601 47.3008 23.587 47.4586C24.1087 47.5673 24.6092 47.7632 25.068 48.0386C25.2865 48.1546 25.4665 48.3336 25.5857 48.5532" fill="#FFF8EE"/>
<path d="M33.0159 34.9385C34.3006 34.9262 35.576 34.7128 36.7968 34.3056C37.2593 34.153 37.7134 33.9758 38.1575 33.7746L38.4866 33.6276L38.6712 33.9543C38.7825 34.1613 38.9462 34.3345 39.145 34.4558C39.344 34.577 39.5712 34.6423 39.8031 34.6445H42.2113C42.2745 34.6425 42.3368 34.6277 42.3945 34.6011C42.4521 34.5744 42.504 34.5365 42.5473 34.4895C42.5904 34.4425 42.6241 34.3872 42.6464 34.327C42.6687 34.2666 42.679 34.2024 42.6768 34.1381V14.9429C42.6829 14.5804 42.5551 14.2287 42.3188 13.9574C42.0825 13.6859 41.7549 13.5144 41.4005 13.4767C41.2824 13.4748 41.165 13.4971 41.0553 13.5421L37.3989 14.7306C37.3005 14.7649 37.2154 14.83 37.1556 14.9165C37.0957 15.0031 37.0643 15.1067 37.0658 15.2125V28.9635L36.8329 29.0861C36.4454 29.2893 36.0428 29.4612 35.6288 29.6007C34.9 29.8567 34.1361 29.9945 33.3651 30.0091C32.1932 30.0091 30.9569 29.6864 30.9569 25.8025V14.751C30.9603 14.6648 30.9467 14.5786 30.9168 14.4978C30.8247 14.2221 30.6526 13.9813 30.4232 13.807C30.194 13.6328 29.9183 13.5334 29.6324 13.5217C29.5101 13.5215 29.3884 13.5395 29.2712 13.5748L25.6909 14.6611C25.5897 14.6935 25.5015 14.7584 25.4392 14.8459C25.3772 14.9335 25.3443 15.0391 25.3457 15.1471V25.8188C25.3457 28.5184 25.992 30.7198 27.2603 32.3329C28.617 34.0646 30.5516 34.9385 33.0159 34.9385Z" fill="#FFF8EE"/>
<path d="M83.9513 33.6219L84.1358 33.9527C84.2472 34.1597 84.4107 34.3328 84.6097 34.4542C84.8087 34.5754 85.0357 34.6406 85.2677 34.6429H87.6759C87.7395 34.6413 87.8022 34.627 87.8604 34.6006C87.9184 34.5741 87.9708 34.5364 88.0145 34.4893C88.0582 34.4422 88.0922 34.3867 88.1146 34.3263C88.1372 34.2656 88.1476 34.2012 88.1456 34.1364V15.4886C88.1468 15.1271 88.0167 14.7779 87.7803 14.5082C87.544 14.2383 87.2181 14.0668 86.8652 14.0264C86.7878 14.0179 86.7095 14.0277 86.6364 14.0551L82.8675 15.2803C82.7693 15.3142 82.6843 15.3795 82.625 15.4662C82.5658 15.5528 82.5354 15.6566 82.5385 15.7622V28.9619L82.3056 29.0845C81.9176 29.2868 81.5152 29.4589 81.1015 29.5991C80.3711 29.8548 79.606 29.9926 78.8337 30.0075C77.6618 30.0075 76.4256 29.6848 76.4256 25.8009V15.3008C76.4285 15.2174 76.4163 15.1343 76.3894 15.0556C76.2969 14.7798 76.125 14.5388 75.8958 14.364C75.6667 14.1891 75.3912 14.0887 75.1051 14.0755C74.9825 14.0765 74.8608 14.0957 74.7439 14.1326L71.1597 15.219C71.0591 15.2523 70.9717 15.3174 70.9103 15.4048C70.849 15.4923 70.8167 15.5976 70.8184 15.7051V25.8172C70.8184 28.5168 71.4607 30.7182 72.7289 32.3313C74.0856 34.0629 76.0202 34.9369 78.4886 34.9369C79.7733 34.9239 81.0484 34.7105 82.2694 34.304C82.7318 34.151 83.1859 33.9737 83.6302 33.773L83.9513 33.6219Z" fill="#FFF8EE"/>
<path d="M42.131 6.08533C42.044 6.08547 41.9585 6.06348 41.8821 6.02137C41.8058 5.97926 41.7409 5.91848 41.6934 5.84439C41.6442 5.76885 41.6122 5.68318 41.5996 5.59346C41.5872 5.50374 41.5946 5.41228 41.6212 5.32574L42.2874 3.17345C42.4087 2.77766 42.6301 2.42138 42.9295 2.14035C43.2289 1.85932 43.5959 1.66353 43.9933 1.5725C44.2991 1.49016 44.6125 1.44096 44.9284 1.42548L45.4783 1.38872C45.7152 1.38872 45.8798 1.36832 45.956 1.36832C46.71 1.35457 47.461 1.46629 48.1797 1.69913C48.5778 1.82995 48.956 2.01691 49.3035 2.25453C50.1871 2.86217 50.8655 3.73203 51.2461 4.74588C51.4192 5.20852 51.5535 5.68535 51.6474 6.17115C51.6474 6.17115 51.8963 7.74763 51.9284 8.54398C51.9284 8.65019 51.9524 8.75641 51.9524 8.86668V32.146C51.9524 32.146 51.9524 32.6196 52.1291 32.7545L52.2976 32.8238C52.3417 32.843 52.3873 32.8581 52.434 32.8688C52.9195 32.9828 53.4172 33.0336 53.9151 33.0199H56.0103C56.0967 33.0197 56.1819 33.0413 56.2582 33.0826C56.3344 33.1239 56.3996 33.1837 56.4477 33.2568C56.4968 33.3325 56.5286 33.4181 56.5411 33.5079C56.5537 33.5976 56.5464 33.6889 56.5199 33.7754L55.8537 35.9277C55.733 36.3247 55.5119 36.6822 55.2125 36.9647C54.9131 37.2471 54.5459 37.4444 54.148 37.5369C53.8415 37.6153 53.5283 37.6631 53.2127 37.6799L52.6628 37.7124C52.4261 37.7124 52.2615 37.733 52.1853 37.733C51.4315 37.7479 50.6804 37.6376 49.9616 37.4062C49.5638 37.2744 49.1855 37.0876 48.8378 36.8508C47.9509 36.2381 47.413 35.3479 46.8952 34.3554C46.7344 33.9566 46.6004 33.5474 46.4938 33.1302C46.2922 31.9157 46.1929 30.6861 46.1968 29.4545V6.95533C46.1968 6.95533 46.1968 6.41209 46.0242 6.34277L45.8436 6.27736L45.7152 6.23236C45.2291 6.12252 44.7319 6.07317 44.2341 6.08533H42.139" fill="#FFF8EE"/>
<path d="M92.3242 34.6458C92.2953 34.6452 92.2666 34.6388 92.24 34.6271C92.2135 34.6152 92.1894 34.5983 92.1692 34.577C92.1491 34.5558 92.1333 34.5307 92.1228 34.5032C92.1121 34.4757 92.107 34.4465 92.1074 34.417V14.9971C92.1073 14.9489 92.1218 14.9016 92.1491 14.8621C92.1765 14.8226 92.2153 14.7928 92.26 14.7766L96.3379 13.4534C96.4414 13.4183 96.5498 13.4004 96.6591 13.4004C96.8928 13.4133 97.1171 13.4984 97.302 13.6444C97.4869 13.7902 97.624 13.9901 97.6946 14.2171C97.7023 14.2632 97.7023 14.31 97.6946 14.3561V17.2966L98.3528 16.7738C99.4078 15.9394 100.564 15.2462 101.793 14.7113C103.486 13.8999 105.335 13.4814 107.207 13.4861C107.207 13.4861 108.487 13.4453 109.214 13.8944C109.394 14.0047 109.398 14.2212 109.435 14.4213V14.4744C109.435 14.4989 109.435 14.5316 109.435 14.5766V14.6255C109.486 15.645 109.228 16.656 108.696 17.5212C107.52 19.4202 104.835 19.314 104.835 19.314C101.845 19.1425 99.8258 21.356 99.8258 21.356C97.522 23.5206 97.7306 27.2494 97.7306 27.2494V34.4293C97.7318 34.4882 97.7101 34.545 97.6703 34.5879C97.6305 34.6307 97.5758 34.6558 97.5179 34.6579H92.3403" fill="#FFF8EE"/>
<path d="M141.981 35.1398C141.981 34.9643 141.981 34.7926 141.981 34.6211C141.952 33.598 141.632 32.6052 141.062 31.7624C140.869 31.4916 140.636 31.2531 140.37 31.0557C139.79 30.6032 139.094 30.3284 138.364 30.2634C137.991 30.2232 137.613 30.2232 137.24 30.2634L136.678 30.2921L136.631 29.6998V9.27943C136.635 8.83487 136.542 8.39481 136.357 7.99222C136.17 7.58978 135.898 7.23538 135.558 6.95565C135.131 6.61428 134.612 6.41588 134.069 6.38795C133.768 6.37261 133.469 6.41284 133.182 6.50632C132.615 6.7011 132.123 7.07518 131.78 7.57414C131.437 8.07296 131.257 8.67048 131.272 9.27943V32.1136C131.265 32.4092 131.32 32.703 131.434 32.9749C131.548 33.247 131.719 33.4908 131.933 33.6899C132.408 34.1271 132.998 34.4113 133.632 34.5068C133.852 34.5395 134.076 34.5395 134.298 34.5068C134.65 34.4582 134.987 34.3358 135.289 34.1474L135.574 33.9759C135.778 33.9258 135.994 33.9565 136.176 34.062C136.359 34.1675 136.495 34.3395 136.558 34.5436L136.634 34.8907C136.634 35.0378 136.634 35.1113 136.634 35.1725C136.638 35.4323 136.597 35.6909 136.513 35.9363C136.492 36.0005 136.467 36.0633 136.437 36.1241C136.305 36.4127 136.11 36.6668 135.868 36.8674C135.532 37.1329 135.153 37.3349 134.748 37.4637H134.667C134.146 37.6187 133.605 37.6929 133.062 37.6842C132.424 37.7269 131.793 37.5374 131.279 37.1493C130.734 36.6891 130.301 36.1041 130.019 35.4421C129.634 34.5277 129.363 33.5669 129.217 32.5832C129.045 31.3795 128.933 30.1677 128.883 28.9525C128.831 27.7763 128.823 26.5755 128.851 25.3789C128.876 24.2762 128.9 23.2102 128.9 22.324C128.932 20.8607 128.598 19.4131 127.928 18.1174C127.763 17.8047 127.573 17.5057 127.362 17.2229L126.703 16.4306C126.326 16.0265 125.905 15.6663 125.447 15.3566C124.463 14.7207 123.376 14.2659 122.236 14.0129C121.136 13.7688 120.012 13.6444 118.885 13.6413C118.129 13.6527 117.374 13.7156 116.626 13.8291C115.718 13.9566 114.831 14.2024 113.985 14.5602C113.06 14.9413 112.226 15.5223 111.545 16.2632C110.986 16.8134 110.58 17.5037 110.368 18.2644C110.172 19.0813 110.136 19.6775 110.525 20.2452C111.219 21.2662 113.001 20.7966 114.001 20.425C114.487 20.2801 114.912 19.9722 115.205 19.5509L115.341 19.3467C115.588 18.8758 115.969 18.4916 116.433 18.244C117.242 17.9129 118.106 17.7478 118.977 17.7581C119.542 17.7637 120.105 17.8197 120.659 17.9255C121.193 18.0336 121.708 18.2209 122.188 18.4809C122.188 18.4809 123.349 18.8608 123.465 21.0906L121.29 21.4499C120.298 21.646 119.178 21.8094 117.87 21.9524C117.16 22.0218 116.236 22.1198 115.462 22.2505L115.329 22.2749L113.247 22.7364C108.731 23.7616 108.49 28.1479 108.49 28.1479C108.457 29.4953 108.921 30.8064 109.79 31.8236C110.492 32.6215 111.345 33.2662 112.299 33.7186C113.205 34.1461 114.163 34.4443 115.148 34.6048C115.976 34.7557 116.814 34.8376 117.653 34.8499C118.419 34.8373 119.183 34.776 119.941 34.6661C120.819 34.5374 121.683 34.3295 122.526 34.0453L123.256 33.7676L123.854 33.5348L123.978 34.2005C124.207 35.5418 124.669 36.8309 125.343 38.0068C126.074 39.2538 127.107 40.2899 128.342 41.0168C129.793 41.7831 131.417 42.1477 133.049 42.0747C134.184 42.0867 135.314 41.9493 136.414 41.6661C136.839 41.556 137.257 41.4126 137.661 41.2373C138.204 41.031 138.719 40.7566 139.195 40.4206C139.442 40.25 139.677 40.0617 139.897 39.8569C140.081 39.6892 140.254 39.5121 140.419 39.326L140.535 39.1913C141.076 38.5781 141.48 37.8518 141.716 37.0634L141.759 36.9124C141.92 36.3426 142.001 35.7529 142.001 35.1602L141.981 35.1398ZM122.992 28.732C122.638 28.9638 122.269 29.1686 121.887 29.3445C121.228 29.6182 120.543 29.83 119.844 29.9775C118.804 30.2428 117.717 30.2553 116.669 30.0143C116.137 29.9043 115.62 29.7201 115.137 29.4671C114.737 29.2551 114.38 28.9683 114.085 28.6217C114.022 28.5548 113.976 28.475 113.946 28.3877C113.917 28.3004 113.907 28.2078 113.917 28.1162C113.927 28.0246 113.956 27.9362 114.002 27.857C114.048 27.7779 114.111 27.7099 114.186 27.6578C114.578 27.4361 114.999 27.2724 115.438 27.1718C116.306 26.9461 117.189 26.7837 118.079 26.6857C119.183 26.5674 120.267 26.404 121.29 26.2079L121.722 26.118L121.908 26.0772C122.104 26.0354 122.309 26.0398 122.504 26.09C122.699 26.1402 122.882 26.235 123.035 26.3672C123.196 26.5099 123.323 26.6866 123.41 26.8849C123.495 27.0831 123.537 27.2982 123.533 27.5148C123.556 27.7537 123.514 27.9942 123.411 28.2103C123.308 28.4263 123.149 28.6095 122.951 28.7401" fill="#FFF8EE"/>
<path d="M68.0493 12.5472H68.1496C68.1869 12.5513 68.2247 12.5513 68.262 12.5472C69.6877 12.5552 71.1001 12.2658 72.4116 11.6968C73.7233 11.1279 74.9065 10.2915 75.888 9.23912C77.4935 7.42994 78.0232 5.15508 77.2807 3.11306C76.9958 2.26997 76.4923 1.52065 75.8238 0.944411C75.2263 0.478151 74.5231 0.172085 73.779 0.05429C73.035 -0.0633603 72.2737 0.0108749 71.5652 0.270487C70.8709 0.495224 68.6273 1.36914 68.9564 3.21103C69.2614 4.90183 70.3812 5.2817 71.2 5.00805C71.5965 4.85248 71.985 4.67666 72.364 4.48116C72.364 4.48116 72.95 4.41184 73.3473 5.29805C73.3473 5.29805 73.6323 5.85751 73.0665 6.6744C73.0665 6.6744 72.5084 7.63413 70.2567 7.55251H64.9829V2.45548C64.9882 2.30339 64.9342 2.15535 64.8328 2.04364C64.7312 1.93192 64.5904 1.86564 64.4409 1.85927H61.6755C61.4791 1.86202 61.2887 1.92903 61.1325 2.05029C60.9764 2.17171 60.8628 2.34102 60.8085 2.53305L60.2868 4.98359C59.8173 7.72805 60.0139 7.58927 59.6165 7.57697L55.7633 7.53616C55.3555 7.55526 54.9717 7.73774 54.6958 8.04381C54.4198 8.34987 54.2741 8.75463 54.2903 9.16966V11.269C54.2833 11.423 54.3062 11.5768 54.3577 11.7218C54.4092 11.8666 54.4884 11.9998 54.5904 12.1137C54.6926 12.2274 54.8159 12.3196 54.9531 12.385C55.0902 12.4503 55.2387 12.4873 55.3901 12.4941H58.7536C58.9242 12.5006 59.0856 12.5754 59.2021 12.7025C59.3187 12.8296 59.3811 12.9984 59.3757 13.1721V26.4332C59.3757 27.4215 59.3998 28.3609 59.4439 29.2267C59.4767 30.2365 59.672 31.234 60.0219 32.1794C60.4027 33.1909 61.0812 34.0581 61.9645 34.6626C62.9675 35.2973 64.136 35.6079 65.316 35.5529H65.7976L66.3555 35.5242C66.6669 35.5031 66.9758 35.4539 67.2786 35.3772C67.6759 35.2857 68.0425 35.0891 68.3413 34.8073C68.6402 34.5254 68.8606 34.1684 68.9804 33.7722L69.4782 32.1589C69.5232 32.0105 69.5355 31.8536 69.5139 31.6996C69.4925 31.5457 69.4377 31.3985 69.3537 31.2687C69.2718 31.1434 69.161 31.0406 69.0307 30.9693C68.9005 30.8981 68.7551 30.8606 68.6072 30.8603H67.0459C66.5449 30.8767 66.044 30.8246 65.5568 30.705C65.4973 30.6958 65.44 30.6749 65.3882 30.6438L65.2477 30.5703L65.1875 30.411C65.1591 30.3383 65.1376 30.2632 65.1232 30.1864C65.0193 29.6637 64.9723 29.1309 64.9829 28.5977V12.5472H68.0493Z" fill="#FFF8EE"/>
<path d="M14.9246 32.0541C14.9246 32.0541 16.7106 31.7437 18.4967 28.2068C19.0907 27.0306 19.8293 27.6269 20.05 27.729L22.7351 29.0277C22.9274 29.0965 23.0989 29.2147 23.2329 29.3709C23.3125 29.4588 23.3607 29.5717 23.3694 29.6911C23.3782 29.8103 23.347 29.9293 23.2811 30.0284L22.4341 31.568C21.4874 33.1648 20.161 34.4935 18.577 35.4317C17.0005 36.393 15.1971 36.9011 13.3593 36.9019C12.8227 36.9016 12.2867 36.8702 11.7537 36.8079C10.983 36.7247 10.2212 36.5703 9.47796 36.3464C9.03239 36.2036 8.62705 36.0523 8.24574 35.889C6.89877 35.3039 5.67291 34.464 4.63345 33.4141C4.49294 33.2711 4.35242 33.1241 4.23202 32.969C3.54725 32.1982 2.96189 31.3418 2.49013 30.4205L2.46611 30.3673C2.16699 29.7787 1.91071 29.1686 1.69943 28.5418C0.563732 24.9569 0.563732 21.0996 1.69943 17.5148C2.23385 15.8707 3.08533 14.3517 4.20395 13.0467C4.56602 12.6351 4.95775 12.2515 5.37597 11.8991C6.25292 11.1565 7.23363 10.5509 8.28597 10.1021C9.43599 9.60386 10.6542 9.28708 11.8983 9.16278C12.388 9.12197 12.8214 9.10156 13.2308 9.10156C13.3993 9.10156 13.5478 9.10156 13.7044 9.10156C14.4759 9.12935 15.2424 9.23745 15.9921 9.42412C16.241 9.48953 16.4818 9.559 16.7226 9.64061C17.4314 9.87852 18.1146 10.1892 18.7616 10.5678C19.5652 11.0055 20.2933 11.5738 20.917 12.2503C20.917 12.2503 23.3934 15.1624 23.1164 18.2457L18.5729 18.6175C18.0834 18.6747 17.9148 18.6175 17.7702 18.3029L17.1562 16.9267C16.9488 16.4517 16.7004 15.9966 16.4137 15.5667C16.19 15.2234 15.9196 14.914 15.6108 14.6478C15.3046 14.4021 14.9618 14.2077 14.5954 14.0718C14.5557 14.053 14.5139 14.0393 14.4709 14.031C13.6608 13.8108 12.8094 13.8009 11.9945 14.0024C11.578 14.1024 11.174 14.2503 10.7905 14.4434C9.9953 14.8525 9.3001 15.4372 8.75556 16.1548C8.11405 17.01 7.63491 17.9796 7.34274 19.0136C6.62569 21.6278 6.62569 24.3919 7.34274 27.0061C7.63317 28.0408 8.11246 29.0107 8.75556 29.865C8.93587 30.1076 9.1373 30.3332 9.35756 30.5388C9.77186 30.9524 10.2506 31.2934 10.7744 31.5476C12.0844 32.16 13.5507 32.3359 14.9647 32.0499" fill="#FFF8EE"/>
</svg>
