<?xml version="1.0" encoding="utf-8"?>
<!-- Generator: Adobe Illustrator 25.4.1, SVG Export Plug-In . SVG Version: 6.00 Build 0)  -->
<svg version="1.1" id="Capa_1" xmlns="http://www.w3.org/2000/svg" xmlns:xlink="http://www.w3.org/1999/xlink" x="0px" y="0px"
	 width="351.6622009px" height="307.0310974px" viewBox="0 0 351.6622009 307.0310974"
	 style="enable-background:new 0 0 351.6622009 307.0310974;" xml:space="preserve">
<style type="text/css">
	.st0{fill:#BA70A1;}
	.st1{fill:#9CD7C6;}
	.st2{fill:#F3AC5F;}
	.st3{fill:#C9435D;}
	.st4{fill:#80B957;}
	.st5{opacity:0.839996;}
	.st6{clip-path:url(#SVGID_00000150808835733657398300000007313057672929145514_);}
	.st7{fill:#4F8F93;}
	.st8{fill:#DB8080;}
	.st9{fill:#A7CDD6;}
	.st10{fill:#E7BC2F;}
	.st11{fill:#AFD697;}
	.st12{fill:#9ABC5B;}
	.st13{fill:#F2D251;}
	.st14{fill:#78AE3F;}
	.st15{clip-path:url(#SVGID_00000085940825993707403230000005907731776356488078_);}
	.st16{opacity:0.210007;}
	.st17{clip-path:url(#SVGID_00000047036721045850415900000006530575295649335710_);}
	.st18{clip-path:url(#SVGID_00000029003618167558157540000013045619903923018686_);}
	.st19{fill:#FFFFFF;}
	.st20{fill:none;stroke:#128180;stroke-width:0.7901185;stroke-miterlimit:10;}
	.st21{fill:#128180;}
	.st22{fill:#F48182;}
	.st23{fill:none;stroke:#128180;stroke-width:1.042774;stroke-miterlimit:10;}
</style>
<g>
	<path class="st0" d="M202.9421997,18.9226894c0,0,1.6799927-8.250001-4.7900085-10.7399988
		C198.1521912,8.1826906,194.3621826,14.32269,202.9421997,18.9226894"/>
	<path class="st1" d="M178.4122009,18.4526882c5.3699951-3.8600016,14.3099976-17.1800003,2.5400085-13.2600031
		c-0.6400146,0.2099991,0.0599976,0.7699966,0,0c-0.3399963-4.3099976-7.5100098-13.3800011-5.25,11.71
		C175.8322144,18.4226818,177.2922058,19.2626858,178.4122009,18.4526882"/>
	<path class="st2" d="M217.4522095,298.8327026c0,0,12.0499878,4.5499878,16-7.6300049
		C233.4522095,291.2026978,224.6122131,282.8927002,217.4522095,298.8327026"/>
	<path class="st3" d="M180.5622253,268.9627075c0,0-3.4299927,7,1.7900085,10.75
		C182.3522339,279.7127075,187.1822205,275.1127014,180.5622253,268.9627075"/>
	<path class="st4" d="M104.0822144,277.2026978c0,0-7.4499969-2.8299866-9.9299927,4.7000122
		C94.1522217,281.90271,99.6122284,287.0527039,104.0822144,277.2026978"/>
	<g class="st5">
		<g>
			<defs>
				
					<rect id="SVGID_1_" x="110.8005371" y="260.8381042" transform="matrix(0.008203 -0.9999664 0.9999664 0.008203 -145.3457794 396.2232056)" width="32.5400085" height="21.0899963"/>
			</defs>
			<clipPath id="SVGID_00000061457130956423927510000010287203164148462734_">
				<use xlink:href="#SVGID_1_"  style="overflow:visible;"/>
			</clipPath>
			<g style="clip-path:url(#SVGID_00000061457130956423927510000010287203164148462734_);">
				<path class="st3" d="M122.1022186,286.9725952c10-7.3200073,26.6699982-30.9200134,4.8699951-22.8600159
					c-1.1900024,0.4400024,0.1000061,1.3399963,0,0c-0.5099945-7.5100098-13.3500061-23.2699738-9.8300018,20.4299927
					c-0.0005493,1.7065735,1.382431,3.0904541,3.0890045,3.0910034c0.6931,0.0002136,1.3661499-0.2325745,1.9109955-0.6610107"/>
			</g>
		</g>
	</g>
	<path class="st7" d="M202.7922058,300.6626892c0.2099915-6.4700012-4.2200012-20.9400024-7.8399963-9.2000122
		c-0.2000122,0.6400146,0.5700073,0.3599854,0,0c-3.1700134-2-13.3200073-1,5.3099976,10.5899963
		c0.7504578,0.4972229,1.7619019,0.2919312,2.2590942-0.4585266c0.1827698-0.2757874,0.2772522-0.6006775,0.2709045-0.931488"/>
	<path class="st8" d="M279.9022217,261.9927063c-4.4700012-2.3200073-19.1600037-7.780014-8.1400146,3.9100037
		c0.4100037,0.4400024,0.4400024-0.3999939,0,0c-4.7399902,4.3500061-4,10.8200073,8.4599915-1
		c0.744873-0.7312317,0.7559509-1.9278564,0.0247192-2.67276c-0.1036377-0.1055908-0.2193604-0.1986389-0.3447266-0.2772522"/>
	<path class="st8" d="M261.0422058,265.1326904c0.2264709-1.473877,1.6048584-2.4851074,3.0787354-2.2586365
		s2.4850769,1.6048584,2.2586365,3.0787354c-0.2034912,1.3243713-1.3474731,2.2991638-2.6873779,2.2898865
		C262.1018677,268.1152039,260.9156494,266.723114,261.0422058,265.1326904"/>
	<path class="st9" d="M271.0722046,84.7026901c3.0899963-2.8200073,11.9299927-12.4799957,0.7000122-6.5099945
		c-0.4200134,0.2200012,0.0700073,0.3800049,0,0c-0.8500061-4.1399994-5.0499878-4.6900024-2.6099854,6.25
		c0.1799927,0.7599945,1.2000122,0.9100037,1.9100037,0.2599945"/>
	<path class="st9" d="M106.0622101,255.3126678c0.4600067-4.1700134,0.7400055-17.25-3.7700043-5.3599854
		c-0.1699982,0.4400024,0.3099976,0.2399902,0,0c-3.3699951-2.5499878-6.8899994-0.2000122,2.1600037,6.4100189
		c0.6399994,0.4599915,1.5099945-0.1000061,1.6100006-1.0500031"/>
	<path class="st0" d="M184.3622131,305.8427124c-0.1099854-0.2399902-2.3599854-5.2999878-7.6900024-6.7600098
		c0.3299866,0.1000061,1-0.230011,1.2900085-0.3599854c0.478302-0.2034912,0.9313354-0.4619141,1.3500061-0.769989
		c0.4010925-0.2896729,0.7669373-0.6252747,1.0899963-1c0.6451721-0.9095154,0.5305481-2.1536865-0.269989-2.9299927
		c-1.0899963-1.3699951-2.8500061-0.8800049-4.1600037-0.2200012c-0.6259766,0.339447-1.2244568,0.7272949-1.7900085,1.1600037
		c0,0,2-7.75-2-6.7900085c-2.2400055,0.5400085-1.8899994,3.230011-1.1799927,5.2000122
		c0.3200073,0.8599854,0.7399902,1.6600037,1.1300049,2.5100098c-1.1045837-1.9868164-2.5894775-3.7367249-4.3699951-5.1499939
		c-0.6060486-0.5195923-1.4165497-0.7332764-2.1999969-0.5799866c-0.6365509,0.2757263-1.1442719,0.7834473-1.4199982,1.4200134
		c-0.3045654,0.5608826-0.4562988,1.1919556-0.4400024,1.8299866c0.1326599,1.2435913,0.8393402,2.3535767,1.9100037,3
		c1.6237488,1.1372375,3.6141815,1.6259155,5.5799866,1.3699951c-0.8878174,0.2998657-1.7192688,0.7460327-2.4600067,1.3200073
		c-0.6967926,0.4284668-1.3498993,0.9241638-1.9499969,1.480011c-1.1100006,1.0599976-1.2700043,2.269989,0.2200012,3
		c0.0903625,0.0515137,0.1882019,0.088623,0.2899933,0.1099854h0.0500031
		c0.4447021,0.2017517,0.9225769,0.3203735,1.4100037,0.3500061c2.5400085,0.0899963,2.9400024-3.0899963,3.75-3.6400146
		c-0.1590881,1.5553589-0.019928,3.1268005,0.4100037,4.6300049c0.0700073,0.1600037,0.1400146,0.3099976,0.2000122,0.4599915
		c0.1550598,0.4149475,0.4434814,0.7666626,0.8200073,1c0.7399902,0.3800049,1.3800049,0,2.0499878-0.3699951
		c0.1512756-0.0820923,0.2867126-0.1904602,0.3999939-0.3200073c0.6000061-0.6099854,1.4299927-2.1900024-1.0700073-5.3999939
		c5.2600098,1.1499939,7.5599976,6.3299866,7.5899963,6.3900146c0.067627,0.148468,0.2168579,0.2427368,0.3800049,0.2399902
		c0.0392151,0.0111084,0.08078,0.0111084,0.1199951,0c0.1563416-0.0075989,0.3080139-0.0558777,0.4400024-0.1400146
		c0.3669128-0.161499,0.5711365-0.5574036,0.4899902-0.9500122 M172.0322266,297.9327393
		c0.0317688-0.528717,0.4703369-0.9409485,1-0.9400024c0.5522766,0,1,0.4477234,1,1s-0.4477234,1-1,1s-1-0.4477234-1-1"/>
	<path class="st10" d="M295.2322083,76.6626968c0,0,1.25-17.1300087-12.1700134-19.7400093
		C283.0621948,56.9226875,277.1221924,70.6126938,295.2322083,76.6626968"/>
	<path class="st11" d="M149.1522064,304.1227112c0,0-0.1699982-14.0700073-11-14.4700012
		C138.1522064,289.65271,134.3822021,301.5427246,149.1522064,304.1227112"/>
	<path class="st8" d="M68.242218,79.8926926c0.7200012-6.8200073,0.5599976-28.760006-8.1499977-10.6399994
		c-0.3300018,0.6699982,0.6499939,0.5299988,0,0c-7.1600037-5.7500038-14.3500061-3.2899933,4.8600044,11.7299957
		C66.2922211,82.032692,68.0722198,81.4526901,68.242218,79.8926926"/>
	<path class="st8" d="M236.5522156,29.0426846c3.3099976-13.6800013,4.7099915-41.6199989-7.6799927-18.2099991
		c-0.6799927,1.2799988,1,1,0,0c-5.3599854-5.6900024-29.5499878-12.6100006,2.0599976,20.0800018
		C232.8422241,32.9126854,235.8622131,31.9126873,236.5522156,29.0426846"/>
	<path class="st2" d="M226.2122192,73.2226944c-0.1385498,1.2737885-1.2834778,2.1940765-2.5572815,2.0555115
		c-1.2737732-0.1385498-2.1940613-1.2834778-2.0555115-2.5572662c0.1254272-1.1531525,1.0832825-2.0364532,2.2427979-2.0682526
		C225.1970215,70.7279282,226.2467346,71.8662491,226.2122192,73.2226944"/>
	<path class="st9" d="M184.9421997,44.2026863c0,0,10.1000061,6.1299973,10.3500061-1c0,0,1.2600098-6.7900009-10.9200134-2.75
		c1-0.3899994,14.5299988-5.8700027,9.75-11.6699963c-5-6-11.4100037,3.3700008-11.9100037,9.3299999
		c-0.0899963-0.6399994-2.1400146-15.3999996-6.4299927-9.1499996s1.6799927,8.6299953,2.2399902,10.489996
		c0,0-11.5500031-3.9400024-9.3899994,3.9100037c0,0,0.8300018,5.1100006,8.3100128,0.9000015
		c-1.9144897,4.31604-5.3439331,7.7810822-9.6399994,9.7399979c-0.7673492,0.3807373-1.5715027,0.6822968-2.3999939,0.9000015
		c-0.4700012,0.1200027-0.7200012,0.8199997-0.5599976,1.5699997c0.0581055,0.2873688,0.1812592,0.5576019,0.3600006,0.7899933
		c0.1670074,0.2686768,0.4766693,0.4137115,0.7899933,0.3699951c2.230423-0.639801,4.3272705-1.6763763,6.1899872-3.0599976
		c2.7125854-1.9704514,4.8999329-4.5767288,6.3699951-7.5899963c-0.3475647,3.0201263,0.6424255,6.0412827,2.7099915,8.2700043
		c0,0,8.25,1.1999969,4.1799927-11.0899963 M181.6622009,42.4526863c-0.8753662-0.08284-1.5178528-0.8596191-1.4349976-1.734993
		c0.0828247-0.8753738,0.8596191-1.5178452,1.7349854-1.4350052c0.885376,0.0845871,1.5395203,0.8633041,1.4700012,1.75
		c-0.0938721,0.8786545-0.8822327,1.5148544-1.7608948,1.4209976
		C181.6682434,42.4533577,181.6652222,42.4530296,181.6622009,42.4526863"/>
	<path class="st12" d="M78.8022156,77.7726974c5-7.1499939,4.8500061-5.4299927,4.8500061-5.4299927
		c-1.5700073,1.1600037-3.1000061,4-4,5.8800049c1.9400024,0.1399994,6.6999969-0.4600067,6.5800018-9.8500061
		c0,0-8.1699982,1.1999969-7.4100037,9.3999939"/>
	<path class="st13" d="M259.1822205,80.8226852l-5.1199951-10.3699951c1.6282654-1.3797302,2.9238586-3.109436,3.7900085-5.0599976
		c3.0499878-6.8300056,0.4599915-14.7800026-5.7799988-17.7500038s-13.7900085,0.1500015-16.8399963,7
		c-3.0499878,6.8500061-0.4599915,14.7800026,5.7900085,17.7500038c3.4366455,1.6135559,7.4389038,1.4796448,10.7600098-0.3600006
		l5,10.2100067c0.2981873,0.6226349,1.0446472,0.8856506,1.6672974,0.5874634
		c0.0421448-0.0201721,0.0830994-0.0426941,0.1227112-0.0674591c0.2556763-0.1562195,0.4579163-0.3863678,0.5799866-0.6600037
		c0.1897888-0.4055634,0.1897888-0.8744354,0-1.2799988 M252.5122375,68.6626968
		c-0.7952576,0.7505798-1.6986389,1.3775482-2.6799927,1.8600006v0.0500031
		c-0.8413696,0.3850708-1.7236633,0.673584-2.6300049,0.8600006l0,0c-1.6010132,0.302063-3.2562256,0.1030121-4.7399902-0.5700073
		c-0.789032-0.3565979-1.5124817-0.8433838-2.1400146-1.4400024c-0.6733093-0.6344452-1.219696-1.3912354-1.6099854-2.2299957
		c-0.7891846-1.8020782-0.9442749-3.8184242-0.4400024-5.720005c0.4970398-1.9476013,1.6129761-3.6811829,3.1799927-4.9400024
		c1.538208-1.251442,3.5752563-1.7069931,5.5-1.2300034c0.8750305,0.2542343,1.6680603,0.7335129,2.2999878,1.390007
		c0.6851807,0.697464,1.1420593,1.5868073,1.3099976,2.5500031c0.3473206,1.9315491-0.3344116,3.9047852-1.8000183,5.2099953
		c-0.5281067,0.4945068-1.3571167,0.4672699-1.8516235-0.0608521c-0.0238342-0.0254517-0.0466614-0.0518646-0.0683899-0.0791473
		c-0.4489746-0.6341743-0.3310547-1.5075722,0.269989-2.0000038c0.6373596-0.611496,0.9295959-1.4994965,0.7799988-2.3699951
		c-0.084137-0.4414062-0.2962646-0.8482971-0.6099854-1.1699982c-0.3294983-0.3460388-0.7428894-0.6009674-1.2000122-0.7400055
		c-1.0749207-0.2473602-2.2038269,0.0145721-3.0599976,0.7100067c-1.033844,0.8257904-1.7623596,1.973114-2.0700073,3.2599945
		c-0.3414612,1.25914-0.2390442,2.5974617,0.2900085,3.7899971c0.2306519,0.5437164,0.571106,1.0339508,1,1.4400024
		c0.4320984,0.4160461,0.9328003,0.7543488,1.480011,1c1.1172791,0.473465,2.3530579,0.5921478,3.5400085,0.3399963
		c1.2964478-0.3149719,2.4866638-0.96698,3.4500122-1.8899994c1.9663086-1.9713745,3.0488281-4.6560707,3-7.4400063
		c-0.0308533-1.2768402-0.355957-2.5293427-0.9500122-3.6600037c-0.568512-1.0141296-1.370697-1.8780289-2.3399963-2.5199966
		c-1.9008179-1.2495193-4.2497559-1.6142654-6.4400024-1c-2.1799927,0.5899963-3.7000122,2.2900009-4.9200134,4.2099991
		c-0.38974,0.6291199-1.2156982,0.8231506-1.8448181,0.4334106c-0.6291199-0.3897552-0.8231506-1.2157135-0.4334106-1.8448257
		c0.0059509-0.0096054,0.0120239-0.0191345,0.018219-0.0285873c1.6499939-2.5899963,3.7600098-4.7300034,6.6900024-5.5199966
		c2.3219299-0.6297455,4.7884521-0.4570923,7,0.4899979c0.5271912,0.2284012,1.0297852,0.5098495,1.5,0.8399963
		c1.3136902,0.8612289,2.3954468,2.0322723,3.1499939,3.4100037c0.7886658,1.4982681,1.2231445,3.157486,1.269989,4.8500061
		c0.0935364,3.6661682-1.3366089,7.2071266-3.9500122,9.7800026"/>
	<path class="st7" d="M211.492218,63.8026924c0.0255432,0.0640106,0.0591431,0.1244965,0.1000061,0.1799927v0.0600014
		l0.0700073-0.1400032l-0.2200012-0.1000061 M214.3622437,32.8026772
		c-14.1099854-0.4199982-9.2600098,27.8999939-9.2600098,27.8999939c0.0379028,0.0239563,0.0780945,0.0440674,0.1199951,0.0599976
		c-0.0111084-0.0392303-0.0111084-0.0807648,0-0.1199951c0.4400024-17.4799957,6.3800049-25.1800003,9.1600037-27.8399963
		 M211.8022461,64.1526871c-0.0703125-0.040451-0.1343384-0.0909729-0.1900024-0.1499939l-1.7000122,3.3999939l-4.5500183-2.3199921
		l1.5799866-3.470005c0.5100098,0.25,1,0.5099945,1.5299988,0.75l0,0c2.1799927-9.6500015,10-26.4000015,10.9200134-28.4100037
		c-0.9300842-0.3663864-1.8904114-0.6508026-2.8699951-0.8499985c-8.8699951,10.6800003-9.8399963,27.3199997-9.8500061,27.4899979
		c-0.0117798,0.3577728-0.2139282,0.6819611-0.5299988,0.8500061l-1.4700012,3.4400063
		c-0.3339844,0.023407-0.6288757,0.2263947-0.769989,0.5299988l-1.6900024,3.5899963
		c-0.265625,0.4842072-0.0884399,1.0920715,0.395752,1.3577118c0.0210266,0.0115204,0.04245,0.0222931,0.0642395,0.0322876
		l5.1099854,2.3699951c0.4472046,0.2040253,0.9750977,0.006897,1.1791382-0.4402924
		c0.0074463-0.0163574,0.0144043-0.0329285,0.020874-0.0497131l1.5100098-3.4199982
		c0.1305542-0.2937317,0.111969-0.6323395-0.0499878-0.9100037l1.8999939-3.6799927
		c-0.1714783,0.0453339-0.3537598,0.0238953-0.5100098-0.0599976 M220.6422119,34.4526863
		c-2.9200134,9.1800003-10.8299866,28.1300049-10.9100037,28.3200073c-0.0206604,0.0498505-0.0475159,0.0968933-0.0799866,0.1399994
		l1.8399963,0.8800049c-0.1237488-0.3430481-0.0509338-0.7262421,0.1900024-1
		c0.1199951-0.1100006,11.1700134-11.3300018,11.9500122-25.4899979c0.0097046-0.2400513,0.1139526-0.4665146,0.2900085-0.6299973
		c-1.0213318-0.8324814-2.1195984-1.5657959-3.2799988-2.1900024 M211.4922485,63.8226967
		c0.0255432,0.0640106,0.0591431,0.1244965,0.1000061,0.1799965v0.0599976l0.0700073-0.1400032l-0.2200012-0.1000061
		 M225.3622131,37.9826851c0.3999939,3.1500015,0.519989,13.75-12.6300049,26.0800056
		c-0.0761414,0.0761414-0.1684265,0.1342316-0.269989,0.1699982l0.1799927,0.0899963
		C212.6422119,64.3226852,235.4622192,49.0826836,225.3622131,37.9826851 M211.5422058,63.8026924
		c0.0255432,0.0640106,0.0591431,0.1244965,0.1000061,0.1799927v0.0600014l0.0700073-0.1400032l-0.2200012-0.1000061
		 M211.492218,63.8026772c0.0255432,0.0640106,0.0591431,0.1244965,0.1000061,0.1799927v0.0600014l0.0700073-0.1400032
		l-0.2200012-0.1000061 M211.4422302,63.8026619c0.0255432,0.0640106,0.0591431,0.1244965,0.1000061,0.1799927v0.0600014
		l0.0700073-0.1400032l-0.2200012-0.1000061 M212.2622375,64.2126541L212.2622375,64.2126541h0.0700073h-0.0499878
		 M223.8422546,36.6526527l1.3900146,1.3300018C224.8059082,37.502224,224.3410339,37.057415,223.8422546,36.6526527"/>
	<path class="st14" d="M274.5922241,44.1526833l1.4400024-1.6600037c0.0350952-0.0438385,0.0350952-0.106163,0-0.1500015
		l-17.9100037-18.2099895c-0.0388794-0.0381241-0.1011353-0.0381241-0.1400146,0l-2.3399963,2.7099991
		c-0.979187-1.9288177-1.8472595-3.912056-2.6000061-5.9400024c-1.3500061-4.1900024-3.8599854-0.3899994-3.8599854-0.3899994
		c-3-1.4899979-1.8299866,3.2200012-1.8299866,3.2200012c-3.9400024,2.1999969,2.9200134,5.6699982,5.1799927,6.7099991
		l-1.8999939,2.199995c-0.0350952,0.0438385-0.0350952,0.106163,0,0.1500015l17.9100037,18.1999969
		c0.0388794,0.0381241,0.1011353,0.0381241,0.1400146,0l1.8599854-2.1699982
		c0.8500061,1.9000015,1.5899963,3.8899994,1.5899963,3.8899994c1.3599854,4.1999969,3.8599854,0.4000015,3.8599854,0.4000015
		c3,1.4800034,1.8399963-3.2200012,1.8399963-3.2200012c3.1000061-1.7300034-0.480011-4.25-3.25-5.75"/>
	<path class="st11" d="M263.7221985,29.8426876l-12,4.0799999l-0.1499939-0.1500015
		c-0.5738525-0.5890198-0.5999451-1.5197525-0.0599976-2.1399975l0.3599854-0.4100037l9.8699951-3.3700027L263.7221985,29.8426876z"
		/>
	<polygon class="st11" points="268.1921997,34.3726845 256.2122192,38.4626884 254.2522278,36.472683 266.2322083,32.3926888 	"/>
	<polygon class="st11" points="272.8622131,39.11269 260.8822021,43.1926842 258.9222107,41.2026863 270.9022217,37.1226845 	"/>
	<path class="st11" d="M274.012207,44.8326836l-8.6499939,2.9400024l-2-2l11.8900146-4
		c0.3187256,0.5759125,0.2470093,1.2890701-0.1799927,1.7900009L274.012207,44.8326836z"/>
	<g class="st5">
		<g>
			<defs>
				
					<rect id="SVGID_00000110432014111006615200000011520540571938225810_" x="122.4222107" y="43.4126854" width="30.9400024" height="15.5300064"/>
			</defs>
			<clipPath id="SVGID_00000040561782574195356420000000624066914740960174_">
				<use xlink:href="#SVGID_00000110432014111006615200000011520540571938225810_"  style="overflow:visible;"/>
			</clipPath>
			<g style="clip-path:url(#SVGID_00000040561782574195356420000000624066914740960174_);">
				<path class="st3" d="M151.2222137,47.4526863c1.8000031-5.3000031-2.8200073-0.3600006-4.3000031,1.3000031
					c-0.2922211-0.4853058-0.6268616-0.9437637-1-1.3700027c-0.3402405-0.3982849-0.7042236-0.7756348-1.0899963-1.1299973
					c-0.5640564-0.517952-1.1769104-0.9801025-1.8300018-1.3799973c-0.6479645-0.4141235-1.3428345-0.7498093-2.0700073-1
					c-0.5843658-0.1980057-1.1875305-0.3353958-1.8000031-0.4100037c-0.8288574-0.10849-1.6698303-0.0814743-2.4900055,0.0800018
					c-0.6929779,0.1252747-1.3657837,0.3439331-2,0.6500015c-0.7034454,0.3377991-1.3563995,0.7719727-1.9400024,1.2900009
					c-0.1300049,0.0999985-0.25,0.2099991-0.3600006,0.3099976l-0.0599976,0.0599976
					c-0.8279724,0.7570496-1.5510406,1.6213684-2.1499939,2.5699997c-0.3558655,0.5681076-0.673233,1.1594315-0.9499969,1.7699966
					c-0.1499939,0.3300018-0.2899933,0.6600037-0.4199982,1c0,0-0.0500031,0.1200027-0.0800018,0.1999969l-4.8800049-1.8899994
					c-2.6900024-0.3700027,0,3.0599976,0,3.0599976c-3.6499939,2,0.6799927,2.7699966,0.6799927,2.7699966
					c-1.9400024,5.7200012,3.5800018-0.4800034,4.5800018-1.6200027c0.1300049,0.2099991,0.2700043,0.4100037,0.4199982,0.6100006
					s0.4400024,0.5599976,0.6499939,0.8000031s0.3800049,0.4100037,0.5800018,0.6100006
					c0.671051,0.6588211,1.4121246,1.2422867,2.2100067,1.7399979c0.5745392,0.3583069,1.1844177,0.6565399,1.8200073,0.8899994
					c0.513916,0.201889,1.0464935,0.3526154,1.5899963,0.4499969c0.5276489,0.0955658,1.0642395,0.1324463,1.6000061,0.1100006
					c0.4384155-0.0066528,0.8746185-0.0636902,1.3000031-0.1699982c0.8158875-0.1909637,1.598114-0.5045319,2.3200073-0.9299927
					c0.6112518-0.3455048,1.1844177-0.754425,1.7100067-1.2200012l0.3999939-0.3600006
					c1.4577637-1.3562775,2.6011658-3.0150604,3.3500061-4.8600006l4.8500061,1.8700027
					c2.6799927,0.3700027,0-3.0599976,0-3.0599976c3.6499939-2-0.6799927-2.7699966-0.6799927-2.7699966"/>
			</g>
		</g>
	</g>
	<path class="st8" d="M144.8722076,46.2426872c0,2.8700027-0.4499969,7.7600021-3.2400055,11.5999985
		c-0.7218933,0.4254608-1.5041199,0.7390289-2.3200073,0.9299927c-0.4253845,0.106308-0.8615875,0.1633453-1.3000031,0.1699982
		c5.1799927-4,5.1799927-11.6500015,5-14.0800018c0.6530914,0.3998947,1.2659454,0.8620453,1.8300018,1.3799973"/>
	<path class="st8" d="M140.9722137,43.8926888c-0.3500061,4.3899994-1.6999969,10.3799973-6.1499939,14.4900055
		c-0.6364441-0.2314301-1.2465363-0.5297699-1.8200073-0.8899994c4.5599976-3.7399979,5.8699951-9.7399979,6.1699982-14
		c0.6124725,0.0746078,1.2156372,0.211998,1.8000031,0.4100037"/>
	<path class="st8" d="M136.6822205,43.5626869c-0.7012482,4.5605698-2.7527771,8.8064499-5.8899994,12.1900024
		c-0.1999969-0.1999969-0.3899994-0.4000015-0.5800018-0.6100006s-0.4400024-0.5199966-0.6499939-0.8000031
		c2.6136627-2.8360977,4.3864594-6.3436279,5.1199951-10.1299973
		C135.3164368,43.90662,135.9892426,43.6879616,136.6822205,43.5626869"/>
	<path class="st13" d="M85.692215,258.5827026c0.1899567-0.6342468,0.3270874-1.2831421,0.4100037-1.9400024
		c0.0745087-0.6239929,0.1145782-1.2516327,0.1199951-1.8800201c0.0049744-0.9316101-0.0719757-1.8618774-0.2299957-2.7799988
		c-0.1541901-0.9260864-0.4021301-1.8340759-0.7400055-2.7099915c-0.2679749-0.6973877-0.6028748-1.3671875-1-2
		c-0.5189056-0.8661804-1.1624756-1.6512451-1.9100037-2.3299866c-0.6020355-0.5639343-1.274231-1.0479126-2-1.4400024
		c-0.7822418-0.4230347-1.6206207-0.7327881-2.4900055-0.9200134l-0.4899902-0.1300049H77.262207
		c-1.2120667-0.2344666-2.4521484-0.2883911-3.6799927-0.1600037c-0.7231293,0.0742188-1.4388885,0.2080078-2.1399994,0.3999939
		c-0.3800049,0.0899963-0.7599945,0.2099915-1.1399994,0.3299866l-0.2100067,0.0700073l-2.0700073-6.0799866
		c-1.6799927-2.8599854-2.4700012,2.3099976-2.4700012,2.3099976c-4.2800026-2.0799866-1.7500038,2.6900024-1.7500038,2.6900024
		c-6.1000061,2.3699951,3.0000038,3.0899963,4.7000008,3.2000122c-0.0700073,0.2799988-0.1300049,0.5700073-0.1799927,0.8599854
		s-0.1300049,0.8299866-0.1799927,1.2200012s0,0.6600037-0.0700073,1c-0.0383453,1.1411133,0.0353546,2.2832642,0.2200012,3.4100037
		c0.1273956,0.8216553,0.3350525,1.6288757,0.6199951,2.4100037c0.2103119,0.6443176,0.4815369,1.2671204,0.8099976,1.8599854
		c0.3047028,0.5772247,0.670105,1.120285,1.0899963,1.6200104c0.3270264,0.4070129,0.6920013,0.7820435,1.0899963,1.1199951
		c0.7419128,0.633667,1.5744629,1.1527405,2.4700012,1.5400085c0.7275848,0.3283081,1.4887238,0.576416,2.2700043,0.7399902
		l0.5800018,0.1199951c2.1505432,0.4074402,4.368042,0.2838745,6.4600067-0.3599854l2,6
		c1.6900024,2.8500061,2.4700012-2.3099976,2.4700012-2.3099976c4.2899933,2.0700073,1.7599945-2.7000122,1.7599945-2.7000122
		c5.6499939-2.1900024-1.7899933-3-4.2400055-3.1600037"/>
	<path class="st2" d="M86.2222137,254.7626801c-2.3399963,2.1300201-6.6600037,5.3000031-11.8699951,5.4700165
		c-0.8955383-0.3872681-1.7280884-0.9063416-2.4700012-1.5400085c-0.397995-0.3379517-0.76297-0.7129822-1.0899963-1.1199951
		c7.0700073,2,13.3300018-3.6500092,15.1999969-5.5900116C86.150238,252.9008026,86.2271881,253.8310699,86.2222137,254.7626801"/>
	<path class="st2" d="M85.2522125,249.2726898c-3.8399963,2.9200134-9.7299957,6.0499878-16.3699951,4.8099976
		c-0.2781982-0.7790833-0.4824371-1.5826111-0.6100006-2.3999939c6.4199982,1.6099854,12.2799988-1.5700073,16-4.4400024
		c0.3932648,0.6349792,0.7279816,1.3044128,1,2"/>
	<path class="st2" d="M81.1822205,243.9726715c-3.5,1.9200134-8.2100067,3.6600037-13.1199951,3.0499878
		c0-0.2900085,0-0.5599976,0.0700073-0.8399963c0.0325165-0.3357239,0.0825958-0.6695251,0.1499939-1
		c3.8000183,0.3462524,7.6192627-0.4106445,11-2.1799927c0.6499176,0.3008118,1.2840729,0.6345825,1.8999939,1"/>
	<path class="st9" d="M212.5522156,268.1026917c2.0364685-3.6799927,1.9410095-8.1698914-0.25-11.7600098
		c-2.6611328-4.5665741-8.5203247-6.1112518-13.0868835-3.450119c-0.2941284,0.1713867-0.5789185,0.3583679-0.8531189,0.5601196
		c-0.5624695,0.4132996-1.0817566,0.8823547-1.5499878,1.3999939c-1.0206299-1.6711426-1.9422302-3.4007874-2.7600098-5.1799927
		c-1.5299988-3.730011-3.5700073,0-3.5700073,0c-2.8599854-1.1099854-1.4599915,3.1099854-1.4599915,3.1099854
		c-3.7000122,2.5,4,5.3100128,5.5899963,5.8500214c-1.1790771,3.3207397-0.7931213,6.996582,1.0499878,10
		c2.6828308,4.5474243,8.5441284,6.0589905,13.0915527,3.3761597c0.2890625-0.1705322,0.5689392-0.3561707,0.8384705-0.5561523
		c0.1400146-0.1000061,0.2600098-0.2200012,0.3999939-0.3200073c1.2695007,1.8669434,2.3736877,3.841095,3.2999878,5.8999939
		c1.5299988,3.7399902,3.5700073,0.0499878,3.5700073,0.0499878c2.8500061,1.1099854,1.4500122-3.1099854,1.4500122-3.1099854
		c3.8599854-2.6099854-4.6900024-5.5599976-5.7600098-5.9100037"/>
	<g class="st16">
		<g>
			<defs>
				
					<rect id="SVGID_00000177453933356374084420000016311955869511620008_" x="202.4326935" y="253.6351776" transform="matrix(0.008203 -0.9999664 0.9999664 0.008203 -53.6927299 461.675354)" width="6.9200134" height="8.5400085"/>
			</defs>
			<clipPath id="SVGID_00000044143259415446671530000015797338037986601660_">
				<use xlink:href="#SVGID_00000177453933356374084420000016311955869511620008_"  style="overflow:visible;"/>
			</clipPath>
			<g style="clip-path:url(#SVGID_00000044143259415446671530000015797338037986601660_);">
				<g>
					<defs>
						
							<rect id="SVGID_00000071544793846299079150000006718835257568895622_" x="202.4326935" y="253.6351776" transform="matrix(0.008203 -0.9999664 0.9999664 0.008203 -53.6927414 461.6753845)" width="6.9200134" height="8.5400085"/>
					</defs>
					<clipPath id="SVGID_00000026142415294273916910000004897780187947327397_">
						<use xlink:href="#SVGID_00000071544793846299079150000006718835257568895622_"  style="overflow:visible;"/>
					</clipPath>
					<g style="clip-path:url(#SVGID_00000026142415294273916910000004897780187947327397_);">
						<path class="st19" d="M205.4222107,261.3126831c-2.3399963-0.3900146-4-2.2200012-3.7600098-4.0899963
							s2.3900146-3.0700073,4.730011-2.6799927s4,2.230011,3.7600098,4.1000061s-2.3900146,3.0700073-4.730011,2.6700134"/>
					</g>
				</g>
			</g>
		</g>
	</g>
	<path class="st19" d="M251.0722046,239.3226776v-73.519989c0.0279541-0.4907379-0.3471985-0.9112244-0.8379517-0.9391785
		c-0.0949707-0.0054169-0.1901855,0.0044403-0.2820435,0.0291748l-11.5400085,3.7100067
		c-0.5544434,0.1942749-0.9214478,0.7226105-0.9100037,1.3099976v18.780014
		c-1.5784302-0.7613831-3.2215881-1.3804932-4.9100037-1.8500061c-2.3168335-0.6107178-4.704071-0.9133301-7.1000061-0.8999939
		c-3.7594604-0.0270691-7.4906616,0.6513062-11,2c-3.3271179,1.3170166-6.3392639,3.3205566-8.8399963,5.8800049
		c-2.5555115,2.6522827-4.527771,5.8099365-5.7900085,9.269989c-1.3605042,3.7144775-2.0380859,7.6443787-2,11.6000061
		c-0.0238953,3.4216614,0.4717407,6.8271179,1.4700012,10.1000061c0.9068909,2.9949341,2.3614807,5.7956848,4.2900085,8.2600098
		c1.8843384,2.3700562,4.2764282,4.2871094,7,5.6099854c2.7690735,1.3544922,5.817627,2.0395813,8.8999939,2
		c4.1077576,0.0316467,8.1438599-1.0760498,11.6600037-3.2000122c2.4510193-1.4926453,4.7052307-3.2866211,6.7099915-5.3399963
		l2.2600098,3.8200073l2.3500061,3.9400024h8.0700073c0.3109436-0.0161743,0.5513611-0.2788391,0.5400085-0.5899963
		 M237.5422058,206.3426971c-0.0678101,3.0573425-0.6807556,6.0780334-1.8099976,8.9200134
		c-1.0617981,2.7070312-2.5358887,5.233551-4.3699951,7.4899597c-1.54953,1.9176025-3.4290466,3.5430908-5.5499878,4.7999878
		c-1.5692444,0.9960632-3.3816833,1.5425415-5.2399902,1.5799866c-1.2149658,0.0313416-2.4162903-0.262085-3.480011-0.8500061
		c-1.0891724-0.6130981-2.0257874-1.4642639-2.7399902-2.4899902c-0.9162903-1.3616333-1.5927429-2.8700867-2-4.4599915
		c-0.5643921-2.1059265-0.8336487-4.2799988-0.7999878-6.4599915c-0.0385132-2.5519409,0.3294067-5.09375,1.0899963-7.5299988
		c0.6089478-1.9683533,1.5900269-3.8015137,2.8900146-5.3999939c1.1556702-1.3868408,2.6127014-2.4915771,4.2600098-3.230011
		c1.8694153-0.8254395,3.8968811-1.2315979,5.9400024-1.1900024c1.4450989-0.0111084,2.8839111,0.1910706,4.269989,0.6000061
		c1.3364868,0.4083557,2.629425,0.9476318,3.8599854,1.6099854c1.0750122,0.6239624,2.1072998,1.3188477,3.0899963,2.0799866
		c0.2000122,0.1700134,0.3999939,0.3200073,0.5599976,0.4700012L237.5422058,206.3426971z"/>
	<path class="st19" d="M316.4822083,172.1326752c-0.0704651-0.0483704-0.1545715-0.0729065-0.2399902-0.0700073h-10.1199951
		c-0.519989,0-3.5100098,0.3099976-3.7399902,0.8200073l-1,2.4199982l-11.7900085,28.4300079l-13.0299988-29.2799988
		c-0.3415527-0.7084351-0.866333-1.3126373-1.519989-1.75l0,0l-0.1000061-0.0599976
		c-0.6185303-0.3841705-1.3318481-0.5884705-2.0599976-0.5899963h-10c-0.3666077,0.0011902-0.7209167,0.1322784-1,0.3699951
		c-0.4202271,0.360199-0.6614685,0.8865204-0.6600037,1.4400024c0.0044556,0.2837219,0.0692139,0.5632477,0.1900024,0.8200073
		l20.6700134,42.519989c-1.8800049,0.1199951-3.8500061,0.3399963-5.9200134,0.6300049
		c-2.1889954,0.3252563-4.3562927,0.7827454-6.4899902,1.3699951c-2.2619324,0.5960388-4.4367981,1.4834595-6.4700012,2.6400146
		c-0.1799927,0.0899963-0.3299866,0.2000122-0.5100098,0.3099976l-3.1400146,2.5599976
		c-0.4814453,0.3964844-0.9235229,0.838562-1.3200073,1.3200073l-0.2999878,0.3800049
		c-1.7038574,2.2584839-2.6048279,5.0212402-2.5599976,7.8500061c-0.03479,2.4237671,0.7276306,4.7918396,2.1700134,6.7399902
		c1.1266479,1.4620056,2.5385437,2.6799622,4.1499939,3.5799866c1.5057068,0.8078918,3.1287231,1.3747864,4.8099976,1.6799927
		c1.388092,0.2633362,2.7971802,0.4005432,4.2099915,0.4100037l0,0c3.1395569,0.0377502,6.2208252-0.8490906,8.8599854-2.5499878
		c2.3361206-1.5472412,4.4005737-3.4697876,6.1099854-5.6900024c1.6560364-2.1472778,3.1089478-4.4438171,4.3399963-6.8599854
		c0.5899963-1.1499939,1.1700134-2.269989,1.7000122-3.3599854c0.3785706,0.0132751,0.7559814,0.0500183,1.1300049,0.1099854
		c1.5291748,0.1673279,3.0457458,0.4345703,4.5400085,0.7999878l0.7000122,0.1600037
		c1.3968201,0.2929077,2.7579956,0.7354736,4.0599976,1.3200073c4.7200012,2.1499939,6.6400146-5.5299988,5.3800049-9.0700073
		c-0.6073608-1.6895142-2.1017456-2.9027405-3.8800049-3.1499939c-2.3500061-0.3900146-4.730011-0.3999939-7.0899963-0.7200012l0,0
		l0.4700012-1l1.7099915-3.7200012c1.6799927-3.6700134,3.3500061-7.3399963,5-11
		c3.3333435-7.4599915,6.6833191-14.9733276,10.0499878-22.5400085l0.9200134-2.0800018l2-4.4499969
		c0.1212463-0.2617035,0.0317688-0.5727234-0.2099915-0.7299957l0,0 M277.2722168,231.0826874
		c-1.0578003,1.3928223-2.3145752,2.6226501-3.730011,3.6499939c-0.8575745,0.664032-1.9154968,1.0166931-3,1
		c-0.4868469,0.043457-0.9695435-0.119873-1.3299866-0.4500122c-0.1099854-0.1300049-0.2900085-0.2900085-0.2900085-1
		c-0.0332947-0.4108276,0.0762024-0.8205566,0.3099976-1.1600037l0,0c0.2187195-0.3004761,0.4629517-0.5815125,0.730011-0.8399963
		l0,0l0,0l0,0c0.3122253-0.2739563,0.6467285-0.5214844,1-0.7399902c1.0906677-0.6765747,2.2548523-1.2268066,3.4700012-1.6400146
		c1.4250488-0.48349,2.8818665-0.8677368,4.3599854-1.1499939c0.0323486-0.0114441,0.0676575-0.0114441,0.1000061,0
		c-0.5599976,0.8500061-1.1400146,1.6600037-1.730011,2.4500122"/>
	<path class="st19" d="M189.3022156,179.1626892c-1.8778687-2.3498535-4.2463989-4.2610779-6.9400024-5.6000061
		c-2.7650146-1.3458405-5.8049927-2.0305328-8.8800049-2c-2.7351685-0.004837-5.4475861,0.4969635-8,1.4799957
		c-2.3881073,0.9334564-4.6359711,2.1919861-6.6799927,3.7400055c-1.1834259,0.9190979-2.2996063,1.9216614-3.3399963,3v-7.8099976
		c0.030426-0.5071869-0.3560638-0.9430084-0.863266-0.9734344c-0.1033936-0.0062103-0.2070923,0.0050964-0.3067322,0.033432
		l-10.9300079,3.4199982c-0.9101715,0.3312836-1.5116882,1.2014771-1.5,2.1699982v48.8300018h13.6100006l0,0
		c0.1485291,0.605835,0.2290192,1.2263184,0.2400055,1.8500061c0.0205078,0.855835-0.146759,1.7057495-0.4900055,2.4899902
		c0,0,0,0.0599976,0,0.1099854c-0.3855896,0.7895203-0.9343567,1.4882507-1.6100006,2.0499878
		c0,0-0.0800018,0.0700073-0.1100006,0.0799866c-0.0922394,0.0949707-0.2005768,0.1728516-0.3200073,0.230011
		c-0.7890015,0.5653687-1.6633911,1.000885-2.5899963,1.2900085c-1.4459686,0.436676-2.9496002,0.6524353-4.4600067,0.6400146
		c-2.0899963,0-6.1999969-0.480011-7.3800049-1.4500122c-1.466568-1.242218-2.6266632-2.8061218-3.3899994-4.5700073
		c-1.0428925-2.4147034-1.7462463-4.9622803-2.0899963-7.5700073c-0.4913483-3.1424866-0.7952118-6.3114014-0.9100037-9.4899902
		c-0.1300049-3.2200012-0.1499939-6.3500061-0.0800018-9.3200073c0.0800018-3.1199951,0.1199951-5.7999878,0.1199951-8
		c0.0957794-3.7676697-0.7679443-7.4978638-2.5099945-10.8399963c-0.4063873-0.7527771-0.857193-1.4807281-1.3500061-2.1799927
		l-2.2700043-2.6199951c-0.8747406-0.8554993-1.829071-1.6256561-2.8500061-2.3000031
		c-2.55159-1.6592255-5.3847351-2.838562-8.3600006-3.4799957c-2.8713989-0.651825-5.8055725-0.9871674-8.75-1
		c-1.9786987,0.023819-3.9533997,0.1842041-5.9100037,0.4799957c-2.3755951,0.3274689-4.6984406,0.9627991-6.9100037,1.8899994
		c-2.3881989,0.9995728-4.5384216,2.4921265-6.3099976,4.3800049c-2.2342072,2.4552002-3.4280701,5.6818542-3.3300018,9v2.0700073
		c-0.0394135,0.943573,0.6935577,1.7404785,1.6371307,1.7798767c0.0009613,0.0000305,0.0019073,0.0000916,0.0028687,0.0001221
		h10.1100006c1.0376587-0.036499,1.8492432-0.9072876,1.8127441-1.9449463
		c-0.0006409-0.0183411-0.0015564-0.0367126-0.0027466-0.0550537c0,0,1.6600037-8.3500061,13.6300049-6.8399963
		c1.4566193,0.1893921,2.8570099,0.6834412,4.1100006,1.4499969c2.0745544,1.2448883,3.316803,3.5115204,3.25,5.9300079
		c0,0.0599976-0.1199951,0.1199951-0.3099976,0.230011c-1.835968,0.9707642-3.8136139,1.645752-5.8600006,2
		c-2.7799988,0.5499878-5.8000031,1-9,1.3200073c-3.3912048,0.3336487-6.7556763,0.8982849-10.0700073,1.6900024
		c-3.1946106,0.735321-6.2124176,2.0946655-8.8800049,4c-3.2206573,2.3724976-5.0619507,6.1823425-4.9199524,10.1799927
		l0.1499939,2.4299927c0.334549,2.6290588,1.4411926,5.099884,3.1799927,7.1000061
		c1.8215942,2.0450134,4.0398254,3.6984863,6.5200043,4.8599854c2.3546753,1.105011,4.8521271,1.8757629,7.4199982,2.2900085
		c2.1646118,0.3973083,4.3593292,0.6080933,6.5599976,0.6300049c2.0083313-0.020874,4.0129242-0.177887,6-0.4700012
		c2.3001404-0.3338623,4.5658264-0.8726501,6.7700043-1.6099854c1.2970886-0.4464417,2.5660553-0.9707336,3.8000031-1.5700073
		c0.0488586,0.483429,0.1222839,0.9640503,0.2200012,1.4400024c0.5764465,3.7262878,1.8304596,7.3154907,3.6999969,10.5899963
		c1.8863983,3.2115173,4.5740204,5.8784485,7.8000031,7.7399902c3.2799988,1.8900146,9.8699951,2.8500061,14.6600037,2.8500061
		c2.9569244,0.0282898,5.9049683-0.3280029,8.7700043-1.0599976c2.5952301-0.6524353,5.0581512-1.7485657,7.2799988-3.2399902
		c1.6000671-1.0954895,3.0088959-2.4468994,4.1699982-4l0.0500031-0.0499878
		c1.0752563-1.403717,1.8666687-3.00354,2.3300018-4.7099915c0.4489899-1.536377,0.6746368-3.129364,0.6699982-4.730011
		c0-0.6499939,0-1.2799988-0.0899963-1.8800049c-0.1468964-2.4141541-0.952774-4.7418213-2.3300018-6.730011
		c-1.4100037-1.9400024-4.3800049-4.3399963-10-3.8299866c-0.5059509,0.0344238-1.006073,0.128418-1.4900055,0.2799988v-9.4500122
		c0.0736084-3.0288391,0.6795044-6.0211182,1.7899933-8.8399963c1.0578613-2.6830444,2.5142365-5.1912231,4.3200073-7.4400024
		c1.5388489-1.9257812,3.4121094-3.5585327,5.5299988-4.8200073c1.5555267-0.9670258,3.3392334-1.505249,5.1700134-1.5599976
		c1.2336731-0.027771,2.4534302,0.2651062,3.5400085,0.8500061c1.1100159,0.5992126,2.0625916,1.4524231,2.7799988,2.4899902
		c0.9084167,1.3623962,1.584259,2.8661804,2,4.4500122c0.5420532,2.1166382,0.8042908,4.2951965,0.7799988,6.480011v27.0299683
		c-0.0386658,0.5509338,0.3766174,1.0289001,0.9275208,1.0675659c0.0241394,0.0016785,0.0483093,0.0025024,0.0724792,0.0024414
		h11.3200073c0.782074-0.0378113,1.3882751-0.6975403,1.3599854-1.480011v-26.5
		c0.0274658-3.4204407-0.4613647-6.8254395-1.4500122-10.1000061c-0.9095764-3.0038757-2.3712158-5.8118591-4.3099976-8.2799988
		 M118.8622131,209.162674c0,0.1099854,0,0.3299866-0.5299988,0.7999878
		c-1.2005157,1.0541687-2.5740204,1.893158-4.0599976,2.480011c-1.7451172,0.7420959-3.5610962,1.3049927-5.4199982,1.6799927
		c-1.3962097,0.3198547-2.8188629,0.5106506-4.25,0.5700073c-1.4152679-0.0278625-2.8247986-0.1885681-4.2100067-0.480011
		c-1.4345398-0.2811584-2.8195648-0.7731628-4.1100006-1.4599915c-1.0956421-0.5487061-2.0633392-1.3221741-2.8399963-2.269989
		c-0.3946533-0.4859619-0.5847321-1.1063843-0.5299988-1.730011c-0.013855-0.1755676,0.0065155-0.3521729,0.0599976-0.519989
		c0.0349274-0.0509949,0.07901-0.0950928,0.1300049-0.1300049c1.2335968-0.8532104,2.6181946-1.4640808,4.0800018-1.7999878
		c2.2995758-0.5874939,4.6392059-1.0052795,7-1.25c2.8899994-0.3399963,5.7400055-0.75,8.4900055-1.2399902
		c2.115097-0.3874817,4.1952667-0.9459839,6.2200012-1.6700134L118.8622131,209.162674z"/>
	<path class="st19" d="M61.3622093,188.7726898c-0.3560791,1.7930603,0.8088226,3.5352478,2.6018829,3.8913269
		c0.1544533,0.0306702,0.3108864,0.050293,0.4681282,0.0586853h9.7799988l0.8399963-4
		c0.9062347-3.4465332,0.2160187-7.1178894-1.8800049-10c-1.7107849-2.265274-3.9867859-4.0412292-6.6000061-5.1499939
		c-2.5258636-1.103302-5.1904335-1.8569183-7.920002-2.2400055c-6.1928711-1.0380402-12.5339966-0.7758179-18.6200027,0.7700043
		c-3.3642654,0.8836823-6.5009308,2.4758759-9.1999969,4.6699982c-2.7722549,2.3204346-4.9408264,5.2781982-6.3199997,8.6200104
		c-1.545433,3.8461609-2.2938843,7.9660339-2.1999969,12.1099854c0,0.8500061,0,3,0.0800018,3.769989
		c0.1600342,3.3251038,0.8626404,6.6016541,2.0800018,9.7000122c1.0485535,2.6038818,2.5256424,5.013855,4.3700027,7.1300049
		c0.5675964,0.6474915,1.1719208,1.2618408,1.8099976,1.8399963c2.672699,2.405365,5.84552,4.1881714,9.2900009,5.2200012
		c3.5665436,1.0759583,7.2748108,1.6085815,11,1.5799866c1.1100006,0,2.3899994,0,3.9199982-0.1499939
		c1.680542-0.0976868,3.3516693-0.3182678,5-0.6600037c1.7463379-0.3582458,3.4668274-0.8326416,5.1499977-1.4200134
		c1.8796387-0.6274109,3.6432037-1.5598755,5.2200012-2.7600098c1.73172-1.3200684,3.1235657-3.0341797,4.0599976-5
		c0.7208862-1.551239,1.0994568-3.2394714,1.1100006-4.9500122l-0.25-3l-0.6100006-3.8800049H63.342205
		c-1.1536865,0.0368347-2.0590668,1.0019836-2.0222168,2.1556702c0.0026245,0.0817871,0.0100403,0.1633911,0.0222168,0.2443237
		l0.3699951,3.3500061c0.0739594,0.3686218,0.0392151,0.7507629-0.1000061,1.1000061
		c-0.4397125,0.6925964-1.0400238,1.2689209-1.7499847,1.6800232c-1.2045898,0.6242981-2.4954071,1.0658264-3.8300018,1.3099976
		c-1.58815,0.3102112-3.2018738,0.4709167-4.8200073,0.480011c-2.4147034,0.0546265-4.8157043-0.3772888-7.0599976-1.269989
		c-1.750946-0.7112732-3.3121872-1.8205872-4.5599976-3.2399902c-1.2333832-1.4607544-2.1464005-3.1641541-2.6800003-5
		c-0.6961899-2.3457642-1.0333405-4.7833557-1-7.230011c0-5,1.1500015-9.9400024,3.5-12.4100037
		s6.2800064-3.7200012,11.7300034-3.7200012c1.8515472-0.0139313,3.6991119,0.1738434,5.5099945,0.5599976
		c1.3000488,0.2660522,2.5469818,0.7458954,3.6900024,1.4199982c0.5442963,0.2843475,0.9929047,0.7225494,1.2899933,1.2599945"/>
	<path class="st19" d="M80.1522064,152.2826843c3.2009277-0.0302124,6.3781433-0.553009,9.4199982-1.5500031
		c1.1520844-0.3733826,2.2836609-0.807312,3.3899994-1.3000031l0.8200073-0.3600006l0.4600067,0.8000031
		c0.5647583,1.0323029,1.6433716,1.6787109,2.8200073,1.6900024h6c0.662384-0.0217133,1.1817627-0.5762787,1.1600494-1.2386627
		c-0.0000153-0.0004425-0.0000305-0.0009003-0.0000458-0.0013428v-46.9999924
		c0.0307312-1.8400116-1.3497162-3.3984528-3.1799927-3.5899963l0,0c-0.2944946-0.004776-0.5869293,0.0496368-0.8600006,0.1600037
		l-9.1100006,2.9100037c-0.5025024,0.17276-0.837265,0.6486664-0.8300018,1.1799927v33.6699905l-0.5800018,0.3000031
		c-0.9656982,0.4973907-1.96875,0.9186707-3,1.2599945c-1.815979,0.6268311-3.7192078,0.9642792-5.6399994,1
		c-2.9199982,0-6-0.7899933-6-10.3000031V102.852684c0.0084839-0.2112732-0.025528-0.4221039-0.1000061-0.6199951
		c-0.470108-1.3815308-1.7418518-2.3313599-3.1999969-2.3899994c-0.3047028-0.0002747-0.6078339,0.0435028-0.8999939,0.1300049
		l-8.920002,2.6600037c-0.5179443,0.1633148-0.8674774,0.6469727-0.8600006,1.1900024v26.129982
		c0,6.6100006,1.6100006,12,4.7700081,15.9499969c3.3800049,4.2400055,8.1999969,6.3800049,14.3399963,6.3800049"/>
	<path class="st19" d="M207.0522156,149.0626831l0.4599915,0.8099976c0.5647583,1.0323029,1.6433716,1.6787109,2.8200073,1.6900024
		h6c0.6625366-0.0161896,1.1865234-0.5664062,1.1703491-1.2289429c-0.0000916-0.0036926-0.0002136-0.0073853-0.0003357-0.0110626
		v-45.6599808c0.0063171-1.8326416-1.3687744-3.375824-3.1900024-3.5800018l0,0
		c-0.1928711-0.0208588-0.3879395,0.0030975-0.5700073,0.0700073l-9.3900146,3
		c-0.502594,0.1708832-0.835083,0.6493683-0.8200073,1.1799927v32.3199844l-0.5799866,0.3000031
		c-0.9665222,0.495636-1.9694214,0.9168549-3,1.2599945c-1.8196106,0.6260986-3.7260132,0.9635162-5.6499939,1
		c-2.9200134,0-6-0.7899933-6-10.3000031v-25.7099838c0.0073547-0.2038422-0.0231628-0.4072876-0.0899963-0.6000061
		c-0.4715576-1.3819885-1.741272-2.3342743-3.2000122-2.3999939c-0.3052063,0.002533-0.608429,0.0496979-0.8999939,0.1399994
		l-8.9299927,2.6600037c-0.5139771,0.1668701-0.8588562,0.6496735-0.8500061,1.1900024v24.7599869
		c0,6.6100006,1.6000061,12,4.7600098,15.9499969c3.3800049,4.2400055,8.2000122,6.3800049,14.3500061,6.3800049
		c3.2008057-0.0317993,6.3777771-0.5545502,9.4200134-1.5500031c1.1517334-0.3743896,2.2832642-0.8083038,3.3900146-1.3000031
		L207.0522156,149.0626831z"/>
	<path class="st19" d="M102.8422089,81.6326828c-0.4397278,0.0003357-0.8498383-0.2216339-1.0899963-0.5899963
		c-0.2484741-0.374527-0.3146057-0.8411865-0.1799927-1.2700043l1.6600037-5.2700043
		c0.6143951-1.9722443,2.2346344-3.4666748,4.25-3.9199982c0.7618561-0.2015686,1.5428467-0.3222351,2.3300018-0.3600006
		l1.3699951-0.0899963c0.5899963,0,1-0.0500031,1.1900024-0.0500031c1.8784637-0.0336761,3.7498016,0.2399292,5.5399933,0.8099976
		c0.9921875,0.3205414,1.9346466,0.7783203,2.8000031,1.3600006c2.201828,1.4876862,3.8918152,3.61763,4.8399963,6.1000061
		c0.4314575,1.1329498,0.7659912,2.3004761,1,3.4900055c0,0,0.6199951,3.8600006,0.6999969,5.8099976
		c0,0.2599945,0.0599976,0.5200043,0.0599976,0.7899933v56.9999924c0,0,0,1.1600037,0.4400024,1.4900055l0.4199982,0.1699982
		c0.1097107,0.0470428,0.223526,0.0838776,0.3399963,0.1100006c1.2093506,0.2792511,2.449295,0.4035797,3.6900024,0.3699951
		h5.2200012c0.4373779-0.0007477,0.8462677,0.2168274,1.0899963,0.5800018
		c0.2471008,0.3750458,0.3131561,0.8410645,0.1799927,1.2700043l-1.6600037,5.2700043
		c-0.6119843,1.9777069-2.2316895,3.4792786-4.25,3.9400024c-0.7634888,0.1919403-1.5438232,0.3091583-2.3300018,0.3500061
		l-1.3699951,0.0800018c-0.5899963,0-1,0.0500031-1.1900024,0.0500031
		c-1.8778992,0.0367279-3.7491913-0.2335052-5.5399933-0.8000031c-0.9913635-0.3225861-1.9335632-0.7802277-2.8000031-1.3600006
		c-2.2100067-1.5-3.5500031-3.6799927-4.8399963-6.1100006c-0.4004517-0.9763641-0.7345428-1.9786377-1-3
		c-0.5022583-2.9734802-0.7498322-5.9844055-0.7400055-9v-55.090004c0,0,0-1.3300018-0.4299927-1.5l-0.4499969-0.1600037
		l-0.3200073-0.1100006c-1.2108765-0.269043-2.4499664-0.3899231-3.6900024-0.3600006h-5.2200012"/>
	<path class="st19" d="M227.8922119,151.5626831c-0.3037109-0.0054626-0.5454712-0.2561035-0.5400085-0.5598145
		c0-0.000061,0-0.0001221,0-0.0001831v-47.5499954c-0.0010986-0.2425079,0.1513672-0.4591675,0.3800049-0.5399933
		l10.1600037-3.2400055c0.2579346-0.0860443,0.5280762-0.1299438,0.7999878-0.1300049
		c1.1923218,0.065033,2.2197876,0.8615417,2.5799866,2c0.0194092,0.1125031,0.0194092,0.2274933,0,0.3399963v7.1999969
		l1.6400146-1.2799988c2.6288452-2.0430603,5.5090332-3.7402496,8.5700073-5.0500031
		c4.2189636-1.9868469,8.8266296-3.0115356,13.4899902-3c0,0,3.1900024-0.1000061,5,1
		c0.4500122,0.2700043,0.4599915,0.8000031,0.5499878,1.2899933v0.1300049c0,0.0599976,0,0.1399994,0,0.25v0.1199951
		c0.1286621,2.4961395-0.5137329,4.9714355-1.8399963,7.0899963c-2.9299927,4.6499939-9.6199951,4.3899994-9.6199951,4.3899994
		c-7.4500122-0.4199982-12.480011,5-12.480011,5c-5.7399597,5.3000183-5.2199707,14.4300156-5.2199707,14.4300156v17.5800018
		c0.0056458,0.2999878-0.2301636,0.5491333-0.5299988,0.5599976h-12.8999939"/>
	<path class="st19" d="M351.6122131,152.7726898c0-0.4299927,0-0.8500061,0-1.2700043
		c-0.0726013-2.5052948-0.8678589-4.936203-2.2900085-7c-0.4795532-0.6628723-1.059906-1.2466125-1.7200012-1.7299957
		c-1.4487915-1.1080627-3.1830139-1.7809296-5-1.9400024c-0.9307251-0.0984497-1.8692627-0.0984497-2.7999878,0
		l-1.3999939,0.0700073l-0.1199951-1.4499969V89.4527054c0.0285339-2.2055206-0.9554443-4.3024292-2.6700134-5.6900024
		c-1.0632019-0.8357697-2.3593445-1.3213959-3.7099915-1.3899994c-0.7481384-0.0374146-1.4968567,0.0608368-2.2099915,0.2899933
		c-2.9007874,0.9788971-4.8288879,3.7292786-4.7600098,6.7899933v55.909996
		c-0.0348511,1.4648743,0.5670471,2.8729248,1.6499939,3.8600006c1.1812134,1.0702667,2.6532593,1.7662659,4.230011,2
		c0.5504456,0.0800171,1.1095581,0.0800171,1.6600037,0c0.8753967-0.1191559,1.7164612-0.4188232,2.4700012-0.8800049
		l0.7099915-0.4199982c1.0553589-0.2546387,2.1271973,0.3534546,2.4500122,1.3899994l0.1900024,0.8500061
		c0,0.3600006,0,0.5399933,0,0.6900024c0.0111694,0.6361542-0.0903931,1.2692566-0.2999878,1.8699951
		c-0.0529785,0.1574097-0.1164551,0.3110962-0.1900024,0.4600067c-0.3292236,0.7064819-0.8148193,1.3288574-1.4200134,1.8200073
		c-0.8348999,0.6500854-1.7799683,1.1446381-2.7900085,1.4600067h-0.2000122c-1.2987366,0.379425-2.6471252,0.5614624-4,0.5399933
		c-1.588623,0.1047363-3.1626587-0.3596802-4.4400024-1.3099976c-1.3612061-1.1266479-2.4370728-2.5588531-3.1400146-4.1799927
		c-0.960907-2.2390442-1.6329651-4.5912781-2-7c-0.4275818-2.9472961-0.7045898-5.9144897-0.8299866-8.8899994
		c-0.1300049-2.8800049-0.1499939-5.8200073-0.0799866-8.75c0.0599976-2.6999893,0.1199951-5.3099899,0.1199951-7.4799881
		c0.079895-3.5830078-0.7528992-7.1274567-2.4200134-10.3000031c-0.4121704-0.7656555-0.883606-1.4978943-1.4100037-2.1900024
		l-1.6400146-1.9400024c-0.9429016-0.9896698-1.9926758-1.8717346-3.1300049-2.6300049
		c-2.4532471-1.5570374-5.1611328-2.670639-8-3.2899933c-2.7433472-0.5975189-5.5423279-0.9025574-8.3500061-0.9100037
		c-1.8847961,0.0283051-3.765625,0.1819916-5.6300049,0.4600067c-2.2609558,0.3123322-4.4723816,0.9139099-6.5799866,1.7899933
		c-2.3048401,0.933075-4.3793945,2.3559113-6.0799866,4.1699982c-1.3908997,1.3470001-2.4016113,3.037262-2.9299927,4.8999939
		c-0.4899902,2-0.5799866,3.4600067,0.3900146,4.8500061c1.730011,2.5,6.1700134,1.3500061,8.6600037,0.4400024
		c1.2127991-0.3544617,2.27005-1.1086426,3-2.1399994l0.3399963-0.5c0.6147156-1.1529083,1.5625916-2.0938263,2.7200012-2.6999969
		c2.0142212-0.8106995,4.1688843-1.2151184,6.3399963-1.1900024c1.4059753,0.0140228,2.8079834,0.1512146,4.1900024,0.4100037
		c1.3295593,0.2649689,2.6131592,0.7231598,3.8099976,1.3600006c0,0,2.8900146,0.9299927,3.1799927,6.3899994l-5.4200134,0.8800049
		c-2.4700012,0.4799957-5.2600098,0.8800049-8.519989,1.2299957c-1.769989,0.1699982-4.0700073,0.4100037-6,0.7299957
		l-0.3299866,0.0599976l-5.1900024,1.1300049c-11.25,2.5099945-11.8500061,13.2499924-11.8500061,13.2499924
		c-0.0812378,3.2992554,1.0744629,6.5095825,3.2399902,9c1.7477112,1.9538574,3.8740234,3.5324249,6.25,4.6399994
		c2.2554626,1.046814,4.6447144,1.7770538,7.1000061,2.1699982c2.0602112,0.369339,4.1471252,0.5700073,6.2399902,0.6000061
		c1.9075317-0.0306854,3.8112793-0.1809845,5.7000122-0.4499969c2.1873779-0.3152924,4.3424988-0.8239594,6.4400024-1.5200043
		l1.8200073-0.6799927l1.4899902-0.5700073l0.3099976,1.6300049c0.5695496,3.2842712,1.7209473,6.4404755,3.3999939,9.3199921
		c1.8213196,3.0530701,4.3926697,5.5899963,7.4700012,7.3699951c3.6156311,1.875946,7.6606445,2.7690887,11.730011,2.5899811
		c2.8247681,0.02948,5.6414795-0.3066406,8.3800049-1c1.0620422-0.2697906,2.1017761-0.6208191,3.1099854-1.0500031
		c1.3515015-0.5053253,2.6347351-1.1771698,3.8200073-2c0.6156311-0.4174957,1.20047-0.8786926,1.75-1.3800049
		c0.4555359-0.410553,0.8894348-0.8444672,1.2999878-1.3000031l0.2900085-0.3300018
		c1.3486328-1.5011902,2.3521423-3.2795105,2.9400024-5.2100067l0,0l0.1099854-0.3699951
		c0.3999634-1.3948364,0.6019287-2.8389435,0.6000061-4.2899933 M304.3022156,137.0826721
		c-0.8780518,0.5677643-1.7972717,1.0691681-2.75,1.5c-1.6461792,0.6698608-3.3498535,1.1886749-5.0899963,1.5500031
		c-2.5932007,0.6493225-5.3027039,0.6801453-7.9100037,0.0899963c-1.3287354-0.2694702-2.6141052-0.7203522-3.8200073-1.3399963
		c-0.9957275-0.5191345-1.8845825-1.2214203-2.6199951-2.0700073c-0.5927734-0.6252289-0.5664673-1.6126099,0.0587769-2.2053833
		c0.0595703-0.056488,0.1235046-0.1081848,0.1912231-0.1546021c0.9781494-0.542923,2.028717-0.943634,3.1199951-1.1900024
		c2.162262-0.5525818,4.361145-0.9502563,6.5799866-1.1900024c2.75-0.2899933,5.4500122-0.6900024,8-1.1699982l1.0799866-0.2200012
		l0.4599915-0.1000061c0.9960022-0.2077942,2.0322266,0.0540314,2.8099976,0.7100067
		c0.8087463,0.7070465,1.2628174,1.7359924,1.2399902,2.8099976c0.1141663,1.1921997-0.4448853,2.3488007-1.4500122,3"/>
	<path class="st19" d="M167.4222107,97.4526901h0.25c0.0930786,0.0097809,0.1869202,0.0097809,0.2799988,0
		c7.1800842,0.0393677,14.0568237-2.8923035,19-8.1000061c4-4.4299927,5.3200073-10,3.4700012-15
		c-0.7101135-2.0644073-1.9642029-3.8989105-3.6300049-5.3099976c-3.0253296-2.3199615-7.0230103-2.9416504-10.6099854-1.6499939
		c-1.730011,0.5500031-7.3200073,2.6900024-6.5,7.1999969c0.7600098,4.1399994,3.5499878,5.0700073,5.5899963,4.3999939
		c0.9877625-0.3809204,1.955658-0.8114624,2.8999939-1.2899933c0,0,1.4599915-0.1699982,2.4500122,2
		c0,0,0.7099915,1.3699951-0.7000122,3.3699951c0,0-1.3900146,2.3500061-7,2.1499939h-13.1399994V72.7426834
		c0.028183-0.7751617-0.5750122-1.4275208-1.3500061-1.4600067h-6.8899994
		c-1.0049744,0.0137939-1.8823853,0.684021-2.1600037,1.6499939l-1.3000031,6
		c-1.1699982,6.7200012-0.6799927,6.3800049-1.6699982,6.3500061l-9.6000061-0.1000061
		c-2.1151276,0.0973053-3.7547302,1.8843231-3.6699982,4V94.32267c-0.073349,1.5833588,1.1507568,2.9263916,2.7341156,2.9997406
		c0.0019684,0.0000763,0.0039215,0.0001678,0.0058899,0.0002594h8.3800049
		c0.8854218,0.0325775,1.578125,0.7744293,1.5500031,1.6600037v32.4700089c0,2.4199982,0.0599976,4.7200012,0.1699982,6.8399963
		c0.0817719,2.4724884,0.568222,4.914856,1.4400024,7.2299957c0.9488678,2.4766388,2.6391602,4.5999908,4.8399963,6.0800018
		c2.4988251,1.5543671,5.4102631,2.3144684,8.3500061,2.1799927h1.1999969l1.3899994-0.0700073
		c0.7758026-0.051712,1.5455017-0.1721954,2.3000031-0.3600006c2.0150146-0.4564209,3.6322021-1.955368,4.2400055-3.9299927
		l1.2399902-3.9499969c0.2275085-0.7364807,0.1138-1.5361176-0.3099976-2.1799927
		c-0.4141235-0.6230164-1.111908-0.9981689-1.8600006-1h-3.8899994c-1.2481232,0.0403137-2.4959869-0.0874939-3.7100067-0.3800049
		c-0.1482544-0.0228424-0.290802-0.073761-0.4199982-0.1499939l-0.3500061-0.1799927l-0.1499939-0.3899994
		c-0.070755-0.1778107-0.1243286-0.3619843-0.1600037-0.5500031c-0.2589264-1.2799072-0.376297-2.5844269-0.3500061-3.8899994
		V97.4526901H167.4222107z"/>
	<path class="st19" d="M35.0722084,145.212677c0,0,4.4499969-0.7599945,8.9000015-9.4199982
		c1.4799957-2.8800049,3.3200073-1.4199982,3.8699951-1.1699982l6.6900024,3.1799927
		c0.4789276,0.1682587,0.9061127,0.4576416,1.2400055,0.8399963c0.4087677,0.4437866,0.4584656,1.1105194,0.1199951,1.6100006
		l-2.1100006,3.7700043c-2.3588409,3.909729-5.6636505,7.1629639-9.6100006,9.4600067
		c-3.9278793,2.3539124-8.4207916,3.598114-13,3.6000061c-1.3366241-0.0005951-2.6721191-0.0773773-4-0.2299957
		c-1.9203873-0.2037201-3.8182297-0.581955-5.6699982-1.1300049c-1.1100006-0.3500061-2.1200027-0.7200012-3.0699997-1.1199951
		c-3.3561478-1.4328308-6.4101105-3.4891663-9-6.0599976c-0.3499985-0.3500061-0.6999969-0.7100067-1-1.0899963
		c-1.7063141-1.8868408-3.164772-3.9837952-4.340004-6.2400055l-0.0599976-0.1300049
		c-0.7451019-1.4412994-1.3834839-2.9353027-1.9100037-4.4700012c-2.8296051-8.7775803-2.8296051-18.2224045,0-26.9999924
		c1.3313217-4.0255585,3.4527664-7.744873,6.2400055-10.9400024c0.9020538-1.0080261,1.8780975-1.9472961,2.9199982-2.8099976
		c2.1848373-1.8184509,4.6283035-3.3013763,7.25-4.3999939c2.8655243-1.2200623,5.9004593-1.9956512,9-2.3000031
		c1.2200012-0.1000061,2.3000031-0.1499939,3.3199997-0.1499939c0.4199982,0,0.7900009,0,1.1800003,0
		c1.9219818,0.0680695,3.8319473,0.3327789,5.6999969,0.7899933c0.6200027,0.1600037,1.2200012,0.3300018,1.8199997,0.5299988
		c1.7658463,0.5826569,3.4679184,1.3432312,5.0799942,2.2700043c2.0022583,1.071991,3.8161011,2.463623,5.3699951,4.1199951
		c0,0,6.1699982,7.1300049,5.4799957,14.6800079l-11.3199921,0.9100037c-1.2200012,0.1399994-1.6399994,0-2-0.7700043
		l-1.5299988-3.3699951c-0.5164948-1.1627655-1.1356125-2.2771759-1.8499985-3.3300018
		c-0.5574112-0.8404236-1.2307281-1.5979004-2-2.25c-0.763031-0.6014862-1.6170807-1.0774689-2.5299988-1.4100037
		c-0.0987701-0.0460968-0.2029037-0.0796967-0.3099976-0.1000061c-2.0183868-0.5394135-4.1398926-0.5634918-6.1699982-0.0700073
		c-1.0378647,0.2445831-2.0443878,0.6069336-3,1.0800018c-1.9810181,1.0015717-3.7132111,2.4331055-5.0699997,4.1900024
		c-1.5980682,2.0943604-2.7917862,4.4682312-3.5199966,7c-1.7864685,6.4010162-1.7864685,13.1689758,0,19.5699844
		c0.7238007,2.533493,1.9179077,4.9081573,3.5199966,7c0.4492188,0.594101,0.9512711,1.146347,1.5,1.6499939
		c1.0321655,1.0126495,2.2249832,1.84729,3.5299988,2.4700012c3.2635956,1.4993439,6.9173126,1.9298096,10.4400024,1.2299957"/>
	<path class="st11" d="M140.4622192,9.9426851c0.5800018-0.8600006,2,0.5199966,2.4600067,1.4400024
		s1.1999969,3.8499985,1.7599945,4.71c0.1612244,0.2971039,0.4411926,0.5116196,0.7700043,0.5899963
		c0.4823151-0.0249634,0.8778687-0.3910599,0.9400024-0.8700037c0.0247192-0.475441-0.0572815-0.9503784-0.2400055-1.3899994
		c-0.7846222-2.4433746-1.3009949-4.9648895-1.5399933-7.5199966c0-0.7799988,0.1999969-1.7799988,1-1.8799973
		s1.2200012,0.8199997,1.4400024,1.5599976c0.4900055,1.6999969,1.5399933,5.2600021,2,7
		c0.1799927,0.6200027,0.5099945,1.3700027,1.1600037,1.4100037c0.4525909-0.0120316,0.8506317-0.302597,1-0.7300034
		c0.1430817-0.4105911,0.1976166-0.8468246,0.1600037-1.2799988c0-1.8899994-0.6199951-5.6299973-0.6499939-7.5100021
		c0-0.8499985,0.1699982-2,1-2.0999985c0.4933929-0.0526123,0.9676361,0.2064285,1.1900024,0.6500015
		c0.2214355,0.4320679,0.3508301,0.9053726,0.3800049,1.3899994c0.2700043,2.0899963,1.1000061,6,1.3800049,8.1200027
		c0.0599976,0.5199966,0.2899933,1.1900024,0.8099976,1.1699982s0.6799927-0.5699997,0.7899933-1
		c0.3099976-1.3300018,0.0700073-4.5199966,0.3800049-5.8499985c0.25-1,0.7799988-2.3000031,1.8300018-2.2600021
		s1.1300049,2.6999969,1,4.9199982c-0.3099976,5.1500015-1,9.6900034,0.1900024,10.300004s2.1699982-6.0800028,3.5800018-6.800004
		c1.25-0.6399994,2.1199951,3.8099985,0.7599945,7.7200022c-1.9299927,5.5500031-6.5200043,11.1900005-12.8099976,10.0800018
		c-2.0074005-0.3717804-3.7747345-1.5500031-4.8899994-3.2600021
		C145.3022156,26.9226894,139.1022186,11.9326906,140.4622192,9.9426851z"/>
	<path class="st20" d="M232.6322021,255.0526886c1.6017761,2.9963531,3.0242615,6.0850983,4.2600098,9.2500153
		c0.4599915,1.1600037,1.0499878,2.2900085,1.5599976,3.4200134c0.3999939,0.8900146,0.9200134,1.7399902,1.3800049,2.6000061
		c0.8900146,1.6600037,1.8200073,3.2999878,2.6799927,5c0.3800049,0.75,0.6199951,1.5599976,1,2.3099976l1.1900024,2.2000122
		c0.3599854,0.6799927,0.730011,1.3599854,1.0899963,2.0499878s0.8399963,1.2799988,1.2600098,1.9500122
		c0.8399963,1.3699951,1.519989,2.8599854,2.2799988,4.2799988"/>
	<path class="st21" d="M236.5422058,264.0726929c0.0700989,0.0586243,0.104248,0.1497498,0.0899963,0.2399902
		c-0.6000061-0.2399902-1.0899963-0.6400146-1.6900024-0.8999939c-0.6084595-0.2455139-1.1912537-0.5503235-1.7399902-0.9100037
		c-0.5499878-0.3999939-1.0899963-0.7900085-1.6600037-1.1799927c-0.3800049-0.25-0.7600098-0.4700012-1.1300049-0.730011
		s-0.7200012-0.5799866-1.1099854-0.8299866c-0.7999878-0.5100098-1.5799866-1.0799866-2.3399963-1.6499939
		c-0.7540894-0.5437317-1.4015503-1.2217102-1.9100037-2c-0.1700134-0.3000031-0.6000061-0.8400116,0-0.780014
		c0.2757874,0.0780029,0.5436401,0.1817932,0.7999878,0.3099976c1.0579834,0.3615875,2.065979,0.855484,3,1.4700165
		c1.3900146,0.9200134,2.9200134,1.6000061,4.2999878,2.5400085c0.4932556,0.30896,0.97052,0.6427002,1.4299927,1
		c0.2896118,0.1834412,0.5272217,0.4382629,0.6900024,0.7399902v-0.0899963
		c-0.3299866-0.6199951,0.2099915-1.6000061,0.3500061-2.2900085c0.1799927-0.8500061,0.2399902-1.7900085,0.5-2.6099854
		c0.2600098-0.8199921,0.3999939-1.6700287,0.6499939-2.5000153c0.3240051-0.9110107,0.7150879-1.7967834,1.1700134-2.6499939
		c0.3215027-0.8033142,0.737793-1.5653687,1.2399902-2.269989c0.1600037-0.2000122,0.1300049-0.2200012,0.3800049-0.1600037
		c0.1924744,0.0575867,0.3797913,0.1311646,0.5599976,0.2200012c0.8699951,0.5,0.7000122,1.8399963,0.5799866,2.6300049
		c-0.3999939,2.7099915-1.6300049,5.2300262-2.2999878,7.8900299c-0.2399902,0.9299927-0.6199951,1.8500061-0.8900146,2.769989
		C237.2925415,262.9647217,236.9642944,263.5535583,236.5422058,264.0726929z"/>
	<path class="st21" d="M240.6522217,272.3727112c-0.4251709-0.2256775-0.8907776-0.3650208-1.3699951-0.4100037
		c-1-0.269989-2.0799866-0.5899963-3.1000061-0.9299927s-2.3599854-0.7600098-3.4899902-1.25
		c-0.8829956-0.3457031-1.7358704-0.7637939-2.5499878-1.25c-1-0.6499939-2.5100098-1.5400085-2.8299866-2.7900085
		c-0.1618652-0.6483765,0.2325439-1.3051758,0.8809204-1.467041c0.1238403-0.0309143,0.25177-0.0420227,0.3790894-0.032959
		c0.6672058,0.0740356,1.3185425,0.2528992,1.9299927,0.5299988c0.6868286,0.2913818,1.3547974,0.6253662,2,1
		c0.6700134,0.3099976,1.2600098,0.7399902,1.9100037,1.0799866c0.3099976,0.1600037,0.6700134,0.269989,1,0.4500122
		c0.2409363,0.1817932,0.4949646,0.3455505,0.7600098,0.4899902c0.4165955,0.1819458,0.815033,0.4029236,1.1899414,0.6600037
		c0.3900146,0.2600098,0.7999878,0.4700012,1.1700134,0.75s0.4899902,0.3299866,0.730011,0.4700012
		s0.6799927,0.4599915,0.7900085,0.4200134v-0.1400146c-0.0649109-0.5141296-0.0171509-1.0361938,0.1400146-1.5299988
		c0.1600037-1,0.3699951-1.8900146,0.6199951-2.8399963c0.1000061-0.3800049,0.1099854-0.7799988,0.2200012-1.1600037
		s0.4100037-1,0.5799866-1.5100098c0.3471985-0.7959595,0.7412109-1.5706482,1.1799927-2.3200073
		c0.1464233-0.2684021,0.3171387-0.5227966,0.5100098-0.7600098c0.0981445-0.1869812,0.208374-0.3673706,0.3299866-0.5400085
		c0.2744141-0.3201904,0.6157837-0.5762329,1-0.75c0.9200134-0.4400024,1.0700073,1.5,1,2.0499878
		c-0.0747375,0.755249-0.2051086,1.5039368-0.3900146,2.2399902c-0.1799927,0.7200012-0.5599976,1.3599854-0.7999878,2.0499878
		c-0.4100037,1.1900024-1.0899963,2.2799988-1.4400024,3.5c-0.1199951,0.4200134-0.4100037,0.769989-0.5299988,1.1799927
		c-0.1009521,0.3398743-0.2211304,0.6737671-0.3599854,1C242.012207,270.7626953,241.0522156,272.7326965,240.6522217,272.3727112z"
		/>
	<path class="st21" d="M244.2522278,279.4526978c-0.269989,0.2200012-0.8399963,0.1400146-1.1799927,0.1199951
		c-0.730011,0-1.5,0-2.230011-0.0499878c-1.8999939-0.2200012-3.8599854-0.3599854-5.7399902-0.7200012
		c-1.1940613-0.0920715-2.329895-0.5533752-3.25-1.3200073c-0.9299927-1,1.3699951-1,1.8999939-1
		c0.6113586-0.0050049,1.2214966,0.0553284,1.8200073,0.1799927c0.6000061,0.1000061,1.3099976,0.2099915,1.8900146,0.3699951
		s1,0.2900085,1.4299927,0.4400024s1,0.1300049,1.3800049,0.2999878s0.730011,0.25,1.1099854,0.3999939
		c0.260498,0.1187134,0.5366211,0.1995239,0.8200073,0.2399902c0.3999939,0,1.2600098,0.0599976,1.5599976,0.4200134
		c-0.3099976-0.3800049,0.1799927-1.2099915,0.1499939-1.6400146c-0.0201111-0.635437,0.0609131-1.2700195,0.2399902-1.8800049
		c0.1600037-0.6799927,0.2099915-1.3500061,0.3800049-2c0.158905-0.7110901,0.3592529-1.4122925,0.6000061-2.1000061
		c0.1773987-0.4781494,0.408905-0.9344482,0.6900024-1.3599854c0.2799988-0.3800049,0.7399902-1.1600037,1.2600098-1.2399902
		c0.8200073-0.1199951,0.769989,1.4899902,0.75,1.9299927c-0.1882935,1.8427429-0.7208557,3.6337585-1.5700073,5.2799988
		c-0.3099976,0.7200012-0.4899902,1.480011-0.8500061,2.1799927c-0.1499939,0.2900085-0.2900085,0.5700073-0.4500122,0.8500061
		c-0.1976013,0.2571716-0.3716431,0.5316162-0.519989,0.8200073
		C244.4421997,279.5726929,244.242218,279.4526978,244.2522278,279.4526978z"/>
	<path class="st22" d="M121.6522064,24.7926846c0,0.2699966-0.3399963,0.4499969-0.5200043,0.6100006
		c-0.3399963,0.3099976-0.6999969,0.5599976-1.0700073,0.8399963c-0.8226929,0.5949936-1.6999512,1.1106415-2.6199951,1.5400009
		c-0.9098053,0.3850098-1.8540192,0.6830063-2.8200073,0.8899994c-0.572403,0.1929703-1.1993408,0.1386108-1.7299957-0.1500015
		c-0.3912659-0.2676849-0.6968689-0.6427307-0.8800049-1.0800018c-0.1950073-0.4636612-0.1950073-0.9863358,0-1.4499969
		c0.1315155-0.5361557,0.3584747-1.0442505,0.6699982-1.5c0.3224182-0.3395309,0.6851044-0.6384125,1.0800018-0.8899994
		c-0.1000061-0.2399979-0.3000031-0.2900009-0.5099945-0.4300003s-0.3999939-0.4100037-0.6900024-0.5699997
		c-1.2124634-0.7468567-2.1683197-1.8457413-2.739975-3.1499939c-0.3442078-0.665741-0.5030823-1.4117813-0.4600067-2.1600037
		c0.2217102-1.1135941,1.2259521-1.8965616,2.3600006-1.8399973c0.5220947-0.1122971,1.0565948-0.1559982,1.5899963-0.1299973
		c0.2400055,0,0.4600067,0.2600021,0.6799927,0.3099976s0.0899963,0.1299973,0.2799988,0s0.1199951-0.6200027,0.1600037-0.7900009
		c0.2789459-0.8159561,0.772995-1.541481,1.4299927-2.0999985c0.5826263-0.4800415,1.2663879-0.8219223,2-1
		c0.6996002-0.2664871,1.4762726-0.2449112,2.1600037,0.0599976c0.6951904,0.3202209,1.3075867,0.7957687,1.7899933,1.3899994
		c0.1199951,0.1500015,0.2100067,0.4000015,0.4199982,0.4400024s0.8699951-0.5,1.1600037-0.6800003
		c0.8779755-0.6182861,2.0875244-0.4328766,2.7400055,0.4199982c0.3146362,0.306282,0.5630951,0.6738586,0.730011,1.0800018
		c0.0904541,0.3769608,0.1407318,0.7624435,0.1499939,1.1500015c0.1079712,0.7030268,0.0532379,1.4214487-0.1600037,2.0999994
		c-0.2599945,0.7600021-0.7400055,1.3700027-1.0500031,2.1200027c-0.4098663,0.8349075-0.9239655,1.6144562-1.5299988,2.3199997
		c-0.6450043,1.0580444-1.4990845,1.9733734-2.5099945,2.6900024l0.3800049,0.0999985"/>
	<path class="st21" d="M123.5322113,26.28269h0.1000061c-0.3800049-0.2099991-1,0.5599976-1.3600006,0.7300034
		c-0.7769165,0.3567886-1.5876312,0.6348495-2.4199982,0.8300018c-0.6556396,0.1527328-1.334259,0.1798782-2,0.0800018
		c-0.4100037-0.0599976-0.8800049-0.1500015-0.6399994-0.6100006c0.2993774-0.3845062,0.6965485-0.6815262,1.1499939-0.8600082
		c0.6399994-0.4100037,1.2299957-0.8700027,1.9100037-1.2399979c0.654953-0.3827744,1.348877-0.6945343,2.0700073-0.9300003
		c0.3600006-0.1100006,0.6900024-0.4800034,1.0899963-0.3799973c0-0.3399963,0-0.7200012,0-1.0599976
		c0.1002197-0.4907227,0.2406921-0.9723511,0.4199982-1.4400024c0.2124176-1.1396408,0.7114105-2.2064667,1.4499969-3.0999985
		c0.5500031-0.5100021,1.1199951,0.2799988,1.3500061,0.7399979c0.2637787,0.5830765,0.3838043,1.220932,0.3500061,1.8600006
		c-0.0602112,1.2944946-0.561264,2.52948-1.4199982,3.5c-0.2744141,0.3874588-0.6125336,0.7255859-1,1
		c-0.3600006,0.2300034-1,0.5500031-1.1000061,1C123.5422058,26.3326855,123.6122131,26.3126888,123.5322113,26.28269z"/>
	<path class="st23" d="M123.0722198,23.6926861c0.141922,0.5986404,0.3674622,1.1742935,0.6699982,1.7099991
		c0.3699951,0.4800034,0.6499939,1,1,1.5s0.8099976,1.1999969,1.2599945,1.7699966
		c0.5316772,0.6733322,1.0991516,1.3175964,1.6999969,1.9300003c1.0415802,1.0475006,2.230835,1.9369183,3.5299988,2.6399975
		c0.4199982,0.2399979,0.8000031,0.4800034,1.1999969,0.75c0.3341217,0.2933655,0.7164001,0.5268021,1.1300049,0.6900024"/>
	<path class="st7" d="M106.8322144,44.2426872c-0.1639862,0.0912247-0.3386536,0.1617584-0.5200043,0.2099991
		c-0.3899994,0-0.7899933,0-1.1799927,0s-0.4199982-0.0999985-0.4199982-0.3600006s0.1699982-0.3700027,0.4100037-0.3700027
		c0.4199982,0,0.8399963,0,1.2599945,0c0.1601105,0.041069,0.3122253,0.1086731,0.4499969,0.1999969V44.2426872z"/>
	<path class="st11" d="M97.8322144,59.6226845c0.0599976-0.3800049,0.1300049-0.8200073,0.2200012-1.25
		c0.0768585-0.2422791-0.0072784-0.5066986-0.2100067-0.6600037c-0.3193207-0.2693176-0.6200104-0.5599823-0.8999939-0.8699951
		c-0.1100006-0.1199951-0.2200012-0.3399963-0.1799927-0.4400024c0.0997009-0.1475067,0.2547607-0.2484818,0.4299927-0.2799988
		c0.4199982-0.0899963,0.8600006-0.1100006,1.2799988-0.1999969c0.1648865-0.0490112,0.306778-0.1554337,0.3999939-0.3000031
		c0.2200012-0.3799973,0.3800049-0.7799988,0.5899963-1.1600037c0.0800018-0.1399994,0.25-0.3199997,0.3600006-0.3099976
		c0.1699524,0.0504532,0.3134766,0.1652756,0.3999939,0.3199997c0.2025909,0.3535995,0.379715,0.721199,0.5299988,1.0999985
		c0.0819855,0.2233963,0.2921143,0.374054,0.5299988,0.3799973c0.4064026,0.0320969,0.8104858,0.0888672,1.2100067,0.1699982
		c0.1795502,0.0519867,0.3352203,0.1652069,0.4400024,0.3199997c0.1199951,0.1799927,0,0.3699951-0.1499939,0.5099945
		s-0.4299927,0.4600067-0.6799927,0.6399994c-0.3301392,0.2158356-0.4568176,0.6380768-0.3000031,1
		c0.0890808,0.3477783,0.1492767,0.7023163,0.1799927,1.0599976c0,0.1399994,0,0.3600006-0.1300049,0.4199982
		c-0.1487732,0.0703125-0.321228,0.0703125-0.4700012,0c-0.4100037-0.1900024-0.8000031-0.4400024-1.2200012-0.6199951
		c-0.1604156-0.0645142-0.3395844-0.0645142-0.5,0c-0.4100037,0.1900024-0.8000031,0.4299927-1.2100067,0.6399994
		S97.8222198,60.0726814,97.8322144,59.6226845z"/>
	<path class="st8" d="M72.8822174,37.5026894c0.0800018-0.4499969,0.1699982-0.9199982,0.2200012-1.4000015
		c0.0100403-0.1607132-0.0438843-0.3188858-0.1499939-0.4400024c-0.3099976-0.3399963-0.6600037-0.6299973-1-1
		c-0.1000061-0.0999985-0.2100067-0.3000031-0.1699982-0.4000015c0.0792236-0.1447678,0.2182617-0.2472153,0.3800049-0.2799988
		c0.4356384-0.0950928,0.876358-0.1652069,1.3200073-0.2099991c0.1971741-0.0008087,0.372879-0.1246033,0.4400024-0.3099976
		c0.1900024-0.4100037,0.3899994-0.8000031,0.6100006-1.1900024c0.2200012-0.3899975,0.5200043-0.4100018,0.7400055,0
		c0.2200012,0.4100037,0.4199982,0.7799988,0.6000061,1.1800003c0.0721588,0.1873322,0.2493591,0.3133392,0.4499969,0.3199997
		c0.4400024,0.0500031,0.8800049,0.1200027,1.3099976,0.2099991c0.1399994,0,0.3399963,0.1299973,0.3699951,0.2399979
		c0.0077972,0.165184-0.0496826,0.3268127-0.1600037,0.4499969c-0.3099976,0.3300018-0.6600037,0.6299973-1,1
		c-0.0996246,0.1280975-0.1493683,0.2879944-0.1399994,0.4499969c0.0599976,0.4400024,0.1900024,0.8700027,0.2599945,1.3000031
		c0,0.1699982,0,0.4300003-0.1199951,0.4899979c-0.1686401,0.0752945-0.3613586,0.0752945-0.5299988,0
		c-0.4799957-0.2200012-0.9499969-0.6600037-1.4199982-0.6600037s-0.9199982,0.4300003-1.3800049,0.6600037
		S72.8622131,37.972683,72.8822174,37.5026894z"/>
	<path class="st13" d="M98.1722107,31.4526882c0.0800018-0.4800034,0.1399994-1,0.2400055-1.4599991
		c0.0557404-0.1888275-0.0121002-0.3923874-0.1699982-0.5100021c-0.3300018-0.3000031-0.6600037-0.5999985-1-0.9300003
		c-0.1096802-0.1230316-0.1639252-0.2857666-0.1499939-0.4499969c0-0.0999985,0.2299957-0.2099991,0.3600006-0.2399979
		c0.4400024-0.0933304,0.8800049-0.1633301,1.3200073-0.2099991c0.1962585-0.0036469,0.3705139-0.1264191,0.4400024-0.3099976
		c0.1900024-0.4100037,0.3899994-0.8000031,0.6100006-1.1900024c0.0800018-0.1200027,0.2400055-0.2799988,0.3500061-0.2699966
		c0.1617432,0.0327835,0.3007812,0.135231,0.3800049,0.2799988c0.2299957,0.4000015,0.3999939,0.8199997,0.6199951,1.2200012
		c0.0760956,0.1290588,0.2032471,0.2198792,0.3500061,0.25c0.4600067,0.0999985,0.9299927,0.1399994,1.3899994,0.2300034
		s0.5099945,0.3899994,0.2200012,0.6900024s-0.5899963,0.5999985-0.8999939,0.8799973
		c-0.2040253,0.1433334-0.2861176,0.4059982-0.1999969,0.6399994c0.1082458,0.4079132,0.1917419,0.8220062,0.25,1.2399979
		c0,0.1500015,0,0.3899994-0.1199951,0.4499969c-0.1592712,0.0701828-0.3407288,0.0701828-0.5,0
		c-0.4199982-0.1900024-0.8099976-0.4400024-1.2200012-0.6299973c-0.137146-0.0595245-0.2928467-0.0595245-0.4299927,0
		c-0.4400024,0.1999969-0.8500061,0.4499969-1.2799988,0.6699982c-0.1938324,0.0939178-0.4271088,0.0129242-0.5210266-0.1809082
		C98.1856995,31.569067,98.172348,31.5112667,98.1722107,31.4526882z"/>
	<path class="st9" d="M76.0922089,53.3026848c-0.1100006-0.0999985-0.2599945-0.1699982-0.2899933-0.2699966
		c-0.0187836-0.1398087,0.0131378-0.2817154,0.0899963-0.4000015c0.084137-0.0878448,0.186554-0.1561203,0.3000031-0.1999969
		c3.1066589-1.8133392,6.2200012-3.6199951,9.3399963-5.4199982c0.25-0.1500015,0.5200043-0.3600006,0.7799988,0
		s0,0.4599991-0.4100037,0.6999969L76.5522003,53.11269L76.0922089,53.3026848z"/>
	<path class="st9" d="M82.9322205,30.1826916c0.0899963-0.1100006,0.1600037-0.2699966,0.2599945-0.2900009
		c0.1373444-0.0306931,0.28125-0.0055084,0.3999939,0.0699997c0.0899963,0,0.1300049,0.1699982,0.1900024,0.2600021
		c1.4600067,2.5333385,2.9266663,5.0566616,4.3999939,7.5699978c0.0500031,0.0899963,0.1300049,0.1800003,0.1300049,0.2600021
		s0,0.3799973-0.1499939,0.4400024s-0.3099976,0-0.4499969-0.0800018s-0.1300049-0.1699982-0.1900024-0.2699966
		l-4.3600006-7.4999981C83.0822144,30.5026913,83.0222168,30.3626919,82.9322205,30.1826916z"/>
	<path class="st9" d="M80.5422058,37.4526863l0.3600006,0.1699982l7.5800018,4.3700027
		c0.2100067,0.1200027,0.4299927,0.2699966,0.2599945,0.5500031s-0.4100037,0.2200012-0.6499939,0.0800018l-7.5500031-4.3499985
		c-0.1900024-0.1100006-0.3800049-0.2399979-0.2899933-0.4899979S80.442215,37.5426826,80.5422058,37.4526863z"/>
	<path class="st9" d="M99.2122192,44.4526863h-4.1199951c-0.1180115,0.0309296-0.2419891,0.0309296-0.3600006,0
		c-0.109436-0.0836487-0.1842041-0.2046967-0.2100067-0.3399963c0-0.1100006,0.1100006-0.2399979,0.1999969-0.3099976
		c0.108429-0.0262985,0.2215729-0.0262985,0.3300018,0h8.3899994c0.0700073,0,0.1699982,0,0.2100067,0
		s0.2899933,0.2300034,0.2899933,0.3499985s-0.1600037,0.2600021-0.2799988,0.3499985s-0.2200012,0-0.3300018,0
		L99.2122192,44.4526863z"/>
	<path class="st9" d="M103.692215,51.61269l-0.3300018-0.1600037L96.7222137,47.61269l-0.1000061-0.0599976
		c-0.1999969-0.1200027-0.3099976-0.3000031-0.1900024-0.5199966s0.3500061-0.2399979,0.5700073-0.1100006l2.6100006,1.4899979
		l4,2.3000031c0.1000061,0,0.2299957,0.0899963,0.2799988,0.1699982s0.1999969,0.3199997,0.1600037,0.4300003
		S103.8222198,51.522686,103.692215,51.61269z"/>
	<path class="st9" d="M86.3622131,53.3826866c-0.0534973,0.1198959-0.1135864,0.2367401-0.1799927,0.3499985l-3.6999969,6.4199982
		c-0.0599976,0.1100006-0.1300049,0.25-0.2200012,0.2899933c-0.1407623,0.0588837-0.2992401,0.0588837-0.4400024,0
		c-0.0899963-0.0700073-0.1100006-0.2700043-0.1199951-0.4199982s0.0800018-0.1699982,0.1300049-0.2599945l3.7299805-6.3099976
		c0.0395813-0.1020584,0.1010132-0.1942139,0.1799927-0.2699966c0.1195831-0.0733795,0.2613983-0.101738,0.3999939-0.0800018
		C86.262207,53.1026878,86.3622131,53.272686,86.3622131,53.3826866z"/>
	<path class="st9" d="M76.0222168,44.4526863h-3.6600037c-0.1100006,0-0.25,0-0.3200073,0
		c-0.128891-0.0784149-0.2221527-0.2039566-0.2599945-0.3499985c0.0341339-0.1343994,0.1205444-0.2496033,0.2400055-0.3199997
		c0.1213989-0.030899,0.2485962-0.030899,0.3699951,0h7.1900024c0.1100006,0,0.25,0,0.3300018,0
		s0.2700043,0.2200012,0.2700043,0.3300018s-0.1399994,0.2699966-0.2599945,0.3499985
		c-0.108429,0.0262985-0.2215729,0.0262985-0.3300018,0L76.0222168,44.4526863z"/>
	<path class="st9" d="M93.3622131,46.9926872c0.1082764,0.0649109,0.2032776,0.1497421,0.2799988,0.25
		c1.2700043,2.1600037,2,3.4599991,3.2799988,5.6200027c0.1300049,0.2099991,0.1499939,0.4400024-0.1000061,0.5699997
		s-0.4299927,0-0.5500031-0.2200012c-0.3099976-0.5199966-0.1199951-0.1900024-0.4199982-0.7099991
		c-0.9199982-1.5666656-1.8333282-3.1366653-2.7400055-4.7099991c-0.0644836-0.1057892-0.1212921-0.2160797-0.1699982-0.3300018
		C92.8522186,47.2126884,93.012207,46.9926872,93.3622131,46.9926872z"/>
	<path class="st9" d="M97.7022095,33.8426857c-0.0489655,0.1444702-0.1091461,0.2848969-0.1799927,0.4199982l-3.3000031,5.7099991
		c-0.0599976,0.0999985-0.1100006,0.2300034-0.1999969,0.2600021s-0.3500061,0.1200027-0.4499969,0.0599976
		s-0.1000061-0.2900009-0.1199951-0.4499969s0-0.1100006,0.0800018-0.1600037l3.3500061-5.8499985
		c0-0.0699997,0.0700073-0.1600037,0.1199951-0.1900024s0.3000031-0.1600037,0.4199982-0.1299973
		S97.6122131,33.7326851,97.7022095,33.8426857z"/>
	<path class="st9" d="M101.5622101,38.6026878c-0.1000061-0.0800018-0.2599945-0.1299973-0.3000031-0.2300034
		c-0.043457-0.1297913-0.043457-0.2702103,0-0.4000015c0-0.0899963,0.1699982-0.1399994,0.2700043-0.1999969l5.5599976-3.1999969
		c0.0800018-0.0500031,0.1799927-0.1399994,0.2599945-0.1299973s0.3399963,0.0599976,0.3999939,0.1600037s0,0.3000031,0,0.4300003
		s-0.1699982,0.1299973-0.2599945,0.1900024l-5.519989,3.2299881
		C101.8522186,38.4526863,101.7222137,38.522686,101.5622101,38.6026878z"/>
	<path class="st9" d="M91.0222168,26.7626858c0-0.9000015,0-1.8000031,0-2.7099991c0-0.25,0-0.4800034,0.3699951-0.4800034
		s0.3600006,0.25,0.3600006,0.4899979v5.390007c0,0.2600021-0.0599976,0.4899979-0.3699951,0.4899979
		s-0.3600006-0.2399979-0.3600006-0.5C91.0322113,28.5426846,91.0222168,27.6526852,91.0222168,26.7626858z"/>
	<path class="st9" d="M91.7522125,35.022686v2.2600021c0,0.2699966,0,0.5299988-0.3899994,0.5100021
		s-0.3399963-0.25-0.3399963-0.5100021v-4.5899963c0-0.2600021,0-0.4899979,0.3600006-0.4899979
		s0.3699951,0.2399979,0.3699951,0.4899979V35.022686z"/>
	<path class="st9" d="M91.0222168,59.0226936c0-0.4799957,0-1,0-1.4499969c0-0.2400055,0.0800018-0.4199982,0.3399963-0.4299927
		s0.3800049,0.1699982,0.3800049,0.4100037c0,1,0,2,0,3c0,0.2400055-0.1100006,0.3999939-0.3800049,0.3899994
		c-0.1932678-0.00354-0.3470764-0.1630859-0.3435364-0.3563538c0.0002747-0.0146027,0.0014496-0.0291748,0.00354-0.0436401
		V59.0226936z"/>
	<path class="st9" d="M84.262207,44.4526863H82.962204c-0.2599945,0-0.4799957-0.0500031-0.4799957-0.3799973
		s0.2200012-0.3499985,0.4600067-0.3499985h2.7100067c0.2599945,0,0.4600067,0.0899963,0.4499969,0.3700027
		s-0.2100067,0.3600006-0.4700012,0.3600006C85.1822205,44.4526863,84.7222137,44.4526863,84.262207,44.4526863z"/>
	<path class="st9" d="M96.9622192,40.5626869c0.0592804-0.0977936,0.1374664-0.182785,0.2299957-0.25
		c0.6799927-0.4100037,1.3600006-0.7900009,2-1.1800003c0.2200012-0.1299973,0.4400024-0.1399994,0.5700073,0.0999985
		s0,0.4100037-0.1900024,0.5299988c-0.6900024,0.4000015-1.3800049,0.8099976-2.0800018,1.1900024
		C97.2322083,41.1226845,96.9522095,40.9626884,96.9622192,40.5626869z"/>
	<path class="st9" d="M87.7822113,49.6226845c0.0700073-0.1500015,0.1000061-0.2399979,0.1399994-0.3199997
		c0.3500061-0.5999985,0.6999969-1.1999969,1-1.8000031c0.1300049-0.2200012,0.3000031-0.4000015,0.5599976-0.2600021
		s0.2299957,0.4000015,0.0899963,0.6399994c-0.3600006,0.6100006-0.6900024,1.2300034-1.0700073,1.8199997
		c-0.124115,0.1360092-0.2962189,0.2184753-0.4799957,0.2300034C87.9722137,49.9426842,87.8722076,49.7326851,87.7822113,49.6226845
		z"/>
	<path class="st9" d="M91.0322113,54.2026863c-0.0250702-0.2694168-0.0250702-0.5405807,0-0.8099976
		c0-0.1399994,0.2100067-0.3499985,0.3200073-0.3499985c0.1672363,0.0306168,0.3049011,0.1491547,0.3600006,0.3099976
		c0.0399933,0.5659637,0.0399933,1.1340332,0,1.6999969c-0.0585327,0.1584854-0.1945801,0.2756348-0.3600006,0.3099976
		c-0.1100006,0-0.2899933-0.2099991-0.3200073-0.3499985C91.0071411,54.7432671,91.0071411,54.4721031,91.0322113,54.2026863z"/>
	<path class="st9" d="M91.0322113,50.8226891c0-0.1200027,0-0.2699966,0-0.3600006s0.1999969-0.3099976,0.3399963-0.3399963
		s0.3099976,0.1699982,0.3399963,0.2799988c0.049942,0.2811356,0.049942,0.5688629,0,0.8499985
		c-0.0585785,0.1489334-0.1918488,0.2555466-0.3500061,0.2799988c-0.1199951,0-0.2599945-0.1699982-0.3300018-0.3000031
		s0-0.2699966,0-0.4100037L91.0322113,50.8226891z"/>
	<path class="st7" d="M105.9522095,52.9526863c-0.2474518-0.1497269-0.4816437-0.320343-0.6999969-0.5100021
		c-0.0657806-0.1216736-0.0657806-0.2683258,0-0.3899994c0.0959473-0.1000214,0.2318726-0.1514587,0.3699951-0.1399994
		c0.2324524,0.0896225,0.4461212,0.2218933,0.6300049,0.3899994c0.0853577,0.1111984,0.1079865,0.2582932,0.0599976,0.3899994
		C106.2722168,52.8026848,106.1022186,52.8526878,105.9522095,52.9526863z"/>
	<path class="st2" d="M157.1122131,276.6626892c1.5500031,0,3.2299957-1.1400146,3.1600037-2.7000122
		s-1.5899963-2.4400024-2.4700012-3.6499939s-1-3,0.1999969-3.8399963c0.841629-0.4444275,1.8407593-0.4776001,2.7100067-0.0899963
		c0.8511658,0.3955688,1.7479706,0.6844177,2.6699982,0.8599854c0.9521027,0.1581421,1.8879089-0.3594666,2.2599945-1.25
		c0.1113129-0.7082825-0.1185455-1.4275513-0.6199951-1.9400024c-0.4974976-0.495575-0.9618378-1.023407-1.3899994-1.5799866
		c-0.8951569-1.6187134-0.4299927-3.6516418,1.0800018-4.7200012c1.5374146-0.9628296,3.49823-0.9275513,5,0.0899963
		c0.6201172,0.3862915,1.1002197,0.9610291,1.3699951,1.6400146c0.230011,0.6799927,0.3399963,2.0700073-0.3800049,2
		s-1-1.2099915-1.6100006-1.5700073c-0.6579132-0.4051514-1.4977875-0.3613586-2.1100006,0.1099854
		c-0.5720978,0.6890564-0.6596069,1.6596985-0.2200012,2.4400024c0.3600006,0.7999878,0.9499969,1.4899902,1.2400055,2.3099976
		c0.6420593,1.8173828-0.3107452,3.8111572-2.1281433,4.4532166c-0.7648926,0.2702332-1.6000366,0.265564-2.3618622-0.0132141
		c-0.4148407-0.1980896-0.8465576-0.3587341-1.2899933-0.480011c-0.4593048-0.1153564-0.9412079,0.0733948-1.1999969,0.4700012
		c-0.3200073,0.6900024,0.4600067,1.3399963,1,1.8599854c1.4817505,1.5362549,1.7212982,3.8863831,0.5800018,5.6900024
		c-1.2012787,1.7426758-3.2679749,2.677887-5.3699951,2.4299927c-0.9675598-0.1173706-1.8985901-0.4413452-2.7299957-0.9500122
		c-0.5700073-0.3399963-2.2700043-1.4200134-2.3200073-2.1600037c-0.1100006-1.3200073,1.3200073-0.6700134,1.8399963-0.3999939
		C154.9543152,276.253479,156.0161133,276.593689,157.1122131,276.6626892z"/>
	<path class="st2" d="M150.8922119,274.3627014c1.0857849,0.3662109,2.2724457,0.2870789,3.3000031-0.2200012
		c1.0357819-0.5403442,1.6022034-1.6893921,1.3999939-2.8399963c-0.4008179-0.9289551-1.0138855-1.750946-1.7899933-2.3999939
		c-0.8233643-0.8551941-1.2884827-1.9929199-1.3000031-3.1799927c0.0098572-1.2076416,0.7849884-2.2759705,1.9299927-2.6600037
		c0.9522095-0.1607666,1.9307251,0.0123291,2.7700043,0.4899902c0.8326721,0.4795227,1.7551575,0.7825012,2.7100067,0.8900146
		c0.9828644,0.0630798,1.8653412-0.5987854,2.0800018-1.5599976c-0.0434875-0.6688843-0.2992249-1.3064575-0.7299957-1.8200073
		c-1-1.4599915-1.5899963-3.4899902-0.5200043-4.8599854c0.6051788-0.703476,1.482193-1.1146698,2.4100037-1.1300201
		c0.9135895-0.0035095,1.8195801,0.1661377,2.6699982,0.5c0.3860931,0.1947632,0.827301,0.2512512,1.25,0.1600037
		c0.6059113-0.3191833,0.8383484-1.0690918,0.519165-1.6750183c-0.0152588-0.0289612-0.031662-0.057312-0.0491638-0.0849915
		c-0.4013062-0.5767517-0.9923248-0.9943542-1.6699982-1.1799927c-1.8251038-0.7919312-3.8860931-0.8456726-5.75-0.1499939
		c-1.8795929,0.7664185-2.9497833,2.7599182-2.5500031,4.7500153c0.1900024,0.6600037,0.5800018,1.25,0.7899933,1.8999939
		c0.2679901,0.6518555,0.1355286,1.3998108-0.3399963,1.9200134c-0.5844269,0.3849792-1.3325958,0.4194946-1.9499969,0.0899963
		c-0.6022186-0.3360291-1.2350769-0.6139526-1.8899994-0.8299866c-1.5146637-0.1721497-2.9362946,0.7615967-3.3800049,2.2200012
		c-0.3911591,1.4364014-0.2417145,2.9664307,0.4199982,4.2999878c0.526001,0.9251099,0.8657227,1.9443054,1,3
		c0,1.0499878-0.7700043,2.230011-1.8200073,2.1300049c-0.4924622-0.1098633-0.9603271-0.309906-1.3800049-0.5899963
		c-0.9400024-0.4700012-2.2400055,0.1300049-1.4199982,1.2200012
		C148.1822205,273.4526978,150.0222168,274.1026917,150.8922119,274.3627014z"/>
</g>
</svg>
