<svg width="246" height="214" viewBox="0 0 246 214" fill="none" xmlns="http://www.w3.org/2000/svg">
<path d="M141.836 13.1505C141.836 13.1505 143.004 7.41775 138.508 5.6875C138.508 5.6875 135.874 9.95405 141.836 13.1505Z" fill="#BA70A1"/>
<path d="M124.789 12.8224C128.521 10.1401 134.733 0.884361 126.554 3.60828C126.109 3.75421 126.596 4.14334 126.554 3.60828C126.318 0.613359 121.335 -5.68918 122.906 11.7453C122.996 12.8015 124.011 13.3852 124.789 12.8224Z" fill="#9CD7C6"/>
<path d="M151.921 207.654C151.921 207.654 160.294 210.816 163.039 202.352C163.039 202.352 156.896 196.578 151.921 207.654Z" fill="#F3AC5F"/>
<path d="M126.283 186.898C126.283 186.898 123.9 191.763 127.527 194.368C127.527 194.368 130.883 191.172 126.283 186.898Z" fill="#C2364C"/>
<path d="M73.1411 192.624C73.1411 192.624 67.9643 190.657 66.241 195.89C66.241 195.89 70.035 199.468 73.1411 192.624Z" fill="#80B957"/>
<g opacity="0.839996">
<g opacity="0.839996">
<path opacity="0.839996" d="M85.6583 199.413C92.6071 194.327 104.191 177.928 89.0424 183.528C88.2155 183.834 89.1119 184.459 89.0424 183.528C88.688 178.31 79.7658 167.359 82.2117 197.725C82.2116 198.128 82.3249 198.523 82.5386 198.864C82.7523 199.206 83.0579 199.48 83.4203 199.657C83.7828 199.833 84.1875 199.903 84.5882 199.86C84.9889 199.817 85.3693 199.662 85.6861 199.413" fill="#C2364C"/>
</g>
</g>
<path d="M141.731 208.923C141.877 204.427 138.799 194.372 136.284 202.53C136.145 202.975 136.68 202.781 136.284 202.53C134.081 201.141 127.028 201.835 139.973 209.889C140.146 210.003 140.346 210.068 140.552 210.077C140.758 210.085 140.963 210.037 141.144 209.938C141.325 209.838 141.476 209.691 141.579 209.512C141.683 209.333 141.735 209.13 141.731 208.923Z" fill="#4F8F93"/>
<path d="M195.311 182.053C192.205 180.441 181.997 176.647 189.655 184.77C189.94 185.076 189.961 184.492 189.655 184.77C186.361 187.793 186.875 192.289 195.533 184.075C195.675 183.936 195.783 183.767 195.85 183.58C195.917 183.393 195.94 183.194 195.919 182.996C195.898 182.799 195.832 182.609 195.727 182.441C195.621 182.273 195.479 182.131 195.311 182.025" fill="#DB8080"/>
<path d="M182.208 184.236C182.263 183.88 182.418 183.548 182.656 183.279C182.894 183.009 183.204 182.814 183.55 182.716C183.896 182.618 184.263 182.621 184.607 182.725C184.951 182.829 185.258 183.03 185.491 183.304C185.724 183.577 185.873 183.912 185.922 184.268C185.97 184.625 185.915 184.987 185.763 185.313C185.611 185.639 185.369 185.914 185.065 186.106C184.762 186.298 184.409 186.399 184.05 186.397C183.519 186.354 183.027 186.103 182.682 185.698C182.336 185.292 182.166 184.766 182.208 184.236Z" fill="#DB8080"/>
<path d="M189.177 58.8567C191.324 56.8972 197.467 50.1847 189.664 54.3331C189.372 54.486 189.712 54.5972 189.664 54.3331C189.073 51.4563 186.154 51.0741 187.85 58.6761C187.975 59.2042 188.684 59.3084 189.177 58.8567Z" fill="#A7CDD6"/>
<path d="M74.5124 177.412C74.832 174.514 75.0266 165.425 71.8927 173.688C71.7745 173.993 72.1081 173.854 71.8927 173.688C69.5509 171.916 67.105 173.549 73.3936 178.142C73.8383 178.461 74.4429 178.072 74.5124 177.412Z" fill="#A7CDD6"/>
<path d="M128.926 212.523C128.85 212.356 127.286 208.84 123.582 207.826C123.812 207.895 124.277 207.666 124.479 207.576C124.811 207.434 125.126 207.255 125.417 207.041C125.696 206.839 125.95 206.606 126.174 206.346C126.391 206.04 126.492 205.666 126.457 205.293C126.423 204.92 126.256 204.571 125.987 204.31C125.229 203.358 124.006 203.698 123.096 204.157C122.661 204.393 122.245 204.662 121.852 204.963C121.852 204.963 123.242 199.578 120.462 200.245C118.906 200.62 119.149 202.489 119.643 203.858C119.865 204.456 120.157 205.012 120.428 205.602C119.66 204.222 118.628 203.006 117.391 202.024C117.183 201.845 116.938 201.717 116.673 201.647C116.408 201.577 116.131 201.568 115.862 201.621C115.42 201.812 115.067 202.165 114.876 202.607C114.664 202.997 114.559 203.436 114.57 203.879C114.615 204.305 114.759 204.715 114.989 205.077C115.219 205.439 115.53 205.742 115.897 205.964C117.025 206.754 118.409 207.093 119.775 206.916C119.158 207.124 118.58 207.434 118.065 207.833C117.581 208.131 117.127 208.475 116.71 208.861C115.939 209.598 115.828 210.439 116.863 210.946C116.926 210.982 116.994 211.007 117.065 211.022H117.099C117.408 211.162 117.74 211.245 118.079 211.265C119.844 211.328 120.122 209.118 120.685 208.736C120.574 209.817 120.671 210.909 120.97 211.953C121.018 212.065 121.067 212.169 121.109 212.273C121.216 212.561 121.417 212.806 121.679 212.968C122.193 213.232 122.637 212.968 123.103 212.711C123.208 212.654 123.302 212.578 123.381 212.488C123.798 212.065 124.375 210.967 122.637 208.736C126.293 209.535 127.891 213.135 127.912 213.176C127.935 213.227 127.972 213.27 128.019 213.299C128.066 213.329 128.12 213.344 128.176 213.343C128.203 213.351 128.232 213.351 128.259 213.343C128.368 213.338 128.473 213.304 128.565 213.246C128.688 213.191 128.79 213.096 128.852 212.976C128.914 212.856 128.933 212.718 128.905 212.586L128.926 212.523ZM120.358 207.027C120.369 206.85 120.447 206.684 120.576 206.562C120.705 206.441 120.876 206.373 121.053 206.374C121.237 206.374 121.414 206.447 121.544 206.577C121.675 206.707 121.748 206.884 121.748 207.068C121.748 207.253 121.675 207.429 121.544 207.56C121.414 207.69 121.237 207.763 121.053 207.763C120.869 207.763 120.692 207.69 120.562 207.56C120.431 207.429 120.358 207.253 120.358 207.068" fill="#BA70A1"/>
<path d="M205.963 53.2716C205.963 53.2716 206.831 41.3683 197.506 39.5547C197.506 39.5547 193.378 49.0676 205.963 53.2716Z" fill="#E7BC2F"/>
<path d="M104.457 211.328C104.457 211.328 104.339 201.551 96.8136 201.273C96.8136 201.273 94.1939 209.536 104.457 211.328Z" fill="#AFD697"/>
<path d="M48.2332 55.5146C48.7335 50.7755 48.6223 35.5299 42.5699 48.1211C42.3406 48.5867 43.0216 48.4894 42.5699 48.1211C37.5946 44.1255 32.5984 45.8349 45.947 56.272C46.8782 57.0016 48.1151 56.5986 48.2332 55.5146Z" fill="#DB8080"/>
<path d="M165.188 20.181C167.488 10.6751 168.461 -8.73977 159.851 7.52732C159.379 8.41676 160.546 8.2222 159.851 7.52732C156.127 3.57346 139.318 -1.23509 161.283 21.4805C162.61 22.8702 164.709 22.1753 165.188 20.181Z" fill="#DB8080"/>
<path d="M158.01 50.8796C157.977 51.1873 157.856 51.4789 157.661 51.7195C157.466 51.9601 157.206 52.1395 156.912 52.2364C156.618 52.3333 156.303 52.3435 156.003 52.2657C155.703 52.188 155.432 52.0257 155.223 51.7981C155.013 51.5706 154.873 51.2875 154.82 50.9825C154.766 50.6776 154.802 50.3638 154.922 50.0786C155.043 49.7934 155.243 49.5489 155.498 49.3743C155.754 49.1996 156.054 49.1022 156.364 49.0938C156.816 49.1189 157.242 49.3194 157.549 49.6528C157.856 49.9862 158.022 50.4262 158.01 50.8796Z" fill="#F3AC5F"/>
<path d="M129.331 30.7161C129.331 30.7161 136.349 34.9757 136.523 30.0212C136.523 30.0212 137.399 25.303 128.935 28.1103C129.63 27.8393 139.032 24.0313 135.71 20.001C132.236 15.8318 127.782 22.3428 127.434 26.4843C127.372 26.0395 125.947 15.7831 122.966 20.1261C119.985 24.4691 124.134 26.1229 124.523 27.4154C124.523 27.4154 116.497 24.6776 117.998 30.1324C117.998 30.1324 118.575 33.6832 123.772 30.7577C122.442 33.7569 120.059 36.1647 117.074 37.5259C116.54 37.7904 115.982 38 115.406 38.1512C115.079 38.2346 114.906 38.7211 115.017 39.2422C115.057 39.4419 115.143 39.6297 115.267 39.7912C115.324 39.8825 115.406 39.9555 115.503 40.0011C115.601 40.0468 115.709 40.0631 115.816 40.0483C117.366 39.6037 118.823 38.8834 120.117 37.9219C122.002 36.5527 123.522 34.7417 124.544 32.6478C124.424 33.6848 124.531 34.7354 124.856 35.7274C125.181 36.7193 125.717 37.6292 126.427 38.3945C126.427 38.3945 132.159 39.2283 129.331 30.6883V30.7161ZM127.052 29.5C126.907 29.4863 126.767 29.4443 126.638 29.3763C126.51 29.3083 126.396 29.2157 126.304 29.1037C126.211 28.9918 126.142 28.8627 126.099 28.7238C126.056 28.585 126.041 28.439 126.055 28.2944C126.069 28.1498 126.111 28.0093 126.179 27.8809C126.247 27.7525 126.339 27.6387 126.451 27.5461C126.563 27.4536 126.692 27.3839 126.831 27.3412C126.97 27.2985 127.116 27.2836 127.261 27.2973C127.556 27.3255 127.829 27.4688 128.02 27.6963C128.211 27.9237 128.305 28.2171 128.282 28.5133C128.266 28.659 128.222 28.8002 128.152 28.9288C128.082 29.0573 127.986 29.1707 127.872 29.2624C127.758 29.3541 127.627 29.4223 127.486 29.4631C127.345 29.5039 127.198 29.5164 127.052 29.5Z" fill="#A7CDD6"/>
<path d="M55.5743 54.0436C59.0486 49.0752 58.9444 50.2704 58.9444 50.2704C57.8534 51.0764 56.7903 53.0499 56.1649 54.3563C57.513 54.4536 60.8206 54.0366 60.7372 47.5117C60.7372 47.5117 55.06 48.3456 55.5882 54.0436" fill="#9ABC5B"/>
<path d="M180.921 56.1608L177.363 48.9549C178.494 47.9961 179.395 46.7942 179.996 45.4388C182.116 40.6928 180.316 35.1685 175.98 33.1047C171.644 31.0409 166.398 33.2089 164.278 37.9689C162.159 42.7288 163.959 48.2392 168.302 50.3029C169.479 50.8557 170.77 51.1212 172.07 51.0777C173.37 51.0342 174.641 50.6829 175.779 50.0528L179.253 57.1475C179.306 57.2578 179.381 57.3556 179.475 57.4347C179.568 57.5138 179.677 57.5723 179.794 57.6064C179.911 57.6405 180.035 57.6495 180.156 57.6326C180.277 57.6158 180.393 57.5736 180.497 57.5088C180.674 57.4003 180.815 57.2403 180.9 57.0502C180.965 56.911 180.999 56.7592 180.999 56.6055C180.999 56.4518 180.965 56.3 180.9 56.1608H180.921ZM176.286 47.7111C175.733 48.2326 175.105 48.6683 174.424 49.0035V49.0383C173.839 49.3058 173.226 49.5063 172.596 49.6359C171.484 49.8458 170.333 49.7074 169.302 49.2398C168.754 48.992 168.251 48.6537 167.815 48.2392C167.347 47.7983 166.968 47.2724 166.697 46.6896C166.148 45.4374 166.04 44.0362 166.391 42.7149C166.736 41.3615 167.512 40.1569 168.6 39.2822C169.128 38.8533 169.747 38.5528 170.411 38.4044C171.074 38.2561 171.763 38.264 172.422 38.4275C173.03 38.6041 173.581 38.9372 174.021 39.3934C174.497 39.878 174.814 40.496 174.931 41.1653C175.05 41.8253 174.997 42.5048 174.778 43.1387C174.559 43.7725 174.181 44.3396 173.68 44.7856C173.588 44.8715 173.48 44.9375 173.361 44.9794C173.243 45.0212 173.117 45.0382 172.992 45.029C172.866 45.0199 172.744 44.9849 172.633 44.9263C172.522 44.8676 172.424 44.7866 172.346 44.6883C172.196 44.4759 172.131 44.2144 172.166 43.9565C172.201 43.6986 172.332 43.4635 172.533 43.2986C172.752 43.0893 172.915 42.8297 173.01 42.5426C173.104 42.2555 173.127 41.9496 173.075 41.6517C173.017 41.345 172.87 41.0623 172.652 40.8387C172.423 40.5983 172.135 40.4211 171.818 40.3245C171.449 40.2397 171.066 40.24 170.698 40.3255C170.329 40.411 169.985 40.5794 169.691 40.8179C168.973 41.3917 168.467 42.1889 168.253 43.0832C168.016 43.9581 168.087 44.8881 168.455 45.7167C168.615 46.0946 168.851 46.4352 169.149 46.7174C169.45 47.0065 169.798 47.2415 170.178 47.4122C170.954 47.7412 171.813 47.8237 172.638 47.6485C173.539 47.4296 174.366 46.9766 175.035 46.3352C175.711 45.6572 176.244 44.8501 176.602 43.962C176.961 43.0738 177.136 42.1228 177.12 41.1653C177.098 40.278 176.872 39.4077 176.46 38.622C176.064 37.9173 175.507 37.317 174.834 36.871C174.181 36.4418 173.443 36.1577 172.671 36.0379C171.899 35.918 171.111 35.9651 170.359 36.1761C168.844 36.5861 167.787 37.7673 166.94 39.1015C166.875 39.2063 166.79 39.2972 166.689 39.3689C166.589 39.4406 166.476 39.4917 166.355 39.5191C166.235 39.5466 166.111 39.5499 165.989 39.5288C165.868 39.5078 165.752 39.4629 165.648 39.3966C165.544 39.3304 165.454 39.2441 165.384 39.1429C165.313 39.0417 165.264 38.9275 165.238 38.8069C165.212 38.6864 165.21 38.5619 165.233 38.4407C165.255 38.3195 165.302 38.204 165.369 38.1009C166.516 36.3012 167.982 34.8141 170.018 34.2652C171.631 33.8276 173.345 33.9475 174.882 34.6057C175.249 34.7644 175.598 34.9599 175.924 35.1894C176.837 35.7878 177.589 36.6015 178.113 37.5589C178.661 38.6 178.963 39.7529 178.996 40.929C179.028 42.1894 178.801 43.4429 178.329 44.6119C177.857 45.7809 177.15 46.8405 176.251 47.7249" fill="#F2D251"/>
<path d="M147.775 44.3335C147.793 44.378 147.816 44.42 147.845 44.4586V44.5003L147.893 44.403L147.74 44.3335H147.775ZM149.769 22.7923C139.965 22.5004 143.335 42.1794 143.335 42.1794C143.361 42.196 143.389 42.21 143.418 42.2211C143.41 42.1938 143.41 42.1649 143.418 42.1377C143.724 29.9912 147.852 24.6407 149.783 22.7923H149.769ZM147.99 44.5767C147.942 44.5486 147.897 44.5135 147.858 44.4725L146.677 46.835L143.515 45.2229L144.613 42.8117C144.968 42.9854 145.308 43.1661 145.677 43.3329C147.191 36.6273 152.625 24.9881 153.265 23.5914C152.618 23.3368 151.951 23.1392 151.27 23.0007C145.107 30.422 144.433 41.9848 144.426 42.1029C144.422 42.2251 144.386 42.344 144.321 42.4477C144.256 42.5514 144.165 42.6362 144.057 42.6936L143.036 45.084C142.922 45.0919 142.812 45.1303 142.718 45.1951C142.624 45.2599 142.549 45.3487 142.501 45.4522L141.327 47.9469C141.281 48.0305 141.253 48.1228 141.244 48.2179C141.235 48.3129 141.246 48.4088 141.276 48.4994C141.306 48.59 141.354 48.6735 141.418 48.7446C141.482 48.8157 141.559 48.873 141.646 48.9127L145.197 50.5596C145.274 50.5946 145.357 50.6136 145.441 50.6153C145.526 50.617 145.609 50.6014 145.688 50.5695C145.766 50.5376 145.836 50.4901 145.895 50.4298C145.955 50.3695 146.001 50.2978 146.031 50.2191L147.08 47.8426C147.125 47.742 147.145 47.6322 147.139 47.5223C147.133 47.4123 147.101 47.3054 147.045 47.2103L148.366 44.6531C148.247 44.6846 148.12 44.6697 148.011 44.6114L147.99 44.5767ZM154.133 23.9388C152.104 30.3178 146.608 43.4857 146.552 43.6178C146.538 43.6524 146.519 43.6851 146.497 43.7151L147.775 44.3265C147.733 44.2095 147.723 44.0833 147.746 43.961C147.769 43.8388 147.825 43.7251 147.907 43.6317C147.99 43.5552 155.669 35.7587 156.211 25.9192C156.218 25.7524 156.29 25.5951 156.412 25.4815C155.703 24.903 154.94 24.3934 154.133 23.9597V23.9388ZM147.775 44.3474C147.793 44.3919 147.816 44.4339 147.845 44.4725V44.5142L147.893 44.4169L147.74 44.3474H147.775ZM157.413 26.3917C157.691 28.5806 157.774 35.9463 148.637 44.5142C148.584 44.5671 148.52 44.6074 148.449 44.6323L148.574 44.6948C148.574 44.6948 164.431 34.1049 157.413 26.3917ZM147.81 44.3335C147.828 44.378 147.851 44.42 147.879 44.4586V44.5003L147.928 44.403L147.775 44.3335H147.81ZM147.775 44.3335C147.793 44.378 147.816 44.42 147.845 44.4586V44.5003L147.893 44.403L147.74 44.3335H147.775ZM147.74 44.3335C147.758 44.378 147.781 44.42 147.81 44.4586V44.5003L147.858 44.403L147.706 44.3335H147.74ZM148.31 44.6184H148.359H148.324H148.31ZM156.357 25.4676L157.323 26.3917C157.026 26.0579 156.703 25.7488 156.357 25.4676Z" fill="#4F8F93"/>
<path d="M191.626 30.6804L192.627 29.5269C192.638 29.5121 192.645 29.4937 192.645 29.4748C192.645 29.4558 192.638 29.4374 192.627 29.4226L180.181 16.7689C180.168 16.7562 180.151 16.7491 180.133 16.7491C180.115 16.7491 180.097 16.7562 180.084 16.7689L178.458 18.652C177.778 17.3117 177.174 15.9336 176.651 14.5245C175.713 11.6129 173.969 14.2535 173.969 14.2535C171.885 13.2181 172.698 16.491 172.698 16.491C169.96 18.0197 174.727 20.4309 176.297 21.1536L174.977 22.6823C174.965 22.6971 174.958 22.7155 174.958 22.7344C174.958 22.7534 174.965 22.7718 174.977 22.7866L187.422 35.4333C187.435 35.4461 187.452 35.4532 187.471 35.4532C187.489 35.4532 187.506 35.4461 187.519 35.4333L188.812 33.9255C189.402 35.2457 189.917 36.6285 189.917 36.6285C190.862 39.547 192.599 36.9065 192.599 36.9065C194.683 37.9349 193.877 34.669 193.877 34.669C196.032 33.4668 193.544 31.7157 191.619 30.6734" fill="#78AE3F"/>
<path d="M184.073 20.7344L175.735 23.5695L175.631 23.4652C175.438 23.2678 175.327 23.0053 175.32 22.7299C175.312 22.4544 175.408 22.1861 175.589 21.9782L175.839 21.6933L182.698 19.3516L184.073 20.7344Z" fill="#AFD697"/>
<path d="M187.178 23.8876L178.853 26.7296L177.491 25.3468L185.816 22.5117L187.178 23.8876Z" fill="#AFD697"/>
<path d="M190.428 27.1797L182.103 30.0148L180.741 28.632L189.066 25.7969L190.428 27.1797Z" fill="#AFD697"/>
<path d="M191.22 31.1537L185.209 33.1966L183.819 31.8069L192.081 29.0273C192.189 29.2228 192.235 29.4466 192.213 29.6688C192.191 29.891 192.101 30.1012 191.956 30.2712L191.22 31.1537Z" fill="#AFD697"/>
<g opacity="0.839996">
<g opacity="0.839996">
<path opacity="0.839996" d="M105.897 32.9741C107.148 29.2913 103.937 32.724 102.909 33.8775C102.706 33.5402 102.473 33.2217 102.214 32.9255C101.978 32.6487 101.725 32.3865 101.457 32.1403C101.065 31.7804 100.639 31.4592 100.185 31.1813C99.7349 30.8936 99.252 30.6603 98.7467 30.4865C98.3407 30.3489 97.9215 30.2534 97.4959 30.2016C96.92 30.1262 96.3356 30.1449 95.7657 30.2572C95.2842 30.3442 94.8166 30.4961 94.3759 30.7088C93.8871 30.9436 93.4334 31.2453 93.0279 31.6052C92.9375 31.6747 92.8541 31.7511 92.7777 31.8206L92.736 31.8623C92.1607 32.3884 91.6582 32.989 91.242 33.6482C90.9948 34.0429 90.7742 34.4538 90.5819 34.8781C90.4777 35.1074 90.3804 35.3367 90.29 35.573C90.29 35.573 90.2553 35.6564 90.2345 35.7119L86.8435 34.3986C84.9742 34.1415 86.8435 36.525 86.8435 36.525C84.3072 37.9147 87.316 38.4498 87.316 38.4498C85.9679 42.4245 89.8036 38.1162 90.4985 37.3241C90.5888 37.47 90.6861 37.609 90.7904 37.7479C90.8946 37.8869 91.0961 38.1371 91.242 38.3038C91.388 38.4706 91.5061 38.5887 91.6451 38.7277C92.1114 39.1855 92.6263 39.591 93.1807 39.9368C93.58 40.1858 94.0038 40.393 94.4454 40.5552C94.8025 40.6955 95.1726 40.8003 95.5503 40.8679C95.9169 40.9343 96.2898 40.96 96.6621 40.9444C96.9667 40.9398 97.2698 40.9001 97.5654 40.8262C98.1324 40.6935 98.6759 40.4757 99.1775 40.18C99.6023 39.9399 100.001 39.6558 100.366 39.3323L100.644 39.0821C101.657 38.1397 102.451 36.987 102.972 35.705L106.342 37.0044C108.204 37.2615 106.342 34.8781 106.342 34.8781C108.878 33.4883 105.869 32.9533 105.869 32.9533" fill="#C2364C"/>
</g>
</g>
<path d="M101.484 32.1347C101.484 34.129 101.172 37.527 99.233 40.1953C98.7314 40.4909 98.1878 40.7088 97.6209 40.8415C97.3253 40.9154 97.0222 40.955 96.7175 40.9597C100.317 38.1802 100.317 32.8643 100.192 31.1758C100.646 31.4537 101.072 31.7748 101.464 32.1347" fill="#DB8080"/>
<path d="M98.7791 30.5006C98.5359 33.5511 97.5979 37.7134 94.5056 40.5694C94.0634 40.4086 93.6395 40.2013 93.241 39.9509C96.4096 37.3521 97.3199 33.1828 97.5284 30.2227C97.954 30.2745 98.3731 30.37 98.7791 30.5076" fill="#DB8080"/>
<path d="M95.7979 30.2695C95.3106 33.4386 93.885 36.3889 91.705 38.7401C91.5661 38.6011 91.434 38.4621 91.302 38.3162C91.17 38.1703 90.9963 37.9549 90.8503 37.7603C92.6665 35.7896 93.8984 33.3523 94.4081 30.7212C94.8488 30.5085 95.3163 30.3566 95.7979 30.2695Z" fill="#DB8080"/>
<path d="M60.365 179.685C60.497 179.245 60.5923 178.794 60.65 178.337C60.7017 177.904 60.7296 177.468 60.7333 177.031C60.7368 176.384 60.6833 175.737 60.5735 175.099C60.4664 174.456 60.2941 173.825 60.0593 173.216C59.8731 172.732 59.6404 172.266 59.3644 171.826C59.0038 171.224 58.5566 170.679 58.0372 170.207C57.6189 169.815 57.1518 169.479 56.6474 169.207C56.1039 168.913 55.5213 168.697 54.9172 168.567L54.5767 168.477H54.5072C53.665 168.314 52.8033 168.277 51.9501 168.366C51.4476 168.417 50.9502 168.51 50.463 168.644C50.199 168.706 49.9349 168.79 49.6709 168.873L49.525 168.922L48.0866 164.697C46.9192 162.71 46.3702 166.302 46.3702 166.302C43.3961 164.857 45.1542 168.171 45.1542 168.171C40.9154 169.818 47.2388 170.318 48.4201 170.395C48.3715 170.589 48.3298 170.791 48.295 170.992C48.2603 171.194 48.2047 171.569 48.1699 171.84C48.1352 172.111 48.1699 172.299 48.1213 172.535C48.0947 173.328 48.1459 174.122 48.2742 174.905C48.3627 175.476 48.507 176.037 48.705 176.579C48.8511 177.027 49.0396 177.46 49.2679 177.872C49.4796 178.273 49.7335 178.65 50.0253 178.997C50.2525 179.28 50.5061 179.541 50.7827 179.776C51.2982 180.216 51.8767 180.577 52.499 180.846C53.0046 181.074 53.5335 181.246 54.0764 181.36L54.4794 181.443C55.9738 181.727 57.5147 181.641 58.9683 181.193L60.3581 185.363C61.5324 187.343 62.0744 183.757 62.0744 183.757C65.0555 185.196 63.2974 181.881 63.2974 181.881C67.2235 180.359 62.0536 179.797 60.3511 179.685" fill="#F2D251"/>
<path d="M60.7286 177.029C59.1025 178.51 56.1007 180.712 52.4804 180.83C51.8581 180.561 51.2796 180.201 50.764 179.76C50.4875 179.525 50.2338 179.265 50.0066 178.982C54.9194 180.372 59.2693 176.446 60.5687 175.098C60.6785 175.736 60.732 176.382 60.7286 177.029Z" fill="#F3AC5F"/>
<path d="M60.0556 173.215C57.3873 175.244 53.2945 177.419 48.6805 176.558C48.4872 176.016 48.3452 175.458 48.2566 174.89C52.7177 176.009 56.7897 173.799 59.3746 171.805C59.6479 172.246 59.8805 172.711 60.0695 173.194" fill="#F3AC5F"/>
<path d="M57.2328 169.533C54.8007 170.868 51.5278 172.077 48.116 171.653C48.116 171.451 48.116 171.264 48.1646 171.069C48.1872 170.836 48.222 170.604 48.2688 170.374C50.9094 170.615 53.5633 170.089 55.9125 168.859C56.3641 169.068 56.8048 169.3 57.2328 169.554" fill="#F3AC5F"/>
<path d="M148.517 186.298C149.212 185.042 149.562 183.624 149.532 182.189C149.501 180.754 149.091 179.352 148.343 178.127C147.873 177.321 147.239 176.622 146.482 176.077C145.725 175.532 144.861 175.153 143.947 174.963C143.034 174.774 142.091 174.779 141.179 174.978C140.268 175.177 139.408 175.565 138.657 176.118C138.266 176.406 137.905 176.732 137.579 177.091C136.87 175.93 136.23 174.728 135.662 173.492C134.598 170.9 133.181 173.492 133.181 173.492C131.194 172.72 132.166 175.653 132.166 175.653C129.595 177.39 134.946 179.343 136.051 179.718C135.646 180.857 135.502 182.073 135.628 183.275C135.754 184.477 136.148 185.636 136.78 186.667C137.254 187.469 137.89 188.162 138.649 188.703C139.407 189.243 140.271 189.617 141.184 189.802C142.097 189.987 143.038 189.978 143.947 189.775C144.856 189.573 145.712 189.181 146.46 188.626C146.557 188.557 146.641 188.473 146.738 188.404C147.62 189.701 148.387 191.073 149.031 192.504C150.094 195.102 151.512 192.538 151.512 192.538C153.492 193.31 152.519 190.377 152.519 190.377C155.202 188.564 149.26 186.514 148.517 186.271" fill="#A7CDD6"/>
<g opacity="0.210007">
<g opacity="0.210007">
<g opacity="0.210007">
<path opacity="0.210007" d="M143.557 181.58C141.931 181.309 140.778 180.037 140.944 178.738C141.111 177.438 142.605 176.604 144.231 176.875C145.857 177.146 147.011 178.425 146.844 179.724C146.677 181.024 145.183 181.858 143.557 181.58Z" fill="white"/>
</g>
</g>
</g>
<path d="M175.279 166.3V115.212C175.285 115.114 175.267 115.017 175.227 114.927C175.188 114.838 175.127 114.759 175.052 114.697C174.976 114.635 174.886 114.593 174.79 114.572C174.694 114.552 174.595 114.554 174.501 114.58L166.482 117.158C166.294 117.224 166.132 117.347 166.018 117.511C165.905 117.674 165.846 117.869 165.849 118.068V131.118C164.753 130.589 163.611 130.159 162.438 129.832C160.828 129.408 159.169 129.198 157.504 129.207C154.892 129.188 152.299 129.66 149.86 130.597C147.548 131.512 145.455 132.904 143.718 134.683C141.942 136.526 140.571 138.72 139.694 141.124C138.749 143.705 138.278 146.436 138.305 149.185C138.288 151.562 138.632 153.929 139.326 156.203C139.956 158.284 140.967 160.23 142.307 161.943C143.616 163.59 145.279 164.922 147.171 165.841C149.095 166.782 151.214 167.258 153.356 167.231C156.21 167.253 159.015 166.483 161.458 165.007C163.161 163.97 164.727 162.723 166.12 161.297L167.691 163.951L169.324 166.689H174.932C175.035 166.683 175.133 166.637 175.203 166.561C175.273 166.484 175.311 166.383 175.307 166.279L175.279 166.3ZM165.877 143.383C165.83 145.507 165.404 147.606 164.62 149.581C163.882 151.462 162.857 153.218 161.583 154.785C160.506 156.118 159.2 157.248 157.726 158.121C156.636 158.813 155.376 159.193 154.085 159.219C153.241 159.241 152.406 159.037 151.667 158.628C150.91 158.202 150.259 157.611 149.763 156.898C149.126 155.952 148.656 154.904 148.373 153.799C147.981 152.335 147.794 150.825 147.817 149.31C147.791 147.537 148.046 145.77 148.575 144.077C148.998 142.71 149.68 141.436 150.583 140.325C151.386 139.361 152.399 138.594 153.543 138.081C154.842 137.507 156.251 137.225 157.671 137.254C158.675 137.246 159.675 137.387 160.638 137.671C161.567 137.954 162.465 138.329 163.32 138.789C164.067 139.223 164.784 139.706 165.467 140.235C165.606 140.353 165.745 140.457 165.856 140.561L165.877 143.383Z" fill="#322F48"/>
<path d="M220.729 119.614C220.681 119.581 220.622 119.564 220.563 119.566H213.531C213.169 119.566 211.092 119.781 210.932 120.135L210.237 121.817L202.044 141.572L192.99 121.226C192.753 120.734 192.388 120.314 191.934 120.01L191.864 119.969C191.434 119.702 190.939 119.56 190.433 119.559H183.484C183.229 119.559 182.983 119.651 182.789 119.816C182.645 119.939 182.529 120.093 182.45 120.266C182.371 120.438 182.33 120.626 182.331 120.816C182.334 121.013 182.379 121.208 182.463 121.386L196.826 150.932C195.519 151.016 194.15 151.169 192.712 151.37C191.191 151.596 189.685 151.914 188.202 152.322C186.63 152.736 185.119 153.353 183.706 154.157C183.581 154.219 183.477 154.296 183.352 154.372L181.17 156.151C180.836 156.426 180.528 156.734 180.253 157.068L180.044 157.332C178.86 158.902 178.234 160.821 178.266 162.787C178.241 164.471 178.771 166.117 179.773 167.47C180.556 168.486 181.537 169.333 182.657 169.958C183.703 170.519 184.831 170.913 186 171.125C186.964 171.308 187.943 171.404 188.925 171.41C191.107 171.437 193.248 170.82 195.082 169.638C196.705 168.563 198.139 167.227 199.327 165.685C200.478 164.192 201.488 162.597 202.343 160.918C202.753 160.119 203.156 159.34 203.524 158.583C203.787 158.592 204.05 158.618 204.31 158.659C205.372 158.776 206.426 158.961 207.464 159.215L207.951 159.326C208.921 159.53 209.867 159.837 210.772 160.244C214.052 161.738 215.386 156.401 214.51 153.941C214.303 153.365 213.943 152.857 213.467 152.471C212.992 152.085 212.42 151.837 211.814 151.752C210.181 151.481 208.527 151.474 206.888 151.252L207.214 150.557L208.402 147.972C209.57 145.422 210.73 142.872 211.877 140.328C214.193 135.145 216.521 129.924 218.86 124.666L219.5 123.221L220.889 120.128C220.93 120.04 220.938 119.941 220.911 119.848C220.884 119.754 220.825 119.674 220.743 119.621L220.729 119.614ZM193.483 160.577C192.748 161.545 191.875 162.4 190.891 163.114C190.296 163.575 189.56 163.82 188.807 163.808C188.639 163.823 188.471 163.803 188.312 163.749C188.153 163.696 188.006 163.609 187.883 163.496C187.806 163.405 187.681 163.294 187.681 162.801C187.658 162.515 187.734 162.231 187.897 161.995C188.048 161.786 188.218 161.591 188.404 161.411C188.621 161.221 188.853 161.049 189.099 160.897C189.857 160.427 190.665 160.044 191.51 159.757C192.5 159.421 193.512 159.154 194.54 158.958C194.562 158.95 194.587 158.95 194.609 158.958C194.22 159.549 193.817 160.112 193.407 160.661" fill="#322F48"/>
<path d="M132.36 124.498C131.055 122.865 129.409 121.537 127.537 120.607C125.616 119.671 123.504 119.196 121.367 119.217C119.466 119.214 117.582 119.562 115.808 120.245C114.148 120.894 112.586 121.768 111.166 122.844C110.344 123.483 109.568 124.179 108.845 124.929V119.502C108.851 119.4 108.833 119.298 108.792 119.205C108.75 119.111 108.687 119.029 108.607 118.965C108.528 118.901 108.434 118.857 108.334 118.837C108.234 118.817 108.13 118.821 108.032 118.849L100.437 121.225C100.129 121.337 99.8625 121.543 99.6758 121.813C99.4891 122.083 99.3909 122.405 99.3949 122.733V156.664H108.852C108.955 157.085 109.011 157.516 109.019 157.949C109.033 158.544 108.917 159.135 108.678 159.68C108.678 159.68 108.678 159.721 108.678 159.756C108.411 160.305 108.029 160.79 107.56 161.181C107.56 161.181 107.504 161.229 107.483 161.236C107.419 161.302 107.344 161.356 107.261 161.396C106.713 161.789 106.105 162.091 105.461 162.292C104.456 162.596 103.412 162.746 102.362 162.737C100.91 162.737 98.0538 162.404 97.2338 161.73C96.2147 160.866 95.4086 159.78 94.8782 158.554C94.1535 156.876 93.6648 155.106 93.4259 153.294C93.0845 151.11 92.8733 148.908 92.7935 146.699C92.7032 144.462 92.6893 142.287 92.7379 140.223C92.7935 138.055 92.8213 136.193 92.8213 134.664C92.8879 132.046 92.2877 129.454 91.0772 127.132C90.7948 126.608 90.4815 126.103 90.1391 125.617L88.5617 123.796C87.9539 123.202 87.2908 122.666 86.5813 122.198C84.8083 121.045 82.8396 120.225 80.7722 119.78C78.7769 119.327 76.738 119.094 74.692 119.085C73.317 119.101 71.9448 119.213 70.5852 119.418C68.9345 119.646 67.3204 120.087 65.7836 120.732C64.1241 121.426 62.63 122.463 61.399 123.775C59.8465 125.481 59.0169 127.723 59.085 130.029V131.468C59.0785 131.624 59.1028 131.779 59.1566 131.926C59.2103 132.073 59.2925 132.207 59.3984 132.322C59.5042 132.437 59.6317 132.53 59.7734 132.596C59.9152 132.661 60.0685 132.698 60.2246 132.704H67.2498C67.4245 132.698 67.5962 132.657 67.7547 132.583C67.9131 132.51 68.0552 132.405 68.1725 132.275C68.2898 132.146 68.3799 131.994 68.4374 131.829C68.495 131.664 68.5188 131.489 68.5076 131.315C68.5076 131.315 69.6611 125.512 77.9787 126.562C78.9909 126.693 79.964 127.037 80.8347 127.569C81.5427 127.994 82.125 128.6 82.5219 129.324C82.9187 130.048 83.1158 130.865 83.093 131.69C83.093 131.732 83.0097 131.773 82.8776 131.85C81.6019 132.524 80.2276 132.993 78.8056 133.24C76.8739 133.622 74.7754 133.934 72.5517 134.157C70.1953 134.389 67.8574 134.781 65.5543 135.331C63.3345 135.842 61.2375 136.787 59.3838 138.111C58.2815 138.923 57.3939 139.991 56.7982 141.224C56.2024 142.457 55.9164 143.816 55.965 145.184L56.0692 146.873C56.3017 148.7 57.0707 150.417 58.279 151.807C59.5447 153.228 61.0862 154.377 62.8096 155.184C64.4458 155.952 66.1812 156.487 67.9656 156.775C69.4697 157.051 70.9948 157.198 72.524 157.213C73.9195 157.198 75.3124 157.089 76.6932 156.886C78.2915 156.654 79.8659 156.28 81.3976 155.767C82.2989 155.457 83.1806 155.093 84.0381 154.677C84.072 155.012 84.1231 155.346 84.191 155.677C84.5915 158.266 85.4629 160.761 86.762 163.036C88.0728 165.267 89.9404 167.121 92.182 168.414C94.4612 169.728 99.0405 170.395 102.369 170.395C104.424 170.414 106.472 170.167 108.463 169.658C110.266 169.205 111.978 168.443 113.522 167.407C114.634 166.645 115.613 165.706 116.419 164.627L116.454 164.592C117.201 163.617 117.751 162.505 118.073 161.32C118.385 160.252 118.542 159.145 118.539 158.033C118.539 157.581 118.539 157.143 118.476 156.726C118.374 155.049 117.814 153.431 116.857 152.05C115.877 150.702 113.814 149.034 109.908 149.388C109.557 149.412 109.209 149.478 108.873 149.583V143.016C108.924 140.912 109.345 138.832 110.117 136.874C110.852 135.009 111.864 133.266 113.119 131.704C114.188 130.366 115.49 129.231 116.961 128.355C118.042 127.683 119.282 127.309 120.554 127.271C121.411 127.251 122.259 127.455 123.014 127.861C123.785 128.278 124.447 128.87 124.946 129.591C125.577 130.538 126.046 131.583 126.335 132.684C126.712 134.154 126.894 135.668 126.877 137.186V155.969C126.871 156.064 126.884 156.16 126.916 156.25C126.947 156.34 126.998 156.422 127.063 156.492C127.128 156.562 127.207 156.617 127.295 156.655C127.382 156.693 127.477 156.713 127.572 156.712H135.438C135.699 156.7 135.945 156.585 136.122 156.392C136.299 156.2 136.393 155.945 136.383 155.684V137.27C136.402 134.893 136.063 132.527 135.376 130.252C134.744 128.164 133.728 126.213 132.381 124.498H132.36ZM83.4127 145.344C83.4127 145.421 83.4127 145.574 83.0444 145.9C82.2102 146.633 81.2558 147.216 80.2232 147.623C79.0106 148.139 77.7487 148.53 76.457 148.791C75.4868 149.013 74.4982 149.146 73.5037 149.187C72.5203 149.168 71.5409 149.056 70.5783 148.853C69.5815 148.658 68.619 148.316 67.7224 147.839C66.961 147.458 66.2886 146.92 65.7489 146.262C65.4747 145.924 65.3426 145.493 65.3806 145.059C65.371 144.937 65.3851 144.815 65.4223 144.698C65.4466 144.663 65.4772 144.632 65.5126 144.608C66.3698 144.015 67.332 143.59 68.3477 143.357C69.9457 142.949 71.5714 142.658 73.2119 142.488C75.2201 142.252 77.2005 141.967 79.1114 141.627C80.5811 141.357 82.0266 140.969 83.4335 140.466L83.4127 145.344Z" fill="#322F48"/>
<path d="M43.4595 131.176C43.3953 131.5 43.4014 131.833 43.4773 132.154C43.5532 132.475 43.6972 132.775 43.8995 133.036C44.1018 133.296 44.3577 133.51 44.6499 133.663C44.942 133.815 45.2636 133.903 45.5928 133.921H52.3887L52.9724 131.142C53.2834 129.959 53.3275 128.722 53.1016 127.52C52.8756 126.318 52.3853 125.182 51.666 124.193C50.4772 122.619 48.8957 121.385 47.0798 120.614C45.3247 119.847 43.4731 119.324 41.5764 119.058C37.2731 118.336 32.8668 118.519 28.6378 119.593C26.3 120.207 24.1204 121.313 22.2449 122.838C20.3185 124.45 18.8116 126.505 17.8533 128.828C16.7794 131.5 16.2593 134.363 16.3246 137.243C16.3246 137.833 16.3246 139.327 16.3801 139.862C16.4913 142.173 16.9796 144.45 17.8255 146.603C18.5541 148.412 19.5805 150.087 20.8621 151.557C21.2565 152.007 21.6765 152.434 22.1198 152.836C23.977 154.507 26.1818 155.746 28.5752 156.463C31.0536 157.211 33.6303 157.581 36.2189 157.561C36.9902 157.561 37.8797 157.561 38.9428 157.457C40.1106 157.389 41.2718 157.235 42.4172 156.998C43.6307 156.749 44.8262 156.419 45.9958 156.011C47.3019 155.575 48.5274 154.927 49.6231 154.093C50.8264 153.176 51.7936 151.985 52.4443 150.619C52.9452 149.541 53.2083 148.368 53.2156 147.179L53.0419 145.095L52.618 142.399H44.8354C44.6304 142.405 44.4291 142.455 44.2448 142.545C44.0605 142.635 43.8974 142.763 43.7661 142.92C43.6348 143.078 43.5383 143.262 43.4831 143.459C43.4279 143.657 43.4151 143.863 43.4456 144.066L43.7027 146.394C43.7541 146.65 43.73 146.916 43.6332 147.158C43.3277 147.64 42.9106 148.04 42.4172 148.326C41.5802 148.76 40.6832 149.066 39.7558 149.236C38.6523 149.452 37.5309 149.563 36.4065 149.57C34.7286 149.608 33.0602 149.308 31.5007 148.687C30.284 148.193 29.1991 147.422 28.332 146.436C27.475 145.421 26.8406 144.237 26.4698 142.961C25.986 141.331 25.7517 139.638 25.7749 137.937C25.7749 134.463 26.574 131.03 28.207 129.314C29.8399 127.598 32.5708 126.729 36.3579 126.729C37.6445 126.719 38.9283 126.85 40.1867 127.118C41.09 127.303 41.9565 127.637 42.7508 128.105C43.129 128.303 43.4407 128.607 43.6472 128.98" fill="#322F48"/>
<path d="M56.5123 105.821C58.7366 105.8 60.9444 105.436 63.0581 104.744C63.8587 104.484 64.645 104.183 65.4137 103.84L65.9835 103.59L66.3032 104.146C66.4959 104.498 66.7791 104.793 67.1235 104.999C67.468 105.206 67.8612 105.317 68.2627 105.32H72.432C72.5415 105.317 72.6493 105.292 72.7491 105.246C72.8489 105.201 72.9388 105.137 73.0136 105.057C73.0885 104.977 73.1468 104.883 73.1854 104.78C73.2239 104.677 73.2418 104.568 73.2381 104.459V71.7995C73.2484 71.1827 73.0272 70.5844 72.6181 70.1226C72.2091 69.6609 71.6419 69.3691 71.0283 69.3049C70.8237 69.3016 70.6205 69.3394 70.4308 69.4161L64.1004 71.4382C63.9302 71.4967 63.7828 71.6075 63.6792 71.7547C63.5756 71.9019 63.5212 72.0781 63.5237 72.2581V95.6547L63.1206 95.8631C62.4496 96.2087 61.7526 96.5015 61.036 96.7387C59.7741 97.1742 58.4516 97.4087 57.1169 97.4335C55.0879 97.4335 52.9476 96.8846 52.9476 90.2763V71.4729C52.9535 71.3261 52.9299 71.1796 52.8781 71.0421C52.7186 70.5731 52.4207 70.1634 52.0238 69.867C51.6269 69.5705 51.1495 69.4012 50.6545 69.3813C50.4428 69.3811 50.2322 69.4116 50.0291 69.4717L43.8308 71.32C43.6556 71.3753 43.5028 71.4856 43.3951 71.6345C43.2875 71.7835 43.2307 71.9632 43.2332 72.1469V90.3041C43.2332 94.8972 44.352 98.6426 46.5478 101.387C48.8965 104.334 52.2458 105.821 56.5123 105.821Z" fill="#322F48"/>
<path d="M144.696 103.58L145.016 104.143C145.209 104.495 145.492 104.789 145.836 104.996C146.181 105.202 146.574 105.313 146.975 105.317H151.145C151.255 105.314 151.363 105.29 151.464 105.245C151.565 105.2 151.655 105.136 151.731 105.056C151.806 104.975 151.865 104.881 151.904 104.778C151.943 104.675 151.961 104.565 151.958 104.455V72.7271C151.96 72.1122 151.735 71.5181 151.326 71.0589C150.916 70.5998 150.352 70.308 149.741 70.2395C149.607 70.225 149.471 70.2416 149.345 70.2881L142.82 72.3727C142.65 72.4306 142.503 72.5414 142.4 72.689C142.298 72.8365 142.245 73.0131 142.25 73.1927V95.6511L141.847 95.8596C141.176 96.204 140.479 96.4967 139.763 96.7351C138.498 97.1702 137.173 97.4047 135.837 97.43C133.807 97.43 131.667 96.8811 131.667 90.2728V72.4075C131.672 72.2658 131.651 72.1244 131.605 71.9905C131.445 71.5213 131.147 71.1112 130.75 70.8137C130.354 70.5162 129.876 70.3452 129.381 70.3228C129.169 70.3246 128.958 70.3574 128.756 70.4201L122.55 72.2685C122.377 72.325 122.225 72.4358 122.119 72.5846C122.013 72.7335 121.957 72.9125 121.96 73.0954V90.3006C121.96 94.8937 123.072 98.6391 125.267 101.384C127.616 104.33 130.965 105.817 135.239 105.817C137.463 105.795 139.671 105.432 141.785 104.74C142.585 104.48 143.371 104.178 144.14 103.837L144.696 103.58Z" fill="#322F48"/>
<path d="M72.2804 56.727C72.13 56.7271 71.9819 56.6897 71.8496 56.6181C71.7174 56.5465 71.6051 56.443 71.5229 56.317C71.4377 56.1885 71.3822 56.0426 71.3606 55.8899C71.3389 55.7372 71.3517 55.5816 71.3979 55.4345L72.5514 51.7725C72.7611 51.0992 73.1445 50.4929 73.6629 50.0147C74.1813 49.5366 74.8165 49.2034 75.5046 49.0486C76.034 48.9085 76.5767 48.8247 77.1237 48.7984L78.0757 48.7359C78.4856 48.7359 78.7705 48.7011 78.9025 48.7011C80.2079 48.6777 81.5082 48.8679 82.7522 49.264C83.4416 49.4867 84.0965 49.8048 84.6978 50.209C86.2278 51.2428 87.4022 52.7228 88.061 54.4478C88.3608 55.235 88.5933 56.0463 88.7559 56.8729C88.7559 56.8729 89.1867 59.5551 89.2423 60.9101C89.2423 61.0908 89.284 61.2715 89.284 61.4591V101.067C89.284 101.067 89.284 101.873 89.5898 102.102L89.8816 102.221C89.9579 102.253 90.0369 102.279 90.1179 102.297C90.9582 102.491 91.8198 102.578 92.682 102.554H96.3092C96.4589 102.554 96.6063 102.591 96.7384 102.661C96.8705 102.731 96.9833 102.833 97.0667 102.957C97.1515 103.086 97.2067 103.232 97.2283 103.384C97.2499 103.537 97.2374 103.692 97.1917 103.84L96.0382 107.502C95.8293 108.177 95.4464 108.785 94.9281 109.266C94.4097 109.746 93.7741 110.082 93.085 110.24C92.5545 110.373 92.0122 110.454 91.4659 110.483L90.514 110.538C90.104 110.538 89.8191 110.573 89.6871 110.573C88.3821 110.599 87.0818 110.411 85.8374 110.017C85.1486 109.793 84.4938 109.475 83.8918 109.072C82.3561 108.03 81.425 106.515 80.5286 104.826C80.2503 104.148 80.0181 103.451 79.8337 102.742C79.4847 100.676 79.3127 98.5833 79.3195 96.4879V58.2071C79.3195 58.2071 79.3195 57.2829 79.0207 57.1647L78.708 57.0536L78.4856 56.9771C77.6442 56.7902 76.7832 56.7062 75.9215 56.727H72.2943" fill="#322F48"/>
<path d="M159.179 105.319C159.129 105.319 159.079 105.308 159.033 105.288C158.987 105.268 158.945 105.239 158.911 105.203C158.876 105.166 158.848 105.124 158.83 105.077C158.812 105.03 158.803 104.98 158.804 104.93V71.8888C158.803 71.8066 158.828 71.7263 158.876 71.6591C158.923 71.5919 158.99 71.541 159.068 71.5136L166.128 69.2622C166.307 69.2024 166.494 69.1719 166.683 69.1719C167.088 69.1939 167.476 69.3388 167.797 69.587C168.117 69.8353 168.354 70.1753 168.476 70.5616C168.49 70.6398 168.49 70.7197 168.476 70.7979V75.801L169.616 74.9116C171.443 73.4919 173.444 72.3126 175.571 71.4024C178.503 70.0218 181.704 69.3098 184.945 69.3178C184.945 69.3178 187.161 69.2483 188.419 70.0127C188.732 70.2003 188.739 70.5686 188.801 70.9091V70.9994C188.801 71.0411 188.801 71.0967 188.801 71.1731V71.2565C188.891 72.991 188.444 74.7111 187.523 76.1832C185.487 79.4144 180.838 79.2337 180.838 79.2337C175.661 78.9419 172.166 82.7081 172.166 82.7081C168.177 86.391 168.539 92.7352 168.539 92.7352V104.951C168.541 105.051 168.503 105.148 168.434 105.221C168.365 105.294 168.271 105.337 168.17 105.34H159.207" fill="#322F48"/>
<path d="M245.146 106.159C245.146 105.86 245.146 105.569 245.146 105.277C245.096 103.536 244.543 101.847 243.555 100.413C243.222 99.9519 242.818 99.5463 242.36 99.2104C241.353 98.4404 240.148 97.9729 238.885 97.8623C238.239 97.7939 237.586 97.7939 236.94 97.8623L235.967 97.911L235.884 96.9034V62.1595C235.893 61.4031 235.731 60.6543 235.41 59.9694C235.089 59.2846 234.616 58.6815 234.028 58.2056C233.289 57.6249 232.389 57.2874 231.45 57.2398C230.93 57.2138 230.41 57.282 229.914 57.4413C228.932 57.7727 228.082 58.4092 227.487 59.2579C226.892 60.1066 226.584 61.1232 226.607 62.1595V101.01C226.595 101.513 226.691 102.013 226.889 102.476C227.087 102.938 227.382 103.353 227.753 103.692C228.574 104.436 229.597 104.92 230.693 105.082C231.075 105.138 231.464 105.138 231.846 105.082C232.455 104.999 233.039 104.791 233.563 104.471L234.056 104.179C234.409 104.093 234.782 104.146 235.098 104.325C235.414 104.505 235.65 104.798 235.758 105.145L235.89 105.735C235.89 105.985 235.89 106.111 235.89 106.215C235.898 106.657 235.828 107.097 235.682 107.514C235.645 107.624 235.601 107.73 235.55 107.834C235.321 108.325 234.984 108.757 234.563 109.098C233.983 109.55 233.326 109.894 232.625 110.113H232.486C231.583 110.377 230.646 110.503 229.706 110.488C228.602 110.561 227.508 110.238 226.621 109.578C225.675 108.795 224.927 107.8 224.439 106.673C223.771 105.117 223.304 103.483 223.049 101.809C222.752 99.7612 222.559 97.6994 222.472 95.6318C222.382 93.6305 222.368 91.5876 222.417 89.5516C222.458 87.6754 222.5 85.8618 222.5 84.3539C222.556 81.8641 221.977 79.4012 220.819 77.1966C220.532 76.6646 220.205 76.1558 219.839 75.6749L218.699 74.3268C218.044 73.6391 217.315 73.0262 216.524 72.4993C214.82 71.4173 212.938 70.6435 210.965 70.2131C209.059 69.7979 207.114 69.586 205.163 69.5808C203.853 69.6005 202.546 69.7072 201.251 69.9004C199.68 70.1175 198.143 70.5355 196.679 71.1443C195.077 71.7926 193.635 72.7813 192.454 74.0419C191.487 74.9779 190.785 76.1524 190.418 77.4468C190.077 78.8366 190.015 79.8511 190.689 80.817C191.891 82.5542 194.976 81.755 196.706 81.1227C197.549 80.8764 198.284 80.3523 198.791 79.6357L199.027 79.2882C199.454 78.4871 200.113 77.8333 200.917 77.4121C202.317 76.8487 203.814 76.5677 205.323 76.5852C206.3 76.5949 207.274 76.6902 208.234 76.8701C209.158 77.0542 210.05 77.3726 210.882 77.8151C210.882 77.8151 212.89 78.4613 213.092 82.2554L209.325 82.8669C207.609 83.2004 205.67 83.4783 203.405 83.7216C202.175 83.8397 200.577 84.0064 199.236 84.2288L199.006 84.2705L195.4 85.0557C187.583 86.7999 187.166 94.2628 187.166 94.2628C187.109 96.5554 187.912 98.7862 189.417 100.517C190.631 101.874 192.109 102.971 193.76 103.741C195.327 104.468 196.988 104.976 198.694 105.249C200.125 105.506 201.575 105.645 203.03 105.666C204.355 105.644 205.678 105.54 206.99 105.353C208.51 105.134 210.008 104.781 211.466 104.297L212.73 103.824L213.766 103.428L213.981 104.561C214.377 106.843 215.177 109.036 216.344 111.037C217.609 113.159 219.396 114.922 221.534 116.158C224.047 117.462 226.857 118.083 229.685 117.958C231.648 117.979 233.605 117.745 235.508 117.263C236.246 117.076 236.969 116.832 237.669 116.534C238.608 116.183 239.5 115.716 240.324 115.144C240.752 114.854 241.158 114.533 241.54 114.185C241.856 113.9 242.158 113.598 242.443 113.282L242.645 113.052C243.582 112.009 244.279 110.773 244.688 109.432L244.764 109.175C245.042 108.206 245.182 107.202 245.181 106.194L245.146 106.159ZM212.272 95.2565C211.661 95.6511 211.023 95.9995 210.361 96.2988C209.217 96.7643 208.033 97.1248 206.824 97.3759C205.022 97.8271 203.139 97.8485 201.327 97.4384C200.404 97.2512 199.511 96.9379 198.673 96.5073C197.981 96.1466 197.363 95.6586 196.852 95.0689C196.744 94.9551 196.662 94.8193 196.612 94.6709C196.562 94.5224 196.544 94.3648 196.561 94.2089C196.577 94.053 196.628 93.9025 196.708 93.7679C196.788 93.6333 196.897 93.5176 197.026 93.429C197.706 93.0517 198.436 92.7733 199.194 92.6021C200.696 92.2181 202.224 91.9418 203.766 91.7752C205.677 91.5737 207.553 91.2957 209.325 90.9622L210.076 90.8093L210.395 90.7398C210.737 90.6686 211.09 90.6759 211.429 90.7614C211.767 90.8469 212.081 91.0082 212.348 91.2332C212.626 91.4759 212.847 91.7765 212.996 92.1139C213.144 92.4512 213.217 92.8171 213.21 93.1858C213.249 93.5922 213.175 94.0015 212.998 94.3691C212.82 94.7367 212.545 95.0484 212.202 95.2704" fill="#322F48"/>
<path d="M117.149 67.7194H117.323C117.388 67.7262 117.453 67.7262 117.518 67.7194C119.986 67.7329 122.431 67.2405 124.702 66.2724C126.973 65.3044 129.021 63.8812 130.72 62.0909C133.5 59.0126 134.417 55.1421 133.132 51.6677C132.638 50.2332 131.767 48.9585 130.609 47.9779C129.575 47.1846 128.357 46.6639 127.069 46.4635C125.781 46.2632 124.463 46.3897 123.237 46.8314C122.034 47.2136 118.15 48.7006 118.72 51.8345C119.248 54.7113 121.187 55.3575 122.604 54.8919C123.291 54.6273 123.963 54.3281 124.619 53.9956C124.619 53.9956 125.634 53.8774 126.322 55.3853C126.322 55.3853 126.815 56.3373 125.835 57.727C125.835 57.727 124.87 59.36 120.971 59.221H111.841V50.549C111.85 50.2902 111.757 50.0383 111.581 49.8482C111.405 49.6581 111.161 49.5453 110.903 49.5344H106.115C105.775 49.5391 105.445 49.6531 105.175 49.8596C104.904 50.0661 104.708 50.3541 104.614 50.681L103.711 54.8503C102.898 59.5198 103.238 59.2836 102.55 59.2627L95.8792 59.1932C95.1732 59.2257 94.5087 59.5363 94.0309 60.0571C93.5531 60.5778 93.3008 61.2665 93.329 61.9728V65.5444C93.3169 65.8064 93.3566 66.0682 93.4457 66.3148C93.5349 66.5614 93.6718 66.788 93.8487 66.9816C94.0255 67.1753 94.2388 67.3321 94.4764 67.4432C94.7139 67.5543 94.971 67.6175 95.233 67.6291H101.056C101.352 67.6399 101.631 67.7674 101.833 67.9835C102.035 68.1997 102.143 68.487 102.133 68.7826V91.3452C102.133 93.0268 102.175 94.6251 102.251 96.0982C102.308 97.8163 102.646 99.5134 103.252 101.122C103.911 102.843 105.086 104.319 106.615 105.347C108.351 106.427 110.375 106.955 112.417 106.862H113.251L114.217 106.813C114.756 106.777 115.291 106.694 115.815 106.563C116.503 106.407 117.138 106.073 117.655 105.593C118.172 105.114 118.554 104.506 118.762 103.832L119.623 101.087C119.701 100.835 119.722 100.568 119.685 100.306C119.648 100.044 119.553 99.7936 119.408 99.5726C119.266 99.3594 119.074 99.1845 118.849 99.0633C118.623 98.9421 118.371 98.8783 118.115 98.8777H115.412C114.545 98.9057 113.678 98.8169 112.834 98.6137C112.731 98.5978 112.632 98.5624 112.542 98.5094L112.299 98.3843L112.195 98.1133C112.146 97.9898 112.109 97.8618 112.084 97.7312C111.904 96.8418 111.822 95.9353 111.841 95.0281V67.7194H117.149Z" fill="#322F48"/>
<path d="M25.19 100.904C25.19 100.904 28.2822 100.376 31.3744 94.3579C32.4028 92.3567 33.6814 93.3712 34.0636 93.5449L38.7123 95.7547C39.0451 95.8716 39.3419 96.0727 39.574 96.3383C39.7119 96.4881 39.7952 96.6801 39.8104 96.8832C39.8255 97.0863 39.7716 97.2885 39.6573 97.4571L38.1911 100.077C36.552 102.794 34.2556 105.054 31.5134 106.65C28.784 108.286 25.6619 109.151 22.48 109.152C21.5512 109.151 20.6232 109.098 19.7004 108.992C18.366 108.851 17.0472 108.588 15.7605 108.207C14.9892 107.964 14.2874 107.707 13.6272 107.429C11.2951 106.433 9.17297 105.004 7.37332 103.218C7.13011 102.974 6.8869 102.724 6.67844 102.46C5.49276 101.149 4.47931 99.692 3.66267 98.1242L3.62098 98.0339C3.10322 97.0323 2.65963 95.9942 2.29376 94.9277C0.327535 88.8284 0.327535 82.2654 2.29376 76.166C3.21887 73.3688 4.69301 70.7843 6.6298 68.5641C7.25661 67.8636 7.93485 67.211 8.65884 66.6115C10.177 65.3479 11.8749 64.3174 13.6967 63.554C15.6879 62.7062 17.7968 62.1673 19.9506 61.9558C20.7984 61.8863 21.5488 61.8516 22.2576 61.8516C22.5494 61.8516 22.8065 61.8516 23.0776 61.8516C24.4131 61.8989 25.7403 62.0828 27.0384 62.4005C27.4692 62.5117 27.8861 62.6298 28.303 62.7688C29.5301 63.1737 30.7128 63.7022 31.833 64.3462C33.2243 65.0911 34.4847 66.0581 35.5645 67.2091C35.5645 67.2091 39.8519 72.1635 39.3724 77.4099L31.5064 78.0422C30.6587 78.1395 30.3668 78.0422 30.1167 77.5072L29.0535 75.1654C28.6946 74.3574 28.2644 73.5831 27.768 72.8515C27.3806 72.2675 26.9128 71.7411 26.3782 71.288C25.848 70.87 25.2545 70.5393 24.6202 70.3082C24.5515 70.2762 24.4792 70.2529 24.4048 70.2387C23.0022 69.8639 21.5281 69.8472 20.1174 70.1901C19.3962 70.36 18.6968 70.6118 18.0327 70.9406C16.6562 71.6365 15.4525 72.6313 14.5097 73.8521C13.3992 75.3074 12.5698 76.957 12.0637 78.7162C10.8224 83.1642 10.8224 87.8671 12.0637 92.315C12.5667 94.0755 13.3965 95.7256 14.5097 97.1791C14.8219 97.592 15.1707 97.9757 15.552 98.3257C16.2693 99.0294 17.0981 99.6093 18.0049 100.042C20.2727 101.084 22.8116 101.383 25.2595 100.897" fill="#322F48"/>
<path d="M98.4227 6.90985C98.8257 6.31226 99.8124 7.27119 100.132 7.91048C100.452 8.54977 100.966 10.5858 101.355 11.1834C101.41 11.2854 101.487 11.3747 101.579 11.4453C101.671 11.516 101.777 11.5664 101.89 11.5933C102.053 11.5849 102.207 11.5198 102.326 11.4094C102.446 11.2989 102.522 11.1501 102.543 10.9888C102.56 10.6584 102.503 10.3284 102.377 10.0229C101.831 8.32506 101.472 6.57291 101.306 4.79742C101.306 4.25542 101.445 3.56054 102.001 3.49106C102.557 3.42157 102.849 4.06085 103.002 4.57506C103.342 5.75636 104.072 8.23012 104.392 9.43921C104.517 9.87003 104.746 10.3912 105.198 10.419C105.351 10.4149 105.5 10.3642 105.624 10.2736C105.748 10.183 105.842 10.0568 105.893 9.91172C105.992 9.62641 106.03 9.32329 106.004 9.02228C106.004 7.70896 105.573 5.11012 105.552 3.80375C105.552 3.2131 105.67 2.41399 106.247 2.34451C106.414 2.32665 106.583 2.36033 106.731 2.44105C106.879 2.52176 106.998 2.64566 107.074 2.79618C107.228 3.09641 107.318 3.4253 107.338 3.76206C107.526 5.21435 108.102 7.93133 108.297 9.40447C108.339 9.7658 108.498 10.2314 108.86 10.2175C109.221 10.2036 109.332 9.82139 109.409 9.52259C109.624 8.59841 109.457 6.38175 109.673 5.45756C109.846 4.76268 110.215 3.85934 110.944 3.88714C111.674 3.91493 111.73 5.7633 111.639 7.30593C111.424 10.8846 110.944 14.0393 111.771 14.4632C112.598 14.8871 113.279 10.2383 114.259 9.73801C115.128 9.29328 115.732 12.3855 114.787 15.1025C113.446 18.959 110.256 22.8781 105.886 22.1068C105.195 21.979 104.538 21.7123 103.954 21.3229C103.37 20.9335 102.871 20.4295 102.488 19.8415C101.786 18.7089 97.4776 8.29266 98.4227 6.90985Z" fill="#AFD697"/>
<path d="M162.468 177.23C163.581 179.313 164.569 181.459 165.428 183.658C165.747 184.464 166.157 185.249 166.512 186.035C166.79 186.653 167.151 187.244 167.471 187.841C168.089 188.995 168.735 190.134 169.333 191.316C169.597 191.837 169.764 192.4 170.028 192.921L170.855 194.45C171.105 194.922 171.362 195.395 171.612 195.874C171.862 196.353 172.196 196.763 172.488 197.229C173.071 198.181 173.544 199.216 174.072 200.203" stroke="#128180" stroke-width="0.790118" stroke-miterlimit="10"/>
<path d="M165.19 183.496C165.213 183.516 165.232 183.542 165.243 183.572C165.254 183.601 165.257 183.632 165.252 183.663C164.835 183.496 164.495 183.219 164.078 183.038C163.655 182.867 163.25 182.655 162.869 182.406C162.486 182.128 162.111 181.857 161.715 181.586C161.451 181.412 161.187 181.259 160.93 181.078C160.673 180.898 160.43 180.675 160.159 180.502C159.603 180.147 159.061 179.751 158.533 179.355C158.009 178.977 157.559 178.506 157.205 177.965C157.087 177.757 156.788 177.382 157.205 177.423C157.397 177.477 157.583 177.55 157.761 177.639C158.496 177.89 159.197 178.233 159.846 178.66C160.812 179.299 161.875 179.772 162.834 180.425C163.177 180.64 163.508 180.872 163.828 181.12C164.029 181.247 164.194 181.425 164.307 181.634V181.572C164.078 181.141 164.453 180.46 164.55 179.98C164.675 179.39 164.717 178.737 164.898 178.167C165.078 177.597 165.176 177.006 165.349 176.43C165.575 175.797 165.846 175.181 166.162 174.588C166.386 174.03 166.675 173.5 167.024 173.011C167.135 172.872 167.114 172.858 167.288 172.9C167.422 172.94 167.552 172.991 167.677 173.052C168.282 173.4 168.164 174.331 168.08 174.88C167.802 176.763 166.948 178.514 166.482 180.363C166.315 181.009 166.051 181.648 165.864 182.287C165.711 182.727 165.483 183.136 165.19 183.496Z" fill="#128180"/>
<path d="M168.043 189.268C167.748 189.111 167.425 189.015 167.092 188.983C166.397 188.796 165.646 188.573 164.937 188.337C164.229 188.101 163.297 187.809 162.512 187.468C161.899 187.228 161.306 186.938 160.74 186.6C160.045 186.148 158.996 185.53 158.774 184.661C158.742 184.532 158.74 184.398 158.77 184.268C158.8 184.139 158.86 184.018 158.946 183.917C159.031 183.815 159.139 183.735 159.262 183.683C159.384 183.631 159.517 183.609 159.649 183.619C160.113 183.67 160.566 183.795 160.99 183.987C161.468 184.19 161.932 184.422 162.38 184.682C162.846 184.897 163.256 185.196 163.707 185.432C163.923 185.544 164.173 185.62 164.402 185.745C164.57 185.871 164.746 185.985 164.93 186.086C165.22 186.212 165.497 186.366 165.757 186.544C166.028 186.725 166.313 186.871 166.57 187.065C166.827 187.26 166.911 187.295 167.078 187.392C167.244 187.489 167.55 187.712 167.627 187.684V187.587C167.581 187.229 167.615 186.867 167.724 186.523C167.835 185.829 167.981 185.21 168.155 184.55C168.224 184.286 168.231 184.008 168.308 183.744C168.384 183.48 168.592 183.049 168.711 182.695C168.952 182.142 169.226 181.603 169.531 181.083C169.632 180.896 169.751 180.719 169.885 180.554C169.953 180.424 170.03 180.299 170.114 180.179C170.305 179.957 170.542 179.779 170.809 179.658C171.448 179.352 171.553 180.7 171.504 181.083C171.452 181.607 171.361 182.128 171.233 182.639C171.108 183.139 170.844 183.584 170.677 184.064C170.392 184.89 169.92 185.648 169.676 186.496C169.593 186.787 169.392 187.031 169.308 187.316C169.238 187.552 169.154 187.784 169.058 188.01C168.989 188.149 168.321 189.518 168.043 189.268Z" fill="#128180"/>
<path d="M170.541 194.185C170.353 194.338 169.957 194.283 169.721 194.269C169.214 194.269 168.679 194.269 168.171 194.234C166.851 194.081 165.489 193.984 164.183 193.734C163.353 193.67 162.564 193.349 161.924 192.816C161.278 192.122 162.876 192.122 163.245 192.122C163.669 192.118 164.093 192.16 164.509 192.247C164.926 192.316 165.42 192.393 165.823 192.504C166.226 192.615 166.518 192.705 166.816 192.809C167.115 192.914 167.511 192.9 167.775 193.018C168.039 193.136 168.283 193.192 168.547 193.296C168.728 193.378 168.919 193.435 169.116 193.463C169.394 193.463 169.992 193.504 170.2 193.755C169.985 193.49 170.325 192.914 170.305 192.615C170.291 192.173 170.347 191.732 170.471 191.309C170.583 190.836 170.617 190.37 170.735 189.919C170.846 189.425 170.985 188.937 171.152 188.46C171.276 188.127 171.437 187.81 171.632 187.515C171.826 187.25 172.146 186.708 172.507 186.653C173.077 186.569 173.042 187.688 173.029 187.994C172.898 189.274 172.528 190.519 171.938 191.663C171.722 192.163 171.597 192.691 171.347 193.178C171.243 193.379 171.145 193.574 171.034 193.768C170.897 193.947 170.776 194.138 170.673 194.338C170.673 194.269 170.534 194.185 170.541 194.185Z" fill="#128180"/>
<path d="M85.3483 17.2282C85.3483 17.4158 85.1121 17.5409 84.987 17.6521C84.7507 17.8675 84.5006 18.0412 84.2435 18.2358C83.6718 18.6492 83.0622 19.0075 82.4229 19.3059C81.7907 19.5734 81.1346 19.7805 80.4633 19.9243C80.2666 19.9907 80.0582 20.0156 79.8514 19.9977C79.6445 19.9798 79.4436 19.9193 79.2612 19.8201C78.9893 19.6341 78.777 19.3735 78.6497 19.0696C78.5826 18.9101 78.5481 18.7389 78.5481 18.5658C78.5481 18.3928 78.5826 18.2216 78.6497 18.0621C78.7411 17.6895 78.8988 17.3364 79.1153 17.0197C79.3393 16.7838 79.5913 16.5761 79.8657 16.4013C79.7962 16.2345 79.6573 16.1998 79.5113 16.1025C79.3654 16.0052 79.2334 15.8176 79.0319 15.7064C78.1894 15.1875 77.5252 14.4239 77.1279 13.5176C76.8887 13.055 76.7783 12.5365 76.8083 12.0166C76.8828 11.6422 77.0894 11.3071 77.3905 11.0724C77.6915 10.8377 78.0669 10.719 78.4482 10.7381C78.811 10.66 79.1824 10.6297 79.553 10.6477C79.7198 10.6477 79.8727 10.8284 80.0256 10.8631C80.1784 10.8979 80.0881 10.9535 80.2201 10.8631C80.3521 10.7728 80.3035 10.4323 80.3313 10.3142C80.5251 9.74719 80.8684 9.24304 81.325 8.85493C81.7298 8.52136 82.205 8.2838 82.7147 8.16006C83.2009 7.97488 83.7406 7.98987 84.2157 8.20175C84.6987 8.42426 85.1243 8.75471 85.4595 9.16763C85.5429 9.27186 85.6054 9.44558 85.7513 9.47337C85.8973 9.50117 86.3559 9.12594 86.5574 9.00086C86.851 8.79411 87.2132 8.70902 87.5681 8.76343C87.9231 8.81784 88.2432 9.00751 88.4614 9.2927C88.68 9.50553 88.8527 9.76096 88.9686 10.0432C89.0315 10.3051 89.0664 10.573 89.0729 10.8423C89.1479 11.3308 89.1099 11.83 88.9617 12.3015C88.781 12.8296 88.4475 13.2535 88.2321 13.7747C87.9473 14.3548 87.59 14.8965 87.1689 15.3868C86.7207 16.122 86.1272 16.758 85.4247 17.256L85.6888 17.3255" fill="#F48182"/>
<path d="M86.6545 18.2616H86.7239C86.4599 18.1157 86.0291 18.6508 85.7789 18.7689C85.239 19.0168 84.6757 19.21 84.0973 19.3456C83.6417 19.4518 83.1702 19.4706 82.7076 19.4012C82.4227 19.3595 82.0961 19.297 82.2628 18.9774C82.4709 18.7102 82.7468 18.5038 83.0619 18.3798C83.5067 18.0949 83.9166 17.7752 84.3892 17.5181C84.8443 17.2521 85.3265 17.0355 85.8275 16.8719C86.0777 16.7954 86.307 16.5383 86.585 16.6078C86.585 16.3716 86.585 16.1075 86.585 15.8713C86.6546 15.5303 86.7522 15.1956 86.8768 14.8706C87.0244 14.0787 87.3712 13.3374 87.8844 12.7165C88.2666 12.3621 88.6626 12.9111 88.8225 13.2307C89.0058 13.6359 89.0892 14.0791 89.0657 14.5232C89.0238 15.4227 88.6757 16.2809 88.079 16.9553C87.8883 17.2245 87.6533 17.4595 87.3841 17.6501C87.1339 17.81 86.6892 18.0323 86.6197 18.345C86.6614 18.2964 86.71 18.2825 86.6545 18.2616Z" fill="#128180"/>
<path d="M86.3347 16.4609C86.4333 16.8769 86.5901 17.2769 86.8003 17.6492C87.0574 17.9827 87.252 18.3441 87.4952 18.6915C87.7384 19.0389 88.058 19.5254 88.3707 19.9214C88.7402 20.3893 89.1345 20.837 89.552 21.2625C90.2758 21.9904 91.1022 22.6085 92.0049 23.097C92.2968 23.2638 92.5608 23.4306 92.8388 23.6182C93.0709 23.822 93.3366 23.9842 93.624 24.0976" stroke="#128180" stroke-width="1.04277" stroke-miterlimit="10"/>
<path d="M75.05 30.7442C74.9361 30.8075 74.8147 30.8566 74.6887 30.8901C74.4177 30.8901 74.1398 30.8901 73.8688 30.8901C73.5977 30.8901 73.5769 30.8206 73.5769 30.6399C73.5769 30.4593 73.695 30.3828 73.8618 30.3828C74.1536 30.3828 74.4455 30.3828 74.7373 30.3828C74.8486 30.4114 74.9543 30.4583 75.05 30.5218V30.7442Z" fill="#4F8F93"/>
<path d="M68.795 41.4302C68.8367 41.1661 68.8853 40.8604 68.9479 40.5616C68.9739 40.4794 68.9739 40.3912 68.9478 40.3091C68.9216 40.2269 68.8707 40.1549 68.802 40.1029C68.5801 39.9158 68.3711 39.7138 68.1766 39.4984C68.1001 39.415 68.0237 39.2621 68.0515 39.1927C68.0858 39.1419 68.1299 39.0986 68.1812 39.0652C68.2325 39.0317 68.29 39.0089 68.3503 38.9981C68.6421 38.9356 68.9479 38.9217 69.2397 38.8591C69.3543 38.8251 69.4529 38.7511 69.5177 38.6507C69.6706 38.3866 69.7817 38.1087 69.9277 37.8446C69.9833 37.7473 70.1014 37.6222 70.1778 37.6292C70.2959 37.6642 70.3956 37.744 70.4558 37.8515C70.5965 38.0973 70.7196 38.3527 70.8241 38.6159C70.8519 38.6918 70.9019 38.7575 70.9676 38.8046C71.0332 38.8517 71.1116 38.8779 71.1923 38.88C71.4747 38.9023 71.7555 38.9417 72.0331 38.9981C72.1579 39.0342 72.2661 39.1129 72.3389 39.2205C72.4223 39.3455 72.3389 39.4776 72.2347 39.5748C72.1304 39.6721 71.9359 39.8945 71.7621 40.0196C71.651 40.0922 71.5692 40.2018 71.531 40.3289C71.4929 40.4561 71.5009 40.5926 71.5537 40.7144C71.6156 40.9561 71.6574 41.2025 71.6788 41.451C71.6788 41.5483 71.6788 41.7012 71.5884 41.7429C71.5374 41.767 71.4816 41.7795 71.4251 41.7795C71.3687 41.7795 71.3129 41.767 71.2618 41.7429C70.9769 41.6108 70.7059 41.4371 70.4141 41.312C70.3026 41.2672 70.1781 41.2672 70.0666 41.312C69.7817 41.4441 69.5107 41.6108 69.2258 41.7568C68.9409 41.9027 68.7881 41.7429 68.795 41.4302Z" fill="#AFD697"/>
<path d="M51.4643 26.0615C51.5199 25.7488 51.5824 25.4222 51.6172 25.0886C51.6242 24.977 51.5867 24.867 51.513 24.7829C51.2975 24.5466 51.0543 24.3451 50.8181 24.088C50.7486 24.0185 50.6722 23.8795 50.6999 23.8101C50.7271 23.7604 50.7649 23.7172 50.8105 23.6836C50.8561 23.65 50.9085 23.6267 50.964 23.6155C51.2667 23.5494 51.573 23.5007 51.8812 23.4696C51.9481 23.4693 52.0133 23.4485 52.068 23.41C52.1227 23.3714 52.1642 23.317 52.187 23.2542C52.319 22.9693 52.458 22.6982 52.6109 22.4272C52.7637 22.1562 52.9722 22.1423 53.1251 22.4272C53.2779 22.7121 53.4169 22.9693 53.542 23.2472C53.5665 23.3109 53.6093 23.3659 53.6649 23.4055C53.7205 23.445 53.7865 23.4673 53.8547 23.4696C54.1604 23.5043 54.4662 23.5529 54.765 23.6155C54.8623 23.6155 55.0012 23.7058 55.0221 23.7823C55.0275 23.897 54.9876 24.0094 54.9109 24.095C54.6955 24.3243 54.4523 24.5327 54.216 24.7898C54.1468 24.8788 54.1122 24.99 54.1187 25.1025C54.1604 25.4083 54.2508 25.7071 54.2994 26.0059C54.2994 26.124 54.2994 26.3047 54.216 26.3464C54.1581 26.3722 54.0953 26.3856 54.0319 26.3856C53.9684 26.3856 53.9057 26.3722 53.8477 26.3464C53.5142 26.1935 53.1876 25.8877 52.861 25.8877C52.5344 25.8877 52.2217 26.1865 51.9021 26.3464C51.5824 26.5062 51.4504 26.3881 51.4643 26.0615Z" fill="#DB8080"/>
<path d="M69.032 21.8552C69.0876 21.5216 69.1293 21.1603 69.1988 20.8406C69.2177 20.7766 69.2165 20.7082 69.1954 20.6449C69.1742 20.5815 69.1342 20.5261 69.0806 20.4862C68.8513 20.2778 68.622 20.0693 68.3858 19.84C68.348 19.7977 68.3193 19.7482 68.3014 19.6944C68.2835 19.6406 68.2767 19.5838 68.2815 19.5273C68.2815 19.4578 68.4413 19.3814 68.5317 19.3605C68.8374 19.2957 69.1432 19.247 69.4489 19.2146C69.5156 19.2134 69.5803 19.1922 69.6348 19.1538C69.6893 19.1154 69.7311 19.0616 69.7547 18.9992C69.8867 18.7143 70.0257 18.4433 70.1785 18.1723C70.2341 18.0889 70.3453 17.9777 70.4217 17.9847C70.4773 17.9959 70.5297 18.0192 70.5753 18.0528C70.6209 18.0864 70.6586 18.1296 70.6858 18.1793C70.8456 18.4572 70.9638 18.7491 71.1166 19.027C71.1428 19.0713 71.1779 19.1097 71.2198 19.1396C71.2617 19.1696 71.3094 19.1904 71.3598 19.2007C71.6795 19.2702 72.0061 19.298 72.3257 19.3605C72.6454 19.4231 72.6801 19.6315 72.4786 19.84C72.2771 20.0485 72.0686 20.2569 71.8532 20.4515C71.7842 20.4999 71.7332 20.5698 71.7081 20.6502C71.683 20.7307 71.6851 20.8171 71.7142 20.8962C71.7894 21.1797 71.8475 21.4674 71.8879 21.7579C71.8879 21.8621 71.8879 22.0289 71.8046 22.0706C71.7498 22.0947 71.6907 22.1071 71.6308 22.1071C71.571 22.1071 71.5119 22.0947 71.4571 22.0706C71.1653 21.9385 70.8943 21.7648 70.6094 21.6328C70.5622 21.6123 70.5114 21.6018 70.46 21.6018C70.4086 21.6018 70.3577 21.6123 70.3106 21.6328C70.0048 21.7718 69.7199 21.9455 69.4211 22.0984C69.3799 22.1183 69.3342 22.1275 69.2884 22.1251C69.2426 22.1226 69.1982 22.1086 69.1594 22.0843C69.1205 22.06 69.0884 22.0262 69.0661 21.9861C69.0439 21.9461 69.0321 21.901 69.032 21.8552Z" fill="#F2D251"/>
<path d="M53.6961 37.0362C53.6197 36.9668 53.5155 36.9181 53.4946 36.8486C53.4816 36.7515 53.5038 36.6529 53.5572 36.5707C53.6156 36.5096 53.6868 36.4622 53.7656 36.4317C55.9244 35.1717 58.0878 33.9162 60.2558 32.6655C60.4295 32.5612 60.6171 32.4153 60.7978 32.6655C60.9784 32.9156 60.7978 32.9851 60.5129 33.1519L54.0158 36.9042L53.6961 37.0362Z" fill="#4F8F93"/>
<path d="M58.4441 20.9721C58.5066 20.8957 58.5553 20.7845 58.6248 20.7706C58.672 20.76 58.7209 20.7589 58.7686 20.7672C58.8163 20.7756 58.8618 20.7932 58.9027 20.8192C58.9652 20.8192 58.993 20.9374 59.0347 20.9999C60.0493 22.7602 61.0684 24.5137 62.0922 26.2601C62.1269 26.3227 62.1825 26.3852 62.1825 26.4408C62.1825 26.4964 62.1825 26.7048 62.0783 26.7465C61.9741 26.7882 61.8629 26.7465 61.7656 26.6909C61.6683 26.6354 61.6753 26.5728 61.6336 26.5033L58.6039 21.2917C58.5483 21.1945 58.5066 21.0972 58.4441 20.9721Z" fill="#4F8F93"/>
<path d="M56.7866 26.0234L57.0368 26.1416L62.3039 29.1782C62.4499 29.2616 62.6027 29.3658 62.4846 29.5604C62.3665 29.7549 62.1997 29.7132 62.0329 29.616L56.7866 26.5932C56.6546 26.5168 56.5226 26.4265 56.5851 26.2527C56.6476 26.079 56.7171 26.086 56.7866 26.0234Z" fill="#4F8F93"/>
<path d="M69.7578 30.8912H66.8949C66.8129 30.9126 66.7267 30.9126 66.6447 30.8912C66.5687 30.833 66.5167 30.7489 66.4988 30.6549C66.4988 30.5785 66.5752 30.4881 66.6378 30.4395C66.7131 30.4212 66.7917 30.4212 66.8671 30.4395H72.6971C72.7457 30.4395 72.8152 30.4395 72.843 30.4395C72.8708 30.4395 73.0445 30.5993 73.0445 30.6827C73.0445 30.7661 72.9333 30.8634 72.85 30.9259C72.7666 30.9884 72.6971 30.9259 72.6207 30.9259L69.7578 30.8912Z" fill="#4F8F93"/>
<path d="M72.8751 35.8659L72.6458 35.7547L68.0318 33.0864L67.9623 33.0447C67.8233 32.9613 67.7469 32.8362 67.8303 32.6834C67.9136 32.5305 68.0735 32.5166 68.2263 32.6069L70.04 33.6423L72.8195 35.2405C72.889 35.2405 72.9793 35.3031 73.014 35.3587C73.0488 35.4142 73.153 35.581 73.1252 35.6575C73.0974 35.7339 72.9654 35.8034 72.8751 35.8659Z" fill="#4F8F93"/>
<path d="M60.8234 37.094C60.7862 37.1774 60.7445 37.2586 60.6983 37.3373L58.1273 41.7984C58.0856 41.8748 58.0369 41.9721 57.9744 41.9999C57.926 42.0201 57.874 42.0306 57.8215 42.0306C57.769 42.0306 57.7171 42.0201 57.6686 41.9999C57.6061 41.9512 57.5922 41.8123 57.5853 41.708C57.5783 41.6038 57.6408 41.5899 57.6756 41.5274L60.2675 37.1427C60.295 37.0718 60.3377 37.0077 60.3926 36.9551C60.4757 36.9041 60.5742 36.8844 60.6705 36.8995C60.7539 36.8995 60.8234 37.0176 60.8234 37.094Z" fill="#4F8F93"/>
<path d="M53.6482 30.8918H51.1049C51.0285 30.8918 50.9312 30.8918 50.8826 30.8918C50.793 30.8373 50.7282 30.7501 50.7019 30.6486C50.7136 30.6024 50.7344 30.5589 50.7631 30.5208C50.7917 30.4826 50.8276 30.4505 50.8687 30.4263C50.953 30.4048 51.0414 30.4048 51.1258 30.4263H56.122C56.1984 30.4263 56.2957 30.4263 56.3513 30.4263C56.4069 30.4263 56.5389 30.5791 56.5389 30.6556C56.5389 30.732 56.4416 30.8432 56.3582 30.8988C56.2829 30.9171 56.2042 30.9171 56.1289 30.8988L53.6482 30.8918Z" fill="#4F8F93"/>
<path d="M65.6906 32.6523C65.7658 32.6974 65.8318 32.7564 65.8851 32.8261C66.7676 34.327 67.2749 35.2303 68.1643 36.7313C68.2547 36.8772 68.2686 37.037 68.0949 37.1274C67.9211 37.2177 67.7961 37.1274 67.7127 36.9745C67.4973 36.6131 67.6293 36.8425 67.4208 36.4811C66.7815 35.3925 66.1469 34.3015 65.5169 33.2082C65.472 33.1347 65.4326 33.0581 65.3987 32.9789C65.3362 32.8052 65.4474 32.6523 65.6906 32.6523Z" fill="#4F8F93"/>
<path d="M68.707 23.5176C68.673 23.618 68.6312 23.7155 68.5819 23.8094L66.2889 27.7772C66.2472 27.8467 66.2124 27.937 66.1499 27.9578C66.0873 27.9787 65.9067 28.0412 65.8372 27.9995C65.7677 27.9578 65.7677 27.798 65.7538 27.6868C65.7399 27.5757 65.7538 27.6104 65.8094 27.5757L68.1372 23.5106C68.1372 23.462 68.1859 23.3994 68.2206 23.3786C68.2554 23.3577 68.4291 23.2674 68.5125 23.2883C68.5958 23.3091 68.6445 23.4411 68.707 23.5176Z" fill="#4F8F93"/>
<path d="M71.394 26.8248C71.3245 26.7692 71.2133 26.7345 71.1855 26.665C71.1553 26.5748 71.1553 26.4772 71.1855 26.387C71.1855 26.3245 71.3036 26.2898 71.3731 26.2481L75.2366 24.0245C75.2922 23.9897 75.3617 23.9272 75.4173 23.9341C75.4729 23.9411 75.6536 23.9758 75.6952 24.0453C75.7369 24.1148 75.6952 24.2538 75.6952 24.3441C75.6952 24.4344 75.5771 24.4344 75.5146 24.4761L71.6789 26.7206C71.5955 26.7206 71.5051 26.7692 71.394 26.8248Z" fill="#4F8F93"/>
<path d="M64.0613 18.5995C64.0613 17.9741 64.0613 17.3487 64.0613 16.7164C64.0613 16.5426 64.0613 16.3828 64.3184 16.3828C64.5755 16.3828 64.5685 16.5565 64.5685 16.7233V20.4687C64.5685 20.6494 64.5268 20.8092 64.3114 20.8092C64.096 20.8092 64.0613 20.6424 64.0613 20.4617C64.0682 19.8364 64.0613 19.2179 64.0613 18.5995Z" fill="#4F8F93"/>
<path d="M64.57 24.3385V25.9089C64.57 26.0965 64.57 26.2772 64.299 26.2633C64.028 26.2494 64.0627 26.0896 64.0627 25.9089V22.7194C64.0627 22.5387 64.0627 22.3789 64.3129 22.3789C64.563 22.3789 64.57 22.5457 64.57 22.7194V24.3385Z" fill="#4F8F93"/>
<path d="M64.0638 41.0137C64.0638 40.6801 64.0638 40.3188 64.0638 40.0061C64.0638 39.8393 64.1194 39.7143 64.3 39.7073C64.4807 39.7004 64.5641 39.8254 64.5641 39.9922C64.5641 40.6871 64.5641 41.382 64.5641 42.0768C64.5641 42.2436 64.4877 42.3548 64.3 42.3478C64.2655 42.3472 64.2316 42.3392 64.2004 42.3245C64.1692 42.3097 64.1415 42.2885 64.1192 42.2622C64.0968 42.2359 64.0803 42.2052 64.0708 42.172C64.0612 42.1389 64.0588 42.104 64.0638 42.0699V41.0137Z" fill="#4F8F93"/>
<path d="M59.3685 30.8901H58.4651C58.2845 30.8901 58.1316 30.8553 58.1316 30.626C58.1316 30.3967 58.2845 30.3828 58.4512 30.3828H60.3344C60.515 30.3828 60.654 30.4454 60.6471 30.6399C60.6401 30.8345 60.5011 30.8901 60.3205 30.8901C60.0078 30.8901 59.6881 30.8901 59.3685 30.8901Z" fill="#4F8F93"/>
<path d="M68.1943 28.1857C68.2355 28.1177 68.2898 28.0587 68.3541 28.012C68.8266 27.7271 69.2991 27.463 69.7438 27.192C69.8967 27.1017 70.0496 27.0947 70.1399 27.2615C70.2303 27.4283 70.1399 27.5464 70.0079 27.6298C69.5284 27.9077 69.049 28.1926 68.5626 28.4567C68.3819 28.5748 68.1873 28.4637 68.1943 28.1857Z" fill="#4F8F93"/>
<path d="M61.8191 34.485C61.8677 34.3808 61.8886 34.3182 61.9164 34.2626C62.1596 33.8457 62.4028 33.4288 62.6113 33.0119C62.7016 32.859 62.8197 32.7339 63.0004 32.8312C63.1811 32.9285 63.1602 33.1091 63.0629 33.2759C62.8128 33.6998 62.5835 34.1306 62.3194 34.5406C62.2332 34.6351 62.1136 34.6924 61.9859 34.7004C61.9511 34.7074 61.8816 34.5614 61.8191 34.485Z" fill="#4F8F93"/>
<path d="M64.0743 37.6654C64.0569 37.4782 64.0569 37.2898 64.0743 37.1026C64.0743 37.0053 64.2203 36.8594 64.2967 36.8594C64.3538 36.8698 64.407 36.8953 64.451 36.9332C64.495 36.971 64.5281 37.0199 64.5469 37.0748C64.5747 37.4681 64.5747 37.8628 64.5469 38.2561C64.5269 38.3103 64.4934 38.3584 64.4496 38.3961C64.4059 38.4338 64.3533 38.4598 64.2967 38.4715C64.2203 38.4715 64.0952 38.3256 64.0743 38.2283C64.0569 38.0411 64.0569 37.8526 64.0743 37.6654Z" fill="#4F8F93"/>
<path d="M64.0751 35.3166C64.0751 35.2333 64.0751 35.129 64.0751 35.0665C64.0751 35.004 64.2141 34.8511 64.3113 34.8302C64.4086 34.8094 64.5268 34.9484 64.5476 35.0248C64.5823 35.2201 64.5823 35.4201 64.5476 35.6154C64.5276 35.6663 64.4946 35.711 64.4519 35.7452C64.4093 35.7793 64.3584 35.8017 64.3044 35.81C64.221 35.81 64.1237 35.6919 64.0751 35.6015C64.0264 35.5112 64.0751 35.4139 64.0751 35.3166Z" fill="#4F8F93"/>
<path d="M74.4414 36.7941C74.2694 36.69 74.1067 36.5715 73.9549 36.4397C73.9324 36.3981 73.9207 36.3515 73.9207 36.3042C73.9207 36.2569 73.9324 36.2103 73.9549 36.1687C73.9879 36.1344 74.028 36.1078 74.0725 36.091C74.117 36.0742 74.1647 36.0675 74.212 36.0714C74.3736 36.1337 74.5221 36.2256 74.6498 36.3424C74.679 36.3804 74.6981 36.4252 74.7054 36.4726C74.7127 36.5199 74.7079 36.5684 74.6915 36.6134C74.6637 36.6898 74.5456 36.7246 74.4414 36.7941Z" fill="#4F8F93"/>
<path d="M109.991 192.247C111.068 192.247 112.236 191.454 112.187 190.37C112.138 189.286 111.082 188.675 110.471 187.834C109.859 186.993 109.776 185.749 110.61 185.166C110.898 185.013 111.218 184.928 111.544 184.918C111.87 184.907 112.195 184.97 112.493 185.103C113.084 185.378 113.707 185.579 114.348 185.701C114.669 185.754 114.999 185.697 115.284 185.54C115.569 185.382 115.793 185.133 115.919 184.832C115.957 184.589 115.938 184.341 115.863 184.107C115.788 183.873 115.66 183.66 115.488 183.484C115.142 183.14 114.819 182.773 114.522 182.386C114.221 181.843 114.132 181.208 114.27 180.603C114.409 179.998 114.766 179.465 115.272 179.106C115.795 178.779 116.402 178.611 117.019 178.622C117.636 178.633 118.236 178.823 118.747 179.169C119.178 179.437 119.511 179.837 119.699 180.309C119.858 180.781 119.935 181.747 119.435 181.698C118.934 181.65 118.74 180.857 118.316 180.607C118.093 180.47 117.833 180.403 117.571 180.417C117.309 180.431 117.057 180.524 116.85 180.684C116.655 180.918 116.537 181.205 116.51 181.508C116.482 181.811 116.548 182.114 116.697 182.379C116.947 182.935 117.357 183.415 117.558 183.984C117.712 184.418 117.738 184.887 117.635 185.335C117.532 185.783 117.304 186.193 116.977 186.517C116.65 186.84 116.238 187.064 115.788 187.162C115.339 187.26 114.87 187.228 114.438 187.07C114.15 186.932 113.85 186.82 113.542 186.736C113.386 186.697 113.222 186.707 113.073 186.766C112.923 186.825 112.796 186.928 112.708 187.063C112.486 187.542 113.028 187.994 113.403 188.355C113.903 188.874 114.215 189.546 114.288 190.262C114.361 190.979 114.191 191.7 113.806 192.309C113.396 192.903 112.833 193.375 112.175 193.672C111.518 193.97 110.791 194.082 110.075 193.998C109.402 193.916 108.755 193.691 108.178 193.337C107.781 193.101 106.6 192.351 106.565 191.837C106.489 190.919 107.483 191.371 107.844 191.559C108.492 191.962 109.23 192.199 109.991 192.247Z" fill="#F3AC5F"/>
<path d="M105.669 190.649C106.423 190.903 107.248 190.848 107.962 190.496C108.312 190.313 108.596 190.023 108.771 189.668C108.946 189.313 109.003 188.912 108.935 188.523C108.656 187.877 108.23 187.306 107.691 186.855C107.119 186.261 106.795 185.47 106.787 184.645C106.791 184.236 106.922 183.838 107.162 183.506C107.403 183.175 107.74 182.927 108.128 182.797C108.79 182.685 109.47 182.805 110.053 183.137C110.632 183.47 111.273 183.681 111.936 183.756C112.267 183.777 112.594 183.679 112.859 183.481C113.124 183.282 113.31 182.995 113.382 182.672C113.352 182.207 113.174 181.764 112.874 181.407C112.18 180.392 111.77 178.982 112.513 178.03C112.721 177.788 112.978 177.593 113.266 177.458C113.555 177.323 113.869 177.25 114.188 177.245C114.823 177.242 115.452 177.36 116.043 177.592C116.311 177.727 116.618 177.767 116.912 177.703C117.017 177.648 117.109 177.571 117.184 177.478C117.258 177.385 117.312 177.278 117.343 177.163C117.373 177.048 117.38 176.928 117.362 176.811C117.344 176.693 117.302 176.581 117.238 176.48C116.959 176.079 116.549 175.789 116.078 175.66C114.81 175.11 113.377 175.073 112.082 175.556C111.449 175.814 110.926 176.285 110.602 176.888C110.279 177.49 110.176 178.186 110.31 178.857C110.442 179.315 110.713 179.725 110.859 180.177C110.951 180.399 110.977 180.642 110.935 180.878C110.893 181.115 110.785 181.334 110.623 181.511C110.424 181.643 110.193 181.718 109.954 181.729C109.716 181.74 109.479 181.686 109.268 181.574C108.85 181.34 108.41 181.147 107.955 180.997C107.445 180.939 106.93 181.062 106.501 181.343C106.072 181.625 105.755 182.048 105.606 182.54C105.334 183.538 105.438 184.601 105.898 185.528C106.263 186.17 106.499 186.879 106.593 187.612C106.593 188.342 106.058 189.162 105.328 189.092C104.986 189.016 104.661 188.877 104.369 188.682C103.716 188.356 102.813 188.773 103.382 189.53C103.785 190.016 105.064 190.468 105.669 190.649Z" fill="#F3AC5F"/>
</svg>
