<svg width="80" height="80" viewBox="0 0 80 80" fill="none" xmlns="http://www.w3.org/2000/svg">
<circle cx="40" cy="40" r="40" fill="#DB8080"/>
<path d="M52.0581 25.0743C53.0529 25.4408 53.7137 26.3885 53.7137 27.4486L53.7137 52.5514C53.7137 53.6115 53.0529 54.5593 52.0581 54.9258C50.1761 55.6192 48.1085 55.6192 46.2265 54.9258C45.2317 54.5593 44.5709 53.6115 44.5709 52.5514L44.5709 27.4486C44.5709 26.3885 45.2317 25.4408 46.2265 25.0743C48.1085 24.3809 50.1761 24.3809 52.0581 25.0743Z" fill="white"/>
<path d="M33.7724 25.0743C34.7672 25.4408 35.428 26.3885 35.428 27.4486L35.428 52.5514C35.428 53.6115 34.7672 54.5593 33.7724 54.9258C31.8904 55.6192 29.8228 55.6192 27.9407 54.9258C26.946 54.5593 26.2852 53.6115 26.2852 52.5514L26.2852 27.4486C26.2852 26.3885 26.946 25.4408 27.9407 25.0743C29.8228 24.3809 31.8904 24.3809 33.7724 25.0743Z" fill="white"/>
</svg>
