<svg width="39" height="25" viewBox="0 0 39 25" fill="none" xmlns="http://www.w3.org/2000/svg">
<g clip-path="url(#clip0_3997_40489)">
<path opacity="0.07" d="M35.3555 0.800781H3.35547C1.65547 0.800781 0.355469 2.10078 0.355469 3.80078V21.8008C0.355469 23.5008 1.75547 24.8008 3.35547 24.8008H35.3555C37.0555 24.8008 38.3555 23.5008 38.3555 21.8008V3.80078C38.3555 2.10078 36.9555 0.800781 35.3555 0.800781Z" fill="black"/>
<path d="M35.3555 1.80078C36.4555 1.80078 37.3555 2.70078 37.3555 3.80078V21.8008C37.3555 22.9008 36.4555 23.8008 35.3555 23.8008H3.35547C2.25547 23.8008 1.35547 22.9008 1.35547 21.8008V3.80078C1.35547 2.70078 2.25547 1.80078 3.35547 1.80078H35.3555Z" fill="white"/>
<path d="M3.92547 7.95984H2.35547V13.4598H3.92547C4.75547 13.4598 5.35547 13.2598 5.88547 12.8298C6.51547 12.3098 6.88547 11.5298 6.88547 10.7198C6.87547 9.08984 5.66547 7.95984 3.92547 7.95984ZM5.18547 12.0998C4.84547 12.3998 4.41547 12.5398 3.71547 12.5398H3.42547V8.89984H3.71547C4.40547 8.89984 4.82547 9.01984 5.18547 9.33984C5.55547 9.66984 5.77547 10.1798 5.77547 10.7098C5.77547 11.2398 5.55547 11.7698 5.18547 12.0998ZM7.37547 7.95984H8.44547V13.4598H7.37547V7.95984ZM11.0655 10.0698C10.4255 9.82984 10.2355 9.66984 10.2355 9.37984C10.2355 9.02984 10.5755 8.76984 11.0355 8.76984C11.3555 8.76984 11.6255 8.89984 11.8955 9.21984L12.4555 8.48984C11.9955 8.08984 11.4455 7.87984 10.8355 7.87984C9.86547 7.87984 9.11547 8.55984 9.11547 9.45984C9.11547 10.2198 9.46547 10.6098 10.4655 10.9698C10.8855 11.1198 11.0955 11.2198 11.2055 11.2798C11.4155 11.4198 11.5255 11.6198 11.5255 11.8498C11.5255 12.2998 11.1755 12.6298 10.6955 12.6298C10.1855 12.6298 9.77547 12.3698 9.52547 11.8998L8.83547 12.5698C9.32547 13.2998 9.92547 13.6198 10.7355 13.6198C11.8455 13.6198 12.6355 12.8798 12.6355 11.8098C12.6555 10.9198 12.2855 10.5198 11.0655 10.0698ZM12.9855 10.7198C12.9855 12.3398 14.2555 13.5898 15.8855 13.5898C16.3455 13.5898 16.7455 13.4998 17.2255 13.2698V12.0098C16.7955 12.4398 16.4155 12.6098 15.9355 12.6098C14.8555 12.6098 14.0855 11.8298 14.0855 10.7098C14.0855 9.64984 14.8755 8.81984 15.8855 8.81984C16.3955 8.81984 16.7855 8.99984 17.2255 9.43984V8.17984C16.7555 7.93984 16.3655 7.83984 15.9055 7.83984C14.2955 7.83984 12.9855 9.11984 12.9855 10.7198ZM25.7455 11.6598L24.2755 7.95984H23.1055L25.4355 13.5998H26.0155L28.3855 7.95984H27.2255L25.7455 11.6598ZM28.8755 13.4598H31.9155V12.5298H29.9455V11.0498H31.8455V10.1198H29.9455V8.89984H31.9155V7.95984H28.8755V13.4598ZM36.1655 9.58984C36.1655 8.55984 35.4555 7.96984 34.2155 7.96984H32.6255V13.4698H33.6955V11.2598H33.8355L35.3155 13.4698H36.6355L34.9055 11.1498C35.7155 10.9798 36.1655 10.4298 36.1655 9.58984ZM34.0055 10.4998H33.6955V8.82984H34.0255C34.6955 8.82984 35.0555 9.10984 35.0555 9.64984C35.0555 10.1998 34.6955 10.4998 34.0055 10.4998Z" fill="#231F20"/>
<path d="M20.5169 13.6608C21.2943 13.6608 22.0398 13.352 22.5895 12.8024C23.1391 12.2527 23.4479 11.5072 23.4479 10.7298C23.4479 9.95248 23.1391 9.20697 22.5895 8.6573C22.0398 8.10763 21.2943 7.79883 20.5169 7.79883C19.7396 7.79883 18.9941 8.10763 18.4444 8.6573C17.8947 9.20697 17.5859 9.95248 17.5859 10.7298C17.5859 11.5072 17.8947 12.2527 18.4444 12.8024C18.9941 13.352 19.7396 13.6608 20.5169 13.6608Z" fill="url(#paint0_linear_3997_40489)"/>
<path opacity="0.65" d="M20.5169 13.6608C21.2943 13.6608 22.0398 13.352 22.5895 12.8024C23.1391 12.2527 23.4479 11.5072 23.4479 10.7298C23.4479 9.95248 23.1391 9.20697 22.5895 8.6573C22.0398 8.10763 21.2943 7.79883 20.5169 7.79883C19.7396 7.79883 18.9941 8.10763 18.4444 8.6573C17.8947 9.20697 17.5859 9.95248 17.5859 10.7298C17.5859 11.5072 17.8947 12.2527 18.4444 12.8024C18.9941 13.352 19.7396 13.6608 20.5169 13.6608Z" fill="url(#paint1_linear_3997_40489)"/>
<path d="M36.9259 8.30625C36.9259 8.20625 36.8559 8.15625 36.7459 8.15625H36.5859V8.63625H36.7059V8.44625L36.8459 8.63625H36.9859L36.8259 8.43625C36.8859 8.42625 36.9259 8.37625 36.9259 8.30625ZM36.7259 8.37625H36.7059V8.24625H36.7259C36.7859 8.24625 36.8159 8.26625 36.8159 8.30625C36.8159 8.35625 36.7859 8.37625 36.7259 8.37625Z" fill="#231F20"/>
<path d="M36.7637 7.97656C36.5337 7.97656 36.3438 8.16656 36.3438 8.39656C36.3438 8.62656 36.5337 8.81656 36.7637 8.81656C36.9937 8.81656 37.1838 8.62656 37.1838 8.39656C37.1838 8.16656 36.9937 7.97656 36.7637 7.97656ZM36.7637 8.74656C36.5837 8.74656 36.4237 8.59656 36.4237 8.39656C36.4237 8.20656 36.5737 8.04656 36.7637 8.04656C36.9437 8.04656 37.0938 8.20656 37.0938 8.39656C37.0938 8.58656 36.9437 8.74656 36.7637 8.74656Z" fill="#231F20"/>
<path d="M37.356 13.7852C37.356 13.7852 27.446 20.6742 9.33203 23.8012H35.355C35.8827 23.8012 36.389 23.5927 36.7636 23.221C37.1382 22.8494 37.3508 22.3448 37.355 21.8172L37.379 18.7972L37.356 13.7862V13.7852Z" fill="#F48120"/>
</g>
<defs>
<linearGradient id="paint0_linear_3997_40489" x1="22.0139" y1="13.0758" x2="19.9889" y2="9.90483" gradientUnits="userSpaceOnUse">
<stop stop-color="#F89F20"/>
<stop offset="0.25" stop-color="#F79A20"/>
<stop offset="0.533" stop-color="#F68D20"/>
<stop offset="0.62" stop-color="#F58720"/>
<stop offset="0.723" stop-color="#F48120"/>
<stop offset="1" stop-color="#F37521"/>
</linearGradient>
<linearGradient id="paint1_linear_3997_40489" x1="21.6949" y1="13.0328" x2="18.7349" y2="7.24683" gradientUnits="userSpaceOnUse">
<stop stop-color="#F58720"/>
<stop offset="0.359" stop-color="#E16F27"/>
<stop offset="0.703" stop-color="#D4602C"/>
<stop offset="0.982" stop-color="#D05B2E"/>
</linearGradient>
<clipPath id="clip0_3997_40489">
<rect width="38" height="24" fill="white" transform="translate(0.355469 0.800781)"/>
</clipPath>
</defs>
</svg>
