<svg width="39" height="25" viewBox="0 0 39 25" fill="none" xmlns="http://www.w3.org/2000/svg">
<g clip-path="url(#clip0_3997_40508)">
<path opacity="0.07" d="M35.3555 0.800781H3.35547C1.65547 0.800781 0.355469 2.10078 0.355469 3.80078V21.8008C0.355469 23.5008 1.75547 24.8008 3.35547 24.8008H35.3555C37.0555 24.8008 38.3555 23.5008 38.3555 21.8008V3.80078C38.3555 2.10078 36.9555 0.800781 35.3555 0.800781Z" fill="black"/>
<path d="M35.3555 1.80078C36.4555 1.80078 37.3555 2.70078 37.3555 3.80078V21.8008C37.3555 22.9008 36.4555 23.8008 35.3555 23.8008H3.35547C2.25547 23.8008 1.35547 22.9008 1.35547 21.8008V3.80078C1.35547 2.70078 2.25547 1.80078 3.35547 1.80078H35.3555Z" fill="#006FCF"/>
<path d="M9.32647 11.0688L10.1005 12.9448H8.55847L9.32647 11.0688ZM25.4015 11.1468H22.4245V11.9738H25.3535V13.2128H22.4305V14.1348H25.4075V14.8738L27.4845 12.6288L25.4075 10.2888L25.4015 11.1468ZM11.3385 8.80678H15.3335L16.2205 10.7418L17.0425 8.80078H27.4125L28.4905 9.99078L29.6055 8.80078H34.3685L30.8495 12.6528L34.3325 16.4808H29.4985L28.4205 15.2908L27.2955 16.4808H10.3855L9.89147 15.2908H8.76147L8.26647 16.4808H4.35547L7.64147 8.80078H11.0715L11.3385 8.80678ZM20.0015 9.88478H17.7625L16.2625 13.4208L14.6375 9.88478H12.4155V14.6948L10.3555 9.88478H8.36247L5.98047 15.3968H7.53547L8.02947 14.2068H10.6255L11.1195 15.3968H13.8395V11.4618L15.5905 15.4028H16.7805L18.5205 11.4738V15.4038H19.9785L20.0025 9.88378L20.0015 9.88478ZM29.3415 12.6528L31.8725 9.88478H30.0505L28.4495 11.6108L26.9015 9.88478H21.0075V15.4028H26.8175L28.4315 13.6648L29.9795 15.4028H31.8545L29.3425 12.6528H29.3415Z" fill="white"/>
</g>
<defs>
<clipPath id="clip0_3997_40508">
<rect width="38" height="24" fill="white" transform="translate(0.355469 0.800781)"/>
</clipPath>
</defs>
</svg>
