<svg width="39" height="25" viewBox="0 0 39 25" fill="none" xmlns="http://www.w3.org/2000/svg">
<g clip-path="url(#clip0_3997_40502)">
<path opacity="0.07" d="M35.3555 0.800781H3.35547C1.65547 0.800781 0.355469 2.10078 0.355469 3.80078V21.8008C0.355469 23.5008 1.75547 24.8008 3.35547 24.8008H35.3555C37.0555 24.8008 38.3555 23.5008 38.3555 21.8008V3.80078C38.3555 2.10078 36.9555 0.800781 35.3555 0.800781Z" fill="black"/>
<path d="M35.3555 1.80078C36.4555 1.80078 37.3555 2.70078 37.3555 3.80078V21.8008C37.3555 22.9008 36.4555 23.8008 35.3555 23.8008H3.35547C2.25547 23.8008 1.35547 22.9008 1.35547 21.8008V3.80078C1.35547 2.70078 2.25547 1.80078 3.35547 1.80078H35.3555Z" fill="white"/>
<path d="M15.3555 19.8008C19.2215 19.8008 22.3555 16.6668 22.3555 12.8008C22.3555 8.93479 19.2215 5.80078 15.3555 5.80078C11.4895 5.80078 8.35547 8.93479 8.35547 12.8008C8.35547 16.6668 11.4895 19.8008 15.3555 19.8008Z" fill="#EB001B"/>
<path d="M23.3555 19.8008C27.2215 19.8008 30.3555 16.6668 30.3555 12.8008C30.3555 8.93479 27.2215 5.80078 23.3555 5.80078C19.4895 5.80078 16.3555 8.93479 16.3555 12.8008C16.3555 16.6668 19.4895 19.8008 23.3555 19.8008Z" fill="#F79E1B"/>
<path d="M22.3555 12.8016C22.3555 10.4016 21.1555 8.30156 19.3555 7.10156C17.5555 8.40156 16.3555 10.5016 16.3555 12.8016C16.3555 15.1016 17.5555 17.3016 19.3555 18.5016C21.1555 17.3016 22.3555 15.2016 22.3555 12.8016Z" fill="#FF5F00"/>
</g>
<defs>
<clipPath id="clip0_3997_40502">
<rect width="38" height="24" fill="white" transform="translate(0.355469 0.800781)"/>
</clipPath>
</defs>
</svg>
