<svg width="39" height="25" viewBox="0 0 39 25" fill="none" xmlns="http://www.w3.org/2000/svg">
<g clip-path="url(#clip0_3997_40498)">
<path opacity="0.07" d="M35.3555 0.800781H3.35547C1.65547 0.800781 0.355469 2.10078 0.355469 3.80078V21.8008C0.355469 23.5008 1.75547 24.8008 3.35547 24.8008H35.3555C37.0555 24.8008 38.3555 23.5008 38.3555 21.8008V3.80078C38.3555 2.10078 36.9555 0.800781 35.3555 0.800781Z" fill="black"/>
<path d="M35.3555 1.80078C36.4555 1.80078 37.3555 2.70078 37.3555 3.80078V21.8008C37.3555 22.9008 36.4555 23.8008 35.3555 23.8008H3.35547C2.25547 23.8008 1.35547 22.9008 1.35547 21.8008V3.80078C1.35547 2.70078 2.25547 1.80078 3.35547 1.80078H35.3555Z" fill="white"/>
<path d="M28.6555 10.9008H28.3555C27.9555 11.9008 27.6555 12.4008 27.3555 13.9008H29.2555C28.9555 12.4008 28.9555 11.7008 28.6555 10.9008ZM31.5555 16.8008H29.8555C29.7555 16.8008 29.7555 16.8008 29.6555 16.7008L29.4555 15.8008L29.3555 15.6008H26.9555C26.8555 15.6008 26.7555 15.6008 26.7555 15.8008L26.4555 16.7008C26.4555 16.8008 26.3555 16.8008 26.3555 16.8008H24.2555L24.4555 16.3008L27.3555 9.50078C27.3555 9.00078 27.6555 8.80078 28.1555 8.80078H29.6555C29.7555 8.80078 29.8555 8.80078 29.8555 9.00078L31.2555 15.5008C31.3555 15.9008 31.4555 16.2008 31.4555 16.6008C31.5555 16.7008 31.5555 16.7008 31.5555 16.8008ZM18.1555 16.5008L18.5555 14.7008C18.6555 14.7008 18.7555 14.8008 18.7555 14.8008C19.4555 15.1008 20.1555 15.3008 20.8555 15.2008C21.0555 15.2008 21.3555 15.1008 21.5555 15.0008C22.0555 14.8008 22.0555 14.3008 21.6555 13.9008C21.4555 13.7008 21.1555 13.6008 20.8555 13.4008C20.4555 13.2008 20.0555 13.0008 19.7555 12.7008C18.5555 11.7008 18.9555 10.3008 19.6555 9.60078C20.2555 9.20078 20.5555 8.80078 21.3555 8.80078C22.5555 8.80078 23.8555 8.80078 24.4555 9.00078H24.5555C24.4555 9.60078 24.3555 10.1008 24.1555 10.7008C23.6555 10.5008 23.1555 10.3008 22.6555 10.3008C22.3555 10.3008 22.0555 10.3008 21.7555 10.4008C21.5555 10.4008 21.4555 10.5008 21.3555 10.6008C21.1555 10.8008 21.1555 11.1008 21.3555 11.3008L21.8555 11.7008C22.2555 11.9008 22.6555 12.1008 22.9555 12.3008C23.4555 12.6008 23.9555 13.1008 24.0555 13.7008C24.2555 14.6008 23.9555 15.4008 23.1555 16.0008C22.6555 16.4008 22.4555 16.6008 21.7555 16.6008C20.3555 16.6008 19.2555 16.7008 18.3555 16.4008C18.2555 16.6008 18.2555 16.6008 18.1555 16.5008ZM14.6555 16.8008C14.7555 16.1008 14.7555 16.1008 14.8555 15.8008C15.3555 13.6008 15.8555 11.3008 16.2555 9.10078C16.3555 8.90078 16.3555 8.80078 16.5555 8.80078H18.3555C18.1555 10.0008 17.9555 10.9008 17.6555 12.0008C17.3555 13.5008 17.0555 15.0008 16.6555 16.5008C16.6555 16.7008 16.5555 16.7008 16.3555 16.7008L14.6555 16.8008ZM5.35547 9.00078C5.35547 8.90078 5.55547 8.80078 5.65547 8.80078H9.05547C9.55547 8.80078 9.95547 9.10078 10.0555 9.60078L10.9555 14.0008C10.9555 14.1008 10.9555 14.1008 11.0555 14.2008C11.0555 14.1008 11.1555 14.1008 11.1555 14.1008L13.2555 9.00078C13.1555 8.90078 13.2555 8.80078 13.3555 8.80078H15.4555C15.4555 8.90078 15.4555 8.90078 15.3555 9.00078L12.2555 16.3008C12.1555 16.5008 12.1555 16.6008 12.0555 16.7008C11.9555 16.8008 11.7555 16.7008 11.5555 16.7008H10.0555C9.95547 16.7008 9.85547 16.7008 9.85547 16.5008L8.25547 10.3008C8.05547 10.1008 7.75547 9.80078 7.35547 9.70078C6.75547 9.40078 5.65547 9.20078 5.45547 9.20078L5.35547 9.00078Z" fill="#142688"/>
</g>
<defs>
<clipPath id="clip0_3997_40498">
<rect width="38" height="24" fill="white" transform="translate(0.355469 0.800781)"/>
</clipPath>
</defs>
</svg>
