<?xml version="1.0" encoding="utf-8"?>
<!-- Generator: Adobe Illustrator 25.4.1, SVG Export Plug-In . SVG Version: 6.00 Build 0)  -->
<svg version="1.1" id="Capa_1" xmlns="http://www.w3.org/2000/svg" xmlns:xlink="http://www.w3.org/1999/xlink" x="0px" y="0px"
	 width="175.6875763px" height="154.0099945px" viewBox="0 0 175.6875763 154.0099945"
	 style="enable-background:new 0 0 175.6875763 154.0099945;" xml:space="preserve">
<style type="text/css">
	.st0{fill:#FFF8EF;}
	.st1{fill:#454560;}
	.st2{fill:#F48182;}
</style>
<g>
	<path class="st0" d="M1.8600082,154.0099945c3,0,5.9099998,0,8.7299995-0.0599976
		c6.9999962-0.0599976,13.3999977-0.1499939,19.1599998-0.25c16.3300018-0.3000031,27.4799957-0.7899933,32-1.5
		c24.1499939-3.8399963,65-16.1900024,90.6499863-30.6900024c15.480011-8.75,25.4400024-18.2900009,22.8900146-27.2099991
		c-3.2400208-11.3600006-11.8600159-18.8799973-20.8900146-24.6800003c-7.8200073-5-16-8.7900009-21.1399841-12.6299973
		c-0.3000183-0.2300034-0.5899963-0.4499969-0.8699951-0.6800003c-0.8958435-0.6996002-1.7259521-1.4794998-2.480011-2.3300018
		c-0.1269226-0.1338959-0.2471008-0.2740707-0.3599854-0.4199982c-3.1196976-3.6466599-6.4205246-7.1343842-9.890007-10.4499969
		c-3.6534576-3.457962-7.4996033-6.7064819-11.5200043-9.7299995h-0.0700073C88.159996,18.3800011,54.1200027,1.3199997,0,0"/>
	<path class="st1" d="M102.8800125,33.1899872l17.8399963,21.1999969l11.6299973,2
		c-0.893158-0.6990356-1.7230225-1.4753723-2.4799805-2.3199997l-0.3600159-0.4199982
		c-3.1137772-3.6551437-6.4148788-7.146492-9.8899918-10.4599991c-3.6560211-3.455101-7.5019989-6.7034836-11.5200043-9.7299995
		h-0.0700073L102.8800125,33.1899872z"/>
	<polygon class="st1" points="98.5400009,33.4399872 115.9000015,54.769989 93.7200089,57.4099884 88.9000015,34.5499878 	"/>
	<polygon class="st1" points="86.7900009,35.0299873 89.9200058,56.3699875 74.2500076,49.9899902 74.5500107,35.3799858 	"/>
	<path class="st2" d="M146.25,97.9399872c1,11.5599976,3.9100037,19.25,6.1100159,23.5700073
		c15.4799805-8.75,25.4400024-18.2900009,22.8899841-27.2099991c-3.2399902-11.3600006-11.8599854-18.8799973-20.8899841-24.6800003
		l-0.1900024,0.4800034C154.1700134,70.0999985,144.6100159,78.6199875,146.25,97.9399872z"/>
	<ellipse class="st1" cx="151.8900146" cy="81.4099884" rx="0.5" ry="0.5199966"/>
	<path class="st1" d="M150.7900085,95.3599854c0.0055237-0.2816086-0.2182922-0.5143814-0.4999084-0.5198975
		c-0.0033569-0.0000687-0.0067444-0.0000992-0.0101013-0.0000992c-0.2816162,0.0054703-0.5054626,0.2381897-0.5,0.5198059
		c0,0.000061,0,0.0001297,0,0.0001907c-0.0110779,0.2814484,0.2080688,0.5186005,0.4895325,0.5296936
		c0.003479,0.0001373,0.0069885,0.0002365,0.0104675,0.0003052c0.2871399-0.0054703,0.5154724-0.2426758,0.5100098-0.5298157
		C150.7900085,95.3601074,150.7900085,95.3600464,150.7900085,95.3599854z"/>
	<path class="st1" d="M150.7900085,111.4599915c0.0055542-0.2871399-0.2226868-0.5244141-0.5098267-0.5299988
		c-0.000061,0-0.0001221,0-0.0001831,0c-0.2816162,0.0053101-0.5056152,0.2378998-0.5003052,0.519516
		c0.000061,0.0034943,0.0001831,0.0069885,0.0003052,0.0104828c-0.0055847,0.2816162,0.2182007,0.5144196,0.4998169,0.5200043
		c0.000061,0,0.0001221,0,0.0001831,0c0.2816772,0.0000458,0.5100403-0.228241,0.5101013-0.509903
		C150.7901001,111.4667206,150.7900696,111.4633636,150.7900085,111.4599915z"/>
	<path class="st1" d="M167.9200134,95.3599854c0-0.2761459-0.223877-0.5-0.5-0.5c-0.2761536,0-0.5,0.2238541-0.5,0.5
		s0.2238464,0.5,0.5,0.5C167.6961365,95.8599854,167.9200134,95.6361313,167.9200134,95.3599854z"/>
</g>
</svg>
