<?xml version="1.0" encoding="utf-8"?>
<!-- Generator: Adobe Illustrator 25.4.1, SVG Export Plug-In . SVG Version: 6.00 Build 0)  -->
<svg version="1.1" id="Layer_1" xmlns="http://www.w3.org/2000/svg" xmlns:xlink="http://www.w3.org/1999/xlink" x="0px" y="0px"
	 width="1799.7006836px" height="178.9640503px" viewBox="0 0 1799.7006836 178.9640503"
	 style="enable-background:new 0 0 1799.7006836 178.9640503;" xml:space="preserve">
<style type="text/css">
	.st0{opacity:0.3;fill:#9AB0F6;enable-background:new    ;}
	.st1{fill:none;}
	.st2{opacity:0.5;fill:#FFFFFF;enable-background:new    ;}
</style>
<g>
	<path class="st0" d="M1755.9384766,178.9640503c-12.729248-11.9215088-28.6071777-23.3200073-48.2077637-33.9240723
		c-167.1601562-90.4299927-168.2399902-0.6199951-371.5900879-114.7600098
		c-71.5300293-40.1400146-197.8598633-35.5800171-297,15.8300171
		c-89.9099731,46.6199951-226.1099243,9.8800049-306.999939-9.7299805
		C634.0505981,12.5700073,495.5905762-10.960022,354.4205933,5.5499878
		C191.2806396,24.6799927,218.7706299,157.2399902,98.5505981,137.039978
		C64.0722656,131.239563,30.9256592,131.2322388,0,135.7905884v43.1734619H1755.9384766z"/>
	<rect y="0.0099487" class="st0" width="1799.7006836" height="178.9541016"/>
	<path class="st0" d="M1761.4934082,178.9640503c-6.1745605-5.6828613-12.9084473-10.9355469-19.9926758-15.684082
		c-27.630127-18.5199585-60.3701172-30.4899902-92.7600098-42.1099854
		c-61-21.8999634-125.8200684-51.2000122-191.4101562-43.3499756c-26.369873,3.1599731-52.7600098-5.3300171-76.2600098-16
		s-45.7099609-23.7999878-70.8898926-31.1600342c-53.0700684-15.5199585-110.6101074,12.4500122-166.4599609,8
		c-49.5200195-3.9400024-92.3500977,31.2900391-141.8600464,35.3699951c-31.4899902,2.6000366-62.1999512-7.6399536-93-13.6799927
		c-53.8099976-10.539978-115.3499756,14-165.8800049-5C644.3206177,18.2799683,532.8505859,17.039978,425.1206055,19.8800049
		c-16.4799805,0.4400024-33.2299805,1-48.8800049,5.4499512c-13.8399658,3.9299927-26.4899902,10.8000488-40.7299805,13.5300293
		c-13.7600098,2.6300049-28.3600464,1.2399902-41.9100342,4.6099854
		c-25.4099731,6.2999878-39.2299805,35.8300171-65.6099854,37.6400146
		c-34.2600098,2.3499756-58.5899658,30.5199585-91.7000122,38.3399658c-17.1499634,4.0599976-35.4199829,2.3400269-53,4.4400024
		C55.6705933,127.1999512,30.6005859,139.75,3.1605835,144C2.1174316,144.1613159,1.0618286,144.3127441,0,144.4596558v34.5043945
		H1761.4934082z"/>
	<rect class="st1" width="1799.7006836" height="178.9640503"/>
	<path class="st0" d="M1309.3105469,125.8599777c26.380127-16.7300034,61-8.1999969,91.5900879-14.3099976
		c23.1999512-4.6200027,45.7600098-17.9000015,69-13.4199982c9.7199707,1.8700027,18.5600586,6.7600021,27.2099609,11.5800018
		l41.579834,23.1700058c7.6000977,4.2299957,16,9.4799957,17.6601562,18
		c0.3898926,1.9400024,0.329834,4.1300049-0.9101562,5.6799927s-3.3198242,2.1000061-5.2600098,2.5
		c-36,7.4400024-73-2.1300049-109.7700195-3.2299957c-13.4899902-0.3999939-27,0.3399963-40.4699707,1.0899963
		l-97.4399414,5.3899994c-7.2600098,0.3999939-32.4799805-0.7700043-26.6799316-14.3000031
		c1.5400391-3.5899963,10.1098633-5.5,13.1499023-7.3099976
		C1296.2106934,136.4399719,1302.2006836,130.3599854,1309.3105469,125.8599777z"/>
	<path class="st0" d="M962.8705444,106.0999756c8.5699463-0.4899979,17.1899414,0,25.75-0.5599976
		c9.5799561-0.6600037,19-2.7300034,28.5899658-3.4100037c25.5651245-1.683876,50.7999878,6.5177383,70.4901733,22.9100037
		c3.8598633,3.2400055,7.8000488,7.7799988,6.6499023,12.6900024c-1,4.5099945-6.0898438,7-10.7199707,7.2400055
		c-4.6298828,0.2400055-9.1799316-1.1600037-13.8000488-1.4199982c-7-0.3899994-13.829834,1.7700043-20.6799316,3.2200012
		c-14.1101074,3-28.6500854,2.9100037-43.0700073,2.8300018l-78.0899658-0.4299927
		c-6.7399902,0-13.8299561-0.1600037-19.6899414-3.5099945C876.0505981,127.2599792,950.850647,106.789978,962.8705444,106.0999756z
		"/>
	<path class="st0" d="M141.1405945,151.4599762l39.2399902-18.5099945
		c5.7262878-2.5368652,11.2666931-5.4741364,16.5799866-8.7900009c3.8299866-2.5,7.4500122-5.4199982,11.6600037-7.2200012
		c5.7000122-2.4300003,12.0799866-2.6299973,18.2799988-2.6800003c10.206665-0.0933304,20.4166565,0.0966721,30.6300049,0.5699997
		c5.1900024,0.25,10.4299927,0.5599976,15.5499878-0.3300018c4.5499878-0.8000031,8.8800049-2.5199966,13.2799988-3.9400024
		c14.997467-4.8572769,30.8845825-6.3326111,46.519989-4.3199997c9.2999878,1.2099991,16.6400146,7.8000031,25.0700073,11.9100037
		c8,3.9000015,16.8099976,5.75,25.3699951,8.1800003s17.1799927,5.6299973,23.75,11.6299973s10.7000122,15.3899994,8.3099976,24
		c-36.4984131,4.3713379-73.3264465,5.3087921-110,2.8000031c-15.9200134,0.3099976-31.8900146,0.6999969-47.769989-0.5099945
		c-7.3200073-0.5599976-14.6499939-1.4400024-22-1.0899963s-14.7200012,1.9499969-22.0799866,3
		c-14.8399963,2.0800018-29.8900146,1.8399963-44.8599854,1.5800018
		c-5.8299866-0.1000061-11.8200073-0.2299957-17.2000122-2.4400024S141.5006104,157.2799835,141.1405945,151.4599762z"/>
	<path class="st0" d="M485.7905884,90.039978C507.9460449,68.283371,537.631958,55.899025,568.680603,55.4599762
		c5.1099854,0,10.3300171,0.2200012,15.210022-1.2999992c5.4299927-1.7000008,10-5.4799995,15.3699951-7.3400002
		c8.710022-3,18.4000244-0.5999985,27.4299927-2.4300003c4.2999878-0.8699989,8.4199829-2.7000008,12.7999878-3.0800018
		c6-0.5299988,11.9099731,1.7200012,17.5499878,3.9199982l25.9199829,10.1500015
		c10,3.9000015,18.2600098,11.1200027,28.2000122,15.0699997c7.289978,2.8899994,15.3599854,5.1100006,20.4699707,11.0599976
		c4.9000244,5.7099991,6,13.7200012,6.1500244,21.25c-12.5800171-0.3099976-25.4199829-0.5899963-37.4799805,3
		c-3.3599854,1-6.6300049,2.2900009-10,3.1600037c-7.8800049,2-16.1599731,1.7799988-24.289978,1.2900009
		c-32.2700195-1.9300003-64.7700195-7.1200027-96.75-2.3099976c-18.3499756,2.75-37.1599731,0.75-55.710022,1.5599976
		c-6.5300293,0.2900009-13.25,0.5400009-19.4199829-1.6200027
		C487.2205811,105.4299774,480.6105957,95.1799774,485.7905884,90.039978z"/>
	<path class="st2" d="M1193.1105957,111.1499786c0,0-6.829834-14.8099976-23.4399414-13.3000031
		c0,0-23.9199219-24.7900009-49.7800293-3.6500015c0,0-27.2800293-5.4899979-47.5898438,4.2200012
		c-13.5300293,6.4800034-18,13.340004-18,13.340004L1193.1105957,111.1499786z"/>
	<circle class="st2" cx="1309.7705078" cy="75.8899765" r="10.5200081"/>
	<path class="st2" d="M732.2406006,96.039978c0,0-11.9199829-25.3499985-40.4199829-22.5299988
		c0,0-41.3699951-42.25-85.4899902-5.6299973c0,0-46.9000244-9.0800018-81.6400146,7.8499985
		c-23.1500244,11.2900009-30.7999878,23.1299973-30.7999878,23.1299973L732.2406006,96.039978z"/>
	<path class="st2" d="M409.3405762,157.539978c0,0-12.5599976-27.2599945-43.1199646-24.5c0,0-44-45.5999985-91.5700073-6.7099991
		c0,0-50.1799927-10.0999985-87.5299988,7.7600021c-24.8999939,11.9100037-33.1900024,24.5399933-33.1900024,24.5399933
		L409.3405762,157.539978z"/>
	<path class="st2" d="M1085.7705078,137.1399841c0,0-8.4299316-17.9300003-28.5998535-15.9400024
		c0,0-29.2800293-29.9000015-60.500061-4c0,0-33.1899414-6.4199982-57.7700195,5.5599976
		c-16.3900146,8-21.8000488,16.3699951-21.8000488,16.3699951L1085.7705078,137.1399841z"/>
	<path class="st2" d="M1545.0505371,153.9599762c0,0-12.5698242-27.25-43.1298828-24.4600067
		c0,0-44-45.6100006-91.5600586-6.7200012c0,0-50.1799316-10.0999985-87.5300293,7.7599945
		c-24.8999023,11.9100037-33.1899414,24.5399933-33.1899414,24.5399933L1545.0505371,153.9599762z"/>
</g>
</svg>
