<?xml version="1.0" encoding="utf-8"?>
<!-- Generator: Adobe Illustrator 25.4.1, SVG Export Plug-In . SVG Version: 6.00 Build 0)  -->
<svg version="1.1" id="Capa_1" xmlns="http://www.w3.org/2000/svg" xmlns:xlink="http://www.w3.org/1999/xlink" x="0px" y="0px"
	 width="225.75px" height="328.0099792px" viewBox="0 0 225.75 328.0099792" style="enable-background:new 0 0 225.75 328.0099792;"
	 xml:space="preserve">
<style type="text/css">
	.st0{fill:#F49A9F;}
	.st1{fill:#F48182;}
	.st2{fill:#FFF8EF;}
	.st3{fill:#454560;}
	.st4{fill:#343249;}
</style>
<g>
	<path class="st0" d="M35.0099983,0l30.0000038,193.6199951h1.4400024l155.269989-4.7799988
		c0,0-69.6699829-26.1399841-76.2399902-37.3299866C139.3099976,140.9299927,74.6200027,16.9099998,54.0100021,2.0699997
		c-0.9360199-0.7791328-2.0729294-1.2782669-3.2799988-1.4400005L35.0099983,0z"/>
	<path class="st1" d="M66.4700012,193.5799866l155.2700195-4.7799988c0,0-69.6700134-26.1399841-76.2399902-37.3299866
		c-6.190033-10.5400085-70.8800278-134.5599976-91.4900284-149.3999939
		c16.4599991,35.8199997,54.3699951,121.7200012,50.6399994,145
		C101.0899963,169.2099915,77.9199982,186.3500061,66.4700012,193.5799866z"/>
	<path class="st2" d="M225.75,183.7200012c-8.3500061,0-9.6300049,0-16.8399963,0.0899963
		c-26.1000061,0.1999817-44.3399963,0.6699829-51.5,1.5c-18.6100159,2.1600037-39.3600082,3.7799988-58.2700119,5
		l-4.6399994,0.289978H94.269989c-2.3499985,0.1499939-4.659996,0.2799988-6.9199982,0.4100037h-0.2099991l-7.6800003,0.4200134
		l-10.4700012,0.519989l-4.1800003,0.1900024c-16.3199997,0.7400208-27.1599998,1-27.1599998,1s-0.0800018,0.3399963-0.2400017,1
		c0,0.0599976,0,0.1100159,0,0.1700134l-0.1399994,0.5599976l-0.3199997,1.4299927
		c-0.1599998,0.7200012-0.3300018,1.5499878-0.5099983,2.4799805l0,0c0,0.230011-0.0900002,0.4700012-0.1300011,0.710022l0,0
		c-0.1500015,0.769989-0.3100014,1.6000061-0.4599991,2.4799805c-0.1100006,0.6199951-0.2200012,1.2700195-0.3199997,1.9299927
		c-0.0600014,0.3699951-0.1199989,0.7400208-0.1699982,1.1199951c-0.0499992,0.3800049-0.1199989,0.8200073-0.1800003,1.25
		c-0.0800018,0.6000061-0.1599998,1.210022-0.2400017,1.8399963l-0.0900002,0.7600098l-0.1999893,1.3400269
		c0,0.2400208,0,0.4700012-0.0699997,0.710022c0,0.4599915-0.0900002,0.9199829-0.1300011,1.3800049l-0.0600014,0.7099915
		c0,0.4700012-0.0699997,1-0.0999985,1.4200134c-0.6699982,10.2399902,0.1399994,21.8299866,5.5900002,29.0899963
		c0.1899986,0.25,0.3800011,0.4899902,0.5800018,0.730011c0.3933334,0.4666748,0.8033371,0.9166565,1.2299995,1.3500061l0,0
		c0.2099991,0.2099915,0.4300003,0.4200134,0.6599998,0.6199951l0.7100029,0.5899963l0,0
		c0.2399979,0.1900024,0.4800034,0.3699951,0.7399979,0.5499878l0.7699966,0.519989l0,0
		c0.2600021,0.1700134,0.5299988,0.3200073,0.8099976,0.4700012l0,0l0.2399979,0.1300049l0,0l0.2600021,0.1400146l0,0
		l0.2699966,0.1400146l0,0l0.2799988,0.1499939l0,0c0.0998611,0.0473328,0.1967087,0.100769,0.2900009,0.1600037l0,0
		l0.3099976,0.1600037l0,0l0.3300018,0.1700134l0.3399963,0.1900024l0,0l0.3499985,0.1900024
		c0.130661,0.0587769,0.2575684,0.1255798,0.3799973,0.2000122l0.7799988,0.4100037l0,0l0.4100037,0.2099915l0,0
		l0.4300003,0.2200012l0.3099976,0.1600037l3.75,1.9400024l0.7799988,0.3999939c3.5999985,1.8399963,8,4.0499878,13,6.5400085
		l1.5800018,0.7900085l2.6900024,1.3299866l0.5999985,0.2900085l0.8499985,0.4200134l0.9600143,0.5198975l0.8700027,0.4200134
		l0.8799973,0.4299927l0.8799973,0.4299927l0.9000015,0.4400024L79,265.3699951l0,0l0.9100037,0.4400024l0.6600037,0.3299866
		l0.2699966,0.1300049l0,0l0.9300003,0.4400024l4.7999954,2.2999878l2.8499985,1.3699951l2.5,1.1900024
		c0.6200027,0.3099976,1.2600021,0.6099854,1.9000015,0.9100037c2.4800034,1.1799927,5,2.3900146,7.6299973,3.6099854
		l1.5800018,0.75l2.7399979,1.2799988l2.5,1.1700134l2.8200073,1.3099976
		c31.2499924,14.5100098,69.2100143,31.1199951,104.5999985,44.0899963l3.7200012,1.3500061L221.25,326.7099915
		c1.2399902,0.4400024,2.4599915,0.8800049,3.6900024,1.2999878"/>
	<path class="st3" d="M45.4000015,248.3800049c5.0599976,2.8299866,20.25,10.5799866,41.1699982,20.6299744
		c10.0599976-35.519989,34.3699951-48,34.3699951-48l-84.6500015-21.5
		C33.8100014,212.2099915,30.3800011,240.1199951,45.4000015,248.3800049z"/>
	<path class="st4" d="M123.4000015,211.3299866C122.7000046,209.9100037,50.0600052,171.2799988,0,178.6199951
		l44.3700027,41.4700012l76.5299988,0.8900146C120.9000015,220.980011,126.9200058,218.4100037,123.4000015,211.3299866z"/>
</g>
</svg>
