<svg width="49" height="49" viewBox="0 0 49 49" fill="none" xmlns="http://www.w3.org/2000/svg">
<path d="M24.5 47.5176C11.7975 47.5176 1.5 37.2201 1.5 24.5176C1.5 11.815 11.7975 1.51758 24.5 1.51758C37.2025 1.51758 47.5 11.815 47.5 24.5176C47.5 37.2201 37.2025 47.5176 24.5 47.5176Z" fill="white" fill-opacity="0.5" stroke="white" stroke-width="2"/>
<path d="M31.4404 25.6877L21.394 31.905C20.5414 32.4321 19.4473 31.7938 19.4473 30.7313V18.2968C19.4473 17.2359 20.5398 16.596 21.394 17.1247L31.4404 23.342C31.6343 23.4601 31.7955 23.6308 31.9077 23.8367C32.0198 24.0427 32.0788 24.2767 32.0788 24.5149C32.0788 24.753 32.0198 24.987 31.9077 25.193C31.7955 25.399 31.6343 25.5697 31.4404 25.6877Z" fill="#1D1D1B"/>
</svg>
