<svg width="49" height="48" viewBox="0 0 49 48" fill="none" xmlns="http://www.w3.org/2000/svg">
<path d="M1.5 24C1.5 11.2975 11.7975 1 24.5 1C37.2025 1 47.5 11.2975 47.5 24C47.5 36.7025 37.2025 47 24.5 47C11.7975 47 1.5 36.7025 1.5 24Z" fill="black" fill-opacity="0.5" stroke="white" stroke-width="2"/>
<path d="M31.4423 25.1741L21.396 31.3913C20.5434 31.9184 19.4492 31.2802 19.4492 30.2176V17.7831C19.4492 16.7222 20.5418 16.0823 21.396 16.6111L31.4423 22.8283C31.6363 22.9464 31.7975 23.1171 31.9096 23.3231C32.0217 23.529 32.0808 23.763 32.0808 24.0012C32.0808 24.2394 32.0217 24.4733 31.9096 24.6793C31.7975 24.8853 31.6363 25.056 31.4423 25.1741Z" fill="white"/>
</svg>
