<svg width="271" height="258" viewBox="0 0 271 258" fill="none" xmlns="http://www.w3.org/2000/svg">
<path d="M142.085 257.755C213.169 257.755 270.794 200.13 270.794 129.045C270.794 57.9611 213.169 0.335938 142.085 0.335938C71.0002 0.335938 13.375 57.9611 13.375 129.045C13.375 200.13 71.0002 257.755 142.085 257.755Z" fill="white"/>
<path d="M260.337 212.395L29.3131 210.367V216.276C29.2741 217.004 29.4897 217.722 29.9227 218.308C30.3557 218.894 30.9792 219.311 31.6862 219.488L97.0112 231.151C97.7848 231.291 98.5739 231.328 99.3572 231.259L257.829 217.994C258.561 217.876 259.223 217.49 259.686 216.912C260.15 216.333 260.382 215.603 260.337 214.863V212.395Z" fill="#BAC2D1"/>
<path d="M175.321 202.923L28.4918 213.741C27.8693 213.786 27.2443 213.699 26.6574 213.487C26.0705 213.274 25.5349 212.941 25.0853 212.508C24.6357 212.075 24.2823 211.552 24.048 210.974C23.8137 210.395 23.7038 209.774 23.7253 209.15V99.7704C23.7036 98.4834 24.1932 97.2403 25.0868 96.3138C25.9803 95.3873 27.2049 94.853 28.4918 94.8281H175.321C177.491 94.8281 179.235 96.8564 179.235 99.2972V198.143C179.235 200.638 177.471 202.768 175.321 202.923Z" fill="#BAC2D1"/>
<path d="M177.667 202.923L30.8317 213.741C30.2091 213.786 29.5841 213.699 28.9972 213.487C28.4103 213.274 27.8747 212.941 27.4252 212.508C26.9756 212.075 26.6222 211.552 26.3879 210.974C26.1536 210.395 26.0436 209.774 26.0652 209.15V99.7704C26.0434 98.4834 26.533 97.2403 27.4266 96.3138C28.3202 95.3873 29.5447 94.853 30.8317 94.8281H177.667C179.831 94.8281 181.582 96.8564 181.582 99.2972V198.143C181.582 200.638 179.831 202.768 177.667 202.923Z" fill="white"/>
<path d="M173.087 195.959L36.3256 205.343C35.8176 205.376 35.3085 205.301 34.831 205.125C34.3535 204.949 33.9183 204.674 33.5533 204.319C33.1883 203.965 32.9017 203.537 32.712 203.065C32.5222 202.593 32.4335 202.086 32.4515 201.577V105.855C32.4297 104.804 32.8251 103.787 33.5511 103.027C34.2771 102.266 35.2747 101.825 36.3256 101.798L173.087 101.203C174.872 101.203 176.319 102.839 176.319 104.868V192.085C176.319 194.086 174.872 195.83 173.087 195.959Z" fill="url(#paint0_linear_3307_2755)"/>
<path d="M109.435 97.8507C109.407 98.1792 109.285 98.4925 109.082 98.7524C108.879 99.0123 108.605 99.2076 108.293 99.3143C107.982 99.4211 107.645 99.4347 107.326 99.3535C107.006 99.2723 106.718 99.0998 106.494 98.8571C106.271 98.6144 106.124 98.312 106.07 97.9869C106.016 97.6617 106.058 97.3278 106.19 97.0261C106.323 96.7243 106.54 96.4677 106.817 96.2875C107.093 96.1074 107.415 96.0116 107.745 96.0117C108.212 96.0345 108.651 96.2403 108.967 96.5845C109.283 96.9286 109.452 97.3835 109.435 97.8507Z" fill="white"/>
<g style="mix-blend-mode:soft-light" opacity="0.48">
<path d="M30.8317 213.734L176.924 202.978L177.667 202.924C178.664 202.835 179.588 202.368 180.25 201.619C169.737 201.044 163.206 197.312 158.994 193.458C150.536 185.717 152.003 178.077 142.882 172.993C131.503 166.644 122.558 174.683 113.925 166.752C108.692 161.938 111.261 158.348 104.818 151.154C97.6846 143.19 93.0398 145.867 85.8867 138.701C76.8201 129.641 81.3568 122.589 73.5478 116.078C64.0824 108.181 53.8597 115.49 44.8405 107.918C40.9529 104.652 38.8164 99.9059 37.7076 94.8555H30.8317C29.5447 94.8803 28.3202 95.4146 27.4266 96.3412C26.533 97.2677 26.0434 98.5108 26.0652 99.7978V209.144C26.0436 209.767 26.1536 210.389 26.3879 210.967C26.6222 211.546 26.9756 212.069 27.4252 212.502C27.8747 212.935 28.4103 213.268 28.9972 213.48C29.5841 213.693 30.2091 213.779 30.8317 213.734Z" fill="white"/>
</g>
<path d="M184.583 202.329L29.3164 213.701L97.0145 225.762C97.7886 225.9 98.5771 225.936 99.3606 225.87L260.34 212.396L187.051 202.403C186.233 202.294 185.406 202.269 184.583 202.329Z" fill="url(#paint1_linear_3307_2755)"/>
<path d="M51.9727 213.802L181.237 204.188L221.242 209.596L93.0932 219.873L51.9727 213.802Z" fill="#D2D8E2"/>
<path d="M188.967 124.603C189.814 123.72 190.828 123.013 191.95 122.525C193.072 122.036 194.281 121.775 195.504 121.757C199.771 121.629 205.578 119.1 208.073 118.877C208.682 118.823 208.979 118.654 209.027 118.431C209.135 117.978 206.363 117.322 203.908 117.241C199.548 117.092 197.005 118.762 196.417 117.917C195.741 116.957 198.574 114.333 198.06 113.745C197.661 113.292 195.748 114.753 193.699 115.645C192.246 116.281 186.566 123.082 186.566 123.082L188.967 124.603Z" fill="url(#paint2_linear_3307_2755)"/>
<path d="M189.074 119.68C190.129 121.807 191.186 123.941 192.245 126.082C190.762 134.272 188.086 142.199 184.301 149.611C179.169 159.617 167.48 182.429 146.892 184.498C131.186 186.073 118.016 174.836 113.026 170.529C108.415 166.554 104.278 163.045 102.27 157.447C99.1054 148.617 102.303 137.732 109.977 127.482C110.834 126.335 111.983 125.439 113.304 124.887C114.625 124.336 116.07 124.15 117.488 124.348C118.906 124.546 120.244 125.122 121.364 126.015C122.483 126.907 123.342 128.084 123.851 129.422C127.373 138.719 133.316 145.175 140.138 146.44C147.812 147.86 156.364 142.66 159.995 140.45C165.404 137.17 166.756 134.642 173.517 129.443C178.37 125.686 183.581 122.416 189.074 119.68Z" fill="#DE7A7E"/>
<path d="M126.566 167.525C132.448 166.173 134.679 160.764 142.724 160.251C152.92 159.635 157.301 167.884 163.819 165.707C169.14 163.929 170.025 157.168 173.73 148.459C176.611 141.698 181.6 132.821 190.903 123.383L192.256 126.087C190.773 134.276 188.096 142.204 184.311 149.616C179.18 159.622 167.49 182.434 146.903 184.502C131.197 186.078 118.026 174.841 113.037 170.534C108.426 166.559 104.288 163.05 102.28 157.452C101.727 155.894 101.361 154.275 101.191 152.631C113.341 166.505 121.285 168.736 126.566 167.525Z" fill="#DE7A7E"/>
<path d="M52.0688 206.631C51.9471 200.547 51.6226 166.992 67.8693 142.855C71.5946 137.324 78.1799 127.541 90.8568 121.064C94.8012 119.051 98.9766 117.528 103.29 116.527L114.108 118.136C118.925 122.526 123.065 127.604 126.393 133.207C129.016 137.628 133.357 144.944 134.364 154.389C135.534 165.396 131.159 169.737 127.562 186.882C126.013 194.203 125.068 201.638 124.736 209.113L87.2937 212.331C87.0756 205.768 86.4887 199.222 85.5358 192.724C84.5623 186.023 83.2034 179.384 81.4657 172.84C78.1779 185.938 76.6523 199.417 76.9291 212.919C75.4146 213.514 66.8754 216.712 58.6743 212.331C56.0785 210.942 53.8225 208.996 52.0688 206.631Z" fill="#DE7A7E"/>
<path d="M111.998 97.0279C118.489 91.7408 121.727 89.0973 122.937 85.7235C125.574 78.3405 122.025 69.9839 117.779 65.17C111.815 58.409 103.121 57.0568 97.624 56.2184C90.552 55.1231 90.1058 56.7863 86.8064 55.3665C77.706 51.4451 80.7688 38.5789 72.3108 28.7011C62.9738 17.8091 46.2065 18.2688 41.9741 18.5595C19.4193 20.0537 7.83769 39.5998 6.68832 41.6281C-3.98733 60.3494 1.09696 82.9312 11.9687 95.9394C15.0787 99.658 23.0365 109.177 32.2517 108.231C41.1222 107.318 43.6238 97.4809 55.9559 95.8718C60.2172 95.2221 64.5736 95.6617 68.6192 97.1496C75.0895 99.6444 76.0969 103.471 82.9999 105.871C86.6648 107.148 90.5734 107.569 94.4261 107.102C100.545 106.277 104.453 103.153 111.998 97.0279Z" fill="#158281"/>
<path d="M4.51125 45.9531C2.20575 66.9123 4.51125 74.4846 8.33799 76.0194C13.6724 78.1694 20.6295 68.0279 28.9659 70.8134C36.4571 73.3217 35.47 83.0779 42.3459 85.2211C51.0473 87.9255 56.8956 73.6665 67.2941 74.5658C79.6667 75.6272 81.2218 96.681 95.0143 100.393C99.1858 101.522 104.926 101.17 112.809 96.3768L112.011 97.0529C104.459 103.205 100.558 106.302 94.4328 107.127C90.5801 107.594 86.6716 107.173 83.0067 105.896C76.1037 103.496 75.0963 99.6694 68.626 97.1746C64.58 95.6787 60.2211 95.2321 55.9558 95.8765C43.6237 97.4856 41.1222 107.323 32.2517 108.236C23.0432 109.182 15.0855 99.6627 11.9687 95.9441C1.92855 83.9027 -3.17602 63.7211 4.51125 45.9531Z" fill="#158281"/>
<path d="M112.295 100.246C112.295 100.246 112.599 108.062 112.295 113.309C112.079 117.156 115.398 119.339 115.398 119.339C115.398 119.339 117.224 122.463 107.359 122.99C97.4952 123.518 87.8945 122.99 87.8945 122.99C87.8945 122.99 97.5425 116.574 99.7398 114.877C101.937 113.18 103.1 100.449 101.748 92.3359L112.295 100.246Z" fill="url(#paint3_linear_3307_2755)"/>
<path d="M114.824 75.0281C114.824 75.0281 119.841 87.1303 119.82 94.4457C119.8 101.761 114.675 105.939 110.801 104.148C106.927 102.356 101.072 94.7365 101.072 94.7365C101.072 94.7365 100.281 96.7648 97.3062 94.7365C94.3313 92.7081 92.1272 81.2144 97.9079 84.4529C97.9079 84.4529 96.9952 81.2279 98.4217 76.5561C99.8483 71.8842 113.134 66.8337 114.824 75.0281Z" fill="url(#paint4_linear_3307_2755)"/>
<path d="M73.13 191.096C77.4841 184.267 70.8515 178.351 73.6709 167.541C76.071 158.318 83.907 151.125 86.7805 152.288C90.7627 153.897 82.947 170.542 90.7965 178.25C96.0092 183.375 102.804 179.345 109.802 183.868C114.413 186.85 119.051 193.516 119.416 209.56L87.3214 212.319C87.1032 205.755 86.5163 199.209 85.5635 192.712C84.5806 186.015 83.2126 179.38 81.4663 172.841C78.1785 185.94 76.6529 199.418 76.9297 212.92C75.4152 213.515 66.876 216.713 58.6749 212.332C58.2152 212.089 57.7825 211.832 57.3633 211.568C57.4926 207.58 58.7955 203.718 61.1089 200.467C65.3548 194.754 69.9726 196.038 73.13 191.096Z" fill="#DE7A7E"/>
<path d="M106.541 100.819C99.5161 100.819 96.8658 90.7523 96.8388 90.6374C96.8232 90.5753 96.8201 90.5106 96.8295 90.4473C96.839 90.3839 96.8608 90.323 96.8937 90.2681C96.9267 90.2132 96.9702 90.1653 97.0216 90.1271C97.0731 90.089 97.1316 90.0614 97.1937 90.0458C97.2559 90.0303 97.3205 90.0271 97.3839 90.0366C97.4472 90.046 97.5081 90.0678 97.563 90.1008C97.618 90.1337 97.6659 90.1772 97.704 90.2287C97.7422 90.2801 97.7698 90.3386 97.7853 90.4008C97.8191 90.5089 100.666 101.333 108.096 99.6634C108.158 99.6484 108.223 99.646 108.286 99.6564C108.349 99.6667 108.409 99.6895 108.463 99.7235C108.518 99.7575 108.564 99.802 108.601 99.8544C108.638 99.9068 108.664 99.9659 108.677 100.028C108.692 100.091 108.695 100.156 108.685 100.22C108.674 100.283 108.652 100.344 108.618 100.399C108.584 100.453 108.539 100.501 108.487 100.538C108.434 100.576 108.375 100.602 108.312 100.617C107.731 100.747 107.137 100.815 106.541 100.819Z" fill="white"/>
<path d="M110.806 101.873C112.161 101.524 113.104 100.639 112.912 99.8965C112.721 99.154 111.468 98.8351 110.113 99.1843C108.758 99.5334 107.815 100.418 108.007 101.161C108.198 101.903 109.451 102.222 110.806 101.873Z" fill="white"/>
<path d="M97.4091 92.6277C98.6703 92.2996 99.2667 90.3961 98.7413 88.376C98.2158 86.3559 96.7675 84.9842 95.5063 85.3123C94.2451 85.6403 93.6486 87.5439 94.1741 89.5639C94.6995 91.584 96.1478 92.9557 97.4091 92.6277Z" fill="white"/>
<path d="M95.2534 86.9864L95.0844 86.5808C94.983 86.3171 94.8342 85.9047 94.6652 85.4314C94.21 84.0545 93.8641 82.6438 93.6307 81.2125C93.2815 79.1795 93.2382 77.1058 93.5023 75.06C93.6537 73.9032 93.942 72.7684 94.3609 71.6795C94.7991 70.5525 95.3808 69.4867 96.0918 68.5086C96.8063 67.5398 97.6451 66.6692 98.5866 65.9191L99.2627 65.3714L99.9929 64.8914L100.358 64.6548L100.737 64.4384L101.48 64.026C101.744 63.884 101.981 63.7894 102.231 63.6677C102.481 63.546 102.758 63.4513 103.022 63.3702C103.53 63.2001 104.05 63.0668 104.577 62.9713C105.54 62.7942 106.522 62.7488 107.498 62.8361C107.721 62.8361 107.944 62.8834 108.174 62.9172C108.388 62.9461 108.6 62.9867 108.809 63.0389C109.012 63.093 109.208 63.1268 109.397 63.1944L109.945 63.377C110.121 63.431 110.276 63.5257 110.439 63.5933C110.601 63.6609 110.756 63.7353 110.892 63.8164C111.162 63.9922 111.426 64.1342 111.642 64.2964L112.197 64.7494C112.352 64.8914 112.467 65.0266 112.568 65.1281L112.873 65.4526C112.92 65.5017 112.946 65.5671 112.946 65.6351C112.946 65.7032 112.92 65.7686 112.873 65.8177C112.849 65.8418 112.82 65.8609 112.789 65.874C112.758 65.8871 112.724 65.8938 112.69 65.8938C112.656 65.8938 112.622 65.8871 112.591 65.874C112.56 65.8609 112.531 65.8418 112.508 65.8177L112.224 65.527C112.129 65.4323 112.021 65.3106 111.885 65.1821L111.365 64.7697C111.169 64.6142 110.919 64.4925 110.689 64.3303C110.56 64.2559 110.412 64.2018 110.27 64.1342C110.123 64.0551 109.969 63.9895 109.81 63.9381L109.296 63.7623C109.12 63.7082 108.931 63.6744 108.748 63.6271C108.346 63.547 107.94 63.4884 107.531 63.4513C106.605 63.3778 105.672 63.4301 104.759 63.6068C104.264 63.7044 103.776 63.8354 103.299 63.999C103.056 64.0801 102.826 64.1883 102.582 64.2829C102.339 64.3776 102.068 64.5128 101.852 64.6345L101.135 65.0402L100.777 65.2498L100.432 65.4796L99.7562 65.9529L99.0801 66.4803C97.2894 67.9244 95.9228 69.826 95.1249 71.9837C94.7376 73.0241 94.4744 74.1066 94.3407 75.2087C94.112 77.1747 94.1758 79.1638 94.53 81.1111C94.7671 82.4898 95.1176 83.8466 95.5779 85.1677C95.7469 85.6477 95.8889 86.0196 95.9903 86.2698C96.0918 86.5199 96.1526 86.6416 96.1526 86.6416C96.2001 86.7528 96.2015 86.8783 96.1565 86.9905C96.1115 87.1027 96.0238 87.1924 95.9126 87.24C95.8014 87.2875 95.6759 87.2889 95.5637 87.2439C95.4515 87.1989 95.3618 87.1111 95.3142 86.9999L95.2534 86.9864Z" fill="white"/>
<path d="M212.383 104.302C235.478 104.302 254.2 85.5797 254.2 62.4849C254.2 39.39 235.478 20.668 212.383 20.668C189.288 20.668 170.566 39.39 170.566 62.4849C170.566 85.5797 189.288 104.302 212.383 104.302Z" fill="#6C90C7"/>
<path d="M251.934 75.4863C250.94 75.3037 250.305 74.4113 249.352 74.1341C249.798 73.8023 250.31 73.5702 250.853 73.4536C251.397 73.3369 251.959 73.3384 252.502 73.458L251.934 75.4863Z" fill="#A3BFE5"/>
<path d="M180.898 83.7617C181.534 83.951 184.887 84.6136 185.178 85.0666C185.8 86.0334 186.632 88.1091 187.565 88.819C188.336 89.4072 189.309 91.3746 189.64 92.4564C188.187 93.4435 185.273 91.6045 184.779 91.2935C182.744 90.0021 181.291 86.1822 180.898 83.7617Z" fill="#A3BFE5"/>
<path d="M239.831 93.5907C238.905 92.0492 238.587 91.9275 236.863 92.4684C235.917 92.7591 234.984 93.0836 234.037 93.3811C233.86 93.459 233.668 93.4954 233.475 93.4875C233.282 93.4796 233.094 93.4277 232.924 93.3356C232.755 93.2436 232.608 93.1139 232.496 92.9566C232.385 92.7992 232.31 92.6183 232.279 92.4278C231.529 90.1561 231.535 87.019 234.625 85.5924C236.66 84.6102 238.378 83.0786 239.588 81.1707C239.845 80.7935 240.127 80.4344 240.433 80.0957C241.393 79.0004 242.049 78.8787 243.347 79.5143L244.868 80.2985C246.112 80.9746 247.349 81.191 248.668 80.427C249.124 80.2385 249.604 80.1134 250.094 80.0551C248.643 83.2904 246.737 86.3023 244.435 89C243.139 90.7518 241.587 92.2992 239.831 93.5907Z" fill="#A3BFE5"/>
<path d="M246.221 73.8164C247.269 73.9111 248.249 74.4925 249.351 74.1612C250.305 74.4114 250.94 75.3038 251.934 75.5134C251.733 76.4741 251.36 77.3904 250.832 78.2178C249.263 77.2747 247.805 76.1589 246.485 74.8914C246.208 74.6345 245.64 74.3302 246.221 73.8164Z" fill="#A3BFE5"/>
<path d="M201.344 84.0319C201.344 85.9858 200.851 86.9459 199.823 87.1352C198.795 87.3245 197.544 86.4591 197.004 85.0663C196.82 84.6661 196.737 84.2273 196.762 83.7878C196.787 83.3483 196.918 82.9215 197.146 82.5445C197.69 81.531 198.373 80.598 199.174 79.7724C199.742 79.2383 200.168 79.3127 200.465 80.0564C200.955 81.3302 201.251 82.6702 201.344 84.0319Z" fill="#A3BFE5"/>
<path d="M238.895 70.8213C238.895 70.8618 238.895 70.9024 238.895 70.9362C238.895 72.4845 238.334 73.5122 237.401 73.742C236.468 73.9719 234.649 73.0659 234.075 71.9504C233.961 71.7722 233.891 71.5699 233.87 71.3597C233.849 71.1495 233.877 70.9373 233.953 70.7401C234.407 69.6433 235.131 68.6785 236.056 67.9343C236.204 67.7947 236.382 67.6904 236.576 67.6291C236.77 67.5678 236.976 67.5512 237.177 67.5804C237.379 67.6097 237.571 67.6841 237.74 67.798C237.908 67.912 238.049 68.0626 238.152 68.2386C238.686 68.9899 238.948 69.9009 238.895 70.8213Z" fill="#A3BFE5"/>
<path d="M192.677 88.9525C193.211 86.3428 193.746 83.7262 194.32 81.1233C194.763 79.5371 194.702 77.8524 194.144 76.3026C193.299 74.1662 193.955 72.7328 196.085 71.793C197.133 71.3333 198.235 71.002 199.29 70.5558C200.899 69.8797 201.189 68.8453 200.202 67.3849C199.41 66.1155 198.285 65.0869 196.95 64.41C196.175 64.0755 195.493 63.5572 194.963 62.8999C194.433 62.2426 194.07 61.466 193.908 60.6374C193.732 59.7787 193.448 58.9471 193.286 58.0817C193.164 57.4056 192.711 56.3509 193.489 56.1413C194.476 55.8776 194.597 57.0743 194.841 57.7842C195.202 59.1794 195.693 60.5376 196.308 61.8408C196.694 62.619 197.328 63.2459 198.111 63.622C198.894 63.9981 199.78 64.1017 200.628 63.9165C201.341 63.789 202.042 63.6036 202.724 63.3621C205.591 62.3682 205.915 60.9687 203.786 58.8187C203.008 58.0344 202.19 57.2839 201.426 56.4929C201.285 56.3885 201.183 56.2399 201.137 56.0707C201.09 55.9016 201.101 55.7217 201.169 55.5598C201.413 55.1474 201.784 55.4043 202.095 55.499C204.462 56.2157 206.828 56.9256 209.201 57.6896C210.012 57.9272 210.757 58.3485 211.378 58.9207C212 59.4929 212.481 60.2006 212.785 60.9889C213.021 61.5907 213.251 62.1992 213.461 62.8009C214.046 64.5472 215.056 66.1203 216.402 67.3781C217.301 68.1489 217.984 67.9528 218.43 66.8643C218.753 65.9999 218.817 65.0598 218.613 64.1599C218.461 63.4541 218.346 62.741 218.268 62.0234C218.166 60.5562 218.755 59.8328 220.201 59.5286C222.581 59.0147 224.305 59.8734 225.326 62.1045C226.054 63.9526 226.587 65.872 226.915 67.8311C227.253 69.826 227.889 71.7587 228.801 73.5644C229.333 74.5888 230.144 75.4409 231.141 76.0215C232.139 76.6021 233.28 76.8872 234.433 76.8435C235.109 76.8435 235.786 76.7286 236.015 75.9916C236.245 75.2547 235.549 75.0248 235.082 74.7206C234.616 74.4163 234.231 74.2135 233.791 73.9769C233.078 73.6056 232.447 73.0944 231.935 72.4737C231.424 71.853 231.043 71.1357 230.815 70.3645C230.587 69.5933 230.517 68.7841 230.609 67.9852C230.701 67.1863 230.953 66.4142 231.35 65.7149C231.54 65.3701 231.736 65.0388 232.135 64.9306C232.811 64.7751 232.899 64.2545 232.959 63.7204C233.051 62.9211 232.859 62.1151 232.419 61.4419C231.702 60.3196 231.925 59.5691 233.095 58.9065C233.629 58.6091 234.19 58.3724 234.738 58.102C236.563 57.1892 237.07 55.7897 236.212 53.944C235.8 53.0826 235.585 52.1402 235.583 51.1855C235.583 49.7859 235.846 49.4885 237.192 49.8333C239.93 50.5094 241.005 48.596 241.12 46.6623C241.25 44.1319 240.706 41.6124 239.545 39.3604C239.381 38.9104 239.111 38.5065 238.758 38.1828C238.405 37.8592 237.979 37.6254 237.516 37.5012C235.035 37.0685 234.197 35.2836 233.825 33.1403C233.736 32.4554 233.463 31.8074 233.036 31.2647C232.608 30.722 232.042 30.3049 231.398 30.0573C228.848 28.8717 225.96 28.632 223.251 29.3812C221.75 29.8206 220.296 30.5644 218.721 30.5373C215.45 30.5315 212.274 31.6324 209.708 33.6609C207.68 35.4931 201.5 33.8029 201.5 33.8029C200.498 33.5063 199.441 33.4439 198.411 33.6203C197.971 33.6892 197.55 33.8441 197.171 34.0762C196.791 34.3082 196.461 34.6128 196.2 34.9725C195.165 36.1963 194.543 37.677 193.712 39.063C193.423 39.626 192.983 40.0968 192.44 40.4219C191.898 40.747 191.275 40.9133 190.642 40.902C188.709 40.902 186.761 41.2738 184.841 40.7329C184.53 41.2738 184.321 41.9499 183.489 41.7336C183.178 41.6592 183.124 41.9364 183.029 42.1189C182.799 42.5381 182.421 42.5314 182.042 42.4638C181.664 42.3961 181.366 42.3623 181.272 42.0581C181.109 41.5645 181.724 41.6795 181.894 41.382C181.677 41.1521 181.4 41.382 181.163 41.2738C180.711 41.5955 180.358 42.0364 180.142 42.5473C179.926 43.0583 179.856 43.6192 179.94 44.1675C180.196 46.2634 179.351 47.9402 177.911 49.4141C176.005 51.4086 173.584 52.7946 171.651 54.7418C171.34 55.0528 171.319 54.7012 171.211 54.5457C170.481 54.7553 170.974 55.3165 170.88 55.7086C170.977 55.8445 171.02 56.0116 171.002 56.1777C170.983 56.3437 170.903 56.497 170.778 56.6078C170.838 57.0759 170.794 57.5512 170.65 58.0006C170.792 58.3319 170.609 58.6226 170.542 58.9268C170.474 59.2311 170.542 59.6029 170.542 59.9478C170.623 62.3547 170.319 64.7751 170.819 67.1685L174.923 69.163C176.599 69.9584 177.893 71.3853 178.52 73.1317C179.054 74.6008 179.465 76.1113 179.75 77.6481C180.142 79.6764 180.487 81.7047 180.852 83.6992C181.258 83.6992 181.468 83.9358 181.664 84.2266C183.692 87.1473 185.855 89.9058 188.769 91.995C188.878 92.0761 188.932 92.2451 189.013 92.3668H189.594C191.866 91.8598 192.677 88.9525 192.677 88.9525Z" fill="#A3BFE5"/>
<path d="M246.055 73.4375L246.217 73.6336L246.055 73.4375Z" fill="#908B59"/>
<path d="M240.921 98.0388L241.922 96.8759C241.935 96.8621 241.942 96.844 241.942 96.8252C241.942 96.8064 241.935 96.7882 241.922 96.7745L229.394 84.0367C229.388 84.0296 229.381 84.024 229.373 84.02C229.364 84.0161 229.356 84.0141 229.346 84.0141C229.337 84.0141 229.328 84.0161 229.32 84.02C229.312 84.024 229.305 84.0296 229.299 84.0367L227.663 85.9298C226.975 84.5833 226.368 83.1971 225.844 81.7785C224.898 78.8442 223.14 81.5013 223.14 81.5013C221.037 80.4601 221.855 83.7527 221.855 83.7527C219.097 85.2943 223.884 87.7215 225.479 88.4855L224.127 90.027C224.114 90.0407 224.107 90.0589 224.107 90.0777C224.107 90.0965 224.114 90.1146 224.127 90.1284L236.662 102.859C236.668 102.865 236.674 102.87 236.682 102.873C236.689 102.876 236.698 102.878 236.706 102.878C236.714 102.878 236.722 102.876 236.73 102.873C236.737 102.87 236.744 102.865 236.75 102.859L238.061 101.345C238.656 102.697 239.17 104.049 239.17 104.049C240.117 106.984 241.875 104.327 241.875 104.327C243.971 105.368 243.152 102.075 243.152 102.075C245.323 100.865 242.821 99.107 240.887 98.0523" fill="#74AA38"/>
<path d="M233.307 88.0334L224.93 90.8865L224.822 90.7784C224.63 90.5792 224.52 90.3156 224.512 90.0391C224.505 89.7627 224.601 89.4934 224.781 89.2842L225.032 88.9935L231.941 86.6406L233.307 88.0334Z" fill="#A9D090"/>
<path d="M236.441 91.2053L228.064 94.0584L226.691 92.6724L235.075 89.8125L236.441 91.2053Z" fill="#A9D090"/>
<path d="M239.706 94.5071L231.323 97.3603L229.957 95.9742L238.334 93.1211L239.706 94.5071Z" fill="#A9D090"/>
<path d="M240.509 98.5187L234.485 100.547L233.133 99.161L241.442 96.3281C241.555 96.5233 241.603 96.7488 241.582 96.973C241.56 97.1972 241.468 97.4091 241.32 97.5789L240.509 98.5187Z" fill="#A9D090"/>
<path d="M213.546 46.6273C211.897 46.0701 210.13 45.9593 208.425 46.306C206.72 46.6528 205.137 47.4447 203.837 48.6015C200.166 51.9279 200.024 57.2962 203.512 60.6023C203.938 61.0083 204.405 61.3685 204.905 61.6773C203.673 62.7761 202.377 63.8011 201.024 64.7468C198.164 66.5723 201.525 67.7081 201.525 67.7081C201.031 70.2503 204.317 68.4518 204.317 68.4518C206.954 71.1562 208.13 64.3411 208.373 62.9416C209.817 63.1748 211.294 63.0834 212.697 62.6741C214.101 62.2647 215.395 61.5477 216.487 60.5752C220.151 57.2556 220.3 51.8806 216.811 48.5744C216.71 48.4798 216.595 48.3919 216.487 48.2972C217.46 47.0802 220.888 44.6733 220.888 44.6733C223.755 42.8478 220.388 41.712 220.388 41.712C220.881 39.1699 217.596 40.9683 217.596 40.9683C214.851 38.1557 213.688 45.701 213.539 46.6273" fill="#F0CC89"/>
<g opacity="0.21">
<g opacity="0.21">
<g opacity="0.21">
<path opacity="0.21" d="M208.987 53.5604C208.987 55.5887 207.743 57.2316 206.155 57.2925C204.566 57.3533 203.254 55.778 203.227 53.7768C203.2 51.7755 204.464 50.1055 206.06 50.0447C207.655 49.9838 208.96 51.5659 208.987 53.5604Z" fill="white"/>
</g>
</g>
</g>
<g opacity="0.84">
<g opacity="0.84">
<path opacity="0.84" d="M174.764 23.9666C173.771 18.5172 172.148 25.0078 171.668 27.1578C171.194 26.8748 170.696 26.6328 170.18 26.4344C169.691 26.2556 169.192 26.1044 168.686 25.9814C167.95 25.8037 167.198 25.6973 166.442 25.6636C165.683 25.634 164.923 25.6907 164.177 25.8326C163.578 25.9396 162.991 26.1072 162.426 26.333C161.659 26.6406 160.947 27.0698 160.316 27.604C159.774 28.042 159.296 28.5541 158.896 29.1252C158.45 29.7496 158.09 30.432 157.828 31.1535C157.774 31.3023 157.72 31.451 157.673 31.593C157.673 31.593 157.673 31.6539 157.673 31.6742C157.32 32.7276 157.111 33.8237 157.051 34.933C157.007 35.5948 157.007 36.2588 157.051 36.9207C157.051 37.279 157.125 37.6374 157.172 37.9957C157.172 38.0363 157.172 38.1174 157.172 38.1985L152.074 38.922C149.573 39.8955 153.589 41.552 153.589 41.552C151.358 44.9934 155.502 43.6209 155.502 43.6209C156.577 49.503 158.376 41.4911 158.687 40.0172C158.903 40.1322 159.126 40.2471 159.363 40.3418C159.672 40.4842 159.988 40.6106 160.309 40.7204C160.58 40.8151 160.837 40.8962 161.1 40.9706C161.999 41.2178 162.922 41.3651 163.852 41.41C164.53 41.4501 165.21 41.4161 165.88 41.3086C166.424 41.2393 166.959 41.1124 167.476 40.93C167.98 40.7586 168.463 40.5318 168.916 40.2539C169.289 40.033 169.637 39.7747 169.957 39.4831C170.572 38.9252 171.098 38.2779 171.519 37.563C171.885 36.9676 172.186 36.3354 172.418 35.6767C172.472 35.5144 172.533 35.3454 172.587 35.1764C173.198 33.298 173.389 31.3087 173.149 29.3484L178.246 28.6723C180.748 27.6987 176.732 26.0355 176.732 26.0355C178.963 22.5941 174.819 23.9666 174.819 23.9666" fill="#C6445D"/>
</g>
</g>
<path d="M168.678 25.9818C170.071 28.4631 172.059 32.9186 171.457 37.5905C171.036 38.3054 170.509 38.9527 169.895 39.5106C169.578 39.8037 169.229 40.06 168.854 40.2746C171.43 34.3452 167.725 27.6991 166.434 25.6641C167.19 25.6978 167.942 25.8042 168.678 25.9818Z" fill="#DE7A7E"/>
<path d="M164.192 25.832C166.011 29.794 167.721 35.6355 165.842 41.3283C165.171 41.4358 164.491 41.4698 163.814 41.4297C165.957 36.0209 164.206 30.1794 162.414 26.3391C162.978 26.1081 163.565 25.9381 164.165 25.832" fill="#DE7A7E"/>
<path d="M160.33 27.6016C161.642 31.5027 162.406 36.2624 161.087 40.9884C160.824 40.914 160.56 40.8329 160.296 40.7382C160.032 40.6436 159.667 40.5084 159.35 40.3596C160.242 36.6452 160.09 32.7562 158.91 29.1228C159.312 28.5531 159.789 28.0413 160.33 27.6016Z" fill="#DE7A7E"/>
<defs>
<linearGradient id="paint0_linear_3307_2755" x1="110.129" y1="141.296" x2="-135.594" y2="469.226" gradientUnits="userSpaceOnUse">
<stop stop-color="#F9BE45"/>
<stop offset="1" stop-color="#EE7157"/>
</linearGradient>
<linearGradient id="paint1_linear_3307_2755" x1="29.3164" y1="214.1" x2="260.34" y2="214.1" gradientUnits="userSpaceOnUse">
<stop offset="0.49" stop-color="#E5E9EC"/>
<stop offset="1" stop-color="white"/>
</linearGradient>
<linearGradient id="paint2_linear_3307_2755" x1="202.802" y1="117.236" x2="178.399" y2="136.041" gradientUnits="userSpaceOnUse">
<stop stop-color="#A6336E"/>
<stop offset="1" stop-color="#7A2E3E"/>
</linearGradient>
<linearGradient id="paint3_linear_3307_2755" x1="101.072" y1="142.097" x2="102.674" y2="90.3076" gradientUnits="userSpaceOnUse">
<stop stop-color="#A6336E"/>
<stop offset="1" stop-color="#7A2E3E"/>
</linearGradient>
<linearGradient id="paint4_linear_3307_2755" x1="111.815" y1="104.946" x2="97.1642" y2="56.9694" gradientUnits="userSpaceOnUse">
<stop stop-color="#A6336E"/>
<stop offset="1" stop-color="#7A2E3E"/>
</linearGradient>
</defs>
</svg>
