<svg width="271" height="271" viewBox="0 0 271 271" fill="none" xmlns="http://www.w3.org/2000/svg">
<path d="M135.739 270.041C210.296 270.041 270.737 209.601 270.737 135.044C270.737 60.4872 210.296 0.046875 135.739 0.046875C61.1825 0.046875 0.742188 60.4872 0.742188 135.044C0.742188 209.601 61.1825 270.041 135.739 270.041Z" fill="white"/>
<path d="M96.9906 63.4382C87.311 67.849 83.7511 74.6566 87.3606 87.3784C89.8922 94.5123 106.379 112.397 125.377 111.226C108.67 99.0082 105.323 74.529 116.456 73.3234C112.797 60.6796 96.9906 63.4382 96.9906 63.4382Z" fill="#E5924A"/>
<path d="M145.008 110.293C143.327 77.2125 136.704 61.4344 119.203 49.3791C112.537 44.7414 103.531 46.0604 92.3623 56.2081C78.981 68.3697 81.775 72.7095 87.3487 87.3602C85.4695 78.4393 87.6962 69.2702 95.9292 68.554C104.162 67.8378 115.076 70.724 128.379 87.892C137.194 99.2948 138.732 113.52 145.008 110.293Z" fill="#F0CC89"/>
<path d="M190.631 56.808C192.39 72.6925 177.796 83.0458 164.223 95.9094C160.036 99.8551 156.452 104.395 153.586 109.383C150.579 107.007 152.061 104.795 152.806 101.476C167.194 79.876 169.123 64.2751 164.017 60.5522C166.138 51.7306 186.376 39.4556 190.631 56.808Z" fill="#E58F45"/>
<path d="M144.504 109.378C138.3 72.9361 139.193 55.2788 145.128 43.4718C151.511 30.7571 158.162 27.6865 170.26 33.7C189.548 43.2874 190.867 49.627 190.662 56.8034C187.116 48.6413 179.28 49.2583 174.352 52.9812C169.423 56.7041 159.056 69.0005 155.914 86.9344C154.936 93.0825 152.971 104.592 153.56 109.378C151.014 110.038 144.76 111.073 144.504 109.378Z" fill="#F0CC89"/>
<path d="M200.397 83.2631C203.73 91.4819 202.162 107.374 174.414 110.487C187.845 118.152 224.578 112.692 226.088 101.091C228.216 86.3124 220.6 82.788 212.558 80.8308C204.517 78.8736 200.397 83.2631 200.397 83.2631Z" fill="#E58F45"/>
<path d="M153.723 109.318C167.451 85.4841 191.179 59.8986 207.461 60.083C216.126 60.083 230.521 92.469 226.089 101.092C225.501 89.0368 218.438 85.1792 208.241 85.5408C198.043 85.9025 176.415 105.439 165.778 109.318C156.666 111.538 153.723 109.318 153.723 109.318Z" fill="#F0CC89"/>
<path d="M221.678 141.348H54.8477V255.738H221.678V141.348Z" fill="#DE7A7E"/>
<path d="M237.253 108.758H39.2852V141.357H237.253V108.758Z" fill="#DE7A7E"/>
<path d="M64.6224 108.758H57.7864L39.2852 125.883V132.209L64.6224 108.758Z" fill="#F9E0D5"/>
<path d="M122.591 108.758H115.755L80.5469 141.349H87.3758L122.591 108.758Z" fill="#F9E0D5"/>
<path d="M180.564 108.758H173.728L138.52 141.349H145.348L180.564 108.758Z" fill="#F9E0D5"/>
<path d="M237.249 109.949V108.758H231.704L196.488 141.349H203.317L237.249 109.949Z" fill="#F9E0D5"/>
<path d="M157.891 141.348H151.062L54.8477 224.224V230.11L157.891 141.348Z" fill="#F9E0D5"/>
<path d="M83.0665 255.745L215.865 141.348H209.036L76.2305 255.745H83.0665Z" fill="#F9E0D5"/>
<path d="M99.92 141.348H93.084L54.8477 174.287V180.173L99.92 141.348Z" fill="#F9E0D5"/>
<path d="M221.679 236.214V230.328L192.18 255.743H199.009L221.679 236.214Z" fill="#F9E0D5"/>
<path d="M221.678 186.28V180.395L134.207 255.747H141.036L221.678 186.28Z" fill="#F9E0D5"/>
<g style="mix-blend-mode:multiply">
<path d="M54.8477 146.56L221.678 142.773V141.348H54.8477V146.56Z" fill="#C0C0BF"/>
</g>
<path d="M142.264 108.757C136.499 106.502 123.117 108.048 113.409 108.899C105.325 112.934 93.8444 125.053 88.0508 139.065C99.5245 123.84 113.863 126.677 114.012 147.717C119.352 126.244 141.016 110.402 142.264 108.757Z" fill="#F0CC89"/>
<path d="M151.75 108.758C170.663 120.756 180.824 138.747 185.526 156.1C191.383 178.721 181.782 192.364 179.945 198.867C210.558 158.333 212.381 198.867 212.381 198.867C222.819 173.991 219.947 148.561 204.708 131.018C189.469 113.474 178.711 109.659 172.91 107.68C167.11 105.702 155.572 106.46 151.75 108.758Z" fill="#F0CC89"/>
<path d="M77.7087 42.7809C79.127 39.3487 80.5807 35.9095 84.2823 34.165C87.2749 32.7467 90.4092 33.2928 93.0685 35.2925C100.607 40.9656 94.04 47.2059 102.62 57.9847C105.287 61.3247 108.513 64.0265 110.109 67.9125C112.35 73.387 109.683 76.0179 105.414 78.6488C84.9844 91.2004 74.2765 65.4235 74.6665 59.5022C74.9502 55.134 76.7868 44.9863 77.7087 42.7809Z" fill="#1B3758"/>
<path d="M57.0469 109.596C57.912 109.461 60.004 107.965 60.7415 107.83C61.3158 107.724 62.5497 107.532 63.0745 107.454C63.7269 105.043 67.0031 91.889 67.3718 88.0384C67.7689 83.8616 70.726 65.793 70.726 65.793L78.3704 67.2112C78.3704 67.2112 75.1935 81.1102 74.3142 87.8469C73.5625 93.6405 67.2229 106.653 66.4003 108.029V108.128C66.2798 110.17 65.2941 109.49 65.2941 109.49L63.6914 109.901C63.6914 109.901 58.0184 110.447 57.6638 110.61C57.3093 110.773 56.1888 109.738 57.0469 109.596Z" fill="#ECA895"/>
<path d="M76.8533 55.2227C71.4497 57.0522 68.3438 71.7525 68.3438 71.7525C68.3438 71.7525 76.8533 74.121 78.9807 72.88C78.9807 72.88 81.4485 61.9452 82.3278 62.3281L76.8533 55.2227Z" fill="#6C90C7"/>
<path d="M35.0298 137.652C33.9216 140.603 33.056 143.638 32.4415 146.729C32.406 146.97 32.7464 148.147 32.718 148.41C29.3993 152.941 24.6268 153.934 20.5352 154.218C22.62 152.182 25.6834 150.254 25.8253 149.608C26.8366 145.692 27.5477 141.705 27.9527 137.681C30.4843 138.858 32.2145 137.929 35.0298 137.652Z" fill="#ECA895"/>
<path d="M82.1017 88.8438L89.4058 109.409C89.4058 109.409 77.6626 111.614 73.2731 112.422C68.8835 113.231 44.3618 114.294 43.7378 114.734C43.2768 115.053 38.2065 131.441 35.9373 140.476C33.3703 141.043 28.9808 140.362 26.6406 139.561C27.9029 126.633 32.4626 106.147 33.9234 103.92C36.299 100.303 82.1017 88.8438 82.1017 88.8438Z" fill="#286754"/>
<path d="M53.5428 144.016C53.0045 147.119 52.7223 150.262 52.6989 153.412C52.6989 153.66 53.2662 154.759 53.2804 155.014C50.8694 160.085 46.3664 161.957 42.4023 163.006C44.0688 160.616 46.7139 158.149 46.7422 157.482C46.9935 153.446 46.939 149.397 46.5791 145.37C49.3022 146.051 50.8197 144.81 53.5428 144.016Z" fill="#ECA895"/>
<path d="M91.2496 86.7383L92.9799 90.9576C93.1785 91.4327 93.4054 91.8937 93.6465 92.3759C97.4545 99.6657 94.2422 109.048 86.4985 112.047L86.3708 112.097C82.2082 113.714 58.3176 119.358 57.7858 119.897C57.3958 120.301 55.4882 137.349 54.9493 146.646C52.5382 147.681 48.092 147.837 45.6455 147.49C44.4612 134.548 45.1065 113.579 46.1206 111.111C47.787 107.083 91.2496 86.7383 91.2496 86.7383Z" fill="#32806C"/>
<path d="M52.3189 153.551C52.9571 152.842 55.2902 156.714 55.8646 157.544C56.0776 157.78 56.2255 158.068 56.2939 158.378C56.3623 158.689 56.3487 159.012 56.2546 159.316C56.0489 159.699 43.7384 166.939 40.7317 167.457C40.4135 167.475 40.0978 167.391 39.8311 167.216C38.6611 166.181 44.0859 158.508 46.4899 157.501C48.0641 156.849 49.4824 156.714 52.3189 153.551Z" fill="#1B3758"/>
<path d="M32.0499 146.865C32.8016 146.297 34.3758 150.531 34.7942 151.453C34.9578 151.724 35.0484 152.033 35.0571 152.35C35.0658 152.667 34.9923 152.981 34.8438 153.261C34.5673 153.601 21.1151 158.409 18.0658 158.353C17.7502 158.313 17.4562 158.171 17.229 157.948C16.2717 156.707 23.0156 150.148 25.5897 149.651C27.2491 149.304 28.646 149.432 32.0499 146.865Z" fill="#1B3758"/>
<path d="M81.9812 55.1814C81.7949 55.1682 81.6113 55.13 81.4351 55.0679C80.4282 54.8906 78.237 54.6282 76.528 55.3445C74.4502 56.2238 71.2308 64.4142 71.4222 72.8174C71.5002 74.1081 71.5782 75.2568 71.6421 76.0582C72.1668 82.4049 73.9893 94.3254 74.0886 94.3892C76.5634 95.9847 91.6821 90.8435 92.7103 89.4891C93.7386 88.1346 94.1782 70.5766 94.6817 69.754L95.6603 55.4012C93.93 54.8835 84.6404 55.1601 81.9812 55.1814Z" fill="#A3BFE5"/>
<path d="M88.0417 49.8994C88.0417 49.8994 87.0773 54.8633 87.2687 56.8418C87.4602 58.8202 86.5596 65.1386 82.3757 65.1528C78.1919 65.167 81.5886 57.1041 81.9786 55.1824C82.3686 53.2607 82.4608 47.2969 82.4608 47.2969L88.0417 49.8994Z" fill="#ECA895"/>
<path d="M82.3789 50.2894C82.4427 48.6584 82.464 47.2969 82.464 47.2969L88.0449 49.8994C88.0449 49.8994 87.8463 50.9134 87.6478 52.2112C86.6785 52.4727 85.6522 52.4285 84.7091 52.0845C83.7659 51.7405 82.9521 51.1136 82.3789 50.2894Z" fill="#E57B61"/>
<path d="M90.076 36.155C91.472 37.0235 92.5128 38.361 93.0118 39.9276C93.7918 42.5088 92.8983 49.1463 87.3387 50.7844C81.7791 52.4225 79.3823 47.1111 80.524 42.9839C81.6657 38.8568 84.1689 33.6376 90.076 36.155Z" fill="#ECA895"/>
<path d="M79.8446 41.3886C79.9581 42.4948 80.5537 43.3458 81.2132 43.282C81.8727 43.2182 82.2911 42.2679 82.1847 41.1546C82.0784 40.0412 81.4756 39.1974 80.8161 39.2612C80.1566 39.325 79.7382 40.2824 79.8446 41.3886Z" fill="#ECA895"/>
<path d="M89.4258 35.8164C89.4258 35.8164 90.4327 43.2552 92.8367 44.5954C95.2406 45.9357 94.255 49.2332 94.255 49.2332C94.255 49.2332 96.4391 41.5746 94.5386 39.1139C93.1942 37.5375 91.4163 36.3909 89.4258 35.8164Z" fill="#1B3758"/>
<path d="M91.4085 45.6574C90.7561 46.6289 90.7632 47.7848 91.4085 48.2103C92.0538 48.6358 93.1246 48.2103 93.777 47.2529C94.4294 46.2956 94.4223 45.1256 93.777 44.7072C93.1317 44.2888 92.0609 44.693 91.4085 45.6574Z" fill="#ECA895"/>
<path d="M83.3278 46.0781L87.2422 47.0638C87.0874 47.4961 86.7715 47.8519 86.3605 48.0567C85.9495 48.2616 85.4752 48.2996 85.0368 48.163C82.9236 47.6949 83.3278 46.0781 83.3278 46.0781Z" fill="white"/>
<path d="M119.991 108.112C119.92 107.934 119.764 107.927 119.608 107.927C118.059 107.9 116.513 107.784 114.978 107.58C114.723 107.544 114.473 107.48 114.233 107.388C113.825 107.229 113.375 107.214 112.957 107.346C112.725 107.401 112.486 107.425 112.247 107.417C111.467 107.417 109.248 106.658 108.106 106.459C107.979 106.438 107.86 106.379 107.766 106.291C107.671 106.203 107.605 106.089 107.574 105.963C106.454 101.524 104.029 91.5676 103.731 88.2914C103.334 84.1075 100.44 65.2305 100.44 65.2305L92.7109 67.3579C92.7109 67.3579 95.8949 81.2923 96.7743 88.0503C97.4834 93.2695 102.667 104.36 104.298 107.523C104.464 108.206 104.847 108.817 105.389 109.264C105.931 109.711 106.603 109.971 107.305 110.005C107.544 110.034 107.763 110.15 107.922 110.331C108.199 110.664 108.527 110.951 108.893 111.182C109.161 111.354 109.388 111.581 109.56 111.849C109.893 112.324 110.184 112.827 110.475 113.331C110.666 113.664 110.872 113.77 111.184 113.692C111.335 113.654 111.465 113.559 111.548 113.427C111.631 113.295 111.661 113.136 111.631 112.983C111.614 112.443 111.455 111.917 111.17 111.459C111.041 111.301 110.976 111.1 110.988 110.897C111 110.693 111.087 110.502 111.233 110.36C111.398 110.118 111.594 109.898 111.815 109.707C111.918 109.606 112.042 109.529 112.178 109.48C112.313 109.431 112.458 109.412 112.602 109.423C113.157 109.563 113.721 109.667 114.29 109.735L114.758 109.835L115.013 109.884C115.056 109.884 115.878 109.984 116.155 109.984L117.062 110.019C117.366 110.002 117.668 109.957 117.963 109.884C118.227 109.876 118.478 109.773 118.672 109.594C118.757 109.516 118.835 109.431 118.793 109.303C118.772 109.251 118.737 109.207 118.691 109.174C118.646 109.142 118.593 109.122 118.537 109.119C118.156 109.074 117.778 109.01 117.403 108.927H118.871C119.055 108.926 119.237 108.887 119.405 108.812C119.573 108.738 119.724 108.63 119.849 108.495C119.942 108.402 120.062 108.289 119.991 108.112Z" fill="#ECA895"/>
<path d="M95.7587 55.3652C99.5738 54.6561 102.722 71.7532 102.722 71.7532C102.722 71.7532 94.2128 74.1217 92.0854 72.8807C92.0854 72.8807 89.6247 61.9459 88.7383 62.3289L95.7587 55.3652Z" fill="#A3BFE5"/>
</svg>
