<svg width="49" height="49" viewBox="0 0 49 49" fill="none" xmlns="http://www.w3.org/2000/svg">
<path d="M11.7265 36.8214H36.3289C37.1144 36.8219 37.8922 36.6676 38.618 36.3674C39.3438 36.0671 40.0033 35.6268 40.5589 35.0716C41.1145 34.5164 41.5552 33.8571 41.8559 33.1315C42.1566 32.4059 42.3113 31.6282 42.3113 30.8427V19.0242C42.3099 18.294 42.1748 17.5702 41.9127 16.8887C41.5217 17.8031 40.8424 18.5646 39.9783 19.0571L26.3278 26.9446C25.628 27.347 24.8349 27.5587 24.0277 27.5587C23.2205 27.5587 22.4275 27.347 21.7277 26.9446L8.07713 19.0461C7.2149 18.5564 6.5358 17.799 6.14272 16.8887C5.88065 17.5702 5.74556 18.294 5.74414 19.0242L5.74414 30.8427C5.74414 31.6282 5.89891 32.4059 6.19959 33.1315C6.50028 33.8571 6.941 34.5164 7.49656 35.0716C8.05213 35.6268 8.71165 36.0671 9.43745 36.3674C10.1632 36.6676 10.9411 36.8219 11.7265 36.8214Z" fill="#DB8080"/>
<path d="M11.7279 13.0449C10.4545 13.043 9.2139 13.4493 8.18824 14.2041C8.15528 14.2877 8.12719 14.3732 8.10414 14.4601C7.95536 14.9608 7.98315 15.4974 8.18287 15.98C8.38258 16.4627 8.74208 16.862 9.20115 17.1112L22.8517 25.0061C23.2097 25.2127 23.6158 25.3216 24.0291 25.3216C24.4425 25.3216 24.8486 25.2127 25.2066 25.0061L38.8608 17.1112C39.3199 16.862 39.6794 16.4627 39.8791 15.98C40.0788 15.4974 40.1066 14.9608 39.9578 14.4601C39.9348 14.3732 39.9067 14.2877 39.8737 14.2041C38.848 13.4493 37.6075 13.043 36.334 13.0449H11.7279Z" fill="#DB8080"/>
</svg>
