<svg width="49" height="49" viewBox="0 0 49 49" fill="none" xmlns="http://www.w3.org/2000/svg">
<path d="M25.1511 45.2463C24.1807 45.2463 23.1994 45.2463 22.229 45.2463C21.9346 45.1481 21.6402 45.0063 21.3349 44.9409C12.9611 43.2177 7.45491 38.299 4.8381 30.1738C4.511 29.1596 4.30383 28.1017 4.03125 27.0656C4.03125 25.3315 4.03125 23.5974 4.03125 21.8742C4.14028 21.5252 4.28203 21.1762 4.34745 20.8163C5.8194 12.5276 12.2088 5.9293 20.5171 4.11886C28.7165 2.34115 37.3192 5.83114 42.0513 12.8438C46.7943 19.9002 46.8052 29.0505 42.0622 36.0523C39.2927 40.1312 35.5638 42.8905 30.69 44.3738C30.69 39.2042 30.69 34.2092 30.69 29.0505C32.151 29.0505 33.5358 29.0505 35.0513 29.0505C35.2585 27.2728 35.4548 25.6478 35.6728 23.8046C33.8629 23.8046 32.271 23.8046 30.3956 23.8046C30.6137 22.0051 30.2757 19.9438 31.137 18.9731C32.0311 17.9698 34.1027 18.0243 35.7819 17.5771C35.7819 16.3775 35.7819 14.9378 35.7819 13.411C33.0342 13.1492 30.3084 12.6475 27.866 14.2944C24.3987 16.6283 25.3582 20.4019 25.0857 23.9028C23.5701 23.9028 22.1963 23.9028 20.7788 23.9028C20.7788 25.6805 20.7788 27.2728 20.7788 29.0505C22.2399 29.0505 23.6246 29.0505 25.1402 29.0505C25.1511 34.5691 25.1511 39.9131 25.1511 45.2463Z" fill="#db8080"/>
</svg>
