<svg width="48" height="49" viewBox="0 0 48 49" fill="none" xmlns="http://www.w3.org/2000/svg">
<path d="M44.8725 21.8472C44.8725 22.6336 44.8725 23.4096 44.8725 24.196C44.8525 24.3323 44.8127 24.4686 44.8027 24.6049C44.6931 26.1673 44.3842 27.6983 43.876 29.1663C41.9329 34.7552 38.246 38.635 33.1242 41.0048C28.6003 43.0915 23.907 43.4061 19.124 42.1582C18.8151 42.0744 18.556 42.1058 18.2671 42.2736C16.2343 43.469 14.1816 44.6434 12.1389 45.8178C12.0193 45.8807 11.8997 45.9436 11.7303 46.0275C11.7303 45.7968 11.7303 45.6395 11.7303 45.4823C11.7303 43.2802 11.7303 41.0782 11.7303 38.8657C11.7303 38.5931 11.6606 38.4043 11.4413 38.2365C9.58793 36.7266 8.00356 34.944 6.80782 32.8258C3.78855 27.4885 3.18071 21.8472 5.45264 16.1009C8.28257 8.9286 13.6535 4.97544 20.7981 3.51791C21.5952 3.35013 22.4223 3.28722 23.2294 3.17188C24.0764 3.17188 24.9234 3.17188 25.7804 3.17188C26.169 3.2243 26.5676 3.27673 26.9562 3.32916C31.7691 3.91637 35.9442 5.91917 39.4019 9.50532C42.0226 12.2212 43.7564 15.4823 44.5038 19.2991C44.6632 20.1275 44.7529 20.9873 44.8725 21.8472ZM22.3525 17.4641C18.6955 21.5536 15.0684 25.6011 11.4413 29.6486C11.4613 29.6801 11.4812 29.7011 11.5011 29.7325C14.7795 27.8451 18.0578 25.9681 21.3362 24.0806C23.08 26.0415 24.7939 27.9604 26.5277 29.9003C30.1947 25.8108 33.8417 21.7318 37.4887 17.6528C37.4688 17.6319 37.4588 17.6109 37.4389 17.5899C34.1805 19.4878 30.9221 21.3858 27.6637 23.2837C25.89 21.3334 24.1362 19.4144 22.3525 17.4641Z" fill="#db8080"/>
</svg>
