<svg width="49" height="49" viewBox="0 0 49 49" fill="none" xmlns="http://www.w3.org/2000/svg">
<path d="M14.0595 36.165C12.0967 34.2022 12.0967 31.0243 14.0595 29.0615L21.0383 22.0827L18.4524 19.4968L11.4736 26.4756C8.07763 29.8716 8.07763 35.355 11.4736 38.7509C14.8695 42.1469 20.3529 42.1469 23.7489 38.7509L30.7277 31.7721L28.1418 29.1862L21.163 36.165C19.2002 38.1278 16.0223 38.1278 14.0595 36.165ZM28.2353 9.71394L21.2564 16.6928L23.8423 19.2787L30.8212 12.2999C32.784 10.337 35.9619 10.337 37.9247 12.2998C39.8875 14.2626 39.8875 17.4405 37.9247 19.4033L30.9458 26.3822L33.5317 28.9681L40.5106 21.9892C43.9065 18.5933 43.9065 13.1099 40.5106 9.71394C37.1146 6.31798 31.6312 6.31798 28.2353 9.71394ZM18.6082 31.6163C19.3248 32.3329 20.5087 32.3329 21.2253 31.6163L33.4071 19.4345C34.1237 18.7179 34.1237 17.534 33.4071 16.8174C32.6905 16.1008 31.5066 16.1008 30.79 16.8174L18.6082 28.9992C17.8916 29.7158 17.8916 30.8997 18.6082 31.6163Z" fill="#db8080"/>
</svg>
