<svg width="30" height="29" viewBox="0 0 30 29" fill="none" xmlns="http://www.w3.org/2000/svg">
<path d="M10.4217 14.2785C10.4217 11.65 12.549 9.51859 15.1739 9.51859C17.7987 9.51859 19.9272 11.65 19.9272 14.2785C19.9272 16.9069 17.7987 19.0383 15.1739 19.0383C12.549 19.0383 10.4217 16.9069 10.4217 14.2785ZM7.85213 14.2785C7.85213 18.3278 11.1301 21.6103 15.1739 21.6103C19.2177 21.6103 22.4956 18.3278 22.4956 14.2785C22.4956 10.2291 19.2177 6.94664 15.1739 6.94664C11.1301 6.94664 7.85213 10.2291 7.85213 14.2785ZM21.0744 6.65593C21.0743 6.99481 21.1745 7.32612 21.3624 7.60797C21.5503 7.88981 21.8174 8.10953 22.13 8.23934C22.4426 8.36915 22.7866 8.40322 23.1186 8.33724C23.4505 8.27126 23.7555 8.1082 23.9949 7.86867C24.2343 7.62914 24.3973 7.3239 24.4635 6.99156C24.5296 6.65922 24.4959 6.31469 24.3665 6.00155C24.2371 5.68842 24.0179 5.42073 23.7366 5.23234C23.4553 5.04396 23.1245 4.94334 22.7861 4.9432H22.7854C22.3318 4.94341 21.8968 5.12391 21.576 5.44504C21.2552 5.76617 21.0748 6.20169 21.0744 6.65593ZM9.4133 25.9008C8.02312 25.8374 7.26751 25.6055 6.76538 25.4096C6.09966 25.1501 5.62467 24.841 5.12527 24.3416C4.62587 23.8422 4.31674 23.367 4.05871 22.7003C3.86296 22.1977 3.6314 21.4409 3.56821 20.0488C3.49908 18.5437 3.48528 18.0916 3.48528 14.2786C3.48528 10.4655 3.50022 10.0147 3.56821 8.50836C3.63152 7.11627 3.86479 6.36088 4.05871 5.85679C4.31788 5.19016 4.62655 4.71452 5.12527 4.21443C5.62399 3.71434 6.09852 3.40478 6.76538 3.1464C7.26729 2.95039 8.02312 2.7185 9.4133 2.65522C10.9163 2.586 11.3678 2.57218 15.1739 2.57218C18.9799 2.57218 19.4319 2.58714 20.9361 2.65522C22.3263 2.71862 23.0807 2.95221 23.5841 3.1464C24.2498 3.40478 24.7248 3.71503 25.2242 4.21443C25.7236 4.71383 26.0316 5.19016 26.2907 5.85679C26.4865 6.3594 26.718 7.11627 26.7812 8.50836C26.8504 10.0147 26.8642 10.4655 26.8642 14.2786C26.8642 18.0916 26.8504 18.5425 26.7812 20.0488C26.7179 21.4409 26.4852 22.1975 26.2907 22.7003C26.0316 23.367 25.7229 23.8426 25.2242 24.3416C24.7254 24.8405 24.2498 25.1501 23.5841 25.4096C23.0821 25.6056 22.3263 25.8375 20.9361 25.9008C19.4331 25.97 18.9816 25.9838 15.1739 25.9838C11.3661 25.9838 10.9158 25.97 9.4133 25.9008ZM9.29523 0.0864703C7.7773 0.155692 6.74005 0.396713 5.83422 0.749676C4.8961 1.11418 4.10194 1.60318 3.30835 2.39661C2.51476 3.19004 2.02768 3.98654 1.66368 4.92595C1.31121 5.83361 1.07052 6.87171 1.00139 8.39173C0.931123 9.91416 0.915039 10.4009 0.915039 14.2785C0.915039 18.156 0.931123 18.6428 1.00139 20.1652C1.07052 21.6853 1.31121 22.7233 1.66368 23.631C2.02768 24.5698 2.51488 25.3672 3.30835 26.1603C4.10183 26.9534 4.8961 27.4417 5.83422 27.8072C6.74176 28.1602 7.7773 28.4012 9.29523 28.4704C10.8164 28.5397 11.3016 28.5569 15.1739 28.5569C19.0461 28.5569 19.5322 28.5408 21.0525 28.4704C22.5705 28.4012 23.6071 28.1602 24.5135 27.8072C25.451 27.4417 26.2458 26.9537 27.0394 26.1603C27.833 25.3669 28.319 24.5698 28.684 23.631C29.0365 22.7233 29.2783 21.6852 29.3463 20.1652C29.4155 18.6416 29.4315 18.156 29.4315 14.2785C29.4315 10.4009 29.4155 9.91416 29.3463 8.39173C29.2772 6.87159 29.0365 5.83303 28.684 4.92595C28.319 3.98712 27.8317 3.19129 27.0394 2.39661C26.247 1.60193 25.451 1.11418 24.5146 0.749676C23.6071 0.396713 22.5704 0.15455 21.0536 0.0864703C19.5333 0.0172484 19.0472 0 15.175 0C11.3028 0 10.8164 0.0161061 9.29523 0.0864703Z" fill="white"/>
</svg>
