<svg width="48" height="49" viewBox="0 0 48 49" fill="none" xmlns="http://www.w3.org/2000/svg">
<path d="M44.5745 23.435C44.5745 24.22 44.5745 25.005 44.5745 25.7899C44.5451 26.0745 44.5058 26.3493 44.4764 26.6338C43.9956 30.9317 42.3569 34.7389 39.4524 37.9574C36.3517 41.4015 32.5151 43.5505 27.9326 44.3551C27.1771 44.4924 26.4117 44.5611 25.6464 44.6691C24.9104 44.6691 24.1843 44.6691 23.4484 44.6691C22.8792 44.6102 22.3101 44.5513 21.741 44.4728C18.8856 44.0803 16.2264 43.1187 13.7831 41.5683C13.528 41.4113 13.3121 41.3721 13.0276 41.4604C10.7315 42.2062 8.43535 42.9323 6.12943 43.6682C6.00186 43.7075 5.8743 43.7467 5.69768 43.7958C6.5023 41.4113 7.26767 39.1054 8.06247 36.7995C8.17041 36.4855 8.15079 36.2598 7.95454 35.9753C6.27661 33.5908 5.19724 30.9415 4.69681 28.0566C4.55944 27.2324 4.48094 26.3885 4.38281 25.5446C4.38281 24.8381 4.38281 24.1316 4.38281 23.4252C4.40244 23.3172 4.44169 23.1995 4.4515 23.0915C4.67719 19.9712 5.5603 17.0373 7.21861 14.3781C10.9866 8.3042 16.4815 4.98759 23.6348 4.57547C27.599 4.34979 31.3277 5.30159 34.7229 7.3622C39.9431 10.5414 43.1419 15.1435 44.2605 21.1487C44.3979 21.9042 44.4764 22.6696 44.5745 23.435ZM31.0334 35.9262C31.0432 35.8968 31.053 35.8673 31.053 35.8379C31.2885 35.8281 31.524 35.8281 31.7595 35.7888C32.0833 35.7398 32.4071 35.6809 32.7113 35.5729C35.5471 34.5819 36.5087 33.2278 36.5872 30.598C36.597 30.2055 36.4597 29.921 36.0868 29.7542C34.5757 29.0379 33.0744 28.3019 31.5632 27.5954C30.8175 27.252 30.3661 27.3992 29.8657 28.0566C29.4634 28.5865 29.0807 29.1262 28.6686 29.656C28.07 30.4116 27.6285 30.5195 26.7257 30.1565C23.3601 28.7926 20.8775 26.4278 19.023 23.3565C18.7384 22.8855 18.7678 22.6205 19.1309 22.179C19.5234 21.708 19.9453 21.2566 20.3476 20.7954C20.8284 20.2459 20.9658 19.6768 20.6322 18.9703C19.9453 17.469 19.337 15.9285 18.6697 14.4075C18.5716 14.1917 18.3557 13.9267 18.1497 13.8777C17.0899 13.6225 15.9909 13.5637 15.1176 14.28C13.1551 15.8696 12.5468 18.0087 12.9196 20.4422C13.1159 21.7472 13.6359 22.9542 14.3326 24.063C15.8732 26.5259 17.6787 28.7533 19.8276 30.7158C22.2905 32.9628 25.1852 34.4053 28.3644 35.3276C29.2377 35.5828 30.1404 35.7299 31.0334 35.9262Z" fill="#db8080"/>
</svg>
