<svg width="29" height="30" viewBox="0 0 29 30" fill="none" xmlns="http://www.w3.org/2000/svg">
<path d="M11.0775 29.1687C13.3407 28.8793 15.4271 27.9742 17.075 26.5581C19.0978 24.8157 20.2152 22.5068 20.2294 20.044L20.2011 9.09064C21.1629 9.73713 22.2167 10.2789 23.3554 10.6915C25.1165 11.3379 26.9836 11.6704 28.9003 11.6704V8.11783C26.7715 7.76072 24.9185 6.72634 23.6525 5.27329C21.9833 4.17734 20.781 2.5642 20.3637 0.710938H16.3112V14.0901L16.3041 21.417C16.3041 23.3749 14.8259 25.0373 12.7749 25.6222C12.1808 25.7946 11.5372 25.8747 10.8653 25.8377C9.16791 25.7577 7.68975 24.9634 6.81983 23.7998C5.34167 23.0363 4.33737 21.651 4.30908 20.0624C4.26664 17.5873 6.58644 15.5678 9.45789 15.5678C10.0237 15.5678 10.5683 15.6479 11.0775 15.7895V12.1445C8.22019 12.163 5.5397 13.1296 3.52403 14.8721C1.5225 16.6022 0.376749 18.9665 0.383822 21.417C0.383822 23.5966 1.25374 25.6653 2.85921 27.3216C4.7405 28.5838 7.03908 29.2672 9.45789 29.2672C10.0025 29.2733 10.5471 29.2364 11.0775 29.1687Z" fill="white"/>
</svg>
