<svg width="31" height="25" viewBox="0 0 31 25" fill="none" xmlns="http://www.w3.org/2000/svg">
<path d="M27.8516 6.65625C29.0234 5.77734 30.0781 4.72266 30.8984 3.49219C29.8438 3.96094 28.6133 4.3125 27.3828 4.42969C28.6719 3.66797 29.6094 2.49609 30.0781 1.03125C28.9062 1.73438 27.5586 2.26172 26.2109 2.55469C25.0391 1.32422 23.457 0.621094 21.6992 0.621094C18.3008 0.621094 15.5469 3.375 15.5469 6.77344C15.5469 7.24219 15.6055 7.71094 15.7227 8.17969C10.625 7.88672 6.05469 5.42578 3.00781 1.73438C2.48047 2.61328 2.1875 3.66797 2.1875 4.83984C2.1875 6.94922 3.24219 8.82422 4.94141 9.9375C3.94531 9.87891 2.94922 9.64453 2.12891 9.17578V9.23438C2.12891 12.2227 4.23828 14.6836 7.05078 15.2695C6.58203 15.3867 5.99609 15.5039 5.46875 15.5039C5.05859 15.5039 4.70703 15.4453 4.29688 15.3867C5.05859 17.8477 7.34375 19.6055 10.0391 19.6641C7.92969 21.3047 5.29297 22.3008 2.42188 22.3008C1.89453 22.3008 1.42578 22.2422 0.957031 22.1836C3.65234 23.9414 6.875 24.9375 10.3906 24.9375C21.6992 24.9375 27.8516 15.6211 27.8516 7.47656C27.8516 7.18359 27.8516 6.94922 27.8516 6.65625Z" fill="white"/>
</svg>
