<svg width="48" height="49" viewBox="0 0 48 49" fill="none" xmlns="http://www.w3.org/2000/svg">
<path d="M1.11719 39.4816C6.29141 39.8347 10.9283 38.5911 15.1506 35.4129C10.7133 34.9983 7.81144 32.772 6.15323 28.6572C7.61184 28.6572 8.96297 28.6572 10.3141 28.6572C10.3141 28.6111 10.3295 28.5497 10.3295 28.5037C5.66191 27.045 3.15924 23.8975 2.7754 18.8922C4.18795 19.5677 5.52373 20.0437 7.10517 20.0591C4.67927 18.0938 3.15924 15.7139 2.91358 12.6585C2.76004 10.7393 3.26672 8.95828 4.23401 7.20795C9.4543 13.3034 15.9643 16.7273 23.8869 17.234C23.8869 16.1592 23.8254 15.1612 23.9022 14.1786C24.3014 9.20394 28.5851 5.35014 33.6212 5.42691C36.1852 5.47297 38.3962 6.3942 40.2386 8.17524C40.469 8.39019 40.6686 8.46696 40.991 8.39019C42.7874 7.94493 44.507 7.33078 46.1191 6.44026C46.2266 6.37884 46.3187 6.33278 46.4262 6.28672C46.4569 6.27137 46.4876 6.30207 46.5951 6.31743C45.8735 8.46696 44.5377 10.1252 42.6645 11.3535C42.6953 11.4149 42.726 11.4763 42.7567 11.5377C44.4302 11.0771 46.1038 10.6011 47.8388 10.1252C47.7006 10.3248 47.5778 10.5397 47.4242 10.7393C46.3341 12.2593 45.029 13.5798 43.5397 14.7006C43.2019 14.9463 43.1098 15.1919 43.1098 15.6065C43.4476 26.3695 37.0604 36.9943 27.3415 41.2473C18.5898 45.0857 9.94562 44.5637 1.60851 39.804C1.45497 39.7119 1.28608 39.5891 1.11719 39.4816Z" fill="#db8080"/>
</svg>
