<svg width="35" height="21" viewBox="0 0 35 21" fill="none" xmlns="http://www.w3.org/2000/svg">
<path fill-rule="evenodd" clip-rule="evenodd" d="M30.6917 0.640158C32.1459 0.984981 33.2926 1.99436 33.684 3.27491C34.4114 5.61387 34.3834 10.4893 34.3834 10.4893C34.3834 10.4893 34.3834 15.3398 33.6843 17.679C33.2926 18.9594 32.1461 19.969 30.6917 20.3136C28.0348 20.9293 17.4075 20.9293 17.4075 20.9293C17.4075 20.9293 6.80795 20.9293 4.12335 20.2892C2.66889 19.9443 1.52242 18.9347 1.13077 17.6544C0.431641 15.3398 0.431641 10.4647 0.431641 10.4647C0.431641 10.4647 0.431641 5.61387 1.13077 3.27491C1.52216 1.99459 2.69687 0.960351 4.1231 0.615756C6.77998 0 17.4073 0 17.4073 0C17.4073 0 28.0348 0 30.6917 0.640158ZM22.855 10.4423L14.0176 14.9236V5.96094L22.855 10.4423Z" fill="white"/>
</svg>
