<svg width="215" height="215" viewBox="0 0 215 215" fill="none" xmlns="http://www.w3.org/2000/svg">
<path d="M107.382 214.357C166.547 214.357 214.51 166.395 214.51 107.229C214.51 48.0644 166.547 0.101562 107.382 0.101562C48.2167 0.101562 0.253906 48.0644 0.253906 107.229C0.253906 166.395 48.2167 214.357 107.382 214.357Z" fill="#F4B3B3"/>
<path d="M83.8899 56.6207C77.5935 59.5016 75.2769 63.9269 77.6232 72.1835C79.2567 76.8167 89.9784 88.4591 102.334 87.6869C91.4634 79.757 89.2953 63.8378 96.5421 63.0359C94.1958 54.8387 83.8899 56.6207 83.8899 56.6207Z" fill="#343249"/>
<path d="M115.133 87.0925C114.034 65.5897 109.757 55.3432 98.3527 47.5024C94.0165 44.5027 88.1656 45.3343 80.8891 51.9574C72.187 59.8576 73.9987 62.6791 77.6221 72.2128C76.4044 66.4213 77.8597 60.4516 83.2057 59.9764C88.5517 59.5012 95.6797 61.402 104.293 72.5395C110.054 79.9348 111.064 89.2012 115.133 87.0925Z" fill="#464666"/>
<path d="M144.804 52.3138C145.962 62.6494 136.458 69.3616 127.637 77.737C123.004 82.1326 120.717 86.4985 120.717 86.4985C118.757 84.9541 119.737 83.4988 120.212 81.3604C129.568 67.2826 130.845 57.1548 127.518 54.7491C128.885 49.017 142.042 41.0574 144.804 52.3138Z" fill="#343249"/>
<path d="M114.775 86.4984C110.735 62.7978 111.329 51.3336 115.19 43.6413C119.348 35.3847 123.655 33.3651 131.525 37.2855C144.059 43.5225 144.92 47.6508 144.801 52.3137C142.514 46.9974 137.406 47.4132 134.228 49.8189C131.05 52.2246 124.279 60.2436 122.229 71.886C121.606 75.8955 120.328 83.3799 120.685 86.4687C119.022 86.9439 114.982 87.5973 114.775 86.4984Z" fill="#464666"/>
<path d="M151.161 69.5133C153.329 74.8593 152.319 85.1949 134.262 87.2145C142.994 92.2041 166.872 88.6401 167.852 81.0963C169.248 71.4735 164.288 69.1866 159.061 67.9095C153.834 66.6621 151.161 69.5133 151.161 69.5133Z" fill="#343249"/>
<path d="M120.809 86.4704C129.748 70.967 145.163 54.335 155.736 54.4538C161.379 54.4538 170.734 75.5111 167.853 81.1244C167.467 73.2539 162.893 70.7591 156.241 70.9967C149.618 71.2343 135.569 83.9459 128.62 86.4704C122.709 87.896 120.809 86.4704 120.809 86.4704Z" fill="#464666"/>
<path d="M165.002 107.289H56.5078V187.212H165.002V107.289Z" fill="#FFF8EE"/>
<path d="M175.095 86.1133H46.375V107.319H175.095V86.1133Z" fill="#FFF8EE"/>
<path d="M62.8585 86.1133H58.4035L46.375 97.2508V101.349L62.8585 86.1133Z" fill="#A7CDD6"/>
<path d="M100.551 86.1133H96.1253L73.2266 107.289H77.6519L100.551 86.1133Z" fill="#A7CDD6"/>
<path d="M138.238 86.1133H133.813L110.914 107.289H115.339L138.238 86.1133Z" fill="#A7CDD6"/>
<path d="M175.094 86.8855V86.1133H171.5L148.602 107.289H153.057L175.094 86.8855Z" fill="#A7CDD6"/>
<path d="M123.511 107.289H119.056L56.5078 165.204V169.303L123.511 107.289Z" fill="#A7CDD6"/>
<path d="M74.8613 187.241L161.199 107.289H156.774L70.4062 187.241H74.8613Z" fill="#A7CDD6"/>
<path d="M85.8217 107.289H81.3667L56.5078 130.307V134.435L85.8217 107.289Z" fill="#A7CDD6"/>
<path d="M165.003 173.579V169.48L145.816 187.241H150.242L165.003 173.579Z" fill="#A7CDD6"/>
<path d="M165.003 138.681V134.582L108.098 187.24H112.553L165.003 138.681Z" fill="#A7CDD6"/>
<path d="M56.5078 110.675L165.002 108.21V107.289H56.5078V110.675Z" fill="#C7C7C7"/>
<path d="M113.352 86.1158C109.609 84.6605 100.907 85.6703 94.5812 86.2049C89.3243 88.8185 81.8696 96.7187 78.0977 105.807C85.5524 95.8871 94.8782 97.7582 94.9673 111.42C98.4422 97.4612 112.55 87.185 113.352 86.1158Z" fill="#464666"/>
<path d="M119.531 86.114C131.827 93.9251 138.42 105.627 141.48 116.913C145.281 131.614 139.044 140.495 137.856 144.712C157.755 118.368 158.943 144.712 158.943 144.712C165.744 128.526 163.873 112.012 153.954 100.578C144.034 89.1731 137.054 86.6783 133.282 85.4012C129.51 84.1241 121.996 84.5993 119.531 86.114Z" fill="#464666"/>
<path d="M73.0191 32.8898C74.2071 30.0386 75.3951 27.1874 78.4839 25.7618C80.9787 24.6035 83.5626 25.049 85.7604 26.6825C91.9974 31.3751 86.5623 36.5726 93.6903 45.4826C95.8881 48.2447 98.5908 50.5019 99.8976 53.7392C101.739 58.2833 99.5413 60.4514 96.007 62.6492C79.0779 73.0442 70.1976 51.6899 70.5243 46.7894C70.7322 43.1363 72.2469 34.7312 73.0191 32.8898Z" fill="#1D1D1B"/>
<path d="M55.8818 88.2817C56.5946 88.1629 58.3172 86.9155 58.9409 86.8264C59.4161 86.7373 60.4556 86.5888 60.8714 86.5294C61.406 84.5395 64.1384 73.6396 64.4354 70.432C64.7621 66.9571 67.2272 51.9883 67.2272 51.9883L73.5533 53.1466C73.5533 53.1466 70.91 64.6702 70.1972 70.2538C69.5735 75.0652 64.3166 85.8463 63.6335 86.9749C63.6335 87.0046 63.6335 87.0343 63.6335 87.064C63.5444 88.7569 62.7128 88.1926 62.7128 88.1926L61.3763 88.5193C61.3763 88.5193 56.6837 88.9648 56.3867 89.0836C56.0897 89.2024 55.169 88.4005 55.8818 88.2817Z" fill="url(#paint0_linear_3199_4026)"/>
<path d="M72.3084 43.1992C67.8237 44.7139 65.2695 56.8909 65.2695 56.8909C65.2695 56.8909 72.3084 58.8511 74.0904 57.8116C74.0904 57.8116 76.1397 48.7531 76.8822 49.0501L72.3084 43.1992Z" fill="#A7CDD6"/>
<path d="M37.616 111.539C36.2498 115.162 35.537 118.637 35.4776 119.053C35.4479 119.261 35.7449 120.241 35.7152 120.449C32.9531 124.191 29.003 125.023 25.6172 125.26C27.3398 123.568 29.894 121.964 30.0128 121.429C30.2207 120.568 31.2602 116.796 31.7651 111.539C33.8441 112.549 35.2697 111.777 37.616 111.539Z" fill="url(#paint1_linear_3199_4026)"/>
<path d="M76.6436 71.0859L82.7024 88.1337C82.7024 88.1337 72.9608 89.9751 69.3374 90.6285C65.6843 91.2819 45.3695 92.1729 44.8349 92.559C44.4488 92.8263 40.2611 106.399 38.39 113.913C36.2516 114.388 32.6282 113.824 30.668 113.141C31.7075 102.419 35.5091 85.431 36.6971 83.5896C38.687 80.5899 76.6436 71.0859 76.6436 71.0859Z" fill="#F2D251"/>
<path d="M52.9695 116.824C52.2864 120.626 52.2567 124.19 52.2567 124.606C52.2567 124.813 52.7319 125.734 52.7319 125.942C50.742 130.159 46.9998 131.704 43.7031 132.565C45.099 130.575 47.2671 128.526 47.2968 127.991C47.3265 127.13 47.6532 123.21 47.178 117.953C49.4649 118.517 50.7123 117.478 52.9695 116.824Z" fill="url(#paint2_linear_3199_4026)"/>
<path d="M51.9621 124.725C52.4967 124.131 54.4272 127.339 54.9024 128.022C55.437 128.794 55.2885 129.359 55.2291 129.477C55.0509 129.804 44.8341 135.803 42.369 136.219C42.1314 136.249 41.7156 136.1 41.6265 136.011C40.6464 135.15 45.1311 128.794 47.1507 127.963C48.4278 127.458 49.5861 127.339 51.9621 124.725Z" fill="#1D1D1B"/>
<path d="M35.1525 119.2C35.7762 118.725 37.083 122.23 37.4394 123.002C37.8255 123.863 37.5582 124.398 37.4691 124.517C37.2315 124.784 26.094 128.793 23.5695 128.734C23.3319 128.734 22.9458 128.496 22.8864 128.407C22.0845 127.368 27.6978 121.962 29.8065 121.517C31.1727 121.22 32.331 121.309 35.1525 119.2Z" fill="#1D1D1B"/>
<path d="M81.5759 38.8025C81.5759 38.8025 80.7739 42.9308 80.9521 44.5643C81.1006 46.1978 80.3581 51.4547 76.8832 51.4547C73.438 51.4844 76.2298 44.7722 76.5565 43.1981C76.8832 41.5943 76.9723 36.6641 76.9723 36.6641L81.5759 38.8025Z" fill="url(#paint3_linear_3199_4026)"/>
<path d="M76.8789 39.1292C76.9383 37.7927 76.9383 36.6641 76.9383 36.6641L81.5715 38.8025C81.5715 38.8025 81.423 39.6341 81.2448 40.733C79.2252 41.1191 77.7402 40.3766 76.8789 39.1292Z" fill="#F47458"/>
<path d="M74.7715 31.7323C74.8606 32.653 75.3655 33.3658 75.9001 33.3064C76.4347 33.247 76.7911 32.4748 76.702 31.5541C76.6129 30.6334 76.108 29.9206 75.5734 29.98C75.0388 30.0394 74.6824 30.8116 74.7715 31.7323Z" fill="url(#paint4_linear_3199_4026)"/>
<path d="M83.2648 27.3975C83.2648 27.3975 85.0468 28.3776 85.7002 30.516C86.3536 32.6544 85.6111 38.1786 81.0076 39.5151C76.4041 40.8516 74.4142 36.4857 75.3646 33.0405C76.315 29.6547 78.3643 25.3185 83.2648 27.3975Z" fill="url(#paint5_linear_3199_4026)"/>
<path d="M82.7305 27.1289C82.7305 27.1289 83.5621 33.3065 85.552 34.4054C87.5419 35.5043 86.7103 38.2664 86.7103 38.2664C86.7103 38.2664 88.522 31.9106 86.9479 29.891C85.3738 27.812 82.7305 27.1289 82.7305 27.1289Z" fill="#1D1D1B"/>
<path d="M77.6491 35.625L80.8864 36.4269C80.8864 36.4269 80.5003 37.6446 79.0747 37.3476C77.3224 36.9615 77.6491 35.625 77.6491 35.625Z" fill="white"/>
<path d="M108.063 87.0626C108.004 86.9141 107.885 86.9141 107.737 86.9141C106.46 86.8844 105.183 86.825 103.905 86.6171C103.698 86.5874 103.49 86.528 103.282 86.4686C102.925 86.3201 102.569 86.3201 102.213 86.4389C102.005 86.4983 101.826 86.4983 101.619 86.4983C100.965 86.4983 99.1238 85.8746 98.1734 85.6964C97.9655 85.6667 97.7873 85.4885 97.7279 85.2806C96.8072 81.5978 94.8173 73.3412 94.55 70.6385C94.2233 67.1636 91.8176 51.5117 91.8176 51.5117L85.4023 53.2937C85.4023 53.2937 88.0456 64.847 88.7584 70.4603C89.3227 74.7965 93.659 83.9738 94.9955 86.6171C95.6489 88.5773 97.1339 88.6367 97.4903 88.6664C97.6982 88.6961 97.8764 88.7852 97.9952 88.9337C98.2328 89.201 98.5001 89.4386 98.7971 89.6465C99.0347 89.795 99.2129 89.9732 99.3614 90.1811C99.6287 90.5672 99.8663 90.983 100.104 91.3988C100.252 91.6661 100.431 91.7552 100.668 91.6958C100.935 91.6364 101.054 91.4285 101.025 91.1315C101.025 90.686 100.876 90.2702 100.638 89.8544C100.431 89.498 100.431 89.2901 100.698 88.9337C100.846 88.7258 100.995 88.5476 101.173 88.3991C101.351 88.2506 101.559 88.1318 101.826 88.1615C102.302 88.2803 102.747 88.3694 103.222 88.4288L103.608 88.5179L103.816 88.5773C103.846 88.5773 104.529 88.6664 104.767 88.6664C104.945 88.6664 105.272 88.6664 105.509 88.6961C105.747 88.6961 106.252 88.5773 106.252 88.5773C106.489 88.5773 106.668 88.4882 106.846 88.3397C106.905 88.2803 106.994 88.2209 106.935 88.1021C106.905 88.013 106.816 87.9536 106.727 87.9536C106.578 87.9239 105.777 87.8348 105.777 87.8051C106.014 87.8051 106.757 87.7754 106.994 87.7754C107.321 87.7754 107.588 87.6566 107.796 87.419C108.004 87.3002 108.123 87.2111 108.063 87.0626Z" fill="url(#paint6_linear_3199_4026)"/>
<path d="M87.9603 43.3172C91.1382 42.7529 93.7221 56.8901 93.7221 56.8901C93.7221 56.8901 86.6832 58.8503 84.9012 57.8108C84.9012 57.8108 82.8519 48.7523 82.1094 49.0493L87.9603 43.3172Z" fill="#A7CDD6"/>
<path d="M84.2158 69.332L85.6414 72.8366C85.7899 73.2227 85.9978 73.6088 86.176 73.9949C89.3242 80.0537 86.6809 87.8054 80.236 90.3002C80.2063 90.3002 80.1766 90.3299 80.1172 90.3299C76.672 91.6664 56.8621 96.359 56.4166 96.8045C56.0899 97.1312 54.5158 111.268 54.0703 118.99C52.0804 119.852 48.3679 119.971 46.3483 119.674C45.3682 108.952 45.9028 91.5476 46.7344 89.528C48.1897 86.2016 84.2158 69.332 84.2158 69.332Z" fill="#F2D251"/>
<g opacity="0.3">
<path opacity="0.3" d="M58.2285 96.0918C66.2178 95.0523 73.0191 92.5278 80.5332 89.6469C82.2855 88.9638 84.1269 88.1619 85.107 86.5581C85.4634 85.9938 87.4533 83.3208 87.0672 82.7862C86.7702 82.3407 88.077 77.6778 87.5424 77.5887C82.4043 76.4898 73.227 81.8358 68.3562 83.796C66.2475 84.6573 64.4061 86.0235 62.2677 86.8254C58.3176 88.3104 53.1498 88.0431 50.952 91.6368C50.2689 92.7654 50.0313 94.1316 49.7937 95.4384C49.1997 98.9133 53.5656 119.05 54.1299 119.02C54.1299 119.02 54.6348 105.21 55.2882 103.22C56.1495 100.666 55.5852 98.3193 56.6247 96.5373" fill="url(#paint7_linear_3199_4026)"/>
</g>
<path d="M76.5526 43.1668C76.4338 43.1668 76.2556 43.1371 76.1071 43.0777C75.2755 42.9292 73.4638 42.7213 72.0382 43.3153C70.3156 44.0281 67.6426 50.8294 67.7911 57.8089C67.8505 58.8781 67.9099 59.8285 67.9693 60.4819C68.4148 65.7388 69.8998 75.6289 69.9889 75.6883C72.0382 77.0248 84.5716 72.748 85.4329 71.6194C86.2942 70.4908 86.6506 55.9378 87.0664 55.2547L87.8683 43.345C86.4427 42.9292 78.7504 43.1668 76.5526 43.1668Z" fill="#A7CDD6"/>
<path d="M156.918 16.9443L151.542 13.6179C151.424 13.5585 151.305 13.5288 151.156 13.5585L144.147 14.9841C143.969 15.0138 143.82 15.1623 143.761 15.3405C143.702 15.5187 143.761 15.7266 143.91 15.8454L148.097 19.6173L156.918 16.9443Z" fill="#AFD696"/>
<path d="M110.26 23.1815C110.26 23.1815 175.57 11.4797 178.124 12.2816C180.678 13.0835 185.223 15.7862 186.559 15.8159C187.896 15.8159 192.588 16.6475 191.37 20.0036C190.153 23.3597 135.98 33.6359 129.684 31.4678C123.387 29.2997 107.409 25.2011 107.409 25.2011C107.409 25.2011 105.953 22.8845 110.26 23.1815Z" fill="#9ABC84"/>
<path d="M129.15 20.0312L119.765 14.804C119.171 14.4773 118.696 14.0021 118.369 13.4081L114.568 6.5474C114.271 6.0128 113.647 5.7158 113.023 5.8346C111.063 6.2504 107.024 7.1414 107.024 7.6166C106.994 8.2106 108.954 23.3873 108.954 23.3873L129.15 20.0312Z" fill="#AFD696"/>
<path d="M110.856 25.3485L110.084 28.5561C109.965 29.0907 110.084 29.655 110.411 30.0708C110.767 30.5163 111.272 30.7539 111.836 30.7539H115.163C115.697 30.7539 116.173 30.546 116.529 30.1599L122.469 23.418L110.856 25.3485Z" fill="#AFD696"/>
<path d="M145.068 36.0397C145.068 36.0397 147.087 38.5048 150.354 38.5345C153.621 38.5345 157.661 37.6435 158.433 36.5149C159.205 35.3566 160.839 26.803 154.186 28.0207C147.503 29.2087 139.722 33.0697 145.068 36.0397Z" fill="#9ABC84"/>
<path d="M141.356 27.1871L156.89 24.4844L143.822 41.1758C143.643 41.4134 143.376 41.5619 143.079 41.5916L133.783 42.3341C133.367 42.3638 132.981 42.1559 132.773 41.8292C132.565 41.4728 132.565 41.057 132.773 40.7006L141.356 27.1871Z" fill="#AFD696"/>
<path d="M157.541 36.7223C157.571 36.7223 157.63 36.7223 157.66 36.7223C157.868 36.6926 158.076 36.4847 158.284 36.0986C158.937 34.8215 159.353 32.0891 158.254 30.0101C157.927 29.3864 157.303 29.0003 156.62 28.9409C156.056 28.9112 155.314 29.0597 155.076 30.0992C154.72 31.7327 156.264 35.4749 157.125 36.4253C157.274 36.6035 157.422 36.6926 157.541 36.7223ZM156.828 29.2676C157.333 29.3864 157.749 29.6834 158.016 30.1586C159.085 32.1188 158.67 34.7918 158.046 35.9798C157.868 36.3362 157.719 36.455 157.63 36.455C157.63 36.455 157.541 36.455 157.333 36.2471C156.412 35.2373 155.017 31.6139 155.343 30.1883C155.492 29.5052 155.908 29.2082 156.591 29.2379C156.65 29.2379 156.739 29.2379 156.828 29.2676Z" fill="#FFF8EE"/>
<path d="M107.383 11.2109H108.987L110.472 21.4871L108.779 21.9029L107.383 11.2109Z" fill="#9ABC84"/>
<path d="M133.816 23.6848C133.816 23.1502 134.262 22.7344 134.767 22.7344H134.826C135.361 22.7344 135.777 23.1799 135.777 23.6848V24.3085C135.777 24.8431 135.331 25.2589 134.826 25.2589H134.767C134.232 25.2589 133.816 24.8134 133.816 24.3085V23.6848Z" fill="#FFF8EE"/>
<path d="M137.5 23.4191C137.5 22.8845 137.945 22.4688 138.45 22.4688H138.51C139.044 22.4688 139.46 22.9142 139.46 23.4191V24.0428C139.46 24.5774 139.015 24.9932 138.51 24.9932H138.45C137.916 24.9932 137.5 24.5477 137.5 24.0428V23.4191Z" fill="#FFF8EE"/>
<path d="M141.18 22.5559C141.18 22.0213 141.625 21.6055 142.13 21.6055H142.189C142.724 21.6055 143.14 22.051 143.14 22.5559V23.1796C143.14 23.7142 142.694 24.13 142.189 24.13H142.13C141.595 24.13 141.18 23.6845 141.18 23.1796V22.5559Z" fill="#FFF8EE"/>
<path d="M144.598 22.0207C144.598 21.4861 145.043 21.0703 145.548 21.0703H145.607C146.142 21.0703 146.558 21.5158 146.558 22.0207V22.6444C146.558 23.179 146.112 23.5948 145.607 23.5948H145.548C145.013 23.5948 144.598 23.1493 144.598 22.6444V22.0207Z" fill="#FFF8EE"/>
<path d="M148.547 21.4582C148.547 20.9236 148.992 20.5078 149.497 20.5078H149.557C150.091 20.5078 150.507 20.9533 150.507 21.4582V22.0819C150.507 22.6165 150.062 23.0323 149.557 23.0323H149.497C148.963 23.0323 148.547 22.5868 148.547 22.0819V21.4582Z" fill="#FFF8EE"/>
<path d="M152.23 20.9231C152.23 20.3885 152.676 19.9727 153.181 19.9727H153.24C153.775 19.9727 154.191 20.4182 154.191 20.9231V21.5468C154.191 22.0814 153.745 22.4972 153.24 22.4972H153.181C152.646 22.4972 152.23 22.0517 152.23 21.5468V20.9231Z" fill="#FFF8EE"/>
<path d="M155.914 20.091C155.914 19.5564 156.36 19.1406 156.864 19.1406H156.924C157.458 19.1406 157.874 19.5861 157.874 20.091V20.7147C157.874 21.2493 157.429 21.6651 156.924 21.6651H156.864C156.33 21.6651 155.914 21.2196 155.914 20.7147V20.091Z" fill="#FFF8EE"/>
<path d="M159.297 19.7942C159.297 19.2596 159.742 18.8438 160.247 18.8438H160.307C160.841 18.8438 161.257 19.2893 161.257 19.7942V20.4179C161.257 20.9525 160.812 21.3683 160.307 21.3683H160.247C159.713 21.3683 159.297 20.9228 159.297 20.4179V19.7942Z" fill="#FFF8EE"/>
<path d="M162.98 19.259C162.98 18.7244 163.426 18.3086 163.931 18.3086H163.99C164.525 18.3086 164.941 18.7541 164.941 19.259V19.8827C164.941 20.4173 164.495 20.8331 163.99 20.8331H163.931C163.396 20.8331 162.98 20.3876 162.98 19.8827V19.259Z" fill="#FFF8EE"/>
<path d="M166.664 18.427C166.664 17.8924 167.11 17.4766 167.614 17.4766H167.674C168.208 17.4766 168.624 17.9221 168.624 18.427V19.0507C168.624 19.5853 168.179 20.0011 167.674 20.0011H167.614C167.08 20.0011 166.664 19.5556 166.664 19.0507V18.427Z" fill="#FFF8EE"/>
<path d="M170.078 18.1613C170.078 17.6267 170.524 17.2109 171.029 17.2109H171.088C171.623 17.2109 172.038 17.6564 172.038 18.1613V18.785C172.038 19.3196 171.593 19.7354 171.088 19.7354H171.029C170.494 19.7354 170.078 19.2899 170.078 18.785V18.1613Z" fill="#FFF8EE"/>
<path d="M182.674 14.3281L176.2 16.1101C175.725 16.2289 175.398 16.7041 175.428 17.209C175.487 17.803 175.576 18.4861 175.695 18.4267C175.933 18.3376 186.06 15.7834 186.06 15.7834L182.674 14.3281Z" fill="#FFF8EE"/>
<defs>
<linearGradient id="paint0_linear_3199_4026" x1="55.6113" y1="70.5272" x2="73.5544" y2="70.5272" gradientUnits="userSpaceOnUse">
<stop stop-color="#FFC444"/>
<stop offset="0.9964" stop-color="#F36F56"/>
</linearGradient>
<linearGradient id="paint1_linear_3199_4026" x1="25.6019" y1="118.417" x2="37.6219" y2="118.417" gradientUnits="userSpaceOnUse">
<stop stop-color="#FFC444"/>
<stop offset="0.9964" stop-color="#F36F56"/>
</linearGradient>
<linearGradient id="paint2_linear_3199_4026" x1="43.733" y1="124.692" x2="52.9662" y2="124.692" gradientUnits="userSpaceOnUse">
<stop stop-color="#FFC444"/>
<stop offset="0.9964" stop-color="#F36F56"/>
</linearGradient>
<linearGradient id="paint3_linear_3199_4026" x1="75.1741" y1="44.042" x2="81.5729" y2="44.042" gradientUnits="userSpaceOnUse">
<stop stop-color="#FFC444"/>
<stop offset="0.5713" stop-color="#FDB348"/>
<stop offset="0.9964" stop-color="#F36F56"/>
</linearGradient>
<linearGradient id="paint4_linear_3199_4026" x1="74.7647" y1="31.6442" x2="76.7308" y2="31.6442" gradientUnits="userSpaceOnUse">
<stop stop-color="#FFC444"/>
<stop offset="0.9964" stop-color="#F36F56"/>
</linearGradient>
<linearGradient id="paint5_linear_3199_4026" x1="75.1226" y1="33.3148" x2="85.8947" y2="33.3148" gradientUnits="userSpaceOnUse">
<stop stop-color="#FFC444"/>
<stop offset="0.5713" stop-color="#FDB348"/>
<stop offset="0.9964" stop-color="#F36F56"/>
</linearGradient>
<linearGradient id="paint6_linear_3199_4026" x1="85.4368" y1="71.614" x2="108.075" y2="71.614" gradientUnits="userSpaceOnUse">
<stop stop-color="#FFC444"/>
<stop offset="0.9964" stop-color="#F36F56"/>
</linearGradient>
<linearGradient id="paint7_linear_3199_4026" x1="49.7552" y1="98.2045" x2="87.669" y2="98.2045" gradientUnits="userSpaceOnUse">
<stop stop-color="#FFC444"/>
<stop offset="0.9964" stop-color="#F36F56"/>
</linearGradient>
</defs>
</svg>
