<svg width="229" height="222" viewBox="0 0 229 222" fill="none" xmlns="http://www.w3.org/2000/svg">
<path d="M107.894 214.529C167.059 214.529 215.021 166.566 215.021 107.401C215.021 48.2362 167.059 0.273438 107.894 0.273438C48.7284 0.273438 0.765625 48.2362 0.765625 107.401C0.765625 166.566 48.7284 214.529 107.894 214.529Z" fill="#F4B3B3"/>
<path d="M197.169 209.867C198.773 211.144 198.862 212.065 198.803 212.51C198.714 213.223 198.179 213.52 196.872 214.857C195.12 216.698 195.387 216.936 194.496 217.619C192.536 219.074 189.744 218.985 189.566 218.48C189.447 218.124 190.725 217.856 192.15 216.193C193.487 214.649 193.932 213.134 194.051 212.689C194.259 211.887 194.318 211.174 194.348 210.699L197.169 209.867Z" fill="#1D1D1B"/>
<path d="M191.824 205.947L194.972 211.412C195.715 211.738 196.457 211.59 197.111 210.61L195.893 203.957L191.824 205.947Z" fill="url(#paint0_linear_3199_3959)"/>
<path d="M188.022 135.736C184.963 140.904 180.003 150.883 178.993 164.367C178.013 177.673 181.369 187.8 182.765 191.602C185.408 198.7 189.982 206.125 192.655 209.689C194.437 208.947 195.506 207.759 197.288 207.016C197.021 206.036 196.189 202.828 195.655 200.898C195.239 199.413 194.496 196.651 194.348 196.057C193.071 191.127 194.081 187.444 193.724 181.326C193.308 174.227 191.675 175.029 191.912 170.782C192.269 164.397 195.892 162.912 200.021 153.705C202.872 147.379 205.842 140.755 203.109 137.132C199.694 132.529 189.21 135.409 188.022 135.736Z" fill="#A7CDD6"/>
<path d="M210.18 214.884C211.13 215.478 211.724 216.934 211.279 217.854C210.863 218.745 209.764 218.478 207.091 219.28C204.24 220.141 203.675 221.032 201.596 221.032C200.765 221.032 199.22 220.884 199.102 220.32C199.013 219.934 199.666 219.518 201.804 218.092C204.863 216.043 204.804 215.983 205.487 215.686C207.21 214.855 208.903 214.083 210.18 214.884Z" fill="#1D1D1B"/>
<path d="M205.633 210.551L206.791 215.867C206.94 216.105 208.603 216.669 209.791 215.867L209.345 210.551H205.633Z" fill="url(#paint1_linear_3199_3959)"/>
<path opacity="0.3" d="M203.141 137.1C199.696 132.526 189.212 135.407 188.024 135.734C186.776 137.842 185.202 140.812 183.688 144.466C187.4 143.723 189.034 144.406 189.776 145.267C192.687 148.683 183.569 156.256 185.44 167.721C186.182 172.205 188.083 174.225 187.756 179.69C187.489 183.759 186.242 185.838 185.351 188.808C184.816 190.59 184.43 192.787 184.4 195.46C187.044 201.252 190.489 206.746 192.657 209.627C194.439 208.885 195.508 207.697 197.29 206.954C197.023 205.974 196.191 202.767 195.657 200.836C195.241 199.351 194.498 196.589 194.35 195.995C193.073 191.065 194.083 187.382 193.726 181.264C193.31 174.166 191.677 174.967 191.914 170.72C192.271 164.335 195.894 162.85 200.023 153.643C202.903 147.346 205.873 140.723 203.141 137.1Z" fill="url(#paint2_linear_3199_3959)"/>
<path d="M196.22 138.558C195.923 150.438 196.369 164.219 198.329 179.396C199.933 191.751 202.25 202.918 204.774 212.689C205.13 212.897 206.378 213.521 207.952 213.224C209.081 213.016 209.823 212.422 210.15 212.125C209.882 210.135 209.585 207.106 209.823 203.453C210.209 197.156 211.694 195.879 212.348 189.404C212.912 183.702 212.318 179.039 212.021 176.901C211.16 170.248 209.972 170.129 209.942 166.149C209.912 160.031 212.704 157.833 214.248 151.982C215.288 148.092 215.822 142.271 213.239 134.281C207.566 135.677 201.893 137.103 196.22 138.558Z" fill="#A7CDD6"/>
<path d="M191.674 91.125C189.625 91.125 182.259 92.1348 178.814 95.1642C164.884 107.43 169.191 120.439 173.676 124.745C176.735 127.656 183.952 126.795 186.447 123.32C188.288 120.766 186.952 117.617 186.328 113.162C185.645 108.381 188.258 100.183 191.674 91.125Z" fill="#F2D251"/>
<path opacity="0.3" d="M213.237 134.25C211.574 134.666 209.91 135.082 208.247 135.497C209.109 138.497 209.94 142.982 208.96 148.09C207.564 155.129 204 156.674 203.466 163.029C202.99 168.732 205.693 169.92 206.97 177.523C208.307 185.334 206.287 189.017 205.871 195.521C205.574 200.006 206.049 205.827 208.782 212.955C209.465 212.688 209.91 212.331 210.178 212.094C209.91 210.104 209.613 207.074 209.851 203.421C210.237 197.125 211.722 195.848 212.376 189.373C212.94 183.671 212.346 179.008 212.049 176.869C211.188 170.217 210 170.098 209.97 166.118C209.94 160 212.732 157.802 214.276 151.951C215.286 148.061 215.821 142.239 213.237 134.25Z" fill="url(#paint3_linear_3199_3959)"/>
<path d="M186.658 94.2141C186.658 94.2141 184.193 96.4713 182.767 99.768C180.599 104.728 182.946 109.005 183.629 117.113C184.401 126.023 183.302 140.843 180.807 146.159C180.777 146.249 180.659 146.516 180.688 146.843C181.371 151.981 216.685 150.822 216.15 143.962C215.556 136.18 211.071 130.121 211.279 112.094C211.368 104.52 213.091 98.283 214.606 94.0656C211.695 92.7885 207.389 91.2738 201.953 90.7689C197.855 90.3828 194.321 90.7095 191.677 91.155C190.875 91.4223 188.767 92.2836 186.658 94.2141Z" fill="#F2D251"/>
<path opacity="0.3" d="M206.197 113.905C202.336 115.272 197.228 119.073 196.901 123.944C196.367 131.428 207.504 135.527 206.019 140.784C205.603 142.21 204.326 143.516 195.98 146.516C192.595 147.734 189.476 148.714 186.625 149.545C196.842 151.06 217.78 148.862 216.147 143.992C211.187 129.26 210.474 122.34 211.514 113.193C209.672 113.044 207.89 113.311 206.197 113.905Z" fill="url(#paint4_linear_3199_3959)"/>
<path d="M194.082 129.2C200.349 135.556 209.288 137.575 216.179 134.397C225.742 129.972 229.96 117.855 227.732 110.014C224.02 96.9161 213.446 91.0949 208.338 94.5995C204.655 97.124 196.28 104.668 200.675 109.539C204.626 113.934 210.714 112.835 212.348 117.29C213.595 120.646 211.189 124.032 210.981 124.299C208.308 127.953 202.517 129.17 197.052 126.675C196.072 127.507 195.062 128.339 194.082 129.2Z" fill="#F2D251"/>
<path d="M181.668 118.242C182.172 116.608 183.836 115.777 185.142 115.569C186.42 115.391 188.528 115.688 189.36 117.351C190.132 118.925 189.538 121.093 187.726 122.281C187.459 121.657 187.014 120.826 186.212 120.588C184.727 120.113 183.479 122.043 182.38 121.539C181.519 121.123 181.281 119.43 181.668 118.242Z" fill="url(#paint5_linear_3199_3959)"/>
<path d="M187.694 128.164L192.505 128.996C193.426 129.144 194.228 128.312 194.05 127.392L192.297 119.224C192.178 118.63 191.674 118.215 191.05 118.155L185.288 117.858C184.338 117.799 183.625 118.749 183.952 119.64L186.654 127.273C186.803 127.748 187.189 128.105 187.694 128.164Z" fill="#1D1D1B"/>
<path d="M196.101 127.481C195.715 124.63 194.497 123.887 194.081 123.679C193.368 123.323 192.982 123.59 190.458 123.56C188.2 123.531 187.666 123.293 187.369 123.679C186.834 124.422 187.933 126.352 189.21 127.481C190.992 129.055 193.19 129.203 194.081 129.203L196.101 127.481Z" fill="url(#paint6_linear_3199_3959)"/>
<path d="M196.368 82.8398C196.695 87.1166 197.972 89.4927 199.101 90.0272C200.17 90.5322 200.823 90.0272 203.081 90.9479C203.645 91.1855 203.764 91.6311 203.734 91.9578C203.526 93.8586 193.903 92.8191 192.24 92.4033C192.151 92.3736 190.963 92.1359 190.933 92.0171C190.815 91.5122 193.636 91.3638 194.26 89.8787C194.497 89.2847 194.646 88.4828 193.606 86.9681C194.289 85.6613 195.685 84.1169 196.368 82.8398Z" fill="url(#paint7_linear_3199_3959)"/>
<path d="M191.141 83.6718C190.368 82.6917 190.279 80.9691 191.111 79.8405C191.824 78.8902 193.012 78.7119 193.695 78.6228C195.714 78.3259 198.298 79.1278 199.219 80.9692C199.783 82.0681 198.684 84.3846 198.506 84.8004C198.328 85.2756 197.942 85.4538 197.615 85.8102C197.17 86.3151 196.427 87.117 195.269 88.4535C195.18 88.0674 195.002 87.5922 194.764 87.0873C194.675 86.8794 194.318 86.1369 193.754 85.4835C192.715 84.2064 191.853 84.5925 191.141 83.6718Z" fill="#1D1D1B"/>
<path d="M196.991 87.2961C196.991 87.2961 195.714 89.5236 193.041 89.4048C190.665 89.3157 190.19 83.9994 191.675 82.8114C192.18 82.4253 193.19 82.2471 194.021 82.455C194.526 82.5738 194.675 82.7817 195.477 82.9599C196.219 83.1381 196.427 83.049 196.665 83.2272C196.962 83.4648 197.17 84.0291 196.724 85.6032C197.17 85.128 197.704 84.9498 198.09 85.128C198.15 85.1577 198.328 85.2765 198.417 85.425C198.773 86.019 198.239 86.8209 196.991 87.2961Z" fill="url(#paint8_linear_3199_3959)"/>
<path d="M196.754 82.9281C196.635 83.0172 196.991 83.433 197.051 84.027C197.14 85.215 195.982 86.6406 194.764 86.7891C194.051 86.8782 193.843 86.4624 192.655 86.3436C191.913 86.2842 191.319 86.403 190.933 86.4921C190.576 87.7989 190.962 89.076 191.853 89.6403C192.804 90.264 193.962 89.8482 194.467 89.67C194.794 89.5512 195.863 89.1948 196.368 88.185C196.932 87.1455 196.338 86.5515 196.991 85.8684C197.318 85.512 197.764 85.3635 198.179 84.6804C198.298 84.5022 198.358 84.324 198.417 84.2349C197.764 83.5815 196.932 82.7796 196.754 82.9281Z" fill="#1D1D1B"/>
<path d="M191.794 86.9676C191.794 86.9676 192.299 87.2349 193.19 87.1458C193.219 87.1458 193.279 87.1458 193.279 87.1755C193.308 87.2646 192.744 87.6507 192.209 87.5022C191.823 87.4131 191.526 87.0567 191.586 86.9676C191.615 86.9379 191.705 86.9379 191.794 86.9676Z" fill="url(#paint9_linear_3199_3959)"/>
<path d="M133.375 18.8374C140.621 80.0788 147.868 140.667 155.115 200.631C155.442 203.334 153.571 205.71 150.987 205.918C121.881 208.68 92.745 211.501 63.639 214.382C58.4415 214.62 55.5903 211.739 55.2636 208.828C47.8089 144.112 40.3542 78.6829 32.8995 12.6004C32.5728 9.63037 35.0676 7.07617 40.2651 7.34347C69.5196 9.42248 98.8038 11.5015 128.058 13.5211C130.642 13.6993 133.048 16.105 133.375 18.8374Z" fill="#26264F"/>
<path d="M137.414 18.7169C144.72 80.2256 151.996 141.081 159.303 201.283C159.629 203.986 157.758 206.362 155.145 206.599C124.91 209.153 94.6753 211.767 64.4407 214.44C61.6786 214.678 59.1541 212.509 58.7977 209.569C51.2836 144.556 43.7992 78.8297 36.2851 12.4205C35.9584 9.45048 37.9483 7.16358 40.7401 7.34178C71.1826 9.36138 101.625 11.381 132.068 13.3709C134.681 13.5788 137.087 15.9548 137.414 18.7169Z" fill="url(#paint10_linear_3199_3959)"/>
<path d="M135.661 28.788C142.403 85.7823 149.174 142.212 155.916 198.078C156.213 200.603 154.461 202.83 152.025 203.038C123.602 205.355 95.1498 207.731 66.7269 210.136C64.143 210.344 61.7967 208.325 61.47 205.592C54.5202 145.539 47.6001 84.8913 40.6503 23.6499C40.3236 20.8878 42.1947 18.7494 44.7786 18.8979C73.3797 20.5611 102.011 22.2243 130.612 23.8578C133.106 23.9766 135.364 26.2041 135.661 28.788Z" fill="#FFF8EE"/>
<path opacity="0.75" d="M130.644 23.8575C102.369 22.2537 74.0947 20.6202 45.8203 18.957C46.6816 23.9763 48.226 29.4411 50.7802 35.0247C60.1654 55.3692 73.9462 56.4978 79.3219 74.2287C84.8758 92.4942 72.3424 98.2263 78.4606 114.71C85.1134 132.619 101.389 130.005 110.002 149.637C117.427 166.566 107.864 174.288 115.556 184.564C123.961 195.82 139.524 192.019 155.651 195.82C148.998 140.668 142.316 84.9801 135.663 28.758C135.366 26.2038 133.109 23.9763 130.644 23.8575Z" fill="#FFF8EE"/>
<path d="M89.3289 16.3415C89.4477 17.3216 88.7646 18.0938 87.8439 18.0344C86.8935 17.975 86.0619 17.1137 85.9431 16.1336C85.8243 15.1535 86.5074 14.3813 87.4281 14.4407C88.3785 14.5001 89.2101 15.3317 89.3289 16.3415Z" fill="#DB8080"/>
<path d="M99.5457 71.405C103.154 71.405 106.08 67.9477 106.08 63.6829C106.08 59.4182 103.154 55.9609 99.5457 55.9609C95.9371 55.9609 93.0117 59.4182 93.0117 63.6829C93.0117 67.9477 95.9371 71.405 99.5457 71.405Z" fill="#A7CDD6"/>
<path d="M125.593 71.405C129.201 71.405 132.127 67.9477 132.127 63.6829C132.127 59.4182 129.201 55.9609 125.593 55.9609C121.984 55.9609 119.059 59.4182 119.059 63.6829C119.059 67.9477 121.984 71.405 125.593 71.405Z" fill="#A7CDD6"/>
<path d="M112.494 71.405C116.152 71.405 119.117 67.9477 119.117 63.6829C119.117 59.4182 116.152 55.9609 112.494 55.9609C108.836 55.9609 105.871 59.4182 105.871 63.6829C105.871 67.9477 108.836 71.405 112.494 71.405Z" fill="#D8DEE8"/>
<path d="M151.671 71.405C155.279 71.405 158.205 67.9477 158.205 63.6829C158.205 59.4182 155.279 55.9609 151.671 55.9609C148.062 55.9609 145.137 59.4182 145.137 63.6829C145.137 67.9477 148.062 71.405 151.671 71.405Z" fill="#A7CDD6"/>
<path d="M138.572 71.405C142.23 71.405 145.195 67.9477 145.195 63.6829C145.195 59.4182 142.23 55.9609 138.572 55.9609C134.914 55.9609 131.949 59.4182 131.949 63.6829C131.949 67.9477 134.914 71.405 138.572 71.405Z" fill="#D8DEE8"/>
<path d="M164.619 71.405C168.277 71.405 171.242 67.9477 171.242 63.6829C171.242 59.4182 168.277 55.9609 164.619 55.9609C160.961 55.9609 157.996 59.4182 157.996 63.6829C157.996 67.9477 160.961 71.405 164.619 71.405Z" fill="#D8DEE8"/>
<path d="M86.4473 71.405C90.1052 71.405 93.0704 67.9477 93.0704 63.6829C93.0704 59.4182 90.1052 55.9609 86.4473 55.9609C82.7895 55.9609 79.8242 59.4182 79.8242 63.6829C79.8242 67.9477 82.7895 71.405 86.4473 71.405Z" fill="#D8DEE8"/>
<path d="M39.3438 18.125L79.9734 64.7243H184.785L133.998 24.0353L39.3438 18.125Z" fill="#A7CDD6"/>
<path d="M39.3438 18.125L79.9734 64.7243H93.1008L50.2733 18.8081L39.3438 18.125Z" fill="#FFF8EE"/>
<path d="M62.0039 19.5508L106.049 64.7245H118.998L73.8245 20.2933L62.0039 19.5508Z" fill="#FFF8EE"/>
<path d="M85.7344 21.0352L132.007 64.7239H145.045L97.7035 21.7777L85.7344 21.0352Z" fill="#FFF8EE"/>
<path d="M121.97 23.2917L109.793 22.5195L158.115 64.7232H171.213L121.97 23.2917Z" fill="#FFF8EE"/>
<path d="M171.242 64.7227C171.688 68.4946 174.42 71.4052 177.717 71.4052C181.013 71.4052 183.776 68.4946 184.191 64.7227H171.242Z" fill="#A7CDD6"/>
<g opacity="0.35">
<path opacity="0.35" d="M131.119 163.473C131.238 164.869 130.228 166.057 128.833 166.116L78.3426 168.195C76.8576 168.255 75.4914 167.126 75.3132 165.671L73.8579 154.801C73.65 153.316 74.7192 152.068 76.2339 152.039L127.496 150.524C128.892 150.494 130.11 151.623 130.258 153.049L131.119 163.473Z" fill="#343249"/>
<path opacity="0.35" d="M132.068 174.791C132.187 176.157 131.177 177.315 129.811 177.404L79.8556 179.869C78.4003 179.929 77.0341 178.859 76.8559 177.434L76.7074 176.365C76.5292 174.939 77.5687 173.721 79.024 173.662L129.276 171.405C130.643 171.345 131.86 172.415 131.979 173.781L132.068 174.791Z" fill="#343249"/>
</g>
<path d="M131.983 162.614C132.102 164.01 131.092 165.198 129.696 165.257L79.2059 167.336C77.7209 167.396 76.3547 166.267 76.1765 164.812L74.7212 153.941C74.5133 152.456 75.5825 151.209 77.0972 151.179L128.359 149.665C129.755 149.635 130.973 150.764 131.121 152.189L131.983 162.614Z" fill="#343249"/>
<path d="M132.931 173.931C133.05 175.297 132.04 176.456 130.674 176.545L80.7189 179.01C79.2636 179.069 77.8974 178 77.7192 176.574L77.5707 175.505C77.3925 174.08 78.432 172.862 79.8873 172.803L130.14 170.545C131.506 170.486 132.724 171.555 132.842 172.921L132.931 173.931Z" fill="#343249"/>
<path d="M120.751 112.482L106.94 114.294L105.723 93.9492L119.682 94.0977L120.751 112.482Z" fill="#AFD696"/>
<path d="M106.94 114.294L96.4262 113.522L95.3867 95.85L105.722 93.9492L106.94 114.294Z" fill="#AFD696"/>
<path d="M110.684 94.0078L111.159 102.264L115.822 101.967L115.346 94.0672L110.684 94.0078Z" fill="#343249"/>
<g opacity="0.71">
<path opacity="0.71" d="M100.526 104.821C100.853 102.267 102.576 100.9 102.724 97.5442C102.754 96.5047 102.635 95.4949 102.427 94.5742L95.418 95.881L96.4575 113.523L105.16 114.176C101.031 110.107 100.229 107.048 100.526 104.821Z" fill="#D8DEE8"/>
</g>
<path d="M106.107 133.986L83.0602 136.985L81.0703 103.098L104.325 103.335L106.107 133.986Z" fill="#97A6B7"/>
<path d="M83.062 136.985L65.539 135.679L63.8164 106.276L81.0721 103.098L83.062 136.985Z" fill="#97A6B7"/>
<path d="M89.2969 103.188L90.0988 116.939L97.8802 116.463L97.0783 103.277L89.2969 103.188Z" fill="#343249"/>
<g opacity="0.71">
<path opacity="0.71" d="M72.3715 121.214C72.9061 116.967 75.7871 114.68 76.0247 109.097C76.0841 107.344 75.9058 105.681 75.5197 104.137L63.8477 106.305L65.5703 135.708L80.0639 136.777C73.2329 130.035 71.926 124.927 72.3715 121.214Z" fill="#D8DEE8"/>
</g>
<path d="M132.395 134.728L113.951 137.104L112.348 109.988L130.94 110.196L132.395 134.728Z" fill="#DB8080"/>
<path d="M113.951 137.104L99.9326 136.065L98.5664 112.542L112.347 109.988L113.951 137.104Z" fill="#DB8080"/>
<g opacity="0.71">
<path opacity="0.71" d="M105.397 124.512C105.843 121.097 108.13 119.285 108.308 114.8C108.367 113.404 108.219 112.068 107.892 110.82L98.5664 112.543L99.9623 136.065L111.575 136.927C106.081 131.551 105.041 127.482 105.397 124.512Z" fill="#D8DEE8"/>
</g>
<path d="M118.938 110.078L119.591 121.067L125.798 120.711L125.174 110.138L118.938 110.078Z" fill="#343249"/>
<defs>
<linearGradient id="paint0_linear_3199_3959" x1="197.225" y1="203.773" x2="192.344" y2="211.793" gradientUnits="userSpaceOnUse">
<stop stop-color="#FFC444"/>
<stop offset="0.9964" stop-color="#F36F56"/>
</linearGradient>
<linearGradient id="paint1_linear_3199_3959" x1="205.795" y1="217.16" x2="210.549" y2="207.319" gradientUnits="userSpaceOnUse">
<stop stop-color="#FFC444"/>
<stop offset="0.9964" stop-color="#F36F56"/>
</linearGradient>
<linearGradient id="paint2_linear_3199_3959" x1="180.216" y1="212.633" x2="199.261" y2="144.291" gradientUnits="userSpaceOnUse">
<stop stop-color="#AA80F9"/>
<stop offset="0.9964" stop-color="#6165D7"/>
</linearGradient>
<linearGradient id="paint3_linear_3199_3959" x1="202.128" y1="185.001" x2="230.137" y2="140.847" gradientUnits="userSpaceOnUse">
<stop stop-color="#AA80F9"/>
<stop offset="0.9964" stop-color="#6165D7"/>
</linearGradient>
<linearGradient id="paint4_linear_3199_3959" x1="183.123" y1="74.7032" x2="203.173" y2="145.818" gradientUnits="userSpaceOnUse">
<stop stop-color="white"/>
<stop offset="0.5217" stop-color="#F2D251"/>
</linearGradient>
<linearGradient id="paint5_linear_3199_3959" x1="185.375" y1="124.832" x2="185.828" y2="112.771" gradientUnits="userSpaceOnUse">
<stop stop-color="#FFC444"/>
<stop offset="0.9964" stop-color="#F36F56"/>
</linearGradient>
<linearGradient id="paint6_linear_3199_3959" x1="191.451" y1="131.347" x2="191.836" y2="121.107" gradientUnits="userSpaceOnUse">
<stop stop-color="#FFC444"/>
<stop offset="0.9964" stop-color="#F36F56"/>
</linearGradient>
<linearGradient id="paint7_linear_3199_3959" x1="200.723" y1="98.8743" x2="191.557" y2="79.7899" gradientUnits="userSpaceOnUse">
<stop stop-color="#FFC444"/>
<stop offset="0.9964" stop-color="#F36F56"/>
</linearGradient>
<linearGradient id="paint8_linear_3199_3959" x1="194.736" y1="83.6338" x2="194.095" y2="105.883" gradientUnits="userSpaceOnUse">
<stop stop-color="#FFC444"/>
<stop offset="0.9964" stop-color="#F36F56"/>
</linearGradient>
<linearGradient id="paint9_linear_3199_3959" x1="192.335" y1="86.2163" x2="192.703" y2="88.9969" gradientUnits="userSpaceOnUse">
<stop stop-color="#FFC444"/>
<stop offset="1" stop-color="#F36F56"/>
</linearGradient>
<linearGradient id="paint10_linear_3199_3959" x1="50.6182" y1="110.974" x2="231.334" y2="82.9633" gradientUnits="userSpaceOnUse">
<stop stop-color="#444B8C"/>
<stop offset="0.9964" stop-color="#26264F"/>
</linearGradient>
</defs>
</svg>
