<svg width="216" height="215" viewBox="0 0 216 215" fill="none" xmlns="http://www.w3.org/2000/svg">
<path d="M107.999 214.354C167.164 214.354 215.127 166.391 215.127 107.226C215.127 48.0605 167.164 0.0976562 107.999 0.0976562C48.8339 0.0976562 0.871094 48.0605 0.871094 107.226C0.871094 166.391 48.8339 214.354 107.999 214.354Z" fill="#F4B3B3"/>
<path d="M30.8945 86.9414V162.201C30.8945 167.725 35.7653 172.24 41.7647 172.24H168.138C174.138 172.24 179.008 167.755 179.008 162.201V86.9414H30.8945Z" fill="#FFF8EE"/>
<path d="M154.06 45.4219H50.4069C48.5655 45.4219 47.0508 46.996 47.0508 48.8374V132.977H168.94V60.5095L154.06 45.4219Z" fill="#AFD696"/>
<path d="M168.878 60.5102L155.275 60.629C154.919 60.629 154.622 60.4805 154.384 60.2429C154.117 59.9756 154.117 59.6489 154.117 59.2925V45.5117L168.878 60.5102Z" fill="#91AF7D"/>
<path d="M151.355 50.8008H47.6725C45.8311 50.8008 44.3164 52.3749 44.3164 54.2163V138.356H166.235V65.9181L151.355 50.8008Z" fill="#A7CDD6"/>
<path d="M165.819 65.6196L152.217 65.7384C151.86 65.7384 151.563 65.5899 151.326 65.3523C151.059 65.085 151.059 64.7583 151.059 64.4019V50.6211L165.819 65.6196Z" fill="#86ACB2"/>
<path d="M131.841 90.0922C131.841 93.2404 131.337 96.151 130.327 98.7646C129.317 101.378 127.891 103.457 126.05 104.942C124.209 106.427 122.07 107.17 119.635 107.17C118.001 107.17 116.576 106.784 115.328 106.011C114.081 105.239 113.19 104.2 112.626 102.923H112.091C109.715 105.744 106.686 107.17 103.032 107.17C99.1417 107.17 96.0826 106.011 93.8551 103.665C91.6276 101.319 90.499 98.1112 90.499 94.072C90.499 89.4388 91.984 85.6966 94.9243 82.8751C97.8646 80.0536 101.726 78.628 106.448 78.628C108.349 78.628 110.428 78.8062 112.685 79.1626C114.972 79.519 116.843 79.9645 118.298 80.4694L117.526 96.5668C117.526 99.6259 118.358 101.141 120.021 101.141C121.417 101.141 122.545 100.101 123.377 98.0518C124.209 96.0025 124.624 93.2998 124.624 90.0031C124.624 86.4688 123.882 83.3503 122.427 80.6179C120.942 77.9152 118.892 75.8362 116.219 74.4106C113.546 72.985 110.517 72.2722 107.072 72.2722C102.646 72.2722 98.7853 73.1929 95.5183 75.0046C92.2513 76.8163 89.7268 79.4596 88.0042 82.9048C86.2519 86.35 85.3906 90.3001 85.3906 94.8145C85.3906 100.873 87.0241 105.536 90.2614 108.773C93.4987 112.011 98.1913 113.644 104.339 113.644C106.656 113.644 109.24 113.377 112.002 112.872C114.794 112.367 117.526 111.595 120.229 110.615V116.941C115.536 118.931 110.309 119.941 104.577 119.941C96.2311 119.941 89.7268 117.743 85.0639 113.347C80.401 108.952 78.0547 102.863 78.0547 95.0224C78.0547 89.5873 79.2427 84.6571 81.6187 80.2318C83.9947 75.8065 87.3805 72.3316 91.8058 69.8071C96.2014 67.2826 101.28 66.0352 107.012 66.0352C111.853 66.0352 116.16 67.0153 119.961 69.0052C123.763 70.9951 126.703 73.7869 128.753 77.44C130.802 81.1228 131.841 85.3402 131.841 90.0922ZM98.1022 94.2205C98.1022 98.8537 100.003 101.17 103.775 101.17C105.765 101.17 107.25 100.487 108.289 99.0913C109.329 97.6954 109.953 95.4382 110.16 92.29L110.576 85.0135C109.448 84.7759 108.2 84.6571 106.775 84.6571C104.042 84.6571 101.904 85.5184 100.359 87.241C98.8744 88.9042 98.1022 91.2505 98.1022 94.2205Z" fill="#343249"/>
<path d="M33.8066 168.972C33.7472 168.972 33.6878 168.942 33.6284 168.912C33.5096 168.823 33.5096 168.645 33.5987 168.556L79.8713 116.492C79.9604 116.373 80.1386 116.373 80.2277 116.462C80.3465 116.551 80.3465 116.729 80.2574 116.818L33.9848 168.882C33.9551 168.942 33.866 168.972 33.8066 168.972Z" fill="#343249" stroke="#343249" stroke-miterlimit="10"/>
<path d="M176.306 168.527L130.033 116.492C129.884 116.611 129.766 116.7 129.617 116.789V116.819L175.89 168.883C175.949 168.942 176.009 168.972 176.098 168.972C176.157 168.972 176.216 168.942 176.276 168.913C176.395 168.824 176.395 168.645 176.306 168.527Z" fill="#343249" stroke="#343249" stroke-miterlimit="10"/>
<path opacity="0.75" d="M135.824 172.418C136.032 172.448 136.745 172.448 138.081 172.448C140.962 172.448 139.24 172.448 135.824 172.418Z" fill="#FFF8EE"/>
<path opacity="0.75" d="M179.039 92.3756L178.98 86.9405C177.019 86.8811 172.921 86.9108 168.971 86.9405C168.971 87.0593 169 87.2078 169 87.3266V89.4947C169 90.059 168.911 90.5936 168.763 91.0985C169.119 92.138 169.149 93.0884 169.149 93.0884C169.149 93.0884 161.13 97.781 157.566 100.068C148.389 105.949 133.271 114.71 133.271 114.71L106.66 130.718C106.66 130.718 140.429 168.556 144.052 172.566C146.755 172.655 149.25 172.744 151.329 172.863C164.664 173.665 165.823 111.948 179.039 113.136V92.3756Z" fill="#FFF8EE"/>
<path d="M148.896 139.124C150.975 137.698 153.262 136.629 155.697 135.946C156.618 135.708 161.548 137.134 164.607 137.075C168.795 136.986 173.042 135.085 176.517 135.946C179.932 136.807 182.754 137.906 184.358 139.065C189.199 142.51 192.05 148.955 193.802 155.31C190.506 158.696 186.377 160.181 186.377 160.181L185.605 191.129L167.31 200.484L146.401 190L147.144 159.736C147.144 159.736 140.52 156.647 140.016 155.518C139.54 154.419 143.045 143.133 148.896 139.124Z" fill="#A7CDD6"/>
<path d="M140.341 155.398C140.341 155.398 131.46 180.049 151.716 190.177C155.933 189.613 154.3 182.633 154.3 182.633C154.3 182.633 145.479 180.673 148.122 160.121C145.716 158.101 140.341 155.398 140.341 155.398Z" fill="url(#paint0_linear_3199_3915)"/>
<path d="M193.352 155.398C193.352 155.398 199.47 181.119 181.977 190.177C177.76 189.613 179.393 182.633 179.393 182.633C179.393 182.633 186.492 179.129 185.571 160.121C187.977 158.101 193.352 155.398 193.352 155.398Z" fill="url(#paint1_linear_3199_3915)"/>
<path d="M184.798 191.9H147.644C146.812 191.9 146.129 191.217 146.129 190.385V166.269C146.129 165.437 146.812 164.754 147.644 164.754H184.798C185.63 164.754 186.313 165.437 186.313 166.269V190.385C186.283 191.246 185.63 191.9 184.798 191.9Z" fill="#DB8080"/>
<path d="M168.586 172.149C168.794 173.575 168.022 174.881 166.596 175.119C165.17 175.327 163.834 174.347 163.596 172.891C163.388 171.466 164.042 170.011 165.467 169.803C166.923 169.595 168.378 170.694 168.586 172.149Z" fill="#FFF8EE"/>
<path d="M203.896 199.952C199.292 198.883 188.69 199.477 188.69 199.477L188.244 200.635L187.531 206.457C187.531 206.457 197.629 208.268 202.619 208.268C203.124 208.268 203.599 208.179 204.015 208.06C204.163 207.912 204.312 207.793 204.46 207.615C206.599 205.328 205.975 201.912 203.896 199.952Z" fill="#1D1D1B"/>
<path d="M204.371 200.068C204.223 200.038 204.074 199.979 203.926 199.949C206.005 201.909 206.628 205.325 204.49 207.612C204.342 207.76 204.193 207.909 204.045 208.057C207.787 206.899 208.232 201.137 204.371 200.068Z" fill="#1D1D1B"/>
<path d="M185.629 199.148L187.441 199.238C188.421 199.267 189.312 199.742 189.965 200.544C190.619 201.346 190.945 202.386 190.886 203.455C190.827 204.316 190.5 205.118 189.906 205.682C189.342 206.247 188.569 206.544 187.797 206.484L185.035 206.276L185.629 199.148Z" fill="url(#paint2_linear_3199_3915)"/>
<path d="M125.191 199.386C129.824 198.465 140.397 199.356 140.397 199.356L140.813 200.544L141.377 206.365C141.377 206.365 131.22 207.88 126.23 207.732C125.725 207.702 125.25 207.613 124.834 207.494C124.686 207.345 124.537 207.197 124.418 207.048C122.369 204.672 123.052 201.287 125.191 199.386Z" fill="#1D1D1B"/>
<path d="M124.715 199.503C124.864 199.473 125.012 199.444 125.161 199.414C123.022 201.315 122.339 204.701 124.389 207.077C124.537 207.225 124.656 207.374 124.804 207.522C121.122 206.215 120.825 200.454 124.715 199.503Z" fill="#1D1D1B"/>
<path d="M143.455 199.148L141.644 199.178C140.664 199.178 139.743 199.624 139.09 200.396C138.436 201.168 138.05 202.208 138.08 203.277C138.109 204.138 138.436 204.94 139 205.534C139.565 206.128 140.307 206.425 141.079 206.395L143.842 206.276L143.455 199.148Z" fill="url(#paint3_linear_3199_3915)"/>
<path d="M205.177 181.712C203.098 176.931 197.99 176.129 193.654 178.386C193.565 178.475 166.122 192.553 141.887 198.731C142.57 200.958 142.926 203.304 143.015 205.651C143.015 206.156 143.015 206.69 142.986 207.195C161.548 206.245 181.714 200.037 199.059 194.602C204.435 192.85 207.494 187.029 205.177 181.712Z" fill="#F2D251"/>
<path d="M185.783 206.009C185.724 203.336 186.228 200.841 187.357 198.524C187.387 198.405 187.416 198.316 187.446 198.197C186.05 197.782 184.268 197.188 181.922 196.386C164.726 190.535 151.598 184.595 139.065 177.734C134.194 175.091 128.67 176.843 127.096 182.605C125.7 187.743 128.848 191.842 133.392 193.683C148.985 199.95 171.854 205.652 185.783 206.603C185.783 206.395 185.783 206.216 185.783 206.009Z" fill="#F2D251"/>
<path d="M155.691 135.944C155.691 135.944 157.533 143.963 166.532 143.785C175.68 143.607 176.481 135.914 176.481 135.914L170.512 134.637L170.007 127.984L161.008 128.638L160.83 134.964L155.691 135.944Z" fill="url(#paint4_linear_3199_3915)"/>
<path d="M161.905 108.355C161.905 108.355 152.341 126.888 163.687 131.403C171.706 134.581 176.725 119.077 175.21 114.889C172.894 108.415 171.379 109.187 171.379 109.187L161.905 108.355Z" fill="url(#paint5_linear_3199_3915)"/>
<path d="M175.212 114.888C175.182 114.798 175.152 114.739 175.152 114.68C175.182 115.036 175.212 115.393 175.212 115.749C175.212 115.482 175.241 115.214 175.241 114.977C175.241 114.947 175.212 114.917 175.212 114.888Z" fill="white"/>
<path d="M175.149 114.681C175.149 114.563 175.119 114.444 175.09 114.295C175.594 115.127 174.644 113.226 175.149 114.681Z" fill="white"/>
<path d="M160.325 116.462C160.325 116.462 158.662 113.968 157.919 116.522C157.177 119.076 157.652 122.61 159.166 120.977C160.681 119.343 160.325 116.462 160.325 116.462Z" fill="url(#paint6_linear_3199_3915)"/>
<path d="M166.565 109.246C168.823 111.503 171.139 113.819 172.535 116.7C173.961 119.581 174.347 123.145 172.773 125.937C172.238 126.887 170.129 129.382 169.951 130.065C169.862 130.451 170.308 134.283 170.515 134.639C170.753 135.085 172.268 134.906 172.713 135.114C174.733 136.094 176.307 136.362 178.564 136.51C179.01 136.54 183.97 139.272 184.356 139.035C184.92 138.708 182.395 135.293 182.277 134.639C181.089 128.759 180.554 123.799 179.663 118.364C178.802 112.928 178.03 107.493 172.684 106.157C170.486 105.593 168.169 105.771 165.912 105.622C164.546 105.533 163.18 105.385 161.843 105.652C158.962 106.246 156.824 108.889 156.022 111.74C155.19 114.592 155.428 117.591 155.665 120.532C156.052 125.313 156.646 130.897 157.032 135.679C157.952 135.649 159.972 134.966 160.863 134.966L161.011 129.768C160.002 128.432 158.546 126.383 158.309 124.601C158.16 123.531 158.428 122.314 158.131 121.274C157.952 120.71 157.655 119.73 157.596 119.136C157.477 118.245 157.537 117.829 157.923 117.027C158.279 116.255 158.903 115.988 159.259 115.215C159.853 113.909 160.15 112.097 160.714 110.79C160.863 110.404 166.565 109.246 166.565 109.246Z" fill="#1D1D1B"/>
<defs>
<linearGradient id="paint0_linear_3199_3915" x1="135.786" y1="148.769" x2="170.574" y2="232.802" gradientUnits="userSpaceOnUse">
<stop stop-color="#F9B776"/>
<stop offset="1" stop-color="#F47960"/>
</linearGradient>
<linearGradient id="paint1_linear_3199_3915" x1="197.454" y1="148.588" x2="162.666" y2="232.621" gradientUnits="userSpaceOnUse">
<stop stop-color="#F9B776"/>
<stop offset="1" stop-color="#F47960"/>
</linearGradient>
<linearGradient id="paint2_linear_3199_3915" x1="200.11" y1="169.422" x2="180.043" y2="223.775" gradientUnits="userSpaceOnUse">
<stop stop-color="#F9B776"/>
<stop offset="1" stop-color="#F47960"/>
</linearGradient>
<linearGradient id="paint3_linear_3199_3915" x1="159.906" y1="153.043" x2="139.829" y2="207.424" gradientUnits="userSpaceOnUse">
<stop stop-color="#F9B776"/>
<stop offset="1" stop-color="#F47960"/>
</linearGradient>
<linearGradient id="paint4_linear_3199_3915" x1="166.32" y1="155.706" x2="165.858" y2="115.433" gradientUnits="userSpaceOnUse">
<stop stop-color="#F9B776"/>
<stop offset="1" stop-color="#F47960"/>
</linearGradient>
<linearGradient id="paint5_linear_3199_3915" x1="164.395" y1="130.877" x2="170.953" y2="98.9539" gradientUnits="userSpaceOnUse">
<stop stop-color="#F9B776"/>
<stop offset="1" stop-color="#F47960"/>
</linearGradient>
<linearGradient id="paint6_linear_3199_3915" x1="157.796" y1="134.443" x2="161.456" y2="83.5046" gradientUnits="userSpaceOnUse">
<stop stop-color="#F9B776"/>
<stop offset="1" stop-color="#F47960"/>
</linearGradient>
</defs>
</svg>
