<svg width="1920" height="188" viewBox="0 0 1920 188" fill="none" xmlns="http://www.w3.org/2000/svg">
<g clip-path="url(#clip0_3307_2161)">
<path d="M-1 145.013V0H1920V159.922C1872.21 161.432 1896.44 162.565 1848.64 164.076C1836.26 164.467 1823.44 164.864 1810.42 164.759C1793.97 164.628 1779.63 163.725 1765.01 163.005C1734.85 161.528 1722.39 159.633 1688.35 159.722C1673.12 159.754 1656.27 159.968 1646.52 161.098C1626.95 163.415 1608.68 166.773 1592.43 171.038C1589.54 171.625 1584.94 173.284 1573.28 174.499C1564.17 175.451 1550.82 174.959 1540.01 174.571C1500.99 173.162 1474.44 169.484 1434.39 168.361C1384.47 166.959 1332.13 170.043 1299.06 173.812C1265.98 177.582 1243.53 182.16 1205.79 185.523C1195.18 186.49 1184.36 187.177 1173.42 187.578C1149.91 188.416 1123.12 187.907 1100.25 186.921C1027.82 183.805 988.605 176.591 942.441 170.502C896.277 164.414 821.668 158.608 744.838 160.608C686.148 162.125 647.898 167.754 589.548 169.383C520.772 171.297 450.285 167.084 397.768 162.503C367.622 159.876 333.414 156.838 292.403 157.2C248.54 157.587 220.525 161.659 201.305 165.367C182.085 169.074 160.024 173.281 117.812 174.459C75.3998 175.642 29.0156 172.995 7.89463 169.356C7.89463 169.356 -0.759875 168.164 -1 167.777V145.013Z" fill="#DB8080"/>
</g>
<defs>
<clipPath id="clip0_3307_2161">
<rect width="1920" height="188" fill="white"/>
</clipPath>
</defs>
</svg>
