<svg width="46" height="46" viewBox="0 0 46 46" fill="none" xmlns="http://www.w3.org/2000/svg">
<path d="M29.5275 16.7949H25.7357C25.4323 16.7949 25.2048 16.5674 25.2048 16.2641V12.4723C25.2048 12.1689 24.9773 11.9414 24.674 11.9414H22.361C22.0576 11.9414 21.8301 12.1689 21.8301 12.4723V16.2641C21.8301 16.5674 21.6026 16.7949 21.2992 16.7949H17.5074C17.2041 16.7949 16.9766 17.0225 16.9766 17.3258V19.6388C16.9766 19.9422 17.2041 20.1697 17.5074 20.1697H21.2992C21.6026 20.1697 21.8301 20.3972 21.8301 20.7005V24.4924C21.8301 24.7957 22.0576 25.0232 22.361 25.0232H24.674C24.9773 25.0232 25.2048 24.7957 25.2048 24.4924V20.7005C25.2048 20.3972 25.4323 20.1697 25.7357 20.1697H29.5275C29.8309 20.1697 30.0584 19.9422 30.0584 19.6388V17.3258C30.0584 17.0604 29.8309 16.7949 29.5275 16.7949Z" fill="white"/>
<path d="M23.3093 5.00157C15.9532 5.07741 10 11.1064 10 18.5005C10 20.5101 10.455 22.4061 11.2134 24.1124C13.2231 28.928 17.3182 33.8953 22.058 39.4314C22.8164 40.3414 24.1814 40.3414 24.9398 39.4314C29.6417 33.8574 33.7748 28.928 35.7844 24.1124C36.5807 22.3681 37.0357 20.4343 36.9978 18.4246C36.9599 10.9547 30.7792 4.88782 23.3093 5.00157ZM23.4989 28.3592C18.0387 28.3592 13.6402 23.9228 13.6402 18.5005C13.6402 13.0402 18.0766 8.64173 23.4989 8.64173C28.9591 8.64173 33.3577 13.0782 33.3577 18.5005C33.3577 23.9607 28.9591 28.3592 23.4989 28.3592Z" fill="white"/>
</svg>
