<svg width="48" height="49" viewBox="0 0 48 49" fill="none" xmlns="http://www.w3.org/2000/svg">
<path d="M38.141 13.9675H30.8905C31.3588 13.5485 31.7233 13.0263 31.955 12.4421C32.1867 11.858 32.2794 11.2279 32.2256 10.6018C32.1719 9.97566 31.9732 9.37062 31.6453 8.83451C31.3174 8.2984 30.8693 7.84592 30.3364 7.51285C29.8035 7.17978 29.2004 6.97526 28.5748 6.91544C27.9492 6.85563 27.3183 6.94218 26.7319 7.16823C26.1456 7.39429 25.6198 7.75366 25.1963 8.21792C24.7727 8.68219 24.463 9.23862 24.2916 9.84323L24.0005 10.8566L23.7095 9.84323C23.5394 9.2366 23.2304 8.67794 22.8068 8.21156C22.3833 7.74518 21.8569 7.38391 21.2694 7.15641C20.6819 6.92891 20.0494 6.84144 19.4223 6.90093C18.7951 6.96042 18.1904 7.16525 17.6561 7.49915C17.1219 7.83305 16.6728 8.28685 16.3445 8.82455C16.0162 9.36224 15.8177 9.96905 15.7647 10.5968C15.7118 11.2246 15.8058 11.8561 16.0394 12.4412C16.2731 13.0263 16.6398 13.5489 17.1106 13.9675H9.86002C9.54749 13.9675 9.24777 14.0917 9.02678 14.3127C8.80579 14.5337 8.68164 14.8334 8.68164 15.1459V22.2162C8.68164 22.5287 8.80579 22.8284 9.02678 23.0494C9.24777 23.2704 9.54749 23.3945 9.86002 23.3945H38.141C38.4536 23.3945 38.7533 23.2704 38.9743 23.0494C39.1953 22.8284 39.3194 22.5287 39.3194 22.2162V15.1459C39.3194 14.8334 39.1953 14.5337 38.9743 14.3127C38.7533 14.0917 38.4536 13.9675 38.141 13.9675ZM19.3424 12.59C19.0577 12.5086 18.7992 12.3544 18.5925 12.1424C18.3857 11.9304 18.2379 11.6682 18.1637 11.3815C18.0894 11.0949 18.0913 10.7939 18.1691 10.5082C18.2469 10.2225 18.398 9.9621 18.6073 9.75273C18.8167 9.54337 19.0771 9.3923 19.3628 9.31448C19.6485 9.23666 19.9495 9.23478 20.2362 9.30904C20.5228 9.3833 20.785 9.53111 20.997 9.73786C21.209 9.9446 21.3633 10.2031 21.4446 10.4878L22.2848 13.4337L19.3424 12.59ZM28.6586 12.59L25.7127 13.4302L26.5529 10.4843C26.6343 10.1996 26.7886 9.94107 27.0005 9.73432C27.2125 9.52758 27.4747 9.37976 27.7614 9.30551C28.048 9.23125 28.349 9.23312 28.6347 9.31094C28.9204 9.38876 29.1808 9.53983 29.3902 9.7492C29.5995 9.95856 29.7506 10.219 29.8284 10.5047C29.9063 10.7903 29.9081 11.0914 29.8339 11.378C29.7596 11.6646 29.6118 11.9269 29.4051 12.1389C29.1983 12.3508 28.9398 12.5051 28.6551 12.5865L28.6586 12.59Z" fill="#DB8080"/>
<path d="M9.85742 41.0695C9.85742 41.3821 9.98157 41.6818 10.2026 41.9028C10.4235 42.1238 10.7233 42.2479 11.0358 42.2479H22.8196V25.6328H9.85742V41.0695Z" fill="#DB8080"/>
<path d="M25.1758 42.2479H36.9595C37.2721 42.2479 37.5718 42.1238 37.7928 41.9028C38.0138 41.6818 38.1379 41.3821 38.1379 41.0695V25.6328H25.1758V42.2479Z" fill="#DB8080"/>
</svg>
