<svg width="271" height="272" viewBox="0 0 271 272" fill="none" xmlns="http://www.w3.org/2000/svg">
<circle cx="135.175" cy="135.901" r="135.175" fill="white"/>
<g clip-path="url(#clip0_3467_1500)">
<path d="M163.662 61.9023C164.517 61.9023 165.411 61.9023 166.266 61.9023C166.771 62.2112 167.315 62.4043 167.704 62.7904C170.891 65.9952 174.077 69.2386 177.031 72.2504C173.067 76.2274 168.986 80.2817 164.789 84.4904C164.012 83.6409 163.157 82.6756 162.224 81.7489C160.32 79.8956 157.6 79.8569 155.851 81.5945C154.141 83.332 154.141 85.9577 156.006 87.811C160.009 91.8653 164.051 95.881 168.131 99.858C169.997 101.673 172.678 101.634 174.388 99.9352C176.098 98.2363 176.059 95.5721 174.233 93.7187C173.3 92.7534 172.29 91.8653 171.435 91.0158C175.632 86.8457 179.674 82.7915 183.754 78.7758C186.824 81.7876 190.05 84.8379 193.081 88.0813C193.781 88.8536 194.053 90.2822 194.053 91.402C194.092 92.8692 193.664 94.3365 193.47 95.8423C191.682 108.314 189.856 120.786 188.107 133.296C187.874 134.956 187.252 136.269 186.086 137.466C168.637 154.764 151.265 172.063 133.816 189.361C132.727 190.442 131.523 191.446 130.201 192.257C123.672 196.234 115.783 195.114 110.032 189.399C96.1187 175.576 82.2446 161.715 68.254 147.93C64.7175 144.339 61.453 140.748 60.6758 135.613C60.6758 134.261 60.6758 132.91 60.6758 131.558C60.7535 131.404 60.8701 131.25 60.909 131.057C61.453 127.659 63.0075 124.763 65.417 122.369C83.1385 104.762 100.86 87.1546 118.581 69.5861C119.359 68.8139 120.525 68.1961 121.574 68.0417C132.572 66.42 143.609 64.8755 154.646 63.331C157.677 62.9063 160.67 62.3657 163.662 61.9023ZM115.706 164.533C117.843 164.533 119.281 163.413 120.058 161.019C124.605 147.467 129.152 133.952 133.699 120.4C135.914 113.836 138.129 107.272 140.306 100.707C141.277 97.8502 139.878 95.2632 137.119 94.6454C134.826 94.1434 132.805 95.5334 131.911 98.1977C126.587 114.106 121.224 130.014 115.9 145.922C114.462 150.17 113.024 154.378 111.625 158.626C110.692 161.715 112.674 164.533 115.706 164.533ZM101.287 142.563C108.555 142.602 114.462 136.733 114.423 129.551C114.423 122.446 108.516 116.577 101.365 116.538C94.2144 116.5 88.3072 122.33 88.2295 129.435C88.2295 136.694 94.0589 142.563 101.287 142.563ZM137.663 129.512C137.624 136.655 143.415 142.486 150.604 142.563C157.911 142.602 163.779 136.887 163.818 129.667C163.895 122.523 157.949 116.577 150.721 116.577C143.57 116.577 137.702 122.407 137.663 129.512Z" fill="#FAECEC"/>
<path d="M190.982 61.9019C191.254 62.095 191.526 62.2494 191.798 62.4039C194.324 63.7939 195.024 66.9215 193.042 69.0065C190.011 72.2113 186.746 75.2617 183.715 78.2734C181.694 76.2656 179.673 74.2578 177.652 72.2499C180.761 69.161 183.909 65.9562 187.096 62.8286C187.523 62.4039 188.145 62.1722 188.651 61.8633C189.467 61.9019 190.205 61.9019 190.982 61.9019Z" fill="#FAECEC"/>
<path d="M116.211 202.643C117.26 202.797 118.076 202.913 118.854 202.99C126.937 203.878 133.855 201.484 139.606 195.77C148.428 187.043 157.211 178.278 166.033 169.514C174.466 161.135 182.783 152.64 191.372 144.416C195.025 140.941 196.54 136.848 197.123 132.06C198.134 123.642 199.455 115.302 200.66 106.923C200.738 106.499 200.815 106.113 200.971 105.379C202.486 107.387 203.885 109.202 205.246 111.055C210.57 118.275 209.559 115.109 209.559 124.029C209.598 147.196 209.598 170.363 209.559 193.53C209.559 201.407 204.663 207.662 197.162 209.438C195.919 209.747 194.558 209.863 193.276 209.863C172.096 209.902 150.915 209.902 129.735 209.863C124.761 209.863 120.602 207.932 117.338 204.187C117.027 203.801 116.716 203.299 116.211 202.643Z" fill="#343249" fill-opacity="0.1"/>
<path d="M101.365 133.915C98.9554 133.915 97.0511 132.023 97.0123 129.668C96.9734 127.235 98.9943 125.228 101.404 125.266C103.736 125.305 105.718 127.313 105.718 129.629C105.718 131.946 103.736 133.877 101.365 133.915Z" fill="#343249" fill-opacity="0.1"/>
<path d="M150.604 133.913C148.194 133.874 146.329 131.905 146.368 129.511C146.407 127.156 148.466 125.187 150.798 125.264C153.169 125.341 155.112 127.349 155.034 129.704C154.995 132.06 153.013 133.952 150.604 133.913Z" fill="#343249" fill-opacity="0.1"/>
</g>
<defs>
<clipPath id="clip0_3467_1500">
<rect width="149" height="148" fill="white" transform="translate(60.6758 61.9023)"/>
</clipPath>
</defs>
</svg>
