<svg width="49" height="49" viewBox="0 0 49 49" fill="none" xmlns="http://www.w3.org/2000/svg">
<path d="M39.1147 10.2656H37.3705V12.359C37.3705 14.0901 35.9624 15.4991 34.2309 15.4991C32.4993 15.4991 31.0904 14.0905 31.0904 12.359V10.2656H27.6015V12.359C27.6015 14.0901 26.193 15.4991 24.4615 15.4991C22.7304 15.4991 21.3214 14.0905 21.3214 12.359V10.2656H17.8326V12.359C17.8326 14.0901 16.4236 15.4991 14.6925 15.4991C12.9614 15.4991 11.5529 14.0905 11.5529 12.359V10.2656H9.80827C7.49914 10.2656 5.62109 12.1432 5.62109 14.4524V38.8925C5.62109 41.2012 7.49914 43.0788 9.80827 43.0788H39.1147C41.4234 43.0788 43.3023 41.2012 43.3023 38.8925V14.4524C43.3023 12.1437 41.4234 10.2656 39.1147 10.2656ZM40.5106 38.8925C40.5106 39.6614 39.8848 40.288 39.1147 40.288H9.80827C9.03898 40.288 8.41283 39.6618 8.41283 38.8925V20.0342C8.41283 19.2636 9.03771 18.6387 9.80827 18.6387H39.1147C39.8857 18.6387 40.5106 19.2632 40.5106 20.0342V38.8925Z" fill="#1D1D1B"/>
<path d="M14.6949 14.4516C15.8514 14.4516 16.7883 13.5143 16.7883 12.3583V8.1715C16.7883 7.01546 15.851 6.07812 14.6949 6.07812C13.5389 6.07812 12.6016 7.01546 12.6016 8.1715V12.3583C12.6016 13.5143 13.5389 14.4516 14.6949 14.4516Z" fill="#1D1D1B"/>
<path d="M24.4606 14.4516C25.6166 14.4516 26.5531 13.5143 26.5531 12.3583V8.1715C26.5531 7.01546 25.6166 6.07812 24.4606 6.07812C23.3041 6.07812 22.3672 7.01546 22.3672 8.1715V12.3583C22.3676 13.5143 23.3041 14.4516 24.4606 14.4516Z" fill="#1D1D1B"/>
<path d="M34.2297 14.4516C35.3857 14.4516 36.3235 13.5143 36.3235 12.3583V8.1715C36.3235 7.01546 35.3857 6.07812 34.2297 6.07812C33.0736 6.07812 32.1367 7.01546 32.1367 8.1715V12.3583C32.1367 13.5143 33.0736 14.4516 34.2297 14.4516Z" fill="#1D1D1B"/>
<path d="M16.0141 34.0781H17.7171V26.2911H19.1341C19.3161 26.2911 19.4201 26.3951 19.4201 26.5771V27.1361H20.9151V25.6801C20.9151 25.0691 20.7071 24.8481 20.0831 24.8481H13.6481C13.0241 24.8481 12.8161 25.0691 12.8161 25.6801V27.1361H14.3111V26.5771C14.3111 26.3951 14.4151 26.2911 14.5971 26.2911H16.0141V34.0781ZM21.7773 30.7891C21.7773 32.8301 23.2203 34.2341 25.4173 34.2341C27.5883 34.2341 29.0313 32.8301 29.0313 30.7891V26.5771C29.0313 26.3951 29.1353 26.2911 29.3173 26.2911H29.8763V24.8481H28.2123C27.5883 24.8481 27.3283 25.1211 27.3283 25.7321V30.7241C27.3283 31.9461 26.5613 32.6481 25.4043 32.6481C24.2473 32.6481 23.4803 31.9461 23.4803 30.7371V25.7321C23.4803 25.1211 23.2203 24.8481 22.5963 24.8481H20.9323V26.2911H21.4913C21.6733 26.2911 21.7773 26.3951 21.7773 26.5771V30.7891ZM30.9843 33.1941C30.9843 33.8181 31.2443 34.0781 31.8683 34.0781H36.0543C36.6653 34.0781 36.9383 33.8181 36.9383 33.1941V31.7901H35.3913V32.3491C35.3913 32.5311 35.2873 32.6351 35.1053 32.6351H32.9733C32.7913 32.6351 32.6873 32.5311 32.6873 32.3491V30.1521H35.6773V28.7091H32.6873V26.2911H34.7673C34.9493 26.2911 35.0533 26.3951 35.0533 26.5771V27.1361H36.6003V25.7321C36.6003 25.1211 36.3273 24.8481 35.7163 24.8481H30.1393V26.2911H30.9843V33.1941Z" fill="#1D1D1B"/>
</svg>
