<svg width="49" height="49" viewBox="0 0 49 49" fill="none" xmlns="http://www.w3.org/2000/svg">
<path d="M40.5053 10.2656H36.7611V12.359C36.7611 14.0901 35.353 15.4991 33.6215 15.4991C31.8899 15.4991 30.481 14.0905 30.481 12.359V10.2656H26.9922V12.359C26.9922 14.0901 25.5836 15.4991 23.8521 15.4991C22.121 15.4991 20.712 14.0905 20.712 12.359V10.2656H17.2232V12.359C17.2232 14.0901 15.8143 15.4991 14.0832 15.4991C12.352 15.4991 10.9435 14.0905 10.9435 12.359V10.2656H8.19889C5.88976 10.2656 4.01172 12.1432 4.01172 14.4524V38.8925C4.01172 41.2012 5.88976 43.0788 8.19889 43.0788H40.5053C42.814 43.0788 44.6929 41.2012 44.6929 38.8925V14.4524C44.6929 12.1437 42.814 10.2656 40.5053 10.2656ZM41.9012 38.8925C41.9012 39.6614 41.2755 40.288 40.5053 40.288H8.19889C7.42961 40.288 6.80345 39.6618 6.80345 38.8925V20.0342C6.80345 19.2636 7.42834 18.6387 8.19889 18.6387H40.5053C41.2763 18.6387 41.9012 19.2632 41.9012 20.0342V38.8925Z" fill="#1D1D1B"/>
<path d="M14.0856 14.4516C15.242 14.4516 16.1789 13.5143 16.1789 12.3583V8.1715C16.1789 7.01546 15.2416 6.07812 14.0856 6.07812C12.9295 6.07812 11.9922 7.01546 11.9922 8.1715V12.3583C11.9922 13.5143 12.9295 14.4516 14.0856 14.4516Z" fill="#1D1D1B"/>
<path d="M23.8512 14.4516C25.0072 14.4516 25.9437 13.5143 25.9437 12.3583V8.1715C25.9437 7.01546 25.0072 6.07812 23.8512 6.07812C22.6947 6.07812 21.7578 7.01546 21.7578 8.1715V12.3583C21.7582 13.5143 22.6947 14.4516 23.8512 14.4516Z" fill="#1D1D1B"/>
<path d="M33.6203 14.4516C34.7763 14.4516 35.7141 13.5143 35.7141 12.3583V8.1715C35.7141 7.01546 34.7763 6.07812 33.6203 6.07812C32.4643 6.07812 31.5273 7.01546 31.5273 8.1715V12.3583C31.5273 13.5143 32.4643 14.4516 33.6203 14.4516Z" fill="#1D1D1B"/>
<path d="M9.24572 34.0781H10.7147C11.3257 34.0781 11.5467 33.8181 11.5987 33.1941L11.8977 29.0861C11.9497 28.4751 11.9107 27.6431 11.9107 27.6431H11.9367C11.9367 27.6431 12.2097 28.5661 12.4437 29.0861L13.9777 32.4921H15.3557L16.8897 29.0861C17.1237 28.5661 17.3967 27.6561 17.3967 27.6561H17.4227C17.4227 27.6561 17.3837 28.4751 17.4357 29.0861L17.7477 33.1941C17.7997 33.8181 18.0077 34.0781 18.6187 34.0781H20.0877V32.6351H19.6847C19.5027 32.6351 19.4117 32.5311 19.3987 32.3491L18.8007 24.8481H17.0327L15.1347 29.2421C14.9137 29.7751 14.6797 30.4771 14.6797 30.4771H14.6537C14.6537 30.4771 14.4197 29.7751 14.1987 29.2421L12.3007 24.8481H10.5327L9.93472 32.3491C9.92172 32.5311 9.83072 32.6351 9.64872 32.6351H9.24572V34.0781ZM20.1932 29.3981C20.1932 32.1151 22.2472 34.2341 24.9642 34.2341C27.6812 34.2341 29.7352 32.1151 29.7352 29.3981C29.7352 26.7591 27.6812 24.6921 24.9642 24.6921C22.2472 24.6921 20.1932 26.7591 20.1932 29.3981ZM21.9612 29.3981C21.9612 27.6301 23.3002 26.2781 24.9642 26.2781C26.6282 26.2781 27.9672 27.6301 27.9672 29.3981C27.9672 31.2441 26.6282 32.6481 24.9642 32.6481C23.3002 32.6481 21.9612 31.2441 21.9612 29.3981ZM30.0465 34.0781H31.7105C32.3345 34.0781 32.5945 33.8181 32.5945 33.1941V28.9821C32.5945 28.4491 32.5035 27.6821 32.5035 27.6821H32.5295C32.5295 27.6821 32.9325 28.4621 33.2965 28.9821L36.8065 34.0781H38.3275V26.5771C38.3275 26.3951 38.4315 26.2911 38.6135 26.2911H39.1725V24.8481H37.5085C36.8845 24.8481 36.6245 25.1211 36.6245 25.7321V29.9571C36.6245 30.4901 36.7155 31.2571 36.7155 31.2571H36.6895C36.6895 31.2571 36.2865 30.4901 35.9225 29.9571L32.4255 24.8481H30.8915V32.3491C30.8915 32.5311 30.7875 32.6351 30.6055 32.6351H30.0465V34.0781Z" fill="#1D1D1B"/>
</svg>
