<svg width="49" height="49" viewBox="0 0 49 49" fill="none" xmlns="http://www.w3.org/2000/svg">
<path d="M39.5327 10.2656H37.7885V12.359C37.7885 14.0901 36.3804 15.4991 34.6488 15.4991C32.9173 15.4991 31.5083 14.0905 31.5083 12.359V10.2656H28.0195V12.359C28.0195 14.0901 26.611 15.4991 24.8795 15.4991C23.1483 15.4991 21.7394 14.0905 21.7394 12.359V10.2656H18.2506V12.359C18.2506 14.0901 16.8416 15.4991 15.1105 15.4991C13.3794 15.4991 11.9709 14.0905 11.9709 12.359V10.2656H10.2262C7.91711 10.2656 6.03906 12.1432 6.03906 14.4524V38.8925C6.03906 41.2012 7.91711 43.0788 10.2262 43.0788H39.5327C41.8414 43.0788 43.7203 41.2012 43.7203 38.8925V14.4524C43.7203 12.1437 41.8414 10.2656 39.5327 10.2656ZM40.9285 38.8925C40.9285 39.6614 40.3028 40.288 39.5327 40.288H10.2262C9.45695 40.288 8.83079 39.6618 8.83079 38.8925V20.0342C8.83079 19.2636 9.45568 18.6387 10.2262 18.6387H39.5327C40.3036 18.6387 40.9285 19.2632 40.9285 20.0342V38.8925Z" fill="#1D1D1B"/>
<path d="M15.1129 14.4516C16.2694 14.4516 17.2063 13.5143 17.2063 12.3583V8.1715C17.2063 7.01546 16.269 6.07812 15.1129 6.07812C13.9569 6.07812 13.0195 7.01546 13.0195 8.1715V12.3583C13.0195 13.5143 13.9569 14.4516 15.1129 14.4516Z" fill="#1D1D1B"/>
<path d="M24.8785 14.4516C26.0346 14.4516 26.9711 13.5143 26.9711 12.3583V8.1715C26.9711 7.01546 26.0346 6.07812 24.8785 6.07812C23.7221 6.07812 22.7852 7.01546 22.7852 8.1715V12.3583C22.7856 13.5143 23.7221 14.4516 24.8785 14.4516Z" fill="#1D1D1B"/>
<path d="M34.6476 14.4516C35.8037 14.4516 36.7414 13.5143 36.7414 12.3583V8.1715C36.7414 7.01546 35.8037 6.07812 34.6476 6.07812C33.4916 6.07812 32.5547 7.01546 32.5547 8.1715V12.3583C32.5547 13.5143 33.4916 14.4516 34.6476 14.4516Z" fill="#1D1D1B"/>
<path d="M13.8211 34.0781H15.7971L17.2661 28.8521C17.4351 28.2541 17.5131 27.7081 17.5131 27.7081H17.5391C17.5391 27.7081 17.6171 28.2671 17.7731 28.8521L19.1771 34.0781H21.1401L23.0641 26.5771C23.1161 26.3561 23.2461 26.2911 23.4801 26.2911H23.7271V24.8481H22.6091C21.9591 24.8481 21.6081 25.0041 21.4781 25.6021L20.2041 31.1011C20.0871 31.6211 20.0481 32.0761 20.0481 32.0761H20.0221C20.0221 32.0761 19.9831 31.6341 19.8401 31.1011L18.2541 24.8741H16.8111L15.1341 31.1011C14.9911 31.6341 14.9391 32.0761 14.9391 32.0761H14.9131C14.9131 32.0761 14.8741 31.6211 14.7571 31.1011L13.4961 25.6021C13.3531 25.0041 13.0021 24.8481 12.3521 24.8481H11.2471V26.2911H11.4941C11.7151 26.2911 11.8581 26.3561 11.9101 26.5771L13.8211 34.0781ZM24.7045 33.1941C24.7045 33.8181 24.9645 34.0781 25.5885 34.0781H29.7745C30.3855 34.0781 30.6585 33.8181 30.6585 33.1941V31.7901H29.1115V32.3491C29.1115 32.5311 29.0075 32.6351 28.8255 32.6351H26.6935C26.5115 32.6351 26.4075 32.5311 26.4075 32.3491V30.1521H29.3975V28.7091H26.4075V26.2911H28.4875C28.6695 26.2911 28.7735 26.3951 28.7735 26.5771V27.1361H30.3205V25.7321C30.3205 25.1211 30.0475 24.8481 29.4365 24.8481H23.8595V26.2911H24.7045V33.1941ZM31.7001 33.1941C31.7001 33.8181 31.9601 34.0781 32.5841 34.0781H34.6121C37.4591 34.0781 39.3181 32.3621 39.3181 29.4501C39.3181 26.5381 37.4591 24.8481 34.6121 24.8481H30.8551V26.2911H31.7001V33.1941ZM33.4031 32.3491V26.2911H34.5211C36.3411 26.2911 37.5501 27.3961 37.5501 29.4501C37.5501 31.5301 36.3671 32.6351 34.5211 32.6351H33.6891C33.5071 32.6351 33.4031 32.5311 33.4031 32.3491Z" fill="#1D1D1B"/>
</svg>
