<svg width="49" height="49" viewBox="0 0 49 49" fill="none" xmlns="http://www.w3.org/2000/svg">
<path d="M39.1147 10.2656H37.3705V12.359C37.3705 14.0901 35.9624 15.4991 34.2309 15.4991C32.4993 15.4991 31.0904 14.0905 31.0904 12.359V10.2656H27.6015V12.359C27.6015 14.0901 26.193 15.4991 24.4615 15.4991C22.7304 15.4991 21.3214 14.0905 21.3214 12.359V10.2656H17.8326V12.359C17.8326 14.0901 16.4236 15.4991 14.6925 15.4991C12.9614 15.4991 11.5529 14.0905 11.5529 12.359V10.2656H9.80827C7.49914 10.2656 5.62109 12.1432 5.62109 14.4524V38.8925C5.62109 41.2012 7.49914 43.0788 9.80827 43.0788H39.1147C41.4234 43.0788 43.3023 41.2012 43.3023 38.8925V14.4524C43.3023 12.1437 41.4234 10.2656 39.1147 10.2656ZM40.5106 38.8925C40.5106 39.6614 39.8848 40.288 39.1147 40.288H9.80827C9.03898 40.288 8.41283 39.6618 8.41283 38.8925V20.0342C8.41283 19.2636 9.03771 18.6387 9.80827 18.6387H39.1147C39.8857 18.6387 40.5106 19.2632 40.5106 20.0342V38.8925Z" fill="#1D1D1B"/>
<path d="M14.6949 14.4516C15.8514 14.4516 16.7883 13.5143 16.7883 12.3583V8.1715C16.7883 7.01546 15.851 6.07812 14.6949 6.07812C13.5389 6.07812 12.6016 7.01546 12.6016 8.1715V12.3583C12.6016 13.5143 13.5389 14.4516 14.6949 14.4516Z" fill="#1D1D1B"/>
<path d="M24.4606 14.4516C25.6166 14.4516 26.5531 13.5143 26.5531 12.3583V8.1715C26.5531 7.01546 25.6166 6.07812 24.4606 6.07812C23.3041 6.07812 22.3672 7.01546 22.3672 8.1715V12.3583C22.3676 13.5143 23.3041 14.4516 24.4606 14.4516Z" fill="#1D1D1B"/>
<path d="M34.2297 14.4516C35.3857 14.4516 36.3235 13.5143 36.3235 12.3583V8.1715C36.3235 7.01546 35.3857 6.07812 34.2297 6.07812C33.0736 6.07812 32.1367 7.01546 32.1367 8.1715V12.3583C32.1367 13.5143 33.0736 14.4516 34.2297 14.4516Z" fill="#1D1D1B"/>
<path d="M12.0371 32.8041C12.0371 32.8041 13.1681 34.2341 15.2091 34.2341C17.1461 34.2341 18.2771 32.9861 18.2771 31.5171C18.2771 28.4881 13.9351 28.8001 13.9351 27.2271C13.9351 26.6421 14.5071 26.2391 15.2871 26.2391C15.8981 26.2391 16.5091 26.5251 16.5091 26.9541V27.3701H18.0431V26.5121C18.0431 25.1991 16.3791 24.6921 15.3001 24.6921C13.5191 24.6921 12.2191 25.7971 12.2191 27.2921C12.2191 30.1651 16.5611 30.0351 16.5611 31.6081C16.5611 32.3231 15.9371 32.7001 15.2351 32.7001C13.9481 32.7001 12.9991 31.6081 12.9991 31.6081L12.0371 32.8041ZM19.4189 30.7891C19.4189 32.8301 20.8619 34.2341 23.0589 34.2341C25.2299 34.2341 26.6729 32.8301 26.6729 30.7891V26.5771C26.6729 26.3951 26.7769 26.2911 26.9589 26.2911H27.5179V24.8481H25.8539C25.2299 24.8481 24.9699 25.1211 24.9699 25.7321V30.7241C24.9699 31.9461 24.2029 32.6481 23.0459 32.6481C21.8889 32.6481 21.1219 31.9461 21.1219 30.7371V25.7321C21.1219 25.1211 20.8619 24.8481 20.2379 24.8481H18.5739V26.2911H19.1329C19.3149 26.2911 19.4189 26.3951 19.4189 26.5771V30.7891ZM27.7174 34.0781H29.3814C30.0054 34.0781 30.2654 33.8181 30.2654 33.1941V28.9821C30.2654 28.4491 30.1744 27.6821 30.1744 27.6821H30.2004C30.2004 27.6821 30.6034 28.4621 30.9674 28.9821L34.4774 34.0781H35.9984V26.5771C35.9984 26.3951 36.1024 26.2911 36.2844 26.2911H36.8434V24.8481H35.1794C34.5554 24.8481 34.2954 25.1211 34.2954 25.7321V29.9571C34.2954 30.4901 34.3864 31.2571 34.3864 31.2571H34.3604C34.3604 31.2571 33.9574 30.4901 33.5934 29.9571L30.0964 24.8481H28.5624V32.3491C28.5624 32.5311 28.4584 32.6351 28.2764 32.6351H27.7174V34.0781Z" fill="#1D1D1B"/>
</svg>
