<svg width="271" height="272" viewBox="0 0 271 272" fill="none" xmlns="http://www.w3.org/2000/svg">
<circle cx="135.175" cy="135.901" r="135.175" fill="white"/>
<g opacity="0.15">
<path d="M223.36 151.267V125.54C223.36 118.572 217.43 113.034 209.969 113.034L192.179 111.605L176.302 89.4505C176.111 89.2719 175.919 88.9145 175.728 88.7359C173.241 85.6986 169.416 83.5547 164.825 83.5547H158.129H106.481C99.0203 83.5547 93.0903 89.0932 93.0903 96.061V151.446C89.8384 152.161 87.3516 155.019 87.3516 158.414V167.347C87.3516 171.456 90.7948 174.493 95.0032 174.493H105.907C108.394 182.533 116.237 188.25 125.61 188.25C134.983 188.25 142.826 182.355 145.313 174.493H158.129H173.624C176.111 182.533 183.954 188.25 193.327 188.25C202.7 188.25 210.543 182.355 213.03 174.493H222.403C226.803 174.493 230.055 171.278 230.055 167.347V158.414C230.055 154.662 226.994 151.625 223.36 151.267ZM125.419 178.603C119.68 178.603 115.089 174.136 115.089 168.955C115.089 163.774 119.871 159.307 125.419 159.307C131.157 159.307 135.748 163.774 135.748 168.955C135.748 174.315 131.157 178.603 125.419 178.603ZM193.327 178.603C187.588 178.603 182.997 174.136 182.997 168.955C182.997 163.774 187.78 159.307 193.327 159.307C199.066 159.307 203.657 163.774 203.657 168.955C203.465 174.315 198.874 178.603 193.327 178.603Z" fill="#DB8080"/>
<path d="M77.5987 112.831H45.4617C42.5924 112.831 40.2969 110.687 40.2969 108.007C40.2969 105.328 42.5924 103.184 45.4617 103.184H77.5987C80.4681 103.184 82.7636 105.328 82.7636 108.007C82.7636 110.687 80.4681 112.831 77.5987 112.831ZM82.7636 125.338C82.7636 128.018 80.4681 130.161 77.5987 130.161H54.6437C51.7744 130.161 49.4789 128.018 49.4789 125.338C49.4789 122.658 51.7744 120.514 54.6437 120.514H77.5987C80.4681 120.514 82.7636 122.658 82.7636 125.338ZM82.7636 142.846C82.7636 145.526 80.4681 147.67 77.5987 147.67H63.2518C60.3825 147.67 58.087 145.526 58.087 142.846C58.087 140.167 60.3825 138.023 63.2518 138.023H77.5987C80.4681 138.023 82.7636 140.167 82.7636 142.846Z" fill="#1D1D1B"/>
</g>
</svg>
