<svg width="125" height="62" viewBox="0 0 125 62" fill="none" xmlns="http://www.w3.org/2000/svg">
<path d="M0.932955 19.8791C0.932955 19.8791 4.34866 2.82046 22.5326 0.769043H101.353C101.353 0.769043 122.713 1.496 124.406 25.2566C124.406 25.2566 124.406 42.5741 118.999 51.3474C116.669 55.1117 114.946 50.4213 113.562 49.6943C113.562 49.6943 110.355 46.189 100.377 58.5473C100.377 58.5473 96.4931 63.3373 90.787 61.6145C90.787 61.6145 85.6883 61.6145 75.6005 50.3615C75.6005 50.3615 70.2131 45.6413 64.1485 45.8006C60.7493 45.779 57.4417 46.9014 54.7577 48.9873C54.7577 48.9873 46.4724 55.3009 34.7913 47.6927C34.7913 47.6927 27.3624 42.7135 22.0446 46.9259C19.0571 49.2562 19.6247 54.6934 11.0108 54.5839C11.0108 54.5839 2.72546 54.5839 1.71966 47.1649C-0.660378 29.698 0.335455 23.9122 0.932955 19.8791Z" fill="#F2D251"/>
</svg>
