<svg width="37" height="37" viewBox="0 0 37 37" fill="none" xmlns="http://www.w3.org/2000/svg">
<path d="M18.4601 14.4088C18.4602 14.2927 18.4141 14.1812 18.332 14.0991C18.2499 14.0169 18.1385 13.9708 18.0223 13.9707C16.9193 13.9723 15.8619 14.4114 15.0822 15.1917C14.3025 15.9719 13.8642 17.0296 13.8633 18.1326C13.8632 18.1902 13.8744 18.2472 13.8963 18.3005C13.9183 18.3537 13.9505 18.4021 13.9912 18.4428C14.0318 18.4836 14.0801 18.5159 14.1333 18.538C14.1865 18.56 14.2435 18.5714 14.3011 18.5714C14.3587 18.5714 14.4157 18.56 14.4688 18.538C14.522 18.5159 14.5703 18.4836 14.611 18.4428C14.6517 18.4021 14.6839 18.3537 14.7058 18.3005C14.7278 18.2472 14.739 18.1902 14.7389 18.1326C14.7395 17.2618 15.0856 16.4268 15.7012 15.8108C16.3167 15.1948 17.1515 14.8482 18.0223 14.8469C18.1385 14.8469 18.2499 14.8007 18.332 14.7185C18.4141 14.6364 18.4602 14.5249 18.4601 14.4088Z" fill="#1D1D1B"/>
<path d="M27.8749 29.5217L27.8748 28.4409C27.9054 27.4169 27.4078 26.0352 27.2391 25.5984C28.3805 20.7201 28.3872 15.6451 27.2588 10.7638C27.6987 10.0727 27.8391 8.69826 27.8738 8.25482C27.8746 8.24327 27.8751 8.23193 27.8751 8.22059V4.55154C27.8751 4.43539 27.829 4.32398 27.7469 4.24183C27.6648 4.15967 27.5534 4.11349 27.4373 4.11344C27.1099 4.10868 26.7899 4.21041 26.5253 4.40329C26.403 4.50317 26.2488 4.55578 26.091 4.55154C25.9331 4.55578 25.7789 4.50317 25.6566 4.40329C25.39 4.21471 25.0715 4.11344 24.745 4.11344C24.4184 4.11344 24.0999 4.21471 23.8334 4.40329C23.7112 4.50317 23.5572 4.55578 23.3994 4.55154C23.242 4.55572 23.0883 4.50318 22.9663 4.40351C22.6999 4.2148 22.3815 4.11344 22.055 4.11344C21.7286 4.11344 21.4102 4.2148 21.1438 4.40351C21.0217 4.50319 20.868 4.55572 20.7104 4.55154C20.5529 4.55572 20.3992 4.50318 20.2771 4.40351C20.0107 4.2148 19.6923 4.11344 19.3659 4.11344C19.0394 4.11344 18.721 4.2148 18.4546 4.40351C18.3326 4.50318 18.1788 4.55572 18.0214 4.55154C17.8638 4.55572 17.71 4.50319 17.588 4.40351C17.3217 4.2148 17.0033 4.11344 16.6769 4.11344C16.3506 4.11344 16.0322 4.2148 15.7659 4.40351C15.644 4.50317 15.4903 4.5557 15.3329 4.55154C15.1757 4.5557 15.0221 4.50316 14.9004 4.40351C14.6341 4.2148 14.3158 4.11344 13.9895 4.11344C13.6631 4.11344 13.3448 4.2148 13.0786 4.40351C12.9565 4.50319 12.8027 4.55572 12.6451 4.55154C12.4877 4.55572 12.334 4.50318 12.2121 4.40351C11.9457 4.2148 11.6274 4.11344 11.301 4.11344C10.9746 4.11344 10.6562 4.2148 10.3899 4.40351C10.2679 4.50317 10.1141 4.5557 9.95659 4.55154C9.79909 4.5557 9.64533 4.50317 9.52329 4.40351C9.25908 4.21052 8.93927 4.10871 8.61211 4.11344C8.49596 4.11349 8.38459 4.15967 8.30249 4.24183C8.22039 4.32398 8.17429 4.43539 8.17432 4.55154V8.2206C8.17432 8.23194 8.17476 8.24328 8.1756 8.25483C8.21034 8.69827 8.35068 10.0727 8.79061 10.7638C7.66215 15.6451 7.66888 20.7202 8.81028 25.5984C8.64161 26.035 8.14396 27.4149 8.17432 28.4278V31.7136C8.17429 31.8297 8.22039 31.9411 8.30249 32.0233C8.38459 32.1054 8.49597 32.1516 8.61211 32.1517C8.93944 32.1565 9.25946 32.0547 9.52394 31.8618C9.64836 31.7657 9.80114 31.7136 9.95836 31.7136C10.1156 31.7136 10.2684 31.7657 10.3928 31.8618C10.6594 32.0504 10.9779 32.1517 11.3044 32.1517C11.6309 32.1517 11.9494 32.0504 12.216 31.8618C12.3401 31.7657 12.4926 31.7136 12.6495 31.7136C12.8064 31.7135 12.9589 31.7656 13.083 31.8616C13.3494 32.0503 13.6678 32.1517 13.9942 32.1517C14.3207 32.1517 14.639 32.0503 14.9054 31.8616C15.0295 31.7656 15.182 31.7136 15.3389 31.7136C15.4958 31.7136 15.6482 31.7656 15.7723 31.8616C16.0387 32.0503 16.357 32.1517 16.6835 32.1517C17.0099 32.1517 17.3282 32.0503 17.5946 31.8616C17.7186 31.7656 17.871 31.7136 18.0279 31.7136C18.1847 31.7136 18.3371 31.7656 18.4612 31.8616C18.7276 32.0503 19.0459 32.1517 19.3724 32.1517C19.6988 32.1517 20.0172 32.0503 20.2836 31.8616C20.4074 31.7656 20.5597 31.7136 20.7163 31.7136C20.873 31.7136 21.0252 31.7656 21.1491 31.8616C21.4154 32.0503 21.7337 32.1517 22.0601 32.1517C22.3864 32.1517 22.7048 32.0503 22.971 31.8616C23.0951 31.7656 23.2474 31.7136 23.4042 31.7136C23.561 31.7136 23.7134 31.7656 23.8374 31.8616C24.1038 32.0503 24.4221 32.1517 24.7485 32.1517C25.0749 32.1517 25.3933 32.0503 25.6596 31.8616C25.7836 31.7656 25.936 31.7136 26.0928 31.7136C26.2496 31.7136 26.402 31.7656 26.526 31.8616C26.7902 32.0546 27.1101 32.1564 27.4373 32.1517C27.5534 32.1516 27.6648 32.1054 27.7469 32.0233C27.829 31.9411 27.8751 31.8297 27.8751 31.7136L27.8749 29.5245L27.8751 29.5231L27.8749 29.5217ZM26.9995 31.1245C26.7333 30.9372 26.4156 30.8368 26.0901 30.8374C25.7646 30.8379 25.4472 30.9392 25.1816 31.1274C25.0576 31.2234 24.9053 31.2755 24.7485 31.2755C24.5917 31.2755 24.4394 31.2234 24.3154 31.1274C24.049 30.9387 23.7307 30.8374 23.4042 30.8374C23.0778 30.8374 22.7594 30.9387 22.493 31.1274C22.3691 31.2234 22.2168 31.2755 22.0601 31.2755C21.9033 31.2755 21.751 31.2234 21.6271 31.1274C21.3609 30.9387 21.0426 30.8374 20.7163 30.8374C20.39 30.8374 20.0718 30.9387 19.8056 31.1274C19.6816 31.2234 19.5292 31.2755 19.3724 31.2755C19.2156 31.2755 19.0632 31.2234 18.9392 31.1274C18.6728 30.9387 18.3544 30.8374 18.028 30.8374C17.7016 30.8374 17.3832 30.9387 17.1168 31.1274C16.9927 31.2234 16.8403 31.2755 16.6835 31.2755C16.5266 31.2755 16.3742 31.2234 16.2501 31.1274C15.9837 30.9387 15.6653 30.8374 15.3389 30.8374C15.0124 30.8374 14.694 30.9387 14.4276 31.1274C14.3036 31.2234 14.1512 31.2755 13.9943 31.2755C13.8375 31.2755 13.6851 31.2234 13.561 31.1274C13.2946 30.9387 12.9762 30.8374 12.6497 30.8374C12.3233 30.8374 12.0048 30.9387 11.7384 31.1274C11.6141 31.2234 11.4614 31.2755 11.3042 31.2755C11.1471 31.2754 10.9944 31.2233 10.8701 31.1272C10.604 30.939 10.2862 30.8377 9.96032 30.8374C9.6344 30.837 9.31635 30.9375 9.04985 31.1251L9.04979 29.9612H26.9995V31.1245ZM26.9995 29.085H9.04973L9.04969 28.4148C9.04772 28.3484 9.0489 28.2794 9.05232 28.2088H26.9953C26.9993 28.2841 27.0015 28.358 26.9995 28.4278L26.9995 29.085ZM10.0146 22.2945V13.9706C10.0145 13.9131 10.0257 13.856 10.0477 13.8028C10.0696 13.7496 10.1018 13.7012 10.1425 13.6604C10.1832 13.6197 10.2315 13.5873 10.2847 13.5653C10.3378 13.5432 10.3949 13.5318 10.4524 13.5318C10.51 13.5318 10.567 13.5432 10.6202 13.5653C10.6734 13.5873 10.7217 13.6197 10.7623 13.6604C10.803 13.7012 10.8352 13.7496 10.8572 13.8028C10.8791 13.856 10.8904 13.9131 10.8902 13.9706V22.2945C10.8904 22.352 10.8791 22.4091 10.8572 22.4623C10.8352 22.5155 10.803 22.5639 10.7623 22.6047C10.7217 22.6454 10.6734 22.6778 10.6202 22.6998C10.567 22.7219 10.51 22.7332 10.4524 22.7332C10.3949 22.7332 10.3378 22.7219 10.2847 22.6998C10.2315 22.6778 10.1832 22.6454 10.1425 22.6047C10.1018 22.5639 10.0696 22.5155 10.0477 22.4623C10.0257 22.4091 10.0145 22.352 10.0146 22.2945ZM12.3294 18.1325C12.3294 17.0061 12.6634 15.905 13.2893 14.9684C13.9151 14.0318 14.8045 13.3019 15.8452 12.8708C16.8859 12.4398 18.031 12.327 19.1358 12.5467C20.2406 12.7665 21.2554 13.3089 22.0518 14.1054C22.8483 14.9019 23.3908 15.9167 23.6105 17.0215C23.8303 18.1262 23.7175 19.2714 23.2864 20.312C22.8554 21.3527 22.1254 22.2422 21.1888 22.868C20.2522 23.4938 19.1511 23.8278 18.0247 23.8278C16.5142 23.8278 15.0656 23.2278 13.9975 22.1597C12.9295 21.0916 12.3294 19.643 12.3294 18.1325ZM25.1185 22.2945V13.9706C25.1184 13.9131 25.1296 13.856 25.1516 13.8028C25.1735 13.7496 25.2058 13.7012 25.2464 13.6604C25.2871 13.6197 25.3354 13.5873 25.3886 13.5653C25.4418 13.5432 25.4988 13.5318 25.5563 13.5318C25.6139 13.5318 25.6709 13.5432 25.7241 13.5653C25.7773 13.5873 25.8256 13.6197 25.8663 13.6604C25.9069 13.7012 25.9391 13.7496 25.9611 13.8028C25.983 13.856 25.9943 13.9131 25.9941 13.9706V22.2945C25.9943 22.352 25.983 22.4091 25.9611 22.4623C25.9391 22.5155 25.9069 22.5639 25.8663 22.6047C25.8256 22.6454 25.7773 22.6778 25.7241 22.6998C25.6709 22.7219 25.6139 22.7332 25.5563 22.7332C25.4988 22.7332 25.4418 22.7219 25.3886 22.6998C25.3354 22.6778 25.2871 22.6454 25.2464 22.6047C25.2058 22.5639 25.1735 22.5155 25.1516 22.4623C25.1296 22.4091 25.1184 22.352 25.1185 22.2945ZM26.9995 8.05631H9.0499V7.18012H26.9995V8.05631ZM26.9995 6.30393H9.0499V5.14049C9.31308 5.33184 9.63124 5.43264 9.95659 5.42773C10.2837 5.43244 10.6036 5.33063 10.8678 5.13766C10.9918 5.0417 11.1442 4.98964 11.301 4.98964C11.4578 4.98964 11.6102 5.0417 11.7342 5.13766C11.9983 5.33064 12.3181 5.43245 12.6451 5.42773C12.9723 5.43246 13.2921 5.33065 13.5563 5.13766C13.6802 5.0417 13.8325 4.98963 13.9892 4.98963C14.146 4.98963 14.2983 5.0417 14.4222 5.13766C14.6862 5.33063 15.0059 5.43244 15.3329 5.42773C15.66 5.43245 15.9798 5.33064 16.2439 5.13766C16.3679 5.0417 16.5203 4.98963 16.677 4.98963C16.8338 4.98963 16.9862 5.0417 17.1102 5.13766C17.3744 5.33065 17.6942 5.43246 18.0214 5.42773C18.3485 5.43244 18.6683 5.33063 18.9326 5.13766C19.0566 5.0417 19.209 4.98963 19.3659 4.98963C19.5227 4.98963 19.6751 5.0417 19.7992 5.13766C20.0634 5.33065 20.3833 5.43246 20.7104 5.42773C21.0376 5.43247 21.3574 5.33066 21.6215 5.13766C21.7456 5.0417 21.8981 4.98963 22.0549 4.98963C22.2118 4.98963 22.3642 5.0417 22.4883 5.13766C22.7525 5.33062 23.0723 5.43243 23.3994 5.42773C23.7267 5.4325 24.0466 5.33077 24.3109 5.13788C24.4352 5.04178 24.5879 4.98964 24.745 4.98964C24.9021 4.98964 25.0548 5.04178 25.179 5.13788C25.4436 5.33077 25.7636 5.43249 26.091 5.42773C26.4169 5.43262 26.7357 5.33168 26.9995 5.14007V6.30393Z" fill="#1D1D1B"/>
</svg>
