<svg width="49" height="49" viewBox="0 0 49 49" fill="none" xmlns="http://www.w3.org/2000/svg">
<path d="M39.1147 10.2656H37.3705V12.359C37.3705 14.0901 35.9624 15.4991 34.2309 15.4991C32.4993 15.4991 31.0904 14.0905 31.0904 12.359V10.2656H27.6015V12.359C27.6015 14.0901 26.193 15.4991 24.4615 15.4991C22.7304 15.4991 21.3214 14.0905 21.3214 12.359V10.2656H17.8326V12.359C17.8326 14.0901 16.4236 15.4991 14.6925 15.4991C12.9614 15.4991 11.5529 14.0905 11.5529 12.359V10.2656H9.80827C7.49914 10.2656 5.62109 12.1432 5.62109 14.4524V38.8925C5.62109 41.2012 7.49914 43.0788 9.80827 43.0788H39.1147C41.4234 43.0788 43.3023 41.2012 43.3023 38.8925V14.4524C43.3023 12.1437 41.4234 10.2656 39.1147 10.2656ZM40.5106 38.8925C40.5106 39.6614 39.8848 40.288 39.1147 40.288H9.80827C9.03898 40.288 8.41283 39.6618 8.41283 38.8925V20.0342C8.41283 19.2636 9.03771 18.6387 9.80827 18.6387H39.1147C39.8857 18.6387 40.5106 19.2632 40.5106 20.0342V38.8925Z" fill="#1D1D1B"/>
<path d="M14.6949 14.4516C15.8514 14.4516 16.7883 13.5143 16.7883 12.3583V8.1715C16.7883 7.01546 15.851 6.07812 14.6949 6.07812C13.5389 6.07812 12.6016 7.01546 12.6016 8.1715V12.3583C12.6016 13.5143 13.5389 14.4516 14.6949 14.4516Z" fill="#1D1D1B"/>
<path d="M24.4606 14.4516C25.6166 14.4516 26.5531 13.5143 26.5531 12.3583V8.1715C26.5531 7.01546 25.6166 6.07812 24.4606 6.07812C23.3041 6.07812 22.3672 7.01546 22.3672 8.1715V12.3583C22.3676 13.5143 23.3041 14.4516 24.4606 14.4516Z" fill="#1D1D1B"/>
<path d="M34.2297 14.4516C35.3857 14.4516 36.3235 13.5143 36.3235 12.3583V8.1715C36.3235 7.01546 35.3857 6.07812 34.2297 6.07812C33.0736 6.07812 32.1367 7.01546 32.1367 8.1715V12.3583C32.1367 13.5143 33.0736 14.4516 34.2297 14.4516Z" fill="#1D1D1B"/>
<path d="M15.0141 34.0781H16.7171V26.2911H18.1341C18.3161 26.2911 18.4201 26.3951 18.4201 26.5771V27.1361H19.9151V25.6801C19.9151 25.0691 19.7071 24.8481 19.0831 24.8481H12.6481C12.0241 24.8481 11.8161 25.0691 11.8161 25.6801V27.1361H13.3111V26.5771C13.3111 26.3951 13.4151 26.2911 13.5971 26.2911H15.0141V34.0781ZM20.8813 34.0781H22.5843V30.2041H26.6533V34.0781H28.3563V26.5771C28.3563 26.3951 28.4603 26.2911 28.6423 26.2911H29.2013V24.8481H27.5373C26.9263 24.8481 26.6533 25.1211 26.6533 25.7321V28.7611H22.5843V25.7321C22.5843 25.1211 22.3243 24.8481 21.7003 24.8481H20.0363V26.2911H20.5953C20.7773 26.2911 20.8813 26.3951 20.8813 26.5771V34.0781ZM30.4159 34.0781H32.1189V30.6331H32.9769C33.4579 30.6331 33.6529 30.6981 33.8479 31.0621L35.0309 33.3891C35.3299 33.9741 35.6289 34.0781 36.3179 34.0781H37.2149V32.6351H37.0459C36.7599 32.6351 36.5389 32.6091 36.3959 32.3361L35.4989 30.5551C35.3299 30.2171 35.0439 30.0871 35.0439 30.0871V30.0611C35.4339 29.9831 36.5779 29.2941 36.5779 27.6301C36.5779 25.8881 35.3949 24.8481 33.7049 24.8481H29.5709V26.2911H30.4159V34.0781ZM32.1189 29.1771V26.2911H33.4969C34.3289 26.2911 34.8359 26.8111 34.8359 27.7211C34.8359 28.6441 34.3289 29.1771 33.4709 29.1771H32.1189Z" fill="#1D1D1B"/>
</svg>
