<svg width="33" height="33" viewBox="0 0 33 33" fill="none" xmlns="http://www.w3.org/2000/svg">
<g clip-path="url(#clip0_6_161)">
<path d="M2.09412 23.1079C2.10933 23.0623 2.13976 23.0243 2.14737 22.9786C2.36036 22.0277 2.92329 21.3659 3.82092 21.0008C4.49034 20.7269 5.15976 20.4607 5.82918 20.1944C5.92047 20.1564 6.01936 20.1108 6.12586 20.0651C4.48273 19.1371 4.14802 17.5015 4.52838 16.3072C4.95437 14.9684 6.17911 14.0784 7.58641 14.0936C8.95568 14.1088 10.1576 15.0292 10.5532 16.3453C10.8955 17.5015 10.6064 19.1142 8.93286 20.0727C9.22954 20.1944 9.50339 20.3085 9.77725 20.4226C10.2565 20.6128 10.7281 20.803 11.2074 20.9932C12.3332 21.4572 12.919 22.3016 12.9798 23.5111C12.9798 23.5796 12.9874 23.6404 12.995 23.7545C13.771 23.4427 14.5164 23.146 15.3304 22.8265C14.5697 22.4081 14.0448 21.8452 13.7633 21.0769C13.4819 20.3009 13.4971 19.525 13.8166 18.7643C14.3263 17.532 15.6043 16.7484 16.9279 16.8397C18.2743 16.931 19.4078 17.8743 19.7577 19.1979C20.062 20.3314 19.7349 21.8908 18.107 22.8189C18.5101 22.9786 18.8829 23.1308 19.2556 23.2829C19.636 23.435 20.0087 23.5872 20.4043 23.7393C20.4347 23.4579 20.4423 23.1916 20.5032 22.9406C20.7162 22.0125 21.2791 21.3659 22.1539 21.0084C22.831 20.7269 23.508 20.4683 24.1926 20.1944C24.2763 20.1564 24.3676 20.1184 24.4893 20.0651C23.759 19.6695 23.2417 19.1294 22.9527 18.384C22.6636 17.6385 22.656 16.8778 22.9375 16.1247C23.4091 14.8391 24.649 14.0403 26.064 14.0936C27.3572 14.1392 28.5363 15.0825 28.909 16.3605C29.2589 17.57 28.9014 19.1599 27.2811 20.0803C27.9885 20.3618 28.6656 20.6585 29.3578 20.9095C30.3924 21.2899 31.0694 21.9669 31.29 23.0699C31.29 23.0851 31.3128 23.1003 31.328 23.1155C31.328 25.6639 31.328 28.2123 31.328 30.7606C31.1911 31.0421 30.9857 31.2551 30.7043 31.3844C21.3856 31.3844 12.067 31.3844 2.74832 31.3844C2.46686 31.2475 2.25386 31.0421 2.12454 30.7606C2.09412 28.2047 2.09412 25.6639 2.09412 23.1079ZM7.49513 21.3355C7.2441 21.4496 6.95503 21.5941 6.65835 21.7158C5.9585 22.0049 5.25105 22.2788 4.54359 22.5602C3.98827 22.7808 3.8057 23.0699 3.8057 23.6709C3.8057 25.5726 3.8057 27.4744 3.8057 29.3685C3.8057 29.4598 3.81331 29.5511 3.82092 29.65C6.30843 29.65 8.77311 29.65 11.253 29.65C11.2606 29.5435 11.2682 29.4522 11.2682 29.3609C11.2682 27.482 11.2682 25.5954 11.2682 23.7165C11.2682 23.0471 11.0857 22.7808 10.4619 22.5298C9.47296 22.1418 8.49165 21.7387 7.49513 21.3355ZM29.5936 29.6652C29.5936 29.5435 29.5936 29.437 29.5936 29.3381C29.5936 27.4668 29.5936 25.5954 29.5936 23.7241C29.5936 23.0471 29.4187 22.7961 28.7873 22.5374C27.806 22.1418 26.8247 21.7387 25.8281 21.3355C25.5999 21.442 25.3413 21.5713 25.0674 21.6854C24.3448 21.9821 23.6221 22.2636 22.8994 22.5526C22.3137 22.7884 22.1311 23.0623 22.1311 23.7089C22.1311 25.5878 22.1311 27.4744 22.1311 29.3533C22.1311 29.4522 22.1311 29.5587 22.1311 29.6652C24.6338 29.6652 27.0909 29.6652 29.5936 29.6652ZM12.9798 29.6576C15.4825 29.6576 17.9396 29.6576 20.4271 29.6576C20.4271 29.5511 20.4271 29.4522 20.4271 29.3609C20.4271 28.3948 20.4271 27.4211 20.4271 26.455C20.4271 25.7932 20.2522 25.5346 19.636 25.2912C18.8601 24.9793 18.0613 24.7206 17.3158 24.3479C16.8518 24.1121 16.5095 24.1425 16.0607 24.3631C15.2848 24.7359 14.4632 25.0173 13.6645 25.3444C13.1852 25.5346 12.9798 25.8313 12.9798 26.3485C12.9722 27.2918 12.9798 28.2275 12.9798 29.1708C12.9798 29.3229 12.9798 29.4827 12.9798 29.6576ZM16.6997 21.4192C17.4908 21.4192 18.1298 20.7878 18.1298 19.9967C18.1298 19.2055 17.4984 18.5589 16.7149 18.5589C15.9161 18.5513 15.2695 19.1979 15.2695 20.0043C15.2695 20.7878 15.9085 21.4192 16.6997 21.4192ZM7.52556 15.8052C6.74203 15.8052 6.09543 16.4518 6.09543 17.2353C6.09543 18.0188 6.73442 18.6654 7.52556 18.6654C8.3319 18.6654 8.97851 18.0264 8.96329 17.2201C8.95568 16.4289 8.31669 15.8052 7.52556 15.8052ZM25.8814 15.8052C25.0903 15.7976 24.4513 16.4213 24.436 17.2201C24.4208 18.0112 25.0522 18.6578 25.8434 18.673C26.6497 18.6806 27.3039 18.0416 27.3039 17.2505C27.3039 16.4594 26.6649 15.8128 25.8814 15.8052Z" fill="white"/>
<path d="M21.2034 2.17289C21.6066 2.30221 22.0326 2.38589 22.413 2.56846C24.6266 3.64866 25.1819 6.55456 23.5312 8.38786C23.1204 8.83668 22.6792 9.25506 22.2456 9.68867C20.6481 11.2861 19.0506 12.8912 17.4456 14.4887C16.9054 15.0288 16.4795 15.0288 15.9317 14.4887C13.9843 12.5413 12.0369 10.5939 10.0819 8.6465C9.01693 7.55108 8.62897 6.25788 9.08539 4.79733C9.54182 3.33677 10.5764 2.48478 12.0902 2.21093C12.1282 2.20332 12.1586 2.1805 12.1967 2.16528C12.501 2.16528 12.8052 2.16528 13.1095 2.16528C14.7298 2.38589 15.6275 3.64866 16.7077 4.68322C17.1793 4.21158 17.6357 3.75516 18.0845 3.29874C18.5638 2.81188 19.1267 2.47717 19.7809 2.2946C19.9559 2.24896 20.1232 2.21093 20.2982 2.16528C20.6025 2.17289 20.8992 2.17289 21.2034 2.17289ZM16.7001 12.8C16.7685 12.7391 16.8218 12.6935 16.875 12.6402C18.6246 10.8906 20.3743 9.14856 22.1163 7.39894C22.9759 6.53934 22.9987 5.27657 22.1771 4.47022C21.3632 3.66387 20.1232 3.6943 19.2712 4.54629C18.6399 5.17007 18.0237 5.79385 17.3923 6.41763C16.9283 6.88166 16.4642 6.87405 16.0002 6.41763C15.3536 5.77103 14.7146 5.12443 14.0604 4.48544C13.3073 3.75516 12.1815 3.6943 11.3827 4.32569C10.409 5.094 10.3482 6.47088 11.261 7.38373C13.0106 9.14096 14.7679 10.8906 16.5251 12.6478C16.5783 12.6935 16.6392 12.7391 16.7001 12.8Z" fill="white"/>
<path d="M29.7692 2.1731C29.8301 2.21113 29.891 2.24917 29.9594 2.2872C30.5223 2.62191 30.5604 3.42065 29.9898 3.74776C29.3509 4.1129 28.6814 4.43239 28.012 4.73668C27.6012 4.92685 27.122 4.70625 26.9394 4.30307C26.7492 3.88468 26.9014 3.40544 27.3274 3.18483C27.974 2.84252 28.6434 2.50781 29.3128 2.1731C29.465 2.1731 29.6171 2.1731 29.7692 2.1731Z" fill="white"/>
<path d="M4.09477 2.17334C4.72615 2.49284 5.35754 2.81233 5.98892 3.13183C6.4986 3.39047 6.69638 3.87732 6.46817 4.32614C6.23996 4.77495 5.73789 4.91188 5.22061 4.65324C4.68812 4.38699 4.15562 4.11314 3.61552 3.8545C3.2656 3.68714 3.02217 3.43611 3.02217 3.03294C3.01456 2.62976 3.22756 2.36352 3.60031 2.21138C3.61552 2.21138 3.62313 2.18855 3.63834 2.17334C3.78288 2.17334 3.93502 2.17334 4.09477 2.17334Z" fill="white"/>
<path d="M26.8549 9.57501C26.8473 8.84473 27.4558 8.41113 28.0264 8.66977C28.6806 8.96644 29.3272 9.29355 29.9662 9.63587C30.3769 9.85647 30.5063 10.3433 30.3085 10.7465C30.1183 11.1421 29.6314 11.3475 29.2207 11.1573C28.5588 10.853 27.9046 10.5183 27.258 10.176C26.9842 10.0238 26.8549 9.76519 26.8549 9.57501Z" fill="white"/>
<path d="M6.55157 9.55944C6.54396 9.78005 6.40703 10.0387 6.11036 10.1908C5.48658 10.5179 4.8628 10.8298 4.22381 11.1341C3.7902 11.3395 3.31096 11.1569 3.10557 10.7538C2.89257 10.3278 3.04471 9.8333 3.47831 9.61269C4.09449 9.2932 4.71066 8.98131 5.34204 8.68463C5.92018 8.41078 6.55157 8.82156 6.55157 9.55944Z" fill="white"/>
</g>
<defs>
<clipPath id="clip0_6_161">
<rect width="29.2111" height="29.2111" fill="white" transform="translate(2.09412 2.17334)"/>
</clipPath>
</defs>
</svg>
