<svg width="37" height="37" viewBox="0 0 37 37" fill="none" xmlns="http://www.w3.org/2000/svg">
<path d="M24.2635 9.62351L19.6817 12.2688C19.8248 11.8332 19.8645 11.3702 19.7978 10.9165C19.7311 10.4628 19.5598 10.0309 19.2974 9.6548C19.035 9.27874 18.6887 8.96889 18.2859 8.74973C17.8831 8.53058 17.4348 8.40814 16.9766 8.3921C16.5183 8.37605 16.0626 8.46684 15.6454 8.65728C15.2283 8.84772 14.8611 9.1326 14.5731 9.48938C14.285 9.84616 14.0839 10.2651 13.9856 10.713C13.8874 11.1609 13.8947 11.6255 14.0069 12.0701L14.1927 12.8167L13.6391 12.2825C13.3103 11.9612 12.9112 11.7209 12.4734 11.5807C12.0355 11.4405 11.5711 11.4043 11.1168 11.4749C10.6626 11.5455 10.231 11.7209 9.85639 11.9873C9.48176 12.2538 9.17436 12.6038 8.95858 13.0097C8.74279 13.4157 8.62457 13.8663 8.61327 14.3258C8.60198 14.7854 8.69793 15.2413 8.89351 15.6573C9.08909 16.0733 9.37892 16.4381 9.74002 16.7226C10.1011 17.0071 10.5235 17.2035 10.9738 17.2963L6.39196 19.9416C6.19447 20.0557 6.05036 20.2435 5.99134 20.4637C5.93231 20.684 5.96321 20.9187 6.07723 21.1162L8.65677 25.5841C8.77079 25.7816 8.9586 25.9257 9.17887 25.9847C9.39914 26.0437 9.63384 26.0128 9.83134 25.8988L27.7029 15.5807C27.9004 15.4667 28.0445 15.2789 28.1035 15.0586C28.1625 14.8383 28.1316 14.6036 28.0176 14.4061L25.4381 9.93823C25.324 9.74074 25.1362 9.59663 24.916 9.53761C24.6957 9.47859 24.461 9.50948 24.2635 9.62351ZM11.8816 15.6116C11.672 15.664 11.4523 15.6608 11.2443 15.6023C11.0364 15.5438 10.8473 15.432 10.6958 15.278C10.5443 15.1239 10.4356 14.933 10.3806 14.7241C10.3255 14.5152 10.326 14.2955 10.3819 14.0868C10.4378 13.8781 10.5472 13.6876 10.6994 13.5342C10.8515 13.3808 11.0411 13.2698 11.2493 13.2121C11.4575 13.1545 11.6772 13.1522 11.8865 13.2055C12.0959 13.2589 12.2877 13.3659 12.443 13.5161L14.0488 15.0712L11.8816 15.6116ZM17.7687 12.2126L16.2136 13.8183L15.6698 11.6502C15.6173 11.4406 15.6205 11.2209 15.679 11.013C15.7375 10.805 15.8494 10.6159 16.0034 10.4644C16.1574 10.3129 16.3483 10.2042 16.5573 10.1492C16.7662 10.0941 16.9859 10.0946 17.1946 10.1505C17.4032 10.2064 17.5937 10.3159 17.7471 10.468C17.9005 10.6201 18.0115 10.8097 18.0692 11.0179C18.1268 11.2261 18.1291 11.4458 18.0758 11.6552C18.0225 11.8645 17.9154 12.0564 17.7652 12.2117L17.7687 12.2126Z" fill="#1D1D1B"/>
<path d="M11.3573 31.2958C11.1961 31.1345 11.1055 30.9158 11.1055 30.6878V25.7567L20.5638 20.5446V31.5476H11.9653C11.7373 31.5476 11.5186 31.457 11.3573 31.2958Z" fill="#1D1D1B"/>
<path d="M22.2852 31.5476H30.8836C31.1116 31.5476 31.3303 31.457 31.4916 31.2958C31.6529 31.1345 31.7434 30.9158 31.7434 30.6878V19.4238H22.2852V31.5476Z" fill="#1D1D1B"/>
<path d="M29.5603 15.0456L30.0824 11.902" stroke="#1D1D1B" stroke-linecap="round"/>
<path d="M30.9023 15.7307L33.0624 13.4746" stroke="#1D1D1B" stroke-linecap="round"/>
<path d="M30.9004 17.6843L33.8512 16.8585" stroke="#1D1D1B" stroke-linecap="round"/>
</svg>
