<svg width="37" height="36" viewBox="0 0 37 36" fill="none" xmlns="http://www.w3.org/2000/svg">
<path d="M0.251953 14.5155C0.251953 13.9124 0.251953 13.3004 0.251953 12.6973C0.317681 12.2833 0.374019 11.8602 0.458526 11.4462C1.71674 4.61461 8.46792 -0.0207928 15.5853 1.0503C23.0595 2.1844 28.1017 9.151 26.5336 16.2346C24.712 24.4703 15.6228 28.4037 8.11111 25.1994C7.35993 24.8844 6.81533 24.9654 6.20501 25.4694C4.6651 26.7475 2.87167 27.0536 0.91862 26.5585C0.91862 26.5135 0.90923 26.4865 0.91862 26.4685C0.946789 26.3965 0.984348 26.3245 1.01252 26.2525C2.11111 23.7953 2.23317 21.3021 1.36932 18.7638C1.10641 17.9718 0.805944 17.1977 0.589981 16.3966C0.420967 15.7846 0.364629 15.1365 0.251953 14.5155ZM22.5336 13.6604C22.5336 12.6523 21.6604 11.8242 20.6088 11.8242C19.5571 11.8242 18.6839 12.6613 18.6839 13.6694C18.6839 14.6685 19.5665 15.5146 20.6182 15.5056C21.6698 15.5056 22.5336 14.6685 22.5336 13.6604ZM15.4444 13.6604C15.4444 12.6433 14.5806 11.8242 13.5289 11.8242C12.4679 11.8242 11.6135 12.6523 11.6135 13.6694C11.6135 14.6865 12.4773 15.5146 13.5383 15.5056C14.59 15.5056 15.4444 14.6775 15.4444 13.6604ZM4.53364 13.6514C4.52425 14.6685 5.37871 15.4966 6.43036 15.5056C7.482 15.5146 8.35524 14.6955 8.36463 13.6784C8.37402 12.6613 7.51956 11.8332 6.45853 11.8242C5.40688 11.8152 4.54303 12.6343 4.53364 13.6514Z" fill="white"/>
<path d="M33.3701 35.3971C32.8818 35.2621 32.356 35.1901 31.9053 34.9831C31.3326 34.7221 30.7692 34.3981 30.2809 34.011C29.7269 33.57 29.2105 33.48 28.5438 33.768C22.4593 36.4142 15.3232 34.3621 11.7551 28.9526C11.6706 28.8266 11.6049 28.7006 11.4922 28.5295C16.741 29.0156 21.295 27.6115 24.9288 23.9481C28.572 20.2758 29.7926 15.8474 29.0133 10.834C29.971 11.275 30.8067 11.8061 31.5767 12.4271C34.187 14.5513 35.7457 17.2425 36.1776 20.5008C36.4593 22.652 36.1025 24.7582 35.3889 26.8014C34.9006 28.1785 34.5908 29.5646 34.6377 31.0228C34.6847 32.3369 34.9851 33.597 35.5297 34.8031C35.5767 34.9021 35.6142 35.0101 35.68 35.1541C35.3232 35.2351 34.9851 35.3161 34.6565 35.3881C34.2058 35.3971 33.7926 35.3971 33.3701 35.3971Z" fill="white"/>
</svg>
