<svg width="80" height="80" viewBox="0 0 80 80" fill="none" xmlns="http://www.w3.org/2000/svg">
<path d="M40.2794 1.26452L39.8505 0.94043L39.4215 1.26452C39.4215 1.26452 17.4975 13.7422 7.58398 18.4797C7.58398 18.4797 12.3501 45.1698 15.7531 57.1994C19.1561 69.2291 32.5393 75.7014 39.8505 80.0004C47.1712 75.7014 60.5067 69.2481 63.9478 57.1994C67.389 45.1507 72.1265 18.4797 72.1265 18.4797C62.2225 13.7422 40.2794 1.26452 40.2794 1.26452Z" fill="#DB8080"/>
<path d="M37.6007 52.8431L23.0546 40.375C22.7216 40.0902 22.448 39.7427 22.2493 39.3521C22.0507 38.9616 21.9309 38.5358 21.8968 38.099C21.828 37.2168 22.1125 36.3434 22.6876 35.6709C23.2627 34.9984 24.0815 34.582 24.9637 34.5131C25.8459 34.4443 26.7193 34.7288 27.3917 35.3039L36.9239 43.4825L53.2621 24.9043C53.8461 24.2394 54.6703 23.8337 55.5534 23.7765C56.4365 23.7193 57.3061 24.0152 57.971 24.5992C58.6359 25.1832 59.0416 26.0074 59.0988 26.8905C59.156 27.7736 58.86 28.6433 58.276 29.3081L37.6007 52.8431Z" fill="white"/>
</svg>
