<svg width="48" height="48" viewBox="0 0 48 48" fill="none" xmlns="http://www.w3.org/2000/svg">
<path d="M28.0482 7.98866C27.9187 7.98515 27.7886 8.00617 27.665 8.0547L23.9985 9.46155L20.3345 8.0567C19.9282 7.9006 19.4739 8.02468 19.1997 8.36088L16.7305 11.4087L12.8543 12.0251C12.4281 12.0932 12.0918 12.4294 12.0238 12.8556L11.4074 16.732L8.35927 19.2015C8.02304 19.4736 7.90096 19.9319 8.05506 20.3362L9.46002 23.9999L8.05506 27.6641C7.89896 28.0684 8.02304 28.5267 8.35927 28.7988L11.4074 31.2663L12.0238 35.1427C12.0918 35.5709 12.4261 35.9071 12.8543 35.9752L16.7305 36.5916L19.1997 39.6369C19.4739 39.9771 19.9322 40.0972 20.3365 39.9411L23.9985 38.5382L27.663 39.9431C27.7791 39.9871 27.8991 40.0091 28.0212 40.0091C28.3154 40.0091 28.6056 39.8791 28.7998 39.6369L31.2674 36.5916L35.1441 35.9752C35.5724 35.9071 35.9086 35.5709 35.9767 35.1427L36.5931 31.2663L39.6387 28.7988C39.9769 28.5247 40.097 28.0684 39.9429 27.6641L38.5379 23.9999L39.9429 20.3362C40.097 19.9319 39.9769 19.4736 39.6387 19.1995L36.5931 16.73L35.9767 12.8541C35.9086 12.4259 35.5724 12.0917 35.1441 12.0236L31.2674 11.4072L28.7998 8.35988C28.6126 8.12724 28.3329 7.99666 28.0482 7.98866ZM29.0314 15.994C29.224 15.999 29.4177 16.0601 29.5863 16.1806C30.0366 16.5008 30.1387 17.1272 29.8185 17.5755L19.8121 31.583C19.614 31.8572 19.3078 32.0033 18.9955 32.0033C18.7934 32.0033 18.5913 31.9432 18.4152 31.8172C17.9648 31.495 17.8608 30.8706 18.183 30.4203L28.1893 16.4128C28.391 16.1316 28.7102 15.985 29.0314 15.994ZM20.9969 15.9945C22.6521 15.9945 23.999 17.3413 23.999 18.9964C23.999 20.6514 22.6521 21.9982 20.9969 21.9982C19.3418 21.9982 17.9949 20.6514 17.9949 18.9964C17.9949 17.3413 19.3418 15.9945 20.9969 15.9945ZM20.9969 17.9957C20.4445 17.9957 19.9962 18.444 19.9962 18.9964C19.9962 19.5487 20.4445 19.997 20.9969 19.997C21.5493 19.997 21.9976 19.5487 21.9976 18.9964C21.9976 18.444 21.5493 17.9957 20.9969 17.9957ZM27.0005 26.0001C28.6557 26.0001 30.0026 27.3469 30.0026 29.0019C30.0026 30.657 28.6557 32.0038 27.0005 32.0038C25.3454 32.0038 23.9985 30.657 23.9985 29.0019C23.9985 27.3469 25.3454 26.0001 27.0005 26.0001ZM27.0005 28.0013C26.4501 28.0013 25.9998 28.4516 25.9998 29.0019C25.9998 29.5523 26.4501 30.0026 27.0005 30.0026C27.5509 30.0026 28.0012 29.5523 28.0012 29.0019C28.0012 28.4516 27.5509 28.0013 27.0005 28.0013Z" fill="#DB8080"/>
</svg>
