<svg width="49" height="49" viewBox="0 0 49 49" fill="none" xmlns="http://www.w3.org/2000/svg">
<path d="M32.107 12.7928L26.0678 16.2796C26.2564 15.7053 26.3088 15.0951 26.2209 14.4971C26.133 13.8991 25.9072 13.3297 25.5613 12.834C25.2154 12.3383 24.7589 11.9299 24.228 11.6411C23.6971 11.3522 23.1062 11.1908 22.5022 11.1697C21.8981 11.1485 21.2974 11.2682 20.7476 11.5192C20.1978 11.7702 19.7139 12.1457 19.3342 12.616C18.9545 13.0863 18.6894 13.6384 18.5599 14.2288C18.4303 14.8192 18.4399 15.4316 18.5879 16.0176L18.8328 17.0017L18.103 16.2976C17.6697 15.8741 17.1436 15.5574 16.5665 15.3726C15.9895 15.1878 15.3773 15.14 14.7785 15.2331C14.1797 15.3261 13.6109 15.5574 13.1171 15.9085C12.6233 16.2597 12.2181 16.7211 11.9337 17.2562C11.6493 17.7912 11.4934 18.3851 11.4786 18.9909C11.4637 19.5967 11.5901 20.1975 11.8479 20.7459C12.1057 21.2943 12.4878 21.775 12.9637 22.15C13.4397 22.525 13.9965 22.784 14.5899 22.9063L8.55066 26.3931C8.29034 26.5434 8.10039 26.7909 8.0226 27.0812C7.9448 27.3716 7.98553 27.6809 8.13582 27.9413L11.5359 33.8304C11.6862 34.0907 11.9337 34.2806 12.2241 34.3584C12.5144 34.4362 12.8238 34.3955 13.0841 34.2452L36.6405 20.6449C36.9008 20.4946 37.0907 20.2471 37.1685 19.9567C37.2463 19.6664 37.2056 19.357 37.0553 19.0967L33.6552 13.2076C33.5049 12.9473 33.2574 12.7574 32.9671 12.6796C32.6767 12.6018 32.3674 12.6425 32.107 12.7928ZM15.7865 20.6856C15.5102 20.7547 15.2207 20.7505 14.9466 20.6734C14.6724 20.5963 14.4232 20.4489 14.2235 20.2459C14.0238 20.0429 13.8806 19.7912 13.808 19.5158C13.7355 19.2404 13.7361 18.9509 13.8098 18.6758C13.8835 18.4007 14.0277 18.1497 14.2283 17.9475C14.4288 17.7453 14.6786 17.5989 14.9531 17.523C15.2275 17.447 15.5171 17.444 15.7931 17.5142C16.069 17.5845 16.3219 17.7256 16.5265 17.9236L18.6431 19.9734L15.7865 20.6856ZM23.5463 16.2055L21.4966 18.322L20.7797 15.4641C20.7106 15.1879 20.7148 14.8984 20.7919 14.6242C20.869 14.3501 21.0164 14.1008 21.2194 13.9011C21.4225 13.7015 21.6741 13.5582 21.9495 13.4857C22.2249 13.4131 22.5144 13.4137 22.7895 13.4874C23.0646 13.5611 23.3156 13.7054 23.5178 13.9059C23.72 14.1064 23.8664 14.3563 23.9424 14.6308C24.0184 14.9052 24.0214 15.1947 23.9511 15.4707C23.8808 15.7467 23.7397 15.9995 23.5417 16.2042L23.5463 16.2055Z" fill="#DB8080"/>
<path d="M15.0956 41.3593C14.8831 41.1468 14.7637 40.8585 14.7637 40.5579V34.0583L27.2306 27.1882V41.6913H15.897C15.5964 41.6913 15.3082 41.5719 15.0956 41.3593Z" fill="#DB8080"/>
<path d="M29.4961 41.6913H40.8297C41.1302 41.6913 41.4185 41.5719 41.6311 41.3593C41.8436 41.1468 41.963 40.8585 41.963 40.5579V25.7109H29.4961V41.6913Z" fill="#DB8080"/>
<path d="M39.0888 19.9399L39.777 15.7964" stroke="#1D1D1B" stroke-linecap="round"/>
<path d="M40.8574 20.8419L43.7046 17.8682" stroke="#1D1D1B" stroke-linecap="round"/>
<path d="M40.8557 23.4181L44.7451 22.3296" stroke="#1D1D1B" stroke-linecap="round"/>
</svg>
