<svg width="48" height="49" viewBox="0 0 48 49" fill="none" xmlns="http://www.w3.org/2000/svg">
<path d="M29.6992 25.7792C31.6901 25.7792 33.6363 25.1888 35.2917 24.0827C36.9471 22.9766 38.2374 21.4045 38.9993 19.5651C39.7612 17.7257 39.9605 15.7017 39.5721 13.749C39.1837 11.7963 38.225 10.0027 36.8172 8.59486C35.4094 7.18705 33.6157 6.22832 31.663 5.83991C29.7103 5.4515 27.6863 5.65085 25.8469 6.41274C24.0076 7.17464 22.4354 8.46487 21.3293 10.1203C20.2232 11.7757 19.6328 13.7219 19.6328 15.7128C19.6328 18.3826 20.6934 20.943 22.5812 22.8308C24.469 24.7187 27.0294 25.7792 29.6992 25.7792ZM27.019 17.3361C27.2207 17.3084 27.4257 17.3524 27.5982 17.4605C27.7707 17.5686 27.8997 17.7339 27.9627 17.9274C28.0495 18.2182 28.1951 18.488 28.3905 18.7202C28.5475 18.8982 28.7414 19.04 28.9587 19.1356C29.176 19.2312 29.4115 19.2784 29.6488 19.2738C29.9902 19.2856 30.3286 19.2075 30.6303 19.0473C30.7254 18.9948 30.814 18.9315 30.8946 18.8586C31.0228 18.7529 31.1289 18.6229 31.2066 18.4761C31.2844 18.3292 31.3323 18.1684 31.3475 18.0029C31.3856 17.7293 31.3325 17.4507 31.1965 17.2102C31.0784 17.0305 30.9129 16.8868 30.7184 16.795H30.6303C30.3787 16.6817 29.8753 16.5182 29.1329 16.2917L28.3402 16.0148C28.0406 15.9014 27.7571 15.7491 27.4972 15.5619C27.151 15.2617 26.8832 14.8816 26.717 14.4546C26.5143 14.0171 26.4111 13.54 26.415 13.0578C26.4041 12.5123 26.5387 11.9738 26.8051 11.4976C27.0542 11.0454 27.4364 10.6808 27.8998 10.4532C28.0566 10.3706 28.2209 10.3032 28.3905 10.2518V9.59754C28.3905 9.29385 28.5112 9.0026 28.7259 8.78786C28.9407 8.57313 29.2319 8.45249 29.5356 8.45249C29.8393 8.45249 30.1305 8.57313 30.3453 8.78786C30.56 9.0026 30.6806 9.29385 30.6806 9.59754V10.2393C31.1757 10.3531 31.6316 10.5962 32.0019 10.9439C32.3593 11.2901 32.6196 11.7239 32.7568 12.2022C32.7884 12.3288 32.7918 12.4609 32.7669 12.589C32.7419 12.7171 32.6892 12.8382 32.6125 12.9437C32.5357 13.0493 32.4368 13.1367 32.3226 13.1999C32.2084 13.2631 32.0817 13.3005 31.9515 13.3095C31.7612 13.3252 31.571 13.2767 31.4114 13.1718C31.2518 13.0669 31.1319 12.9116 31.0707 12.7307C31.0075 12.5226 30.8953 12.3328 30.7436 12.177C30.3957 11.9458 29.9711 11.86 29.5608 11.938C29.174 11.9113 28.7892 12.0131 28.466 12.2274L28.378 12.3029C28.2814 12.3848 28.2043 12.4871 28.152 12.6024C28.0998 12.7177 28.0738 12.8432 28.076 12.9698C28.0769 13.0977 28.1042 13.2241 28.1562 13.341C28.2082 13.4579 28.2836 13.5628 28.378 13.6492C28.8687 13.9557 29.4097 14.1729 29.976 14.291L30.6177 14.4923C31.0639 14.6325 31.4876 14.8359 31.876 15.0963C32.2697 15.3744 32.5824 15.7522 32.782 16.191C33.0035 16.7028 33.1109 17.2567 33.0966 17.8142C33.12 18.6711 32.8137 19.5043 32.2409 20.142C31.8086 20.5957 31.2375 20.8923 30.6177 20.9851V21.8282C30.6177 22.1318 30.4971 22.4231 30.2824 22.6378C30.0676 22.8526 29.7764 22.9732 29.4727 22.9732C29.169 22.9732 28.8777 22.8526 28.663 22.6378C28.4483 22.4231 28.3276 22.1318 28.3276 21.8282V20.9096C27.7752 20.7277 27.284 20.3962 26.9086 19.952C26.5332 19.5077 26.2883 18.9681 26.2011 18.393C26.1777 18.2689 26.1809 18.1413 26.2104 18.0185C26.2399 17.8957 26.2952 17.7806 26.3725 17.6807C26.4498 17.5808 26.5473 17.4984 26.6588 17.439C26.7702 17.3796 26.893 17.3445 27.019 17.3361Z" fill="#DB8080"/>
<path d="M43.1002 27.5667C42.905 26.9533 42.5242 26.4156 42.0103 26.0279C41.4964 25.6402 40.8748 25.4216 40.2313 25.4024C39.8823 25.3957 39.5355 25.4599 39.2121 25.5912L25.2576 30.0959H25.0814C24.9586 30.094 24.8383 30.0617 24.731 30.0019C24.6238 29.9421 24.5331 29.8566 24.467 29.7531C24.4009 29.6496 24.3615 29.5313 24.3524 29.4089C24.3432 29.2865 24.3646 29.1636 24.4145 29.0515C24.6383 28.6109 24.7547 28.1237 24.7543 27.6296C24.7509 26.8871 24.4871 26.1693 24.0089 25.6013C23.5306 25.0334 22.8681 24.6513 22.137 24.5216C21.2726 24.3776 20.3864 24.438 19.5496 24.698C18.7127 24.9581 17.9483 25.4105 17.3177 26.019L13.9329 30.121H12.1336C11.9985 29.6234 11.7036 29.184 11.2944 28.8702C10.8852 28.5565 10.3843 28.3859 9.86863 28.3846H7.03747C6.41225 28.3846 5.81245 28.6321 5.36917 29.073C4.9259 29.5139 4.6752 30.1124 4.67188 30.7376V41.1185C4.67188 41.7459 4.92111 42.3476 5.36474 42.7913C5.80838 43.2349 6.41008 43.4841 7.03747 43.4841H9.86863C10.4917 43.4808 11.0883 43.2319 11.5288 42.7913C11.9694 42.3507 12.2183 41.7542 12.2216 41.1311H28.7179C29.7901 41.1277 30.8272 40.7494 31.6497 40.0616L42.2949 31.0522C42.7718 30.6249 43.1051 30.0608 43.2493 29.4369C43.3934 28.813 43.3414 28.1599 43.1002 27.5667ZM7.18847 30.9012H9.70506V40.9675H7.18847V30.9012Z" fill="#DB8080"/>
</svg>
