<svg width="72" height="72" viewBox="0 0 72 72" fill="none" xmlns="http://www.w3.org/2000/svg">
<path d="M52.086 7C52.1325 7.02657 52.179 7.06643 52.2322 7.08636C53.8398 7.59123 54.6436 8.62089 54.6436 10.2949C54.6502 17.755 54.6502 25.2085 54.6436 32.6685C54.6436 32.8878 54.6037 33.107 54.5705 33.4126C54.3579 33.2133 54.2051 33.0804 54.059 32.9343C51.0962 29.9715 48.1467 26.9954 45.164 24.0459C42.5334 21.4419 38.3217 21.96 36.4617 25.0822C35.1929 27.208 35.4918 29.8187 37.2323 31.7319C38.3749 32.9874 39.5308 34.2363 40.6733 35.4918C40.7996 35.6247 40.9191 35.7708 41.0919 35.9701C40.866 35.9834 40.7066 36.0033 40.5538 36.0033C30.4697 36.0033 20.3923 36.0033 10.3082 36.0033C8.29538 35.9967 7 34.6947 7 32.6553C7 25.2151 7 17.7816 7 10.3414C7 8.66739 7.7573 7.63108 9.35826 7.093C9.40476 7.07972 9.44462 7.03321 9.49112 7C23.6938 7 37.8899 7 52.086 7ZM19.4357 14.2342C19.4357 13.4437 19.449 12.6465 19.4357 11.856C19.4025 10.2152 18.2864 9.0859 16.6456 9.06597C15.058 9.04604 13.4769 9.04604 11.8892 9.06597C10.2152 9.0859 9.0859 10.2152 9.06597 11.8826C9.05269 13.4703 9.04604 15.0513 9.06597 16.639C9.0859 18.2732 10.2086 19.4091 11.856 19.4357C13.4437 19.4623 15.0247 19.4556 16.6124 19.4357C18.2864 19.4158 19.4091 18.2865 19.4357 16.6124C19.449 15.8219 19.4357 15.0314 19.4357 14.2342ZM16.3467 22.5579C16.3467 23.2355 16.3467 23.8799 16.3467 24.5641C17.7218 24.5641 19.0637 24.5641 20.4388 24.5641C20.4388 23.8865 20.4388 23.2355 20.4388 22.5579C19.0637 22.5579 17.7218 22.5579 16.3467 22.5579ZM26.6566 22.5579C25.2749 22.5579 23.933 22.5579 22.5645 22.5579C22.5645 23.2355 22.5645 23.8865 22.5645 24.5574C23.9396 24.5574 25.2815 24.5574 26.6566 24.5574C26.6566 23.8931 26.6566 23.2621 26.6566 22.5579ZM10.1355 30.7753C11.5106 30.7753 12.8525 30.7753 14.2209 30.7753C14.2209 30.0977 14.2209 29.4467 14.2209 28.7757C12.8525 28.7757 11.504 28.7757 10.1355 28.7757C10.1355 29.4533 10.1355 30.1043 10.1355 30.7753ZM32.8745 28.789C31.4728 28.789 30.1309 28.789 28.789 28.789C28.789 29.4733 28.789 30.1243 28.789 30.7686C30.1708 30.7686 31.506 30.7686 32.8745 30.7686C32.8745 30.0911 32.8745 29.46 32.8745 28.789ZM10.1421 24.5574C11.5172 24.5574 12.8658 24.5574 14.2143 24.5574C14.2143 23.8666 14.2143 23.2156 14.2143 22.5579C12.8458 22.5579 11.5106 22.5579 10.1421 22.5579C10.1421 23.2288 10.1421 23.8799 10.1421 24.5574ZM32.8612 22.5712C31.4794 22.5712 30.1309 22.5712 28.789 22.5712C28.789 23.2621 28.789 23.9131 28.789 24.5641C30.1641 24.5641 31.4994 24.5641 32.8612 24.5641C32.8612 23.8799 32.8612 23.2288 32.8612 22.5712ZM38.0361 10.1421C37.3319 10.1421 36.6809 10.1421 36.0299 10.1421C36.0299 11.1784 36.0299 12.1749 36.0299 13.1913C36.7075 13.1913 37.3585 13.1913 38.0361 13.1913C38.0361 12.1683 38.0361 11.1718 38.0361 10.1421ZM40.1818 13.178C40.8527 13.178 41.517 13.178 42.188 13.178C42.188 12.1483 42.188 11.1585 42.188 10.1289C41.5104 10.1289 40.8593 10.1289 40.1818 10.1289C40.1818 11.1386 40.1818 12.1085 40.1818 13.178ZM44.327 10.1222C44.327 11.1851 44.327 12.1882 44.327 13.1913C45.0112 13.1913 45.6423 13.1913 46.3066 13.1913C46.3066 12.1616 46.3066 11.1585 46.3066 10.1222C45.6357 10.1222 44.9979 10.1222 44.327 10.1222ZM48.4722 13.1846C49.1565 13.1846 49.8008 13.1846 50.4585 13.1846C50.4585 12.1483 50.4585 11.1386 50.4585 10.1421C49.7676 10.1421 49.1232 10.1421 48.4722 10.1421C48.4722 11.1851 48.4722 12.1749 48.4722 13.1846Z" fill="#DB7F80"/>
<path d="M65.0004 54.6899C64.7546 54.6766 64.5154 54.6567 64.2696 54.6567C59.0416 54.6567 53.8136 54.65 48.5855 54.6633C48.1272 54.6633 47.8747 54.5105 47.6489 54.1319C45.0382 49.8073 44.8455 45.3963 47.144 40.8857C47.5293 40.1351 47.5027 39.8561 46.9181 39.2183C44.2012 36.2556 41.4842 33.2928 38.7672 30.33C37.5582 29.0081 37.3855 27.2875 38.3288 25.9191C39.5644 24.1188 42.0555 23.8863 43.6498 25.4474C45.377 27.1414 47.0709 28.8619 48.7782 30.5692C52.392 34.1896 56.0124 37.8034 59.6262 41.4238C59.7723 41.57 59.8985 41.736 59.9982 41.8622C60.5097 41.3375 60.9747 40.8592 61.4796 40.3476C60.3171 39.1918 59.0615 37.9429 57.7529 36.6409C58.1581 36.4748 58.4769 36.3486 58.8025 36.2157C61.5526 35.0731 62.8082 32.2565 61.7652 29.4664C60.7356 26.7096 59.6594 23.9793 58.6032 21.2358C58.5301 21.0498 58.4703 20.8571 58.4504 20.6445C60.616 22.8699 63.2068 24.7433 64.2497 27.8455C64.5686 28.8021 64.7546 29.8052 65.0004 30.7884C65.0004 38.76 65.0004 46.7249 65.0004 54.6899Z" fill="#DB7F80"/>
<path d="M64.9996 65C59.5059 65 54.0188 65 48.4785 65C48.4785 62.2432 48.4785 59.5196 48.4785 56.7295C53.9856 56.7295 59.4926 56.7295 64.9996 56.7295C64.9996 59.4863 64.9996 62.2432 64.9996 65ZM50.5378 58.8021C50.5378 59.5129 50.5378 60.1639 50.5378 60.8083C51.2221 60.8083 51.8731 60.8083 52.5175 60.8083C52.5175 60.1174 52.5175 59.4731 52.5175 58.8021C51.8465 58.8021 51.2088 58.8021 50.5378 58.8021Z" fill="#DB7F80"/>
<path d="M13.7164 42.8126C15.51 42.1217 17.3169 41.4309 19.1305 40.7334C21.2762 39.9096 23.4152 39.0726 25.5675 38.2622C25.893 38.1426 26.2584 38.0695 26.6038 38.0629C31.8518 38.0496 37.0998 38.0629 42.3477 38.043C42.846 38.043 43.2113 38.1559 43.5103 38.5545C43.7561 38.88 44.055 39.1656 44.3805 39.531C43.012 40.0624 41.7167 40.5673 40.4213 41.0655C33.5723 43.7161 26.7101 46.3533 19.8546 48.9906C17.6358 49.8475 16.0946 49.1567 15.231 46.9246C14.7195 45.6093 14.2147 44.2874 13.7098 42.9654C13.6965 42.9388 13.7098 42.8923 13.7164 42.8126Z" fill="#DB7F80"/>
<path d="M56.5439 34.8603C56.6037 33.5317 56.7034 32.2496 56.7167 30.9609C56.7432 28.3037 56.7233 25.6465 56.7233 22.9893C56.7233 22.8033 56.7233 22.6239 56.7233 22.4379C56.7499 22.4313 56.7831 22.4246 56.8097 22.418C56.8894 22.5973 56.9757 22.77 57.0488 22.9494C57.9523 25.2811 58.8491 27.6194 59.7459 29.9578C60.5231 31.9839 59.7924 33.6247 57.7596 34.4019C57.3278 34.568 56.8894 34.7274 56.5439 34.8603Z" fill="#DB7F80"/>
<path d="M12.9125 40.9129C12.5936 40.0958 12.3013 39.3452 12.009 38.5945C11.9559 38.455 11.916 38.3155 11.8496 38.1162C14.5799 38.1162 17.2637 38.1162 19.9541 38.1162C19.9607 38.1428 19.974 38.1627 19.9806 38.1893C17.6489 39.0795 15.3106 39.9829 12.9125 40.9129Z" fill="#DB7F80"/>
</svg>
