<svg width="73" height="73" viewBox="0 0 73 73" fill="none" xmlns="http://www.w3.org/2000/svg">
<path d="M41.8883 12.4841C38.941 9.44021 34.0593 9.44021 31.112 12.4841L16.7166 27.3513C15.8899 28.2051 15.3343 29.2845 15.1199 30.4536C13.3717 39.9875 13.2426 49.7478 14.7382 59.3246L15.2677 62.7152C15.435 63.7862 16.3574 64.5757 17.4413 64.5757H27.5002C28.3286 64.5757 29.0002 63.9041 29.0002 63.0757V42.0757H44.0002V63.0757C44.0002 63.9041 44.6717 64.5757 45.5002 64.5757H55.5589C56.6428 64.5757 57.5652 63.7862 57.7325 62.7152L58.262 59.3246C59.7576 49.7478 59.6285 39.9875 57.8802 30.4535C57.6659 29.2845 57.1103 28.2051 56.2836 27.3513L41.8883 12.4841Z" fill="#DB8080"/>
</svg>
