<svg width="21" height="21" viewBox="0 0 21 21" fill="none" xmlns="http://www.w3.org/2000/svg">
<path d="M0.566406 7.85547V14.5147C0.568035 16.0123 1.16366 17.448 2.2226 18.507C3.28154 19.5659 4.7173 20.1615 6.21487 20.1632H14.9179C16.4155 20.1615 17.8513 19.5659 18.9102 18.507C19.9692 17.448 20.5648 16.0123 20.5664 14.5147V7.85547H0.566406ZM10.5664 16.317H5.95102C5.74701 16.317 5.55135 16.236 5.40709 16.0917C5.26284 15.9474 5.18179 15.7518 5.18179 15.5478C5.18179 15.3438 5.26284 15.1481 5.40709 15.0038C5.55135 14.8596 5.74701 14.7785 5.95102 14.7785H10.5664C10.7704 14.7785 10.9661 14.8596 11.1103 15.0038C11.2546 15.1481 11.3356 15.3438 11.3356 15.5478C11.3356 15.7518 11.2546 15.9474 11.1103 16.0917C10.9661 16.236 10.7704 16.317 10.5664 16.317ZM15.1818 12.4709H5.95102C5.74701 12.4709 5.55135 12.3898 5.40709 12.2456C5.26284 12.1013 5.18179 11.9056 5.18179 11.7016C5.18179 11.4976 5.26284 11.302 5.40709 11.1577C5.55135 11.0134 5.74701 10.9324 5.95102 10.9324H15.1818C15.3858 10.9324 15.5815 11.0134 15.7257 11.1577C15.87 11.302 15.951 11.4976 15.951 11.7016C15.951 11.9056 15.87 12.1013 15.7257 12.2456C15.5815 12.3898 15.3858 12.4709 15.1818 12.4709Z" fill="#DB8080"/>
<path d="M15.1802 1.71406V0.933293C15.1802 0.729281 15.0992 0.533624 14.9549 0.389365C14.8107 0.245106 14.615 0.164063 14.411 0.164062C14.207 0.164063 14.0113 0.245106 13.8671 0.389365C13.7228 0.533624 13.6418 0.729281 13.6418 0.933293V1.70252H7.48791V0.933293C7.48791 0.729281 7.40686 0.533624 7.26261 0.389365C7.11835 0.245106 6.92269 0.164063 6.71868 0.164062C6.51467 0.164063 6.31901 0.245106 6.17475 0.389365C6.03049 0.533624 5.94945 0.729281 5.94945 0.933293V1.71406C4.67899 1.77497 3.46619 2.26253 2.5071 3.09795C1.54801 3.93337 0.898676 5.06782 0.664062 6.31791H20.4656C20.231 5.06782 19.5817 3.93337 18.6226 3.09795C17.6635 2.26253 16.4507 1.77497 15.1802 1.71406Z" fill="#DB8080"/>
</svg>
