<svg width="1920" height="189" viewBox="0 0 1920 189" fill="none" xmlns="http://www.w3.org/2000/svg">
<path d="M1920 43.2874V188.301H0V28.3789C47.77 26.8683 23.5499 25.7354 71.3199 24.2248C83.6999 23.8341 96.51 23.4367 109.52 23.5418C125.96 23.6732 140.3 24.5762 154.91 25.2954C185.05 26.7731 197.51 28.6678 231.53 28.5792C246.75 28.5463 263.59 28.3329 273.34 27.2033C292.898 24.8861 311.163 21.5279 327.4 17.2631C330.29 16.6753 334.89 15.017 346.54 13.802C355.65 12.8497 368.99 13.3423 379.79 13.7298C418.79 15.1385 445.33 18.8164 485.36 19.9394C535.25 21.3416 587.56 18.2581 620.62 14.4883C653.68 10.7185 676.12 6.14081 713.84 2.77818C724.439 1.8108 735.257 1.1234 746.19 0.72253C769.69 -0.114844 796.47 0.394153 819.32 1.3793C891.72 4.49564 930.91 11.7102 977.05 17.7984C1023.19 23.8866 1097.76 29.6924 1174.55 27.6925C1233.21 26.1754 1271.44 20.547 1329.76 18.9182C1398.5 17.0037 1468.95 21.2169 1521.44 25.7978C1551.57 28.4248 1585.76 31.4624 1626.75 31.1012C1670.59 30.7137 1698.59 26.6417 1717.8 22.9343C1737.01 19.2269 1759.06 15.0203 1801.25 13.8414C1843.64 12.6592 1890 15.306 1911.11 18.9445C1911.11 18.9445 1919.76 20.1365 1920 20.524V43.2874Z" fill="#DB8080"/>
</svg>
