<svg width="173" height="173" viewBox="0 0 173 173" fill="none" xmlns="http://www.w3.org/2000/svg">
<g clip-path="url(#clip0_3199_3409)">
<path d="M55.0227 52.8483C55.0227 54.2099 55.0227 55.5357 55.0227 56.9188C54.8006 56.9331 54.5928 56.9618 54.3849 56.9618C53.095 56.969 51.8051 56.9618 50.5152 56.9618C49.691 56.9618 49.3471 57.227 49.1249 58.0081C49.0676 58.2159 49.0389 58.4309 49.0246 58.6388C48.6233 64.2573 48.2291 69.8686 47.8278 75.4871C47.4982 80.1524 47.1542 84.8106 46.8174 89.476C46.4375 94.7362 46.0577 99.9892 45.6779 105.249C45.3411 109.886 45.0115 114.53 44.6746 119.167C44.3522 123.66 44.0153 128.16 43.7 132.654C43.6714 133.048 43.7072 133.471 43.8219 133.843C43.9867 134.381 44.3593 134.689 44.9756 134.732C48.5229 134.997 52.0631 135.291 55.6104 135.578C58.8424 135.843 62.0743 136.115 65.3135 136.373C67.9077 136.581 70.5019 136.782 73.0889 136.99C76.4212 137.255 79.7464 137.527 83.0787 137.799C85.6729 138.007 88.2671 138.208 90.8541 138.423C94.2079 138.695 97.5617 138.967 100.916 139.24C102.291 139.354 103.675 139.462 105.058 139.562C105.287 139.577 105.523 139.562 105.817 139.562C104.685 112.029 103.56 84.5526 102.428 56.9976C101.768 56.9116 101.138 56.9618 100.5 56.9546C99.8334 56.9475 99.1598 56.9546 98.4933 56.9546C97.8484 56.9546 97.2034 56.9546 96.5584 56.9546C95.9135 56.9546 95.2757 56.9546 94.645 56.9546C94.4731 56.4243 94.4301 53.8587 94.5734 52.8053C100.206 52.8053 105.846 52.8053 111.565 52.8053C111.565 52.3538 111.586 51.9811 111.565 51.6085C111.221 46.5705 109.594 42.0126 106.419 38.0495C105.201 36.5303 103.775 35.2331 102.076 34.2513C98.6868 32.3021 95.3115 32.3092 91.9935 34.4018C91.0476 34.9966 90.1876 35.7204 89.2775 36.4013C88.4821 35.4481 87.6508 34.4448 86.8123 33.4415C86.8625 33.3699 86.8911 33.3054 86.9413 33.2624C89.9511 30.5964 93.3551 28.9052 97.4901 29.0127C100.142 29.0843 102.542 29.9156 104.771 31.3059C108.01 33.334 110.397 36.1504 112.238 39.4542C114.438 43.3957 115.621 47.6311 115.757 52.1531C115.764 52.3394 115.786 52.5258 115.8 52.7551C116.036 52.7694 116.244 52.7981 116.452 52.7981C117.835 52.8053 119.218 52.7909 120.608 52.8053C123.453 52.8339 125.739 54.819 126.083 57.6569C126.356 59.8785 126.549 62.1145 126.771 64.3432C127.094 67.5252 127.409 70.6999 127.725 73.8818C127.983 76.4904 128.241 79.1061 128.499 81.7147C128.764 84.395 129.036 87.0752 129.301 89.7555C129.559 92.3426 129.81 94.9296 130.068 97.5167C130.383 100.699 130.706 103.873 131.021 107.055C131.279 109.664 131.537 112.28 131.795 114.888C132.11 118.07 132.433 121.245 132.748 124.427C132.999 126.921 133.278 129.407 133.479 131.901C133.708 134.66 132.117 136.961 129.416 137.842C124.113 139.577 118.803 141.282 113.507 143.038C111.701 143.64 109.881 144.084 107.974 143.977C106.663 143.905 105.359 143.776 104.047 143.669C101.933 143.497 99.8119 143.325 97.6979 143.153C95.0105 142.938 92.3232 142.723 89.6358 142.501C86.9986 142.286 84.3543 142.078 81.7171 141.863C78.3633 141.59 75.0095 141.318 71.6557 141.046C69.0185 140.831 66.3741 140.63 63.7369 140.422C60.4333 140.157 57.1225 139.885 53.8188 139.62C51.2246 139.412 48.6376 139.204 46.0434 139.003C45.4271 138.953 44.8036 138.924 44.1873 138.846C42.6251 138.652 41.4283 137.842 40.5469 136.56C39.7801 135.442 39.4361 134.187 39.5149 132.833C39.6296 130.998 39.7586 129.164 39.8876 127.336C40.0524 125.05 40.2316 122.771 40.3964 120.485C40.6759 116.658 40.9553 112.824 41.2277 108.997C41.4427 106.045 41.6433 103.099 41.8583 100.147C42.0733 97.1728 42.2954 94.1987 42.5104 91.2246C42.6681 89.0102 42.8257 86.7957 42.9834 84.5885C43.2056 81.5212 43.4349 78.454 43.657 75.3796C43.8147 73.1651 43.9723 70.9507 44.13 68.7434C44.3522 65.6762 44.5743 62.609 44.8036 59.5346C44.861 58.7964 44.8825 58.0511 45.0043 57.3273C45.3913 55.0985 47.0538 53.3427 49.1464 52.8913C49.4044 52.8339 49.6624 52.7981 49.9275 52.7981C51.4754 52.7909 53.0305 52.7909 54.5784 52.7909C54.7146 52.7981 54.8507 52.8268 55.0227 52.8483ZM130.154 133.707C130.168 133.65 130.19 133.6 130.204 133.542C130.104 133.449 130.018 133.335 129.903 133.263C128.979 132.675 128.061 132.073 127.115 131.522C125.575 130.611 124.02 129.723 122.457 128.848C122.106 128.648 121.949 128.411 121.92 128.01C121.841 126.985 121.726 125.968 121.626 124.95C121.368 122.384 121.124 119.826 120.859 117.26C120.551 114.2 120.229 111.14 119.913 108.08C119.605 105.07 119.304 102.053 118.989 99.0432C118.638 95.6535 118.265 92.2637 117.907 88.874C117.556 85.6061 117.212 82.331 116.839 79.0631C116.445 75.6304 116.036 72.1977 115.599 68.7649C115.406 67.2528 115.141 65.7479 114.904 64.2429C114.89 64.1354 114.797 64.0423 114.668 63.8273C114.668 64.9452 114.625 65.927 114.675 66.8945C114.875 70.5852 115.105 74.2759 115.334 77.9667C115.47 80.0879 115.628 82.202 115.786 84.3161C116.058 87.8564 116.33 91.4038 116.61 94.944C116.81 97.5597 117.018 100.175 117.226 102.791C117.491 106.073 117.763 109.349 118.036 112.631C118.258 115.268 118.48 117.905 118.702 120.543C118.91 123.015 119.104 125.487 119.326 127.96C119.369 128.404 119.254 128.719 118.932 129.035C117.634 130.303 116.352 131.586 115.09 132.883C113.793 134.216 112.525 135.578 111.249 136.932C111.084 137.104 110.97 137.319 110.834 137.513C110.877 137.556 110.927 137.599 110.97 137.642C111.371 137.398 111.787 137.183 112.167 136.918C114.897 134.99 117.62 133.062 120.329 131.106C120.788 130.769 121.16 130.726 121.691 130.912C124.163 131.787 126.65 132.625 129.129 133.464C129.466 133.564 129.817 133.621 130.154 133.707Z" fill="#1D1D1B"/>
<path d="M93.4717 55.6946C93.4717 57.3142 93.4788 58.941 93.4645 60.5606C93.4573 60.9906 93.572 61.3131 93.873 61.6499C94.8691 62.7679 95.0411 64.4162 94.3388 65.7205C93.658 66.9961 92.2319 67.7772 90.8416 67.6411C89.2722 67.4834 88.011 66.4801 87.6311 64.9967C87.2442 63.4774 87.6383 62.1588 88.8781 61.1554C89.1647 60.919 89.3009 60.704 89.2937 60.3241C89.2722 57.4862 89.3654 54.6411 89.2436 51.8104C88.9999 46.2349 87.065 41.2972 83.3099 37.1263C81.6688 35.3061 79.7267 33.9158 77.3475 33.1991C74.8752 32.461 72.5318 32.8265 70.2959 34.0376C68.1819 35.1842 66.4763 36.811 65.0646 38.7316C61.9401 42.9957 60.2775 47.7542 60.2703 53.0645C60.2632 55.4295 60.2775 57.7872 60.2632 60.1521C60.2632 60.618 60.385 60.9261 60.7648 61.2343C61.9902 62.2089 62.3915 63.8572 61.8397 65.312C61.2951 66.7524 59.826 67.7199 58.3139 67.6554C56.7373 67.5838 55.3973 66.5805 54.9601 65.0827C54.5946 63.8285 54.7881 62.6532 55.6696 61.6714C55.9849 61.3131 56.0852 60.9691 56.0852 60.5176C56.0924 57.5364 55.9777 54.548 56.1569 51.5739C56.5654 44.6368 59.1954 38.6313 64.1473 33.7151C66.333 31.5437 68.9128 29.9814 71.9585 29.3149C75.0687 28.6413 78.0355 29.0641 80.8805 30.4329C83.6037 31.7443 85.8181 33.6793 87.6598 36.037C90.8201 40.0789 92.6977 44.6726 93.2495 49.768C93.4645 51.7316 93.4502 53.7167 93.5361 55.6946C93.5218 55.6946 93.4932 55.6946 93.4717 55.6946Z" fill="#1D1D1B"/>
<path d="M61.3008 52.8065C67.0195 52.8065 72.645 52.8065 78.3637 52.8065C78.4998 47.5033 79.9761 42.6516 82.8856 38.0508C83.0648 38.2944 83.1866 38.4664 83.3012 38.6313C83.9175 39.5127 84.5267 40.3942 85.143 41.2685C85.3651 41.591 85.3938 41.8705 85.2003 42.2503C83.9032 44.7729 83.0791 47.4532 82.7279 50.2767C82.6276 51.0722 82.6061 51.882 82.5345 52.7707C84.4765 52.7707 86.3254 52.7707 88.2245 52.7707C88.2245 54.1896 88.2245 55.5369 88.2245 56.92C79.2595 56.92 70.3231 56.92 61.3653 56.92C61.3438 56.8054 61.3151 56.7122 61.3079 56.6262C61.3008 55.3864 61.3008 54.1538 61.3008 52.8065Z" fill="#1D1D1B"/>
</g>
<defs>
<clipPath id="clip0_3199_3409">
<rect width="94" height="115" fill="white" transform="translate(39.4961 29)"/>
</clipPath>
</defs>
</svg>
