<svg width="173" height="173" viewBox="0 0 173 173" fill="none" xmlns="http://www.w3.org/2000/svg">
<path d="M131.11 66.7784C131.185 65.1453 131.185 63.735 131.41 62.3246C131.636 60.7658 132.912 59.8008 134.414 59.7266C135.991 59.7266 137.193 60.6915 137.494 62.3246C137.644 62.9184 137.644 63.5865 137.644 64.2546C137.644 64.9969 137.644 65.8134 137.644 66.7784C138.845 66.1103 139.822 65.5165 140.873 64.9969C142.751 64.0319 144.553 64.403 145.454 65.9619C146.431 67.5207 145.83 69.3764 144.027 70.4899C143.051 71.0837 142.075 71.6033 140.873 72.2714C142.075 72.9394 143.051 73.5333 144.027 74.0529C145.83 75.1663 146.431 76.9479 145.454 78.5809C144.553 80.1397 142.676 80.5109 140.723 79.4717C139.747 78.9521 138.845 78.4324 137.719 77.7644C137.644 79.3232 137.719 80.6593 137.494 81.9955C137.268 83.7028 135.991 84.8162 134.339 84.8162C132.762 84.8162 131.56 83.7028 131.26 81.9955C131.185 81.4759 131.185 81.0305 131.185 80.5109C131.185 79.6944 131.185 78.8778 131.185 77.7644C129.983 78.4324 129.082 79.0263 128.031 79.5459C126.228 80.5109 124.351 80.214 123.374 78.7294C122.323 77.0963 122.924 75.2406 124.801 74.0529C125.702 73.4591 126.679 72.9394 127.805 72.2714C126.453 71.3806 125.177 70.7126 123.975 69.8218C122.773 68.931 122.548 67.2238 123.224 65.9619C123.9 64.7 125.477 64.0319 126.979 64.5515C127.655 64.7742 128.331 65.2196 129.007 65.5165C129.758 65.9619 130.359 66.333 131.11 66.7784Z" fill="#1D1D1B"/>
<g clip-path="url(#clip0_3246_1499)">
<path d="M157.19 110.072C155.39 110.572 152.29 111.172 148.59 110.772C144.69 110.372 141.79 109.072 140.09 108.172C145.79 113.872 151.49 119.572 157.19 125.272" stroke="#1D1D1B" stroke-width="2" stroke-miterlimit="10"/>
<path d="M140.576 126.69C141.076 124.89 141.676 121.79 141.276 118.09C140.876 114.19 139.576 111.29 138.676 109.59C144.376 115.29 150.076 120.99 155.776 126.69" stroke="#1D1D1B" stroke-width="2" stroke-miterlimit="10"/>
</g>
<path d="M35.3531 77.8357C34.1515 78.5038 33.1751 79.0976 32.1988 79.6172C30.3963 80.5822 28.5187 80.2853 27.5424 78.8007C26.491 77.1676 27.0918 75.3119 28.9694 74.1242C29.8706 73.5304 30.8469 73.0108 31.9735 72.3427C30.6216 71.452 29.3449 70.7839 28.1432 69.8931C26.8665 68.9281 26.6412 67.1466 27.4673 65.8847C28.2183 64.6228 29.7955 64.1032 31.2975 64.6228C31.9735 64.8455 32.5743 65.2167 33.1751 65.5878C33.7759 65.8847 34.3768 66.2559 35.278 66.7755C35.278 65.4393 35.278 64.4001 35.278 63.2867C35.278 61.8763 35.7286 60.6886 37.1556 60.0206C38.958 59.1298 41.136 60.169 41.5115 62.1732C41.6617 62.9155 41.6617 63.6578 41.6617 64.4001C41.6617 65.1424 41.6617 65.8105 41.6617 66.7755C42.8634 66.1074 43.8397 65.5136 44.8161 64.994C46.6936 64.029 48.4961 64.4001 49.3973 65.959C50.3737 67.5178 49.7729 69.3735 47.9704 70.487C46.994 71.0808 46.0177 71.6004 44.8161 72.2685C46.0177 72.9365 46.994 73.5304 47.9704 74.05C49.7729 75.1634 50.3737 76.945 49.3973 78.578C48.4961 80.1368 46.6185 80.508 44.6659 79.4688C43.6895 78.9492 42.7883 78.4295 41.6617 77.8357C41.5866 79.4688 41.5866 80.8791 41.3613 82.3637C41.136 83.9225 39.7842 84.8875 38.2821 84.8875C36.7801 84.8875 35.5784 83.8483 35.278 82.3637C35.1278 81.7699 35.1278 81.176 35.1278 80.5822C35.278 79.7657 35.3531 78.9492 35.3531 77.8357Z" fill="#1D1D1B"/>
<path d="M73.6524 77.7644C73.6524 79.249 73.7275 80.4366 73.6524 81.5501C73.5773 83.5543 72.2254 84.9647 70.4229 84.8904C68.6956 84.8162 67.4188 83.5543 67.3437 81.5501C67.2686 80.3624 67.3437 79.1747 67.3437 77.7644C66.1421 78.4324 65.2408 78.9521 64.1894 79.5459C62.3118 80.5851 60.3591 80.214 59.4579 78.6551C58.5567 77.0221 59.0824 75.2406 60.8849 74.1271C61.7861 73.5333 62.7624 73.0137 63.9641 72.3456C62.6122 71.5291 61.4106 70.861 60.284 70.0445C58.9322 69.0795 58.6318 67.4464 59.3828 66.1103C60.1338 64.7 61.7861 64.1061 63.3633 64.7742C63.9641 64.9969 64.4898 65.368 65.0906 65.6649C65.7666 66.0361 66.3674 66.4072 67.2686 66.8526C67.2686 65.5165 67.2686 64.403 67.2686 63.2896C67.3437 61.1369 68.6205 59.7266 70.4229 59.7266C72.3005 59.7266 73.5022 61.1369 73.5773 63.2896C73.5773 64.403 73.5773 65.4422 73.5773 66.8526C74.854 66.1103 75.9805 65.5165 77.1071 64.9226C78.8345 64.1061 80.5618 64.5515 81.4631 65.9619C82.3643 67.4464 81.9137 69.228 80.2614 70.3414C79.6606 70.7868 78.9847 71.0837 78.3087 71.4549C77.8581 71.6775 77.4826 71.9745 76.8818 72.3456C78.0083 73.0137 78.9847 73.5333 79.961 74.1271C81.8386 75.3148 82.4394 77.0963 81.388 78.8036C80.4867 80.2882 78.6091 80.6593 76.7316 79.6201C75.9054 79.1005 74.9291 78.5067 73.6524 77.7644Z" fill="#1D1D1B"/>
<path d="M96.0347 72.3456C94.7579 71.6033 93.7065 71.0837 92.8052 70.4899C91.0779 69.3764 90.5521 67.5949 91.4534 66.0361C92.3546 64.4773 94.2322 64.1061 96.0347 65.0711C97.011 65.5907 97.9873 66.1845 99.3392 66.9268C99.3392 65.5907 99.3392 64.4773 99.3392 63.3638C99.4143 61.1369 100.616 59.8008 102.493 59.8008C104.371 59.8008 105.648 61.2111 105.723 63.438C105.723 64.4773 105.723 65.5907 105.723 66.8526C106.849 66.1845 107.826 65.6649 108.727 65.1453C110.755 64.0319 112.632 64.403 113.534 66.0361C114.435 67.6691 113.834 69.4506 111.881 70.6383C110.98 71.1579 110.079 71.6775 108.952 72.3456C110.079 73.0137 111.055 73.5333 112.032 74.1271C113.909 75.3148 114.51 77.1705 113.459 78.8036C112.557 80.2882 110.68 80.6593 108.877 79.6201C107.901 79.1005 106.925 78.5067 105.723 77.8386C105.723 79.1747 105.723 80.2882 105.723 81.4016C105.648 83.5543 104.371 84.9646 102.493 84.8904C100.691 84.8904 99.4143 83.5543 99.3392 81.4759C99.2641 80.3624 99.3392 79.249 99.3392 77.8386C98.1375 78.5067 97.1612 79.0263 96.1849 79.5459C94.3073 80.5851 92.3546 80.2139 91.4534 78.6551C90.477 77.0221 91.0779 75.2406 92.8803 74.1271C93.8567 73.5333 94.833 73.0137 96.0347 72.3456Z" fill="#1D1D1B"/>
<path d="M155.744 49.1836H17.2539V94.7606H155.744V49.1836Z" stroke="#1D1D1B" stroke-width="5" stroke-miterlimit="10"/>
<defs>
<clipPath id="clip0_3246_1499">
<rect width="23.5" height="23.5" fill="white" transform="translate(134.387 103.973)"/>
</clipPath>
</defs>
</svg>
